<?xml version="1.0" encoding="UTF-8"?>
<svg width="161px" height="100px" viewBox="0 0 161 100" version="1.1" xmlns="http://www.w3.org/2000/svg" xmlns:xlink="http://www.w3.org/1999/xlink">
    <!-- Generator: Sketch 43.1 (39012) - http://www.bohemiancoding.com/sketch -->
    <title>diners</title>
    <desc>Created with Sketch.</desc>
    <defs></defs>
    <g id="Page-1" stroke="none" stroke-width="1" fill="none" fill-rule="evenodd">
        <g id="diners" fill-rule="nonzero">
            <path d="M160.1,94.7 C160.1,97.6 157.7,100 154.8,100 L5.4,100 C2.5,100 0.1,97.6 0.1,94.7 L0.1,5.3 C0.1,2.4 2.4,0 5.4,0 L154.8,0 C157.7,0 160.1,2.4 160.1,5.3 L160.1,94.7 L160.1,94.7 Z" id="Shape" fill="#084E94"></path>
            <path d="M83.9,54.6 C92.9,54.7 101.2,47.2 101.2,38.2 C101.2,28.3 92.9,21.5 83.9,21.5 L76.1,21.5 C66.9,21.5 59.4,28.3 59.4,38.2 C59.4,47.2 66.9,54.6 76.1,54.6 L83.9,54.6 Z" id="Shape" fill="#FFFFFF"></path>
            <path d="M79.6,46.9 L79.6,29.1 C83.2,30.5 85.8,34 85.8,38.1 C85.7,42.1 83.2,45.6 79.6,46.9 L79.6,46.9 Z M66.6,37.9 C66.6,33.8 69.2,30.3 72.8,28.9 L72.8,46.8 C69.1,45.6 66.6,42.1 66.6,37.9 L66.6,37.9 Z M76.1,22.9 C67.7,22.9 60.9,29.7 60.9,38.1 C60.9,46.5 67.7,53.2 76.1,53.3 C84.5,53.3 91.2,46.5 91.2,38.1 C91.3,29.7 84.4,22.9 76.1,22.9 L76.1,22.9 Z" id="Shape" fill="#084E94"></path>
            <path d="M42.4,65.9 C42.4,67.2 43.4,67.4 44.2,67.4 C48,67.4 49.2,64.5 49.2,61.9 C49.2,58.6 47.1,56.3 43.7,56.3 C43,56.3 42.6,56.4 42.3,56.4 L42.4,65.9 L42.4,65.9 Z M40.8,57.7 C40.8,56.1 40,56.2 39.2,56.2 L39.2,55.8 L41.2,55.8 L44.2,55.8 C48.7,55.8 51.2,58.8 51.2,61.9 C51.2,63.6 50.2,68 44,68 L41.5,68 L39.2,68 L39.2,67.5 C40.3,67.4 40.8,67.3 40.8,66.2 L40.8,57.7 L40.8,57.7 Z" id="Shape" fill="#FFFFFF"></path>
            <path d="M53.7,57.3 C53.2,57.3 52.9,56.9 52.9,56.4 C52.9,55.9 53.3,55.6 53.7,55.6 C54.2,55.6 54.6,56 54.6,56.4 C54.6,56.9 54.2,57.3 53.7,57.3 L53.7,57.3 Z M51.9,67.4 L52.2,67.4 C52.7,67.4 53,67.4 53,66.8 L53,62.1 C53,61.3 52.7,61.2 52.1,60.9 L52.1,60.6 C52.9,60.4 53.9,60 54,60 C54.1,59.9 54.2,59.9 54.3,59.9 C54.4,59.9 54.4,60 54.4,60.2 L54.4,66.9 C54.4,67.5 54.8,67.5 55.3,67.5 L55.6,67.5 L55.6,68 L53.8,68 L51.9,68 L51.9,67.4 L51.9,67.4 Z" id="Shape" fill="#FFFFFF"></path>
            <path d="M57.3,62.3 C57.3,61.6 57.1,61.5 56.3,61.1 L56.3,60.8 C57.1,60.6 57.8,60.3 58.6,60 C58.7,60 58.7,60.1 58.7,60.2 L58.7,61.3 C59.7,60.6 60.6,60 61.7,60 C63.2,60 63.7,61.1 63.7,62.5 L63.7,67 C63.7,67.6 64.1,67.6 64.6,67.6 L64.9,67.6 L64.9,68.1 L63.1,68.1 L61.2,68.1 L61.2,67.6 L61.5,67.6 C62,67.6 62.3,67.6 62.3,67 L62.3,62.5 C62.3,61.5 61.7,61 60.7,61 C60.1,61 59.3,61.5 58.7,61.8 L58.7,67 C58.7,67.6 59.1,67.6 59.6,67.6 L59.9,67.6 L59.9,68.1 L58,68.1 L56.1,68.1 L56.1,67.6 L56.4,67.6 C56.9,67.6 57.2,67.6 57.2,67 L57.3,62.3 L57.3,62.3 Z" id="Shape" fill="#FFFFFF"></path>
            <path d="M69.3,62.6 C69.7,62.6 69.8,62.4 69.8,62.1 C69.8,61.2 69.3,60.5 68.3,60.5 C67.2,60.5 66.5,61.3 66.3,62.5 L69.3,62.6 L69.3,62.6 Z M66.3,63.1 C66.2,63.3 66.2,63.5 66.3,64.1 C66.4,65.8 67.5,67.1 68.9,67.1 C69.9,67.1 70.6,66.6 71.3,65.9 L71.5,66.1 C70.7,67.2 69.7,68.1 68.3,68.1 C65.5,68.1 65,65.4 65,64.3 C65,60.9 67.3,59.8 68.5,59.8 C69.9,59.8 71.4,60.7 71.4,62.6 L71.4,62.9 L71.2,63 L66.3,63.1 L66.3,63.1 Z" id="Shape" fill="#FFFFFF"></path>
            <path d="M71.7,67.4 L72.2,67.4 C72.7,67.4 73,67.4 73,66.8 L73,61.9 C73,61.4 72.3,61.3 72.1,61.1 L72.1,60.9 C73.4,60.3 74.1,59.9 74.2,59.9 C74.3,59.9 74.4,60 74.4,60.1 L74.4,61.7 L74.4,61.7 C74.8,61 75.6,59.9 76.6,59.9 C77.1,59.9 77.6,60.2 77.6,60.8 C77.6,61.3 77.3,61.7 76.8,61.7 C76.3,61.7 76.3,61.3 75.7,61.3 C75.4,61.3 74.4,61.7 74.4,62.7 L74.4,66.8 C74.4,67.4 74.8,67.4 75.2,67.4 L76.2,67.4 L76.2,67.9 L73.7,67.9 L71.6,67.9 L71.7,67.4 L71.7,67.4 Z" id="Shape" fill="#FFFFFF"></path>
            <path d="M78.4,65.4 C78.6,66.6 79.3,67.5 80.6,67.5 C81.7,67.5 82,66.9 82,66.3 C82,64.2 78.2,64.9 78.2,62.1 C78.2,61.1 79,59.8 80.9,59.8 C81.5,59.8 82.2,60 82.9,60.3 L83,62.1 L82.6,62.1 C82.4,61 81.8,60.4 80.7,60.4 C80,60.4 79.3,60.8 79.3,61.5 C79.3,63.5 83.4,62.9 83.4,65.7 C83.4,66.8 82.5,68.1 80.4,68.1 C79.7,68.1 78.9,67.9 78.3,67.5 L78.1,65.5 L78.4,65.4 Z" id="Shape" fill="#FFFFFF"></path>
            <path d="M99.3,58.9 L98.9,58.9 C98.6,56.9 97.1,56 95.1,56 C93.1,56 90.2,57.4 90.2,61.5 C90.2,65 92.7,67.6 95.4,67.6 C97.1,67.6 98.6,66.4 98.9,64.6 L99.3,64.7 L98.9,67.3 C98.1,67.8 96.2,68.2 95,68.2 C90.9,68.2 88.3,65.6 88.3,61.6 C88.3,58 91.5,55.4 94.9,55.4 C96.3,55.4 97.7,55.9 99,56.3 L99.3,58.9 Z" id="Shape" fill="#FFFFFF"></path>
            <path d="M99.8,67.4 L100.1,67.4 C100.6,67.4 100.9,67.4 100.9,66.8 L100.9,57.1 C100.9,56 100.7,55.9 100,55.7 L100,55.4 C100.7,55.2 101.4,54.9 101.8,54.7 C102,54.6 102.1,54.5 102.2,54.5 C102.3,54.5 102.3,54.6 102.3,54.7 L102.3,66.8 C102.3,67.4 102.7,67.4 103.2,67.4 L103.5,67.4 L103.5,68 L101.7,68 L99.8,68 L99.8,67.4 L99.8,67.4 Z" id="Shape" fill="#FFFFFF"></path>
            <path d="M111.1,66.9 C111.1,67.2 111.3,67.2 111.6,67.2 L112.3,67.2 L112.3,67.6 C111.5,67.7 110.1,68 109.8,68.1 L109.7,68 L109.7,66.6 C108.6,67.5 107.8,68.1 106.6,68.1 C105.6,68.1 104.7,67.5 104.7,66 L104.7,61.5 C104.7,61 104.6,60.6 103.6,60.5 L103.6,60.2 C104.2,60.2 105.6,60.1 105.9,60.1 C106.1,60.1 106.1,60.2 106.1,60.6 L106.1,65.1 C106.1,65.6 106.1,67.1 107.6,67.1 C108.2,67.1 109,66.6 109.7,66 L109.7,61.3 C109.7,60.9 108.9,60.8 108.2,60.6 L108.2,60.3 C109.8,60.2 110.8,60.1 110.9,60.1 C111.1,60.1 111.1,60.2 111.1,60.4 L111.1,66.9 L111.1,66.9 Z" id="Shape" fill="#FFFFFF"></path>
            <path d="M114.6,65.9 C114.6,66.6 115.2,67.7 116.4,67.7 C118.3,67.7 119.1,65.9 119.1,64.3 C119.1,62.4 117.7,60.8 116.3,60.8 C115.6,60.8 115.1,61.2 114.6,61.6 L114.6,65.9 L114.6,65.9 Z M114.6,61.2 C115.3,60.6 116.3,59.9 117.2,59.9 C119.2,59.9 120.4,61.7 120.4,63.6 C120.4,65.9 118.7,68.2 116.2,68.2 C114.9,68.2 114.2,67.8 113.8,67.6 L113.3,68 L112.9,67.8 C113.1,66.7 113.1,65.7 113.1,64.7 L113.1,57.2 C113.1,56.1 112.8,56 112.2,55.8 L112.2,55.5 C112.9,55.3 113.6,55 114,54.8 C114.2,54.7 114.3,54.6 114.4,54.6 C114.5,54.6 114.5,54.7 114.5,54.8 L114.6,61.2 L114.6,61.2 Z" id="Shape" fill="#FFFFFF"></path>
            <path d="M39.2,78.1 L39.4,78.1 C39.7,78.1 40.1,78.1 40.1,77.6 L40.1,72.6 C40.1,72.1 39.7,72 39.4,72 L39.2,72 L39.2,71.7 L40.6,71.7 L42.1,71.7 L42.1,72 L41.9,72 C41.6,72 41.2,72.1 41.2,72.6 L41.2,77.6 C41.2,78.1 41.6,78.1 41.9,78.1 L42.1,78.1 L42.1,78.4 L40.6,78.4 L39.2,78.4 L39.2,78.1 L39.2,78.1 Z" id="Shape" fill="#FFFFFF"></path>
            <path d="M41.9,78.4 L41.9,78.2 L41.8,78.2 C41.5,78.2 41,78.1 41,77.6 L41,72.6 C41,72.1 41.4,72 41.8,72 L41.9,72 L41.9,71.8 C41.5,71.8 40.9,71.9 40.5,71.9 C40,71.9 39.5,71.8 39.1,71.8 L39.1,72 L39.2,72 C39.6,72 40,72.1 40,72.6 L40,77.6 C40,78.1 39.6,78.2 39.2,78.2 L39.1,78.2 L39.1,78.4 C39.5,78.4 40,78.3 40.5,78.3 C40.9,78.3 41.6,78.4 41.9,78.4 L41.9,78.4 Z M42.1,78.4 L40.6,78.4 L39.2,78.4 L39.2,78.4 L39.2,78.4 L39.2,78.1 L39.2,78.1 L39.2,78.1 L39.3,78.1 C39.7,78.1 40,78.1 40,77.6 L40,72.6 C40,72.1 39.7,72.1 39.3,72.1 L39.1,72.1 L39.1,72 L39.1,71.7 L39.1,71.7 C39.5,71.7 40,71.8 40.5,71.8 C41,71.8 41.6,71.7 42,71.7 L42,71.7 L42,71.8 L42,72.1 L42,72.1 L41.8,72.1 C41.5,72.1 41.1,72.1 41.1,72.6 L41.1,77.6 C41.1,78.1 41.4,78.1 41.8,78.1 L42,78.1 L42,78.1 L42.1,78.4 L42.1,78.4 L42.1,78.4 Z" id="Shape" fill="#FFFFFF"></path>
            <path d="M48.6,76.4 L48.6,76.4 L48.6,72.8 C48.6,72 48.1,71.9 47.8,71.9 L47.6,71.9 L47.6,71.6 L49,71.6 L50.1,71.6 L50.1,71.9 L50,71.9 C49.6,71.9 49.2,72 49.2,73.1 L49.2,77.4 L49.2,78.4 L48.8,78.4 L43.9,72.9 L43.9,76.8 C43.9,77.6 44.1,77.9 44.8,77.9 L45,77.9 L45,78.2 L43.8,78.2 L42.5,78.2 L42.5,78 L42.6,78 C43.3,78 43.5,77.6 43.5,76.8 L43.5,72.8 C43.5,72.3 43,72 42.6,72 L42.5,72 L42.5,71.7 L43.6,71.7 L44.4,71.7 L48.6,76.4 Z" id="Shape" fill="#FFFFFF"></path>
            <path d="M48.8,78.4 L49.1,78.4 C49,78.1 49,77.8 49,77.5 L49,73.2 C49,72.1 49.5,71.9 49.9,71.9 L50,71.9 L50,71.7 C49.6,71.7 49.2,71.8 48.9,71.8 C48.5,71.8 48.1,71.7 47.6,71.7 L47.6,71.9 L47.7,71.9 C48,71.9 48.6,72 48.6,72.8 L48.6,76.4 L48.6,76.4 L48.6,76.4 L44.4,71.6 C44.1,71.6 43.9,71.7 43.6,71.7 C43.2,71.7 42.9,71.6 42.5,71.6 L42.5,71.8 L42.6,71.8 C43.1,71.8 43.5,72.1 43.5,72.7 L43.5,76.7 C43.5,77.4 43.3,78 42.6,78 L42.5,78 L42.5,78.2 L43.8,78.2 L45,78.2 L45,78 L44.9,78 C44.1,78 44,77.7 44,76.8 L44,72.8 L48.8,78.4 Z M49.1,78.6 L48.7,78.6 L43.9,73.2 L43.9,77 C43.9,77.8 44,78.1 44.7,78.1 L44.9,78.1 L44.9,78.1 L44.9,78.4 L44.8,78.4 L43.6,78.4 L42.3,78.4 L42.2,78.4 L42.2,78.4 L42.2,78.1 L42.3,78.1 L42.4,78.1 C43,78.1 43.2,77.7 43.2,76.9 L43.2,72.9 C43.2,72.4 42.8,72.1 42.4,72.1 L42.2,72.1 L42.2,72 L42.2,71.7 L42.3,71.7 L43.4,71.7 L44.3,71.7 L48.5,76.4 L48.5,72.9 C48.5,72.1 48,72.1 47.7,72.1 L47.5,72.1 L47.5,72 L47.5,71.7 L47.5,71.7 L48.8,71.7 L50,71.7 L50.1,71.7 L50.1,71.7 L50.1,72 L50.1,72 L50,72 C49.6,72 49.2,72 49.2,73.2 L49.2,77.5 C49.1,77.9 49.1,78.3 49.1,78.6 L49.1,78.6 L49.1,78.6 L49.1,78.6 Z" id="Shape" fill="#FFFFFF"></path>
            <path d="M51.4,72.2 C50.7,72.2 50.6,72.3 50.5,73.1 L50.2,73.1 C50.2,72.8 50.3,72.6 50.3,72.3 C50.3,72 50.4,71.8 50.4,71.5 L50.6,71.5 C50.7,71.8 50.9,71.8 51.2,71.8 L56.1,71.8 C56.3,71.8 56.6,71.8 56.6,71.5 L56.8,71.5 C56.8,71.8 56.7,72 56.7,72.3 L56.7,73.1 L56.4,73.2 C56.4,72.9 56.3,72.3 55.7,72.3 L54.1,72.3 L54.1,77.4 C54.1,78.2 54.4,78.2 54.9,78.2 L55.1,78.2 L55.1,78.5 L53.5,78.5 L51.9,78.5 L51.9,78.1 L52.1,78.1 C52.6,78.1 52.9,78.1 52.9,77.3 L52.9,72.2 L51.4,72.2 L51.4,72.2 Z" id="Shape" fill="#FFFFFF"></path>
            <path d="M55.3,78.4 L53.7,78.4 L52.1,78.4 L52.1,78.4 L52.1,78.4 L52.1,78.1 L52.2,78.1 L52.4,78.1 C52.9,78.1 53.1,78.1 53.1,77.3 L53.1,72.3 L51.6,72.3 L51.6,72.3 L51.6,72.2 L53.2,72.2 L53.2,77.3 C53.2,78.1 52.9,78.1 52.4,78.1 L52.2,78.1 L52.2,78.3 L53.8,78.3 C54.2,78.3 54.9,78.4 55.3,78.4 L55.2,78.1 L55.1,78.1 C54.6,78.1 54.3,78 54.3,77.2 L54.3,72.1 L55.9,72.1 C56.6,72.1 56.6,72.7 56.7,73 L56.9,72.9 L56.9,72.1 C56.9,71.9 57,71.6 57,71.4 L56.8,71.4 C56.8,71.7 56.5,71.7 56.3,71.7 L51.4,71.7 L51.4,71.7 C51.2,71.7 50.9,71.7 50.8,71.4 L50.6,71.4 C50.6,71.7 50.6,71.9 50.5,72.2 C50.5,72.5 50.4,72.7 50.4,73 L50.6,73 C50.7,72.3 50.8,72.1 51.5,72.1 L51.5,72.2 L51.5,72.2 C50.8,72.2 50.8,72.3 50.7,73 L50.7,73 L50.7,73 L50.3,73 L50.3,72.9 C50.3,72.7 50.4,72.4 50.4,72.1 C50.5,71.9 50.5,71.6 50.5,71.3 L50.5,71.2 L50.6,71.2 L50.8,71.2 L50.8,71.2 C50.9,71.4 51,71.4 51.3,71.5 L51.3,71.5 L56.2,71.5 C56.4,71.5 56.7,71.5 56.7,71.2 L56.7,71.2 L56.8,71.2 L57.1,71.2 L57.1,71.3 C57,71.4 57,71.8 57,72.1 L57,72.9 L57,72.9 L57,72.9 L56.6,73 L56.6,73.1 C56.6,72.7 56.5,72.2 55.9,72.2 L54.4,72.2 L54.4,77.2 C54.4,77.9 54.7,78 55.2,78 L55.4,78 L55.4,78 L55.3,78.4 L55.3,78.4 L55.3,78.4 Z" id="Shape" fill="#FFFFFF"></path>
            <path d="M57.3,78.1 L57.5,78.1 C57.8,78.1 58.2,78.1 58.2,77.6 L58.2,72.6 C58.2,72.1 57.8,72 57.5,72 L57.3,72 L57.3,71.7 L59.7,71.7 L62.1,71.7 L62.1,73.1 L61.8,73.2 C61.8,72.6 61.7,72.1 60.7,72.1 L59.4,72.1 L59.4,74.6 L60.5,74.6 C61.1,74.6 61.2,74.3 61.3,73.8 L61.6,73.8 L61.6,74.9 L61.6,76 L61.3,76.1 C61.2,75.5 61.2,75.2 60.6,75.2 L59.5,75.2 L59.5,77.4 C59.5,78 60,78 60.6,78 C61.7,78 62.3,77.9 62.5,76.8 L62.8,76.9 C62.7,77.4 62.6,77.9 62.5,78.4 L59.9,78.4 L57.3,78.4 L57.3,78.1 L57.3,78.1 Z" id="Shape" fill="#FFFFFF"></path>
            <path d="M62.3,78.4 C62.4,77.9 62.5,77.5 62.6,77 L62.4,76.9 C62.1,78 61.6,78.1 60.4,78 C59.8,78 59.2,78 59.2,77.3 L59.2,75.1 L60.4,75.1 C61.1,75.1 61.1,75.5 61.2,76 L61.4,76 L61.4,74.9 L61.4,73.8 L61.2,73.8 C61.1,74.3 61,74.6 60.4,74.6 L59.2,74.6 L59.2,72.1 L60.6,72.1 C61.6,72.1 61.7,72.6 61.8,73.2 L62,73.1 L62,72.2 L62,71.7 C61.3,71.7 60.4,71.8 59.6,71.8 C58.8,71.8 57.9,71.7 57.3,71.7 L57.3,71.9 L57.4,71.9 C57.7,71.9 58.2,72 58.2,72.5 L58.2,77.5 C58.2,78 57.8,78.1 57.4,78.1 L57.3,78.1 L57.3,78.3 L59.8,78.3 C60.6,78.3 61.7,78.4 62.3,78.4 L62.3,78.4 Z M62.4,78.4 L59.8,78.4 L57.2,78.4 L57.2,78.4 L57.2,78.4 L57.2,78.1 L57.2,78.1 L57.2,78.1 L57.4,78.1 C57.7,78.1 58.1,78.1 58.1,77.6 L58.1,72.6 C58.1,72.1 57.8,72.1 57.4,72.1 L57.2,72.1 L57.2,72 L57.2,71.7 L57.2,71.7 L59.6,71.7 L62,71.7 L62,71.7 L62,71.7 L62,72.2 L62,73.2 L62,73.2 L62,73.2 L61.7,73.3 L61.7,73.2 C61.6,72.6 61.5,72.1 60.6,72.1 L59.3,72.1 L59.3,74.5 L60.4,74.5 C60.9,74.5 61.1,74.2 61.1,73.7 L61.1,73.7 L61.1,73.7 L61.4,73.7 L61.4,73.7 L61.4,74.8 L61.4,75.9 L61.4,75.9 L61.4,75.9 L61,75.9 L61,76 C60.9,75.4 60.9,75.1 60.3,75.1 L59.2,75.1 L59.2,77.3 C59.2,77.9 59.7,77.9 60.3,77.9 C61.4,77.9 61.9,77.8 62.2,76.8 L62.2,76.8 L62.3,76.8 L62.6,76.9 L62.6,77 C62.6,77.4 62.4,77.9 62.4,78.4 L62.4,78.4 L62.4,78.4 L62.4,78.4 Z" id="Shape" fill="#FFFFFF"></path>
            <path d="M65.2,74.9 L65.7,74.9 C66.7,74.9 67.2,74.5 67.2,73.4 C67.2,72.5 66.7,72 65.8,72 C65.5,72 65.4,72 65.3,72.1 L65.2,74.9 L65.2,74.9 Z M63.9,72.8 C63.9,72.1 63.5,72.1 63.2,72.1 L63,72.1 L63,71.8 L64.5,71.8 L66,71.8 C67.2,71.8 68.3,72.1 68.3,73.5 C68.3,74.3 67.7,74.9 67,75.2 L68.6,77.6 C68.9,78 69.1,78.1 69.5,78.2 L69.5,78.5 L68.6,78.5 L67.7,78.5 C67,77.5 66.3,76.5 65.7,75.4 L65.1,75.4 L65.1,77.4 C65.1,78.2 65.4,78.2 65.9,78.2 L66.1,78.2 L66.1,78.5 L64.5,78.5 L63.1,78.5 L63.1,78.1 L63.3,78.1 C63.6,78.1 64,77.9 64,77.6 L63.9,72.8 L63.9,72.8 Z" id="Shape" fill="#FFFFFF"></path>
            <path d="M65.7,74.9 C66.6,74.9 67.1,74.5 67.1,73.5 C67.1,72.7 66.6,72.1 65.7,72.1 L65.2,72.1 L65.2,75 L65.7,74.9 L65.7,74.9 Z M65.2,74.9 L65.2,74.9 L65.1,72 L65.1,72 L65.7,72 C66.5,72 67.1,72.6 67.1,73.4 C67.1,74.5 66.6,74.9 65.6,74.9 L65.2,74.9 L65.2,74.9 Z M65.2,75.3 L65.8,75.3 L65.8,75.3 C66.4,76.4 67,77.4 67.7,78.4 C68,78.4 68.3,78.3 68.6,78.3 L69.5,78.3 L69.5,78.1 C69,78 68.8,77.9 68.6,77.5 L66.9,75 L67,75 C67.7,74.7 68.3,74.2 68.3,73.4 C68.3,72.1 67.3,71.8 66.1,71.7 C65.6,71.7 65.1,71.8 64.6,71.8 C64.1,71.8 63.5,71.7 63.2,71.7 L63.2,71.9 L63.4,71.9 C63.7,71.9 64.1,72 64.1,72.7 L64.1,77.5 C64.1,77.9 63.8,78.1 63.4,78.1 L63.2,78.1 L63.2,78.3 C63.7,78.3 64.1,78.2 64.6,78.2 C65.1,78.2 65.7,78.3 66.2,78.3 L66.2,78.1 L66,78.1 C65.6,78.1 65.2,78 65.2,77.3 L65.2,75.3 L65.2,75.3 L65.2,75.3 Z M69.6,78.4 L68.7,78.4 L67.8,78.4 C67.1,77.4 66.4,76.4 65.8,75.3 L65.2,75.3 L65.2,77.3 C65.2,78 65.5,78 65.9,78 L66.1,78 L66.1,78 L66.1,78.3 L66.1,78.3 L64.5,78.3 L63.1,78.3 L63.1,78.3 L63.1,78.3 L63.1,78.1 L63.1,78.1 L63.3,78.1 C63.6,78.1 63.9,78 63.9,77.6 L63.9,72.8 C63.9,72.1 63.6,72.1 63.3,72.1 L63.1,72.1 L63.1,72 L63.1,71.7 L63.1,71.7 L64.6,71.7 L66.1,71.7 C67.3,71.7 68.4,72 68.4,73.4 C68.4,74.2 67.8,74.8 67.1,75.1 L68.7,77.5 C69,77.9 69.2,78 69.6,78 L69.6,78 L69.6,78 L69.6,78.4 L69.6,78.4 L69.6,78.4 Z" id="Shape" fill="#FFFFFF"></path>
            <path d="M76.1,76.4 L76.1,76.4 L76.1,72.8 C76.1,72 75.5,71.9 75.3,71.9 L75.1,71.9 L75.1,71.6 L76.4,71.6 L77.6,71.6 L77.6,71.9 L77.5,71.9 C77.1,71.9 76.7,72 76.7,73.1 L76.7,77.4 L76.7,78.4 L76.3,78.4 L71.4,72.9 L71.4,76.8 C71.4,77.6 71.6,77.9 72.3,77.9 L72.5,77.9 L72.5,78.2 L71.3,78.2 L70,78.2 L70,78 L70.1,78 C70.8,78 71,77.6 71,76.8 L71,72.8 C71,72.3 70.5,72 70.1,72 L70,72 L70,71.7 L71.1,71.7 L71.9,71.7 L76.1,76.4 Z" id="Shape" fill="#FFFFFF"></path>
            <path d="M76.3,78.4 L76.6,78.4 C76.5,78.1 76.5,77.8 76.5,77.5 L76.5,73.2 C76.5,72.1 77,71.9 77.4,71.9 L77.5,71.9 L77.5,71.7 C77.1,71.7 76.7,71.8 76.4,71.8 C76,71.8 75.6,71.7 75.1,71.7 L75.1,71.9 L75.3,71.9 C75.6,71.9 76.2,72 76.2,72.8 L76.2,76.4 L76.2,76.4 L76.2,76.4 L72,71.6 C71.7,71.6 71.4,71.7 71.2,71.7 C70.8,71.7 70.5,71.6 70.1,71.6 L70.1,71.8 L70.2,71.8 C70.7,71.8 71.1,72.1 71.1,72.7 L71.1,76.7 C71.1,77.5 70.9,78 70.2,78 L70,78 L70,78.2 L71.2,78.2 L72.4,78.2 L72.4,78 L72.3,78 C71.5,78 71.4,77.7 71.4,76.8 L71.4,72.8 L76.3,78.4 Z M76.6,78.6 L76.2,78.6 L71.4,73.2 L71.4,77 C71.4,77.8 71.5,78.1 72.2,78.1 L72.4,78.1 L72.4,78.1 L72.4,78.4 L72.3,78.4 L71.1,78.4 L69.8,78.4 L69.7,78.4 L69.7,78.4 L69.7,78.1 L69.8,78.1 L69.9,78.1 C70.5,78.1 70.7,77.7 70.7,76.9 L70.7,72.9 C70.7,72.4 70.3,72.1 69.9,72.1 L69.7,72.1 L69.7,72.1 L69.7,71.8 L69.8,71.8 L70.9,71.8 L71.8,71.8 L76,76.5 L76,73 C76,72.2 75.5,72.2 75.2,72.2 L75,72.2 L75,72 L75,71.7 L75,71.7 L76.3,71.7 L77.5,71.7 L77.6,71.7 L77.6,71.7 L77.6,72 L77.5,72 L77.4,72 C77,72 76.6,72 76.6,73.2 L76.6,77.5 C76.6,77.9 76.6,78.3 76.6,78.6 L76.6,78.6 L76.6,78.6 L76.6,78.6 Z" id="Shape" fill="#FFFFFF"></path>
            <path d="M80.4,72.8 L80.4,72.8 L79.5,75.5 L81.3,75.5 L80.4,72.8 Z M79.1,77.1 C79,77.4 78.9,77.7 78.9,77.8 C78.9,78.1 79.3,78.1 79.6,78.1 L79.7,78.1 L79.7,78.4 L78.5,78.4 L77.5,78.4 L77.5,78.1 L77.6,78.1 C78,78.1 78.3,77.9 78.4,77.5 L79.9,73.1 C80,72.7 80.2,72.3 80.3,71.9 C80.6,71.8 81,71.6 81.2,71.5 L81.3,71.5 L81.4,71.5 C81.4,71.6 81.5,71.6 81.5,71.7 L83.2,76.7 C83.3,77 83.4,77.4 83.6,77.7 C83.7,78 83.9,78.1 84.2,78.1 L84.3,78.1 L84.3,78.4 L83,78.4 L81.6,78.4 L81.6,78.1 L81.7,78.1 C81.9,78.1 82.3,78.1 82.3,77.8 C82.3,77.7 82.2,77.4 82.1,77.1 L81.7,76 L79.5,76 L79.1,77.1 Z" id="Shape" fill="#FFFFFF"></path>
            <path d="M79.6,75.4 L81.3,75.4 L80.5,72.8 L79.6,75.4 Z M79.4,75.6 L80.3,72.8 L80.3,72.8 L80.3,72.8 L80.3,72.8 L80.3,72.8 L80.3,72.8 L80.3,72.8 L80.3,72.8 L81.2,75.6 L79.4,75.6 Z M81.4,78.4 L82.8,78.4 L84.1,78.4 L84.1,78.2 L84.1,78.2 C83.8,78.2 83.6,78.1 83.4,77.8 C83.3,77.5 83.2,77.2 83,76.8 L81.3,71.8 C81.3,71.7 81.2,71.6 81.2,71.6 L81.2,71.6 L81.2,71.6 C81.2,71.6 81.2,71.6 81.1,71.6 C80.9,71.7 80.5,71.9 80.3,72 C80.2,72.4 80.1,72.8 79.9,73.2 L78.4,77.6 C78.3,78 77.9,78.3 77.5,78.3 L77.5,78.3 L77.5,78.5 L78.5,78.5 L79.6,78.5 L79.6,78.3 L79.5,78.3 C79.2,78.3 78.7,78.2 78.7,77.9 C78.7,77.7 78.8,77.5 78.9,77.1 L78.9,77.1 L78.9,77.1 L79.2,76.1 L81.4,76.1 L81.8,77.2 C81.9,77.5 82,77.7 82,77.9 C82,78.2 81.6,78.2 81.4,78.2 L81.3,78.2 L81.4,78.4 L81.4,78.4 Z M84.2,78.4 L82.9,78.4 L81.5,78.4 L81.4,78.4 L81.4,78.4 L81.4,78.1 L81.5,78.1 L81.6,78.1 C81.8,78.1 82.1,78 82.1,77.9 C82.1,77.8 82,77.5 81.9,77.2 L81.5,76.1 L79.4,76.1 L79.1,77.1 C79,77.4 78.9,77.7 78.9,77.8 C78.9,78 79.3,78.1 79.6,78.1 L79.7,78.1 L79.7,78.1 L79.7,78.4 L79.6,78.4 L78.5,78.4 L77.5,78.4 L77.5,78.4 L77.5,78.4 L77.5,78.1 L77.5,78.1 L77.6,78.1 C78,78.1 78.3,77.9 78.4,77.5 L79.9,73.1 C80,72.7 80.2,72.3 80.3,71.9 C80.6,71.8 81,71.6 81.2,71.5 L81.3,71.5 C81.3,71.5 81.4,71.5 81.4,71.6 C81.4,71.7 81.5,71.7 81.5,71.8 L83.2,76.8 C83.3,77.1 83.4,77.5 83.5,77.8 C83.6,78.1 83.8,78.2 84.1,78.2 L84.2,78.2 L84.2,78.4 L84.2,78.4 L84.2,78.4 L84.2,78.4 Z" id="Shape" fill="#FFFFFF"></path>
            <path d="M84.6,72.2 C83.9,72.2 83.8,72.3 83.7,73.1 L83.4,73.1 C83.4,72.8 83.5,72.6 83.5,72.3 L83.5,71.5 L83.7,71.5 C83.8,71.8 84,71.8 84.3,71.8 L89.2,71.8 C89.4,71.8 89.7,71.8 89.7,71.5 L89.9,71.5 C89.9,71.8 89.8,72 89.8,72.3 L89.8,73.1 L89.5,73.2 C89.5,72.9 89.4,72.3 88.8,72.3 L87.2,72.3 L87.2,77.4 C87.2,78.2 87.5,78.2 88,78.2 L88.2,78.2 L88.2,78.5 L86.6,78.5 L85,78.5 L85,78.1 L85.2,78.1 C85.7,78.1 86,78.1 86,77.3 L86,72.2 L84.6,72.2 L84.6,72.2 Z" id="Shape" fill="#FFFFFF"></path>
            <path d="M88.3,78.4 L86.7,78.4 L85.1,78.4 L85.1,78.4 L85.1,78.4 L85.1,78.1 L85.1,78.1 L85.3,78.1 C85.8,78.1 86.1,78.1 86.1,77.3 L86.1,72.3 L84.6,72.3 L84.6,72.3 L84.6,72.2 L86.2,72.2 L86.2,77.3 C86.2,78.1 85.9,78.1 85.4,78.1 L85.3,78.1 L85.3,78.3 L86.9,78.3 C87.3,78.3 87.9,78.4 88.3,78.4 L88.2,78.1 L88,78.1 C87.5,78.1 87.2,78 87.2,77.2 L87.2,72.1 L88.8,72.1 C89.5,72.1 89.5,72.6 89.6,73 L89.8,72.9 L89.8,72.1 C89.8,71.9 89.9,71.6 89.9,71.4 L89.7,71.4 C89.6,71.7 89.4,71.7 89.2,71.7 L84.3,71.7 L84.3,71.7 C84.1,71.7 83.8,71.7 83.7,71.4 L83.5,71.4 C83.5,71.7 83.5,71.9 83.4,72.2 C83.4,72.5 83.3,72.7 83.3,73 L83.5,73 C83.6,72.3 83.7,72.1 84.4,72.1 L84.4,72.2 L84.4,72.2 C83.7,72.2 83.7,72.3 83.6,73 L83.6,73 L83.5,73 L83.2,73 L83.2,72.9 C83.2,72.6 83.3,72.4 83.3,72.1 C83.4,71.9 83.4,71.6 83.4,71.3 L83.4,71.2 L83.5,71.2 L83.7,71.2 L83.7,71.2 C83.8,71.4 83.9,71.4 84.2,71.4 L84.2,71.4 L89.1,71.4 C89.3,71.4 89.6,71.4 89.6,71.1 L89.6,71.1 L89.7,71.1 L90,71.1 L90,71.2 C89.9,71.4 89.9,71.7 89.9,72 L89.9,72.8 L89.9,72.8 L89.9,72.8 L89.5,72.9 L89.5,73.1 C89.5,72.7 89.4,72.2 88.8,72.2 L87.3,72.2 L87.3,77.2 C87.3,77.9 87.6,78 88.1,78 L88.3,78 L88.3,78 L88.3,78.4 L88.3,78.4 L88.3,78.4 Z" id="Shape" fill="#FFFFFF"></path>
            <path d="M90.4,78.1 L90.5,78.1 C90.9,78.1 91.2,78.1 91.2,77.6 L91.2,72.6 C91.2,72.1 90.8,72 90.5,72 L90.4,72 L90.4,71.7 L91.8,71.7 L93.3,71.7 L93.3,72 L93.2,72 C92.8,72 92.5,72.1 92.5,72.6 L92.5,77.6 C92.5,78.1 92.9,78.1 93.2,78.1 L93.3,78.1 L93.3,78.4 L91.8,78.4 L90.4,78.4 L90.4,78.1 Z" id="Shape" fill="#FFFFFF"></path>
            <path d="M93.2,78.4 L93.2,78.2 L93.1,78.2 C92.8,78.2 92.3,78.1 92.3,77.6 L92.3,72.6 C92.3,72.1 92.7,72 93.1,72 L93.2,72 L93.2,71.8 C92.7,71.8 92.2,71.9 91.8,71.9 C91.3,71.9 90.8,71.8 90.4,71.8 L90.4,72 L90.5,72 C90.8,72 91.3,72.1 91.3,72.6 L91.3,77.6 C91.3,78.1 90.9,78.2 90.5,78.2 L90.4,78.2 L90.4,78.4 L91.8,78.4 C92.3,78.3 92.8,78.4 93.2,78.4 L93.2,78.4 Z M93.3,78.4 L91.8,78.4 L90.4,78.4 L90.3,78.4 L90.3,78.4 L90.3,78.1 L90.3,78.1 L90.4,78.1 L90.5,78.1 C90.9,78.1 91.2,78.1 91.2,77.6 L91.2,72.6 C91.2,72.1 90.9,72.1 90.5,72.1 L90.3,72.1 L90.3,72 L90.3,71.7 L90.4,71.7 L91.8,71.7 L93.3,71.7 L93.4,71.7 L93.4,71.7 L93.4,72 L93.3,72 L93.2,72 C92.8,72 92.5,72 92.5,72.5 L92.5,77.5 C92.5,78 92.8,78 93.2,78 L93.4,78 L93.4,78 L93.3,78.4 L93.3,78.4 L93.3,78.4 Z" id="Shape" fill="#FFFFFF"></path>
            <path d="M97.2,78.1 C99.1,78.1 99.4,76.5 99.4,75.1 C99.4,73.7 98.7,72 97.1,72 C95.4,72 94.9,73.5 94.9,74.8 C94.9,76.4 95.7,78.1 97.2,78.1 L97.2,78.1 Z M97.1,71.6 C99.1,71.6 100.7,72.9 100.7,74.9 C100.7,77.1 99.1,78.6 97.1,78.6 C95.1,78.6 93.6,77.2 93.6,75.2 C93.6,73.1 95.1,71.6 97.1,71.6 L97.1,71.6 Z" id="Shape" fill="#FFFFFF"></path>
            <path d="M94.9,74.8 C94.9,73.5 95.4,72 97.1,72 C98.7,72 99.5,73.7 99.5,75.1 C99.5,76.5 99.2,78.2 97.3,78.2 L97.3,78.2 L97.3,78.1 C99.1,78.1 99.4,76.5 99.4,75.1 C99.4,73.7 98.6,72.1 97.1,72.1 C95.4,72.1 94.9,73.4 94.9,74.8 C95,76.5 95.7,78.1 97.2,78.1 L97.2,78.2 L97.2,78.2 C95.7,78.2 94.9,76.4 94.9,74.8 L94.9,74.8 Z M93.4,75.1 C93.4,73.1 95,71.6 97,71.6 L97,71.6 L97,71.7 C95.1,71.7 93.6,73.2 93.4,75.1 C93.5,77.1 95,78.5 97,78.5 C99,78.5 100.5,77.1 100.6,74.9 C100.6,72.9 99,71.7 97,71.7 L97,71.6 L97,71.6 C99,71.6 100.7,72.9 100.7,74.9 C100.7,77.1 99.1,78.6 97.1,78.6 C95.1,78.6 93.4,77.2 93.4,75.1 L93.4,75.1 Z" id="Shape" fill="#FFFFFF"></path>
            <path d="M107.1,76.4 L107.1,76.4 L107.1,72.8 C107.1,72 106.6,71.9 106.3,71.9 L106.1,71.9 L106.1,71.6 L107.5,71.6 L108.7,71.6 L108.7,71.9 L108.5,71.9 C108.1,71.9 107.7,72 107.7,73.1 L107.7,77.4 C107.7,77.7 107.7,78.1 107.8,78.4 L107.4,78.4 L102.5,72.9 L102.5,76.8 C102.5,77.6 102.6,77.9 103.4,77.9 L103.6,77.9 L103.6,78.2 L102.4,78.2 L101.1,78.2 L101.1,78 L101.2,78 C101.9,78 102.1,77.6 102.1,76.8 L102.1,72.8 C102.1,72.3 101.6,72 101.2,72 L101.1,72 L101.1,71.7 L102.2,71.7 L103,71.7 L107.1,76.4 Z" id="Shape" fill="#FFFFFF"></path>
            <path d="M107.3,78.4 L107.6,78.4 C107.5,78.1 107.5,77.8 107.5,77.5 L107.5,73.2 C107.5,72.1 108,71.9 108.4,71.9 L108.5,71.9 L108.5,71.7 C108.1,71.7 107.7,71.8 107.4,71.8 C107,71.8 106.6,71.7 106.1,71.7 L106.1,71.9 L106.2,71.9 C106.5,71.9 107.1,72 107.1,72.8 L107.1,76.4 L107.1,76.4 L107.1,76.4 L102.9,71.6 C102.6,71.6 102.4,71.7 102.1,71.7 C101.7,71.7 101.4,71.6 101,71.6 L101,71.8 L101.1,71.8 C101.6,71.8 102,72.1 102,72.7 L102,76.7 C102,77.4 101.8,78 101.1,78 L101,78 L101,78.2 L102.3,78.2 L103.5,78.2 L103.5,78 L103.4,78 C102.6,78 102.5,77.7 102.5,76.8 L102.5,72.8 L107.3,78.4 Z M107.7,78.6 L107.3,78.6 L102.5,73.2 L102.5,77 C102.5,77.8 102.6,78.1 103.3,78.1 L103.5,78.1 L103.5,78.1 L103.5,78.4 L103.5,78.4 L102.3,78.4 L101,78.4 L100.9,78.4 L100.9,78.4 L100.9,78.1 L101,78.1 L101.1,78.1 C101.7,78.1 101.9,77.7 101.9,76.9 L101.9,72.9 C101.9,72.4 101.5,72.1 101.1,72.1 L100.9,72.1 L100.9,72 L100.9,71.7 L101,71.7 L102.1,71.7 L103,71.7 L107.2,76.4 L107.2,72.9 C107.2,72.1 106.7,72.1 106.4,72.1 L106.1,72.1 L106.1,72 L106.1,71.7 L106.1,71.7 L107.4,71.7 L108.6,71.7 L108.6,71.7 L108.6,71.7 L108.6,72 L108.6,72 L108.4,72 C108,72 107.6,72 107.6,73.2 L107.6,77.5 C107.7,77.9 107.7,78.3 107.7,78.6 L107.7,78.6 L107.7,78.6 L107.7,78.6 Z" id="Shape" fill="#FFFFFF"></path>
            <path d="M111.6,72.8 L111.6,72.8 L110.7,75.5 L112.5,75.5 L111.6,72.8 Z M110.1,77.1 C110,77.4 109.9,77.7 109.9,77.8 C109.9,78.1 110.3,78.1 110.6,78.1 L110.7,78.1 L110.7,78.4 L109.5,78.4 L108.5,78.4 L108.5,78.1 L108.6,78.1 C109,78.1 109.3,77.9 109.4,77.5 L110.9,73.1 C111,72.7 111.2,72.3 111.3,71.9 C111.6,71.8 112,71.6 112.2,71.5 L112.3,71.5 L112.4,71.5 C112.4,71.6 112.5,71.6 112.5,71.7 L114.3,76.7 C114.4,77 114.5,77.4 114.6,77.7 C114.7,78 114.9,78.1 115.2,78.1 L115.3,78.1 L115.3,78.4 L114,78.4 L112.6,78.4 L112.6,78.1 L112.7,78.1 C112.9,78.1 113.3,78.1 113.3,77.8 C113.3,77.7 113.2,77.4 113.1,77.1 L112.7,76 L110.6,76 L110.1,77.1 Z" id="Shape" fill="#FFFFFF"></path>
            <path d="M110.7,75.4 L112.4,75.4 L111.6,72.8 L110.7,75.4 Z M110.6,75.6 L111.5,72.8 L111.5,72.8 L111.5,72.8 L111.5,72.8 L111.5,72.8 L111.5,72.8 L111.5,72.8 L111.5,72.8 L112.4,75.6 L110.6,75.6 Z M112.4,78.4 L113.8,78.4 L115.1,78.4 L115.1,78.2 L115.1,78.2 C114.8,78.2 114.6,78.1 114.4,77.8 C114.3,77.5 114.2,77.2 114,76.8 L112.3,71.8 C112.3,71.7 112.2,71.6 112.2,71.6 L112.2,71.6 L112.2,71.6 C112.2,71.6 112.2,71.6 112.1,71.6 C111.9,71.7 111.6,71.9 111.3,72 C111.2,72.4 111.1,72.8 110.9,73.2 L109.4,77.6 C109.3,78 108.9,78.3 108.5,78.3 L108.5,78.3 L108.5,78.5 L109.5,78.5 L110.6,78.5 L110.6,78.3 L110.5,78.3 C110.2,78.3 109.8,78.2 109.8,77.9 C109.8,77.7 109.9,77.5 110,77.1 L110,77.1 L110,77.1 L110.3,76.1 L112.5,76.1 L112.9,77.2 C113,77.5 113.1,77.7 113.1,77.9 C113.1,78.2 112.7,78.2 112.5,78.2 L112.4,78.2 L112.4,78.4 L112.4,78.4 Z M115.2,78.4 L113.9,78.4 L112.5,78.4 L112.5,78.4 L112.5,78.4 L112.5,78.1 L112.5,78.1 L112.6,78.1 C112.8,78.1 113.2,78 113.2,77.9 C113.2,77.8 113.1,77.5 113,77.2 L112.6,76.1 L110.5,76.1 L110.2,77.1 C110.1,77.4 110,77.7 110,77.8 C110,78 110.4,78.1 110.7,78.1 L110.9,78.1 L110.9,78.1 L110.9,78.4 L110.9,78.4 L109.7,78.4 L108.7,78.4 L108.7,78.4 L108.7,78.4 L108.7,78.1 L108.7,78.1 L108.8,78.1 C109.2,78.1 109.5,77.9 109.6,77.5 L111.1,73.1 C111.2,72.7 111.4,72.3 111.5,71.9 C111.8,71.8 112.2,71.6 112.4,71.5 L112.5,71.5 C112.5,71.5 112.6,71.5 112.6,71.6 C112.6,71.7 112.7,71.7 112.7,71.8 L114.4,76.8 C114.5,77.1 114.6,77.5 114.8,77.8 C114.9,78.1 115.1,78.2 115.4,78.2 L115.5,78.2 L115.5,78.2 L115.2,78.4 L115.2,78.4 L115.2,78.4 Z" id="Shape" fill="#FFFFFF"></path>
            <path d="M117.6,77.4 C117.6,77.8 117.9,77.9 118.2,77.9 L119.5,77.9 C119.9,77.8 120.2,77.6 120.4,77.4 C120.5,77.2 120.6,76.9 120.7,76.7 L121,76.7 C120.9,77.2 120.8,77.8 120.6,78.3 L118.1,78.3 L115.6,78.3 L115.6,78 L115.7,78 C116.1,78 116.4,78 116.4,77.4 L116.4,72.5 C116.4,72 116,71.9 115.7,71.9 L115.6,71.9 L115.6,71.6 L117.1,71.6 L118.5,71.6 L118.5,71.9 L118.3,71.9 C117.9,71.9 117.7,71.9 117.7,72.4 L117.6,77.4 L117.6,77.4 Z" id="Shape" fill="#FFFFFF"></path>
            <path d="M120.4,78.4 C120.5,77.9 120.6,77.4 120.7,76.9 L120.5,76.9 C120.4,77.1 120.3,77.4 120.2,77.6 C120,77.8 119.7,78.1 119.3,78.1 C119,78.1 118.8,78.2 118.6,78.2 L118.1,78.2 C117.8,78.2 117.5,78 117.5,77.6 L117.5,72.7 C117.5,72.2 117.9,72.1 118.2,72.1 L118.4,72.1 L118.4,71.9 C117.9,71.9 117.5,72 117,72 C116.5,72 116,71.9 115.5,71.9 L115.5,72.1 L115.6,72.1 C116,72.1 116.4,72.2 116.4,72.7 L116.4,77.6 C116.4,78.2 116,78.3 115.6,78.3 L115.5,78.3 L115.5,78.5 L118,78.5 C118.8,78.3 119.7,78.4 120.4,78.4 L120.4,78.4 Z M120.6,78.4 L118.1,78.4 L115.6,78.4 L115.6,78.4 L115.6,78.4 L115.6,78.1 L115.6,78.1 L115.7,78.1 C116.1,78.1 116.4,78.1 116.4,77.5 L116.4,72.6 C116.4,72.1 116.1,72.1 115.7,72.1 L115.5,72.1 L115.5,72 L115.5,71.7 L115.5,71.7 L117,71.7 L118.4,71.7 L118.5,71.7 L118.5,71.7 L118.5,72 L118.4,72 L118.2,72 C117.8,72 117.6,72 117.6,72.5 L117.6,77.4 C117.6,77.8 117.8,77.9 118.1,77.9 L118.6,77.9 L119.3,77.9 C119.7,77.8 120,77.6 120.2,77.4 C120.3,77.2 120.4,76.9 120.5,76.7 L120.5,76.7 L120.5,76.7 L120.8,76.7 L120.8,76.7 C120.8,77.4 120.7,77.9 120.6,78.4 L120.6,78.4 L120.6,78.4 L120.6,78.4 Z" id="Shape" fill="#FFFFFF"></path>
        </g>
    </g>
</svg>