<svg xmlns="http://www.w3.org/2000/svg" width="28" height="22" viewBox="0 0 28 22">
    <path fill="#FF4722" d="M25.004 8.455l-.641-1.602-1.136-2.84C22.252 1.575 19.925 0 17.299 0H10.06C7.435 0 5.108 1.575 4.133 4.013l-1.136 2.84-.64 1.602C.981 8.977 0 10.298 0 11.856v2.736c0 .919.351 1.748.912 2.39v3.082c0 1.007.817 1.824 1.824 1.824H4.56c1.007 0 1.824-.817 1.824-1.824V18.24h14.592v1.824c0 1.007.817 1.824 1.824 1.824h1.824c1.007 0 1.824-.817 1.824-1.824v-3.082c.56-.641.912-1.47.912-2.39v-2.736c0-1.558-.982-2.879-2.356-3.401zM7.52 5.368c.416-1.039 1.422-1.72 2.54-1.72h7.24c1.118 0 2.124.681 2.54 1.72l1.136 2.84H6.384l1.136-2.84zM4.56 14.58c-1.094 0-1.824-.728-1.824-1.819 0-1.09.73-1.818 1.824-1.818s2.736 1.636 2.736 2.727-1.642.91-2.736.91zm18.24 0c-1.094 0-2.736.181-2.736-.91 0-1.09 1.642-2.727 2.736-2.727 1.094 0 1.824.727 1.824 1.818 0 1.091-.73 1.819-1.824 1.819z"/>
</svg>
