<svg xmlns="http://www.w3.org/2000/svg" width="42" height="24" viewBox="0 0 42 24">
    <g fill="none" fill-rule="evenodd" opacity=".98">
        <path stroke="#9C9B9B" stroke-linecap="round" d="M.5.5L40.5.5M1 23.5L41 23.5"/>
        <path fill="#9C9B9B" fill-rule="nonzero" d="M7.884 18l2.624-11.2h-1.12L7.9 13.616c-.224 1.024-.432 2.112-.56 2.944-.128-.832-.32-1.904-.544-2.944L5.308 6.8H4.172L6.796 18h1.088zm9.048 0V6.8h-.864c-.192.896-.736 1.152-1.76 1.232v.736h1.536V18h1.088zm7.8-5.312V11.6H21.74v1.088h2.992zM30.548 18v-6.72c0-.672-.016-1.744-.016-2.176.272.704.752 1.824 1.152 2.752L34.372 18h.944V6.8H34.26v6.432c0 .672.016 1.76.032 2.176-.186-.454-.49-1.17-.81-1.915l-.24-.56-.118-.277L30.58 6.8h-1.088V18h1.056z"/>
    </g>
</svg>
