<svg xmlns="http://www.w3.org/2000/svg" width="16" height="15" viewBox="0 0 16 15" class="social-icon">
    <path d="M8 0c2.173 0 2.445.009 3.298.045.852.037 1.433.163 1.942.349.526.191.973.448 1.417.865.445.417.719.835.923 1.328.198.477.333 1.022.372 1.82.039.8.048 1.056.048 3.093s-.01 2.292-.048 3.092c-.039.799-.174 1.344-.372 1.82-.204.494-.478.912-.923 1.33-.444.416-.89.673-1.417.864-.509.186-1.09.312-1.942.349C10.445 14.99 10.173 15 8 15s-2.445-.009-3.298-.045c-.852-.037-1.433-.163-1.942-.349-.526-.191-.973-.448-1.417-.865-.445-.417-.719-.835-.923-1.328-.198-.477-.333-1.022-.372-1.82C.01 9.792 0 9.536 0 7.5s.01-2.292.048-3.092c.039-.799.174-1.344.372-1.82.204-.494.478-.912.923-1.33.444-.416.89-.673 1.417-.864C3.269.208 3.85.082 4.702.045 5.555.01 5.827 0 8 0zm0 1.351c-2.136 0-2.39.008-3.233.044-.78.033-1.203.156-1.485.258-.374.136-.64.299-.92.561-.28.263-.453.513-.598.863-.11.264-.24.661-.276 1.392-.038.791-.047 1.028-.047 3.031s.009 2.24.047 3.03c.036.732.166 1.129.276 1.393.145.35.318.6.598.863.28.262.546.425.92.56.282.103.705.226 1.485.259.844.036 1.097.044 3.233.044s2.39-.008 3.233-.044c.78-.033 1.203-.156 1.485-.258.374-.136.64-.299.92-.561.28-.263.453-.513.598-.863.11-.264.24-.661.276-1.392.038-.791.047-1.028.047-3.031s-.009-2.24-.047-3.03c-.036-.732-.166-1.129-.276-1.393-.145-.35-.318-.6-.598-.863-.28-.262-.546-.425-.92-.56-.282-.103-.705-.226-1.485-.259-.844-.036-1.097-.044-3.233-.044zM8 3.65c2.269 0 4.108 1.724 4.108 3.851S10.268 11.351 8 11.351c-2.269 0-4.108-1.724-4.108-3.851S5.732 3.649 8 3.649zM8 10c1.473 0 2.667-1.12 2.667-2.5S9.473 5 8 5C6.527 5 5.333 6.12 5.333 7.5S6.527 10 8 10zm5.23-6.504c0 .498-.43.9-.96.9s-.96-.402-.96-.9c0-.497.43-.9.96-.9s.96.403.96.9z"/>
</svg>
