<svg xmlns="http://www.w3.org/2000/svg" width="27" height="30" viewBox="0 0 27 30">
    <g fill="none" fill-rule="evenodd">
        <path fill="#F0F0F0" d="M26.494 8.24L24.237 0l-1.933 1.287c-1.993 1.327-4.581 1.361-6.61.09L13.5 0l-2.195 1.377c-2.028 1.271-4.616 1.237-6.608-.09L2.763 0 .506 8.24c-.76 2.773-.68 5.73.353 8.412.951 2.47 2.51 4.699 4.574 6.459L13.5 30l8.067-6.89c2.064-1.76 3.623-3.988 4.574-6.458 1.034-2.683 1.113-5.639.353-8.411"/>
        <path fill="#FF4722" fill-rule="nonzero" d="M17.348 21v-2.196h-4.68c.09-1.35.864-2.196 2.574-3.474 1.206-.9 2.07-1.98 2.07-3.726 0-2.196-1.458-3.402-3.636-3.402-1.548 0-2.664.684-3.51 1.746l1.404 1.638c.594-.684 1.224-1.134 2.016-1.134.936 0 1.44.486 1.44 1.476 0 .756-.324 1.278-1.188 1.908-2.376 1.71-3.582 3.312-3.708 7.164h7.218z"/>
    </g>
</svg>
