<?xml version="1.0" encoding="utf-8"?>
<!-- Generator: Adobe Illustrator 25.0.0, SVG Export Plug-In . SVG Version: 6.00 Build 0)  -->
<svg version="1.1" id="Layer_1" xmlns="http://www.w3.org/2000/svg" xmlns:xlink="http://www.w3.org/1999/xlink" x="0px" y="0px"
	 viewBox="0 0 20 22" style="enable-background:new 0 0 20 22;" xml:space="preserve">
<style type="text/css">
	.st0{fill:none;stroke:#9C9B9B;stroke-linecap:round;}
	.st1{fill:none;stroke:#9C9B9B;}
	.st2{fill:none;stroke:#9C9B9B;stroke-linejoin:round;}
</style>
<g id="StyleGuide">
	<g id="Icons" transform="translate(-140.000000, -1097.000000)">
		<g id="Icon_x2F_Sales-Listings-Copy-2" transform="translate(139.000000, 1097.000000)">
			<g id="Group" transform="translate(7.200000, 5.000000)">
				<path id="Stroke-3" class="st0" d="M1.9,3.3V1.8c0-1,0.8-1.8,1.8-1.8s1.8,0.8,1.8,1.8c0,0.1,0,0.1,0,0.2v1.4"/>
				<line id="Stroke-5" class="st0" x1="3.6" y1="5.2" x2="3.6" y2="7.6"/>
				<path id="Stroke-1" class="st1" d="M1.2,3.5h4.9c0.7,0,1.2,0.5,1.2,1.2v3.7c0,0.7-0.5,1.2-1.2,1.2H1.2C0.5,9.6,0,9.1,0,8.4V4.7
					C0,4,0.5,3.5,1.2,3.5z"/>
			</g>
			<path id="Stroke-1_1_" class="st2" d="M11,21c7-4.3,9-8.8,9-17h0c-3,0-7-0.9-9-3C9,3.1,5,4,2,4h0C2,12.2,4,16.7,11,21z"/>
		</g>
	</g>
</g>
</svg>
