<svg xmlns="http://www.w3.org/2000/svg" width="14" height="14" viewBox="0 0 14 14">
    <path fill="#FF4722" fill-rule="evenodd" d="M13.748 12.13c-.432 1.312-2.125 1.967-3.334 1.858-1.652-.15-3.45-1.025-4.815-1.99C3.594 10.578 1.715 8.385.62 6.056-.154 4.411-.327 2.387.823.888 1.25.333 1.71.038 2.401.003c.96-.047 1.094.502 1.423 1.357.246.64.573 1.291.756 1.954.343 1.237-.855 1.288-1.006 2.299-.094.637.679 1.492 1.028 1.947.684.89 1.506 1.658 2.434 2.242.53.335 1.389.94 1.997.606.937-.513.849-2.093 2.159-1.558.679.276 1.336.674 1.983 1.023 1.002.539.955 1.097.573 2.256-.285.866.286-.866 0 0"/>
</svg>
