<svg xmlns="http://www.w3.org/2000/svg" xmlns:xlink="http://www.w3.org/1999/xlink" width="214" height="121" viewBox="0 0 214 121">
    <defs>
        <path id="21q9374g1a" d="M0.964 0.394L137.217 0.394 137.217 84.192 0.964 84.192z"/>
    </defs>
    <g fill="none" fill-rule="evenodd">
        <g transform="translate(0 -1.008) translate(54.744 .614)">
            <mask id="jvr24zswtb" fill="#fff">
                <use xlink:href="#21q9374g1a"/>
            </mask>
            <path fill="#7231AA" d="M132.788 63.012L16.44 84.106c-2.922.529-5.716-1.44-6.238-4.4L1.05 27.892c-.524-2.96 1.421-5.789 4.343-6.32L121.742.48c2.922-.53 5.715 1.441 6.237 4.4l9.153 51.813c.523 2.96-1.422 5.79-4.344 6.32" mask="url(#jvr24zswtb)"/>
        </g>
        <path fill="#FFF" d="M138.703 41.22c2.178 12.334-2.712 23.54-10.923 25.028-8.212 1.49-16.634-7.303-18.812-19.637-2.18-12.334 2.711-23.54 10.922-25.028 8.211-1.489 16.634 7.303 18.813 19.637" transform="translate(0 -1.008)"/>
        <path fill="#FF4722" d="M92.651 53.022c-1.085-6.14-6.913-10.209-12.978-9.027-5.967 1.163-9.834 7.077-8.764 13.138l-.015-.091c.171.968 1.084 1.612 2.04 1.44l20.04-3.634-.323-1.826z" transform="translate(0 -1.008)"/>
        <path fill="#FF4722" d="M84.421 54.664c-.748-4.24 2.073-8.288 6.285-8.979 4.125-.675 8 2.219 8.735 6.385l-.01-.06c.153.872-.419 1.705-1.279 1.861l-13.445 2.437-.286-1.644z" transform="translate(0 -1.008)"/>
        <path fill="#C33F72" d="M81.475 56.55c.305 1.727-.83 3.378-2.534 3.686-1.705.31-3.335-.84-3.64-2.567-.304-1.726.831-3.377 2.535-3.685 1.705-.31 3.334.84 3.64 2.567M96.466 53.833c.305 1.726-.83 3.377-2.535 3.685-1.705.31-3.334-.84-3.638-2.566-.305-1.727.83-3.378 2.534-3.686 1.705-.31 3.333.84 3.639 2.567" transform="translate(0 -1.008)"/>
        <path fill="#FF4722" d="M157.867 41.198c-1.085-6.139 2.99-12.003 9.082-13.026 5.996-1.006 11.646 3.184 12.717 9.244l-.016-.091c.172.968-.465 1.894-1.42 2.066l-20.04 3.634-.323-1.827z" transform="translate(0 -1.008)"/>
        <path fill="#FF4722" d="M166.148 39.847c-.749-4.24-4.782-7.045-8.97-6.213-4.098.815-6.74 4.89-6.005 9.057l-.011-.06c.154.872.976 1.453 1.836 1.297l13.445-2.438-.295-1.643z" transform="translate(0 -1.008)"/>
        <path fill="#C33F72" d="M169.558 40.581c.305 1.727 1.934 2.877 3.639 2.568 1.704-.31 2.838-1.96 2.534-3.687-.305-1.726-1.934-2.876-3.64-2.567-1.703.31-2.839 1.96-2.533 3.686M154.567 43.3c.306 1.725 1.934 2.875 3.638 2.566 1.705-.31 2.84-1.959 2.534-3.686-.303-1.726-1.933-2.876-3.638-2.567-1.705.31-2.84 1.96-2.534 3.686" transform="translate(0 -1.008)"/>
        <path fill="#8736C1" d="M207.051 95.533l-118.195.529c-2.968.014-5.385-2.414-5.4-5.421l-.228-52.634c-.013-3.008 2.382-5.456 5.351-5.47l118.196-.529c2.968-.013 5.385 2.415 5.398 5.42l.23 52.636c.013 3.008-2.383 5.456-5.352 5.47" transform="translate(0 -1.008)"/>
        <path fill="#FFF" d="M162.919 63.968c.054 12.53-6.663 22.717-15.005 22.755-8.341.037-15.148-10.09-15.203-22.62-.054-12.53 6.664-22.718 15.006-22.755 8.34-.038 15.147 10.09 15.202 22.62" transform="translate(0 -1.008)"/>
        <path fill="#FF4722" d="M115.55 67.578c-.026-6.237-5.079-11.26-11.253-11.151-6.077.107-10.888 5.26-10.863 11.417v-.093c.005.984.796 1.778 1.767 1.774l20.358-.092-.009-1.855z" transform="translate(0 -1.008)"/>
        <path fill="#FF4722" d="M107.165 67.764c-.02-4.307 3.448-7.805 7.715-7.752 4.176.053 7.503 3.578 7.521 7.81v-.06c.004.885-.701 1.607-1.575 1.61l-13.658.061-.003-1.67z" transform="translate(0 -1.008)"/>
        <path fill="#C33F72" d="M103.942 69.11c.008 1.754-1.39 3.181-3.122 3.19-1.73.008-3.141-1.408-3.148-3.163-.008-1.754 1.39-3.182 3.121-3.19 1.731-.008 3.141 1.408 3.15 3.162M119.171 69.041c.008 1.755-1.39 3.182-3.122 3.19-1.731.008-3.142-1.407-3.149-3.162-.008-1.754 1.39-3.182 3.122-3.19 1.73-.008 3.141 1.408 3.15 3.162" transform="translate(0 -1.008)"/>
        <path fill="#FF4722" d="M181.802 67.282c-.027-6.237 4.982-11.305 11.156-11.251 6.077.052 10.934 5.162 10.96 11.318v-.092c.005.983-.779 1.785-1.75 1.79l-20.358.09-.008-1.855z" transform="translate(0 -1.008)"/>
        <path fill="#FF4722" d="M190.189 67.392c-.02-4.306-3.515-7.772-7.78-7.682-4.178.09-7.473 3.645-7.455 7.877l-.001-.06c.004.885.716 1.6 1.59 1.596l13.659-.061-.013-1.67z" transform="translate(0 -1.008)"/>
        <path fill="#C33F72" d="M193.424 68.709c.008 1.754 1.417 3.17 3.149 3.162 1.73-.008 3.13-1.436 3.121-3.19-.008-1.754-1.417-3.17-3.149-3.163-1.732.009-3.13 1.436-3.121 3.19M178.195 68.777c.008 1.755 1.417 3.17 3.15 3.162 1.73-.008 3.129-1.435 3.12-3.19-.007-1.754-1.417-3.17-3.149-3.162-1.731.008-3.129 1.436-3.121 3.19" transform="translate(0 -1.008)"/>
        <path stroke="#000" stroke-linecap="round" stroke-width="3" d="M64.363 20.15c-11.689-1.582-26.269 4.4-34.01 13.68C22.09 43.734 10.325 63.704.498 81.867M57.814 46.633c-3.704 1.97-6.803 4.784-8.642 8.53-.65 1.323-1.13 2.886-.596 4.263 1.008 2.59 4.569 2.663 7.27 2.148 10.14-1.932 19.818-5.756 29.61-9.05 3.272-1.102 6.751-2.154 10.116-1.392 3.363.762 6.426 4.03 5.733 7.452-.421 2.084-2.062 3.672-3.71 4.992-11.071 8.871-26.002 12.069-36.227 21.927-3.092 2.982-5.653 6.488-8.71 9.509-4.539 4.487-10.158 7.847-16.23 9.705-4.388 1.342-8.999 1.913-13.285 3.56-6.67 2.564-10.025 7.133-12.063 12.832" transform="translate(0 -1.008)"/>
    </g>
</svg>
