<svg xmlns="http://www.w3.org/2000/svg" xmlns:xlink="http://www.w3.org/1999/xlink" width="37" height="14" viewBox="0 0 37 14">
    <defs>
        <path id="4own40prpa" d="M0.485 0.613L6.803 0.613 6.803 6.3 0.485 6.3z"/>
        <path id="ps9iijds3c" d="M0.54 0.613L6.858 0.613 6.858 6.3 0.54 6.3z"/>
        <path id="ldnpnekrle" d="M0 12.978L36.676 12.978 36.676 0 0 0z"/>
        <path id="ua4ngj6dyg" d="M0 12.978L36.676 12.978 36.676 0 0 0z"/>
        <path id="yxyykgdumi" d="M0 12.978L36.676 12.978 36.676 0 0 0z"/>
        <path id="71ipu1csok" d="M0 12.978L36.676 12.978 36.676 0 0 0z"/>
    </defs>
    <g fill="none" fill-rule="evenodd" opacity=".98">
        <g transform="translate(4 7)">
            <mask id="d851565lob" fill="#fff">
                <use xlink:href="#4own40prpa"/>
            </mask>
            <path fill="#9C9B9B" fill-rule="nonzero" d="M3.644 1.663c-1.1 0-1.994.804-1.994 1.794 0 .989.895 1.794 1.994 1.794s1.993-.805 1.993-1.795c0-.99-.894-1.793-1.993-1.793m0 4.638C1.902 6.3.484 5.025.484 3.457c0-1.568 1.418-2.845 3.16-2.845 1.742 0 3.16 1.276 3.16 2.845 0 1.568-1.418 2.843-3.16 2.843" mask="url(#d851565lob)"/>
        </g>
        <g transform="translate(26 7)">
            <mask id="7vw54yhwfd" fill="#fff">
                <use xlink:href="#ps9iijds3c"/>
            </mask>
            <path fill="#9C9B9B" fill-rule="nonzero" d="M3.7 1.663c-1.1 0-1.994.804-1.994 1.794 0 .989.894 1.794 1.993 1.794 1.1 0 1.994-.805 1.994-1.795 0-.99-.895-1.793-1.994-1.793m0 4.638C1.957 6.3.54 5.025.54 3.457.54 1.889 1.958.612 3.7.612c1.742 0 3.16 1.276 3.16 2.845 0 1.568-1.418 2.843-3.16 2.843" mask="url(#7vw54yhwfd)"/>
        </g>
        <mask id="mqvm6fzm0f" fill="#fff">
            <use xlink:href="#ldnpnekrle"/>
        </mask>
        <path fill="#9C9B9B" fill-rule="nonzero" d="M9.618 11.149L26.968 11.149 26.968 10.066 9.618 10.066z" mask="url(#mqvm6fzm0f)"/>
        <mask id="wr0c45bygh" fill="#fff">
            <use xlink:href="#ua4ngj6dyg"/>
        </mask>
        <path fill="#9C9B9B" fill-rule="nonzero" d="M36.667 11.149h-4.796v-1.083h3.693c-.018-1.165-.139-2.415-.339-2.727-.466-.724-1.225-1.242-2.081-1.422L26.712 4.55l-2.766-1.405c-1.968-1-4.082-1.646-6.285-1.92-1.327-.166-2.674-.187-4.002-.062l-1.117.105c-1.851.174-3.663.61-5.386 1.296L4.585 3.587c-.34.135-.694.23-1.053.282l-.885.28c-.862.06-1.537.768-1.537 1.611v3.658c0 .08.06.146.142.154l3.543.5-.159 1.071-3.522-.497C.488 10.582 0 10.052 0 9.418V5.76c0-1.384 1.088-2.55 2.49-2.687l.837-.272c.286-.036.568-.11.84-.218l2.57-1.023C8.56.834 10.477.373 12.435.19l1.117-.105c1.41-.133 2.841-.111 4.25.064 2.333.29 4.573.976 6.657 2.034l2.699 1.372 6.219 1.303c1.147.24 2.164.934 2.788 1.905.51.793.518 3.149.51 3.851l-.008.535z" mask="url(#wr0c45bygh)"/>
        <g>
            <mask id="ihmmom6mbj" fill="#fff">
                <use xlink:href="#yxyykgdumi"/>
            </mask>
            <path fill="#9C9B9B" fill-rule="nonzero" d="M15.99 11.062L17.1 11.062 17.1 0.578 15.99 0.578z" mask="url(#ihmmom6mbj)"/>
        </g>
        <g>
            <mask id="4p0u6fk66l" fill="#fff">
                <use xlink:href="#71ipu1csok"/>
            </mask>
            <path fill="#9C9B9B" fill-rule="nonzero" d="M28.053 4.839H9.184c-.753 0-1.365-.599-1.365-1.333V1.489h1.11v2.017c0 .137.115.249.255.249h18.87v1.083zm-7.43 2.057h-1.852c-.307 0-.555-.243-.555-.542 0-.299.248-.542.555-.542h1.852c.306 0 .555.243.555.542 0 .3-.249.542-.555.542m-6.303 0h-1.852c-.307 0-.555-.243-.555-.542 0-.299.248-.542.555-.542h1.852c.307 0 .555.243.555.542 0 .3-.248.542-.555.542" mask="url(#4p0u6fk66l)"/>
        </g>
    </g>
</svg>
