<svg xmlns="http://www.w3.org/2000/svg" width="215" height="120" viewBox="0 0 215 120">
    <g fill="none" fill-rule="evenodd">
        <g>
            <path fill="#8736C1" d="M98.31 7.497c-13.571-11.38-33.8-9.604-45.18 3.969L39.453 27.78c-3.827 4.562-3.23 11.36 1.334 15.187l7.227 6.06 5.54-6.608 18.174 15.238-5.541 6.608 7.228 6.06c4.562 3.826 11.36 3.229 15.186-1.333l13.68-16.314c11.38-13.573 9.603-33.801-3.97-45.181" transform="translate(-1 -5) rotate(7 4.276 129.568)"/>
            <path fill="#FF4722" d="M1.26 104.784c-1.913 2.281-1.614 5.681.667 7.594l9.912 8.311c2.281 1.912 5.681 1.615 7.594-.667l46.753-55.758-18.173-15.237L1.26 104.784z" transform="translate(-1 -5) rotate(7 4.276 129.568)"/>
            <path fill="#8736C1" d="M53.554 42.418L48.013 49.026 66.186 64.264 71.727 57.656z" transform="translate(-1 -5) rotate(7 4.276 129.568)"/>
            <path fill="#C33F72" d="M53.554 42.418L48.013 49.026 66.186 64.264 71.727 57.656z" transform="translate(-1 -5) rotate(7 4.276 129.568)"/>
            <path stroke="#FFF" stroke-width="3" d="M55.804 62.594L47.831 63.294 34.844 78.782 34.99 85.059 26.764 94.868 20.041 96.175 4.585 114.607" transform="translate(-1 -5) rotate(7 4.276 129.568)"/>
            <path fill="#FFF" d="M87.011 35.654L72.555 23.533c-2.28-1.913-2.579-5.313-.667-7.594 1.913-2.281 5.312-2.58 7.594-.667l14.456 12.122c2.28 1.912 2.58 5.312.667 7.593-1.913 2.28-5.313 2.58-7.594.667" transform="translate(-1 -5) rotate(7 4.276 129.568)"/>
        </g>
        <path stroke="#000" stroke-linecap="round" stroke-width="3" d="M173.969 87.107c11.236-9.804 12.294-26.936 2.264-38.051-9.82-10.882-26.694-11.573-37.738-1.937l.157-.137c-2.31 2.016-2.55 5.523-.534 7.833L169.62 90.92l4.348-3.814z" transform="translate(-1 -5)"/>
        <path stroke="#000" stroke-linecap="round" stroke-width="3" d="M155.135 65.52c14.646-12.78 36.94-11.15 49.568 3.706 12.428 14.622 10.41 36.64-4.048 49.257l.216-.19c-2.31 2.016-5.816 1.777-7.833-.533l-42.261-48.437 4.358-3.802z" transform="translate(-1 -5)"/>
        <path stroke="#000" stroke-linejoin="round" stroke-width="3" d="M106 15c8-9 29.195-3.976 16.557 17.658C106 61 84 37 95 27" transform="translate(-1 -5)"/>
        <path stroke="#000" stroke-linecap="round" stroke-linejoin="round" stroke-width="3" d="M107.08 43.253c-2.759 1.009-4.037 4.808-2.449 7.279 1.588 2.47 5.574 2.888 7.638.798s1.598-6.072-.893-7.628c-1.143-.714-2.789-.864-3.738.092M111.533 61.735c-2.759 1.008-4.037 4.808-2.449 7.279 1.587 2.47 5.574 2.888 7.638.798 2.064-2.091 1.598-6.072-.893-7.628-1.143-.714-2.789-.864-3.738.092M125.522 67.462c-2.758.427-4.748 3.541-4.022 6.235.727 2.694 3.96 4.387 6.602 3.496 2.644-.892 4.194-4.145 3.267-6.775-.93-2.63-4.126-4.193-6.787-3.355M133.713 59.727c-2.758.428-4.747 3.542-4.021 6.236s3.959 4.387 6.602 3.496c2.644-.892 4.193-4.145 3.265-6.776-.928-2.63-4.125-4.193-6.785-3.355" transform="translate(-1 -5)"/>
        <path stroke="#000" stroke-linecap="round" stroke-linejoin="round" stroke-width="3" d="M135.912 52.028c-2.757.426-4.747 3.54-4.02 6.235.726 2.693 3.958 4.387 6.602 3.495 2.644-.891 4.193-4.144 3.265-6.775-.928-2.631-4.125-4.193-6.786-3.355M116.778 67.437c-2.757.427-4.747 3.54-4.02 6.235.725 2.694 3.958 4.387 6.602 3.496 2.644-.892 4.192-4.145 3.265-6.775-.928-2.631-4.125-4.193-6.786-3.355M110.506 52.006c-2.757.427-4.747 3.54-4.021 6.235.726 2.694 3.959 4.387 6.602 3.496 2.645-.892 4.193-4.145 3.266-6.775-.928-2.632-4.125-4.193-6.786-3.355" transform="translate(-1 -5)"/>
    </g>
</svg>
