<?xml version="1.0" encoding="UTF-8"?>
<svg width="75px" height="20px" viewBox="0 0 75 20" version="1.1" xmlns="http://www.w3.org/2000/svg" xmlns:xlink="http://www.w3.org/1999/xlink">
    <!-- Generator: Sketch 43.1 (39012) - http://www.bohemiancoding.com/sketch -->
    <title>paypal</title>
    <desc>Created with Sketch.</desc>
    <defs></defs>
    <g id="Page-1" stroke="none" stroke-width="1" fill="none" fill-rule="evenodd">
        <g id="paypal" fill-rule="nonzero">
            <path d="M58,5.3 L54,5.3 C53.8,5.3 53.5,5.5 53.4,5.8 L51.7,16.7 C51.7,16.9 51.8,17.1 52.1,17.1 L54.2,17.1 C54.4,17.1 54.6,17 54.6,16.7 L55.1,13.6 C55.1,13.4 55.3,13.1 55.7,13.1 L57,13.1 C59.7,13.1 61.3,11.7 61.6,9 C61.8,7.9 61.6,6.9 61.1,6.3 C60.4,5.6 59.3,5.3 58,5.3 M58.5,9.4 C58.3,10.9 57.2,10.9 56.1,10.9 L55.4,10.9 L55.8,8 C55.8,7.9 55.9,7.8 56.2,7.8 L56.4,7.8 C57.1,7.8 57.8,7.8 58.2,8.3 C58.5,8.4 58.5,8.7 58.5,9.4" id="Shape" fill="#139AD6"></path>
            <path d="M28.8,5.3 L24.8,5.3 C24.6,5.3 24.3,5.5 24.2,5.8 L22.5,16.7 C22.5,16.9 22.6,17.1 22.9,17.1 L24.8,17.1 C25,17.1 25.3,16.9 25.4,16.6 L25.9,13.6 C25.9,13.4 26.1,13.1 26.5,13.1 L27.8,13.1 C30.5,13.1 32.1,11.7 32.4,9 C32.6,7.9 32.4,6.9 31.9,6.3 C31.2,5.6 30.2,5.3 28.8,5.3 M29.3,9.4 C29.1,10.9 28,10.9 26.9,10.9 L26.3,10.9 L26.8,8 C26.8,7.9 26.9,7.8 27.2,7.8 L27.4,7.8 C28.1,7.8 28.8,7.8 29.2,8.3 C29.3,8.4 29.4,8.7 29.3,9.4" id="Shape" fill="#263B80"></path>
            <path d="M41.1,9.2 L39.2,9.2 C39.1,9.2 38.8,9.3 38.8,9.4 L38.7,10 L38.6,9.8 C38.1,9.2 37.3,9 36.3,9 C34.2,9 32.3,10.7 31.9,13.1 C31.7,14.3 32,15.5 32.6,16.2 C33.2,16.9 34,17.2 35.1,17.2 C36.9,17.2 37.8,16.1 37.8,16.1 L37.7,16.7 C37.7,16.9 37.8,17.1 38.1,17.1 L39.9,17.1 C40.1,17.1 40.4,16.9 40.5,16.6 L41.6,9.6 C41.4,9.5 41.2,9.2 41.1,9.2 M38.3,13.2 C38.1,14.3 37.2,15.2 36,15.2 C35.4,15.2 34.9,15 34.7,14.7 C34.5,14.3 34.3,13.8 34.3,13.2 C34.4,12.1 35.4,11.2 36.4,11.2 C37,11.2 37.4,11.4 37.7,11.7 C38.2,12.1 38.3,12.7 38.3,13.2" id="Shape" fill="#263B80"></path>
            <path d="M70.1,9.2 L68.2,9.2 C68.1,9.2 67.8,9.3 67.8,9.4 L67.7,10 L67.6,9.8 C67.1,9.2 66.3,9 65.4,9 C63.3,9 61.4,10.7 61,13.1 C60.8,14.3 61.1,15.5 61.7,16.2 C62.3,16.9 63.1,17.2 64.2,17.2 C66,17.2 66.9,16.1 66.9,16.1 L66.8,16.7 C66.8,16.9 66.9,17.1 67.2,17.1 L69,17.1 C69.2,17.1 69.5,16.9 69.6,16.6 L70.7,9.6 C70.5,9.5 70.4,9.2 70.1,9.2 M67.4,13.2 C67.2,14.3 66.3,15.2 65.1,15.2 C64.5,15.2 64,15 63.8,14.7 C63.6,14.3 63.4,13.8 63.4,13.2 C63.5,12.1 64.5,11.2 65.5,11.2 C66.1,11.2 66.5,11.4 66.8,11.7 C67.4,12.1 67.5,12.7 67.4,13.2" id="Shape" fill="#139AD6"></path>
            <g id="Group">
                <path d="M51.4,9.2 L49.4,9.2 C49.2,9.2 49,9.3 48.9,9.4 L46.3,13.6 L45.1,9.6 C45,9.4 44.9,9.2 44.5,9.2 L42.6,9.2 C42.4,9.2 42.2,9.4 42.2,9.7 L44.3,16.3 L42.3,19.3 C42.2,19.5 42.3,19.9 42.5,19.9 L44.4,19.9 C44.6,19.9 44.8,19.8 44.9,19.7 L51.4,9.9 C51.9,9.6 51.7,9.2 51.4,9.2" id="Shape" fill="#263B80"></path>
                <path d="M72.4,5.6 L70.7,16.8 C70.7,17 70.8,17.2 71.1,17.2 L72.8,17.2 C73,17.2 73.3,17 73.4,16.7 L75,5.8 C75,5.6 74.9,5.4 74.6,5.4 L72.7,5.4 C72.6,5.3 72.5,5.4 72.4,5.6" id="Shape" fill="#139AD6"></path>
                <path d="M13.7,1.5 C12.9,0.5 11.3,0 9.2,0 L3.2,0 C2.8,0 2.5,0.4 2.4,0.7 L0,17.1 C0,17.5 0.2,17.7 0.5,17.7 L4.2,17.7 L5.2,11.6 L5.2,11.8 C5.3,11.4 5.7,11.1 6,11.1 L7.8,11.1 C11.3,11.1 13.9,9.6 14.7,5.5 L14.7,5.1 C14.6,5.1 14.6,5.1 14.7,5.1 C14.8,3.5 14.5,2.5 13.7,1.5" id="Shape" fill="#263B80"></path>
            </g>
            <path d="M14.5,5.1 L14.5,5.1 L14.5,5.5 C13.7,9.7 11,11.1 7.6,11.1 L5.8,11.1 C5.4,11.1 5.1,11.5 5,11.8 L3.8,19.4 C3.8,19.6 3.9,19.9 4.3,19.9 L7.4,19.9 C7.8,19.9 8.1,19.7 8.1,19.3 L8.1,19.2 L8.7,15.3 L8.7,15.1 C8.7,14.7 9.1,14.5 9.4,14.5 L9.9,14.5 C12.9,14.5 15.3,13.3 15.9,9.5 C16.1,8 16,6.6 15.2,5.8 C15.1,5.5 14.9,5.3 14.5,5.1" id="Shape" fill="#139AD6"></path>
            <path d="M13.7,4.8 C13.6,4.8 13.5,4.7 13.3,4.7 C13.1,4.7 13.1,4.7 12.9,4.6 C12.4,4.5 11.9,4.5 11.4,4.5 L6.8,4.5 C6.7,4.5 6.6,4.5 6.4,4.6 C6.2,4.6 6.1,4.9 6.1,5.1 L5.1,11.6 L5.1,11.8 C5.2,11.4 5.6,11.1 5.9,11.1 L7.7,11.1 C11.2,11.1 13.8,9.6 14.6,5.5 C14.6,5.4 14.6,5.3 14.7,5.1 C14.5,5 14.3,4.9 14.1,4.9 C13.8,4.8 13.8,4.8 13.7,4.8" id="Shape" fill="#232C65"></path>
        </g>
    </g>
</svg>