<?xml version="1.0" encoding="UTF-8"?>
<svg width="753px" height="400px" viewBox="0 0 753 400" version="1.1" xmlns="http://www.w3.org/2000/svg" xmlns:xlink="http://www.w3.org/1999/xlink">
    <title>google-pay</title>
    <g id="Page-1" stroke="none" stroke-width="1" fill="none" fill-rule="evenodd">
        <g id="google-pay" fill-rule="nonzero">
            <path d="M552.7,0 L200.7,0 C90.7,0 0.7,90 0.7,200 L0.7,200 C0.7,310 90.7,400 200.7,400 L552.7,400 C662.7,400 752.7,310 752.7,200 L752.7,200 C752.7,90 662.7,0 552.7,0 Z" id="Base_1_" fill="#FFFFFF"></path>
            <path d="M552.7,16.2 C577.4,16.2 601.4,21.1 624,30.7 C645.9,40 665.5,53.3 682.5,70.2 C699.4,87.1 712.7,106.8 722,128.7 C731.6,151.3 736.5,175.3 736.5,200 C736.5,224.7 731.6,248.7 722,271.3 C712.7,293.2 699.4,312.8 682.5,329.8 C665.6,346.7 645.9,360 624,369.3 C601.4,378.9 577.4,383.8 552.7,383.8 L200.7,383.8 C176,383.8 152,378.9 129.4,369.3 C107.5,360 87.9,346.7 70.9,329.8 C54,312.9 40.7,293.2 31.4,271.3 C21.8,248.7 16.9,224.7 16.9,200 C16.9,175.3 21.8,151.3 31.4,128.7 C40.7,106.8 54,87.2 70.9,70.2 C87.8,53.3 107.5,40 129.4,30.7 C152,21.1 176,16.2 200.7,16.2 L552.7,16.2 M552.7,0 L200.7,0 C90.7,0 0.7,90 0.7,200 L0.7,200 C0.7,310 90.7,400 200.7,400 L552.7,400 C662.7,400 752.7,310 752.7,200 L752.7,200 C752.7,90 662.7,0 552.7,0 L552.7,0 Z" id="Outline" fill="#3C4043"></path>
            <g id="G_Pay_Lockup_1_" transform="translate(115.000000, 114.000000)">
                <g id="Pay_Typeface_3_" transform="translate(225.000000, 11.000000)" fill="#3C4043">
                    <path d="M19.3,89.2 L19.3,149.7 L0.1,149.7 L0.1,0.3 L51,0.3 C63.9,0.3 74.9,4.6 83.9,13.2 C93.1,21.8 97.7,32.3 97.7,44.7 C97.7,57.4 93.1,67.9 83.9,76.4 C75,84.9 64,89.1 51,89.1 L19.3,89.1 L19.3,89.2 Z M19.3,18.7 L19.3,70.8 L51.4,70.8 C59,70.8 65.4,68.2 70.4,63.1 C75.5,58 78.1,51.8 78.1,44.8 C78.1,37.9 75.5,31.8 70.4,26.7 C65.4,21.4 59.1,18.8 51.4,18.8 L19.3,18.8 L19.3,18.7 Z" id="Letter_p_3_"></path>
                    <path d="M147.9,44.1 C162.1,44.1 173.3,47.9 181.5,55.5 C189.7,63.1 193.8,73.5 193.8,86.7 L193.8,149.7 L175.5,149.7 L175.5,135.5 L174.7,135.5 C166.8,147.2 156.2,153 143,153 C131.7,153 122.3,149.7 114.7,143 C107.1,136.3 103.3,128 103.3,118 C103.3,107.4 107.3,99 115.3,92.8 C123.3,86.5 134,83.4 147.3,83.4 C158.7,83.4 168.1,85.5 175.4,89.7 L175.4,85.3 C175.4,78.6 172.8,73 167.5,68.3 C162.2,63.6 156,61.3 148.9,61.3 C138.2,61.3 129.7,65.8 123.5,74.9 L106.6,64.3 C115.9,50.8 129.7,44.1 147.9,44.1 Z M123.1,118.3 C123.1,123.3 125.2,127.5 129.5,130.8 C133.7,134.1 138.7,135.8 144.4,135.8 C152.5,135.8 159.7,132.8 166,126.8 C172.3,120.8 175.5,113.8 175.5,105.7 C169.5,101 161.2,98.6 150.5,98.6 C142.7,98.6 136.2,100.5 131,104.2 C125.7,108.1 123.1,112.8 123.1,118.3 Z" id="Letter_a_3_"></path>
                    <polygon id="Letter_y_3_" points="298.2 47.4 234.2 194.6 214.4 194.6 238.2 143.1 196 47.4 216.9 47.4 247.3 120.8 247.7 120.8 277.3 47.4"></polygon>
                </g>
                <g id="G_Mark_1_">
                    <path d="M167.93,88 C167.93,81.74 167.37,75.75 166.33,69.99 L85.85,69.99 L85.85,102.99 L132.2,103 C130.32,113.98 124.27,123.34 115,129.58 L115,150.99 L142.59,150.99 C158.7,136.08 167.93,114.04 167.93,88 Z" id="Blue_500" fill="#4285F4"></path>
                    <path d="M115.01,129.58 C107.33,134.76 97.44,137.79 85.87,137.79 C63.52,137.79 44.56,122.73 37.77,102.43 L9.31,102.43 L9.31,124.51 C23.41,152.49 52.39,171.69 85.87,171.69 C109.01,171.69 128.45,164.08 142.6,150.98 L115.01,129.58 Z" id="Green_500_1_" fill="#34A853"></path>
                    <path d="M35.09,86.05 C35.09,80.35 36.04,74.84 37.77,69.66 L37.77,47.58 L9.31,47.58 C3.48,59.15 0.2,72.21 0.2,86.05 C0.2,99.89 3.49,112.95 9.31,124.52 L37.77,102.44 C36.04,97.26 35.09,91.75 35.09,86.05 Z" id="Yellow_500_1_" fill="#FABB05"></path>
                    <path d="M85.87,34.3 C98.5,34.3 109.81,38.65 118.74,47.15 L143.19,22.72 C128.34,8.89 108.98,0.4 85.87,0.4 C52.4,0.4 23.41,19.6 9.31,47.58 L37.77,69.66 C44.56,49.36 63.52,34.3 85.87,34.3 Z" id="Red_500" fill="#E94235"></path>
                </g>
            </g>
        </g>
    </g>
</svg>