<?xml version="1.0" encoding="UTF-8"?>
<svg width="27px" height="20px" viewBox="0 0 27 20" version="1.1" xmlns="http://www.w3.org/2000/svg" xmlns:xlink="http://www.w3.org/1999/xlink">
    <!-- Generator: Sketch 54.1 (76490) - https://sketchapp.com -->
    <title>MasterCard</title>
    <desc>Created with Sketch.</desc>
    <g id="Page-1" stroke="none" stroke-width="1" fill="none" fill-rule="evenodd">
        <g id="Artboard" transform="translate(-42.000000, -9.000000)" fill-rule="nonzero">
            <g id="Credit-Cards" transform="translate(13.000000, 10.000000)">
                <g id="MasterCard" transform="translate(30.000000, 0.000000)">
                    <path d="M23.125,0 L1.25,0 C0.625,0 0,0.72 0,1.44 L0,15.84 C0,17.28 0.625,18 1.875,18 L23.125,18 C24.375,18 25,17.28 25,15.84 L25,2.16 C25,0.72 24.375,0 23.125,0 Z" id="Rectangle-1-Copy" stroke="#D7D7D7" stroke-width="0.5" fill="#FFFFFF"></path>
                    <g id="mc_symbol" transform="translate(1.000000, 1.500000)">
                        <g id="Group" opacity="0" fill="#FFFFFF">
                            <rect id="Rectangle" x="0" y="0" width="22.8937121" height="14.9827586"></rect>
                        </g>
                        <rect id="Rectangle" fill="#FF5F00" x="8.42810606" y="2.61034483" width="6.03924242" height="9.76034483"></rect>
                        <path d="M9.05015152,7.49137931 C9.04863514,5.58706922 9.93209849,3.78782391 11.4459848,2.61206897 C8.87413014,0.612077893 5.18084362,0.903393888 2.96166781,3.2812879 C0.742492006,5.65918191 0.742492006,9.32530085 2.96166781,11.7031949 C5.18084362,14.0810889 8.87413014,14.3724049 11.4459848,12.3724138 C9.93161672,11.1962855 9.0480994,9.39629444 9.05015152,7.49137931 Z" id="Path" fill="#EB001B"></path>
                        <path d="M21.1059848,11.6565517 L21.1059848,11.1925517 L21.2726515,11.1925517 L21.2726515,11.0965517 L20.8759848,11.0965517 L20.8759848,11.1925517 L21.0326515,11.1925517 L21.0326515,11.6565517 L21.1059848,11.6565517 Z M21.8759848,11.6565517 L21.8759848,11.0965517 L21.7559848,11.0965517 L21.6159848,11.4965517 L21.4759848,11.0965517 L21.3559848,11.0965517 L21.3559848,11.6565517 L21.4426515,11.6565517 L21.4426515,11.2325517 L21.5726515,11.5965517 L21.6626515,11.5965517 L21.7926515,11.2325517 L21.7926515,11.6565517 L21.8759848,11.6565517 Z" id="Shape" fill="#F79E1B"></path>
                        <path d="M21.5956061,7.49137931 C21.5955501,9.8678242 20.2242173,12.0356294 18.064018,13.0741196 C15.9038187,14.1126099 13.3340043,13.8394646 11.4459848,12.3706897 C12.9592107,11.1939365 13.8427405,9.39493043 13.8427405,7.49051724 C13.8427405,5.58610405 12.9592107,3.78709796 11.4459848,2.61034483 C13.3340043,1.14156986 15.9038187,0.868424582 18.064018,1.90691485 C20.2242173,2.94540511 21.5955501,5.11321028 21.5956061,7.48965517 L21.5956061,7.49137931 Z" id="Path" fill="#F79E1B"></path>
                    </g>
                </g>
            </g>
        </g>
    </g>
</svg>