<?xml version="1.0" encoding="UTF-8"?>
<svg width="27px" height="20px" viewBox="0 0 27 20" version="1.1" xmlns="http://www.w3.org/2000/svg" xmlns:xlink="http://www.w3.org/1999/xlink">
    <!-- Generator: Sketch 54.1 (76490) - https://sketchapp.com -->
    <title>Discover</title>
    <desc>Created with Sketch.</desc>
    <g id="Page-1" stroke="none" stroke-width="1" fill="none" fill-rule="evenodd">
        <g id="Artboard" transform="translate(-102.000000, -9.000000)" fill-rule="nonzero">
            <g id="Credit-Cards" transform="translate(13.000000, 10.000000)">
                <g id="Discover" transform="translate(90.000000, 0.000000)">
                    <path d="M25,15.6 C25,16.92 23.9285714,18 22.6190476,18 L2.38095238,18 C1.07142857,18 0,16.92 0,15.6 L0,2.4 C0,1.08 1.07142857,0 2.38095238,0 L22.6190476,0 C23.9285714,0 25,1.08 25,2.4 L25,15.6 Z" id="Path" stroke="#D7D7D7" stroke-width="0.5" fill="#FFFFFF"></path>
                    <path d="M25,15.6 C25,16.92 23.9285714,18 22.6190476,18 L7.73809524,18 C7.73809524,18 21.7857143,15.72 25,9 L25,15.6 Z M11.3095238,9 C11.3095238,10.02 12.0833333,10.8 13.0952381,10.8 C14.1071429,10.8 14.8809524,10.02 14.8809524,9 C14.8809524,7.98 14.1071429,7.2 13.0952381,7.2 C12.0833333,7.2 11.3095238,7.98 11.3095238,9 Z" id="Shape" fill="#FF6D00"></path>
                    <path d="M4.88095238,7.2 L5.53571429,7.2 L5.53571429,10.8 L4.88095238,10.8 L4.88095238,7.2 Z M8.45238095,9 C8.45238095,10.02 9.22619048,10.8 10.2380952,10.8 C10.5357143,10.8 10.7738095,10.74 11.0714286,10.62 L11.0714286,9.84 C10.8333333,10.08 10.5952381,10.2 10.2380952,10.2 C9.58333333,10.2 9.10714286,9.72 9.10714286,9 C9.10714286,8.34 9.58333333,7.8 10.2380952,7.8 C10.5357143,7.8 10.7738095,7.92 11.0714286,8.16 L11.0714286,7.38 C10.7738095,7.26 10.5357143,7.14 10.2380952,7.14 C9.22619048,7.2 8.45238095,8.04 8.45238095,9 Z M16.4285714,9.54 L15.4761905,7.2 L14.7619048,7.2 L16.25,10.8 L16.6071429,10.8 L18.0952381,7.2 L17.3809524,7.2 L16.4285714,9.54 Z M18.3928571,10.8 L20.297619,10.8 L20.297619,10.2 L19.047619,10.2 L19.047619,9.24 L20.2380952,9.24 L20.2380952,8.64 L19.047619,8.64 L19.047619,7.8 L20.297619,7.8 L20.297619,7.2 L18.3928571,7.2 L18.3928571,10.8 Z M22.9166667,8.28 C22.9166667,7.62 22.5,7.2 21.7261905,7.2 L20.7142857,7.2 L20.7142857,10.8 L21.3690476,10.8 L21.3690476,9.36 L21.4285714,9.36 L22.3809524,10.8 L23.2142857,10.8 L22.1428571,9.3 C22.6190476,9.18 22.9166667,8.82 22.9166667,8.28 Z M21.547619,8.88 L21.3690476,8.88 L21.3690476,7.8 L21.547619,7.8 C21.9642857,7.8 22.202381,7.98 22.202381,8.34 C22.202381,8.64 22.0238095,8.88 21.547619,8.88 Z M2.79761905,7.2 L1.78571429,7.2 L1.78571429,10.8 L2.73809524,10.8 C4.22619048,10.8 4.58333333,9.54 4.58333333,9 C4.64285714,7.92 3.86904762,7.2 2.79761905,7.2 Z M2.61904762,10.2 L2.44047619,10.2 L2.44047619,7.8 L2.67857143,7.8 C3.57142857,7.8 3.92857143,8.4 3.92857143,9 C3.92857143,9.24 3.86904762,10.2 2.61904762,10.2 Z M7.32142857,8.58 C6.9047619,8.4 6.78571429,8.34 6.78571429,8.16 C6.78571429,7.92 7.02380952,7.8 7.26190476,7.8 C7.44047619,7.8 7.61904762,7.86 7.79761905,8.1 L8.1547619,7.62 C7.85714286,7.32 7.55952381,7.2 7.14285714,7.2 C6.54761905,7.2 6.07142857,7.62 6.07142857,8.22 C6.07142857,8.7 6.30952381,8.94 6.9047619,9.18 C7.26190476,9.3 7.55952381,9.42 7.55952381,9.72 C7.55952381,10.02 7.32142857,10.2 7.02380952,10.2 C6.72619048,10.2 6.42857143,10.02 6.30952381,9.72 L5.89285714,10.14 C6.19047619,10.62 6.54761905,10.8 7.08333333,10.8 C7.79761905,10.8 8.27380952,10.32 8.27380952,9.66 C8.27380952,9.12 8.03571429,8.88 7.32142857,8.58 Z" id="Shape" fill="#000000"></path>
                </g>
            </g>
        </g>
    </g>
</svg>