<?xml version="1.0" encoding="UTF-8"?>
<svg width="100px" height="100px" viewBox="0 0 100 100" version="1.1" xmlns="http://www.w3.org/2000/svg" xmlns:xlink="http://www.w3.org/1999/xlink">
    <title>img_32@3x</title>
    <defs>
        <circle id="path-1" cx="40.0999978" cy="40.0999978" r="40.0999978"></circle>
        <filter x="-11.7%" y="-11.7%" width="125.9%" height="125.9%" filterUnits="objectBoundingBox" id="filter-2">
            <feMorphology radius="2.39999986" operator="dilate" in="SourceAlpha" result="shadowSpreadOuter1"></feMorphology>
            <feOffset dx="1" dy="1" in="shadowSpreadOuter1" result="shadowOffsetOuter1"></feOffset>
            <feGaussianBlur stdDeviation="2.5" in="shadowOffsetOuter1" result="shadowBlurOuter1"></feGaussianBlur>
            <feComposite in="shadowBlurOuter1" in2="SourceAlpha" operator="out" result="shadowBlurOuter1"></feComposite>
            <feColorMatrix values="0 0 0 0 0   0 0 0 0 0   0 0 0 0 0  0 0 0 0.242385643 0" type="matrix" in="shadowBlurOuter1"></feColorMatrix>
        </filter>
    </defs>
    <g id="img_32" stroke="none" stroke-width="1" fill="none" fill-rule="evenodd">
        <g transform="translate(10.000000, 10.000000)">
            <g id="Oval-5">
                <use fill="black" fill-opacity="1" filter="url(#filter-2)" xlink:href="#path-1"></use>
                <use stroke-opacity="0.415701486" stroke="#FFFFFF" stroke-width="4.79999971" fill="#FF4722" fill-rule="evenodd" xlink:href="#path-1"></use>
                <circle stroke="#FF4722" stroke-width="2.39999986" cx="40.0999978" cy="40.0999978" r="41.2999977"></circle>
            </g>
            <path d="M32.139,65.198 C35.055,65.198 36.333,62.318 36.333,58.682 C36.333,55.064 35.091,52.202 32.175,52.202 C29.241,52.202 27.963,55.082 27.963,58.718 C27.963,62.336 29.205,65.198 32.139,65.198 Z M32.175,62.948 C30.825,62.948 30.267,61.364 30.267,58.682 C30.267,56 30.789,54.452 32.139,54.452 C33.471,54.452 34.029,56.036 34.029,58.718 C34.029,61.4 33.507,62.948 32.175,62.948 Z M40.473,65 L40.473,59.546 L43.425,59.546 L43.425,57.368 L40.473,57.368 L40.473,54.578 L44.865,54.578 L44.865,52.4 L38.223,52.4 L38.223,65 L40.473,65 Z M48.825,65 L48.825,59.546 L51.777,59.546 L51.777,57.368 L48.825,57.368 L48.825,54.578 L53.217,54.578 L53.217,52.4 L46.575,52.4 L46.575,65 L48.825,65 Z" id="OFF" fill="#FFFFFF" fill-rule="nonzero"></path>
            <g id="Group-14" transform="translate(15.000000, 13.000000)" fill="#FFFFFF" fill-rule="nonzero">
                <path d="M9.198,33.396 C14.274,33.396 17.262,30.372 17.262,25.44 C17.262,21.912 15.21,20.112 13.014,19.5 C15.102,18.744 16.542,17.124 16.542,14.28 C16.542,10.104 13.698,7.404 9.342,7.404 C5.958,7.404 4.194,8.628 2.358,10.68 L5.418,13.74 C6.714,12.444 7.686,11.868 9.054,11.868 C11.214,11.868 12.006,13.164 12.006,14.82 C12.006,16.62 10.818,17.556 8.73,17.556 L6.966,17.556 L6.966,21.912 L8.694,21.912 C11.034,21.912 12.726,22.992 12.726,25.548 C12.726,27.6 11.502,28.968 9.342,28.968 C7.65,28.968 6.39,28.248 5.022,26.268 L1.458,28.788 C3.438,31.956 5.814,33.396 9.198,33.396 Z M33.39,33 L33.39,28.608 L24.03,28.608 C24.21,25.908 25.758,24.216 29.178,21.66 C31.59,19.86 33.318,17.7 33.318,14.208 C33.318,9.816 30.402,7.404 26.046,7.404 C22.95,7.404 20.718,8.772 19.026,10.896 L21.834,14.172 C23.022,12.804 24.282,11.904 25.866,11.904 C27.738,11.904 28.746,12.876 28.746,14.856 C28.746,16.368 28.098,17.412 26.37,18.672 C21.618,22.092 19.206,25.296 18.954,33 L33.39,33 Z" id="32"></path>
                <path d="M40.31,18.5 C42.15,18.5 42.69,16.7 42.69,14.12 C42.69,11.54 42.19,9.78 40.35,9.78 C38.51,9.78 37.97,11.58 37.97,14.16 C37.97,16.74 38.47,18.5 40.31,18.5 Z M41.77,24 L48.31,10 L46.73,10 L40.19,24 L41.77,24 Z M40.35,17.06 C39.6983333,17.06 39.5426042,16.1599653 39.5307581,14.3598958 L39.53,14.12 C39.53,12.16 39.63,11.22 40.31,11.22 C40.9616667,11.22 41.1173958,12.1200347 41.1292419,13.9201042 L41.13,14.16 C41.13,16.12 41.03,17.06 40.35,17.06 Z M48.15,24.22 C49.99,24.22 50.53,22.42 50.53,19.84 C50.53,17.26 50.03,15.5 48.19,15.5 C46.35,15.5 45.81,17.3 45.81,19.88 C45.81,22.46 46.31,24.22 48.15,24.22 Z M48.19,22.78 C47.5383333,22.78 47.3826042,21.8799653 47.3707581,20.0798958 L47.37,19.84 C47.37,17.88 47.47,16.94 48.15,16.94 C48.8016667,16.94 48.9573958,17.8400347 48.9692419,19.6401042 L48.97,19.88 C48.97,21.84 48.87,22.78 48.19,22.78 Z" id="%"></path>
            </g>
        </g>
    </g>
</svg>