<svg xmlns="http://www.w3.org/2000/svg" width="27" height="30" viewBox="0 0 27 30">
    <g fill="none" fill-rule="evenodd">
        <path fill="#F0F0F0" d="M26.494 8.24L24.237 0l-1.933 1.287c-1.993 1.327-4.581 1.361-6.61.09L13.5 0l-2.195 1.377c-2.028 1.271-4.616 1.237-6.608-.09L2.763 0 .506 8.24c-.76 2.773-.68 5.73.353 8.412.951 2.47 2.51 4.699 4.574 6.459L13.5 30l8.067-6.89c2.064-1.76 3.623-3.988 4.574-6.458 1.034-2.683 1.113-5.639.353-8.411"/>
        <path fill="#FF4722" fill-rule="nonzero" d="M14.96 21.6V9h-1.926c-.252.936-.792 1.692-2.034 1.818v1.404h1.71V21.6h2.25z"/>
    </g>
</svg>
