<svg xmlns="http://www.w3.org/2000/svg" xmlns:xlink="http://www.w3.org/1999/xlink" width="212" height="117" viewBox="0 0 212 117">
    <defs>
        <path id="3j1s2wm9ga" d="M0 0.797L198.5 0.797 198.5 61.972 0 61.972z"/>
        <path id="eew9fl22ec" d="M0.214 0.86L37.413 0.86 37.413 20 0.214 20z"/>
        <path id="aqnl2jkl6e" d="M0.814 0.692L38.014 0.692 38.014 20 0.814 20z"/>
    </defs>
    <g fill="none" fill-rule="evenodd">
        <g transform="translate(.493 .487) translate(0 35.137)">
            <mask id="ri7x0eaayb" fill="#fff">
                <use xlink:href="#3j1s2wm9ga"/>
            </mask>
            <path fill="#8736C1" d="M144.554 28.113c-12.595.82-36.318.897-61.473.9-1.047 0-1.898-.849-1.898-1.897V8.618c0-1.067.879-1.922 1.946-1.9 21.7.468 48.015 8.598 62.455 16.97 2.036 1.18 1.319 4.273-1.03 4.425zm-69.07-.522c0 .786-.637 1.422-1.423 1.422H34.579c-2.357 0-4.27-1.91-4.27-4.268V18.1c0-1.826 1.158-3.45 2.887-4.039 6.176-2.103 21.69-6.7 40.825-7.324.8-.025 1.463.622 1.463 1.423v19.431zm115.754 7.493c-4.01-4.25-22.178-10.728-33.804-12.522-1.31-.202-2.564-.649-3.714-1.305-49.164-28.04-95.057-24.51-140.01-5.934-1.69.698-3.506 1.044-5.336 1.044-1.957 0-3.83.954-4.868 2.613-3.948 6.307-6.003 42.29 1.808 42.663 1.986.095 6.53.165 12.927.216C18.53 51.84 26.724 43.8 36.814 43.8c10.128 0 18.348 8.098 18.578 18.171 27.184.011 60.28-.068 86.45-.149.31-10.003 8.494-18.022 18.57-18.022 10.036 0 18.19 7.95 18.566 17.891 4.926-.018 7.744-.03 7.744-.03 4.625-.36 11.435-2.102 11.743-8.494.448-9.27-3.432-14.06-7.227-18.083z" mask="url(#ri7x0eaayb)"/>
        </g>
        <g transform="translate(.493 .487) translate(18 96.137)">
            <mask id="a4f5nsxrwd" fill="#fff">
                <use xlink:href="#eew9fl22ec"/>
            </mask>
            <path fill="#FF4722" d="M.214 1.4c0 10.272 8.327 18.6 18.6 18.6 10.272 0 18.599-8.328 18.599-18.6 0-.145-.017-.284-.021-.428C22.544.966 9.464.933.241.86c-.006.182-.027.358-.027.54" mask="url(#a4f5nsxrwd)"/>
        </g>
        <path fill="#8736C1" d="M36.814 78.937c-10.09 0-18.284 8.039-18.572 18.06 9.222.074 22.302.106 37.15.112-.23-10.073-8.45-18.172-18.578-18.172" transform="translate(.493 .487)"/>
        <path fill="#C33F72" d="M36.814 78.937c-10.09 0-18.284 8.039-18.572 18.06 9.222.074 22.302.106 37.15.112-.23-10.073-8.45-18.172-18.578-18.172" transform="translate(.493 .487)"/>
        <g transform="translate(.493 .487) translate(141 96.137)">
            <mask id="snlngyxhpf" fill="#fff">
                <use xlink:href="#aqnl2jkl6e"/>
            </mask>
            <path fill="#FF4722" d="M.814 1.4c0 10.272 8.328 18.6 18.6 18.6 10.273 0 18.6-8.328 18.6-18.6 0-.238-.026-.471-.036-.708-7.9.03-21.237.08-37.135.13-.006.194-.03.384-.03.579" mask="url(#snlngyxhpf)"/>
        </g>
        <path fill="#8736C1" d="M160.413 78.937c-10.077 0-18.262 8.02-18.57 18.022 15.897-.05 29.234-.1 37.134-.13-.375-9.942-8.53-17.892-18.564-17.892" transform="translate(.493 .487)"/>
        <path fill="#C33F72" d="M160.413 78.937c-10.077 0-18.262 8.02-18.57 18.022 15.897-.05 29.234-.1 37.134-.13-.375-9.942-8.53-17.892-18.564-17.892" transform="translate(.493 .487)"/>
        <path stroke="#000" stroke-linecap="round" stroke-width="3" d="M211.179 79.05l-45.492 18.736c-.613.253-1.315-.04-1.567-.652l-24.928-60.526c-.132-.319-.12-.677.032-.987L153.69 6.152c.266-.543.897-.803 1.469-.605l31.026 10.732c.325.113.586.36.717.677l24.928 60.528c.253.612-.04 1.313-.652 1.566z" transform="translate(.493 .487)"/>
        <path fill="#000" d="M184.895 55.688c1.608 3.906.595 7.75-2.94 9.882l1.39 3.373-3.107 1.279-1.39-3.373c-3.212.648-5.997-.696-8.522-3.55l2.31-2.457c2.442 2.524 4.502 3.494 6.766 2.562 2.662-1.097 3.592-3.505 2.532-6.08-1.243-3.018-3.444-4.707-8.716-5.91-5.675-1.298-8.113-2.682-9.795-6.765-1.445-3.507-.537-7.1 2.474-9.118l-1.39-3.373 3.108-1.281 1.388 3.374c2.998-.664 5.346.498 7.767 2.72l-2.042 2.606c-2.248-1.93-4.014-2.812-6.277-1.88-2.485 1.024-2.817 3.498-2.012 5.45 1.023 2.486 2.462 3.71 7.672 4.888 6.039 1.3 9.01 3.348 10.784 7.653" transform="translate(.493 .487)"/>
        <path stroke="#000" stroke-width="3" d="M79.22 35.953c-2-16 17.228-28.856 30-18 20 17 19-32 44-13" transform="translate(.493 .487)"/>
    </g>
</svg>
