<svg xmlns="http://www.w3.org/2000/svg" xmlns:xlink="http://www.w3.org/1999/xlink" width="55" height="37" viewBox="0 0 55 37">
    <defs>
        <linearGradient id="n0ui4u6bmc" x1="0%" x2="100%" y1="57.019%" y2="39.346%">
            <stop offset="0%" stop-color="#8736C1"/>
            <stop offset="100%" stop-color="#C33F72"/>
        </linearGradient>
        <path id="f5j8g66p4a" d="M0.07 0.529L9.223 0.529 9.223 10.216 0.07 10.216z"/>
    </defs>
    <g fill="none" fill-rule="evenodd">
        <g transform="translate(44.73 .1)">
            <mask id="52ftcjvi2b" fill="#fff">
                <use xlink:href="#f5j8g66p4a"/>
            </mask>
            <path fill="#000" d="M.07 8.607L1.493.529c2.642.16 5.228.642 7.73 1.609l-1.407 8.078C5.308 9.249 2.718 8.766.07 8.606" mask="url(#52ftcjvi2b)"/>
        </g>
        <path fill="url(#n0ui4u6bmc)" d="M1.498 26.324c2.508.967 5.107 1.45 7.765 1.609L7.78 36.01c-2.664-.16-5.267-.642-7.78-1.61l1.498-8.077zm9.963-10.36l-.715 3.891c2.62.158 5.299.002 8.006-.314l-.027.148 1.455-8.005.1-.01c-2.736.323-5.443.486-8.091.326l.014-.074-.742 4.039zm30.52 8.751l-1.423 8.078c-2.662-.16-5.381.002-8.13.326l1.438-8.078c2.743-.323 5.457-.486 8.115-.326zm1.423-8.078c2.652.16 5.249.642 7.76 1.61l-1.407 8.077-.013.074c-2.517-.966-5.119-1.45-7.776-1.61l1.405-7.977.031-.174zm1.396-7.93l-1.423 8.078c-2.652-.16-5.36.003-8.1.327l1.439-8.078c2.733-.323 5.437-.486 8.084-.326zM46.21.705c2.642.16 5.228.642 7.73 1.609l-1.407 8.078c-2.508-.967-5.098-1.45-7.746-1.61L46.21.705zm-8.056.252l-1.439 8.078c-2.733.324-5.495.808-8.258 1.292l1.453-8.078c2.758-.483 5.516-.968 8.244-1.292zM12.665 9.402L12.19 12l1.055-5.75.441-2.402c2.644.16 5.346-.002 8.077-.326l-.406 2.229-1.062 5.847 1.27-.16c2.286-.307 4.59-.71 6.893-1.112l-1.427 7.93c2.768-.484 5.536-.969 8.274-1.292l-1.438 8.077c-2.743.324-5.516.809-8.29 1.292.477-2.643.952-5.287 1.428-7.93-2.735.478-5.47.955-8.177 1.274l-.06.326-.649 3.565-.733 4.038-.102.012c2.746-.32 5.52-.802 8.294-1.285l-1.453 8.077c-2.779.484-5.559.967-8.308 1.286l1.454-8.005-.722.082c-2.466.261-4.906.378-7.299.234l.498-2.716.257-1.397.357-1.946.358-1.945c-2.653-.159-5.246-.641-7.749-1.609l1.499-8.077c2.497.967 5.085 1.45 7.733 1.609l.463-2.524z"/>
    </g>
</svg>
