<svg xmlns="http://www.w3.org/2000/svg" width="60" height="60" viewBox="0 0 60 60">
    <g fill="none" fill-rule="evenodd" transform="translate(6 6)">
        <circle cx="23.652" cy="23.652" r="20.87" fill="#FFF"/>
        <path fill="#353167" fill-rule="nonzero" d="M23.85 47.702c4.328 0 8.319-1.066 11.973-3.199 3.654-2.132 6.548-5.026 8.68-8.68 2.133-3.654 3.199-7.645 3.199-11.972s-1.066-8.313-3.199-11.957c-2.132-3.664-5.026-6.563-8.68-8.695C32.169 1.066 28.178 0 23.851 0s-8.318 1.066-11.972 3.199c-3.654 2.132-6.548 5.026-8.68 8.68C1.066 15.533 0 19.524 0 23.85s1.066 8.318 3.199 11.972c2.132 3.654 5.026 6.548 8.68 8.68 3.654 2.133 7.645 3.199 11.972 3.199zm1.989-9.938h-3.976c-.538 0-1.004-.197-1.397-.59-.394-.393-.59-.86-.59-1.398v-7.95h-7.95c-.539 0-1.005-.197-1.398-.59-.393-.393-.59-.86-.59-1.397v-3.976c0-.538.197-1.004.59-1.397.393-.394.86-.59 1.397-.59h7.95v-7.95c0-.539.197-1.005.59-1.398.394-.393.86-.59 1.398-.59h3.976c.538 0 1.004.197 1.397.59.393.393.59.86.59 1.397v7.95h7.95c.539 0 1.005.197 1.398.59.393.394.59.86.59 1.398v3.976c0 .538-.197 1.004-.59 1.397-.393.393-.86.59-1.398.59h-7.95v7.95c0 .539-.197 1.005-.59 1.398-.393.393-.86.59-1.397.59z"/>
    </g>
</svg>
