<?xml version="1.0" encoding="UTF-8"?>
<svg width="160px" height="100px" viewBox="0 0 160 100" version="1.1" xmlns="http://www.w3.org/2000/svg" xmlns:xlink="http://www.w3.org/1999/xlink">
    <!-- Generator: Sketch 43.1 (39012) - http://www.bohemiancoding.com/sketch -->
    <title>diners-V2</title>
    <desc>Created with Sketch.</desc>
    <defs></defs>
    <g id="Page-1" stroke="none" stroke-width="1" fill="none" fill-rule="evenodd">
        <g id="diners-V2" fill-rule="nonzero">
            <path d="M160,94.7 C160,97.6 157.6,100 154.7,100 L5.3,100 C2.4,100 0,97.6 0,94.7 L0,5.3 C0,2.4 2.3,0 5.3,0 L154.7,0 C157.6,0 160,2.4 160,5.3 L160,94.7 L160,94.7 Z" id="Shape" fill="#084E94"></path>
            <g id="Group" transform="translate(39.000000, 17.000000)">
                <path d="M48.059,65.452 C65.707,65.648 81.983,50.941 81.983,33.293 C81.983,13.88 65.707,0.546 48.059,0.546 L32.764,0.546 C14.724,0.546 0.017,13.88 0.017,33.293 C0.017,50.941 14.724,65.452 32.764,65.452 L48.059,65.452 Z" id="Shape_1_" fill="#FFFFFF"></path>
                <path d="M39.627,50.353 L39.627,15.449 C46.686,18.194 51.785,25.057 51.785,33.097 C51.589,40.941 46.687,47.804 39.627,50.353 L39.627,50.353 Z M14.135,32.705 C14.135,24.665 19.233,17.802 26.293,15.057 L26.293,50.157 C19.038,47.804 14.135,40.941 14.135,32.705 L14.135,32.705 Z M32.764,3.291 C16.292,3.291 2.958,16.625 2.958,33.097 C2.958,49.569 16.292,62.707 32.764,62.903 C49.236,62.903 62.374,49.569 62.374,33.097 C62.57,16.625 49.04,3.291 32.764,3.291 L32.764,3.291 Z" id="Shape_2_" fill="#084E94"></path>
            </g>
        </g>
    </g>
</svg>