<?xml version="1.0" encoding="UTF-8"?>
<svg width="40px" height="29px" viewBox="0 0 40 29" version="1.1" xmlns="http://www.w3.org/2000/svg" xmlns:xlink="http://www.w3.org/1999/xlink">
    <!-- Generator: Sketch 43.1 (39012) - http://www.bohemiancoding.com/sketch -->
    <title>apple-pay</title>
    <desc>Created with Sketch.</desc>
    <defs></defs>
    <g id="Page-1" stroke="none" stroke-width="1" fill="none" fill-rule="evenodd">
        <g id="apple-pay" fill-rule="nonzero" fill="#303C42">
            <path d="M24.6,17.7 C24.6,18.2 25,18.5 25.7,18.5 C26.5,18.5 27.1,18 27.1,17.2 L27.1,16.8 L25.7,16.9 C25,17 24.6,17.2 24.6,17.7 Z" id="Shape"></path>
            <path d="M20.5,12.9 L19,12.9 L19,15.8 L20.4,15.8 C21.4,15.8 22,15.3 22,14.3 C22.1,13.5 21.5,12.9 20.5,12.9 Z" id="Shape"></path>
            <path d="M35.8,0 L3.3,0 C1.5,0 0,1.4 0,3.2 L0,25.8 C0,27.6 1.5,29 3.3,29 L35.8,29 C37.6,29 39.1,27.6 39.1,25.8 L39.1,3.2 C39,1.4 37.5,0 35.8,0 Z M10.8,9 C11.3,8.5 12.1,8 12.7,8 C12.8,8.8 12.5,9.5 12,10.1 C11.5,10.6 10.8,11.1 10.1,11 C10.1,10.3 10.4,9.5 10.8,9 Z M14.6,19.3 C14.1,20.1 13.5,20.9 12.6,20.9 C11.7,20.9 11.4,20.4 10.5,20.4 C9.5,20.4 9.2,20.9 8.4,20.9 C7.5,20.9 6.9,20.1 6.3,19.3 C5.2,17.7 4.3,14.8 5.5,12.8 C6.1,11.8 7.1,11.2 8.2,11.2 C9,11.2 9.8,11.8 10.3,11.8 C10.8,11.8 11.8,11.1 12.8,11.2 C13.2,11.2 14.4,11.4 15.2,12.5 C15.1,12.5 13.8,13.3 13.8,15 C13.8,17 15.5,17.6 15.5,17.6 C15.4,17.6 15.2,18.4 14.6,19.3 Z M20.8,16.8 L19,16.8 L19,19.3 L17.8,19.3 L17.8,12 L20.7,12 C22.1,12 23.2,13 23.2,14.4 C23.2,15.8 22.2,16.8 20.8,16.8 Z M28.2,19.3 L27.1,19.3 L27.1,18.4 L27.1,18.4 C26.8,19 26.1,19.4 25.3,19.4 C24.2,19.4 23.4,18.8 23.4,17.8 C23.4,16.8 24.2,16.3 25.5,16.2 L27,16.1 L27,15.7 C27,15.1 26.6,14.7 25.8,14.7 C25.2,14.7 24.7,15 24.7,15.5 L23.7,15.5 C23.7,14.5 24.7,13.8 25.9,13.8 C27.3,13.8 28.1,14.5 28.1,15.6 L28.1,19.3 L28.2,19.3 Z M32,19.6 C31.5,20.9 31,21.4 29.8,21.4 L29.4,21.4 L29.4,20.5 L29.8,20.5 C30.3,20.5 30.6,20.3 30.8,19.7 L30.9,19.4 L28.9,13.8 L30.1,13.8 L31.5,18.3 L31.5,18.3 L32.9,13.8 L34.1,13.8 L32,19.6 Z" id="Shape"></path>
        </g>
    </g>
</svg>