<?xml version="1.0" encoding="UTF-8"?>
<svg width="160px" height="100px" viewBox="0 0 160 100" version="1.1" xmlns="http://www.w3.org/2000/svg" xmlns:xlink="http://www.w3.org/1999/xlink">
    <!-- Generator: Sketch 43.1 (39012) - http://www.bohemiancoding.com/sketch -->
    <title>jcb</title>
    <desc>Created with Sketch.</desc>
    <defs></defs>
    <g id="Page-1" stroke="none" stroke-width="1" fill="none" fill-rule="evenodd">
        <g id="jcb" fill-rule="nonzero">
            <path d="M147.994,0.02 L144.314,0.02 L137.68,0.02 L128.556,0.02 L117.353,0.02 L104.417,0.02 L90.336,0.02 L75.463,0.02 L60.227,0.02 L44.964,0.02 L30.291,0.02 L16.541,0.02 L10.108,0.02 C9.011,0.02 7.867,-0.071 6.785,0.14 C5.498,0.39 4.296,1.007 3.276,1.823 C2.237,2.655 1.364,3.71 0.772,4.905 C0.205,6.048 0,7.22 0,8.486 L0,14.409 L0,27.932 L0,42.685 L0,57.395 L0,70.689 L0,81.212 L0,87.691 C0,91.542 0.851,95.679 4.236,97.99 C7.778,100.409 12.324,99.966 16.396,99.966 L29.363,99.966 L43.471,99.966 L58.316,99.966 L73.404,99.966 L88.237,99.966 L102.411,99.966 L115.553,99.966 L127.051,99.966 L136.541,99.966 L143.59,99.966 L147.713,99.966 C151.366,99.966 155.3,99.229 157.679,96.194 C159.883,93.382 159.994,89.782 159.994,86.369 L159.994,77.746 L159.994,65.011 L159.994,49.771 L159.994,33.537 L159.994,17.808 L159.994,14.178 C159.994,12.971 160.027,11.759 159.947,10.554 C159.807,8.471 159.339,6.354 158.222,4.565 C156.037,1.069 151.888,0.02 147.994,0.02 Z" id="Rectangle-1" fill="#F4F4F4"></path>
            <g id="jcb-2" transform="translate(30.000000, 13.000000)">
                <path d="M74.84,38.799 L79.685,38.799 C80.483,38.799 81.282,38.781 82.08,38.799 C82.98,38.819 83.823,39.098 84.47,39.74 C85.252,40.515 85.569,41.659 85.361,42.733 C85.182,43.656 84.601,44.471 83.779,44.929 C83.108,45.304 82.384,45.346 81.635,45.346 L79.22,45.346 L76.79,45.346 L75.59,45.346 C75.389,45.346 75.159,45.378 74.961,45.346 C74.796,45.319 74.87,45.371 74.839,45.233 C74.759,44.883 74.839,44.42 74.839,44.063 L74.839,42.205 L74.839,38.987 C74.84,38.924 74.84,38.862 74.84,38.799 L74.84,38.799 L74.84,38.799 Z M84.5,31.39 C84.72,32.391 84.454,33.482 83.721,34.213 C83.126,34.807 82.33,35.073 81.501,35.105 C80.749,35.134 79.99,35.108 79.237,35.108 L77.031,35.108 L75.894,35.108 L75.352,35.108 C75.27,35.108 74.891,35.159 74.84,35.107 C74.765,35.03 74.84,34.513 74.84,34.41 L74.84,32.872 L74.84,29.577 C74.84,29.453 74.815,29.299 74.84,29.177 C74.866,29.046 74.802,29.105 74.934,29.066 C75.091,29.02 75.337,29.066 75.503,29.066 L76.072,29.066 L78.278,29.066 L80.526,29.066 C80.93,29.066 81.338,29.051 81.741,29.084 C82.544,29.149 83.302,29.48 83.841,30.088 C84.169,30.457 84.395,30.909 84.5,31.39 C84.496,31.37 84.491,31.35 84.487,31.33 C84.492,31.35 84.496,31.37 84.5,31.39 L84.5,31.39 Z M99.378,0.065 L99.427,0.065 L99.427,1.443 L99.427,5.211 L99.427,10.881 L99.427,17.893 L99.427,25.785 L99.427,33.979 L99.427,41.993 L99.427,49.34 L99.427,55.468 L99.427,59.844 L99.427,61.981 C99.425,65.228 98.219,68.359 95.958,70.707 C93.89,72.855 91.071,74.207 88.099,74.469 C86.361,74.622 84.579,74.518 82.835,74.518 L77.9,74.518 L72.949,74.518 L70.46,74.518 L69.229,74.518 C69.152,74.518 68.799,74.559 68.761,74.514 C68.748,74.499 68.767,74.445 68.761,74.426 C68.721,74.297 68.761,74.091 68.761,73.957 L68.761,73.114 L68.761,70.515 L68.761,63.066 L68.761,55.138 L68.761,49.893 C68.761,49.719 68.739,49.529 68.761,49.356 C68.786,49.159 68.764,49.22 69.035,49.22 L71.524,49.22 L76.459,49.22 L81.41,49.22 L86.358,49.22 C87.221,49.22 88.092,49.251 88.953,49.186 C90.592,49.062 92.25,48.592 93.587,47.611 C95.313,46.344 96.226,44.251 95.878,42.12 C95.569,40.228 94.219,38.782 92.537,37.966 C91.679,37.55 90.75,37.286 89.808,37.141 C89.579,37.106 89.348,37.077 89.117,37.056 C89.069,37.051 88.855,37.065 88.826,37.032 C88.717,36.91 88.913,36.88 88.968,36.866 C89.874,36.64 90.747,36.456 91.577,35.995 C92.297,35.595 92.944,35.058 93.438,34.397 C94.819,32.548 94.855,29.812 93.438,27.971 C92.364,26.576 90.648,25.851 88.953,25.56 C87.325,25.28 85.647,25.362 84.002,25.362 L79.067,25.362 L74.09,25.362 L69.155,25.362 C68.849,25.362 68.761,25.453 68.761,25.161 L68.761,24.255 L68.761,20.979 L68.761,13.603 C68.761,12.842 68.744,12.078 68.814,11.32 C69.027,9.016 69.899,6.804 71.299,4.963 C73.102,2.592 75.758,0.92 78.678,0.322 C80.652,-0.082 82.731,0.068 84.737,0.068 L89.688,0.068 L94.665,0.068 C96.237,0.065 97.808,0.068 99.378,0.065 L99.378,0.065 L99.378,0.065 Z" id="Shape" fill="#479951"></path>
                <path d="M0.402,43.243 C0.072,43.087 0.145,43.053 0.145,42.714 L0.145,41.51 L0.145,37.176 L0.145,24.723 L0.145,14.281 C0.145,13.68 0.143,13.078 0.145,12.477 C0.159,9.042 1.592,5.723 4.115,3.384 C5.896,1.733 8.152,0.619 10.552,0.23 C12.137,-0.027 13.772,0.066 15.374,0.066 L23.263,0.066 L27.2,0.066 L29.147,0.066 L30.136,0.066 C30.241,0.066 30.749,0.004 30.805,0.072 C30.838,0.112 30.805,0.319 30.805,0.367 L30.805,1.082 L30.805,3.677 L30.805,12.506 L30.805,24.476 L30.805,37.503 L30.805,49.559 L30.805,58.43 C30.805,59.653 30.81,60.876 30.805,62.098 C30.793,65.345 29.518,68.501 27.23,70.815 C25.544,72.52 23.379,73.722 21.033,74.231 C19.33,74.601 17.583,74.516 15.852,74.516 L11.931,74.516 L4.084,74.516 L2.079,74.516 L1.121,74.516 L0.642,74.516 C0.565,74.516 0.187,74.561 0.145,74.516 C0.088,74.455 0.145,74.059 0.145,73.983 L0.145,72.511 L0.145,61.275 L0.145,50.188 L0.145,48.367 C2.636,49.038 5.232,49.412 7.797,49.658 C10.282,49.897 12.791,49.985 15.285,49.842 C18.691,49.646 22.444,49.048 25.165,46.838 C27.375,45.044 28.247,42.395 28.249,39.616 C28.25,38.326 28.249,37.036 28.249,35.747 L28.249,25.567 C28.249,25.537 28.27,25.383 28.249,25.361 C28.205,25.316 27.869,25.361 27.799,25.361 L27.32,25.361 L25.435,25.361 L21.662,25.361 L17.889,25.361 C17.844,25.361 17.59,25.329 17.559,25.363 C17.548,25.375 17.565,25.424 17.559,25.439 C17.516,25.558 17.559,25.78 17.559,25.906 L17.559,27.801 L17.559,38.807 C17.559,39.122 17.561,39.438 17.559,39.753 C17.549,41.319 17.072,42.872 15.973,44.02 C14.35,45.715 11.945,46.009 9.714,45.867 C7.125,45.703 4.595,45.012 2.199,44.037 C1.592,43.789 0.993,43.523 0.402,43.243 L0.402,43.243 L0.402,43.243 Z" id="Shape_1_" fill="#265797"></path>
                <path d="M35.208,28.506 C35.121,28.576 35.035,28.647 34.951,28.72 L34.951,20.464 C34.951,17.676 34.871,14.875 34.957,12.087 C35.135,6.301 39.486,1.267 45.181,0.259 C46.699,-0.01 48.254,0.065 49.79,0.065 L53.446,0.065 L60.81,0.065 L64.465,0.065 C64.663,0.065 65.52,-0.036 65.613,0.094 C65.651,0.147 65.613,0.374 65.613,0.437 L65.613,5.229 L65.613,14.176 L65.613,25.586 L65.613,37.762 L65.613,49.006 L65.613,57.658 L65.613,61.918 C65.613,66.498 63.188,70.789 59.144,72.996 C57.311,73.997 55.259,74.502 53.174,74.515 C51.947,74.523 50.719,74.515 49.492,74.515 L42.154,74.515 L38.472,74.515 L36.629,74.515 L35.702,74.515 C35.597,74.515 35.008,74.579 34.95,74.51 C34.895,74.443 34.95,74.089 34.95,74.008 L34.95,72.772 L34.95,68.594 L34.95,56.891 L34.95,47.347 L34.95,45.865 C36.899,47.534 39.351,48.507 41.826,49.088 C43.822,49.557 45.873,49.781 47.919,49.866 C49.937,49.95 51.969,49.919 53.981,49.741 C56.023,49.56 58.053,49.239 60.061,48.832 C60.572,48.729 61.082,48.619 61.589,48.502 C61.723,48.471 62.094,48.441 62.156,48.34 C62.215,48.244 62.156,47.922 62.156,47.813 L62.156,43.477 L62.156,43.118 C59.997,44.193 57.734,45.047 55.36,45.506 C52.37,46.084 49.013,46.22 46.226,44.818 C43.685,43.54 42.254,41.044 42.024,38.248 C41.778,35.267 42.679,32.155 45.208,30.369 C47.896,28.47 51.448,28.445 54.58,28.932 C56.955,29.302 59.24,30.066 61.407,31.096 C61.659,31.217 61.909,31.34 62.157,31.465 L62.157,27.774 L62.157,26.767 C62.157,26.651 62.215,26.343 62.157,26.239 C62.102,26.14 61.718,26.107 61.59,26.077 C61.341,26.02 61.091,25.964 60.84,25.91 C58.852,25.481 56.842,25.14 54.82,24.922 C52.824,24.707 50.809,24.642 48.802,24.687 C46.775,24.732 44.745,24.905 42.753,25.295 C40.441,25.748 38.144,26.503 36.165,27.806 C35.836,28.025 35.516,28.258 35.208,28.506 L35.208,28.506 L35.208,28.506 Z" id="Shape_2_" fill="#CA4638"></path>
            </g>
        </g>
    </g>
</svg>