<svg width="19" height="16" xmlns="http://www.w3.org/2000/svg">
    <path d="M17.612 13.2c.57.96-.146 2.16-1.286 2.16H1.486C.344 15.36-.369 14.158.2 13.2L7.62.72c.572-.96 2.002-.959 2.572 0l7.42 12.48zm-8.706-2.58c-.785 0-1.422.618-1.422 1.38 0 .762.637 1.38 1.422 1.38.786 0 1.423-.618 1.423-1.38 0-.762-.637-1.38-1.423-1.38zm-1.35-4.96.23 4.08c.01.19.173.34.37.34h1.5c.198 0 .36-.15.371-.34l.23-4.08a.365.365 0 0 0-.37-.38h-1.96a.365.365 0 0 0-.371.38z" fill="#9C9B9B" fill-rule="nonzero"/>
</svg>
