<svg width="21" height="12" xmlns="http://www.w3.org/2000/svg">
    <path d="M13.732 0h-2.714c-.252 0-.496.092-.682.259l-3.105 2.77c-.003.003-.006.01-.01.012a1.203 1.203 0 0 0-.066 1.724c.401.428 1.245.542 1.772.083.003-.003.01-.003.013-.006l2.524-2.253a.517.517 0 0 1 .714.03c.19.2.173.512-.032.696l-.824.736 4.6 3.639c.09.074.173.154.249.237V1.97L14.446.29a1.017 1.017 0 0 0-.714-.29zm3.453 1.976V8.87c0 .545.451.985 1.01.985h2.022V1.976h-3.032zM18.7 8.87a.5.5 0 0 1-.505-.493.5.5 0 0 1 .505-.492.5.5 0 0 1 .505.492.5.5 0 0 1-.505.493zM0 9.85h2.022c.559 0 1.01-.44 1.01-.985v-6.89H0v7.875zm1.516-1.967a.5.5 0 0 1 .506.492.5.5 0 0 1-.506.493.5.5 0 0 1-.505-.493c0-.274.227-.492.505-.492zm13.77.572-4.716-3.73-.948.846a2.32 2.32 0 0 1-3.213-.136 2.178 2.178 0 0 1 .14-3.13L9.132 0H6.485c-.268 0-.524.105-.714.29L4.043 1.97v6.893h.579l2.858 2.52a2.058 2.058 0 0 0 2.843-.285l.007-.007.565.478c.502.4 1.245.323 1.652-.167l.992-1.188.17.136c.434.341 1.072.28 1.422-.145l.3-.36a.97.97 0 0 0-.145-1.389z" fill="#9C9B9B" fill-rule="nonzero"/>
</svg>
