<svg width="17" height="19" xmlns="http://www.w3.org/2000/svg">
    <path d="M8.19 18.286c1.292 0 2.34-1.024 2.34-2.286H5.852c0 1.262 1.047 2.286 2.339 2.286zm7.877-5.347c-.706-.742-2.028-1.857-2.028-5.51 0-2.775-1.992-4.997-4.679-5.542v-.744C9.36.512 8.837 0 8.19 0c-.645 0-1.168.512-1.168 1.143v.744c-2.687.545-4.679 2.767-4.679 5.542 0 3.653-1.322 4.768-2.028 5.51-.22.23-.317.506-.315.775a1.157 1.157 0 0 0 1.174 1.143h14.034c.7 0 1.17-.557 1.174-1.143a1.101 1.101 0 0 0-.315-.775z" fill="#9C9B9B" fill-rule="nonzero"/>
</svg>
