<svg width="16" height="12" xmlns="http://www.w3.org/2000/svg">
    <path d="m13.586 4.45-.348-.843-.618-1.495C12.09.829 10.827 0 9.4 0H5.466c-1.426 0-2.69.829-3.22 2.112l-.618 1.495-.348.843C.533 4.725 0 5.42 0 6.24v1.44c0 .484.19.92.496 1.258v1.622c0 .53.443.96.99.96h.992c.547 0 .99-.43.99-.96V9.6h7.93v.96c0 .53.443.96.99.96h.992c.547 0 .99-.43.99-.96V8.938a1.87 1.87 0 0 0 .496-1.258V6.24c0-.82-.533-1.515-1.28-1.79zm-9.5-1.625a1.487 1.487 0 0 1 1.38-.905H9.4c.608 0 1.154.358 1.38.905l.617 1.495H3.47l.617-1.495zM2.478 7.674c-.595 0-.991-.383-.991-.957s.396-.957.99-.957c.595 0 1.487.861 1.487 1.435 0 .575-.892.479-1.486.479zm9.91 0c-.594 0-1.486.096-1.486-.479 0-.574.892-1.435 1.486-1.435.595 0 .992.383.992.957s-.397.957-.992.957z" fill="#9C9B9B" fill-rule="nonzero"/>
</svg>
