<svg width="17" height="19" xmlns="http://www.w3.org/2000/svg">
    <path d="m15.484 15.816-3.057-3.365a.703.703 0 0 0-.52-.236h-.5c.846-1.191 1.348-2.69 1.348-4.32 0-3.878-2.854-7.02-6.377-7.02C2.855.875 0 4.017 0 7.895c0 3.878 2.855 7.02 6.378 7.02 1.48 0 2.842-.554 3.925-1.485v.55c0 .216.076.422.214.574l3.057 3.365a.687.687 0 0 0 1.04 0l.867-.955a.873.873 0 0 0 .003-1.148zm-9.106-3.601c-2.168 0-3.925-1.93-3.925-4.32 0-2.386 1.754-4.32 3.925-4.32 2.168 0 3.925 1.93 3.925 4.32 0 2.386-1.754 4.32-3.925 4.32z" fill="#9C9B9B" fill-rule="nonzero"/>
</svg>
