<svg width="21" height="16" xmlns="http://www.w3.org/2000/svg">
    <path d="M4.441 6.654 4.06 8.045a2.759 2.759 0 0 0-.074 1.032l-1.084.87c-.202.162-.502-.013-.45-.264l.475-2.3a.272.272 0 0 0-.246-.324L.283 6.833c-.261-.025-.346-.355-.128-.496l2.006-1.3a.268.268 0 0 0 .061-.398L.692 2.827c-.167-.198.013-.49.27-.439l2.36.463a.278.278 0 0 0 .333-.24L3.888.275c.025-.254.364-.336.51-.124L5.73 2.105a.284.284 0 0 0 .409.06L8 .673c.202-.162.501.013.45.264L8.1 2.62c-.083.092-.166.183-.243.282l-.99 1.29-.33.43c-1.007.262-1.822 1.035-2.096 2.031zM19.67 10.63l-.382 1.39c-.097.35-.29.649-.54.881a2.051 2.051 0 0 1-.27.21l-.431 1.567a.948.948 0 0 1-.174.341 1 1 0 0 1-1.033.338l-.952-.248a.958.958 0 0 1-.696-1.176l.255-.927-7.614-1.988-.255.927a.988.988 0 0 1-1.207.679l-.951-.248a.969.969 0 0 1-.721-.796.936.936 0 0 1 .024-.38l.43-1.567a1.968 1.968 0 0 1-.125-.314 1.833 1.833 0 0 1-.016-1.026l.382-1.39A1.923 1.923 0 0 1 6.53 5.635c.181-.074.373-.122.57-.142l.557-.726.99-1.29a3.439 3.439 0 0 1 1.632-1.165 3.563 3.563 0 0 1 2.022-.067l3.777.986c.342.09.661.226.95.403.43.263.795.617 1.068 1.035.272.416.45.895.514 1.41l.195 1.598.11.902c.32.225.564.537.701.898.135.356.163.756.054 1.152zM7.9 7.06c-.571-.149-1.053.121-1.206.676-.153.555.126 1.024.697 1.173.571.149 1.402.465 1.555-.09.153-.554-.475-1.61-1.046-1.759zm8.948.845-.196-1.598a1.41 1.41 0 0 0-.118-.416c-.178-.39-.53-.69-.967-.805L11.79 4.1a1.5 1.5 0 0 0-1.566.528l-.99 1.29L14.53 7.3l2.318.605zm.569 1.64c-.571-.15-1.656.46-1.809 1.013-.152.555.73.686 1.3.835.572.15 1.054-.12 1.207-.676.152-.554-.127-1.023-.698-1.172z" fill="#9C9B9B" fill-rule="nonzero"/>
</svg>
