<svg width="17" height="12" xmlns="http://www.w3.org/2000/svg">
    <path d="M15.245 9.6H1.967V.48c0-.265-.22-.48-.492-.48H.492A.486.486 0 0 0 0 .48v10.08c0 .53.44.96.984.96h14.26a.486.486 0 0 0 .493-.48v-.96c0-.265-.22-.48-.492-.48zM14.26.96h-3.628c-.657 0-.987.775-.522 1.23l.996.971-2.255 2.201-2.255-2.2a1 1 0 0 0-1.391 0l-2.111 2.06a.472.472 0 0 0 0 .679l.695.679a.5.5 0 0 0 .696 0L5.9 5.197 8.156 7.4a1 1 0 0 0 1.391 0l2.95-2.88.997.972c.464.453 1.259.132 1.259-.51V1.44c0-.265-.22-.48-.492-.48z" fill="#9C9B9B" fill-rule="nonzero"/>
</svg>
