<svg xmlns="http://www.w3.org/2000/svg" xmlns:xlink="http://www.w3.org/1999/xlink" width="63" height="101" viewBox="0 0 63 101">
    <defs>
        <path id="6tk38d0wba" d="M1.265.15L.004 7.394c-.011.054.002.108.036.15.035.041.086.065.139.064h3.72c1.616 0 2.984-.971 2.984-2.554.024-.615-.292-1.193-.823-1.501.744-.272 1.233-.988 1.214-1.782C7.274.619 6.397 0 4.671 0H1.438c-.087 0-.16.063-.173.15zM3.02 1.662h1.433c.4 0 .693.16.693.512h-.008c0 .434-.325.684-.805.684H2.815l.205-1.196zm-.477 2.804h1.508c.542 0 .758.261.758.598h-.008c0 .608-.411.881-.938.881h-1.58l.26-1.479z"/>
        <path id="revig23l7c" d="M5.627 0h-1.58c-.087 0-.162.063-.176.15L3.32 3.265c-.131.716-.348.913-.759.913-.327 0-.543-.184-.543-.587 0-.118.012-.236.032-.352L2.586.213c.011-.052-.002-.107-.036-.15C2.515.024 2.464 0 2.41 0H.815C.73.003.66.066.646.15L.088 3.304c-.05.284-.079.572-.088.86C0 5.3.597 5.826 1.637 5.826c.485-.015.951-.19 1.325-.499l-.028.167c-.012.053.002.107.036.149.035.041.086.066.14.064h1.58c.087.001.162-.063.175-.15L5.803.209c.01-.052-.004-.105-.039-.146C5.732.023 5.683 0 5.63 0h-.003z"/>
        <path id="r13hy6f8we" d="M4.259.002c-.51.017-1 .191-1.405.5L2.88.334C2.893.282 2.88.227 2.846.186 2.81.143 2.76.12 2.706.12h-1.58C1.04.121.964.184.95.271L.004 5.615c-.011.053.002.107.036.15.034.04.085.064.14.063h1.58c.088 0 .162-.063.175-.15l.556-3.104c.12-.695.346-.914.728-.914.31 0 .526.164.526.578-.002.117-.012.235-.031.351l-.537 3.026c-.012.053.002.107.036.15.034.04.085.064.139.063h1.619c.087 0 .162-.063.176-.15l.549-3.112c.12-.684.348-.912.727-.912.304 0 .543.13.543.553-.006.128-.02.256-.043.382l-.537 3.026c-.01.053.002.107.037.15.034.04.085.064.14.063h1.565c.087 0 .162-.063.176-.15L8.89 2.48c.053-.28.082-.563.085-.847C8.975.556 8.423.002 7.317.002 6.7.016 6.109.247 5.646.655 5.33.24 4.842 0 4.326 0c-.022 0-.045 0-.067.002z"/>
        <path id="udzg10remg" d="M0 3.467c0 1.49.864 2.478 2.458 2.478.715 0 1.419-.172 2.055-.5.053-.026.09-.076.098-.134l.175-1.01c.017-.067-.008-.137-.062-.179-.054-.042-.128-.05-.188-.018-.576.279-1.215.396-1.851.341-.53-.033-.966-.281-.922-.912h3.15c.083.002.156-.054.175-.134.09-.362.136-.733.136-1.105C5.224.924 4.517 0 2.952 0 1.194 0 0 1.5 0 3.467zm2.815-2.02c.576 0 .748.293.737.868H1.958c.163-.565.413-.869.857-.869z"/>
        <path id="movqpl1mhi" d="M4.03 0c-.431.014-.844.176-1.171.458l.022-.121c.013-.054 0-.11-.034-.151-.035-.043-.086-.067-.14-.065H1.125C1.038.119.963.184.95.27L.004 5.613c-.011.053.002.108.036.15.034.04.086.064.14.063h1.58c.087 0 .162-.063.175-.15l.516-2.962c.12-.697.359-.924.813-.924.275.007.537.11.74.295.044.04.103.056.16.043.058-.013.105-.054.126-.11L4.936.438c.032-.08 0-.172-.074-.217C4.622.076 4.347 0 4.067 0h-.038z"/>
        <path id="josejr2atk" d="M3.12.518l.03-.19c.01-.052-.003-.104-.038-.146C3.08.142 3.028.12 2.975.12h-1.58C1.307.119 1.233.18 1.22.267L.004 7.204c-.012.057.005.118.047.16.042.043.102.061.16.05l1.632-.29c.075-.011.134-.072.145-.148l.27-1.56c.38.313.853.487 1.344.496 1.413 0 2.374-1.62 2.374-3.956C5.976.67 5.382 0 4.366 0c-.463.024-.902.207-1.246.518zm-.63 3.505l.388-2.153c.196-.154.432-.248.68-.269.346 0 .465.217.465.68 0 1.2-.377 2.032-.853 2.034-.257-.002-.502-.107-.68-.292z"/>
        <path id="pxtuzmeazm" d="M0 0L7.625 0 7.625 14.531 0 14.531z"/>
        <path id="wjqu06l6ko" d="M0 0L3.152 0 3.152 11.15 0 11.15z"/>
    </defs>
    <g fill="none" fill-rule="evenodd">
        <g>
            <g>
                <g transform="translate(-458.000000, -134.000000) translate(458.000000, 134.000000) translate(11.634683, 71.535966)">
                    <mask id="fycqfm3crb" fill="#fff">
                        <use xlink:href="#6tk38d0wba"/>
                    </mask>
                    <path fill="#000" d="M-0.101 7.702L7.386 7.702 7.386 -0.094 -0.101 -0.094z" mask="url(#fycqfm3crb)"/>
                </g>
                <g transform="translate(-458.000000, -134.000000) translate(458.000000, 134.000000) translate(19.211176, 73.436842)">
                    <mask id="pyr9yxv6nd" fill="#fff">
                        <use xlink:href="#revig23l7c"/>
                    </mask>
                    <path fill="#000" d="M-0.093 5.92L5.906 5.92 5.906 -0.094 -0.093 -0.094z" mask="url(#pyr9yxv6nd)"/>
                </g>
                <g transform="translate(-458.000000, -134.000000) translate(458.000000, 134.000000) translate(25.155702, 73.315860)">
                    <mask id="i7v1abswdf" fill="#fff">
                        <use xlink:href="#r13hy6f8we"/>
                    </mask>
                    <path fill="#000" d="M-0.1 5.922L9.069 5.922 9.069 -0.114 -0.1 -0.114z" mask="url(#i7v1abswdf)"/>
                </g>
                <g transform="translate(-458.000000, -134.000000) translate(458.000000, 134.000000) translate(40.613745, 73.317426)">
                    <mask id="7yo9prk5xh" fill="#fff">
                        <use xlink:href="#udzg10remg"/>
                    </mask>
                    <path fill="#000" d="M-0.093 6.039L5.317 6.039 5.317 -0.094 -0.093 -0.094z" mask="url(#7yo9prk5xh)"/>
                </g>
                <g transform="translate(-458.000000, -134.000000) translate(458.000000, 134.000000) translate(46.137390, 73.316643)">
                    <mask id="cdx762kfbj" fill="#fff">
                        <use xlink:href="#movqpl1mhi"/>
                    </mask>
                    <path fill="#000" d="M-0.101 5.921L5.061 5.921 5.061 -0.099 -0.101 -0.099z" mask="url(#cdx762kfbj)"/>
                </g>
                <g transform="translate(-458.000000, -134.000000) translate(458.000000, 134.000000) translate(34.167910, 73.317426)">
                    <mask id="ufom79mdhl" fill="#fff">
                        <use xlink:href="#josejr2atk"/>
                    </mask>
                    <path fill="#000" d="M-0.101 7.518L6.068 7.518 6.068 -0.093 -0.101 -0.093z" mask="url(#ufom79mdhl)"/>
                </g>
                <path fill="#000" d="M9.792 95.201c-.372 3.002-1.063 5.18-3.853 5.18-3.134 0-3.984-3.187-3.984-9.536 0-6.376.797-9.644 4.038-9.644 2.576 0 3.612 2.232 3.745 5.287l-2.39.319c-.133-2.099-.505-3.214-1.382-3.214-1.116 0-1.567 1.169-1.567 7.146 0 5.87.478 7.252 1.673 7.252.797 0 1.116-.824 1.382-3.108l2.338.318z" transform="translate(-458.000000, -134.000000) translate(458.000000, 134.000000)"/>
                <g transform="translate(-458.000000, -134.000000) translate(458.000000, 134.000000) translate(11.171313, 85.850442)">
                    <mask id="gspmxye5un" fill="#fff">
                        <use xlink:href="#pxtuzmeazm"/>
                    </mask>
                    <path fill="#000" d="M5.366 7.306c0-2.63-.212-5.128-1.567-5.128-1.408 0-1.54 2.55-1.54 5.048 0 2.577.053 5.127 1.567 5.127 1.408 0 1.54-2.55 1.54-5.047m2.259-.08c0 4.064-.744 7.305-3.879 7.305C.824 14.531 0 11.37 0 7.331 0 3.402.559 0 3.852 0c3.003 0 3.773 3.241 3.773 7.226" mask="url(#gspmxye5un)"/>
                </g>
                <path fill="#000" d="M27.588 100.09h-2.23V89.861c0-1.195-.187-1.807-.904-1.807-.532 0-.983.187-1.435.612v11.422h-2.231V86.143h2.231v.69c.558-.557 1.143-.982 2.179-.982 1.78 0 2.39 1.089 2.39 3.984v10.254zM36.647 100.09h-2.232V89.861c0-1.195-.186-1.807-.903-1.807-.531 0-.984.187-1.435.612v11.422h-2.231V86.143h2.231v.69c.558-.557 1.143-.982 2.179-.982 1.78 0 2.39 1.089 2.39 3.984v10.254zM43.526 91.854c-.053-2.178-.478-3.878-1.408-3.878-.903 0-1.301 1.275-1.407 3.878h2.815zm2.178 2.046h-5.02c.08 2.922.558 4.223 1.594 4.223.743 0 .982-.478 1.46-1.673l1.86.877c-.664 1.833-1.46 3.054-3.427 3.054-2.816 0-3.613-3.214-3.613-7.172 0-4.702 1.036-7.358 3.666-7.358 2.338 0 3.48 2.683 3.48 7.385v.664zM54.285 96.795c-.505 2.258-1.515 3.586-3.268 3.586-2.311 0-3.72-2.018-3.72-7.172 0-5.207 1.17-7.358 3.853-7.358 1.992 0 2.816 1.806 3.108 3.692l-2.045.824c-.213-1.25-.453-2.258-1.196-2.258-1.275 0-1.46 2.178-1.46 5.047 0 3.108.185 4.967 1.487 4.967.664 0 .982-.69 1.328-2.125l1.913.797zM60.766 97.646l-.24 2.23c-.504.32-1.009.506-1.806.506-1.7 0-2.338-1.143-2.338-3.241v-8.767h-1.089v-2.231h1.09v-4.197l2.257-1.222v5.419h1.966v2.231H58.64v8.501c0 .85.266 1.249.77 1.249.532 0 .877-.16 1.356-.478" transform="translate(-458.000000, -134.000000) translate(458.000000, 134.000000)"/>
                <path fill="#FF4722" d="M30.374 23.772c-.366 0-.71.142-.969.402l-3.36 3.36c-3.768 3.768-4.752 9.53-2.45 14.338.198.425.416.822.65 1.186.225.373.472.73.763 1.103.325.417.674.813 1.037 1.175.527.527 1.09.999 1.672 1.4.355.257.724.49 1.14.717.4.224.807.42 1.248.602 1.542.638 3.17.962 4.839.962 3.368 0 6.53-1.307 8.903-3.68L57.88 31.3c2.376-2.374 3.684-5.535 3.684-8.901 0-3.367-1.308-6.528-3.683-8.901-2.374-2.374-5.535-3.681-8.9-3.681-3.368 0-6.53 1.307-8.903 3.68l-.906.907c-.534.534-.535 1.403 0 1.938.258.26.602.403.97.403.366 0 .71-.143.97-.402l.908-.908c1.855-1.855 4.327-2.877 6.961-2.877 2.634 0 5.106 1.022 6.962 2.877 3.84 3.84 3.84 10.088 0 13.927L41.91 43.4c-1.862 1.858-4.336 2.881-6.966 2.881-.69 0-1.387-.074-2.072-.22-.532-.112-1.065-.273-1.583-.48-.491-.197-.942-.42-1.38-.683-.7-.416-1.349-.92-1.926-1.498-.422-.422-.8-.874-1.12-1.345-.285-.402-.544-.842-.764-1.298-.23-.464-.426-.965-.579-1.482-1.044-3.483-.1-7.24 2.463-9.802l3.36-3.36c.524-.525.532-1.386.018-1.92-.258-.267-.603-.416-.974-.42h-.013m4.57 26.42c-1.824 0-3.603-.354-5.287-1.051-.484-.2-.932-.416-1.37-.66-.454-.25-.864-.507-1.248-.786-.63-.434-1.248-.951-1.825-1.528-.397-.397-.778-.829-1.132-1.284-.32-.41-.593-.804-.835-1.204-.253-.395-.496-.838-.714-1.304-2.515-5.252-1.438-11.552 2.681-15.671l3.36-3.36c.488-.488 1.133-.754 1.824-.746.689.006 1.33.283 1.809.779.955.992.94 2.59-.033 3.565l-3.361 3.36c-2.257 2.257-3.088 5.567-2.167 8.637.135.455.305.892.508 1.301.194.403.42.786.673 1.143.286.42.616.815.986 1.185.509.51 1.08.953 1.697 1.32.388.232.785.428 1.216.603.453.18.921.322 1.388.42.608.13 1.222.194 1.83.194 2.316 0 4.496-.9 6.136-2.537L55.11 28.532c3.382-3.382 3.382-8.885 0-12.266-1.633-1.634-3.81-2.534-6.13-2.534s-4.498.9-6.132 2.534l-.908.908c-.48.48-1.12.746-1.8.746h-.001c-.68 0-1.32-.267-1.801-.748-.991-.993-.99-2.607.002-3.599l.906-.906c2.595-2.595 6.052-4.025 9.733-4.025 3.68 0 7.135 1.43 9.73 4.025 2.597 2.595 4.027 6.051 4.027 9.732 0 3.68-1.43 7.136-4.027 9.732L44.678 46.167c-2.596 2.595-6.052 4.024-9.734 4.024" transform="translate(-458.000000, -134.000000) translate(458.000000, 134.000000)"/>
                <path fill="#8736C1" d="M27.708 15.678c-3.365 0-6.525 1.307-8.899 3.68L4.977 33.192C.07 38.098-.116 46.08 4.562 50.981c2.397 2.513 5.633 3.897 9.11 3.897 3.368 0 6.53-1.307 8.904-3.68l.91-.911c.259-.259.401-.603.401-.969s-.142-.71-.401-.969c-.534-.534-1.403-.534-1.937 0l-.911.911c-1.858 1.858-4.332 2.881-6.966 2.881-2.691 0-5.204-1.064-7.074-2.996-3.717-3.838-3.593-10.107.276-13.975l13.873-13.873c1.856-1.856 4.328-2.878 6.961-2.878.687 0 1.383.074 2.069.22.522.109 1.056.27 1.585.479.484.19.95.42 1.385.68.7.416 1.349.92 1.927 1.499.417.416.794.868 1.122 1.342.288.412.545.85.762 1.3.224.453.42.95.58 1.473 1.046 3.488.101 7.246-2.464 9.812l-3.403 3.403c-.534.533-.534 1.402 0 1.936.258.26.602.402.968.402.37-.018.71-.142.97-.4l3.403-3.404c3.768-3.768 4.753-9.532 2.45-14.342-.195-.408-.415-.809-.654-1.192-.23-.379-.485-.744-.758-1.09-.328-.42-.676-.816-1.038-1.178-.528-.528-1.09-.999-1.672-1.4-.356-.257-.725-.49-1.14-.716-.412-.227-.833-.43-1.253-.603-1.538-.638-3.166-.962-4.839-.962M13.672 56.053c-3.802 0-7.339-1.513-9.96-4.26-5.115-5.361-4.92-14.078.434-19.432L17.98 18.529c2.595-2.596 6.05-4.025 9.73-4.025 1.828 0 3.607.353 5.287 1.05.46.19.92.412 1.37.659.457.25.867.508 1.251.787.63.434 1.247.95 1.825 1.528.397.396.777.828 1.133 1.284.3.381.58.785.833 1.198.259.415.5.855.714 1.302 2.517 5.258 1.44 11.56-2.68 15.68l-3.403 3.403c-.48.48-1.12.745-1.799.745h-.001c-.68 0-1.32-.266-1.8-.747-.99-.992-.99-2.606.002-3.597l3.402-3.403c2.26-2.26 3.092-5.57 2.171-8.64-.14-.459-.312-.897-.512-1.298-.192-.399-.417-.782-.671-1.146-.29-.418-.62-.815-.988-1.182-.509-.51-1.08-.953-1.697-1.32-.382-.228-.79-.43-1.216-.597-.466-.184-.935-.326-1.395-.421-.608-.13-1.222-.196-1.827-.196-2.32 0-4.497.9-6.13 2.534L7.704 36c-3.418 3.418-3.535 8.948-.263 12.328 1.648 1.702 3.86 2.639 6.231 2.639 2.32 0 4.499-.901 6.135-2.538l.911-.91c.48-.48 1.12-.746 1.8-.746.679 0 1.317.265 1.798.746.48.48.746 1.12.746 1.799 0 .68-.265 1.32-.746 1.8l-.91.91c-2.596 2.595-6.052 4.025-9.734 4.025" transform="translate(-458.000000, -134.000000) translate(458.000000, 134.000000)"/>
                <g transform="translate(-458.000000, -134.000000) translate(458.000000, 134.000000) translate(27.949097, 0.000000)">
                    <mask id="k425lpmnip" fill="#fff">
                        <use xlink:href="#wjqu06l6ko"/>
                    </mask>
                    <path fill="#8736C1" d="M1.576 1.174c-.221 0-.401.18-.401.402v7.998c0 .221.18.401.4.401.222 0 .402-.18.402-.401V1.576c0-.221-.18-.402-.401-.402zm0 9.976C.707 11.15 0 10.443 0 9.574V1.576C0 .707.707 0 1.576 0c.87 0 1.576.707 1.576 1.576v7.998c0 .869-.707 1.576-1.576 1.576z" mask="url(#k425lpmnip)"/>
                </g>
                <path fill="#8736C1" d="M21.04 6.021c-.107 0-.208.042-.284.118-.076.076-.118.177-.118.284 0 .107.042.208.118.284l3.44 3.44c.153.152.417.152.568 0 .157-.156.157-.41 0-.567l-3.44-3.441c-.076-.076-.177-.118-.284-.118m3.44 5.418c-.42 0-.816-.164-1.114-.461l-3.44-3.44c-.298-.298-.462-.694-.462-1.115 0-.421.164-.817.462-1.114.297-.298.693-.462 1.114-.462.421 0 .817.164 1.114.462l3.44 3.44c.616.615.616 1.615.001 2.229-.298.297-.694.461-1.114.461M38.01 6.021c-.107 0-.208.042-.283.118l-3.441 3.44c-.157.157-.157.412 0 .568.152.152.416.152.567 0l3.441-3.44c.076-.076.118-.177.118-.284 0-.107-.042-.208-.118-.284-.076-.076-.177-.118-.284-.118m-3.44 5.418c-.421 0-.817-.164-1.115-.461-.614-.614-.614-1.614 0-2.229l3.441-3.44c.298-.298.693-.462 1.114-.462.421 0 .817.164 1.115.462.297.297.461.693.461 1.114 0 .42-.164.817-.461 1.114l-3.441 3.44c-.298.298-.693.462-1.114.462" transform="translate(-458.000000, -134.000000) translate(458.000000, 134.000000)"/>
                <path fill="#FF4722" d="M32.708 54.3c-.222 0-.402.18-.402.402V62.7c0 .22.18.401.402.401.22 0 .401-.18.401-.401v-7.998c0-.222-.18-.402-.401-.402m0 9.976c-.87 0-1.576-.707-1.576-1.576v-7.998c0-.87.707-1.576 1.576-1.576.869 0 1.576.707 1.576 1.576V62.7c0 .869-.707 1.576-1.576 1.576M37.752 54.01c-.107 0-.208.042-.284.118-.075.076-.117.177-.117.284 0 .107.042.208.117.284l3.441 3.44c.156.157.411.157.568 0 .156-.156.156-.41 0-.567l-3.441-3.44c-.076-.076-.177-.118-.284-.118m3.44 5.417c-.403 0-.806-.154-1.113-.46l-3.441-3.442c-.298-.297-.462-.693-.462-1.114 0-.42.164-.817.462-1.114.297-.298.693-.462 1.114-.462.421 0 .817.164 1.114.462l3.441 3.44c.615.615.615 1.615 0 2.23-.307.306-.71.46-1.114.46M23.939 58.137c.156.156.411.156.567 0l3.441-3.441c.076-.076.118-.177.118-.284 0-.107-.042-.208-.118-.284-.152-.152-.416-.151-.567 0l-3.441 3.44c-.157.157-.157.412 0 .569m.284 1.29c-.404 0-.807-.153-1.115-.46-.614-.614-.614-1.614 0-2.229l3.441-3.44c.298-.298.693-.462 1.114-.462.421 0 .817.164 1.115.462.297.297.461.693.461 1.114 0 .42-.164.817-.461 1.114l-3.441 3.441c-.307.307-.71.46-1.114.46" transform="translate(-458.000000, -134.000000) translate(458.000000, 134.000000)"/>
            </g>
        </g>
    </g>
</svg>
