<svg xmlns="http://www.w3.org/2000/svg" width="45" height="56" viewBox="0 0 45 56">
    <g fill="none" fill-rule="evenodd">
        <g>
            <g>
                <path fill="#FFF" d="M22.184 23.793l2.646 5.918 1.007 1.273s.63.063.945.063c.315 0 1.26-.19 1.26-.19l2.016-.892 8.126-3.945.756-1.145-.063-1.146-1.827-4.009-2.645-5.41-2.268-5.28-2.142-4.965-7.055-2.672 2.456 5.663L26.53 9.92l-4.787 13.49.44.383z" transform="translate(-345 -10839) translate(345 10839)"/>
                <path fill="#8736C1" d="M30.184 17.302L25.081 19.72 24.2 17.938 26.09 12.974 27.79 12.147z" transform="translate(-345 -10839) translate(345 10839)"/>
                <path fill="#F04C2C" d="M17.774 31.747c-.063 0-.063 0 0 0-.063 0-.063 0 0 0M32.648 22.468l.057-.027-.057.027z" transform="translate(-345 -10839) translate(345 10839)"/>
                <path fill="#8736C1" d="M39.318 22.965l-8.63-18.518c-.315-.636-.819-1.145-1.449-1.336L23.13.883c.062 0 .062.064.062.128.064.063.064.127.127.127 0 .064.063.064.063.127.063.128.125.255.189.382l.189.318h.062l5.103 1.91c.441.127.756.445.945.827L25.838 6.61l1.07 2.354c.19.446.252.891.19 1.4l.818 1.782 4.41-2.1 2.394 5.155-4.41 2.1 2.394 5.154.063-.063 4.346-2.037 1.45 3.055c.377.89.062 1.909-.82 2.29l-2.834 1.337-2.142-4.645-.063.063-5.04 2.418 2.142 4.646-2.205 1.082c-.882.382-1.89.064-2.33-.828l-1.45-3.054 3.654-1.846-2.394-5.154-1.89.954-1.385 3.564 1.323 2.8 1.449 3.055c.44.954 1.386 1.527 2.33 1.527.378 0 .756-.064 1.134-.255l10.142-4.9c1.197-.636 1.764-2.163 1.134-3.5" transform="translate(-345 -10839) translate(345 10839)"/>
                <path fill="#FFF" d="M15.947 18.829l-1.575-.573-.693 1.273 1.702.573c.503.19.945.063 1.133-.446.127-.382-.126-.7-.567-.827" transform="translate(-345 -10839) translate(345 10839)"/>
                <path stroke="#FF47FF" d="M19.979 3.938c-.567 0-1.008.446-1.008 1.018 0 .573.441 1.018 1.008 1.018.504 0 1.008-.445 1.008-1.018 0-.572-.441-1.018-1.008-1.018z" transform="translate(-345 -10839) translate(345 10839)"/>
                <path fill="#FFF" d="M14.498 21.82l-1.7-.573-.882 1.527 1.764.637c.567.19 1.133.063 1.385-.637.127-.381 0-.763-.567-.954" transform="translate(-345 -10839) translate(345 10839)"/>
                <path fill="#FF47FF" d="M17.774 31.747c.315-.064.567-.19.82-.382-.127.064-.19.128-.316.191-.189.127-.378.191-.504.191" transform="translate(-345 -10839) translate(345 10839)"/>
                <path fill="#F04C2C" d="M26.09 10.62l-1.071 2.736-1.26 3.246-1.701 4.454-.378.955-.189.573-.19.572-.377.891-2.205 5.727c-.189.446-.504.764-.945.955-.44.19-.882.19-1.322 0L5.995 26.656c-.442-.19-.757-.509-.945-.954-.19-.446-.19-.891 0-1.337l7.307-19.09c.189-.446.504-.764.882-.955l5.102-2.291.567-.255 1.071-.445.252-.127.315-.128c.252-.127.44-.127.693-.127.189 0 .441.064.63.127.315.128.567.319.756.573.063.127.126.191.189.318l3.212 7.319c.19.445.19.89.064 1.336m.755-1.591l-1.07-2.355-2.016-4.709-.19-.381-.188-.382c0-.064-.063-.064-.063-.128-.063-.063-.063-.127-.127-.127 0 0-.062-.063-.062-.127-.253-.255-.568-.446-.883-.636-.63-.255-1.322-.255-1.89.063l-.63.318-3.15 1.4-.124.064-3.465 1.527c-.63.255-1.135.764-1.386 1.464l-7.37 19.09c-.253.637-.253 1.337.062 2.037.253.637.757 1.146 1.45 1.4l3.716 1.464 6.803 2.609c.315.127.63.19.945.19.19 0 .378 0 .504-.063h.063c.19-.063.315-.127.504-.19.126-.064.189-.128.315-.192.378-.254.756-.7.945-1.145l2.268-5.982 1.323-3.564 1.07-2.736 1.89-4.964.693-1.718.063-.19.063-.128c.063-.19.126-.382.126-.509.063-.51 0-.955-.189-1.4" transform="translate(-345 -10839) translate(345 10839)"/>
                <path fill="#FFF" d="M19.034 20.038c-.252.891-1.07 1.528-2.016 1.528.441.509.567 1.272.315 1.972-.63 1.782-2.52 2.355-4.283 1.718l-4.095-1.4c-.063 0-.126-.063-.126-.127-.063-.063-.063-.127 0-.19l4.158-7.637c.063-.127.189-.127.252-.127l3.59 1.272c1.89.7 2.646 1.719 2.205 2.991m6.992-10.754l-3.212-7.318c-.063-.128-.126-.191-.19-.319-.188-.254-.44-.445-.755-.572-.19-.064-.441-.128-.63-.128-.252 0-.441 0-.693.128l-.315.127-.252.127-1.07.446-.568.254L13.24 4.32c-.378.191-.693.51-.882.955L5.05 24.365c-.19.446-.19.891 0 1.337.189.445.504.764.944.954l10.457 4.073c.441.191.882.191 1.323 0 .441-.19.756-.509.945-.954l2.205-5.728.378-.89.189-.573.189-.573.378-.955 1.7-4.454 1.26-3.246 1.071-2.736c.126-.445.126-.89-.063-1.336" transform="translate(-345 -10839) translate(345 10839)"/>
                <path fill="#F04C2C" d="M16.514 19.656c-.189.51-.63.637-1.133.446l-1.701-.573.693-1.273 1.574.573c.441.127.693.446.567.827m-1.448 3.119c-.252.7-.82.827-1.386.636l-1.764-.636.882-1.528 1.7.573c.568.19.694.573.568.955m1.763-5.728l-3.59-1.272c-.063 0-.19 0-.252.127l-4.158 7.636c-.063.064-.063.127 0 .191 0 .064.063.127.126.127l4.095 1.4c1.764.637 3.653.064 4.283-1.718.252-.7.126-1.463-.315-1.973.945 0 1.764-.636 2.016-1.527.441-1.273-.315-2.29-2.205-2.99" transform="translate(-345 -10839) translate(345 10839)"/>
                <path stroke="#F04C2C" d="M18.971 4.956c0-.572.44-1.018 1.008-1.018.567 0 1.008.446 1.008 1.018 0 .573-.504 1.018-1.008 1.018-.567 0-1.008-.445-1.008-1.018z" transform="translate(-345 -10839) translate(345 10839)"/>
                <path fill="#000" d="M5.691 38.963c0-.393-.324-.572-.767-.572H3.34l-.227 1.335h1.68c.53 0 .889-.278.889-.763h.01zm-.373 3.226c0-.375-.239-.668-.838-.668H2.812l-.287 1.652h1.747c.583 0 1.037-.304 1.037-.984h.01zm2.294-.011c0 1.767-1.513 2.851-3.301 2.851H.198c-.059.001-.115-.025-.154-.071-.037-.047-.052-.108-.04-.167L1.4 36.702c.014-.096.097-.168.194-.166h3.572c1.909 0 2.88.69 2.88 1.977.02.886-.52 1.685-1.343 1.989.587.344.937.99.91 1.676zM9.28 38.658h1.764c.06-.001.116.025.155.071.037.047.052.108.04.166l-.595 3.379c-.022.13-.034.26-.035.393 0 .45.239.655.6.655.455 0 .695-.22.84-1.019l.61-3.477c.016-.098.098-.17.195-.168h1.747c.06-.001.115.025.153.07.037.046.052.105.042.164l-1.037 5.97c-.015.097-.098.168-.194.167h-1.748c-.059.002-.116-.025-.154-.072-.037-.046-.053-.107-.04-.166l.031-.186c-.413.346-.928.54-1.464.557-1.151 0-1.811-.589-1.811-1.855.01-.322.042-.643.097-.96l.617-3.522c.014-.094.093-.164.186-.167M22.21 45.03c-.06 0-.117-.026-.155-.072-.038-.047-.053-.108-.04-.167l.594-3.378c.025-.14.04-.283.047-.426 0-.473-.265-.618-.6-.618-.42 0-.673.255-.804 1.019l-.608 3.474c-.015.097-.098.168-.194.167h-1.79c-.06.001-.117-.025-.154-.071-.038-.047-.053-.108-.04-.167l.593-3.378c.021-.13.033-.261.036-.392 0-.462-.24-.645-.583-.645-.421 0-.672.244-.804 1.02l-.615 3.466c-.015.097-.097.168-.195.167h-1.747c-.06.001-.116-.025-.154-.071-.038-.047-.052-.108-.04-.167l1.046-5.966c.015-.096.098-.168.195-.167h1.747c.06-.001.116.025.154.072.038.046.053.107.04.165l-.03.187c.447-.344.99-.539 1.553-.558.597-.025 1.17.248 1.534.73.512-.456 1.166-.714 1.848-.73 1.223 0 1.834.62 1.834 1.822-.004.317-.035.634-.094.946l-.649 3.57c-.015.097-.098.168-.194.167h-1.732zM35.975 41.11c.012-.643-.179-.97-.815-.97-.492 0-.768.338-.948.97h1.763zm1.849-.024c0 .415-.051.83-.15 1.233-.022.09-.103.152-.194.15h-3.484c-.048.704.434.981 1.02 1.018.704.061 1.41-.07 2.047-.38.066-.036.148-.028.208.02.06.046.086.125.069.2l-.194 1.127c-.009.064-.05.12-.109.149-.703.366-1.481.558-2.272.56-1.763 0-2.718-1.104-2.718-2.768 0-2.195 1.32-3.87 3.264-3.87 1.731 0 2.513 1.03 2.513 2.56zM43.613 39.012l-.714 1.767c-.023.061-.075.107-.139.121-.063.015-.129-.003-.176-.048-.225-.206-.516-.322-.82-.328-.502 0-.766.253-.898 1.03l-.571 3.308c-.015.097-.097.168-.194.167h-1.748c-.059.001-.116-.025-.154-.071-.037-.047-.052-.108-.04-.167l1.047-5.966c.014-.096.097-.168.194-.167h1.748c.06-.002.117.025.155.073.039.047.053.109.039.169l-.025.135c.361-.315.818-.495 1.294-.51.325-.008.643.076.921.245.082.049.117.151.081.242M29.368 41.072c0-.518-.132-.76-.515-.76-.274.023-.535.128-.751.3l-.43 2.404c.197.207.469.324.752.326.526-.002.944-.931.944-2.27m2.159-.364c0 2.608-1.062 4.417-2.625 4.417-.543-.01-1.067-.204-1.486-.554l-.298 1.742c-.014.085-.078.152-.162.165l-1.803.322c-.065.014-.131-.007-.178-.054-.046-.047-.065-.115-.052-.18l1.344-7.743c.015-.096.097-.166.194-.165h1.747c.06-.001.115.025.153.07.037.046.052.105.042.164l-.034.212c.38-.349.866-.553 1.377-.58 1.125 0 1.78.749 1.78 2.184M10.146 54.14H9.49v-1.948c0-.303.007-1.008.013-1.194-.054.193-.26.898-.368 1.25l-.616 2.023-.615-2.023c-.109-.352-.315-1.057-.369-1.25.007.186.014.89.014 1.194v1.948H6.92v-4.834h.704l.615 2.01c.089.29.253.883.294 1.056.048-.18.212-.794.3-1.077l.616-1.989h.697v4.834zM12.552 53.276v-.724c-.157-.097-.294-.138-.54-.138-.308 0-.52.179-.52.573 0 .428.172.628.452.628s.485-.124.608-.339zm.656.863h-.656v-.248c-.184.215-.417.325-.738.325-.527 0-.978-.4-.978-1.216 0-.787.486-1.187 1.17-1.187.218 0 .402.048.546.118v-.353c0-.352-.116-.517-.465-.517-.225 0-.43.061-.703.227l-.28-.504c.327-.221.703-.345 1.031-.345.772 0 1.073.276 1.073 1.084v2.616zM15.765 50.563l-.157.663c-.13-.076-.254-.11-.459-.11-.184 0-.362.062-.512.282v2.742h-.656v-3.625h.656v.248c.144-.186.37-.324.636-.324.225 0 .382.056.492.124M18.601 54.14h-.718l-.594-1.692-.355.573v1.119h-.657v-4.688l.657-.345v2.174c0 .228-.007.6-.014.78.068-.144.204-.393.293-.56l.54-.986h.745l-.772 1.256.875 2.369zM20.768 51.979c-.02-.54-.24-.918-.609-.918-.334 0-.547.296-.601.918h1.21zm.67.338c0 .062 0 .166-.007.235h-1.88c.041.717.294 1.029.677 1.029.3 0 .444-.077.65-.27l.402.422c-.246.275-.608.483-1.066.483-.854 0-1.32-.732-1.32-1.872 0-1.27.52-1.905 1.28-1.905.717 0 1.263.615 1.263 1.878zM23.556 53.436l-.075.614c-.156.103-.341.166-.587.166-.48 0-.69-.339-.69-.926v-2.154h-.39v-.621h.39v-1.057l.656-.352v1.409h.69v.621h-.69v2.092c0 .256.095.359.272.359.172 0 .33-.069.424-.151M25.983 52.4c0-.946-.177-1.34-.554-1.34-.219 0-.417.138-.533.332v1.877c.144.222.363.325.567.325.343 0 .52-.338.52-1.194m.663-.035c0 1.209-.417 1.85-1.128 1.85-.253 0-.444-.082-.622-.268v1.18l-.657.345v-4.957h.657v.241c.171-.186.349-.317.67-.317.649 0 1.08.484 1.08 1.926M27.992 54.14L27.337 54.14 27.337 49.452 27.992 49.107zM30.343 53.276v-.724c-.156-.097-.293-.138-.54-.138-.307 0-.52.179-.52.573 0 .428.172.628.452.628s.486-.124.608-.339zm.657.863h-.657v-.248c-.184.215-.417.325-.738.325-.526 0-.977-.4-.977-1.216 0-.787.485-1.187 1.169-1.187.218 0 .403.048.546.118v-.353c0-.352-.116-.517-.464-.517-.226 0-.43.061-.704.227l-.28-.504c.328-.221.703-.345 1.031-.345.773 0 1.074.276 1.074 1.084v2.616zM33.946 53.574c-.24.38-.527.642-1.046.642-.746 0-1.25-.601-1.25-1.872 0-1.27.477-1.905 1.277-1.905.52 0 .807.283 1.011.635l-.47.415c-.185-.297-.329-.415-.56-.415-.418 0-.596.463-.596 1.257 0 .766.184 1.25.615 1.25.219 0 .37-.118.547-.4l.472.393zM36.25 51.979c-.022-.54-.24-.918-.61-.918-.334 0-.546.296-.601.918h1.21zm.669.338c0 .062 0 .166-.007.235h-1.88c.042.717.294 1.029.677 1.029.3 0 .444-.077.65-.27l.402.422c-.245.275-.608.483-1.066.483-.854 0-1.319-.732-1.319-1.872 0-1.27.52-1.905 1.278-1.905.718 0 1.265.615 1.265 1.878z" transform="translate(-345 -10839) translate(345 10839)"/>
            </g>
        </g>
    </g>
</svg>
