<svg xmlns="http://www.w3.org/2000/svg" width="60" height="60" viewBox="0 0 60 60">
    <g fill="none" fill-rule="evenodd">
        <circle cx="30" cy="30" r="30" fill="#4A3B8F"/>
        <g>
            <path fill="#EBEAF4" d="M12.375 28.875L2.063 28.875 2.063 4.125 12.375 4.125z" transform="translate(13.5 13.5)"/>
            <path fill="#FFF" d="M30.938 28.875L12.375 28.875 12.375 0 30.938 0z" transform="translate(13.5 13.5)"/>
            <path fill="#21B2D1" d="M6.188 8.25L4.125 8.25 4.125 6.188 6.188 6.188z" transform="translate(13.5 13.5)"/>
            <path fill="#40C9E7" d="M20.625 21.656L15.469 21.656 15.469 19.594 20.625 19.594zM27.844 21.656L22.688 21.656 22.688 19.594 27.844 19.594zM20.625 17.531L15.469 17.531 15.469 15.469 20.625 15.469zM27.844 17.531L22.688 17.531 22.688 15.469 27.844 15.469zM20.625 13.406L15.469 13.406 15.469 11.344 20.625 11.344zM27.844 13.406L22.688 13.406 22.688 11.344 27.844 11.344zM20.625 9.281L15.469 9.281 15.469 7.219 20.625 7.219zM27.844 9.281L22.688 9.281 22.688 7.219 27.844 7.219zM20.625 5.156L15.469 5.156 15.469 3.094 20.625 3.094zM27.844 5.156L22.688 5.156 22.688 3.094 27.844 3.094z" transform="translate(13.5 13.5)"/>
            <path fill="#21B2D1" d="M10.313 8.25L8.25 8.25 8.25 6.188 10.313 6.188zM6.188 12.375L4.125 12.375 4.125 10.313 6.188 10.313zM10.313 12.375L8.25 12.375 8.25 10.313 10.313 10.313zM6.188 16.5L4.125 16.5 4.125 14.438 6.188 14.438zM10.313 16.5L8.25 16.5 8.25 14.438 10.313 14.438zM6.188 20.625L4.125 20.625 4.125 18.563 6.188 18.563zM10.313 20.625L8.25 20.625 8.25 18.563 10.313 18.563zM6.188 24.75L4.125 24.75 4.125 22.688 6.188 22.688zM10.313 24.75L8.25 24.75 8.25 22.688 10.313 22.688z" transform="translate(13.5 13.5)"/>
            <path fill="#353167" d="M24.75 28.875L18.563 28.875 18.563 24.75 24.75 24.75z" transform="translate(13.5 13.5)"/>
            <path fill="#638A3A" d="M33 33L0 33 0 30.938 33 30.938z" transform="translate(13.5 13.5)"/>
            <path fill="#81B44C" d="M0 30.938L2.063 28.875 30.938 28.875 33 30.938z" transform="translate(13.5 13.5)"/>
            <path fill="#8B88AA" d="M26.297 24.75L17.016 24.75 17.016 23.203 26.297 23.203z" transform="translate(13.5 13.5)"/>
            <path fill="#353167" d="M8.766 28.875L5.672 28.875 5.672 26.297 8.766 26.297z" transform="translate(13.5 13.5)"/>
        </g>
    </g>
</svg>
