<svg xmlns="http://www.w3.org/2000/svg" width="26" height="30" viewBox="0 0 26 30">
    <g fill="none" fill-rule="evenodd">
        <path fill="#F0F0F0" d="M25.513 8.24L23.34 0l-1.862 1.287c-1.92 1.327-4.412 1.361-6.365.09L13 0l-2.113 1.377c-1.953 1.271-4.446 1.237-6.364-.09L2.66 0 .487 8.24c-.731 2.773-.655 5.73.34 8.412.916 2.47 2.418 4.699 4.405 6.459L13 30l7.768-6.89c1.987-1.76 3.489-3.988 4.405-6.458.995-2.683 1.071-5.639.34-8.411"/>
        <path fill="#FF4722" fill-rule="nonzero" d="M13.085 21.198c2.538 0 4.032-1.512 4.032-3.978 0-1.764-1.026-2.664-2.124-2.97 1.044-.378 1.764-1.188 1.764-2.61 0-2.088-1.422-3.438-3.6-3.438-1.692 0-2.574.612-3.492 1.638l1.53 1.53c.648-.648 1.134-.936 1.818-.936 1.08 0 1.476.648 1.476 1.476 0 .9-.594 1.368-1.638 1.368h-.882v2.178h.864c1.17 0 2.016.54 2.016 1.818 0 1.026-.612 1.71-1.692 1.71-.846 0-1.476-.36-2.16-1.35l-1.782 1.26c.99 1.584 2.178 2.304 3.87 2.304z"/>
    </g>
</svg>
