<svg xmlns="http://www.w3.org/2000/svg" width="641" height="277" viewBox="0 0 641 277">
    <g fill="none">
        <path fill="#FF4722" stroke="#FF4722" d="M406.403.39c-61.9-.92-121.667 22.578-166.338 65.398C312.423 91.11 360.89 159.32 360.95 235.92v39.015h240.491c20.418 0 37.052-16.38 37.344-36.776C638.306 109.28 535.504 2.095 406.403.389z" transform="translate(1 1)"/>
        <path fill="#8736C1" stroke="#8736C1" d="M240.065 65.788c-20.199-7.076-41.496-10.505-62.897-10.127C78.74 57.313.533 139.5 0 237.945c.176 20.48 16.844 36.99 37.343 36.99h130.169V235.92c-.111-64.236 26.107-125.715 72.553-170.132h0z" transform="translate(1 1)"/>
        <path fill="#C33F72" stroke="#C33F72" d="M240.065 65.788c-46.446 44.417-72.664 105.896-72.553 170.132v39.015h193.545V235.92c-.076-76.627-48.592-144.846-120.992-170.132h0z" transform="translate(1 1)"/>
    </g>
</svg>
