<svg xmlns="http://www.w3.org/2000/svg" xmlns:xlink="http://www.w3.org/1999/xlink" width="288" height="74" viewBox="0 0 288 74">
    <defs>
        <filter id="d10wh23wea" width="105.1%" height="123.3%" x="-2.6%" y="-10%" filterUnits="objectBoundingBox">
            <feGaussianBlur in="SourceGraphic"/>
        </filter>
        <filter id="sljfznpjrb" width="108%" height="136.7%" x="-4%" y="-16.7%" filterUnits="objectBoundingBox">
            <feOffset dy="1" in="SourceAlpha" result="shadowOffsetOuter1"/>
            <feGaussianBlur in="shadowOffsetOuter1" result="shadowBlurOuter1" stdDeviation="3.5"/>
            <feComposite in="shadowBlurOuter1" in2="SourceAlpha" operator="out" result="shadowBlurOuter1"/>
            <feColorMatrix in="shadowBlurOuter1" values="0 0 0 0 0 0 0 0 0 0 0 0 0 0 0 0 0 0 0.228392701 0"/>
        </filter>
        <linearGradient id="e7s6u7h2vd" x1="50%" x2="50%" y1="0%" y2="100%">
            <stop offset="0%" stop-color="#FF4722"/>
            <stop offset="100%" stop-color="#8736C1"/>
        </linearGradient>
        <rect id="fqjepxazuc" width="274" height="60" x="0" y="0" rx="3.52"/>
    </defs>
    <g fill="none" fill-rule="evenodd">
        <g>
            <g>
                <g>
                    <g>
                        <g>
                            <g filter="url(#d10wh23wea)" transform="translate(-839 -895) translate(246 95) translate(0 206) translate(14 600) translate(586)">
                                <use fill="#000" filter="url(#sljfznpjrb)" xlink:href="#fqjepxazuc"/>
                                <use fill="#FFF" fill-opacity=".7" xlink:href="#fqjepxazuc"/>
                            </g>
                            <g transform="translate(-839 -895) translate(246 95) translate(0 206) translate(14 600) translate(586) translate(15 12)">
                                <rect width="34" height="34" x=".5" y=".5" fill="url(#e7s6u7h2vd)" rx="7"/>
                                <g fill="#FFF">
                                    <path d="M20.191 6c-.857.002-1.562.882-1.601 2l3.205-.014C21.748 6.873 21.045 6 20.19 6zM4.808 6c-.864.002-1.572.886-1.603 2H6.41c-.03-1.115-.738-2-1.602-2z" transform="translate(5.5 13.5)"/>
                                    <path d="M24.08 4.484c-.505-.556-2.793-1.405-4.25-1.638-.166-.026-.326-.084-.472-.171C13.166-.991 7.386-.53 1.727 1.9c-.214.09-.443.135-.673.135-.248-.003-.48.127-.614.343-.496.824-.756 5.529.236 5.578.236 0 .793.022 1.565.027.005-1.404 1.105-2.539 2.457-2.534C6.05 5.454 7.142 6.596 7.138 8c3.345 0 7.366 0 10.589-.02.036-1.373 1.116-2.468 2.44-2.472 1.322-.005 2.41 1.082 2.454 2.455h.898c.583-.046 1.44-.274 1.478-1.11.05-1.217-.44-1.844-.917-2.369zm-14.576-.98c0 .102-.08.186-.18.186H4.366c-.297 0-.538-.25-.538-.56v-.867c0-.24.146-.452.363-.53 1.661-.57 3.392-.893 5.14-.956.049-.002.096.017.131.052.035.035.054.084.053.134l-.011 2.54zm8.698.068c-1.587.108-4.574.118-7.742.118-.13 0-.236-.11-.236-.245V1.022c0-.135.105-.245.236-.245 2.732.061 6.046 1.123 7.864 2.219.11.069.166.203.138.334-.028.13-.132.228-.26.242z" transform="translate(5.5 13.5)"/>
                                </g>
                            </g>
                            <g fill="#000" fill-rule="nonzero">
                                <path d="M2.588 12V6.192c0-.535-.012-1.752-.015-2.35L2.572 3.6c.176.288.56.96.832 1.376L7.868 12h1.6V.8H7.836v6.097l.005.623.003.454c.004.53.008 1.034.008 1.242-.16-.288-.64-1.12-.928-1.584L2.668.8H.956V12h1.632zm12.784.176c1.28 0 2.16-.4 2.896-1.104l-.976-1.056c-.56.416-1.12.672-1.824.672-1.024 0-1.936-.688-2.112-2.304h5.552c.016-.176.048-.448.048-.752 0-2.272-1.152-4.208-3.536-4.208-2.176 0-3.68 1.536-3.68 4.384 0 2.784 1.664 4.368 3.632 4.368zm1.92-5.152h-3.904c.144-1.344.816-2.112 1.92-2.112 1.36 0 1.904.96 1.984 2.112zM24.14 12l1.12-4.224c.176-.64.352-1.408.432-1.808.08.4.256 1.152.432 1.792L27.26 12h1.408l2.336-8.4h-1.632l-.992 4.08c-.16.64-.32 1.424-.416 1.84-.096-.416-.272-1.168-.448-1.824L26.38 3.6h-1.328l-1.12 4.08c-.176.656-.368 1.424-.464 1.84-.08-.4-.256-1.2-.416-1.84L22.06 3.6h-1.632l2.304 8.4h1.408zm16.304.176c2.336 0 3.712-1.36 3.712-3.12 0-1.664-.768-2.496-3.248-3.392-2.24-.8-2.656-1.328-2.656-2.256 0-.88.64-1.648 2.176-1.648 1.12 0 1.872.368 2.688 1.04l.8-.976c-.944-.752-1.904-1.2-3.408-1.2-2.096 0-3.504 1.072-3.504 2.864 0 1.616.816 2.4 3.232 3.264 2.048.736 2.672 1.328 2.672 2.368 0 1.184-.928 1.92-2.416 1.92-1.152 0-2.128-.528-2.976-1.344l-.832.928c.88.896 2.24 1.552 3.76 1.552zm8.352 0c1.2 0 2.032-.56 2.624-1.2V12h1.2V6.144c0-1.952-1.136-2.72-2.944-2.72-1.088 0-2.08.272-2.816.672l.448.976c.688-.4 1.408-.64 2.288-.64 1.232 0 1.824.608 1.824 1.856v.992c-.496-.272-1.248-.48-2.096-.48-1.664 0-3.216.8-3.216 2.688 0 2.032 1.376 2.688 2.688 2.688zm.208-.976c-1.024 0-1.712-.544-1.712-1.792 0-1.056.736-1.648 1.968-1.648 1.024 0 1.616.176 2.16.48v1.696c-.512.704-1.328 1.264-2.416 1.264zm7.504.8V.336l-1.2.672V12h1.2zm5.696.176c1.264 0 2-.336 3.008-.976l-.56-.864c-.768.512-1.344.8-2.32.8-1.376 0-2.224-1.136-2.336-2.928h5.6c.032-.192.048-.368.048-.656 0-2.4-1.184-4.128-3.376-4.128-2 0-3.472 1.664-3.472 4.336 0 3.296 1.872 4.416 3.408 4.416zm2.32-4.944h-4.528c.144-1.872 1.008-2.768 2.256-2.768 1.472 0 2.176 1.136 2.272 2.768zM73.436 12V7.232h2.656l2.4 4.768h1.44l-2.464-4.864c1.6-.336 2.64-1.424 2.64-3.168 0-2.16-1.52-3.168-3.488-3.168h-4.432V12h1.248zm2.976-5.888h-2.976V1.936h3.136c1.488 0 2.288.704 2.288 2.08 0 1.408-.784 2.096-2.448 2.096zm8.992 6.064c1.264 0 2-.336 3.008-.976l-.56-.864c-.768.512-1.344.8-2.32.8-1.376 0-2.224-1.136-2.336-2.928h5.6c.032-.192.048-.368.048-.656 0-2.4-1.184-4.128-3.376-4.128-2 0-3.472 1.664-3.472 4.336 0 3.296 1.872 4.416 3.408 4.416zm2.32-4.944h-4.528c.144-1.872 1.008-2.768 2.256-2.768 1.472 0 2.176 1.136 2.272 2.768zm6.448 4.944c1.184 0 2-.448 2.704-1.168l-.72-.768c-.576.56-1.12.896-1.936.896-1.488 0-2.368-1.328-2.368-3.392 0-2.096 1.008-3.28 2.32-3.28.848 0 1.408.304 2.016.848l.72-.896c-.656-.576-1.52-.992-2.656-.992-1.76 0-3.616 1.312-3.616 4.416 0 2.928 1.696 4.336 3.536 4.336zm8 0c2.048 0 3.68-1.584 3.68-4.432 0-2.848-1.568-4.32-3.616-4.32s-3.68 1.536-3.68 4.384c0 2.848 1.568 4.368 3.616 4.368zm.032-1.04c-1.456 0-2.432-1.152-2.432-3.36s.976-3.312 2.432-3.312 2.448 1.104 2.448 3.312c0 2.208-.992 3.36-2.448 3.36zm7.056.864V7.072c0-1.6.656-2.544 1.824-2.544.56 0 .928.128 1.264.32l.304-1.216c-.288-.128-.688-.208-1.312-.208-.896 0-1.696.544-2.08 1.216V3.6h-1.2V12h1.2zm7.872.176c1.136 0 1.936-.56 2.528-1.2V12h1.2V.336l-1.2.672v3.536c-.592-.672-1.312-1.12-2.368-1.12-1.76 0-3.168 1.536-3.168 4.512 0 2.96 1.328 4.24 3.008 4.24zm.304-1.04c-1.328 0-2.128-1.104-2.128-3.216 0-2.256.688-3.456 2.08-3.456.992 0 1.808.56 2.272 1.264V9.92c-.592.736-1.328 1.216-2.224 1.216zm11.632.864V6.784h3.072V5.648h-3.072V1.936h5.328V.8h-6.576V12h1.248zm10.544.176c2.048 0 3.68-1.584 3.68-4.432 0-2.848-1.568-4.32-3.616-4.32s-3.68 1.536-3.68 4.384c0 2.848 1.568 4.368 3.616 4.368zm.032-1.04c-1.456 0-2.432-1.152-2.432-3.36s.976-3.312 2.432-3.312 2.448 1.104 2.448 3.312c0 2.208-.992 3.36-2.448 3.36zm8.752 1.04c1.056 0 1.84-.496 2.32-1.2V12h1.2V3.6h-1.2v4.912c0 1.84-.912 2.624-2.08 2.624-1.344 0-1.984-.816-1.984-2.624V3.6h-1.2v5.12c0 2.416 1.168 3.456 2.944 3.456zm7.376-.176V7.088c0-1.84.912-2.624 2.08-2.624 1.344 0 1.984.816 1.984 2.624V12h1.2V6.88c0-2.416-1.168-3.456-2.944-3.456-1.056 0-1.84.496-2.32 1.2V3.6h-1.2V12h1.2zm10.432.176c1.136 0 1.936-.56 2.528-1.2V12h1.2V.336l-1.2.672v3.536c-.592-.672-1.312-1.12-2.368-1.12-1.76 0-3.168 1.536-3.168 4.512 0 2.96 1.328 4.24 3.008 4.24zm.304-1.04c-1.328 0-2.128-1.104-2.128-3.216 0-2.256.688-3.456 2.08-3.456.992 0 1.808.56 2.272 1.264V9.92c-.592.736-1.328 1.216-2.224 1.216z" transform="translate(-839 -895) translate(246 95) translate(0 206) translate(14 600) translate(586) translate(66 23)"/>
                            </g>
                        </g>
                    </g>
                </g>
            </g>
        </g>
    </g>
</svg>
