<svg xmlns="http://www.w3.org/2000/svg" xmlns:xlink="http://www.w3.org/1999/xlink" width="288" height="76" viewBox="0 0 288 76">
    <defs>
        <filter id="zfow0znksa" width="105.1%" height="123%" x="-2.6%" y="-9.8%" filterUnits="objectBoundingBox">
            <feGaussianBlur in="SourceGraphic"/>
        </filter>
        <filter id="5flolfh9ab" width="108%" height="136.1%" x="-4%" y="-16.4%" filterUnits="objectBoundingBox">
            <feOffset dy="1" in="SourceAlpha" result="shadowOffsetOuter1"/>
            <feGaussianBlur in="shadowOffsetOuter1" result="shadowBlurOuter1" stdDeviation="3.5"/>
            <feComposite in="shadowBlurOuter1" in2="SourceAlpha" operator="out" result="shadowBlurOuter1"/>
            <feColorMatrix in="shadowBlurOuter1" values="0 0 0 0 0 0 0 0 0 0 0 0 0 0 0 0 0 0 0.228392701 0"/>
        </filter>
        <rect id="ari753ozrc" width="274" height="60.918" x="0" y="0" rx="3.52"/>
    </defs>
    <g fill="none" fill-rule="evenodd">
        <g>
            <g>
                <g>
                    <g>
                        <g filter="url(#zfow0znksa)" transform="translate(-422 -406) translate(22 95) translate(0 205) translate(407 112.949)">
                            <use fill="#000" filter="url(#5flolfh9ab)" xlink:href="#ari753ozrc"/>
                            <use fill="#FFF" fill-opacity=".7" xlink:href="#ari753ozrc"/>
                        </g>
                        <path fill="#000" fill-rule="nonzero" d="M23.617 39.597c.39 0 .723-.139.996-.417l5.977-6.068c.273-.277.41-.614.41-1.01 0-.397-.137-.735-.41-1.012l-6.211-6.306c-.274-.278-.606-.417-.996-.417h-5.977c-.39 0-.722.14-.996.417-.273.277-.41.615-.41 1.011v6.068c0 .397.137.734.41 1.011l6.211 6.306c.274.278.606.417.996.417zm-4.336-10.47c-.39 0-.722-.14-.996-.417-.273-.277-.41-.615-.41-1.011 0-.397.137-.734.41-1.012.274-.277.606-.416.996-.416s.723.139.996.416c.274.278.41.615.41 1.012 0 .396-.136.734-.41 1.011-.273.278-.605.417-.996.417z" transform="translate(-422 -406) translate(22 95) translate(0 205) translate(407 112.949)"/>
                        <g fill-rule="nonzero">
                            <path fill="#282426" fill-opacity=".632" d="M7 17.306V15.32H1.956v-2.451h2.808v-1.973H1.956V9.14H6.79V7.153H0v10.153h7zm5.48 0c2.445 0 3.52-1.265 3.52-3.136 0-2.137-1.574-2.672-2.995-3.037-1.42-.366-1.804-.563-1.804-1.182 0-.435.32-.885 1.28-.885.819 0 1.459.365 2.035 1.012L15.808 8.7c-.845-.97-1.868-1.547-3.263-1.547-1.766 0-3.2 1.097-3.2 2.883 0 1.94 1.152 2.517 2.803 2.939 1.69.422 1.996.703 1.996 1.336 0 .745-.499 1.069-1.56 1.069-.858 0-1.664-.324-2.291-1.125L9 15.52c.678 1.097 1.984 1.786 3.48 1.786zm9.924 0V9.155H25V7.153h-7v2.002h2.596v8.151h1.808zm7.596 0V7.153h-2v10.153h2zm7.48 0l1.95-4.41c.248-.567.536-1.276.674-1.645 0 .383-.028 1.645-.028 2.184v3.644H42V7.153h-1.896l-1.938 4.495c-.247.567-.522 1.29-.645 1.66-.124-.355-.413-1.107-.66-1.66l-2.006-4.495H33v9.926h1.882v-3.644c0-.539-.027-1.801-.027-2.184.137.369.426 1.078.673 1.645l1.951 4.41zm8.535 0l.739-2.263h3.439l.738 2.263H53L49.427 7.153H47.6L44 17.306h2.015zM50 13.245h-2l.563-1.64c.174-.528.35-1.07.437-1.406.087.336.263.878.438 1.407L50 13.245zm8.404 4.061V9.155H61V7.153h-7v2.002h2.596v8.151h1.808zm11.596 0V15.32h-5.044v-2.451h2.808v-1.973h-2.808V9.14h4.834V7.153H63v10.153h7zm5.949 0c2.54 0 5.051-1.508 5.051-5.076 0-3.714-2.088-5.077-4.91-5.077H73v10.153h2.949zm.026-2.03H75V9.184h1.046c2.092 0 2.954 1.01 2.954 3.046 0 1.821-.947 3.046-3.025 3.046zm16.49 2.03L96 7.153h-2.172l-1.831 5.874c-.185.595-.37 1.291-.454 1.668-.086-.362-.284-1.102-.469-1.668L89.2 7.153H87l3.535 10.153h1.93zm5.55 0l.739-2.263h3.439l.738 2.263H105l-3.573-10.153H99.6L96 17.306h2.015zM101 13.245h-2l.563-1.64c.174-.528.35-1.07.437-1.406.088.336.263.878.438 1.407l.562 1.639zm13 4.061v-2.001h-5.004V7.153H107v10.153h7zm4.993 0c2.511 0 4.007-1.67 4.007-4.57V7.154h-1.975v5.612c0 1.6-.776 2.585-2.032 2.585s-2.018-1.014-2.018-2.613V7.153H115v5.612c0 2.913 1.608 4.541 3.993 4.541zm14.007 0V15.32h-5.044v-2.451h2.808v-1.973h-2.808V9.14h4.834V7.153H126v10.153h7z" transform="translate(-422 -406) translate(22 95) translate(0 205) translate(407 112.949) translate(41 21.276)"/>
                            <path fill="#000" d="M148.27 17.784v-1.74c1.78-.48 2.82-1.86 2.82-3.74 0-2.36-1.06-3.22-3.48-4.52-1.52-.82-2-1.24-2-2.08 0-.7.52-1.22 1.32-1.22.96 0 1.4.32 2.22 1.24l1.66-1.56c-.72-.94-1.5-1.58-2.54-1.84V.584h-2.52v1.74c-1.66.44-2.68 1.8-2.68 3.5 0 2.32 1.26 3.28 3.34 4.36 1.64.84 2.14 1.38 2.14 2.18 0 .94-.52 1.52-1.56 1.52-.84 0-1.74-.52-2.58-1.6l-1.7 1.72c.76.94 1.74 1.76 3.04 2.08v1.7h2.52zm8.02-1.38c2.82 0 4.48-1.68 4.48-4.42 0-1.96-1.14-2.96-2.36-3.3 1.16-.42 1.96-1.32 1.96-2.9 0-2.32-1.58-3.82-4-3.82-1.88 0-2.86.68-3.88 1.82l1.7 1.7c.72-.72 1.26-1.04 2.02-1.04 1.2 0 1.64.72 1.64 1.64 0 1-.66 1.52-1.82 1.52h-.98v2.42h.96c1.3 0 2.24.6 2.24 2.02 0 1.14-.68 1.9-1.88 1.9-.94 0-1.64-.4-2.4-1.5l-1.98 1.4c1.1 1.76 2.42 2.56 4.3 2.56zm10.7 0c2.94 0 4.38-1.9 4.38-4.4 0-1.84-.92-2.88-2-3.38.84-.46 1.46-1.4 1.46-2.66 0-2.32-1.32-4-3.84-4-2.52 0-3.84 1.68-3.84 4 0 1.26.66 2.24 1.46 2.66-1.08.5-2 1.54-2 3.38 0 2.5 1.44 4.4 4.38 4.4zm0-8.74c-1.02 0-1.56-.78-1.56-1.72s.4-1.72 1.56-1.72c1.16 0 1.56.78 1.56 1.72s-.54 1.72-1.56 1.72zm0 6.44c-1.24 0-1.98-.92-1.98-2.1 0-1.26.72-2.08 1.98-2.08s1.98.82 1.98 2.08c0 1.18-.74 2.1-1.98 2.1zm7.8 4.32l1.48-5.18h-2.86l-.26 5.18h1.64zm7.54-2.02c3.24 0 4.46-3.2 4.46-7.24 0-4.02-1.18-7.2-4.42-7.2-3.26 0-4.48 3.2-4.48 7.24 0 4.02 1.18 7.2 4.44 7.2zm.04-2.44c-1.36 0-1.94-1.64-1.94-4.8s.56-4.76 1.9-4.76c1.34 0 1.92 1.64 1.92 4.8s-.56 4.76-1.88 4.76zm10.52 2.44c3.24 0 4.46-3.2 4.46-7.24 0-4.02-1.18-7.2-4.42-7.2-3.26 0-4.48 3.2-4.48 7.24 0 4.02 1.18 7.2 4.44 7.2zm.04-2.44c-1.36 0-1.94-1.64-1.94-4.8s.56-4.76 1.9-4.76c1.34 0 1.92 1.64 1.92 4.8s-.56 4.76-1.88 4.76zm10.52 2.44c3.24 0 4.46-3.2 4.46-7.24 0-4.02-1.18-7.2-4.42-7.2-3.26 0-4.48 3.2-4.48 7.24 0 4.02 1.18 7.2 4.44 7.2zm.04-2.44c-1.36 0-1.94-1.64-1.94-4.8s.56-4.76 1.9-4.76c1.34 0 1.92 1.64 1.92 4.8s-.56 4.76-1.88 4.76z" transform="translate(-422 -406) translate(22 95) translate(0 205) translate(407 112.949) translate(41 21.276)"/>
                        </g>
                    </g>
                </g>
            </g>
        </g>
    </g>
</svg>
