<svg xmlns="http://www.w3.org/2000/svg" xmlns:xlink="http://www.w3.org/1999/xlink" width="288" height="74" viewBox="0 0 288 74">
    <defs>
        <filter id="uxusw67oea" width="105.1%" height="123.3%" x="-2.6%" y="-10%" filterUnits="objectBoundingBox">
            <feGaussianBlur in="SourceGraphic"/>
        </filter>
        <filter id="ohikdghj6b" width="108%" height="136.7%" x="-4%" y="-16.7%" filterUnits="objectBoundingBox">
            <feOffset dy="1" in="SourceAlpha" result="shadowOffsetOuter1"/>
            <feGaussianBlur in="shadowOffsetOuter1" result="shadowBlurOuter1" stdDeviation="3.5"/>
            <feComposite in="shadowBlurOuter1" in2="SourceAlpha" operator="out" result="shadowBlurOuter1"/>
            <feColorMatrix in="shadowBlurOuter1" values="0 0 0 0 0 0 0 0 0 0 0 0 0 0 0 0 0 0 0.228392701 0"/>
        </filter>
        <rect id="engt8f3knc" width="274" height="60" x="0" y="0" rx="3.52"/>
    </defs>
    <g fill="none" fill-rule="evenodd">
        <g>
            <g>
                <g>
                    <g>
                        <g filter="url(#uxusw67oea)" transform="translate(-241 -611) translate(246 95) translate(0 206) translate(2 316)">
                            <use fill="#000" filter="url(#ohikdghj6b)" xlink:href="#engt8f3knc"/>
                            <use fill="#FFF" fill-opacity=".7" xlink:href="#engt8f3knc"/>
                        </g>
                        <g fill-rule="nonzero">
                            <path fill="#282426" d="M45.845 16.807l.982-2.916h4.74l.998 2.916h1.896L50.145 4.509h-1.88L44 16.807h1.845zm5.18-4.568h-3.656l.947-2.81c.305-.914.728-2.32.864-2.847.135.527.61 1.95.897 2.829l.948 2.828zM59.537 17c1.609 0 2.489-.808 3.183-1.722l-1.117-1.142c-.694.756-1.185 1.142-2.015 1.142-1.388 0-2.133-1.3-2.133-3.11 0-1.879.813-3.056 2.082-3.056.796 0 1.44.352 2.167 1.124l1.033-1.282c-.83-1.019-1.845-1.563-3.149-1.563-2.166 0-3.893 1.774-3.893 4.83 0 2.882 1.676 4.779 3.842 4.779zm8.428 0c1.609 0 2.489-.808 3.183-1.722l-1.117-1.142c-.694.756-1.185 1.142-2.015 1.142-1.388 0-2.133-1.3-2.133-3.11 0-1.879.813-3.056 2.082-3.056.796 0 1.44.352 2.167 1.124l1.033-1.282c-.83-1.019-1.845-1.563-3.149-1.563-2.166 0-3.893 1.774-3.893 4.83 0 2.882 1.676 4.779 3.842 4.779zm6.262-10.61c.61 0 1.117-.528 1.117-1.16 0-.65-.508-1.177-1.117-1.177-.627 0-1.134.527-1.134 1.177 0 .632.507 1.16 1.134 1.16zm.863 10.417V7.584h-1.743v9.223h1.743zm5.567.193c.931 0 1.676-.457 2.32-1.072v.879h1.726V4l-1.727.931v3.514c-.49-.563-1.337-1.054-2.234-1.054-1.845 0-3.504 1.493-3.504 4.655 0 3.513 1.507 4.954 3.42 4.954zm.322-1.669c-1.286 0-1.997-1.019-1.997-3.338 0-1.95.677-2.934 1.93-2.934.88 0 1.692.668 2.081 1.213v3.882c-.457.597-1.185 1.177-2.014 1.177zM90.575 17c1.354 0 2.285-.44 3.064-1.212l-1.033-1.16c-.592.457-1.185.738-1.93.738-1.083 0-2.048-.755-2.234-2.53h5.874c.017-.193.05-.491.05-.825 0-2.495-1.218-4.62-3.74-4.62-2.302 0-3.893 1.686-3.893 4.813 0 3.057 1.76 4.796 3.842 4.796zm2.031-5.657h-4.13c.152-1.475.863-2.319 2.031-2.319 1.44 0 2.015 1.054 2.1 2.32zm5.55 5.464v-5.393c0-1.494.66-2.355 1.829-2.355 1.15 0 1.828.668 1.828 2.53v5.218h1.743v-5.288c0-2.723-1.1-4.128-3.165-4.128-.914 0-1.794.404-2.234 1.071v-.878h-1.744v9.223h1.744zm10.24.193c.694 0 1.286-.176 1.71-.422l.203-1.598c-.322.193-.83.369-1.287.369-.643 0-.914-.246-.914-1.107V9.235h2.2V7.584h-2.2V4l-1.71.949v2.635h-1.27v1.651h1.27v5.323c0 1.651.762 2.442 1.998 2.442zm6.921 0c1.744 0 3.335-.685 3.335-2.723 0-1.74-1.016-2.301-2.996-3.092-1.337-.544-1.642-.878-1.642-1.335 0-.492.372-.843 1.219-.843.846 0 1.574.263 2.302.79l.762-1.388c-.796-.597-1.896-1.018-3.014-1.018-1.777 0-3.03.86-3.03 2.512 0 1.458.695 2.125 2.607 2.898 1.287.51 2.065.844 2.065 1.546 0 .65-.524 1.02-1.625 1.02-.829 0-1.76-.317-2.59-.914l-.795 1.37c.897.685 2.2 1.177 3.402 1.177zm11.93-.193v-5.464h3.403v-1.81h-3.402V6.32h5.856v-1.81h-7.634v12.298h1.778zm9.58.193c2.285 0 4.011-1.792 4.011-4.849 0-2.88-1.692-4.76-3.96-4.76-2.235 0-3.962 1.791-3.962 4.813 0 2.881 1.676 4.796 3.91 4.796zm.067-1.722c-1.32 0-2.217-1.106-2.217-3.127 0-1.827.812-3.039 2.133-3.039 1.405 0 2.268 1.212 2.268 3.092 0 1.687-.863 3.074-2.184 3.074zM145.966 17c.914 0 1.794-.404 2.234-1.072v.879h1.743V7.584H148.2v5.393c0 1.493-.66 2.354-1.828 2.354-1.151 0-1.828-.667-1.828-2.53V7.584H142.8v5.288c0 2.723 1.1 4.128 3.166 4.128zm8.174-.193v-5.393c0-1.494.66-2.355 1.828-2.355 1.15 0 1.828.668 1.828 2.53v5.218h1.743v-5.288c0-2.723-1.1-4.128-3.165-4.128-.914 0-1.794.404-2.234 1.071v-.878h-1.744v9.223h1.744zm10.814.193c.931 0 1.676-.457 2.32-1.072v.879H169V4l-1.727.931v3.514c-.49-.563-1.337-1.054-2.234-1.054-1.845 0-3.504 1.493-3.504 4.655 0 3.513 1.507 4.954 3.42 4.954zm.322-1.669c-1.286 0-1.997-1.019-1.997-3.338 0-1.95.677-2.934 1.93-2.934.88 0 1.692.668 2.081 1.213v3.882c-.457.597-1.185 1.177-2.014 1.177z" transform="translate(-241 -611) translate(246 95) translate(0 206) translate(2 316) translate(25 21)"/>
                            <path fill="#C33F72" d="M18.339 18c.417 0 .776-.135 1.077-.404.3-.27.486-.597.556-.984.07-.387.011-.767-.174-1.142L11.459.852c-.208-.375-.504-.627-.886-.755-.382-.13-.764-.13-1.146 0-.382.128-.678.38-.886.755L.202 15.47c-.185.375-.243.755-.174 1.142.07.387.255.715.556.984.301.27.66.404 1.077.404H18.34zm-7.505-6.184H9.166c-.116 0-.214-.041-.295-.123-.081-.082-.122-.17-.122-.264L8.471 6.65c0-.14.04-.252.122-.334.08-.082.18-.123.295-.123h2.224c.116 0 .214.041.295.123.081.082.122.194.122.334l-.278 4.779c0 .094-.04.182-.122.264-.08.082-.18.123-.295.123zM10 15.68c-.44 0-.816-.158-1.13-.475-.312-.316-.468-.696-.468-1.142 0-.445.156-.825.469-1.142.313-.316.689-.474 1.129-.474.44 0 .816.158 1.13.474.312.317.468.697.468 1.142 0 .446-.156.826-.469 1.142-.313.317-.689.475-1.129.475z" transform="translate(-241 -611) translate(246 95) translate(0 206) translate(2 316) translate(25 21)"/>
                            <path fill="#000" d="M37 16v-2.23h-4.539c.088-1.372.838-2.231 2.497-3.53 1.17-.914 2.007-2.01 2.007-3.784C36.965 4.225 35.551 3 33.44 3c-1.501 0-2.584.695-3.404 1.774l1.362 1.663c.576-.694 1.187-1.151 1.955-1.151.907 0 1.396.493 1.396 1.499 0 .768-.314 1.298-1.152 1.938C31.292 10.46 30.122 12.087 30 16h7z" transform="translate(-241 -611) translate(246 95) translate(0 206) translate(2 316) translate(25 21)"/>
                        </g>
                    </g>
                </g>
            </g>
        </g>
    </g>
</svg>
