<svg xmlns="http://www.w3.org/2000/svg" width="60" height="60" viewBox="0 0 60 60">
    <g fill="none" fill-rule="evenodd">
        <g transform="translate(.923 5.462) rotate(-40 28.18 -13.21)">
            <path fill="#FF4722" stroke="#000" stroke-linejoin="round" stroke-width="1.846" d="M11.845 1.402l9.138 10.79c.21.247.325.561.325.885V41.29c0 .757-.614 1.371-1.37 1.371H1.66c-.757 0-1.37-.614-1.37-1.37V13.076c0-.324.115-.638.324-.886L9.753 1.402c.49-.577 1.354-.65 1.932-.16.058.049.111.103.16.16z"/>
            <path fill="#FFF" fill-rule="nonzero" d="M6.731 16.468h6.815v1.597h1.41v-4.57h-1.41v1.597H6.731v1.376zm0 3.9h3.126v.456L6.73 22.036v1.512l3.42-1.334c.375.756 1.092 1.312 2.244 1.312 1.703 0 2.561-.968 2.561-2.48V18.98H6.731v1.39zm4.798.923v-.713h2.285v.632c0 .862-.41 1.196-1.148 1.196-.75 0-1.137-.38-1.137-1.115zm-5.026 5.227h8.225v-1.37H6.503v1.37zm.228 2.147l1.716.377v1.794l-1.716.377v1.473l8.225-2.044v-1.394l-8.225-2.045v1.462zm3.199 1.737v-.914l.92.169c.619.115 1.431.24 1.821.283-.379.045-1.257.187-1.842.293l-.9.169zM6.503 37.94h1.433v-2.618h6.792v-1.494H6.503v4.112z"/>
            <circle cx="10.966" cy="7.768" r="1.828" fill="#000"/>
        </g>
        <path fill="#000" fill-rule="nonzero" d="M5.52 33.4v-2.06c2.279-.353 3.618-2.142 3.618-4.528 0-2.63-1.098-4.338-3.939-6.317-2.439-1.735-2.921-2.684-2.921-4.202 0-1.193.697-2.413 2.197-2.413 1.367 0 2.09.84 2.841 2.331l1.608-.921c-.777-1.681-1.742-2.793-3.43-3.091v-2.06H3.618v2.06c-1.983.407-3.216 2.087-3.216 4.23 0 2.494.965 3.74 3.618 5.638 2.465 1.763 3.243 3.118 3.243 4.962 0 1.843-.992 2.63-2.6 2.63-1.367 0-2.224-.95-2.948-2.793L0 27.652c.697 2.034 1.85 3.335 3.645 3.688v2.06H5.52zM19.423 47.523V8.56h-2.838c-.668 2.783-1.837 3.562-4.954 3.84v2.394h4.286v32.73h3.506z" transform="translate(.923 5.462)"/>
    </g>
</svg>
