<?xml version="1.0" encoding="UTF-8"?>
<svg width="173px" height="121px" viewBox="0 0 173 121" version="1.1" xmlns="http://www.w3.org/2000/svg" xmlns:xlink="http://www.w3.org/1999/xlink">
    <!-- Generator: Sketch 43.1 (39012) - http://www.bohemiancoding.com/sketch -->
    <title>ivalid</title>
    <desc>Created with Sketch.</desc>
    <defs></defs>
    <g id="Page-1" stroke="none" stroke-width="1" fill="none" fill-rule="evenodd">
        <g id="ivalid" fill-rule="nonzero">
            <path d="M13.658,83.14 L11.707,83.14 C10.628,83.14 9.756,84.014 9.756,85.091 C9.756,86.168 10.628,87.042 11.707,87.042 L13.658,87.042 C14.737,87.042 15.609,86.168 15.609,85.091 C15.61,84.014 14.737,83.14 13.658,83.14" id="XMLID_110_" fill="#FFFFFF"></path>
            <g id="Group" transform="translate(0.000000, 20.000000)">
                <path d="M151.126,100.213 L8.874,100.213 C3.972,100.213 0,96.784 0,92.553 L0,7.872 C0,3.641 3.972,0.212 8.874,0.212 L151.125,0.212 C156.027,0.212 159.999,3.641 159.999,7.872 L159.999,92.553 C160,96.784 156.028,100.213 151.126,100.213" id="XMLID_114_" fill="#E7114C" opacity="0.5"></path>
                <rect id="XMLID_113_" fill="#FFFFFF" opacity="0.5" x="0" y="12.117" width="160" height="19.048"></rect>
                <path d="M41.379,43.07 L16.552,43.07 C15.026,43.07 13.793,44.137 13.793,45.451 C13.793,46.765 15.026,47.832 16.552,47.832 L41.38,47.832 C42.906,47.832 44.139,46.765 44.139,45.451 C44.139,44.137 42.905,43.07 41.379,43.07" id="XMLID_112_" fill="#FFFFFF"></path>
                <path d="M80,45.451 C80,44.137 78.767,43.07 77.241,43.07 L52.414,43.07 C50.888,43.07 49.655,44.137 49.655,45.451 C49.655,46.765 50.888,47.832 52.414,47.832 L77.242,47.832 C78.767,47.832 80,46.765 80,45.451" id="XMLID_111_" fill="#FFFFFF"></path>
                <path d="M35.862,54.975 L30.345,54.975 C28.819,54.975 27.586,56.042 27.586,57.356 C27.586,58.67 28.819,59.737 30.345,59.737 L35.862,59.737 C37.388,59.737 38.621,58.67 38.621,57.356 C38.621,56.041 37.388,54.975 35.862,54.975" id="XMLID_109_" fill="#FFFFFF"></path>
                <path d="M49.655,54.975 L46.896,54.975 C45.37,54.975 44.137,56.042 44.137,57.356 C44.137,58.67 45.37,59.737 46.896,59.737 L49.655,59.737 C51.181,59.737 52.414,58.67 52.414,57.356 C52.414,56.041 51.181,54.975 49.655,54.975" id="XMLID_108_" fill="#FFFFFF"></path>
                <path d="M66.207,54.975 L60.69,54.975 C59.164,54.975 57.931,56.042 57.931,57.356 C57.931,58.67 59.164,59.737 60.69,59.737 L66.207,59.737 C67.733,59.737 68.966,58.67 68.966,57.356 C68.966,56.041 67.732,54.975 66.207,54.975" id="XMLID_107_" fill="#FFFFFF"></path>
                <path d="M75.283,55.665 C74.784,56.117 74.483,56.736 74.483,57.355 C74.483,57.974 74.784,58.593 75.283,59.045 C75.802,59.474 76.491,59.735 77.242,59.735 C77.959,59.735 78.674,59.473 79.201,59.045 C79.698,58.593 80.001,57.974 80.001,57.355 C80.001,56.736 79.698,56.117 79.201,55.665 C78.179,54.784 76.303,54.784 75.283,55.665" id="XMLID_106_" fill="#FFFFFF"></path>
                <rect id="XMLID_105_" fill="#FFFFFF" x="99.31" y="62.117" width="44.138" height="23.81"></rect>
            </g>
            <rect id="Rectangle-path" fill="#FFFFFF" x="137.566" y="9.215" width="12.966" height="38.153"></rect>
            <path d="M168.849,13.727 C166.385,9.505 163.041,6.161 158.819,3.697 C154.595,1.232 149.985,0 144.984,0 C139.984,0 135.372,1.232 131.149,3.696 C126.926,6.16 123.583,9.503 121.118,13.726 C118.653,17.949 117.421,22.561 117.421,27.561 C117.421,32.561 118.653,37.172 121.117,41.396 C123.582,45.618 126.925,48.962 131.148,51.426 C135.371,53.89 139.982,55.122 144.983,55.122 C149.983,55.122 154.595,53.89 158.818,51.426 C163.04,48.962 166.384,45.618 168.848,41.396 C171.312,37.173 172.544,32.56 172.544,27.561 C172.545,22.561 171.313,17.949 168.849,13.727 Z M149.578,44.751 C149.578,45.086 149.47,45.367 149.255,45.594 C149.04,45.821 148.777,45.934 148.465,45.934 L141.575,45.934 C141.264,45.934 140.989,45.815 140.75,45.576 C140.511,45.337 140.391,45.062 140.391,44.751 L140.391,37.933 C140.391,37.622 140.51,37.347 140.75,37.108 C140.989,36.869 141.264,36.749 141.575,36.749 L148.465,36.749 C148.776,36.749 149.041,36.863 149.255,37.09 C149.47,37.318 149.578,37.598 149.578,37.934 L149.578,44.751 Z M149.506,32.406 C149.482,32.645 149.357,32.855 149.13,33.034 C148.902,33.213 148.622,33.303 148.287,33.303 L141.648,33.303 C141.313,33.303 141.026,33.213 140.787,33.034 C140.548,32.855 140.428,32.645 140.428,32.406 L139.818,10.12 C139.818,9.832 139.937,9.618 140.177,9.474 C140.417,9.283 140.704,9.187 141.039,9.187 L148.935,9.187 C149.271,9.187 149.557,9.282 149.796,9.474 C150.035,9.618 150.154,9.833 150.154,10.12 L149.506,32.406 Z" id="Shape" fill="#E7114C"></path>
        </g>
    </g>
</svg>