<svg xmlns="http://www.w3.org/2000/svg" width="512" height="221" viewBox="0 0 512 221">
    <defs>
        <filter id="e1m9c4ibza" width="106.9%" height="176.9%" x="-3.5%" y="-38.5%" filterUnits="objectBoundingBox">
            <feGaussianBlur in="SourceGraphic" stdDeviation="5"/>
        </filter>
    </defs>
    <g fill="none" fill-rule="evenodd">
        <path fill="#282426" fill-opacity=".371" fill-rule="nonzero" d="M52 187L243 205 476 182 454 171 351 166 250 189 186 176 43 180z" filter="url(#e1m9c4ibza)" transform="translate(1 1)"/>
        <path fill="#FFF" stroke="#000" stroke-width="1.86" d="M.11 138.866s.059-.15.136-.363c.065-.18.142-.402.21-.628.149-.496.347-1.436.495-6.093.149-4.656.595-10.402.694-11.74.014-.18.046-.353.095-.52.311-1.062 1.347-1.894 3.273-3.392.879-.684 1.826-1.69 2.652-2.66C6 109 10 103 11.055 100.85c1.057-2.151 1.19-2.787 2.564-3.716.982-.663 3.42-2.235 4.736-3.08.04-.675.081-1.155.081-1.155s1.288-1.783 9.56-5.696 16.215-8.393 16.215-8.393 2.778-3.185 11.671-6.715c10.662-4.23 33.385-8.123 49.533-10.154 14.176-1.783 25.87-3.108 31.934-3.64l.57-.048c.607-.052 1.15-.094 1.623-.126l.253-.018c.909-2.181 3.193-5.34 3.805-6.167l.153-.205s11.813-3.901 13.856-3.901c1.127 0 1.597.656 1.793 1.244l.397-.289c.024-.017.047-.035.072-.051.38-.278 18.85-13.41 18.892-13.439 23.61-16.257 33.808-20.029 33.808-20.029 8.537-3.307 20.116-6.166 33.59-8.456 27.448-4.668 62.75-6.983 96.201-5.953 20.62.634 40.534 2.54 57.47 5.948 49.643 9.99 72.219 41.573 80.341 49.003 4.497 4.113 8.9 5.394 11.938 5.72 2.31 4.006 5.597 9.558 5.597 9.558l.112 1.338-.094.12c1.366 1.111 6.64 2.742 6.274 7.451-.283 3.644 1.14 9.397 1.064 10.112-.071.662-.472 1.802-.755 2.546l.012.018s.111.371.631 2.488c.52 2.118 1.672 6.761 2.637 13.263.967 6.501 1.71 10.29 1.784 11.108 0 .035-.36 5.367-1.746 14.006-1.45 9.027-3.232 15.342-3.232 15.342l-2.675 2.787-6.091 4.969-1.262.935-.548.405c-.989 6.545-2.827 12.714-5.507 17.786-.126.236-6.312 11.235-14.086 11.13l.047.002-19.186-.351c-5.059-.093-10.043-4.074-13.736-11.911-.6-1.27-.857-2.25-1.351-3.635l-1.508-.161-20.567-.737c-1.931.2-127.706 12.798-127.706 12.798l-1.506-.283c-1.9 4.715-4.338 9.119-7.315 13.025-8.205 10.766-18.838 15.605-29.15 14.615.533.059 1.067.095 1.602.11l-31.194-.807c-8.227-.213-16.314-5.7-22.29-16.395-.724-1.293-1.398-2.634-2.026-4.013-2.143 1.372-2.06 3.383-2.06 3.383h-14.413s-2.229-.818-3.491-1.783c-1.264-.967-12.185-1.635-17.869-1.888-1.263-.057-2.412-.142-3.438-.24-1.314-.013-20.415-1.279-21.41-1.997-.41-.295-.696-.617-.91-.953-3.852-.138-15.214-.55-30.032-1.136-4.962 5.62-13.028 9.439-24.2 11.455l-29.244-.734c-6.234-.156-12.381-3.45-17.468-9.849-1.879-.113-3.306-.219-3.951-.306-3.344-.446-4.607-2.748-4.607-2.748l-9.325-2.281c-1.01-.025-1.521-.002-1.521-.002l-.056-.003c-.2-.017-1.029-.121-3.685-.786-3.17-.792-4.805-1.932-4.805-1.932l-.051-.37c-.066-.484-.198-1.436-.395-2.849-.297-2.13-3.17-14.513-4.507-22.835-.45-2.8-.686-5.122-.803-6.973-.083-1.325-.1-2.406-.1-3.247.014-1.476.11-2.212.11-2.212z" transform="translate(1 1)"/>
        <path stroke="#000" stroke-linecap="round" stroke-width="1.86" d="M32.842 97.888c-3.643-.099-6.79 3.246-8.598 6.41-1.808 3.164-2.317 6.9-2.465 10.54-.061 1.514-.053 3.096.62 4.453 1.286 2.59 4.468 3.503 7.303 4.078 21.37 4.332 43.522 4.768 65.046 1.281 4.446-.72 9.169-1.766 12.271-5.031 3.137-3.3 3.92-8.124 4.549-12.632.35-2.51.655-5.249-.658-7.414-2.279-3.757-7.698-3.529-12.053-2.942-21.935 2.954-44.046 3.943-66.015 1.257z" transform="translate(1 1)"/>
        <path stroke="#000" stroke-linecap="round" stroke-width="1.86" d="M110.661 112.56c8.028-1.06 18.125-2.496 25.199 1.446 1.538.857 2.957 1.928 4.552 2.675 1.641.77 3.428 1.174 5.21 1.503 24.423 4.503 49.568-4.806 69.615-19.734 2.086-1.552 1.444-4.835-1.066-5.515l-10.762-2.912c-1.986-.538-3.997-1.078-6.054-1.132-3.183-.083-6.265 1-9.288 1.998-22.858 7.545-74.305 10.507-76.165 11.127M21.978 116.9c-2.969 1.29-10.786.176-13.592-1.439-.562-.324-1.291-1.662-1.291-4.142 0-2.48 2.48-11.163 5.581-11.783 3.1-.62 7.066 2.368 11.163 4.34M8.027 161.652c-.888-.336-1.533-1.116-1.692-2.053-.624-3.675-1.278-7.186-1.358-10.961-.012-.565.02-1.213.463-1.562.371-.292.895-.259 1.364-.21l10.668 1.085c.657.067 1.343.143 1.897.502 1.01.654 1.264 1.995 1.427 3.187l1.582 11.584c.101.742.188 1.558-.221 2.186-.634.975-2.148.937-3.128.31-.875-.562-6.743-2.457-11.002-4.068zM33.814 148.983c-3.362-.767-6.897 3.83-6.025 7.167.873 3.336 3.406 6.04 4.328 9.362.489 1.763.57 3.778 1.843 5.091 1.246 1.285 3.213 1.456 4.999 1.549l45.939 2.397c7.7.402 16.455.408 21.768-5.18 3.96-4.166 4.83-10.337 5.074-16.08.034-.806.018-1.721-.57-2.274-.51-.477-1.276-.518-1.974-.532-24.706-.5-50.675-.999-75.382-1.5zM146.01 150.389c-1.24 0-3.353 1.239-4.22 2.285l-9.151 11.036c-1.406 1.697-2.825 4.242-1.353 5.881.979 1.09 2.676 1.02 4.131.858 12.996-1.45 25.962-3.356 39.03-3.816 3.81-.134 8.193-.42 10.467-3.48 2.23-2.998 1.308-7.291-.389-10.62-.241-.476-.51-.959-.938-1.277-.675-.498-1.587-.42-2.425-.448-12.206-.42-33.911-.42-35.152-.42z" transform="translate(1 1)"/>
        <path stroke="#000" stroke-width="1.86" d="M217.949 53.644c5.686-.155 73.841.27 80.62-.62 10.463-1.376 14.264-2.48 18.606-8.062 1.674-2.154 20.415-32.593 19.225-34.73-1.23-2.208-7.395-1.867-9.923-1.86-33.758.096-82.6-.745-115.35 7.442-4.961 1.24-27.287 15.504-52.093 35.35-.836.668-3.895 3.72.62 3.72 2.48 0 36.79-.653 58.295-1.24" transform="translate(1 1)"/>
        <path stroke="#000" stroke-linecap="round" stroke-width="1.86" d="M400.973 64.466c2.843 6.608 4.037 13.81 4.648 20.977.757 8.869.656 17.787.555 26.687-.125 10.922.922 27.716-1.559 39.5" transform="translate(1 1)"/>
        <path stroke="#000" stroke-linecap="round" stroke-width="1.86" d="M403.483 79.666C399 81 394.98 82.2 389.823 82.052 388 82 385.174 80.23 390 79.386L403.66 77M463.66 73L450 75.386c-4.307.752-4.242 1.553 0 2.614 4 1 11.122-.503 14-1" transform="translate(1 1)"/>
        <path stroke="#000" stroke-width="1.86" d="M329.889 37.72c4.302-8.268 10.162-15.605 15.983-22.883 1.107-1.384 2.232-2.786 3.667-3.826 1.056-.765 2.251-1.314 3.45-1.825 13.12-5.598 47.907-1.434 65.892 6.008 14.57 6.029 29.115 11.217 41.039 21.536 4.039 3.496 8.264 7.27 9.812 12.383.623 2.056.722 4.446-.517 6.202-.812 1.151-2.089 1.878-3.365 2.473-7.262 3.388-15.541 3.613-23.552 3.778-37.656.777-84.367 1.843-122.023 2.62-3.465.072 5.365-18.299 9.614-26.466" transform="translate(1 1)"/>
        <path stroke="#000" stroke-linecap="round" stroke-width="1.86" d="M330 64c1.24-1.24 8.1-6.577 8.88-6.635 1.526-.113 2.347-.755 3.2.515 2.032 3.025 6.434 2.325 10.075 2.188 5.95-.222 12.851.06 18.353-.843 2.7-.442 6.822-2.48 8.062-6.821.856-2.996-5.659-11.027-8.682-11.783-7.442-1.86-16.79-2.977-19.225-3.101-6.54-.335-9.973 5.014-11.23 11.44l-3.033.343-3.527-15.85M458.571 61.706c3.645 4.256 7.746 14.315 7.584 19.916-.161 5.601-1.691 11.061-3.21 16.455-4.115 14.606-10.576 33.087-15.537 47.97M385 8c2.38 7.414 9.968 30.961 10.948 33.85 2.175 6.41 3.643 13.062 4.366 19.794M438.226 24.438c2.36 3.78 7.55 13.284 9.182 16.182 3.335 5.921 7.958 13.185 9.303 19.845M155.313 97.675c1.62 2.69 3.566 8.88 6.309 10.408 3.087 1.72 6.848 1.494 10.367 1.17 1.55-.143 3.135-.305 4.546-.966 2.284-1.07 3.823-3.345 4.583-5.75.761-2.407.784-7.301.862-9.823M15.777 100.776c-1.206 1.495-2.354 4.582-2.32 6.502.012.719.137 1.478.608 2.02.516.591 1.334.802 2.1.965 2.154.454 3.62.889 5.813 1.056M498.641 73.506c-1.413-.715-3.203-.089-3.635 1.435-.081.285-.113.567-.081.834.049.399.231.767.411 1.127 1.454 2.905 2.916 5.825 4.817 8.46 1.396 1.935 2.036 4.084 3.847 5.638 1-2 .302-6.522.283-9.61-.007-1.175.015-2.363-.256-3.506-.272-1.142-.878-2.257-1.878-2.873-.484-.297-1.035-.465-1.558-.684-.676-.284-1.343-.514-1.95-.821zM235.487 111.061c5.811-4.95 12.655-7.804 19.982-7.804 21.064 0 38.14 23.6 38.14 52.713s-17.076 52.714-38.14 52.714c-18.542 0-33.992-18.286-37.427-42.52" transform="translate(1 1)"/>
        <path stroke="#000" stroke-linecap="round" stroke-width="1.86" d="M286.787 156.9c0 23.805-14.021 43.102-31.318 43.102S224.15 180.705 224.15 156.9c0-23.805 14.02-43.102 31.318-43.102 17.297 0 31.318 19.297 31.318 43.102zM495.16 146.048c0 21.578-8.746 39.07-19.535 39.07-10.788 0-19.535-17.492-19.535-39.07s8.747-39.07 19.535-39.07c10.789 0 19.535 17.492 19.535 39.07z" transform="translate(1 1)"/>
        <path stroke="#000" stroke-linecap="round" stroke-width="1.86" d="M491.44 146.668c0 17.468-7.22 31.628-16.125 31.628-8.905 0-16.124-14.16-16.124-31.628s7.22-31.628 16.124-31.628c8.905 0 16.125 14.16 16.125 31.628z" transform="translate(1 1)"/>
        <path stroke="#000" stroke-linecap="round" stroke-width="1.86" d="M440 171c3.333-.667 7.333-2 12-4-1-17 6.571-64.984 24.556-66.844 18.598-1.924 18.43 28.143 17.897 35.467" transform="translate(1 1)"/>
        <path stroke="#000" stroke-linecap="round" stroke-width="1.86" d="M198.451 189.149l16.397-2.17s5.577-93.025 47.132-93.025c39.69 0 32.249 70.078 32.249 70.078s127.753-10.542 158.14-19.225" transform="translate(1 1)"/>
    </g>
</svg>
