<svg xmlns="http://www.w3.org/2000/svg" width="147" height="61" viewBox="0 0 147 61">
    <g fill="none">
        <path fill="#FF4722" d="M24.024 43.344L16.016 43.842 16.016 35.958 8.008 36.462 8.008 28.515 8.008 28.442 0 28.963 0 29.036 0 36.971 0 37.044 8.008 36.534 8.008 44.335 0 44.828 0 44.906 0 52.836 0 52.909 8.008 52.427 8.008 60.374 16.016 59.903 16.016 51.873 8.008 52.354 8.008 44.481 16.016 43.988 16.016 51.873 24.024 51.386 24.024 43.495 32.032 42.997 32.032 34.944 24.024 35.454z"/>
        <path fill="#FF4722" d="M24.024 27.412L16.016 27.927 16.016 35.958 24.024 35.454zM32.032 58.957L32.032 50.904 24.024 51.386 24.024 59.427zM130.48 29.792v-8.187l-8.008.515v8.176l-8.008.504v8.165l8.008-.493v8.03l-8.008.482v8.176l8.008-.47v-8.115l7.907-.476v8.115l8.008-.47v-8.205l-7.907.476V37.98l7.907-.487v8.047l8.008-.481v-8.21l-8.008.493v-8.047l-7.907.498zm-8.008.56l7.907-.498v7.98l-7.907.487v-7.969z"/>
        <path fill="#FF4722" d="M146.395 20.58L138.387 21.095 138.387 29.294 146.395 28.79z"/>
        <path fill="#8736C1" d="M117.964 51.027L117.964 18.57 27.345 24.455 27.345 56.42z"/>
        <path fill="#FFF" d="M41.882 33.673c0 1.422-.896 2.453-2.9 2.576-1.057.08-2.09-.334-2.8-1.12l.845-.88c.533.55 1.274.845 2.039.813 1.12-.073 1.624-.488 1.624-1.255 0-.61-.46-.885-1.77-1.198-1.68-.392-2.453-.756-2.453-2.167 0-1.412 1.12-2.268 2.587-2.364.946-.081 1.881.25 2.565.908l-.829.901c-.48-.478-1.151-.713-1.825-.638-.919.056-1.31.56-1.31 1.064s.358.8 1.713 1.12c1.551.397 2.514.829 2.514 2.24zM49.79 35.448l-1.255.078-.66-1.836-3.137.201-.65 1.915-1.22.073 2.8-8.08 1.266-.079 2.856 7.728zm-2.274-2.8l-.627-1.78c-.19-.56-.504-1.446-.594-1.782-.09.348-.37 1.266-.56 1.865l-.627 1.848 2.408-.151zM55.58 28.33L53.295 28.476 53.295 35.224 52.119 35.297 52.119 28.549 49.84 28.7 49.84 27.535 55.58 27.16zM58.358 34.905L57.182 34.983 57.182 27.059 58.358 26.986zM65.705 32.166c0 1.428-.896 2.459-2.901 2.588-1.057.082-2.092-.332-2.8-1.12l.851-.874c.532.55 1.275.843 2.039.806 1.12-.067 1.624-.487 1.624-1.254 0-.61-.46-.89-1.77-1.204-1.68-.392-2.453-.762-2.453-2.173s1.12-2.285 2.587-2.374c.947-.082 1.883.25 2.565.913l-.829.901c-.477-.484-1.149-.725-1.825-.655-.919.062-1.316.56-1.316 1.07s.364.806 1.719 1.12c1.546.403 2.509.84 2.509 2.256zM72.514 27.244L68.639 27.496 68.639 29.568 70.879 29.422 70.879 30.593 68.639 30.733 68.639 34.261 67.458 34.334 67.458 26.404 72.498 26.079zM79.29 33.589l-1.254.078-.66-1.842-3.137.201-.655 1.921-1.22.079 2.827-8.12 1.243-.079 2.856 7.762zm-2.273-2.8l-.627-1.787c-.19-.56-.504-1.456-.594-1.792-.09.348-.37 1.272-.56 1.876l-.633 1.854 2.414-.151zM86.24 31.758c-.539.998-1.565 1.637-2.7 1.68-2.026.128-3.32-1.484-3.32-3.92s1.294-4.184 3.32-4.312c1.077-.16 2.139.364 2.666 1.316l-1.041.728c-.305-.602-.957-.943-1.624-.852-1.367.09-2.106 1.26-2.106 3.041s.74 2.862 2.106 2.8c.737-.027 1.4-.458 1.725-1.12l.974.639zM93.022 25.934L90.737 26.079 90.737 32.872 89.561 32.945 89.561 26.152 87.276 26.303 87.276 25.127 93.022 24.763zM95.799 32.553L94.618 32.626 94.618 24.657 95.799 24.584zM104.2 28.022c0 2.487-1.367 4.217-3.36 4.34-1.994.124-3.333-1.41-3.333-3.92 0-2.508 1.372-4.21 3.36-4.34 1.988-.128 3.332 1.434 3.332 3.92zm-1.2.101c0-1.814-.918-2.884-2.172-2.8-1.254.084-2.117 1.243-2.117 3.052s.907 2.884 2.162 2.8c1.254-.084 2.128-1.215 2.128-3.052zM111.815 31.545l-1.12.073-3.125-4.81c-.19-.286-.459-.751-.588-.947v5.986l-1.12.073v-7.986l1.199-.072 2.979 4.681c.202.32.56.89.65 1.087v-6.004l1.12-.072.005 7.99zM41.826 46.11c0 2.24-1.232 3.573-3.505 3.708-2.15.134-3.601-1.266-3.601-3.848 0-2.335 1.277-4.15 3.651-4.295 1.96-.123 2.722.56 3.282 2.01l-1.971.897c-.258-.661-.56-1.048-1.322-1.003-1.02.067-1.366 1.003-1.366 2.24 0 1.568.504 2.19 1.512 2.128.918-.056 1.22-.504 1.31-1.047l-1.422.084V45.36l3.45-.207-.018.957zM49.935 45.64c0 2.509-1.49 3.595-3.46 3.713-1.972.117-3.417-.784-3.417-3.293v-4.553l2.24-.134v4.525c0 .974.381 1.545 1.232 1.495.852-.05 1.21-.672 1.21-1.647v-4.524l2.24-.14-.045 4.558zM58.503 48.474l-2.352.14-.425-1.361-2.352.14-.426 1.417-2.33.14 2.845-8.087 2.195-.134 2.845 7.745zM55.2 45.539l-.145-.51c-.28-1.002-.404-1.422-.504-1.948-.101.56-.224.985-.504 2.01l-.146.527 1.3-.079zM66.343 47.998l-2.43.145-1.277-2.593-.874.056v2.672l-2.139.128v-7.924l3.506-.218c1.837-.112 3.057.515 3.057 2.397.057 1.013-.5 1.962-1.41 2.408l1.567 2.929zm-2.318-5.158c0-.498-.269-.834-.952-.79l-1.31.079v1.73l1.276-.078c.706-.028.986-.381.986-.941zM74.889 47.482l-2.352.14-.426-1.366-2.352.14-.425 1.422-2.33.14 2.845-8.108 2.195-.135 2.845 7.767zm-3.304-2.962l-.146-.515c-.28-1.003-.403-1.428-.504-1.955-.1.56-.224.992-.504 2.016l-.145.56 1.299-.106zM82.88 46.995l-1.77.107-1.87-2.51c-.347-.464-1.02-1.444-1.22-1.786.055.348.066 1.406.066 2.05v2.43l-2.083.13V39.48l1.915-.118 1.725 2.24c.44.578.85 1.178 1.227 1.798-.056-.347-.068-1.406-.068-2.055v-2.173l2.084-.129-.006 7.952zM90.72 40.482L88.525 40.617 88.525 46.654 86.352 46.788 86.352 40.751 84.157 40.886 84.157 38.965 90.72 38.562zM98.062 46.077L91.98 46.446 91.98 38.483 98 38.108 98 39.967 94.147 40.202 94.147 41.261 96.466 41.121 96.466 42.952 94.147 43.092 94.147 44.458 98.067 44.223zM105.532 45.64L99.45 46.004 99.45 38.018 105.454 37.649 105.454 39.508 101.601 39.743 101.601 40.802 103.919 40.662 103.919 42.498 101.601 42.638 101.601 44.005 105.521 43.764zM113.68 41.087c0 3.007-1.456 4.133-4.234 4.301l-2.542.151v-7.985l2.744-.168c2.48-.146 4.032.7 4.032 3.701zm-2.24.174c0-1.473-.46-2.061-1.814-1.977h-.56v4.2h.47c1.406-.084 1.932-.644 1.932-2.223h-.028z"/>
        <path fill="#FF4722" d="M72.31.29L73.514 4.541 77.921 4.367 74.253 6.82 75.782 10.964 72.31 8.226 68.843 10.964 70.372 6.82 66.698 4.367 71.111 4.541zM59.15 3.37L60.348 7.621 64.761 7.447 61.093 9.9 62.622 14.044 59.15 11.311 55.683 14.044 57.212 9.9 53.538 7.447 57.951 7.621zM45.611 8L46.81 12.25 51.222 12.077 47.554 14.53 49.083 18.674 45.611 15.941 42.145 18.674 43.674 14.53 40 12.077 44.413 12.25zM85.47 1.875L86.674 6.126 91.086 5.952 87.413 8.405 88.942 12.549 85.47 9.81 82.003 12.549 83.532 8.405 79.864 5.952 84.277 6.126zM97.606 5L98.81 9.25 103.222 9.077 99.549 11.53 101.078 15.674 97.606 12.935 94.139 15.674 95.668 11.53 92 9.077 96.413 9.25z"/>
    </g>
</svg>
