<svg xmlns="http://www.w3.org/2000/svg" width="60" height="60" viewBox="0 0 60 60">
    <g fill="none" fill-rule="evenodd">
        <circle cx="30" cy="30" r="30" fill="#4A3B8F"/>
        <g>
            <path fill="#EBEAF4" d="M34.16 15.37c3.124-3.124 3.124-8.19 0-11.314L32.544 2.44c-3.125-3.124-8.19-3.124-11.314 0L2.643 21.027c-3.124 3.124-3.124 8.19 0 11.313l1.616 1.617c3.124 3.124 8.19 3.124 11.314 0L34.16 15.37z" transform="translate(11.7 11.7)"/>
            <path fill="#FFF" d="M32.544 2.44c-3.124-3.124-8.19-3.124-11.314 0L2.643 21.027c-3.124 3.124-3.124 8.19 0 11.314l.72.718 29.9-29.9-.72-.719z" transform="translate(11.7 11.7)"/>
            <path fill="#DC0015" d="M34.16 4.056L32.544 2.44c-3.125-3.124-8.19-3.124-11.314 0l-9.293 9.293 12.93 12.93 9.293-9.293c3.124-3.124 3.124-8.19 0-11.314" transform="translate(11.7 11.7)"/>
            <path fill="#E7114C" d="M32.544 2.44c-3.124-3.124-8.19-3.124-11.314 0l-9.294 9.294 6.376 6.375 14.95-14.95-.718-.719z" transform="translate(11.7 11.7)"/>
        </g>
    </g>
</svg>
