<?xml version="1.0" encoding="UTF-8"?>
<svg width="25px" height="18px" viewBox="0 0 25 18" version="1.1" xmlns="http://www.w3.org/2000/svg" xmlns:xlink="http://www.w3.org/1999/xlink">
    <!-- Generator: Sketch 54.1 (76490) - https://sketchapp.com -->
    <title>Visa</title>
    <desc>Created with Sketch.</desc>
    <g id="Page-1" stroke="none" stroke-width="1" fill="none" fill-rule="evenodd">
        <g id="Artboard" transform="translate(-13.000000, -10.000000)" fill-rule="nonzero">
            <g id="Credit-Cards" transform="translate(13.000000, 10.000000)">
                <g id="Visa">
                    <rect id="Rectangle-20" fill="#F6F6F6" x="-2.13162821e-14" y="1.62" width="25" height="14.4"></rect>
                    <path d="M22.84,-2.66453526e-15 L1.44,-2.66453526e-15 C0.72,-2.66453526e-15 -2.13162821e-14,0.72 -2.13162821e-14,1.44 L-2.13162821e-14,3.6 L25,3.6 C25,3.6 25,6.943 25,2.16 C25,0.72 24.28,-2.66453526e-15 22.84,-2.66453526e-15 Z" id="Rectangle-1" fill="#1D1A74"></path>
                    <path d="M-2.13162821e-14,14.4 C-2.13162821e-14,14.4 -2.13162821e-14,14.4 -2.13162821e-14,15.84 C-2.13162821e-14,17.28 0.72,18 2.16,18 L22.84,18 C24.28,18 25,17.28 25,15.84 L25,14.4 L-2.13162821e-14,14.4 Z" id="Rectangle-1_1_" fill="#F5A700"></path>
                    <g id="Group" transform="translate(2.000000, 5.000000)" fill="#1E1A76">
                        <path d="M15.241,0.993 C14.906,0.865 14.381,0.727 13.725,0.727 C12.053,0.727 10.876,1.587 10.866,2.82 C10.857,3.731 11.707,4.24 12.348,4.543 C13.007,4.854 13.228,5.052 13.225,5.33 C13.221,5.755 12.699,5.949 12.213,5.949 C11.536,5.949 11.176,5.853 10.62,5.616 L10.402,5.515 L10.165,6.935 C10.56,7.112 11.291,7.265 12.05,7.273 C13.828,7.273 14.983,6.423 14.996,5.106 C15.002,4.384 14.552,3.835 13.576,3.383 C12.985,3.09 12.622,2.894 12.626,2.597 C12.626,2.333 12.933,2.051 13.595,2.051 C14.148,2.042 14.549,2.165 14.861,2.294 L15.013,2.367 L15.241,0.993" id="Shape"></path>
                        <path d="M19.579,0.843 L18.272,0.843 C17.867,0.843 17.564,0.956 17.386,1.369 L14.873,7.182 L16.65,7.182 C16.65,7.182 16.94,6.4 17.006,6.229 C17.2,6.229 18.926,6.232 19.173,6.232 C19.224,6.454 19.379,7.182 19.379,7.182 L20.949,7.182 L19.579,0.843 Z M17.493,4.931 C17.633,4.566 18.167,3.158 18.167,3.158 C18.157,3.175 18.306,2.791 18.391,2.553 L18.505,3.1 C18.505,3.1 18.829,4.614 18.897,4.931 L17.493,4.931 Z" id="Shape_1_"></path>
                        <polygon id="Shape_2_" points="7.413 7.179 8.471 0.837 10.163 0.837 9.104 7.179"></polygon>
                        <path d="M5.994,0.841 L4.338,5.166 L4.161,4.288 C3.853,3.274 2.892,2.177 1.818,1.627 L3.333,7.174 L5.123,7.172 L7.787,0.842 L5.994,0.842" id="Shape_3_"></path>
                        <path d="M2.801,0.837 L0.073,0.837 L0.051,0.969 C2.173,1.494 3.578,2.763 4.161,4.287 L3.568,1.373 C3.466,0.971 3.169,0.851 2.801,0.837" id="Shape_4_"></path>
                    </g>
                </g>
            </g>
        </g>
    </g>
</svg>