<?xml version="1.0" encoding="UTF-8"?>
<svg width="25px" height="18px" viewBox="0 0 25 18" version="1.1" xmlns="http://www.w3.org/2000/svg" xmlns:xlink="http://www.w3.org/1999/xlink">
    <!-- Generator: Sketch 54.1 (76490) - https://sketchapp.com -->
    <title>American Express</title>
    <desc>Created with Sketch.</desc>
    <g id="Page-1" stroke="none" stroke-width="1" fill="none" fill-rule="evenodd">
        <g id="Artboard" transform="translate(-73.000000, -10.000000)" fill-rule="nonzero">
            <g id="Credit-Cards" transform="translate(13.000000, 10.000000)">
                <g id="American-Express" transform="translate(60.000000, 0.000000)">
                    <path d="M25,16.4570642 C25,17.309204 24.3383789,18 23.5222168,18 L1.4777832,18 C0.661621094,18.000051 0,17.309204 0,16.4570642 L0,1.54288482 C0,0.690796014 0.661621094,0 1.4777832,0 L23.5222168,0 C24.3384277,0 25,0.690796014 25,1.54288482 L25,16.4570642 L25,16.4570642 Z" id="Path" fill="#306FC5"></path>
                    <g id="Group" transform="translate(1.700000, 5.500000)" fill="#FFFFFF">
                        <polygon id="Path" points="1.88427734 1.81275706 2.63125 1.81275706 2.25786133 0.877757062"></polygon>
                        <polygon id="Path" points="5.85673828 4.9514661 5.85673828 5.38563842 7.11303711 5.38563842 7.11303711 5.85323446 5.85673828 5.85323446 5.85673828 6.35425424 7.2487793 6.35425424 7.89384766 5.65283616 7.28276367 4.9514661"></polygon>
                        <polygon id="Path" points="15.6688477 0.877757062 15.261377 1.81275706 16.0423828 1.81275706"></polygon>
                        <polygon id="Path" points="9.48964844 6.62111582 9.48964844 4.71778814 8.60683594 5.65283616"></polygon>
                        <path d="M11.1533203,5.25213559 C11.1193359,5.05178531 10.9833984,4.9514661 10.7795898,4.9514661 L10.066748,4.9514661 L10.066748,5.55251697 L10.8137695,5.55251695 C11.0174316,5.55256497 11.1533203,5.45243785 11.1533203,5.25213559 Z" id="Path"></path>
                        <path d="M13.5297852,5.4859096 C13.5977051,5.45243785 13.6317871,5.35216667 13.6317871,5.25218362 C13.6657715,5.11872881 13.5977051,5.05183333 13.5297852,5.0184096 C13.4620605,4.98498588 13.3600586,4.98498588 13.2583496,4.98498588 L12.5791504,4.98498588 L12.5791504,5.51933333 L13.2583008,5.51933333 C13.3600098,5.51933333 13.4620117,5.51933333 13.5297852,5.4859096 Z" id="Path"></path>
                        <path d="M18.4187988,0.00950847458 L18.4187988,0.41020904 L18.2152344,0.00950847458 L16.6196289,0.00950847458 L16.6196289,0.41020904 L16.4158203,0.00950847458 L14.2428711,0.00950847458 C13.8694336,0.00950847458 13.5637207,0.0763559322 13.2922363,0.20990678 L13.2922363,0.00950847458 L11.7644531,0.00950847458 L11.7644531,0.0429322034 L11.7644531,0.20990678 C11.5947266,0.0764039548 11.3910156,0.00950847458 11.1193848,0.00950847458 L5.65307617,0.00950847458 L5.27944336,0.844333333 L4.90605469,0.00950847458 L3.68383789,0.00950847458 L3.17451172,0.00950847458 L3.17451172,0.41020904 L3.00473633,0.00950847458 L2.97075195,0.00950847458 L1.51083984,0.00950847458 L0.831689453,1.57888701 L0.0508789063,3.28186441 L0.0365234375,3.31533616 L0.0508789063,3.31533616 L1.7824707,3.31533616 L1.80415039,3.31533616 L1.81645508,3.28186441 L2.02026367,2.78108475 L2.46162109,2.78108475 L2.66533203,3.31533616 L4.634375,3.31533616 L4.634375,3.28186441 L4.634375,2.91463559 L4.80424805,3.31528814 L5.78876953,3.31528814 L5.95844727,2.91463559 L5.95844727,3.28186441 L5.95844727,3.31533616 L6.73935547,3.31533616 L10.6438965,3.31533616 L10.6778809,3.31533616 L10.6778809,2.44708757 L10.7459473,2.44708757 C10.8137695,2.44708757 10.8137695,2.44708757 10.8137695,2.54731073 L10.8137695,3.28191243 L13.2583496,3.28191243 L13.2583496,3.08156215 C13.4620605,3.18188136 13.7674316,3.28191243 14.1749023,3.28191243 L15.1936035,3.28191243 L15.3973145,2.74775706 L15.8725098,2.74775706 L16.0762207,3.28191243 L18.0453613,3.28191243 L18.0453613,2.94805932 L18.0453613,2.78113277 L18.3510742,3.28191243 L18.4187988,3.28191243 L18.4528809,3.28191243 L19.9467773,3.28191243 L19.9467773,0.00950847458 L18.4188965,0.00950847458 L18.4188965,0.00950847458 L18.4187988,0.00950847458 L18.4187988,0.00950847458 Z M6.90922852,2.8145565 L6.56962891,2.8145565 L6.3659668,2.8145565 L6.3659668,2.61435028 L6.3659668,0.977932203 L6.33198242,1.05452825 L6.33198242,1.05361582 L5.54213867,2.8145565 L5.51713867,2.8145565 L5.33554688,2.8145565 L5.04174805,2.8145565 L4.22695313,0.977932203 L4.22695313,2.8145565 L3.07265625,2.8145565 L2.83500977,2.31368079 L1.68051758,2.31368079 L1.44282227,2.8145565 L0.845996094,2.8145565 L1.85039063,0.477056497 L2.69912109,0.477056497 L3.64975586,2.71428531 L3.64975586,0.477056497 L3.85341797,0.477056497 L4.54926758,0.477056497 L4.5652832,0.510528249 L4.56645508,0.510528249 L4.99482422,1.42747175 L5.30244141,2.11448305 L5.31333008,2.07985876 L5.99233398,0.47710452 L6.90917969,0.47710452 L6.90922852,2.8145565 L6.90922852,2.8145565 L6.90922852,2.8145565 Z M9.25200195,0.977932203 L7.92783203,0.977932203 L7.92783203,1.41200847 L9.21801758,1.41200847 L9.21801758,1.87946045 L7.92783203,1.87946045 L7.92783203,2.34710452 L9.25200195,2.34710452 L9.25200195,2.84783616 L7.35068359,2.84783616 L7.35068359,0.47710452 L9.25200195,0.47710452 L9.25200195,0.977932203 L9.25200195,0.977932203 Z M11.6736328,1.8389774 C11.6745117,1.83974576 11.6756348,1.84027401 11.676709,1.84099435 C11.6895508,1.85434463 11.7005371,1.86774294 11.7099121,1.88056497 C11.7749512,1.96441243 11.8275391,2.08912712 11.8301758,2.27199718 C11.8303711,2.27516667 11.8305176,2.27828814 11.8307129,2.28145763 C11.8307129,2.28328249 11.8310547,2.28486723 11.8310547,2.28674011 C11.8310547,2.28779661 11.830957,2.28861299 11.830957,2.28962147 C11.8317383,2.30801412 11.8322266,2.32679096 11.8322266,2.34710452 L11.8322266,2.81460452 L11.3230469,2.81460452 L11.3230469,2.54735876 C11.3230469,2.41380791 11.3230469,2.2134096 11.2210449,2.07985876 C11.1889648,2.04830791 11.1564941,2.02751412 11.1211426,2.01272316 C11.0702637,1.98030791 10.9738281,1.97977966 10.8137695,1.97977966 L10.2024414,1.97977966 L10.2024414,2.81460452 L9.62539063,2.81460452 L9.62539063,0.47710452 L10.9156738,0.47710452 C11.2210449,0.47710452 11.4248535,0.47710452 11.5946777,0.577279661 C11.7610352,0.675533898 11.8615234,0.838474576 11.865332,1.0965 C11.8574707,1.45186723 11.6255371,1.64683898 11.4587891,1.71258192 C11.4587891,1.71258192 11.5720703,1.73500847 11.6736328,1.8389774 Z M12.8169434,2.8145565 L12.2396973,2.8145565 L12.2396973,0.477056497 L12.8169434,0.477056497 L12.8169434,2.8145565 Z M19.4376465,2.8145565 L18.6905762,2.8145565 L17.6041504,1.04468362 L17.6041504,2.51393503 L17.6005859,2.5104774 L17.6005859,2.81599718 L17.027002,2.81599718 L17.027002,2.81460452 L16.4497559,2.81460452 L16.2460449,2.31372881 L15.0576172,2.31372881 L14.8539062,2.84788418 L14.2088379,2.84788418 C13.9374023,2.84788418 13.5976562,2.78118079 13.394043,2.58083051 C13.190332,2.38048023 13.0885742,2.11333051 13.0885742,1.67930226 C13.0885742,1.34540113 13.1563965,1.01125989 13.394043,0.744206215 C13.5636719,0.543711864 13.8693848,0.47710452 14.2427734,0.47710452 L14.7861328,0.47710452 L14.7861328,0.977932203 L14.2427734,0.977932203 C14.0390625,0.977932203 13.9374023,1.01121186 13.8013184,1.1115791 C13.6996582,1.21170621 13.6316895,1.41200847 13.6316895,1.64573446 C13.6316895,1.9129322 13.6656738,2.07985876 13.8013184,2.2134096 C13.903418,2.31372881 14.0391113,2.34715254 14.2088379,2.34715254 L14.4464844,2.34715254 L15.2272949,0.510624294 L15.5669922,0.510624294 L16.0761719,0.510624294 L17.0269531,2.74785311 L17.0269531,2.63375141 L17.0269531,1.8795565 L17.0269531,1.81285311 L17.0269531,0.510672316 L17.8756836,0.510672316 L18.8601074,2.14680226 L18.8601074,0.510672316 L19.4375488,0.510672316 L19.4375488,2.81465254 L19.4376465,2.81465254 L19.4376465,2.8145565 L19.4376465,2.8145565 Z" id="Shape"></path>
                        <path d="M11.189502,1.45061864 C11.1994141,1.44019774 11.2083984,1.42838418 11.2160156,1.41484181 C11.2467773,1.36696328 11.2820312,1.28071469 11.2630371,1.1630113 C11.2622559,1.15220621 11.2602539,1.14221751 11.2579102,1.13256497 C11.2572754,1.12987571 11.257373,1.1275226 11.2566406,1.12483333 L11.2562988,1.12488136 C11.2394043,1.06768644 11.1962891,1.0325339 11.1532715,1.01121186 C11.0852051,0.977932203 10.9833496,0.977932203 10.881543,0.977932203 L10.2023926,0.977932203 L10.2023926,1.51227966 L10.881543,1.51227966 C10.9833496,1.51227966 11.0852539,1.51227966 11.1532715,1.47880791 C11.1634766,1.47371751 11.1725586,1.46680226 11.1812988,1.45897458 L11.1813965,1.45940678 C11.1814453,1.45935876 11.1849121,1.45580508 11.189502,1.45061864 Z" id="Path"></path>
                        <path d="M21.4406738,6.15380791 C21.4406738,5.92008192 21.3728516,5.68625989 21.2710449,5.51933333 L21.2710449,4.01675424 L21.2694824,4.01675424 L21.2694824,3.91643503 C21.2694824,3.91643503 19.8463867,3.91643503 19.6345703,3.91643503 C19.4228516,3.91643503 19.165918,4.11673729 19.165918,4.11673729 L19.165918,3.91643503 L17.6041992,3.91643503 C17.3664063,3.91643503 17.0610352,3.98328249 16.9250488,4.11673729 L16.9250488,3.91643503 L14.1410645,3.91643503 L14.1410645,4.01675424 L14.1410645,4.11668927 C13.9375,3.94985876 13.5637207,3.91638701 13.3940918,3.91638701 L11.5606445,3.91638701 L11.5606445,4.01670621 L11.5606445,4.11664124 C11.390918,3.94981073 10.9833008,3.91633898 10.7794922,3.91633898 L8.74267578,3.91633898 L8.26723633,4.41726271 L7.82583008,3.91633898 L7.68369141,3.91633898 L7.45239258,3.91633898 L4.77026367,3.91633898 L4.77026367,4.01665819 L4.77026367,4.28044633 L4.77026367,7.28911017 L7.75805664,7.28911017 L8.24897461,6.80614689 L8.67451172,7.28911017 L8.70859375,7.28911017 L10.4301758,7.28911017 L10.5082031,7.28911017 L10.5421875,7.28911017 L10.5759766,7.28911017 L10.5759766,6.95520904 L10.5759766,6.52113277 L10.7458496,6.52113277 C10.9833008,6.52113277 11.2890137,6.52113277 11.5266602,6.42081356 L11.5266602,7.25554237 L11.5266602,7.32248588 L13.054541,7.32248588 L13.054541,7.25554237 L13.054541,6.45423729 L13.1222656,6.45423729 C13.2242676,6.45423729 13.2242676,6.45423729 13.2242676,6.55441243 L13.2242676,7.25554237 L13.2242676,7.32248588 L17.8416016,7.32248588 C18.1474121,7.32248588 18.4527832,7.25554237 18.6225098,7.12199153 L18.6225098,7.25554237 L18.6225098,7.32248588 L20.0825684,7.32248588 C20.3879395,7.32248588 20.69375,7.28911017 20.8974609,7.15546328 C21.2100586,6.97100847 21.4070801,6.64450282 21.436377,6.25508757 C21.4377441,6.24356215 21.4394531,6.23203672 21.4405273,6.22046328 L21.4385254,6.2185904 C21.4397949,6.19698023 21.4406738,6.17561017 21.4406738,6.15380791 Z M10.7458984,5.95350565 L10.0666992,5.95350565 L10.0666992,6.05344068 L10.0666992,6.25388701 L10.0666992,6.45428531 L10.0666992,6.82161017 L8.95073242,6.82161017 L8.3012207,6.08691243 L8.29897461,6.08936158 L8.26723633,6.05344068 L7.5203125,6.82161017 L5.34741211,6.82161017 L5.34741211,4.48420621 L7.55429688,4.48420621 L8.15722656,5.13371186 L8.28398438,5.26971186 L8.30117188,5.25218362 L9.01425781,4.48425424 L10.8136719,4.48425424 C11.1628906,4.48425424 11.5539551,4.56901412 11.7021484,4.91847458 C11.7199707,4.98767514 11.7303223,5.06460734 11.7303223,5.15200847 C11.7303223,5.81981073 11.2549805,5.95350565 10.7458984,5.95350565 Z M14.1410645,5.9200339 C14.2088867,6.01996893 14.2428711,6.15375989 14.2428711,6.35420621 L14.2428711,6.82156215 L13.6657715,6.82156215 L13.6657715,6.52113277 C13.6657715,6.38734181 13.6657715,6.15375989 13.5637695,6.05344068 C13.4960449,5.95350565 13.3600586,5.95350565 13.1564941,5.95350565 L12.5454102,5.95350565 L12.5454102,6.82161017 L11.9682617,6.82161017 L11.9682617,4.45078249 L13.2583496,4.45078249 C13.5297852,4.45078249 13.7674316,4.45078249 13.9375,4.55086158 C14.1071289,4.65113277 14.2428711,4.81810734 14.2428711,5.08525706 C14.2428711,5.45248588 14.0053223,5.65283616 13.835498,5.71973164 C14.0053223,5.78624294 14.1071289,5.85323446 14.1410645,5.9200339 Z M16.4838379,4.9514661 L15.1595215,4.9514661 L15.1595215,5.3855904 L16.4497559,5.3855904 L16.4497559,5.85318644 L15.1595215,5.85318644 L15.1595215,6.32073446 L16.4838379,6.32073446 L16.4838379,6.82156215 L14.5825195,6.82156215 L14.5825195,4.45073446 L16.4838379,4.45073446 L16.4838379,4.9514661 Z M17.9097168,6.82161017 L16.8231934,6.82161017 L16.8231934,6.32078249 L17.9097168,6.32078249 C18.011377,6.32078249 18.0794434,6.32078249 18.1475098,6.25393503 C18.1814941,6.22046328 18.2152344,6.15380791 18.2152344,6.08696045 C18.2152344,6.02001695 18.1814941,5.95355367 18.1475098,5.92008192 C18.1134277,5.88670621 18.0454102,5.85328249 17.9436035,5.85328249 C17.4003418,5.81985876 16.7552734,5.85328249 16.7552734,5.11872881 C16.7552734,4.78477966 16.9589844,4.41740678 17.570166,4.41740678 L18.6905273,4.41740678 L18.6905273,4.98498588 L17.6380859,4.98498588 C17.5362793,4.98498588 17.4682617,4.98498588 17.400293,5.0184096 C17.3325684,5.05188136 17.3325684,5.11872881 17.3325684,5.1854322 C17.3325684,5.28565537 17.400293,5.3190791 17.4682129,5.35221469 C17.5362793,5.38568644 17.6041016,5.38568644 17.6719238,5.38568644 L17.9775391,5.38568644 C18.2831543,5.38568644 18.4868164,5.45248588 18.6226074,5.58608475 C18.7245117,5.68630791 18.7924316,5.85328249 18.7924316,6.08696045 C18.7924316,6.58769209 18.4868652,6.82161017 17.9097168,6.82161017 Z M20.8295898,6.58769209 C20.6939453,6.72143503 20.4561523,6.82161017 20.1165039,6.82161017 L19.0302734,6.82161017 L19.0302734,6.32078249 L20.1164551,6.32078249 C20.2183594,6.32078249 20.2864258,6.32078249 20.354248,6.25393503 C20.3880859,6.22046328 20.422168,6.15380791 20.422168,6.08696045 C20.422168,6.02001695 20.3880859,5.95355367 20.354248,5.92008192 C20.3202637,5.88670621 20.2524414,5.85328249 20.1505371,5.85328249 C19.6074707,5.81985876 18.962207,5.85328249 18.962207,5.11877684 C18.962207,4.80139548 19.1468262,4.51470056 19.6021484,4.4295565 C19.6565918,4.42216102 19.7141113,4.41740678 19.7770996,4.41740678 L20.8976074,4.41740678 L20.8976074,4.98498588 L20.1505371,4.98498588 L19.8790039,4.98498588 L19.8450195,4.98498588 C19.7431152,4.98498588 19.675293,4.98498588 19.6074707,5.0184096 C19.573291,5.05188136 19.5393066,5.11872881 19.5393066,5.1854322 C19.5393066,5.28565537 19.573291,5.3190791 19.675293,5.35221469 C19.7431152,5.38568644 19.8110352,5.38568644 19.8790039,5.38568644 L19.9127441,5.38568644 L20.1844727,5.38568644 C20.3328613,5.38568644 20.4450684,5.40369492 20.5477539,5.43918362 C20.6417969,5.47265537 20.953125,5.60961582 21.0227539,5.96714407 C21.0288086,6.00460169 21.033252,6.04369209 21.033252,6.08696045 C21.033252,6.28735876 20.965332,6.45428531 20.8295898,6.58769209 Z" id="Shape"></path>
                    </g>
                </g>
            </g>
        </g>
    </g>
</svg>