<?xml version="1.0" encoding="UTF-8"?>
<svg width="80px" height="80px" viewBox="0 0 80 80" version="1.1" xmlns="http://www.w3.org/2000/svg" xmlns:xlink="http://www.w3.org/1999/xlink">
    <!-- Generator: Sketch 53.2 (72643) - https://sketchapp.com -->
    <title>gift</title>
    <desc>Created with Sketch.</desc>
    <g id="gift" stroke="none" stroke-width="1" fill="none" fill-rule="evenodd">
        <g id="Group-2">
            <circle id="Oval" fill="#353167" cx="40" cy="40" r="40"></circle>
            <g id="Group" transform="translate(13.000000, 15.000000)">
                <path d="M49.3214286,13 L5.67857143,13 C4.75116071,13 4,13.7534545 4,14.6818182 L4,21.4090909 C4,22.3374545 4.75116071,23.0909091 5.67857143,23.0909091 L9.03571429,23.0909091 L9.03571429,46.6363636 C9.03571429,48.4939318 10.538875,50 12.3928571,50 L42.6071429,50 C44.461125,50 45.9642857,48.4939318 45.9642857,46.6363636 L45.9642857,23.0909091 L49.3214286,23.0909091 C50.2488393,23.0909091 51,22.3374545 51,21.4090909 L51,14.6818182 C51,13.7534545 50.2488393,13 49.3214286,13" id="Fill-2805" fill="#BF0302"></path>
                <path d="M51,21.3333333 C51,22.2541667 50.2488393,23 49.3214286,23 L5.67857143,23 C4.75116071,23 4,22.2541667 4,21.3333333 L4,14.6666667 C4,13.7458333 4.75116071,13 5.67857143,13 L49.3214286,13 C50.2488393,13 51,13.7458333 51,14.6666667 L51,21.3333333 Z" id="Fill-2806" fill="#DF2C2C"></path>
                <path d="M4.70368117,13 C3.76239732,13 3,13.7466667 3,14.6666667 L3,21.3333333 C3,22.2533333 3.76239732,23 4.70368117,23 L34.777913,23 L45,13 L4.70368117,13 Z" id="Fill-2807" fill="#FA5655"></path>
                <path d="M9,24 L9,46.9900158 C9,47.7511495 9.27241655,48.4433132 9.71177128,49 L35,24 L9,24 Z" id="Fill-2808" fill="#DF2C2C"></path>
                <polygon id="Fill-2809" fill="#F3B607" points="31 50 24 50 24 13 31 13"></polygon>
                <polygon id="Fill-2810" fill="#FACB1B" points="31 27.3859451 31 23 24 23 24 34"></polygon>
                <path d="M43,0.37440976 C43,3.79745249 36.0438457,7.54246459 27,8 C31.0993133,3.69577795 35.2493397,-1.43878614 43,0.37440976" id="Fill-2811" fill="#F3B607"></path>
                <path d="M11,0.37440976 C11,3.79745249 17.9561543,7.54246459 27,8 C22.9006867,3.69577795 18.7506603,-1.43878614 11,0.37440976" id="Fill-2812" fill="#F3B607"></path>
                <path d="M30,13 L30,15.7988927 C37.0062857,21.3713793 42.8837143,28.2644643 45.4285714,36 L48.8571429,31.7835301 L54,33.4701181 C50.2654286,22.8496737 42.0968571,16.1766884 30,13" id="Fill-2813" fill="#F3B607"></path>
                <path d="M27.0394118,7.53488372 C26.985451,7.61525581 26.9753333,7.61525581 26.9213725,7.53488372 C17.8998039,7.0827907 10.9607843,3.38232558 10.9607843,0 L10.9607843,10.8837209 C11.6799804,13.0253023 15.4757843,13.340093 22.8456471,13.3861395 C11.3713922,16.6194419 3.59345098,23.1747907 0,33.4883721 L5.05882353,31.8139535 L8.43137255,36 C10.9354902,28.3202791 16.7160392,21.4769302 23.6078431,15.9446512 L23.6078431,23.4418605 L30.3529412,23.4418605 L30.3529412,15.9630698 C32.5687059,17.7446512 34.6782353,19.6509767 36.593,21.6870698 L40.8651765,17.4449302 C38.0044118,15.752093 34.7583333,14.4058605 31.1480196,13.3861395 C38.4959608,13.3384186 42.2824902,13.0219535 43,10.8837209 L43,0 C43,3.38232558 36.0609804,7.0827907 27.0394118,7.53488372" id="Fill-2814" fill="#FBE158"></path>
            </g>
        </g>
    </g>
</svg>