<svg width="28" height="28" viewBox="0 0 28 28" xmlns="http://www.w3.org/2000/svg" xmlns:xlink="http://www.w3.org/1999/xlink">
    <defs>
        <path id="a" d="M0 .072h8.168v1.007H0z"/>
        <path id="c" d="M0 0h21.533v12.932H0z"/>
        <path id="e" d="M0 0h5.452v7.01H0z"/>
    </defs>
    <g fill="none" fill-rule="evenodd">
        <path d="M11.148 6.401A.432.432 0 0 1 11 5.81l1.2-1.996a.432.432 0 0 1 .74.445l-1.2 1.996a.432.432 0 0 1-.592.147" fill="#8736C1"/>
        <g transform="rotate(31 2.087 17.605)">
            <mask id="b" fill="#fff">
                <use xlink:href="#a"/>
            </mask>
            <path d="M7.737.935H.432a.432.432 0 0 1 0-.863h7.305a.432.432 0 0 1 0 .863" fill="#8736C1" mask="url(#b)"/>
        </g>
        <path d="M3.352 9.786a.412.412 0 0 1-.13-.12L.974 6.49C.751 6.178.748 5.743.964 5.384l1.992-3.315c.187-.312.5-.506.836-.518a.842.842 0 0 1 .727.355l2.038 2.88a.43.43 0 1 1-.703.5l-2.04-2.881c-.003.006-.069.025-.118.108L1.704 5.828c-.046.077-.039.147-.027.163l2.248 3.175a.43.43 0 0 1-.573.62" fill="#8736C1"/>
        <path d="M16.006 19.282 2.697 11.286a.432.432 0 0 1 .445-.74l13.308 7.996a.432.432 0 0 1-.444.74" fill="#FF4722"/>
        <g transform="rotate(31 -1.957 14.392)">
            <mask id="d" fill="#fff">
                <use xlink:href="#c"/>
            </mask>
            <path d="M.928.863.863.927v11.078l12.103.064 7.69-9.743-.21-.506.139.408-6.59 2.253a.94.94 0 0 1-.962-.228L9.728.883l-8.8-.02zm12.038 12.069H.928A.928.928 0 0 1 0 12.005V.927C0 .415.417 0 .928 0H9.68c.25 0 .486.098.662.277l3.306 3.37 6.657-2.236a.919.919 0 0 1 1.055.34.92.92 0 0 1-.027 1.11l-7.639 9.718a.927.927 0 0 1-.729.353z" fill="#8736C1" mask="url(#d)"/>
        </g>
        <g transform="rotate(31 -19.12 53.113)">
            <mask id="f" fill="#fff">
                <use xlink:href="#e"/>
            </mask>
            <path d="M1.002.915.867 4.168a1.86 1.86 0 0 0 1.435 1.929 1.837 1.837 0 0 0 1.538-.314c.687-.501.944-1.5.586-2.275a1.829 1.829 0 0 0-.69-.797l-.006-.004L1.002.915zm1.73 6.095A2.724 2.724 0 0 1 .005 4.126L.143.767a.802.802 0 0 1 .435-.68.79.79 0 0 1 .802.045l2.821 1.85c.439.28.788.683 1.009 1.164.531 1.153.162 2.586-.861 3.332a2.73 2.73 0 0 1-1.617.53z" fill="#FF4722" mask="url(#f)"/>
        </g>
    </g>
</svg>
