<svg width="28" height="28" viewBox="0 0 28 28" xmlns="http://www.w3.org/2000/svg">
    <g fill-rule="nonzero" fill="none">
        <path d="M17.645 23.435v-3.154l1.846 1.855c.224.224.58.255.835.067a7.87 7.87 0 0 0 1.683-1.684l.066-.115a.646.646 0 0 0-.132-.718l-1.848-1.847h3.146l.057-.3c.09-.473.137-.957.137-1.43 0-.48-.047-.963-.137-1.452l-.055-.301h-3.135l1.835-1.825c.22-.22.254-.57.075-.826a7.535 7.535 0 0 0-1.694-1.701l-.115-.067a.644.644 0 0 0-.717.133l-1.848 1.846.001-3.144-.3-.057a7.737 7.737 0 0 0-1.43-.137c-.479 0-.948.046-1.44.136l-.302.056v3.136l-1.834-1.836a.642.642 0 0 0-.834-.066 7.478 7.478 0 0 0-1.829 1.9l-.06.204.108.273 1.983 1.974h-3.12l-.055.302c-.09.489-.136.971-.136 1.452 0 .473.047.957.136 1.43l.057.3h3.131l-1.835 1.838a.643.643 0 0 0-.071.826 7.514 7.514 0 0 0 1.693 1.7l.113.068a.645.645 0 0 0 .718-.134l1.834-1.843.001 3.143.302.056c.492.09.961.136 1.44.136.473 0 .957-.047 1.43-.137l.3-.057zm-1.3-14.106c.143.01.288.023.432.042l.13.02.001 2.771.01.117a.636.636 0 0 0 1.074.333l1.962-1.963.283.22c.34.282.647.59.92.922l.208.274-1.95 1.942-.075.09a.636.636 0 0 0 .524.996l2.756-.001-.046-.301c.082.445.124.883.124 1.318l-.014.43a7.04 7.04 0 0 1-.042.432l-.02.131H19.85l-.117.01a.636.636 0 0 0-.333 1.075l1.962 1.961-.216.276c-.277.333-.583.64-.916.918l-.276.215-1.961-1.97-.09-.076a.636.636 0 0 0-.996.524v2.78l.3-.047a7.001 7.001 0 0 1-1.293.124l-.431-.014a7.041 7.041 0 0 1-.433-.041l-.142-.023.001-2.767-.01-.117a.636.636 0 0 0-1.076-.33l-1.95 1.957-.28-.218a6.778 6.778 0 0 1-.92-.923l-.21-.277 1.953-1.952.075-.09a.636.636 0 0 0-.524-.994h-2.76l.048.3a7.001 7.001 0 0 1-.123-1.294l.013-.436c.01-.146.024-.292.042-.439l.021-.142h2.745l.117-.01a.636.636 0 0 0 .33-1.075l-1.944-1.935.06-.081a6.742 6.742 0 0 1 1.103-1.144l.255-.198 1.95 1.951.09.075c.406.282.995 0 .995-.525V9.392l-.302.047a7.125 7.125 0 0 1 1.307-.124l.43.014z" fill="#8736C1"/>
        <path d="M15.915 8.578c-.479 0-.949.046-1.44.137a7.652 7.652 0 0 0-2.766 1.145l-.343.249a7.44 7.44 0 0 0-1.69 1.796l-.009.022.011-.014a7.535 7.535 0 0 0-1.145 2.74 8.005 8.005 0 0 0-.137 1.457c0 .472.047.956.136 1.43a7.65 7.65 0 0 0 1.145 2.764 7.533 7.533 0 0 0 2.028 2.04 7.652 7.652 0 0 0 2.765 1.148c.496.091.966.137 1.445.137.473 0 .957-.047 1.43-.137a7.708 7.708 0 0 0 2.776-1.144 7.852 7.852 0 0 0 2.03-2.028 7.71 7.71 0 0 0 1.146-2.778c.09-.476.137-.96.137-1.432 0-.482-.046-.964-.136-1.452a7.594 7.594 0 0 0-3.173-4.795 7.71 7.71 0 0 0-2.777-1.148 7.745 7.745 0 0 0-1.433-.137zm0 .737c.426 0 .864.043 1.293.124a6.964 6.964 0 0 1 2.504 1.034 6.854 6.854 0 0 1 2.862 4.323c.081.44.124.878.124 1.314 0 .426-.043.864-.124 1.293a6.964 6.964 0 0 1-1.034 2.504 7.102 7.102 0 0 1-1.832 1.83 6.962 6.962 0 0 1-2.503 1.032c-.426.08-.864.123-1.29.123-.432 0-.858-.041-1.307-.124a6.905 6.905 0 0 1-2.49-1.033 6.793 6.793 0 0 1-1.827-1.839A6.912 6.912 0 0 1 9.256 17.4a6.994 6.994 0 0 1-.124-1.29c0-.436.043-.874.125-1.319l.086-.375a6.8 6.8 0 0 1 .946-2.09l.006-.025a6.828 6.828 0 0 1 1.827-1.831 6.904 6.904 0 0 1 2.491-1.032c.444-.081.87-.123 1.302-.123z" fill="#8736C1"/>
        <path d="M15.915 8.578c-.479 0-.949.046-1.44.137a7.652 7.652 0 0 0-2.766 1.145l-.343.249a7.44 7.44 0 0 0-1.69 1.796l-.009.022.011-.014a7.535 7.535 0 0 0-1.145 2.74 8.005 8.005 0 0 0-.137 1.457c0 .472.047.956.136 1.43a7.65 7.65 0 0 0 1.145 2.764 7.533 7.533 0 0 0 2.028 2.04 7.652 7.652 0 0 0 2.765 1.148c.496.091.966.137 1.445.137.473 0 .957-.047 1.43-.137a7.708 7.708 0 0 0 2.776-1.144 7.852 7.852 0 0 0 2.03-2.028 7.71 7.71 0 0 0 1.146-2.778c.09-.476.137-.96.137-1.432 0-.482-.046-.964-.136-1.452a7.594 7.594 0 0 0-3.173-4.795 7.71 7.71 0 0 0-2.777-1.148 7.745 7.745 0 0 0-1.433-.137zm0 .737c.426 0 .864.043 1.293.124a6.964 6.964 0 0 1 2.504 1.034 6.854 6.854 0 0 1 2.862 4.323c.081.44.124.878.124 1.314 0 .426-.043.864-.124 1.293a6.964 6.964 0 0 1-1.034 2.504 7.102 7.102 0 0 1-1.832 1.83 6.962 6.962 0 0 1-2.503 1.032c-.426.08-.864.123-1.29.123-.432 0-.858-.041-1.307-.124a6.905 6.905 0 0 1-2.49-1.033 6.793 6.793 0 0 1-1.827-1.839A6.912 6.912 0 0 1 9.256 17.4a6.994 6.994 0 0 1-.124-1.29c0-.436.043-.874.125-1.319l.086-.375a6.8 6.8 0 0 1 .946-2.09l.006-.025a6.828 6.828 0 0 1 1.827-1.831 6.904 6.904 0 0 1 2.491-1.032c.444-.081.87-.123 1.302-.123z" fill="#8736C1"/>
        <path d="M15.915 14.194a1.91 1.91 0 1 0-.001 3.82 1.91 1.91 0 0 0 .001-3.82zm0 .737a1.173 1.173 0 1 1 0 2.346 1.173 1.173 0 0 1 0-2.346z" fill="#FF4722"/>
        <path d="M15.915 4.493C9.445 4.493 4.2 9.74 4.2 16.21c0 6.47 5.245 11.716 11.715 11.716S27.63 22.68 27.63 16.21c0-6.47-5.245-11.717-11.716-11.717zm0 .737c6.064 0 10.98 4.916 10.98 10.98 0 6.063-4.916 10.98-10.98 10.98-6.063 0-10.979-4.917-10.979-10.98 0-6.064 4.916-10.98 10.979-10.98z" fill="#FF4722"/>
        <path d="M15.915 4.493C9.445 4.493 4.2 9.74 4.2 16.21c0 6.47 5.245 11.716 11.715 11.716S27.63 22.68 27.63 16.21c0-6.47-5.245-11.717-11.716-11.717zm0 .737c6.064 0 10.98 4.916 10.98 10.98 0 6.063-4.916 10.98-10.98 10.98-6.063 0-10.979-4.917-10.979-10.98 0-6.064 4.916-10.98 10.979-10.98z" fill="#FF4722"/>
        <path d="M16.283 5.23V.663h-.368C7.47.663.597 7.398.374 15.79l-.006.79h4.567v-.37c0-6.062 4.917-10.979 10.98-10.979h.368zm-.737-3.826v3.094l-.358.017C9.297 4.876 4.58 9.592 4.22 15.483l-.018.358H1.11l.018-.458C1.542 7.86 7.57 1.833 15.095 1.423l.45-.019z" fill="#8736C1"/>
    </g>
</svg>
