<svg width="28" height="28" viewBox="0 0 28 28" xmlns="http://www.w3.org/2000/svg">
    <g fill-rule="nonzero" fill="none">
        <path d="M14.008 4.718c-.59 0-1.17.057-1.777.169l-.302.055-.001 4.047L9.49 6.55a.71.71 0 0 0-.92-.072A9.223 9.223 0 0 0 6.314 8.82l-.062.204v.014l.109.261 2.626 2.614h-4.03l-.055.302a9.863 9.863 0 0 0-.168 1.792c0 .584.058 1.18.168 1.764l.057.3h4.044l-2.44 2.443a.71.71 0 0 0-.08.912 9.268 9.268 0 0 0 2.088 2.098l.11.066a.713.713 0 0 0 .809-.14l2.438-2.451.001 4.059.302.055a9.698 9.698 0 0 0 1.777.169c.583 0 1.18-.059 1.764-.169l.3-.057v-4.072l2.454 2.465c.247.247.64.281.922.074a9.71 9.71 0 0 0 2.076-2.078l.066-.11a.713.713 0 0 0-.14-.81l-2.456-2.454h4.063l.057-.3c.11-.583.168-1.18.168-1.764 0-.593-.057-1.189-.168-1.792l-.056-.301h-4.047l2.44-2.427a.715.715 0 0 0 .083-.913 9.293 9.293 0 0 0-2.089-2.098l-.11-.066a.712.712 0 0 0-.809.14l-2.454 2.454v-4.06l-.3-.057a9.546 9.546 0 0 0-1.764-.169zm.405.747c.27.013.544.04.816.078l.106.017v3.531l.01.12a.702.702 0 0 0 1.186.378l2.5-2.502.346.267c.48.389.91.82 1.285 1.288l.254.337-2.485 2.474-.078.093a.701.701 0 0 0 .572 1.105h3.512l-.048-.302c.103.56.156 1.11.156 1.658l-.01.405a8.85 8.85 0 0 1-.078.816l-.019.106H18.91l-.12.01a.702.702 0 0 0-.376 1.187l2.5 2.499-.261.339c-.383.47-.812.898-1.281 1.282l-.34.262-2.499-2.51-.092-.08a.701.701 0 0 0-1.105.574v3.541l.3-.049a8.81 8.81 0 0 1-1.627.156l-.407-.01a8.876 8.876 0 0 1-.818-.078l-.118-.02.001-3.526-.01-.12a.7.7 0 0 0-1.187-.374l-2.485 2.496-.344-.265a8.532 8.532 0 0 1-1.285-1.29l-.256-.34 2.488-2.487.078-.092a.701.701 0 0 0-.573-1.104l-3.516-.001.05.3a8.81 8.81 0 0 1-.155-1.627l.01-.411c.013-.275.039-.551.078-.829l.019-.117h3.496l.121-.01a.7.7 0 0 0 .373-1.187L7.094 8.988l.077-.108a8.487 8.487 0 0 1 1.487-1.542l.326-.251 2.485 2.486.093.078a.702.702 0 0 0 1.104-.574l-.001-3.515-.3.05a8.964 8.964 0 0 1 1.643-.157l.405.01z" fill="#8736C1"/>
        <path d="M14.008 4.718c-.59 0-1.17.057-1.777.169a9.438 9.438 0 0 0-3.41 1.412l-.372.267A9.19 9.19 0 0 0 6.314 8.82l-.008.024.01-.012a9.294 9.294 0 0 0-1.413 3.378 9.877 9.877 0 0 0-.169 1.797c0 .584.058 1.18.169 1.764a9.436 9.436 0 0 0 1.412 3.41 9.292 9.292 0 0 0 2.5 2.517 9.439 9.439 0 0 0 3.412 1.414 9.71 9.71 0 0 0 1.781.17c.584 0 1.18-.059 1.764-.169a9.508 9.508 0 0 0 3.424-1.412A9.687 9.687 0 0 0 21.7 19.2a9.51 9.51 0 0 0 1.414-3.426c.111-.586.17-1.183.17-1.767 0-.593-.058-1.189-.169-1.792a9.365 9.365 0 0 0-1.412-3.396 9.292 9.292 0 0 0-2.501-2.517 9.51 9.51 0 0 0-3.426-1.415 9.553 9.553 0 0 0-1.767-.169zm0 .737a8.81 8.81 0 0 1 1.627.156 8.764 8.764 0 0 1 3.153 1.3 8.552 8.552 0 0 1 2.3 2.316 8.626 8.626 0 0 1 1.303 3.127c.102.555.155 1.106.155 1.653a8.81 8.81 0 0 1-.156 1.627 8.764 8.764 0 0 1-1.301 3.153 8.937 8.937 0 0 1-2.306 2.304 8.762 8.762 0 0 1-3.15 1.299 8.803 8.803 0 0 1-1.625.155c-.544 0-1.079-.052-1.643-.156a8.69 8.69 0 0 1-3.136-1.301 8.552 8.552 0 0 1-2.3-2.315 8.698 8.698 0 0 1-1.303-3.141 8.803 8.803 0 0 1-.155-1.625c0-.547.053-1.098.156-1.658l.094-.414a8.558 8.558 0 0 1 1.205-2.69l.006-.024a8.553 8.553 0 0 1 2.301-2.312A8.69 8.69 0 0 1 12.37 5.61a8.951 8.951 0 0 1 1.64-.155z" fill="#FF4722"/>
        <path d="M11.546-.163C5.596.827.806 5.63-.17 11.584c-1.609 9.827 6.778 18.2 16.62 16.584 5.964-.98 10.77-5.79 11.738-11.751C29.767 6.704 21.59-1.581 11.928-.222l-.382.059zM27.46 16.298c-.918 5.65-5.479 10.214-11.131 11.142C6.985 28.975-.97 21.033.557 11.703 1.482 6.061 6.028 1.502 11.667.563A13.658 13.658 0 0 1 27.46 16.299z" fill="#FF4722"/>
        <path d="M14.008 4.718c-.59 0-1.17.057-1.777.169A9.438 9.438 0 0 0 8.82 6.299l-.371.268A9.19 9.19 0 0 0 6.313 8.82l-.009.027.012-.015a9.294 9.294 0 0 0-1.413 3.378 9.877 9.877 0 0 0-.17 1.797c0 .584.059 1.18.17 1.765a9.436 9.436 0 0 0 1.411 3.409 9.292 9.292 0 0 0 2.501 2.517 9.439 9.439 0 0 0 3.411 1.415 9.71 9.71 0 0 0 1.782.169c.583 0 1.18-.058 1.764-.169a9.508 9.508 0 0 0 3.424-1.412 9.687 9.687 0 0 0 2.503-2.501 9.51 9.51 0 0 0 1.414-3.426c.111-.586.17-1.183.17-1.767 0-.593-.058-1.189-.17-1.791a9.365 9.365 0 0 0-1.411-3.397A9.292 9.292 0 0 0 19.2 6.302a9.51 9.51 0 0 0-3.425-1.414 9.553 9.553 0 0 0-1.767-.17zm0 .737a8.81 8.81 0 0 1 1.627.156 8.764 8.764 0 0 1 3.152 1.301 8.552 8.552 0 0 1 2.3 2.315 8.626 8.626 0 0 1 1.303 3.127c.102.555.155 1.106.155 1.653a8.81 8.81 0 0 1-.155 1.628 8.764 8.764 0 0 1-1.302 3.152 8.937 8.937 0 0 1-2.305 2.304 8.762 8.762 0 0 1-3.15 1.299 8.803 8.803 0 0 1-1.625.155c-.544 0-1.08-.052-1.644-.156a8.69 8.69 0 0 1-3.136-1.301 8.552 8.552 0 0 1-2.3-2.315 8.698 8.698 0 0 1-1.302-3.141 8.803 8.803 0 0 1-.156-1.625c0-.547.053-1.098.157-1.658l.093-.414a8.558 8.558 0 0 1 1.206-2.69l.008-.027a8.551 8.551 0 0 1 2.299-2.309 8.69 8.69 0 0 1 3.136-1.299 8.951 8.951 0 0 1 1.639-.155z" fill="#8736C1"/>
        <path d="M14.008 4.718c-.59 0-1.17.057-1.777.169A9.438 9.438 0 0 0 8.82 6.299l-.371.268A9.19 9.19 0 0 0 6.313 8.82l-.009.027.012-.015a9.294 9.294 0 0 0-1.413 3.378 9.877 9.877 0 0 0-.17 1.797c0 .584.059 1.18.17 1.765a9.436 9.436 0 0 0 1.411 3.409 9.292 9.292 0 0 0 2.501 2.517 9.439 9.439 0 0 0 3.411 1.415 9.71 9.71 0 0 0 1.782.169c.583 0 1.18-.058 1.764-.169a9.508 9.508 0 0 0 3.424-1.412 9.687 9.687 0 0 0 2.503-2.501 9.51 9.51 0 0 0 1.414-3.426c.111-.586.17-1.183.17-1.767 0-.593-.058-1.189-.17-1.791a9.365 9.365 0 0 0-1.411-3.397A9.292 9.292 0 0 0 19.2 6.302a9.51 9.51 0 0 0-3.425-1.414 9.553 9.553 0 0 0-1.767-.17zm0 .737a8.81 8.81 0 0 1 1.627.156 8.764 8.764 0 0 1 3.152 1.301 8.552 8.552 0 0 1 2.3 2.315 8.626 8.626 0 0 1 1.303 3.127c.102.555.155 1.106.155 1.653a8.81 8.81 0 0 1-.155 1.628 8.764 8.764 0 0 1-1.302 3.152 8.937 8.937 0 0 1-2.305 2.304 8.762 8.762 0 0 1-3.15 1.299 8.803 8.803 0 0 1-1.625.155c-.544 0-1.08-.052-1.644-.156a8.69 8.69 0 0 1-3.136-1.301 8.552 8.552 0 0 1-2.3-2.315 8.698 8.698 0 0 1-1.302-3.141 8.803 8.803 0 0 1-.156-1.625c0-.547.053-1.098.157-1.658l.093-.414a8.558 8.558 0 0 1 1.206-2.69l.008-.027a8.551 8.551 0 0 1 2.299-2.309 8.69 8.69 0 0 1 3.136-1.299 8.951 8.951 0 0 1 1.639-.155z" fill="#8736C1"/>
        <path d="M14.008 11.712a2.289 2.289 0 1 0-.002 4.577 2.289 2.289 0 0 0 .002-4.577zm0 .737a1.551 1.551 0 1 1 0 3.103 1.551 1.551 0 0 1 0-3.103z" fill="#FF4722"/>
    </g>
</svg>
