<svg width="28" height="28" viewBox="0 0 28 28" xmlns="http://www.w3.org/2000/svg">
    <g fill-rule="nonzero" fill="none">
        <path d="m4.503 22.89.21-.02.004-.016A2.465 2.465 0 0 0 5.838 25.4l1.5.925.205.112c.834.408 1.83.316 2.58-.255l.44-.338.198.508a2.456 2.456 0 0 0 2.295 1.575h1.761l.216-.01a2.463 2.463 0 0 0 1.992-1.367l.07-.16c.77.636 1.85.74 2.73.263l1.487-.807.186-.111a2.48 2.48 0 0 0 1.105-2.367l-.08-.594.624.096a2.47 2.47 0 0 0 2.473-1.206l.84-1.47.108-.206a2.466 2.466 0 0 0-.169-2.384l-.148-.205-.032.015a2.458 2.458 0 0 0 1.629-2.265l.055-1.684-.004-.213a2.466 2.466 0 0 0-1.464-2.112l-.572-.243.358-.452c.633-.798.71-1.905.193-2.782l-.835-1.464-.114-.18a2.453 2.453 0 0 0-2.142-1.05l-.208.02-.002.017c.187-1-.26-2.014-1.123-2.546l-1.469-.9-.203-.112a2.465 2.465 0 0 0-2.573.249l-.468.352-.208-.54a2.477 2.477 0 0 0-2.292-1.582h-1.724l-.217.011c-.858.08-1.61.6-1.989 1.372l-.082.184-.027-.022A2.467 2.467 0 0 0 8 1.206l-1.483.808-.187.11a2.46 2.46 0 0 0-1.103 2.362l.077.595-.623-.092a2.454 2.454 0 0 0-2.473 1.21L1.37 7.667l-.108.205a2.468 2.468 0 0 0 .312 2.58l.031-.012a2.477 2.477 0 0 0-1.623 2.27l-.055 1.684.003.214a2.466 2.466 0 0 0 1.465 2.111l.57.242-.356.454a2.455 2.455 0 0 0-.2 2.782l.843 1.464a2.46 2.46 0 0 0 2.25 1.23zM13.058.663h1.716a1.74 1.74 0 0 1 1.608 1.11l.385.997c.089.229.371.31.566.161l.857-.648a1.727 1.727 0 0 1 1.945-.097l1.47.9c.602.372.915 1.083.784 1.784l-.092.489a.368.368 0 0 0 .415.432l.502-.073a1.715 1.715 0 0 1 1.725.846l.838 1.468a1.73 1.73 0 0 1-.134 1.956l-.655.832a.368.368 0 0 0 .145.567l1.01.429c.635.28 1.043.926 1.023 1.626l-.055 1.687a1.724 1.724 0 0 1-1.145 1.592l-.45.166a.368.368 0 0 0-.159.577l.33.41c.443.558.498 1.334.135 1.948l-.84 1.473a1.73 1.73 0 0 1-1.728.845l-1.101-.17a.368.368 0 0 0-.422.412l.14 1.076a1.742 1.742 0 0 1-.91 1.738l-1.487.809a1.72 1.72 0 0 1-1.915-.187l-.382-.322a.368.368 0 0 0-.58.148l-.172.44a1.726 1.726 0 0 1-1.608 1.105h-1.761a1.72 1.72 0 0 1-1.608-1.103l-.373-.967a.368.368 0 0 0-.568-.16l-.832.636a1.726 1.726 0 0 1-1.95.101l-1.498-.923a1.728 1.728 0 0 1-.786-1.784l.092-.496a.368.368 0 0 0-.42-.431l-.507.08a1.72 1.72 0 0 1-1.716-.848l-.844-1.468a1.72 1.72 0 0 1 .14-1.953l.656-.835a.368.368 0 0 0-.145-.567l-1.01-.428a1.727 1.727 0 0 1-1.023-1.626l.055-1.687a1.742 1.742 0 0 1 1.141-1.599l.447-.165a.368.368 0 0 0 .16-.577l-.324-.403a1.728 1.728 0 0 1-.135-1.95l.84-1.472a1.716 1.716 0 0 1 1.728-.846l1.103.165a.368.368 0 0 0 .42-.412l-.14-1.077a1.724 1.724 0 0 1 .908-1.73l1.484-.81a1.727 1.727 0 0 1 1.914.181l.416.356c.193.165.49.09.583-.146l.184-.47a1.734 1.734 0 0 1 1.61-1.112z" fill="#8736C1"/>
        <path d="M13.913 10.594a3.333 3.333 0 0 0-3.33 3.335 3.333 3.333 0 1 0 6.665 0 3.334 3.334 0 0 0-3.335-3.335zm0 .737a2.598 2.598 0 1 1 0 5.197 2.597 2.597 0 0 1-2.594-2.599 2.597 2.597 0 0 1 2.594-2.598z" fill="#000"/>
        <path d="M13.913 10.594a3.333 3.333 0 0 0-3.33 3.335 3.333 3.333 0 1 0 6.665 0 3.334 3.334 0 0 0-3.335-3.335zm0 .737a2.598 2.598 0 1 1 0 5.197 2.597 2.597 0 0 1-2.594-2.599 2.597 2.597 0 0 1 2.594-2.598z" fill="#8736C1"/>
        <path d="M13.914 19.494a1.862 1.862 0 1 0 .002 3.725 1.862 1.862 0 0 0-.002-3.725zm0 .737a1.125 1.125 0 1 1 .001 2.25 1.125 1.125 0 0 1-.001-2.25zM13.914 4.639a1.862 1.862 0 1 0 .002 3.724 1.862 1.862 0 0 0-.002-3.724zm0 .737a1.125 1.125 0 1 1 .001 2.25 1.125 1.125 0 0 1-.001-2.25zM6.487 12.067a1.862 1.862 0 1 0 0 3.725 1.862 1.862 0 0 0 0-3.725zm0 .737a1.125 1.125 0 1 1 .001 2.25 1.125 1.125 0 0 1 0-2.25zM21.342 12.067a1.862 1.862 0 1 0 0 3.725 1.862 1.862 0 0 0 0-3.725zm0 .737a1.125 1.125 0 1 1 .002 2.25 1.125 1.125 0 0 1-.002-2.25z" fill="#FF4722"/>
    </g>
</svg>
