<svg width="28" height="28" viewBox="0 0 28 28" xmlns="http://www.w3.org/2000/svg">
    <g fill-rule="nonzero" fill="none">
        <path d="M21.99 11.95 14.18 0 6.358 11.97a9.62 9.62 0 0 0-1.937 5.833c0 5.393 4.369 9.765 9.753 9.765a9.763 9.763 0 0 0 7.815-15.617zm-15.03.444 7.22-11.049 7.206 11.028a9.026 9.026 0 0 1-7.211 14.458c-4.978 0-9.017-4.042-9.017-9.028 0-1.99.636-3.87 1.802-5.409z" fill="#8736C1"/>
        <path d="M21.99 11.95 14.18 0 6.358 11.97a9.62 9.62 0 0 0-1.937 5.833c0 5.393 4.369 9.765 9.753 9.765a9.763 9.763 0 0 0 7.815-15.617zm-15.03.444 7.22-11.049 7.206 11.028a9.026 9.026 0 0 1-7.211 14.458c-4.978 0-9.017-4.042-9.017-9.028 0-1.99.636-3.87 1.802-5.409z" fill="#8736C1"/>
        <path d="M7.86 18.948a.368.368 0 0 1 .483.196 9.04 9.04 0 0 0 2.373 3.281.368.368 0 0 1-.485.555 9.777 9.777 0 0 1-2.567-3.55.368.368 0 0 1 .196-.482z" fill="#FF4722"/>
    </g>
</svg>
