<svg width="28" height="28" viewBox="0 0 28 28" xmlns="http://www.w3.org/2000/svg">
    <g fill-rule="nonzero" fill="none">
        <path d="M22.172 3.304c.173.028.298.171.31.338l-.005.085-.692 4.285 4.284.693c.172.028.297.17.309.337l-.004.085a.369.369 0 0 1-.338.31l-.085-.005-5.011-.81.81-5.013a.369.369 0 0 1 .338-.308l.084.003zM2.047 17.825l5.012.81-.81 5.013a.368.368 0 0 1-.732-.032l.004-.085.691-4.286-4.282-.692a.369.369 0 0 1-.309-.338l.004-.085a.369.369 0 0 1 .337-.308l.085.003z" fill="#FF4722"/>
        <path d="M24.367 5.694a.368.368 0 0 1 .503.53l-.072.068-21.511 15.52a.368.368 0 0 1-.503-.53l.071-.068 21.512-15.52z" fill="#8736C1"/>
        <path d="M25.896 18.225a.368.368 0 0 1 .19.707l-.082.022-4.293.639.64 4.293a.369.369 0 0 1-.227.396l-.082.023a.369.369 0 0 1-.397-.228l-.022-.083-.748-5.02 5.02-.749zM5.954 3.454a.369.369 0 0 1 .397.228l.022.082.748 5.022-5.021.748a.368.368 0 0 1-.19-.707l.081-.022 4.292-.64-.64-4.292a.369.369 0 0 1 .229-.397l.082-.022z" fill="#FF4722"/>
        <path d="M2.873 5.64a.369.369 0 0 1 .429-.125l.086.048L24.704 21.35a.368.368 0 0 1-.352.64l-.086-.048L2.95 6.155a.368.368 0 0 1-.077-.515z" fill="#8736C1"/>
        <path d="M16.86 1.045a.368.368 0 0 1 .58.442l-.06.079-3.59 3.59-3.59-3.59a.368.368 0 0 1 .443-.581l.078.06 3.069 3.068 3.07-3.068zM13.79 22.271l3.59 3.59a.368.368 0 0 1-.442.581l-.079-.06-3.07-3.07-3.068 3.07a.369.369 0 0 1-.442.06l-.079-.06a.369.369 0 0 1-.06-.442l.06-.079 3.59-3.59z" fill="#FF4722"/>
        <path d="M13.79.295c.175 0 .32.12.36.284l.009.084V27.19a.368.368 0 0 1-.727.085l-.01-.085V.663c0-.203.165-.368.368-.368z" fill="#8736C1"/>
    </g>
</svg>
