<svg xmlns="http://www.w3.org/2000/svg" xmlns:xlink="http://www.w3.org/1999/xlink" width="60" height="60" viewBox="0 0 60 60">
    <defs>
        <path id="prefix__a" d="M17.246 25.394H.92c-.5 0-.907-.406-.907-.907V.907C.014.407.42 0 .921 0h16.325c.5 0 .907.406.907.907v23.58c0 .5-.407.907-.907.907z"/>
        <path id="prefix__c" d="M.013 7.873v7.053h3.47V7.873c0-2.394 1.944-4.336 4.338-4.336 2.395 0 4.338 1.942 4.338 4.336v7.053h3.47V7.873c0-4.301-3.505-7.804-7.808-7.804S.013 3.572.013 7.873z"/>
        <path id="prefix__e" d="M.037 3.537c2.388 0 4.325 1.942 4.325 4.336v7.053h3.46V7.873C7.822 3.572 4.327.069.037.069v3.468z"/>
    </defs>
    <g fill="none" fill-rule="evenodd">
        <path fill="#EFF2FA" fill-rule="nonzero" d="M47.38 53.115H2.036c-1.002 0-1.814-.812-1.814-1.814V22.28c0-1.002.812-1.814 1.814-1.814h45.346c1.002 0 1.814.812 1.814 1.814V51.3c0 1.003-.812 1.815-1.814 1.815z" transform="translate(3 3)"/>
        <path fill="#8B88AA" fill-rule="nonzero" d="M47.38 20.245H2.036C.911 20.245 0 21.155 0 22.28V51.3c0 1.125.911 2.036 2.035 2.036h45.346c1.124 0 2.035-.911 2.035-2.035V22.28c0-1.124-.911-2.035-2.035-2.035zm-45.345.442h45.346c.88 0 1.592.713 1.592 1.593V51.3c0 .88-.713 1.593-1.592 1.593H2.035c-.88 0-1.592-.713-1.592-1.592V22.28c0-.88.713-1.593 1.592-1.593z" transform="translate(3 3)"/>
        <g fill="#353167" fill-rule="nonzero">
            <path d="M15.418 1.814H.907c-.5 0-.907-.406-.907-.907S.406 0 .907 0h14.51c.501 0 .908.406.908.907 0 .5-.407.907-.907.907zM19.952 5.442H.907c-.5 0-.907-.407-.907-.907 0-.501.406-.907.907-.907h19.045c.501 0 .907.406.907.907 0 .5-.406.907-.907.907z" transform="translate(3 3) translate(24.708 26.814)"/>
        </g>
        <path fill="#8B88AA" fill-rule="nonzero" d="M27.429 40.418h-1.814c-.5 0-.907-.406-.907-.907 0-.5.406-.907.907-.907h1.814c.5 0 .907.406.907.907 0 .5-.406.907-.907.907z" transform="translate(3 3)"/>
        <path fill="#B6B4CC" fill-rule="nonzero" d="M41.94 40.418H31.055c-.5 0-.907-.406-.907-.907 0-.5.407-.907.907-.907H41.94c.501 0 .907.406.907.907 0 .5-.406.907-.907.907z" transform="translate(3 3)"/>
        <path fill="#8B88AA" fill-rule="nonzero" d="M27.429 44.046h-1.814c-.5 0-.907-.407-.907-.907 0-.501.406-.907.907-.907h1.814c.5 0 .907.406.907.907 0 .5-.406.907-.907.907z" transform="translate(3 3)"/>
        <path fill="#B6B4CC" fill-rule="nonzero" d="M44.66 44.046H31.056c-.5 0-.907-.407-.907-.907 0-.501.407-.907.907-.907H44.66c.501 0 .907.406.907.907 0 .5-.406.907-.907.907z" transform="translate(3 3)"/>
        <path fill="#8B88AA" fill-rule="nonzero" d="M27.429 47.673h-1.814c-.5 0-.907-.406-.907-.907 0-.5.406-.907.907-.907h1.814c.5 0 .907.406.907.907s-.406.907-.907.907z" transform="translate(3 3)"/>
        <path fill="#B6B4CC" fill-rule="nonzero" d="M38.312 47.673h-7.256c-.5 0-.907-.406-.907-.907 0-.5.407-.907.907-.907h7.256c.5 0 .907.406.907.907s-.406.907-.907.907z" transform="translate(3 3)"/>
        <g transform="translate(3 3) translate(2.933 25)">
            <mask id="prefix__b" fill="#fff">
                <use xlink:href="#prefix__a"/>
            </mask>
            <use fill="#8B88AA" fill-rule="nonzero" xlink:href="#prefix__a"/>
            <path fill="#353167" d="M13.575 12.966c.19-.158.365-.475.524-.952.192-.952.033-1.65-.476-2.094 0-2.757-2.29-4.1-4.53-4.1-2.242 0-4.531 1.343-4.531 4.1-.51.443-.668 1.142-.477 2.094.159.477.334.794.524.952.096 1.174.78 4.978 4.483 4.978 3.703 0 4.387-3.804 4.483-4.978z" mask="url(#prefix__b)"/>
            <path fill="#353167" d="M18.808 21.213c-.307-.58-.912-1.092-1.816-1.534-.747-.365-3.404-1.65-4.217-2.044-.923.815-2.148 1.342-3.731 1.342H9.04c-1.583 0-2.806-.525-3.729-1.338-.643.33-2.395 1.223-2.886 1.418-.626.249-1.252.567-1.878.954-.627.386-1.051.788-1.273 1.202-.612 1.217-.919 2.474-.919 3.773 0 .305.154.457.46.457h20.45c.307 0 .46-.152.46-.457 0-1.299-.306-2.556-.918-3.773" mask="url(#prefix__b)"/>
        </g>
        <g>
            <g transform="translate(3 3) translate(31.71) translate(3.493)">
                <mask id="prefix__d" fill="#fff">
                    <use xlink:href="#prefix__c"/>
                </mask>
                <path fill="#8B88AA" d="M-2.803 17.742L18.446 17.742 18.446 -2.747 -2.803 -2.747z" mask="url(#prefix__d)"/>
            </g>
            <g transform="translate(3 3) translate(31.71) translate(11.301)">
                <mask id="prefix__f" fill="#fff">
                    <use xlink:href="#prefix__e"/>
                </mask>
                <path fill="#B6B4CC" d="M-2.771 17.742L10.63 17.742 10.63 -2.747 -2.771 -2.747z" mask="url(#prefix__f)"/>
            </g>
            <path fill="#F2DA3E" d="M0 14.075H11.301V29.588H0z" transform="translate(3 3) translate(31.71)"/>
            <path fill="#E1C618" d="M11.301 14.075H22.602V29.588H11.301z" transform="translate(3 3) translate(31.71)"/>
            <g fill="#8B88AA">
                <path d="M2.362 0v5.025C1.044 4.945 0 3.85 0 2.512 0 1.122 1.127-.005 2.517-.005L2.362 0z" transform="translate(3 3) translate(31.71) translate(8.938 17.054)"/>
                <path d="M1.336 3.797H2.363V7.7010000000000005H1.336z" transform="translate(3 3) translate(31.71) translate(8.938 17.054)"/>
                <g>
                    <path d="M2.362 0v5.025C1.044 4.945 0 3.85 0 2.512 0 1.122 1.127-.005 2.517-.005L2.362 0z" transform="translate(3 3) translate(31.71) translate(8.938 17.054) matrix(-1 0 0 1 4.726 0)"/>
                    <path d="M1.336 3.797H2.363V7.7010000000000005H1.336z" transform="translate(3 3) translate(31.71) translate(8.938 17.054) matrix(-1 0 0 1 4.726 0)"/>
                </g>
            </g>
        </g>
    </g>
</svg>
