<?xml version="1.0" encoding="UTF-8"?>
<svg width="200px" height="200px" viewBox="0 0 200 200" version="1.1" xmlns="http://www.w3.org/2000/svg" xmlns:xlink="http://www.w3.org/1999/xlink">
    <!-- Generator: Sketch 43.2 (39069) - http://www.bohemiancoding.com/sketch -->
    <title>assets/img_pdf_download</title>
    <desc>Created with Sketch.</desc>
    <defs></defs>
    <g id="Freshness" stroke="none" stroke-width="1" fill="none" fill-rule="evenodd">
        <g id="Circular-Icons" transform="translate(-250.000000, -3500.000000)">
            <g id="assets/img_pdf_download" transform="translate(250.000000, 3500.000000)">
                <path d="M100,200 C155.228475,200 200,155.228475 200,100 C200,44.771525 155.228475,0 100,0 C44.771525,0 0,44.771525 0,100 C0,155.228475 44.771525,200 100,200 Z" id="background" fill="#3B2469"></path>
                <g id="Group" transform="translate(40.000000, 45.000000)">
                    <g id="laptop" transform="translate(0.000000, 43.510000)">
                        <path d="M105,7.38777778 C105,3.3078775 101.641875,0 97.5,0 L22.5,0 C18.358125,0 15,3.3078775 15,7.38777778 L15,51.7144444 L105,51.7144444 L105,7.38777778 Z" id="Fill-6666" fill="#F0F1F1"></path>
                        <path d="M0,51.7144444 L0,59.1022222 C4.801875,63.8322469 11.315625,66.49 18.106875,66.49 L101.893125,66.49 C108.684375,66.49 115.198125,63.8322469 120,59.1022222 L120,51.7144444 L0,51.7144444 Z" id="Fill-6667" fill="#FFFFFF"></path>
                        <polygon id="Fill-6668" fill="#3E3E3F" points="97.5 51.7144444 22.5 51.7144444 22.5 7.38777778 97.5 7.38777778"></polygon>
                        <polygon id="Fill-6669" fill="#5B5C5F" points="22.5 51.7144444 22.5 7.38777778 97.5 7.38777778"></polygon>
                        <polygon id="Fill-6670" fill="#E2E4E5" points="37.5 51.7144444 45 59.1022222 75 59.1022222 82.5 51.7144444"></polygon>
                    </g>
                    <g id="PDF" transform="translate(36.000000, 0.000000)">
                        <path d="M0,3.7932 C0,1.69804969 1.719,0 3.84,0 L32,0 L48,13.2762 L48,59.4268 C48,61.5219503 46.281,63.22 44.16,63.22 L3.84,63.22 C1.719,63.22 0,61.5219503 0,59.4268 L0,3.7932 Z" id="Fill-253" fill="#F0386B"></path>
                        <path d="M31.6363636,0 L31.6363636,9.34285714 C31.6363636,11.4070446 33.3944318,13.08 35.5636364,13.08 L48,13.08" id="Fill-254" fill="#DB3362"></path>
                        <path d="M15.0700392,21.6596937 C13.277531,22.4788283 16.5565831,26.2328624 17.9203387,27.648367 C17.687846,25.7044207 16.8565087,20.8425569 15.0700392,21.6596937 M20.8048578,39.2321295 C20.8561874,39.2650947 20.9195945,39.2690905 20.9749499,39.242119 C22.2823436,38.5938039 23.6299958,37.9824497 24.9776479,37.4280354 C25.0360227,37.4040608 25.0762812,37.3501178 25.0813135,37.2881832 C23.8111589,36.4580602 22.5520753,35.5670015 21.3443213,34.6459745 C21.2909788,34.6050178 21.21952,34.5960273 21.1581259,34.6239977 C21.0997511,36.1563789 20.9809886,37.7097378 20.8048578,39.2321295 M32.5341622,38.049379 C34.5259499,38.9744018 39.3146945,40.8823861 39.5169933,38.7046867 C39.7162727,36.5469662 34.6346477,37.526931 32.5341622,38.049379 M16.6622616,45.1938314 C14.681545,46.5444046 10.3104819,49.8838766 12.331457,51.214471 C14.3947034,52.5730357 16.0493264,47.5343588 16.6622616,45.1938314 M13.0963679,54.5 C12.2750951,54.5 11.4558353,54.2342807 10.6617371,53.7118326 C9.00711406,52.621984 8.69813033,51.2524308 8.72933064,50.2944429 C8.84104789,46.9309962 13.421455,43.5066138 17.5006442,41.1161392 C17.9666359,38.1852355 18.2031544,35.0145851 18.1789993,32.0487183 C14.7831976,29.0448917 11.0884768,24.9731932 11.5444039,21.7895565 C11.6712181,20.9024936 12.1674037,19.6877769 13.8049169,18.9375694 C14.3967163,18.6668554 14.9885158,18.53 15.5652183,18.53 C18.9187487,18.53 20.8994652,22.8294579 21.169197,30.6581873 C23.4880847,32.6051305 26.1370918,34.4851444 28.7408082,36.0315108 C31.1683937,35.2313561 34.3860517,34.3792563 37.0803496,34.3792563 C39.1415831,34.3792563 40.6553015,34.890716 41.5812462,35.8986511 C42.0905158,36.4520665 42.6662119,37.436027 42.5232944,38.9803955 C42.3069051,41.3119323 40.6623467,42.7034623 38.1230439,42.7034623 C35.1761241,42.7034623 31.3294276,40.9343313 28.4237727,39.313044 C25.673113,40.3029982 22.810736,41.5966316 20.236207,43.0141341 C19.224713,48.414429 17.1785764,54.4990011 13.0963679,54.5" id="Fill-255" fill="#FFFFFF"></path>
                    </g>
                    <path d="M70.7995636,69.003431 C70.5770182,68.467151 70.0522909,68.116171 69.4708364,68.116171 L65.7519273,68.116171 L65.7519273,58.058741 C65.7519273,57.265221 65.1082909,56.622121 64.3141091,56.622121 L55.6861091,56.622121 C54.8919273,56.622121 54.2482909,57.265221 54.2482909,58.058741 L54.2482909,68.116171 L50.5293818,68.116171 C49.9479273,68.116171 49.4232,68.467151 49.2006545,69.003431 C48.9781091,69.540801 49.1002909,70.157741 49.5126545,70.569761 L58.9555636,79.206921 C59.5173818,79.768271 60.4272,79.768271 60.9890182,79.206921 L70.4875636,70.569761 C70.8988364,70.157741 71.0221091,69.540801 70.7995636,69.003431" id="Fill-6672" fill="#F3B607"></path>
                </g>
            </g>
        </g>
    </g>
</svg>