<svg width="37" height="14" xmlns="http://www.w3.org/2000/svg" xmlns:xlink="http://www.w3.org/1999/xlink">
    <defs>
        <path id="a" d="M.485.613h6.318V6.3H.485z"/>
        <path id="c" d="M.54.613h6.318V6.3H.54z"/>
        <path id="e" d="M0 12.978h36.676V0H0z"/>
        <path id="g" d="M0 12.978h36.676V0H0z"/>
        <path id="i" d="M0 12.978h36.676V0H0z"/>
        <path id="k" d="M0 12.978h36.676V0H0z"/>
    </defs>
    <g fill="none" fill-rule="evenodd" opacity=".98">
        <g transform="translate(4 7)">
            <mask id="b" fill="#fff">
                <use xlink:href="#a"/>
            </mask>
            <path d="M3.644 1.663c-1.1 0-1.994.804-1.994 1.794 0 .989.895 1.794 1.994 1.794s1.993-.805 1.993-1.795c0-.99-.894-1.793-1.993-1.793m0 4.638C1.902 6.3.484 5.025.484 3.457c0-1.568 1.418-2.845 3.16-2.845 1.742 0 3.16 1.276 3.16 2.845 0 1.568-1.418 2.843-3.16 2.843" fill="#9C9B9B" fill-rule="nonzero" mask="url(#b)"/>
        </g>
        <g transform="translate(26 7)">
            <mask id="d" fill="#fff">
                <use xlink:href="#c"/>
            </mask>
            <path d="M3.7 1.663c-1.1 0-1.994.804-1.994 1.794 0 .989.894 1.794 1.993 1.794 1.1 0 1.994-.805 1.994-1.795 0-.99-.895-1.793-1.994-1.793m0 4.638C1.957 6.3.54 5.025.54 3.457.54 1.889 1.958.612 3.7.612c1.742 0 3.16 1.276 3.16 2.845 0 1.568-1.418 2.843-3.16 2.843" fill="#9C9B9B" fill-rule="nonzero" mask="url(#d)"/>
        </g>
        <g>
            <mask id="f" fill="#fff">
                <use xlink:href="#e"/>
            </mask>
            <path fill="#9C9B9B" fill-rule="nonzero" mask="url(#f)" d="M9.618 11.149h17.35v-1.083H9.618z"/>
        </g>
        <g>
            <mask id="h" fill="#fff">
                <use xlink:href="#g"/>
            </mask>
            <path d="M36.667 11.149h-4.796v-1.083h3.693c-.018-1.165-.139-2.415-.339-2.727a3.29 3.29 0 0 0-2.081-1.422L26.712 4.55l-2.766-1.405a19.023 19.023 0 0 0-6.285-1.92 18.401 18.401 0 0 0-4.002-.062l-1.117.105c-1.851.174-3.663.61-5.386 1.296L4.585 3.587c-.34.135-.694.23-1.053.282l-.885.28c-.862.06-1.537.768-1.537 1.611v3.658c0 .08.06.146.142.154l3.543.5-.159 1.071-3.522-.497A1.241 1.241 0 0 1 0 9.418V5.76c0-1.384 1.088-2.55 2.49-2.687l.837-.272c.286-.036.568-.11.84-.218l2.57-1.023A20.617 20.617 0 0 1 12.435.19l1.117-.105c1.41-.133 2.841-.111 4.25.064 2.333.29 4.573.976 6.657 2.034l2.699 1.372 6.219 1.303a4.4 4.4 0 0 1 2.788 1.905c.51.793.518 3.149.51 3.851l-.008.535z" fill="#9C9B9B" fill-rule="nonzero" mask="url(#h)"/>
        </g>
        <g>
            <mask id="j" fill="#fff">
                <use xlink:href="#i"/>
            </mask>
            <path fill="#9C9B9B" fill-rule="nonzero" mask="url(#j)" d="M15.99 11.062h1.11V.578h-1.11z"/>
        </g>
        <g>
            <mask id="l" fill="#fff">
                <use xlink:href="#k"/>
            </mask>
            <path d="M28.053 4.839H9.184c-.753 0-1.365-.599-1.365-1.333V1.489h1.11v2.017c0 .137.115.249.255.249h18.87v1.083zm-7.43 2.057h-1.852a.549.549 0 0 1-.555-.542c0-.299.248-.542.555-.542h1.852c.306 0 .555.243.555.542a.549.549 0 0 1-.555.542m-6.303 0h-1.852a.549.549 0 0 1-.555-.542c0-.299.248-.542.555-.542h1.852c.307 0 .555.243.555.542a.549.549 0 0 1-.555.542" fill="#9C9B9B" fill-rule="nonzero" mask="url(#l)"/>
        </g>
    </g>
</svg>
