<svg width="19" height="19" viewBox="0 0 19 19" xmlns="http://www.w3.org/2000/svg">
    <g fill-rule="nonzero" fill="none">
        <path d="M10.922.11c.246 0 .49.123.54.374l.01.1v.678a.375.375 0 0 1-.742.075l-.007-.075-.001-.402H8.157v.402a.375.375 0 0 1-.3.367l-.075.008a.375.375 0 0 1-.367-.3l-.008-.075V.585c0-.284.217-.438.46-.469L7.957.11h2.964z" fill="#FF4722"/>
        <path d="M14.19 3.512H4.691a.905.905 0 0 0-.904.903v11.89c0 .504.403.91.904.91h9.497c.5 0 .904-.406.904-.91V4.415a.905.905 0 0 0-.904-.903zm-9.498.75h9.497c.084 0 .154.07.154.153v11.89c0 .09-.07.16-.154.16H4.692a.156.156 0 0 1-.154-.16V4.415c0-.083.07-.153.154-.153z" fill="#8736C1"/>
        <path d="M7.234 5.86H5.633c-.31 0-.562.25-.562.56v1.602c0 .31.252.56.562.56h1.6a.56.56 0 0 0 .561-.56V6.42a.56.56 0 0 0-.56-.56zm-.19.749v1.223H5.821V6.609h1.223z" fill="#8736C1"/>
        <path d="M8.051 5.603a.375.375 0 0 1 .584.463l-.053.067-1.8 1.8-.766-.767a.375.375 0 0 1 .462-.584l.068.054.235.235 1.27-1.268z" fill="#FF4722"/>
        <path d="M7.234 9.133H5.633c-.31 0-.562.25-.562.56v1.603c0 .31.252.56.562.56h1.6a.56.56 0 0 0 .561-.56V9.694a.56.56 0 0 0-.56-.56zm-.19.75v1.223H5.821V9.883h1.223z" fill="#8736C1"/>
        <path d="M8.051 8.877a.375.375 0 0 1 .584.462l-.053.068-1.8 1.799-.766-.766a.375.375 0 0 1 .462-.584l.068.054.235.235 1.27-1.268z" fill="#FF4722"/>
        <path d="M7.234 12.407H5.633c-.31 0-.562.25-.562.56v1.602c0 .31.252.56.562.56h1.6a.56.56 0 0 0 .561-.56v-1.602a.56.56 0 0 0-.56-.56zm-.19.749v1.223H5.821v-1.223h1.223z" fill="#8736C1"/>
        <path d="M8.051 12.15a.375.375 0 0 1 .584.463l-.053.068-1.8 1.799-.766-.766a.375.375 0 0 1 .462-.584l.068.053.235.236 1.27-1.269zM13.023 5.86a.375.375 0 0 1 .075.742l-.075.008H9.539a.375.375 0 0 1-.076-.743l.076-.007h3.484zM13.023 7.38a.375.375 0 0 1 .075.743l-.075.008H9.539a.375.375 0 0 1-.076-.742l.076-.008h3.484zM13.023 9.36a.375.375 0 0 1 .075.742l-.075.007H9.539a.375.375 0 0 1-.076-.742l.076-.008h3.484zM13.023 10.88a.375.375 0 0 1 .075.743l-.075.007H9.539a.375.375 0 0 1-.076-.742l.076-.008h3.484zM13.023 12.633a.375.375 0 0 1 .075.742l-.075.008H9.539a.375.375 0 0 1-.076-.742l.076-.008h3.484zM11.5 14.154a.375.375 0 0 1 .075.742l-.075.008H9.539a.375.375 0 0 1-.076-.742l.076-.008h1.96z" fill="#FF4722"/>
        <path d="M6.79 1.948a.375.375 0 0 1 .075.742l-.076.008h-3.5a.316.316 0 0 0-.306.247l-.008.074v14.692c0 .15.102.274.242.306l.072.008h12.294c.153 0 .28-.104.314-.242l.008-.072V3.019a.326.326 0 0 0-.258-.315l-.064-.006h-3.5a.375.375 0 0 1-.076-.743l.076-.007h3.5c.55 0 1.008.42 1.066.955l.006.116v14.692c0 .55-.42 1-.956 1.058l-.116.006H3.289c-.55 0-1-.413-1.058-.948l-.006-.116V3.019c0-.55.414-1.007.948-1.065l.116-.006h3.5z" fill="#8736C1"/>
        <path d="M11.81 1.197H7.078c-.331 0-.658.188-.658.536v1.054c0 .36.32.529.658.529h4.734c.336 0 .65-.172.65-.529V1.733c0-.345-.32-.536-.65-.536zm-.099.749v.619H7.169v-.619h4.542z" fill="#8736C1"/>
    </g>
</svg>
