<?xml version="1.0" encoding="UTF-8"?>
<svg width="250px" height="100px" viewBox="0 0 250 100" version="1.1" xmlns="http://www.w3.org/2000/svg" xmlns:xlink="http://www.w3.org/1999/xlink">
    <!-- Generator: Sketch 47.1 (45422) - http://www.bohemiancoding.com/sketch -->
    <title>assets/img_pdf_offer_ribbon</title>
    <desc>Created with Sketch.</desc>
    <defs>
        <linearGradient x1="18.0815858%" y1="0%" x2="87.1426245%" y2="100%" id="linearGradient-1">
            <stop stop-color="#F0386B" offset="0%"></stop>
            <stop stop-color="#E71F56" offset="100%"></stop>
        </linearGradient>
    </defs>
    <g id="Freshness" stroke="none" stroke-width="1" fill="none" fill-rule="evenodd">
        <g id="Freeform-Icons" transform="translate(-550.000000, -1650.000000)">
            <g id="assets/img_pdf_offer_ribbon" transform="translate(550.000000, 1650.000000)">
                <path d="M250,20.8333333 C250,18.53125 248.137823,16.6666667 245.83871,16.6666667 L193.822581,16.6666667 L193.822581,100 L245.83871,100 C248.137823,100 250,98.1354167 250,95.8333333 L250,20.8333333 Z" id="Fill-6701" fill="#CF1C4E"></path>
                <polygon id="Fill-6702" fill="url(#linearGradient-1)" points="210.470001 83.3333333 0 83.3333333 0 0 210.470001 0"></polygon>
                <polygon id="Fill-6704" fill="#931538" points="193.822581 83.3333333 210.467742 83.3333333 193.822581 100"></polygon>
                <path d="M64.0088344,51.4651639 L61.9125153,51.4651639 L61.9125153,42.5081967 L64.0088344,42.5081967 L64.0088344,51.4651639 Z M67.0176687,42.5081967 C67.1080986,42.5081967 67.1841408,42.512295 67.2457976,42.5204918 C67.3074543,42.5286886 67.3629445,42.5440573 67.4122699,42.5665984 C67.4615953,42.5891395 67.5088648,42.6209014 67.5540798,42.6618852 C67.5992947,42.7028691 67.6506746,42.7581964 67.7082209,42.8278689 L71.9748466,48.2069672 C71.9584048,48.0348352 71.9460737,47.8678287 71.9378528,47.7059426 C71.9296319,47.5440566 71.9255215,47.3913942 71.9255215,47.2479508 L71.9255215,42.5081967 L73.7628834,42.5081967 L73.7628834,51.4651639 L72.6777301,51.4651639 C72.5174225,51.4651639 72.3817797,51.440574 72.2707976,51.3913934 C72.1598154,51.3422129 72.0529453,51.2520498 71.9501841,51.1209016 L67.7143865,45.7848361 C67.7267179,45.9405745 67.7369938,46.093237 67.7452147,46.2428279 C67.7534356,46.3924188 67.757546,46.5327862 67.757546,46.6639344 L67.757546,51.4651639 L65.9201841,51.4651639 L65.9201841,42.5081967 L67.0176687,42.5081967 Z M81.5254295,49.147541 C81.5747549,49.147541 81.6240795,49.1567622 81.6734049,49.1752049 C81.7227303,49.1936476 81.7699998,49.2254096 81.8152147,49.2704918 L82.6414111,50.1372951 C82.2796915,50.6086089 81.8265211,50.9641381 81.2818865,51.2038934 C80.7372519,51.4436487 80.0929485,51.5635246 79.3489571,51.5635246 C78.6666224,51.5635246 78.0552021,51.4477471 77.5146779,51.2161885 C76.9741538,50.98463 76.5158455,50.6649611 76.1397393,50.2571721 C75.7636331,49.8493832 75.4748783,49.3657815 75.2734663,48.8063525 C75.0720542,48.2469234 74.9713497,47.6393475 74.9713497,46.9836066 C74.9713497,46.3155704 75.0864406,45.7018471 75.3166258,45.142418 C75.546811,44.582989 75.8684489,44.1004119 76.2815491,43.6946721 C76.6946493,43.2889324 77.1889235,42.9733618 77.7643865,42.7479508 C78.3398495,42.5225399 78.9749045,42.4098361 79.6695706,42.4098361 C80.0066275,42.4098361 80.324155,42.4395489 80.6221626,42.4989754 C80.9201702,42.5584019 81.198649,42.6403683 81.4576074,42.744877 C81.7165657,42.8493858 81.9549683,42.9743845 82.1728221,43.119877 C82.390676,43.2653696 82.5838642,43.4262286 82.7523927,43.602459 L82.0495092,44.5430328 C82.0042943,44.6004101 81.9508592,44.6526637 81.8892025,44.6997951 C81.8275457,44.7469265 81.7412276,44.7704918 81.6302454,44.7704918 C81.5562573,44.7704918 81.4863807,44.7540985 81.4206135,44.7213115 C81.3548463,44.6885244 81.2849697,44.6485658 81.2109816,44.6014344 C81.1369935,44.554303 81.0558133,44.503074 80.9674387,44.4477459 C80.879064,44.3924178 80.7742491,44.3411888 80.6529908,44.2940574 C80.5317325,44.246926 80.3899241,44.2069674 80.2275614,44.1741803 C80.0651986,44.1413933 79.8750931,44.125 79.6572393,44.125 C79.2790779,44.125 78.9338053,44.1915977 78.6214111,44.3247951 C78.3090169,44.4579925 78.040814,44.6485643 77.8167945,44.8965164 C77.592775,45.1444685 77.4180835,45.4446704 77.2927147,45.7971311 C77.167346,46.1495919 77.1046626,46.5450798 77.1046626,46.9836066 C77.1046626,47.4426252 77.167346,47.8504081 77.2927147,48.2069672 C77.4180835,48.5635264 77.5886646,48.8637283 77.8044632,49.107582 C78.0202618,49.3514356 78.2720231,49.5368846 78.5597546,49.6639344 C78.8474861,49.7909842 79.1557652,49.8545082 79.4846012,49.8545082 C79.6736819,49.8545082 79.8463183,49.845287 80.0025154,49.8268443 C80.1587125,49.8084015 80.3036036,49.7766396 80.4371933,49.7315574 C80.5707829,49.6864752 80.6982049,49.6280741 80.8194632,49.5563525 C80.9407215,49.4846308 81.0630055,49.3954923 81.186319,49.2889344 C81.2356444,49.2479506 81.2890795,49.2141395 81.3466258,49.1875 C81.4041721,49.1608605 81.4637727,49.147541 81.5254295,49.147541 Z M85.9215338,49.8053279 L89.2509816,49.8053279 L89.2509816,51.4651639 L83.837546,51.4651639 L83.837546,42.5081967 L85.9215338,42.5081967 L85.9215338,49.8053279 Z M94.2204908,49.8237705 C94.5000014,49.8237705 94.7497075,49.7776644 94.9696166,49.6854508 C95.1895257,49.5932372 95.3755208,49.4610664 95.5276074,49.2889344 C95.6796941,49.1168024 95.7958125,48.9067635 95.8759663,48.6588115 C95.9561201,48.4108594 95.9961964,48.1290999 95.9961964,47.8135246 L95.9961964,42.5081967 L98.0801841,42.5081967 L98.0801841,47.8135246 C98.0801841,48.3627077 97.9907831,48.866801 97.8119786,49.3258197 C97.633174,49.7848384 97.3773023,50.1803262 97.0443559,50.5122951 C96.7114094,50.844264 96.3065362,51.1024581 95.829724,51.2868852 C95.3529118,51.4713124 94.8165061,51.5635246 94.2204908,51.5635246 C93.6203651,51.5635246 93.0819043,51.4713124 92.6050921,51.2868852 C92.1282799,51.1024581 91.7234066,50.844264 91.3904602,50.5122951 C91.0575137,50.1803262 90.8026696,49.7848384 90.6259203,49.3258197 C90.4491709,48.866801 90.3607976,48.3627077 90.3607976,47.8135246 L90.3607976,42.5081967 L92.4447853,42.5081967 L92.4447853,47.807377 C92.4447853,48.1229524 92.4848616,48.4047119 92.5650154,48.6526639 C92.6451692,48.900616 92.7612876,49.1116795 92.9133743,49.2858607 C93.0654609,49.4600419 93.251456,49.5932372 93.4713651,49.6854508 C93.6912741,49.7776644 93.9409802,49.8237705 94.2204908,49.8237705 Z M107.834233,46.9836066 C107.834233,47.6311508 107.722225,48.2284809 107.498206,48.7756148 C107.274186,49.3227486 106.958714,49.7961046 106.551779,50.1956967 C106.144845,50.5952889 105.654681,50.9067612 105.081273,51.130123 C104.507865,51.3534847 103.871783,51.4651639 103.173006,51.4651639 L99.6832516,51.4651639 L99.6832516,42.5081967 L103.173006,42.5081967 C103.871783,42.5081967 104.507865,42.6209005 105.081273,42.8463115 C105.654681,43.0717224 106.144845,43.3831947 106.551779,43.7807377 C106.958714,44.1782807 107.274186,44.650612 107.498206,45.1977459 C107.722225,45.7448798 107.834233,46.3401607 107.834233,46.9836066 Z M105.70092,46.9836066 C105.70092,46.5409814 105.643375,46.1413952 105.528282,45.7848361 C105.41319,45.4282769 105.247747,45.1260258 105.031948,44.8780738 C104.816149,44.6301217 104.552057,44.4395498 104.239663,44.3063525 C103.927268,44.1731551 103.57172,44.1065574 103.173006,44.1065574 L101.779571,44.1065574 L101.779571,49.8668033 L103.173006,49.8668033 C103.57172,49.8668033 103.927268,49.8002056 104.239663,49.6670082 C104.552057,49.5338108 104.816149,49.3432389 105.031948,49.0952869 C105.247747,48.8473348 105.41319,48.5450838 105.528282,48.1885246 C105.643375,47.8319654 105.70092,47.4303301 105.70092,46.9836066 Z M114.863068,42.5081967 L114.863068,44.1065574 L111.176012,44.1065574 L111.176012,46.1967213 L113.999877,46.1967213 L113.999877,47.7336066 L111.176012,47.7336066 L111.176012,49.8668033 L114.863068,49.8668033 L114.863068,51.4651639 L109.079693,51.4651639 L109.079693,42.5081967 L114.863068,42.5081967 Z M124.444479,46.9836066 C124.444479,47.6311508 124.332471,48.2284809 124.108451,48.7756148 C123.884431,49.3227486 123.568959,49.7961046 123.162025,50.1956967 C122.75509,50.5952889 122.264926,50.9067612 121.691518,51.130123 C121.118111,51.3534847 120.482028,51.4651639 119.783252,51.4651639 L116.293497,51.4651639 L116.293497,42.5081967 L119.783252,42.5081967 C120.482028,42.5081967 121.118111,42.6209005 121.691518,42.8463115 C122.264926,43.0717224 122.75509,43.3831947 123.162025,43.7807377 C123.568959,44.1782807 123.884431,44.650612 124.108451,45.1977459 C124.332471,45.7448798 124.444479,46.3401607 124.444479,46.9836066 Z M122.311166,46.9836066 C122.311166,46.5409814 122.25362,46.1413952 122.138528,45.7848361 C122.023435,45.4282769 121.857992,45.1260258 121.642193,44.8780738 C121.426395,44.6301217 121.162302,44.4395498 120.849908,44.3063525 C120.537514,44.1731551 120.181965,44.1065574 119.783252,44.1065574 L118.389816,44.1065574 L118.389816,49.8668033 L119.783252,49.8668033 C120.181965,49.8668033 120.537514,49.8002056 120.849908,49.6670082 C121.162302,49.5338108 121.426395,49.3432389 121.642193,49.0952869 C121.857992,48.8473348 122.023435,48.5450838 122.138528,48.1885246 C122.25362,47.8319654 122.311166,47.4303301 122.311166,46.9836066 Z M134.099877,42.5081967 L134.099877,44.1065574 L130.412822,44.1065574 L130.412822,46.375 L133.483313,46.375 L133.483313,47.9795082 L130.412822,47.9795082 L130.412822,51.4651639 L128.316503,51.4651639 L128.316503,42.5081967 L134.099877,42.5081967 Z M137.515644,48.1516393 L137.515644,51.4651639 L135.431657,51.4651639 L135.431657,42.5081967 L138.354172,42.5081967 C139.003623,42.5081967 139.557498,42.5747944 140.015813,42.7079918 C140.474128,42.8411892 140.848173,43.0266382 141.13796,43.2643443 C141.427747,43.5020504 141.638404,43.7827853 141.769939,44.1065574 C141.901473,44.4303295 141.967239,44.782785 141.967239,45.1639344 C141.967239,45.4549195 141.928191,45.7295069 141.850092,45.9877049 C141.771994,46.2459029 141.655875,46.4846301 141.501733,46.7038934 C141.347591,46.9231568 141.158513,47.1188516 140.934494,47.2909836 C140.710474,47.4631156 140.452548,47.6045076 140.160706,47.7151639 C140.300461,47.7848364 140.430966,47.8709011 140.552224,47.9733607 C140.673482,48.0758202 140.779325,48.2008189 140.869755,48.3483607 L142.781104,51.4651639 L140.894417,51.4651639 C140.545029,51.4651639 140.294295,51.3340177 140.142209,51.0717213 L138.650123,48.4713115 C138.584356,48.3565568 138.507286,48.2745904 138.418911,48.2254098 C138.330536,48.1762293 138.206197,48.1516393 138.04589,48.1516393 L137.515644,48.1516393 Z M137.515644,46.7192623 L138.354172,46.7192623 C138.637793,46.7192623 138.879278,46.683402 139.078635,46.6116803 C139.277992,46.5399587 139.44138,46.4405744 139.568804,46.3135246 C139.696228,46.1864748 139.788711,46.0379107 139.846258,45.8678279 C139.903804,45.6977451 139.932577,45.5143452 139.932577,45.317623 C139.932577,44.9241784 139.804127,44.6168044 139.547224,44.3954918 C139.290321,44.1741792 138.892641,44.0635246 138.354172,44.0635246 L137.515644,44.0635246 L137.515644,46.7192623 Z M149.661963,42.5081967 L149.661963,44.1065574 L145.974908,44.1065574 L145.974908,46.1967213 L148.798773,46.1967213 L148.798773,47.7336066 L145.974908,47.7336066 L145.974908,49.8668033 L149.661963,49.8668033 L149.661963,51.4651639 L143.878589,51.4651639 L143.878589,42.5081967 L149.661963,42.5081967 Z M156.875767,42.5081967 L156.875767,44.1065574 L153.188712,44.1065574 L153.188712,46.1967213 L156.012577,46.1967213 L156.012577,47.7336066 L153.188712,47.7336066 L153.188712,49.8668033 L156.875767,49.8668033 L156.875767,51.4651639 L151.092393,51.4651639 L151.092393,42.5081967 L156.875767,42.5081967 Z M160.25454,42.5081967 L162.005583,42.5081967 C162.186443,42.5081967 162.3375,42.5491799 162.458758,42.6311475 C162.580016,42.7131152 162.659141,42.8217206 162.696135,42.9569672 L163.929264,47.6290984 C163.970368,47.7807385 164.011472,47.9426221 164.052577,48.1147541 C164.093681,48.2868861 164.124509,48.4672122 164.145061,48.6557377 C164.186166,48.4631138 164.23138,48.2817631 164.280706,48.1116803 C164.330031,47.9415975 164.377301,47.7807385 164.422515,47.6290984 L165.877607,42.9569672 C165.914602,42.8422125 165.993727,42.73873 166.114985,42.6465164 C166.236243,42.5543028 166.383189,42.5081967 166.555828,42.5081967 L167.172393,42.5081967 C167.353253,42.5081967 167.502254,42.5481553 167.619402,42.6280738 C167.73655,42.7079922 167.81773,42.8176223 167.862945,42.9569672 L169.305706,47.6290984 C169.350921,47.7725417 169.39819,47.9252041 169.447515,48.0870902 C169.496841,48.2489762 169.54,48.4221302 169.576994,48.6065574 C169.609878,48.4262286 169.643788,48.2540992 169.678727,48.0901639 C169.713666,47.9262287 169.749632,47.7725417 169.786626,47.6290984 L171.019755,42.9569672 C171.052638,42.8381142 171.130736,42.733607 171.254049,42.6434426 C171.377363,42.5532782 171.525337,42.5081967 171.697976,42.5081967 L173.338037,42.5081967 L170.563497,51.4651639 L168.67681,51.4651639 L166.987423,45.9139344 C166.95865,45.8278684 166.92885,45.7336071 166.898022,45.6311475 C166.867193,45.528688 166.837393,45.4200825 166.80862,45.3053279 C166.779847,45.4200825 166.750046,45.528688 166.719218,45.6311475 C166.68839,45.7336071 166.658589,45.8278684 166.629816,45.9139344 L164.915767,51.4651639 L163.02908,51.4651639 L160.25454,42.5081967 Z M176.667485,51.4651639 L174.571166,51.4651639 L174.571166,42.5081967 L176.667485,42.5081967 L176.667485,51.4651639 Z M185.102086,42.5081967 L185.102086,44.1557377 L182.574172,44.1557377 L182.574172,51.4651639 L180.490184,51.4651639 L180.490184,44.1557377 L177.96227,44.1557377 L177.96227,42.5081967 L185.102086,42.5081967 Z M194.054601,51.4651639 L191.958282,51.4651639 L191.958282,47.6782787 L188.308221,47.6782787 L188.308221,51.4651639 L186.211902,51.4651639 L186.211902,42.5081967 L188.308221,42.5081967 L188.308221,46.2520492 L191.958282,46.2520492 L191.958282,42.5081967 L194.054601,42.5081967 L194.054601,51.4651639 Z M70.0881595,66.2192623 L68.4727607,66.2192623 C68.2919009,66.2192623 68.1428994,66.1772545 68.0257515,66.0932377 C67.9086037,66.0092209 67.8274235,65.90164 67.7822086,65.7704918 L67.2519632,64.2090164 L63.8361963,64.2090164 L63.3059509,65.7704918 C63.2648464,65.8852465 63.1846938,65.988729 63.0654908,66.0809426 C62.9462877,66.1731562 62.800369,66.2192623 62.6277301,66.2192623 L61,66.2192623 L64.4774233,57.2622951 L66.6107362,57.2622951 L70.0881595,66.2192623 Z M64.3171166,62.795082 L66.7710429,62.795082 L65.9448466,60.3422131 C65.8914108,60.1864746 65.8287274,60.0030748 65.7567945,59.7920082 C65.6848616,59.5809416 65.6139574,59.3524602 65.5440798,59.1065574 C65.4783126,59.3565586 65.4104911,59.5881137 65.3406135,59.8012295 C65.2707358,60.0143453 65.2049696,60.1987697 65.1433129,60.3545082 L64.3171166,62.795082 Z M73.146319,64.5594262 L76.4757669,64.5594262 L76.4757669,66.2192623 L71.0623313,66.2192623 L71.0623313,57.2622951 L73.146319,57.2622951 L73.146319,64.5594262 Z M79.7928835,64.5594262 L83.1223313,64.5594262 L83.1223313,66.2192623 L77.7088957,66.2192623 L77.7088957,57.2622951 L79.7928835,57.2622951 L79.7928835,64.5594262 Z M89.0660123,63.2254098 L89.0660123,66.2192623 L86.9820246,66.2192623 L86.9820246,57.2622951 L90.1511657,57.2622951 C90.784175,57.2622951 91.3277738,57.3370894 91.7819786,57.4866803 C92.2361833,57.6362712 92.6102286,57.8422118 92.9041258,58.1045082 C93.198023,58.3668046 93.414846,58.6762277 93.5546013,59.0327869 C93.6943566,59.389346 93.7642332,59.7745881 93.7642332,60.1885246 C93.7642332,60.6352481 93.6923014,61.0450801 93.5484356,61.4180328 C93.4045699,61.7909855 93.1846641,62.1106544 92.8887117,62.3770492 C92.5927593,62.643444 92.2176864,62.8514337 91.7634816,63.0010246 C91.3092769,63.1506155 90.7718436,63.2254098 90.1511657,63.2254098 L89.0660123,63.2254098 Z M89.0660123,61.6577869 L90.1511657,61.6577869 C90.6937451,61.6577869 91.084232,61.5286898 91.3226381,61.2704918 C91.5610442,61.0122938 91.6802454,60.6516417 91.6802454,60.1885246 C91.6802454,59.9836055 91.6494175,59.797132 91.5877608,59.6290984 C91.526104,59.4610647 91.4325927,59.316599 91.307224,59.1956967 C91.1818552,59.0747945 91.0236053,58.9815577 90.8324694,58.9159836 C90.6413334,58.8504095 90.4142345,58.817623 90.1511657,58.817623 L89.0660123,58.817623 L89.0660123,61.6577869 Z M97.18,64.5594262 L100.509448,64.5594262 L100.509448,66.2192623 L95.0960123,66.2192623 L95.0960123,57.2622951 L97.18,57.2622951 L97.18,64.5594262 Z M110.10319,66.2192623 L108.487791,66.2192623 C108.306932,66.2192623 108.15793,66.1772545 108.040782,66.0932377 C107.923634,66.0092209 107.842454,65.90164 107.797239,65.7704918 L107.266994,64.2090164 L103.851227,64.2090164 L103.320982,65.7704918 C103.279877,65.8852465 103.199725,65.988729 103.080522,66.0809426 C102.961318,66.1731562 102.8154,66.2192623 102.642761,66.2192623 L101.015031,66.2192623 L104.492454,57.2622951 L106.625767,57.2622951 L110.10319,66.2192623 Z M104.332147,62.795082 L106.786074,62.795082 L105.959877,60.3422131 C105.906442,60.1864746 105.843758,60.0030748 105.771825,59.7920082 C105.699892,59.5809416 105.628988,59.3524602 105.55911,59.1065574 C105.493343,59.3565586 105.425522,59.5881137 105.355644,59.8012295 C105.285767,60.0143453 105.22,60.1987697 105.158344,60.3545082 L104.332147,62.795082 Z M112.174847,57.2622951 C112.265277,57.2622951 112.341319,57.2663934 112.402976,57.2745902 C112.464632,57.2827869 112.520123,57.2981556 112.569448,57.3206967 C112.618773,57.3432378 112.666043,57.3749998 112.711258,57.4159836 C112.756473,57.4569674 112.807853,57.5122947 112.865399,57.5819672 L117.132025,62.9610656 C117.115583,62.7889336 117.103252,62.621927 117.095031,62.460041 C117.08681,62.2981549 117.082699,62.1454925 117.082699,62.0020492 L117.082699,57.2622951 L118.920061,57.2622951 L118.920061,66.2192623 L117.834908,66.2192623 C117.6746,66.2192623 117.538958,66.1946724 117.427976,66.1454918 C117.316993,66.0963112 117.210123,66.0061482 117.107362,65.875 L112.871564,60.5389344 C112.883896,60.6946729 112.894172,60.8473353 112.902393,60.9969262 C112.910614,61.1465171 112.914724,61.2868846 112.914724,61.4180328 L112.914724,66.2192623 L111.077362,66.2192623 L111.077362,57.2622951 L112.174847,57.2622951 Z M127.009387,64.5778689 C127.288897,64.5778689 127.538603,64.5317628 127.758512,64.4395492 C127.978421,64.3473356 128.164417,64.2151648 128.316503,64.0430328 C128.46859,63.8709008 128.584708,63.6608619 128.664862,63.4129098 C128.745016,63.1649578 128.785092,62.8831983 128.785092,62.567623 L128.785092,57.2622951 L130.86908,57.2622951 L130.86908,62.567623 C130.86908,63.116806 130.779679,63.6208993 130.600874,64.079918 C130.42207,64.5389367 130.166198,64.9344246 129.833252,65.2663934 C129.500305,65.5983623 129.095432,65.8565565 128.61862,66.0409836 C128.141808,66.2254108 127.605402,66.317623 127.009387,66.317623 C126.409261,66.317623 125.8708,66.2254108 125.393988,66.0409836 C124.917176,65.8565565 124.512302,65.5983623 124.179356,65.2663934 C123.846409,64.9344246 123.591565,64.5389367 123.414816,64.079918 C123.238067,63.6208993 123.149693,63.116806 123.149693,62.567623 L123.149693,57.2622951 L125.233681,57.2622951 L125.233681,62.5614754 C125.233681,62.8770508 125.273757,63.1588102 125.353911,63.4067623 C125.434065,63.6547144 125.550183,63.8657778 125.70227,64.039959 C125.854357,64.2141402 126.040352,64.3473356 126.260261,64.4395492 C126.48017,64.5317628 126.729876,64.5778689 127.009387,64.5778689 Z M134.556135,63.2254098 L134.556135,66.2192623 L132.472147,66.2192623 L132.472147,57.2622951 L135.641288,57.2622951 C136.274298,57.2622951 136.817897,57.3370894 137.272101,57.4866803 C137.726306,57.6362712 138.100351,57.8422118 138.394249,58.1045082 C138.688146,58.3668046 138.904969,58.6762277 139.044724,59.0327869 C139.184479,59.389346 139.254356,59.7745881 139.254356,60.1885246 C139.254356,60.6352481 139.182424,61.0450801 139.038558,61.4180328 C138.894693,61.7909855 138.674787,62.1106544 138.378834,62.3770492 C138.082882,62.643444 137.707809,62.8514337 137.253604,63.0010246 C136.7994,63.1506155 136.261966,63.2254098 135.641288,63.2254098 L134.556135,63.2254098 Z M134.556135,61.6577869 L135.641288,61.6577869 C136.183868,61.6577869 136.574355,61.5286898 136.812761,61.2704918 C137.051167,61.0122938 137.170368,60.6516417 137.170368,60.1885246 C137.170368,59.9836055 137.13954,59.797132 137.077884,59.6290984 C137.016227,59.4610647 136.922715,59.316599 136.797347,59.1956967 C136.671978,59.0747945 136.513728,58.9815577 136.322592,58.9159836 C136.131456,58.8504095 135.904357,58.817623 135.641288,58.817623 L134.556135,58.817623 L134.556135,61.6577869 Z M144.815767,64.7192623 C145.103498,64.7192623 145.358343,64.6946724 145.580307,64.6454918 C145.802271,64.5963112 146.011901,64.5307381 146.209203,64.4487705 L146.209203,63.0901639 L145.32135,63.0901639 C145.189815,63.0901639 145.087056,63.0553282 145.013068,62.9856557 C144.939079,62.9159833 144.902086,62.8278694 144.902086,62.7213115 L144.902086,61.5778689 L148.09589,61.5778689 L148.09589,65.3586066 C147.865704,65.5266402 147.626274,65.671106 147.377592,65.7920082 C147.12891,65.9129104 146.86379,66.0122947 146.582224,66.0901639 C146.300658,66.1680332 146.0006,66.2254097 145.68204,66.2622951 C145.36348,66.2991805 145.02129,66.317623 144.65546,66.317623 C143.997788,66.317623 143.389451,66.2018454 142.83043,65.9702869 C142.271408,65.7387284 141.78741,65.4190594 141.37842,65.0112705 C140.969431,64.6034816 140.64882,64.1198798 140.41658,63.5604508 C140.184339,63.0010218 140.068221,62.3934459 140.068221,61.7377049 C140.068221,61.0696688 140.179201,60.4559454 140.401166,59.8965164 C140.62313,59.3370874 140.940658,58.8545102 141.353758,58.4487705 C141.766858,58.0430308 142.26627,57.7274601 142.852009,57.5020492 C143.437748,57.2766382 144.092328,57.1639344 144.815767,57.1639344 C145.189818,57.1639344 145.541256,57.1946718 145.870092,57.2561475 C146.198928,57.3176233 146.502069,57.4016388 146.779525,57.5081967 C147.05698,57.6147546 147.310797,57.7418025 147.540982,57.8893443 C147.771167,58.036886 147.976686,58.1967205 148.157546,58.3688525 L147.553313,59.2848361 C147.495767,59.3709021 147.426918,59.4385243 147.346764,59.4877049 C147.26661,59.5368855 147.179264,59.5614754 147.084724,59.5614754 C146.961411,59.5614754 146.833988,59.5204922 146.702454,59.4385246 C146.538036,59.3401634 146.382869,59.2551233 146.236948,59.1834016 C146.091027,59.11168 145.942025,59.0532789 145.789939,59.0081967 C145.637852,58.9631145 145.477547,58.930328 145.309019,58.9098361 C145.14049,58.8893442 144.951412,58.8790984 144.741779,58.8790984 C144.351286,58.8790984 143.999848,58.9477452 143.687454,59.085041 C143.37506,59.2223368 143.108912,59.4159824 142.889003,59.6659836 C142.669094,59.9159849 142.499541,60.2161868 142.380338,60.5665984 C142.261134,60.9170099 142.201534,61.3073749 142.201534,61.7377049 C142.201534,62.2131171 142.2673,62.6352441 142.398834,63.0040984 C142.530369,63.3729527 142.712254,63.684425 142.944494,63.9385246 C143.176734,64.1926242 143.45213,64.3862698 143.77069,64.5194672 C144.08925,64.6526646 144.437606,64.7192623 144.815767,64.7192623 Z M151.696626,62.9057377 L151.696626,66.2192623 L149.612638,66.2192623 L149.612638,57.2622951 L152.535153,57.2622951 C153.184605,57.2622951 153.738479,57.3288928 154.196795,57.4620902 C154.65511,57.5952876 155.029155,57.7807365 155.318942,58.0184426 C155.608729,58.2561487 155.819386,58.5368836 155.95092,58.8606557 C156.082455,59.1844278 156.148221,59.5368833 156.148221,59.9180328 C156.148221,60.2090178 156.109172,60.4836053 156.031074,60.7418033 C155.952975,61.0000013 155.836857,61.2387284 155.682715,61.4579918 C155.528573,61.6772552 155.339495,61.87295 155.115476,62.045082 C154.891456,62.217214 154.633529,62.358606 154.341687,62.4692623 C154.481443,62.5389348 154.611947,62.6249995 154.733206,62.727459 C154.854464,62.8299185 154.960306,62.9549173 155.050736,63.102459 L156.962086,66.2192623 L155.075399,66.2192623 C154.726011,66.2192623 154.475277,66.0881161 154.32319,65.8258197 L152.831104,63.2254098 C152.765337,63.1106552 152.688267,63.0286888 152.599893,62.9795082 C152.511518,62.9303276 152.387179,62.9057377 152.226871,62.9057377 L151.696626,62.9057377 Z M151.696626,61.4733607 L152.535153,61.4733607 C152.818775,61.4733607 153.06026,61.4375004 153.259617,61.3657787 C153.458974,61.294057 153.622361,61.1946728 153.749785,61.067623 C153.877209,60.9405731 153.969693,60.792009 154.027239,60.6219262 C154.084786,60.4518434 154.113558,60.2684436 154.113558,60.0717213 C154.113558,59.6782767 153.985109,59.3709027 153.728206,59.1495902 C153.471303,58.9282776 153.073622,58.817623 152.535153,58.817623 L151.696626,58.817623 L151.696626,61.4733607 Z M166.420184,66.2192623 L164.804785,66.2192623 C164.623926,66.2192623 164.474924,66.1772545 164.357776,66.0932377 C164.240628,66.0092209 164.159448,65.90164 164.114233,65.7704918 L163.583988,64.2090164 L160.168221,64.2090164 L159.637976,65.7704918 C159.596871,65.8852465 159.516719,65.988729 159.397515,66.0809426 C159.278312,66.1731562 159.132394,66.2192623 158.959755,66.2192623 L157.332025,66.2192623 L160.809448,57.2622951 L162.942761,57.2622951 L166.420184,66.2192623 Z M160.649141,62.795082 L163.103068,62.795082 L162.276871,60.3422131 C162.223435,60.1864746 162.160752,60.0030748 162.088819,59.7920082 C162.016886,59.5809416 161.945982,59.3524602 161.876104,59.1065574 C161.810337,59.3565586 161.742516,59.5881137 161.672638,59.8012295 C161.602761,60.0143453 161.536994,60.1987697 161.475338,60.3545082 L160.649141,62.795082 Z M175.545338,61.7377049 C175.545338,62.3852491 175.433329,62.9825792 175.20931,63.5297131 C174.98529,64.076847 174.669818,64.5502029 174.262884,64.9497951 C173.855949,65.3493872 173.365785,65.6608595 172.792377,65.8842213 C172.21897,66.1075831 171.582887,66.2192623 170.884111,66.2192623 L167.394356,66.2192623 L167.394356,57.2622951 L170.884111,57.2622951 C171.582887,57.2622951 172.21897,57.3749989 172.792377,57.6004098 C173.365785,57.8258208 173.855949,58.1372931 174.262884,58.5348361 C174.669818,58.932379 174.98529,59.4047104 175.20931,59.9518443 C175.433329,60.4989781 175.545338,61.0942591 175.545338,61.7377049 Z M173.412025,61.7377049 C173.412025,61.2950798 173.354479,60.8954936 173.239387,60.5389344 C173.124294,60.1823753 172.958851,59.8801242 172.743052,59.6321721 C172.527254,59.3842201 172.263161,59.1936482 171.950767,59.0604508 C171.638373,58.9272534 171.282824,58.8606557 170.884111,58.8606557 L169.490675,58.8606557 L169.490675,64.6209016 L170.884111,64.6209016 C171.282824,64.6209016 171.638373,64.5543039 171.950767,64.4211066 C172.263161,64.2879092 172.527254,64.0973373 172.743052,63.8493852 C172.958851,63.6014332 173.124294,63.2991821 173.239387,62.942623 C173.354479,62.5860638 173.412025,62.1844285 173.412025,61.7377049 Z M182.574172,57.2622951 L182.574172,58.8606557 L178.887117,58.8606557 L178.887117,60.9508197 L181.710982,60.9508197 L181.710982,62.4877049 L178.887117,62.4877049 L178.887117,64.6209016 L182.574172,64.6209016 L182.574172,66.2192623 L176.790798,66.2192623 L176.790798,57.2622951 L182.574172,57.2622951 Z M189.011104,59.0819672 C188.949448,59.1803284 188.884709,59.2540981 188.816887,59.3032787 C188.749064,59.3524593 188.661718,59.3770492 188.554847,59.3770492 C188.460306,59.3770492 188.358574,59.3473364 188.249647,59.2879098 C188.14072,59.2284833 188.017409,59.1618856 187.879709,59.0881148 C187.742009,59.0143439 187.584786,58.9477462 187.408037,58.8883197 C187.231288,58.8288931 187.029879,58.7991803 186.803804,58.7991803 C186.413311,58.7991803 186.122501,58.8821713 185.931365,59.0481557 C185.740229,59.2141402 185.644663,59.4385232 185.644663,59.7213115 C185.644663,59.9016402 185.702208,60.0512289 185.817301,60.170082 C185.932393,60.288935 186.08345,60.391393 186.270476,60.477459 C186.457501,60.563525 186.671241,60.6424177 186.911703,60.7141393 C187.152164,60.785861 187.39776,60.8657782 187.648497,60.9538934 C187.899235,61.0420086 188.14483,61.1454912 188.385292,61.2643443 C188.625753,61.3831973 188.839493,61.5348351 189.026519,61.7192623 C189.213544,61.9036894 189.364601,62.1280724 189.479693,62.392418 C189.594786,62.6567636 189.652331,62.975408 189.652331,63.3483607 C189.652331,63.7622972 189.5804,64.1495884 189.436534,64.5102459 C189.292668,64.8709034 189.084066,65.1854495 188.810721,65.4538934 C188.537376,65.7223374 188.200324,65.9334009 187.799555,66.0870902 C187.398786,66.2407795 186.943561,66.317623 186.433865,66.317623 C186.154355,66.317623 185.86971,66.2889347 185.579923,66.2315574 C185.290137,66.17418 185.009603,66.0932382 184.738313,65.9887295 C184.467023,65.8842208 184.212179,65.7602466 183.973773,65.6168033 C183.735367,65.4733599 183.527792,65.3135255 183.351043,65.1372951 L183.967608,64.1659836 C184.012822,64.0922127 184.076533,64.0327871 184.158742,63.9877049 C184.240951,63.9426227 184.329325,63.920082 184.423865,63.920082 C184.547179,63.920082 184.671518,63.959016 184.796887,64.0368852 C184.922255,64.1147545 185.064064,64.2008192 185.222316,64.295082 C185.380568,64.3893447 185.562453,64.4754094 185.767976,64.5532787 C185.973498,64.6311479 186.216011,64.670082 186.495522,64.670082 C186.873683,64.670082 187.167576,64.587091 187.377209,64.4211066 C187.586842,64.2551221 187.691657,63.9918051 187.691657,63.6311475 C187.691657,63.4221301 187.634111,63.2520498 187.519019,63.1209016 C187.403926,62.9897534 187.252869,62.881148 187.065844,62.795082 C186.878818,62.709016 186.666106,62.633197 186.4277,62.567623 C186.189293,62.5020489 185.944725,62.4293037 185.693988,62.3493852 C185.44325,62.2694668 185.198682,62.1711071 184.960276,62.0543033 C184.72187,61.9374994 184.509158,61.7838124 184.322132,61.5932377 C184.135107,61.402663 183.98405,61.1649604 183.868957,60.880123 C183.753865,60.5952855 183.696319,60.2438545 183.696319,59.8258197 C183.696319,59.4897524 183.764141,59.1618868 183.899785,58.8422131 C184.03543,58.5225394 184.234784,58.2377062 184.497853,57.9877049 C184.760922,57.7377037 185.083587,57.5379106 185.465859,57.3883197 C185.848131,57.2387288 186.285887,57.1639344 186.779141,57.1639344 C187.054541,57.1639344 187.322744,57.1854506 187.583758,57.2284836 C187.844771,57.2715166 188.092422,57.3350406 188.326718,57.4190574 C188.561014,57.5030742 188.779892,57.603483 188.983359,57.7202869 C189.186826,57.8370907 189.368711,57.9692616 189.529019,58.1168033 L189.011104,59.0819672 Z" id="INCLUDED-FREE-WITH-A" fill="#FFFFFF"></path>
                <path d="M64.5354004,28.1364754 L64.5354004,34.1860656 L61.3288544,34.1860656 L61.3288544,17 L66.94329,17 C68.0955862,17 69.0929034,17.1346981 69.9352716,17.4040984 C70.7776398,17.6734986 71.4729805,18.049861 72.0213145,18.5331967 C72.5696486,19.0165325 72.9749329,19.594942 73.2371796,20.2684426 C73.4994263,20.9419433 73.6305477,21.6788211 73.6305477,22.4790984 C73.6305477,23.3110697 73.4914795,24.0736987 73.2133391,24.7670082 C72.9351986,25.4603177 72.5179942,26.0565549 71.9617133,26.5557377 C71.4054324,27.0549205 70.7100917,27.443168 69.8756704,27.7204918 C69.041249,27.9978156 68.0637987,28.1364754 66.94329,28.1364754 L64.5354004,28.1364754 Z M64.5354004,25.6405738 L66.94329,25.6405738 C67.5313584,25.6405738 68.0439238,25.5672822 68.4810017,25.4206967 C68.9180795,25.2741113 69.2796567,25.0641407 69.565744,24.7907787 C69.8518313,24.5174167 70.0663936,24.1846331 70.2094372,23.792418 C70.3524809,23.400203 70.4240017,22.9624341 70.4240017,22.4790984 C70.4240017,22.0195332 70.3524809,21.6035538 70.2094372,21.2311475 C70.0663936,20.8587413 69.8518313,20.5418046 69.565744,20.2803279 C69.2796567,20.0188512 68.9180795,19.8187848 68.4810017,19.680123 C68.0439238,19.5414611 67.5313584,19.4721311 66.94329,19.4721311 L64.5354004,19.4721311 L64.5354004,25.6405738 Z M91.4274741,25.5930328 C91.4274741,26.8528752 91.2168852,28.0096942 90.7957011,29.0635246 C90.3745169,30.117355 89.782484,31.0245864 89.0195845,31.7852459 C88.256685,32.5459054 87.3388353,33.1362001 86.2660078,33.5561475 C85.1931804,33.976095 84.0051411,34.1860656 82.7018544,34.1860656 L76.121879,34.1860656 L76.121879,17 L82.7018544,17 C84.0051411,17 85.1931804,17.2119514 86.2660078,17.6358607 C87.3388353,18.0597699 88.256685,18.6500645 89.0195845,19.4067623 C89.782484,20.1634601 90.3745169,21.0687106 90.7957011,22.122541 C91.2168852,23.1763714 91.4274741,24.3331904 91.4274741,25.5930328 Z M88.1494066,25.5930328 C88.1494066,24.6501319 88.0222586,23.804307 87.7679587,23.0555328 C87.5136589,22.3067586 87.1520817,21.6728851 86.6832164,21.1538934 C86.2143511,20.6349018 85.6441717,20.23675 84.9726612,19.9594262 C84.3011507,19.6821024 83.5442226,19.5434426 82.7018544,19.5434426 L79.3522655,19.5434426 L79.3522655,31.642623 L82.7018544,31.642623 C83.5442226,31.642623 84.3011507,31.5039631 84.9726612,31.2266393 C85.6441717,30.9493156 86.2143511,30.5511638 86.6832164,30.0321721 C87.1520817,29.5131805 87.5136589,28.879307 87.7679587,28.1305328 C88.0222586,27.3817586 88.1494066,26.5359337 88.1494066,25.5930328 Z M104.81391,17 L104.81391,19.5434426 L97.1730323,19.5434426 L97.1730323,24.6303279 L103.621885,24.6303279 L103.621885,27.1856557 L97.1730323,27.1856557 L97.1730323,34.1860656 L93.9426458,34.1860656 L93.9426458,17 L104.81391,17 Z M115.244124,27.4709016 L115.244124,34.1860656 L112.037578,34.1860656 L112.037578,17 L117.294407,17 C118.470543,17 119.477794,17.1208321 120.316189,17.3625 C121.154584,17.6041679 121.841978,17.942894 122.378391,18.3786885 C122.914805,18.8144831 123.308169,19.3354478 123.558496,19.9415984 C123.808822,20.5477489 123.933983,21.2152969 123.933983,21.9442623 C123.933983,22.5226805 123.848556,23.0693963 123.677698,23.5844262 C123.50684,24.0994561 123.260491,24.5669378 122.938643,24.9868852 C122.616795,25.4068327 122.219457,25.7752716 121.746618,26.0922131 C121.273779,26.4091546 120.735387,26.662704 120.131425,26.8528689 C120.536715,27.0826514 120.886372,27.4114733 121.180407,27.8393443 L125.495535,34.1860656 L122.610836,34.1860656 C122.332696,34.1860656 122.09628,34.1306016 121.901581,34.0196721 C121.706883,33.9087426 121.541988,33.7502743 121.406891,33.5442623 L117.783137,28.0413934 C117.64804,27.8353815 117.499038,27.6887983 117.336127,27.6016393 C117.173217,27.5144804 116.932827,27.4709016 116.614953,27.4709016 L115.244124,27.4709016 Z M115.244124,25.1770492 L117.246726,25.1770492 C117.850688,25.1770492 118.37716,25.1017767 118.826158,24.9512295 C119.275156,24.8006823 119.64468,24.5926926 119.934741,24.3272541 C120.224802,24.0618156 120.441351,23.7468597 120.584394,23.382377 C120.727438,23.0178944 120.798959,22.6177617 120.798959,22.1819672 C120.798959,21.3103782 120.510889,20.6408493 119.934741,20.1733607 C119.358593,19.705872 118.47849,19.4721311 117.294407,19.4721311 L115.244124,19.4721311 L115.244124,25.1770492 Z M132.433118,21.8016393 C133.203965,21.8016393 133.913212,21.9244523 134.560882,22.170082 C135.208552,22.4157116 135.766811,22.7742463 136.235677,23.2456967 C136.704542,23.7171472 137.070092,24.2955567 137.332339,24.9809426 C137.594586,25.6663286 137.725707,26.4487661 137.725707,27.3282787 C137.725707,27.5501377 137.715774,27.7343572 137.695907,27.8809426 C137.676039,28.0275281 137.640279,28.1424176 137.588624,28.2256148 C137.53697,28.3088119 137.467436,28.3682375 137.38002,28.4038934 C137.292605,28.4395494 137.18135,28.457377 137.046253,28.457377 L129.488818,28.457377 C129.576233,29.7092959 129.91397,30.6284124 130.502038,31.2147541 C131.090107,31.8010958 131.868888,32.0942623 132.838407,32.0942623 C133.315219,32.0942623 133.726463,32.0387984 134.072152,31.9278689 C134.417841,31.8169393 134.719817,31.6941264 134.978091,31.5594262 C135.236364,31.4247261 135.462846,31.3019131 135.657545,31.1909836 C135.852243,31.0800541 136.040978,31.0245902 136.223756,31.0245902 C136.342959,31.0245902 136.446267,31.0483604 136.533683,31.0959016 C136.621098,31.1434429 136.696592,31.2107919 136.760167,31.2979508 L137.618425,32.367623 C137.292603,32.7479527 136.927053,33.0668703 136.521762,33.3243852 C136.116472,33.5819002 135.693308,33.7879091 135.252256,33.942418 C134.811205,34.096927 134.362214,34.205874 133.905269,34.2692623 C133.448324,34.3326506 133.005292,34.3643443 132.576161,34.3643443 C131.725846,34.3643443 130.935144,34.2237036 130.204032,33.942418 C129.47292,33.6611325 128.83718,33.245153 128.296793,32.6944672 C127.756406,32.1437814 127.331255,31.4623674 127.021327,30.6502049 C126.711399,29.8380424 126.556437,28.8971365 126.556437,27.827459 C126.556437,26.9954876 126.691532,26.2130501 126.961726,25.480123 C127.231919,24.7471958 127.619323,24.1093606 128.12395,23.5665984 C128.628576,23.0238361 129.244449,22.5939907 129.971588,22.2770492 C130.698726,21.9601077 131.519228,21.8016393 132.433118,21.8016393 Z M132.492719,23.9053279 C131.634457,23.9053279 130.962957,24.1469921 130.478198,24.6303279 C129.993439,25.1136636 129.683516,25.7990393 129.548419,26.6864754 L135.079413,26.6864754 C135.079413,26.3061456 135.027759,25.947611 134.92445,25.6108607 C134.82114,25.2741103 134.662205,24.978963 134.44764,24.7254098 C134.233074,24.4718567 133.962885,24.2717904 133.637063,24.1252049 C133.311241,23.9786195 132.929797,23.9053279 132.492719,23.9053279 Z M140.121677,38.167623 L140.121677,21.9918033 L141.921634,21.9918033 C142.112358,21.9918033 142.275267,22.0353821 142.410364,22.122541 C142.54546,22.2096999 142.632875,22.344398 142.672609,22.5266393 L142.911014,23.6557377 C143.40372,23.0931666 143.969926,22.63757 144.609649,22.2889344 C145.249372,21.9402988 145.998353,21.7659836 146.856615,21.7659836 C147.524152,21.7659836 148.134065,21.9046434 148.686373,22.1819672 C149.23868,22.459291 149.715485,22.8614045 150.116802,23.3883197 C150.518119,23.9152349 150.828042,24.5649552 151.046581,25.3375 C151.26512,26.1100448 151.374388,26.9954868 151.374388,27.9938525 C151.374388,28.9050592 151.251214,29.7489032 151.004861,30.5254098 C150.758508,31.3019165 150.406864,31.975407 149.949919,32.5459016 C149.492974,33.1163963 148.940675,33.5620886 148.293005,33.8829918 C147.645335,34.203895 146.920194,34.3643443 146.11756,34.3643443 C145.426182,34.3643443 144.840109,34.259359 144.359324,34.0493852 C143.878538,33.8394115 143.447427,33.5482259 143.065977,33.1758197 L143.065977,38.167623 L140.121677,38.167623 Z M145.843394,24.0836066 C145.231485,24.0836066 144.708986,24.2123621 144.275882,24.469877 C143.842778,24.727392 143.43948,25.0898884 143.065977,25.557377 L143.065977,31.0245902 C143.399746,31.4366141 143.76331,31.723838 144.15668,31.8862705 C144.55005,32.048703 144.973214,32.129918 145.426186,32.129918 C145.87121,32.129918 146.274508,32.0467221 146.636091,31.8803279 C146.997673,31.7139336 147.303623,31.4603842 147.55395,31.1196721 C147.804276,30.77896 147.996985,30.3491146 148.132081,29.830123 C148.267178,29.3111313 148.334726,28.6990472 148.334726,27.9938525 C148.334726,27.2807341 148.277112,26.6765735 148.161882,26.1813525 C148.046652,25.6861314 147.881757,25.2840179 147.667192,24.975 C147.452626,24.6659821 147.19237,24.4401646 146.886416,24.297541 C146.580461,24.1549173 146.232791,24.0836066 145.843394,24.0836066 Z M158.824542,21.8016393 C159.738432,21.8016393 160.56688,21.9482226 161.309913,22.2413934 C162.052945,22.5345643 162.686698,22.9505438 163.211192,23.4893443 C163.735685,24.0281448 164.14097,24.6857885 164.427057,25.4622951 C164.713144,26.2388017 164.856186,27.106416 164.856186,28.0651639 C164.856186,29.0318354 164.713144,29.9034114 164.427057,30.679918 C164.14097,31.4564246 163.735685,32.1180301 163.211192,32.6647541 C162.686698,33.2114781 162.052945,33.6314193 161.309913,33.9245902 C160.56688,34.217761 159.738432,34.3643443 158.824542,34.3643443 C157.910651,34.3643443 157.080216,34.217761 156.33321,33.9245902 C155.586204,33.6314193 154.948478,33.2114781 154.420011,32.6647541 C153.891544,32.1180301 153.482286,31.4564246 153.192226,30.679918 C152.902165,29.9034114 152.757137,29.0318354 152.757137,28.0651639 C152.757137,27.106416 152.902165,26.2388017 153.192226,25.4622951 C153.482286,24.6857885 153.891544,24.0281448 154.420011,23.4893443 C154.948478,22.9505438 155.586204,22.5345643 156.33321,22.2413934 C157.080216,21.9482226 157.910651,21.8016393 158.824542,21.8016393 Z M158.824542,32.1061475 C159.841741,32.1061475 160.594696,31.7654406 161.083428,31.0840164 C161.572161,30.4025922 161.816523,29.4042415 161.816523,28.0889344 C161.816523,26.7736273 161.572161,25.7713149 161.083428,25.0819672 C160.594696,24.3926195 159.841741,24.0479508 158.824542,24.0479508 C157.791448,24.0479508 157.02856,24.3946004 156.535854,25.0879098 C156.043148,25.7812193 155.796799,26.7815508 155.796799,28.0889344 C155.796799,29.396318 156.043148,30.3926878 156.535854,31.0780738 C157.02856,31.7634597 157.791448,32.1061475 158.824542,32.1061475 Z M167.156793,34.1860656 L167.156793,21.9918033 L168.885229,21.9918033 C169.18721,21.9918033 169.397799,22.0472672 169.517002,22.1581967 C169.636205,22.2691262 169.715672,22.4592883 169.755407,22.7286885 L169.93421,24.202459 C170.371288,23.449723 170.883854,22.8554667 171.471922,22.4196721 C172.05999,21.9838776 172.719571,21.7659836 173.450683,21.7659836 C174.054645,21.7659836 174.55529,21.9046434 174.952634,22.1819672 L174.571186,24.3807377 C174.547345,24.5233614 174.495691,24.6243849 174.416223,24.6838115 C174.336754,24.743238 174.229473,24.7729508 174.094376,24.7729508 C173.975173,24.7729508 173.812264,24.7452189 173.605646,24.6897541 C173.399027,24.6342893 173.124864,24.6065574 172.783149,24.6065574 C172.17124,24.6065574 171.646754,24.77493 171.209677,25.1116803 C170.772599,25.4484306 170.403075,25.9416634 170.101094,26.5913934 L170.101094,34.1860656 L167.156793,34.1860656 Z M180.912756,34.3762295 C179.855823,34.3762295 179.041281,34.0771205 178.469106,33.4788934 C177.896931,32.8806664 177.610848,32.0546501 177.610848,31.0008197 L177.610848,24.1905738 L176.371143,24.1905738 C176.212205,24.1905738 176.075124,24.1390716 175.959894,24.0360656 C175.844665,23.9330596 175.787051,23.7785529 175.787051,23.572541 L175.787051,22.4077869 L177.753891,22.0868852 L178.373744,18.7590164 C178.405531,18.6005457 178.479039,18.4777327 178.594269,18.3905738 C178.709498,18.3034149 178.854526,18.2598361 179.029357,18.2598361 L180.555149,18.2598361 L180.555149,22.0987705 L183.773615,22.0987705 L183.773615,24.1905738 L180.555149,24.1905738 L180.555149,30.7987705 C180.555149,31.1791003 180.65051,31.4762284 180.841235,31.6901639 C181.03196,31.9040994 181.286256,32.0110656 181.60413,32.0110656 C181.786909,32.0110656 181.939883,31.9892762 182.06306,31.9456967 C182.186236,31.9021173 182.293518,31.8565576 182.384907,31.8090164 C182.476296,31.7614752 182.55775,31.7159155 182.629272,31.6723361 C182.700793,31.6287566 182.772314,31.6069672 182.843836,31.6069672 C182.931252,31.6069672 183.002772,31.6287566 183.0584,31.6723361 C183.114029,31.7159155 183.173629,31.7812837 183.237204,31.8684426 L184.119302,33.2946721 C183.690171,33.6512313 183.197473,33.9206275 182.641192,34.1028689 C182.084911,34.2851102 181.508772,34.3762295 180.912756,34.3762295 Z M193.381333,24.3688525 C193.301864,24.495629 193.218423,24.5847675 193.131008,24.6362705 C193.043592,24.6877735 192.932338,24.7135246 192.797241,24.7135246 C192.654197,24.7135246 192.501222,24.6739075 192.338311,24.5946721 C192.175401,24.5154368 191.986665,24.4262983 191.7721,24.3272541 C191.557534,24.2282099 191.313172,24.1390714 191.039005,24.0598361 C190.764838,23.9806007 190.441008,23.9409836 190.067505,23.9409836 C189.487383,23.9409836 189.030445,24.0637966 188.696677,24.3094262 C188.362908,24.5550559 188.196026,24.8759543 188.196026,25.2721311 C188.196026,25.5336079 188.281454,25.7534827 188.452311,25.9317623 C188.623169,26.1100419 188.849652,26.2665294 189.131765,26.4012295 C189.413879,26.5359296 189.733736,26.6567618 190.091345,26.7637295 C190.448954,26.8706973 190.814505,26.9875677 191.188008,27.1143443 C191.561511,27.2411209 191.927061,27.3857232 192.28467,27.5481557 C192.64228,27.7105882 192.962136,27.9165971 193.24425,28.1661885 C193.526364,28.4157799 193.752846,28.714889 193.923704,29.0635246 C194.094562,29.4121602 194.179989,29.8321014 194.179989,30.3233607 C194.179989,30.9097024 194.072708,31.4504757 193.858143,31.9456967 C193.643577,32.4409178 193.329681,32.8687824 192.916443,33.2293033 C192.503206,33.5898242 191.992627,33.8711055 191.384692,34.0731557 C190.776756,34.2752059 190.079429,34.3762295 189.292689,34.3762295 C188.871505,34.3762295 188.46026,34.3385933 188.058943,34.2633197 C187.657626,34.1880461 187.272209,34.0830608 186.90268,33.9483607 C186.53315,33.8136605 186.19144,33.6551922 185.877538,33.4729508 C185.563637,33.2907095 185.287488,33.092624 185.049081,32.8786885 L185.728535,31.7614754 C185.815951,31.6267753 185.919259,31.5237708 186.038462,31.452459 C186.157665,31.3811472 186.308653,31.3454918 186.491431,31.3454918 C186.674209,31.3454918 186.847051,31.396994 187.009962,31.5 C187.172873,31.603006 187.361608,31.7139338 187.576173,31.8327869 C187.790739,31.9516399 188.043048,32.0625678 188.333109,32.1655738 C188.62317,32.2685798 188.990707,32.320082 189.435732,32.320082 C189.785394,32.320082 190.085384,32.278484 190.33571,32.1952869 C190.586037,32.1120897 190.792652,32.0031428 190.955563,31.8684426 C191.118474,31.7337425 191.237675,31.577255 191.31317,31.3989754 C191.388666,31.2206958 191.426413,31.0364764 191.426413,30.8463115 C191.426413,30.5610641 191.340985,30.3273233 191.170127,30.145082 C190.99927,29.9628406 190.772787,29.8043723 190.490673,29.6696721 C190.20856,29.534972 189.886716,29.4141399 189.525134,29.3071721 C189.163551,29.2002044 188.794027,29.083334 188.416551,28.9565574 C188.039074,28.8297808 187.669551,28.6812167 187.307968,28.5108607 C186.946385,28.3405046 186.624542,28.1245915 186.342428,27.8631148 C186.060314,27.601638 185.833832,27.2807396 185.662974,26.9004098 C185.492116,26.5200801 185.406689,26.0605218 185.406689,25.5217213 C185.406689,25.0225385 185.506023,24.5471334 185.704695,24.0954918 C185.903367,23.6438502 186.19541,23.2496602 186.580833,22.9129098 C186.966256,22.5761595 187.447035,22.3067633 188.023183,22.1047131 C188.599331,21.9026629 189.264871,21.8016393 190.019824,21.8016393 C190.862192,21.8016393 191.629053,21.9402992 192.320431,22.217623 C193.011809,22.4949467 193.587948,22.859424 194.048867,23.3110656 L193.381333,24.3688525 Z" id="PDF-Reports" fill="#FFFFFF"></path>
                <g id="PDF" transform="translate(15.000000, 17.000000)">
                    <path d="M0,2.98961938 C0,1.3383218 1.34592033,0 3.00659341,0 L25.0549451,0 L37.5824176,10.4636678 L37.5824176,46.8373702 C37.5824176,48.4886678 36.2364973,49.8269896 34.5758242,49.8269896 L3.00659341,49.8269896 C1.34592033,49.8269896 0,48.4886678 0,46.8373702 L0,2.98961938 Z" id="Fill-253" fill="#FFFFFF"></path>
                    <path d="M25.0549451,0 L25.0549451,7.47404844 C25.0549451,9.12534602 26.4008654,10.4636678 28.0615385,10.4636678 L37.5824176,10.4636678" id="Fill-254" fill="#CFD9DE"></path>
                    <path d="M11.5104766,17.2314187 C10.1160124,17.869827 12.666919,20.7956055 13.7278393,21.8988062 C13.5469739,20.3837543 12.9002431,16.5945675 11.5104766,17.2314187 M15.9718228,30.9268339 C16.0117541,30.952526 16.061081,30.9556401 16.1041442,30.9346194 C17.1212184,30.4293426 18.1696113,29.952872 19.2180041,29.5207785 C19.2634162,29.5020934 19.2947349,29.4600519 19.2986497,29.411782 C18.3105453,28.7648097 17.3310536,28.070346 16.3914931,27.352526 C16.3499959,27.3206055 16.2944052,27.3135986 16.2466442,27.3353979 C16.2012321,28.5296886 16.108842,29.7403287 15.9718228,30.9268339 M25.0965206,30.0050346 C26.6460124,30.7259689 30.3713695,32.2129931 30.5287459,30.5157612 C30.6837734,28.8341003 26.7305728,29.5978547 25.0965206,30.0050346 M12.7491305,35.5732007 C11.2082514,36.6257958 7.80782555,39.2284775 9.38002335,40.2655017 C10.9851058,41.3243253 12.2723036,37.3973356 12.7491305,35.5732007 M9.9750783,42.8261419 C9.3361772,42.8261419 8.69884203,42.6190484 8.08108104,42.2118685 C6.79388324,41.362474 6.55351236,40.2950865 6.57778434,39.5484602 C6.66469368,36.9270934 10.2279766,34.2582353 13.401342,32.395173 C13.7638558,30.110917 13.947853,27.6398097 13.9290618,25.3283045 C11.287331,22.9872145 8.41305907,19.8138581 8.76774313,17.3326298 C8.86639698,16.6412803 9.25239973,15.6945675 10.5262871,15.1098789 C10.9866717,14.8988927 11.4470563,14.7922318 11.8956964,14.7922318 C14.5045426,14.7922318 16.0454217,18.1430969 16.2552569,24.2445675 C18.0592129,25.761955 20.1199821,27.2271799 22.1455179,28.4323702 C24.0340343,27.8087543 26.5371799,27.144654 28.6331827,27.144654 C30.2366992,27.144654 31.4142816,27.5432699 32.1346113,28.3288235 C32.5307926,28.7601384 32.9786497,29.5270069 32.8674684,30.7306401 C32.6991305,32.5477682 31.4197624,33.6322837 29.4443365,33.6322837 C27.1518091,33.6322837 24.1593091,32.2534775 21.8988832,30.9898962 C19.7590343,31.761436 17.5322761,32.769654 15.5294464,33.8744118 C14.7425646,38.0832353 13.1507926,42.8253633 9.9750783,42.8261419" id="Fill-255" fill="#F0386B"></path>
                </g>
            </g>
        </g>
    </g>
</svg>