<svg xmlns="http://www.w3.org/2000/svg" width="60" height="60" viewBox="0 0 60 60">
    <g fill="none" fill-rule="evenodd">
        <g>
            <g transform="translate(-731 -7218) translate(731 7218)">
                <circle cx="30" cy="30" r="30" fill="#282426"/>
                <g>
                    <path fill="#AD7DCF" d="M0 3.375C0 1.511 1.425 0 3.181 0h23.33c1.757 0 3.181 1.51 3.181 3.375v29.25c0 1.864-1.424 3.375-3.18 3.375H3.181C1.424 36 0 34.49 0 32.625V3.375z" transform="translate(15 12)"/>
                    <path fill="#CFD3D4" d="M3.181 6.37c0-.637.475-1.153 1.06-1.153h21.21c.585 0 1.06.516 1.06 1.153v24.195c0 1.273-.95 2.305-2.12 2.305H5.301c-1.171 0-2.12-1.032-2.12-2.305V6.37z" transform="translate(15 12)"/>
                    <path fill="#FFF" d="M25.45 5.217c.586 0 1.061.52 1.061 1.16v23.768c0 .64-.475 1.16-1.06 1.16H4.24c-.582 0-1.06-.522-1.06-1.16V6.377c0-.64.475-1.16 1.06-1.16h21.21z" transform="translate(15 12)"/>
                    <path fill="#E1C618" d="M18.028 3.13c0-1.729-1.425-3.13-3.182-3.13-1.756 0-3.181 1.401-3.181 3.13H9.544c-.585 0-1.06.467-1.06 1.044v2.609c0 .576.475 1.043 1.06 1.043h10.604c.586 0 1.06-.467 1.06-1.043v-2.61c0-.576-.474-1.043-1.06-1.043h-2.12z" transform="translate(15 12)"/>
                    <path fill="#8736C1" d="M23.33 12.522L6.363 12.522 6.363 11.478 23.33 11.478zM23.33 15.652L6.363 15.652 6.363 14.609 23.33 14.609zM23.33 18.783L6.363 18.783 6.363 17.739 23.33 17.739zM16.967 21.913L6.363 21.913 6.363 20.87 16.967 20.87z" transform="translate(15 12)"/>
                    <path fill="#F2DA3E" d="M20.148 3.13h-2.12c0-1.729-1.425-3.13-3.182-3.13-1.756 0-3.181 1.401-3.181 3.13H9.544c-.585 0-1.06.468-1.06 1.044v1.043h12.725V4.174c0-.576-.475-1.044-1.06-1.044" transform="translate(15 12)"/>
                    <path fill="#81B44C" d="M17.14 25.429c-.227 0-.406.075-.532.222-.112.133-.175.319-.175.522 0 .11.018.22.053.323.528-.336.917-.751.917-.972 0-.026-.006-.038-.027-.052-.026-.016-.09-.043-.236-.043m6.959 1.897h-3.145c-.264 0-.472-.074-.616-.22-.269-.273-.256-.715-.245-1.104.006-.196.013-.463-.046-.524-.003-.002-.01-.009-.037-.009-.178 0-.253.441-.314.796-.085.497-.182 1.061-.63 1.061-.184 0-.324-.058-.415-.174-.196-.25-.084-.676.024-1.088.052-.198.139-.53.093-.597-.16.002-.248.285-.34.584-.167.538-.396 1.275-1.249 1.275-.363 0-.638-.165-.817-.403-.45.239-.948.403-1.385.403-.823 0-1.191-.5-1.191-.995 0-.633.563-1.288 1.506-1.288.087 0 .157.07.157.155 0 .086-.07.155-.157.155-.746 0-1.192.497-1.192.978 0 .331.23.686.877.686.402 0 .842-.15 1.235-.361-.062-.154-.093-.32-.093-.483 0-.276.088-.532.248-.72.185-.218.453-.334.773-.334.176 0 .309.03.407.093.11.071.17.182.17.312 0 .355-.469.858-1.083 1.242.125.15.308.25.545.25.576 0 .756-.437.947-1.055.122-.394.249-.801.626-.801.142 0 .223.064.265.117.142.18.059.498-.037.864-.077.292-.182.692-.08.822.01.013.042.054.166.054.182 0 .259-.446.32-.804.084-.494.18-1.053.624-1.053.132 0 .216.056.262.103.153.154.145.43.135.748-.01.328-.02.7.157.879.084.085.211.127.39.127h3.145c.087 0 .157.069.157.154 0 .086-.07.155-.157.155" transform="translate(15 12)"/>
                </g>
            </g>
        </g>
    </g>
</svg>
