<?xml version="1.0" encoding="UTF-8"?>
<svg width="150px" height="150px" viewBox="0 0 150 150" version="1.1" xmlns="http://www.w3.org/2000/svg" xmlns:xlink="http://www.w3.org/1999/xlink">
    <!-- Generator: Sketch 50 (54983) - http://www.bohemiancoding.com/sketch -->
    <title>assets/img_search_radar</title>
    <desc>Created with Sketch.</desc>
    <defs></defs>
    <g id="assets/img_search_radar" stroke="none" stroke-width="1" fill="none" fill-rule="evenodd">
        <g id="Group">
            <path d="M148.876835,75 C148.876835,116.312334 115.769896,149.800532 74.9325806,149.800532 C34.0927621,149.800532 0.985823253,116.312334 0.985823253,75 C0.985823253,33.6876662 34.0927621,0.199468085 74.9325806,0.199468085 C115.769896,0.199468085 148.876835,33.6876662 148.876835,75" id="Fill-7663" fill="#353167"></path>
            <path d="M74.9310786,0.199468085 C34.0937634,0.199468085 0.986824597,33.6901596 0.986824597,75 C0.986824597,95.0964096 8.83485887,113.325299 21.5794657,126.764461 L126.93338,21.8317819 C113.57545,8.45994016 95.2082964,0.199468085 74.9310786,0.199468085" id="Fill-7664" fill="#8B88AA"></path>
            <path d="M109.439148,96.193484 C109.439148,98.9461436 107.231184,101.180186 104.510032,101.180186 C101.786376,101.180186 99.5809157,98.9461436 99.5809157,96.193484 C99.5809157,93.4408245 101.786376,91.2067819 104.510032,91.2067819 C107.231184,91.2067819 109.439148,93.4408245 109.439148,96.193484" id="Fill-7665" fill="#F2DA3E"></path>
            <path d="M50.282994,37.599734 C50.282994,40.3523936 48.0750302,42.5864362 45.3538777,42.5864362 C42.6302218,42.5864362 40.4222581,40.3523936 40.4222581,37.599734 C40.4222581,34.8470745 42.6302218,32.6130319 45.3538777,32.6130319 C48.0750302,32.6130319 50.282994,34.8470745 50.282994,37.599734" id="Fill-7666" fill="#F2DA3E"></path>
            <path d="M119.298883,129.853723 C119.298883,132.606383 117.090919,134.840426 114.369766,134.840426 C111.646111,134.840426 109.438147,132.606383 109.438147,129.853723 C109.438147,127.101064 111.646111,124.867021 114.369766,124.867021 C117.090919,124.867021 119.298883,127.101064 119.298883,129.853723" id="Fill-7667" fill="#F2DA3E"></path>
            <path d="M74.9310786,0.199468085 C95.2081068,0.199468085 113.575107,8.45978574 126.933006,21.831407 L74.9310786,73.6254156 L74.9310786,0.199468085 Z" id="Combined-Shape" fill="#EBEAF4"></path>
            <path d="M109.439148,23.8863032 C109.439148,28.7059508 105.576463,32.6130319 100.812569,32.6130319 C96.0486744,32.6130319 92.1859896,28.7059508 92.1859896,23.8863032 C92.1859896,19.0666556 96.0486744,15.1595745 100.812569,15.1595745 C105.576463,15.1595745 109.439148,19.0666556 109.439148,23.8863032" id="Fill-7669" fill="#F2DA3E"></path>
            <path d="M25.6344086,89.9601064 C25.6344086,92.712766 23.4264449,94.9468085 20.7052923,94.9468085 C17.9816364,94.9468085 15.7736727,92.712766 15.7736727,89.9601064 C15.7736727,87.2074468 17.9816364,84.9734043 20.7052923,84.9734043 C23.4264449,84.9734043 25.6344086,87.2074468 25.6344086,89.9601064" id="Fill-7670" fill="#F2DA3E"></path>
            <path d="M114.244098,72.5066489 C112.987411,52.0985705 96.5303209,35.8319481 76.203036,35.1712101 L76.203036,20.1786902 C104.693779,20.8469082 127.81982,43.8405918 129.096534,72.5066489 L114.244098,72.5066489 Z M76.203036,129.82131 L76.203036,114.82879 C96.5303209,114.168052 112.987411,97.9014295 114.244098,77.4933511 L129.096534,77.4933511 C127.81982,106.159408 104.693779,129.153092 76.203036,129.82131 L76.203036,129.82131 Z M76.203036,94.8819814 C85.6582275,94.268617 93.313503,86.8957779 94.4775655,77.4933511 L109.314982,77.4933511 C108.070811,95.1512633 93.8141751,109.18883 76.203036,109.842088 L76.203036,94.8819814 Z M76.203036,77.4933511 L89.4983821,77.4933511 C88.3868901,84.1431184 82.9395783,89.3118351 76.203036,89.8952793 L76.203036,77.4933511 Z M76.203036,60.1047207 C82.9395783,60.6881649 88.3868901,65.8568816 89.4983821,72.5066489 L76.203036,72.5066489 L76.203036,60.1047207 Z M76.203036,40.1579122 C93.8141751,40.8111702 108.070811,54.8487367 109.314982,72.5066489 L94.4775655,72.5066489 C93.313503,63.1042221 85.6582275,55.731383 76.203036,55.1180186 L76.203036,40.1579122 Z M71.2714163,35.2933843 C52.0506166,37.0935838 36.8251798,52.9039229 35.6185601,72.5066489 L20.7686274,72.5066489 C22.0052873,44.6459441 43.8871589,22.1409574 71.2714163,20.2859043 L71.2714163,35.2933843 Z M71.2714163,55.412234 C62.9377302,57.0004987 56.4515239,63.9070811 55.382589,72.5066489 L40.5501798,72.5066489 C41.7342692,55.6515957 54.7692658,42.0628324 71.2714163,40.2950465 L71.2714163,55.412234 Z M71.2714163,72.5066489 L60.3667792,72.5066489 C61.3405864,66.6647274 65.6638894,61.9722407 71.2714163,60.5211104 L71.2714163,72.5066489 Z M71.2714163,89.4788896 C65.6638894,88.0277593 61.3405864,83.3352726 60.3667792,77.4933511 L71.2714163,77.4933511 L71.2714163,89.4788896 Z M71.2714163,109.704953 C54.7692658,107.937168 41.7342692,94.3484043 40.5501798,77.4933511 L55.382589,77.4933511 C56.4515239,86.0929189 62.9377302,92.9995013 71.2714163,94.587766 L71.2714163,109.704953 Z M71.2714163,129.714096 C43.8871589,127.859043 22.0052873,105.354056 20.7686274,77.4933511 L35.6185601,77.4933511 C36.8251798,97.0960771 52.0506166,112.906416 71.2714163,114.706616 L71.2714163,129.714096 Z M148.810496,72.5066489 L134.02565,72.5066489 C132.74393,41.0904255 107.412428,15.8626995 76.203036,15.191988 L76.203036,0.229388298 C75.7774647,0.224401596 75.3569002,0.199468085 74.931329,0.199468085 C73.7046825,0.199468085 72.485546,0.234375 71.2714163,0.294215426 L71.2714163,15.284242 C41.1685097,17.1542553 17.0836811,41.8957779 15.8370077,72.5066489 L1.04965894,72.5066489 C1.01961862,73.3369348 0.987074933,74.1647274 0.987074933,75 C0.987074933,75.8352726 1.01961862,76.6630652 1.04965894,77.4933511 L15.8370077,77.4933511 C17.0836811,108.104222 41.1685097,132.845745 71.2714163,134.715758 L71.2714163,149.705785 C72.485546,149.765625 73.7046825,149.800532 74.931329,149.800532 C75.3569002,149.800532 75.7774647,149.775598 76.203036,149.768118 L76.203036,134.808012 C107.412428,134.137301 132.74393,108.909574 134.02565,77.4933511 L148.820509,77.4933511 C148.845543,76.6630652 148.878086,75.8352726 148.875583,75 C148.875583,74.1647274 148.838033,73.3369348 148.810496,72.5066489 L148.810496,72.5066489 Z" id="Fill-7671" fill="#8B88AA"></path>
            <path d="M71.272668,20.2851562 L71.272668,35.2951297 C52.0493649,37.0928358 36.8264315,52.9031749 35.6173085,72.5059009 L20.7673757,72.5059009 C22.006539,44.6451961 43.8859073,22.1427028 71.272668,20.2851562 L71.272668,20.2851562 Z M71.272668,55.411486 C62.9364785,57.002244 56.4502722,63.9088265 55.3838407,72.5059009 L40.5489281,72.5059009 C41.7355208,55.6508477 54.7680141,42.0620844 71.272668,40.2942985 L71.272668,55.411486 Z M71.272668,72.5059009 L60.3655276,72.5059009 C61.3393347,66.6639794 65.6651411,61.973986 71.272668,60.5228557 L71.272668,72.5059009 Z M32.1551613,116.229305 L35.6648723,112.73612 C26.9456687,103.458361 21.3731888,91.12874 20.7673757,77.4926031 L35.6173085,77.4926031 C36.2055981,87.0371509 40.1358737,95.6641456 46.2115289,102.231632 L49.7137298,98.7409408 C44.5117473,93.0760472 41.1247009,85.6782746 40.5489281,77.4926031 L55.3838407,77.4926031 C55.8920228,81.6016456 57.6644019,85.2992852 60.2603864,88.2389461 L63.7700974,84.7407746 C62.0452823,82.7186669 60.8236425,80.2427693 60.3655276,77.4926031 L71.0473656,77.4926031 L76.2017843,72.3587932 L76.2017843,60.1064661 C79.4736761,60.3882148 82.4276411,61.7670379 84.740746,63.8564661 L88.2604704,60.3508145 C85.0411492,57.3538065 80.8430141,55.4189661 76.2017843,55.119764 L76.2017843,40.1596576 C84.9585383,40.4837932 92.87917,44.1215924 98.7921069,49.8612866 L102.299315,46.3656084 C95.4951815,39.708361 86.3303797,35.5020778 76.2017843,35.1729555 L76.2017843,20.1804355 C90.4509106,20.5145445 103.355733,26.4312666 112.860991,35.8486536 L116.368199,32.3529754 C105.971744,22.0180352 91.822752,15.5278424 76.2017843,15.1937334 L76.2017843,0.231133644 C75.7787164,0.22365359 75.3581519,0.19872008 74.9300773,0.19872008 C73.7034308,0.19872008 72.4842944,0.233626995 71.272668,0.29346742 L71.272668,15.2859874 C41.1672581,17.1535073 17.0849328,41.8950299 15.8382594,72.5059009 L1.04840726,72.5059009 C1.0208703,73.3361868 0.985823253,74.1639794 0.985823253,74.999252 C0.985823253,75.837018 1.0208703,76.6623172 1.04840726,77.4926031 L15.8382594,77.4926031 C16.4490793,92.4876164 22.5622849,106.051446 32.1551613,116.229305 L32.1551613,116.229305 Z" id="Fill-7672" fill="#353167"></path>
        </g>
    </g>
</svg>