<?xml version="1.0" encoding="UTF-8"?>
<svg width="80px" height="80px" viewBox="0 0 80 80" version="1.1" xmlns="http://www.w3.org/2000/svg" xmlns:xlink="http://www.w3.org/1999/xlink">
    <!-- Generator: Sketch 49.1 (51147) - http://www.bohemiancoding.com/sketch -->
    <title>assets/img_domain_github</title>
    <desc>Created with Sketch.</desc>
    <defs></defs>
    <g id="Freshness" stroke="none" stroke-width="1" fill="none" fill-rule="evenodd">
        <g id="Freeform-Icons" transform="translate(-560.000000, -1300.000000)">
            <g id="assets/img_domain_github" transform="translate(560.000000, 1300.000000)">
                <circle id="Oval-7" fill="#353167" cx="40" cy="40" r="40"></circle>
                <path d="M18,40.557451 C18,50.5234408 24.4463305,58.9772921 33.3872126,61.9600269 C34.5129378,62.1677382 34.9231714,61.4712129 34.9231714,60.8730043 C34.9231714,60.337109 34.9038338,58.919133 34.8927837,57.0372683 C28.6343043,58.3998546 27.3138218,54.0129912 27.3138218,54.0129912 C26.2903097,51.4069064 24.8151263,50.7131505 24.8151263,50.7131505 C22.7722459,49.3145608 24.9698272,49.3422557 24.9698272,49.3422557 C27.2281838,49.501501 28.4160656,51.6672379 28.4160656,51.6672379 C30.4230332,55.1138613 33.6828018,54.1182316 34.9646091,53.5407941 C35.1690353,52.0840453 35.7505448,51.0898004 36.3928297,50.5262103 C31.39682,49.9570812 26.1438964,48.0212116 26.1438964,39.3776506 C26.1438964,36.9155789 27.0209951,34.9007789 28.4602658,33.3249423 C28.2282145,32.7544285 27.4560913,30.4599106 28.6812671,27.3553185 C28.6812671,27.3553185 30.5694466,26.7488014 34.8679211,29.6678381 C36.662175,29.1665614 38.5876485,28.9173078 40.5006906,28.9076146 C42.4123515,28.9173078 44.3364437,29.1665614 46.1334602,29.6678381 C50.4291722,26.7488014 52.3145892,27.3553185 52.3145892,27.3553185 C53.5425274,30.4599106 52.7704042,32.7544285 52.5397342,33.3249423 C53.9817674,34.9007789 54.8519599,36.9155789 54.8519599,39.3776506 C54.8519599,48.0433675 49.5907486,49.9501575 44.5795451,50.5082086 C45.3861997,51.204734 46.105835,52.5811678 46.105835,54.6845912 C46.105835,57.7005598 46.0782099,60.1335519 46.0782099,60.8730043 C46.0782099,61.4767519 46.4842997,62.1788162 47.6252187,61.9586422 C56.5591946,58.9689837 63,50.5206713 63,40.557451 C63,28.0989251 52.9251051,18 40.4979281,18 C28.0748949,18 18,28.0989251 18,40.557451 Z" id="Fill-51" fill="#FFFFFF"></path>
            </g>
        </g>
    </g>
</svg>