<svg xmlns="http://www.w3.org/2000/svg" xmlns:xlink="http://www.w3.org/1999/xlink" width="60" height="60" viewBox="0 0 60 60">
    <defs>
        <path id="ntxhddttta" d="M0 0.065L28.368 0.065 28.368 35.784 0 35.784z"/>
        <path id="y5io6wxjxc" d="M0 0.065L6.746 0.065 6.746 6.811 0 6.811z"/>
    </defs>
    <g fill="none" fill-rule="evenodd">
        <g>
            <g transform="translate(-731 -7549) translate(731 7549)">
                <circle cx="30" cy="30" r="30" fill="#282426"/>
                <path fill="#F0F0F0" d="M24.224 12.065L22.746 12.065 22.443 12.608 17.066 18.59 16 18.811 16.264 19.199 19.048 20.027 26.724 17.637 24.224 14.093z"/>
                <g>
                    <g transform="translate(16 12)">
                        <mask id="ieq29fq1gb" fill="#fff">
                            <use xlink:href="#ntxhddttta"/>
                        </mask>
                        <path fill="#F0F0F0" d="M27.33.065H6.79v5.708c0 .562-.476 1.038-1.039 1.038H0v27.935c0 .562.476 1.038 1.038 1.038H27.33c.562 0 1.038-.476 1.038-1.038V1.103c0-.562-.476-1.038-1.038-1.038" mask="url(#ieq29fq1gb)"/>
                    </g>
                    <g transform="translate(16 12)">
                        <mask id="v11syih1jd" fill="#fff">
                            <use xlink:href="#y5io6wxjxc"/>
                        </mask>
                        <path fill="#E5C8FA" d="M0 6.81h5.708c.562 0 1.038-.475 1.038-1.037V.065L0 6.81z" mask="url(#v11syih1jd)"/>
                    </g>
                    <path fill="#8736C1" d="M11.286 11.438L25.297 11.438 25.297 10.314 11.286 10.314zM11.286 13.73L20.022 13.73 20.022 12.605 11.286 12.605zM11.286 19.568L25.297 19.568 25.297 18.443 11.286 18.443zM11.286 21.859L20.022 21.859 20.022 20.735 11.286 20.735zM11.286 27.697L25.297 27.697 25.297 26.573 11.286 26.573zM11.286 29.989L20.022 29.989 20.022 28.865 11.286 28.865z" transform="translate(16 12)"/>
                    <path fill="#FF4722" d="M5.133 14.86l-1.852-1.852c-.211-.21-.211-.553 0-.764.211-.211.553-.211.764 0l1.088 1.088 3.076-3.076c.21-.21.553-.21.764 0 .211.212.211.554 0 .765l-3.84 3.84zM5.133 22.58l-1.852-1.853c-.211-.211-.211-.553 0-.765.211-.21.553-.21.764 0l1.088 1.088 3.076-3.075c.21-.211.553-.211.764 0 .211.211.211.553 0 .764l-3.84 3.84zM5.133 30.298l-1.852-1.853c-.211-.21-.211-.553 0-.764.211-.211.553-.21.764 0l1.088 1.088 3.076-3.076c.21-.21.553-.21.764 0 .211.211.211.554 0 .765l-3.84 3.84z" transform="translate(16 12)"/>
                </g>
            </g>
        </g>
    </g>
</svg>
