<?xml version="1.0" encoding="UTF-8"?>
<svg width="200px" height="200px" viewBox="0 0 200 200" version="1.1" xmlns="http://www.w3.org/2000/svg" xmlns:xlink="http://www.w3.org/1999/xlink">
    <!-- Generator: Sketch 48.2 (47327) - http://www.bohemiancoding.com/sketch -->
    <title>assets/img_criminal_record</title>
    <desc>Created with Sketch.</desc>
    <defs></defs>
    <g id="Circular-Icons" stroke="none" stroke-width="1" fill="none" fill-rule="evenodd" transform="translate(0.000000, -250.000000)">
        <g id="assets/img_criminal_record" transform="translate(0.000000, 250.000000)">
            <circle id="background" fill="#353167" cx="100" cy="100" r="100"></circle>
            <g id="badge" transform="translate(40.000000, 37.000000)">
                <path d="M94.838129,63.0005906 L110.908452,41.2045594 C115.801355,42.0826219 119.999419,38.2415906 119.999419,33.4693406 C119.999419,29.1203719 116.532968,25.5943406 112.257484,25.5943406 C108.653613,25.5943406 105.653613,28.1084344 104.790387,31.5005906 L75.4832903,31.5005906 L66.1794194,12.5730281 C67.1471613,11.2579031 67.7413548,9.64352812 67.7413548,7.87559062 C67.7413548,3.52662187 64.2749032,0.000590624999 59.9994194,0.000590624999 C55.7239355,0.000590624999 52.2574839,3.52662187 52.2574839,7.87559062 C52.2574839,9.64352812 52.8516774,11.2579031 53.8194194,12.5730281 L44.5155484,31.5005906 L15.2103871,31.5005906 C14.3471613,28.1084344 11.3452258,25.5943406 7.74135484,25.5943406 C3.46587097,25.5943406 -0.000580645161,29.1203719 -0.000580645161,33.4693406 C-0.000580645161,38.2337156 4.18974194,42.0826219 9.09232258,41.2045594 L25.1607097,63.0005906 L9.09232258,84.7946531 C4.19748387,83.9185594 -0.000580645161,87.7576219 -0.000580645161,92.5318406 C-0.000580645161,96.8808094 3.46587097,100.406841 7.74135484,100.406841 C11.3452258,100.406841 14.3471613,97.8907781 15.2103871,94.5005906 L44.5155484,94.5005906 L53.8194194,113.426184 C52.8516774,114.741309 52.2574839,116.355684 52.2574839,118.125591 C52.2574839,122.474559 55.7239355,126.000591 59.9994194,126.000591 C64.2749032,126.000591 67.7413548,122.474559 67.7413548,118.125591 C67.7413548,116.355684 67.1471613,114.741309 66.1794194,113.426184 L75.4832903,94.5005906 L104.790387,94.5005906 C105.653613,97.8907781 108.653613,100.406841 112.257484,100.406841 C116.532968,100.406841 119.999419,96.8808094 119.999419,92.5318406 C119.999419,87.7674656 115.809097,83.9165906 110.908452,84.7946531 L94.838129,63.0005906 Z" id="Fill-2401" fill="#E1C618"></path>
                <path d="M75.483871,31.5 L66.18,12.5724375 C67.1477419,11.2592813 67.7419355,9.6429375 67.7419355,7.875 C67.7419355,3.52603125 64.2754839,0 60,0 C55.7245161,0 52.2580645,3.52603125 52.2580645,7.875 C52.2580645,9.6429375 52.8522581,11.2592813 53.82,12.5724375 L44.516129,31.5 L15.2109677,31.5 C14.3477419,28.1098125 11.3458065,25.59375 7.74193548,25.59375 C3.46645161,25.59375 0,29.1197813 0,33.46875 C0,38.233125 4.19032258,42.0820312 9.09096774,41.2059375 L25.1612903,63 L9.09096774,84.7940625 C4.19806452,83.9179688 0,87.759 0,92.53125 C0,96.8802188 3.46645161,100.40625 7.74193548,100.40625 C11.3458065,100.40625 14.3477419,97.8901875 15.2109677,94.5 L28.9896774,94.5 L90.9251613,31.5 L75.483871,31.5 Z" id="Fill-2402" fill="#F2DA3E"></path>
                <path d="M87.0967742,63 C87.0967742,78.222375 74.9651613,90.5625 60,90.5625 C45.0348387,90.5625 32.9032258,78.222375 32.9032258,63 C32.9032258,47.777625 45.0348387,35.4375 60,35.4375 C74.9651613,35.4375 87.0967742,47.777625 87.0967742,63" id="Fill-2403" fill="#F2DA3E"></path>
                <path d="M60,35.4375 C45.0348387,35.4375 32.9032258,47.777625 32.9032258,63 C32.9032258,70.599375 35.9283871,77.482125 40.8193548,82.467 L79.1380645,43.4896875 C74.2354839,38.5146562 67.4709677,35.4375 60,35.4375" id="Fill-2404" fill="#F5E895"></path>
                <path d="M60,84.65625 C48.2419355,84.65625 38.7096774,74.9601563 38.7096774,63 C38.7096774,51.0398437 48.2419355,41.34375 60,41.34375 C71.7580645,41.34375 81.2903226,51.0398437 81.2903226,63 C81.2903226,74.9601563 71.7580645,84.65625 60,84.65625 Z" id="Fill-2405" fill="#D7BA00"></path>
                <path d="M60,41.34375 C48.2419355,41.34375 38.7096774,51.0398437 38.7096774,63 C38.7096774,68.96925 41.0845161,74.3734688 44.9245161,78.2912813 L75.0329032,47.6654063 C71.1812903,43.7594062 65.8683871,41.34375 60,41.34375" id="Fill-2406" fill="#E9CE1B"></path>
            </g>
        </g>
    </g>
</svg>