<?xml version="1.0" encoding="UTF-8"?>
<svg width="80px" height="80px" viewBox="0 0 80 80" version="1.1" xmlns="http://www.w3.org/2000/svg" xmlns:xlink="http://www.w3.org/1999/xlink">
    <!-- Generator: Sketch 49.1 (51147) - http://www.bohemiancoding.com/sketch -->
    <title>assets/img_domain_pinterest</title>
    <desc>Created with Sketch.</desc>
    <defs></defs>
    <g id="Freshness" stroke="none" stroke-width="1" fill="none" fill-rule="evenodd">
        <g id="Freeform-Icons" transform="translate(-400.000000, -1460.000000)">
            <g id="assets/img_domain_pinterest" transform="translate(400.000000, 1460.000000)">
                <circle id="Oval-7" fill="#353167" cx="40" cy="40" r="40"></circle>
                <path d="M40.6225299,64 C28.457447,64 22,56.0976371 22,47.4834013 C22,43.4837091 24.1988526,38.5005991 27.7200884,36.9149597 C28.2560742,36.6734396 28.5393362,36.7794168 28.6608358,37.2780435 C28.7551181,37.6583788 29.2323999,39.5089038 29.4448019,40.3729682 C29.5148613,40.6487903 29.4802319,40.8857176 29.2476689,41.1584109 C28.0887084,42.5205279 27.1550173,45.0389791 27.1550173,47.3829928 C27.1550173,53.4000408 31.8617193,59.2224719 39.8789748,59.2224719 C46.8069437,59.2224719 51.6515113,54.6570131 51.6515113,48.1232831 C51.6515113,40.7401855 47.8066917,35.6276179 42.7940169,35.6276179 C40.02615,35.6276179 37.9544895,37.839074 38.6183198,40.5607821 C39.4159242,43.8023871 40.9540596,47.3063516 40.9540596,49.642615 C40.9540596,51.7417789 39.7917488,53.4890249 37.3867501,53.4890249 C34.5593786,53.4890249 32.2857228,50.6555986 32.2857228,46.8594218 C32.2857228,44.4430726 33.1308241,42.8106448 33.1308241,42.8106448 C33.1308241,42.8106448 30.338764,31.3733164 29.8285723,29.2445869 C28.9580918,25.6318321 29.9424226,19.7784 30.0292927,19.267172 C30.073469,18.9927565 30.3883363,18.9000408 30.5662274,19.1307852 C30.8407726,19.4853151 34.2079547,24.3742455 35.1602651,27.9094981 C35.4982581,29.1851283 36.9116029,34.3964396 36.9116029,34.3964396 C37.8354507,32.6991395 40.5156767,31.2639119 43.3720148,31.2639119 C51.8719481,31.2639119 58,38.8355984 58,48.236913 C58,57.2538736 50.4016781,63.9997302 40.6227078,63.9997302" id="pinterest-icon" fill="#BD081C" fill-rule="nonzero" transform="translate(40.000000, 41.500000) scale(1, -1) translate(-40.000000, -41.500000) "></path>
            </g>
        </g>
    </g>
</svg>