<?xml version="1.0" encoding="UTF-8"?>
<svg width="18px" height="16px" viewBox="0 0 18 16" version="1.1" xmlns="http://www.w3.org/2000/svg" xmlns:xlink="http://www.w3.org/1999/xlink">
    <!-- Generator: Sketch 48.2 (47327) - http://www.bohemiancoding.com/sketch -->
    <title>LinkedIn-color</title>
    <desc>Created with Sketch.</desc>
    <defs></defs>
    <g id="iPhone-SE" stroke="none" stroke-width="1" fill="none" fill-rule="evenodd" transform="translate(-232.000000, -902.000000)">
        <g id="Footer-Mobile" transform="translate(20.000000, 20.000000)" fill="#007EBB">
            <g id="SocialMedia" transform="translate(2.000000, 882.000000)">
                <path d="M228,16 L224.021754,16 L224.021754,10.3753602 C224.021754,8.9031184 223.399459,7.89805981 222.031044,7.89805981 C220.98436,7.89805981 220.402281,8.57629506 220.13135,9.22994173 C220.029751,9.46455785 220.045626,9.79138119 220.045626,10.1182045 L220.045626,16 L216.104421,16 C216.104421,16 216.155221,6.03649869 216.104421,5.13081898 L220.045626,5.13081898 L220.045626,6.83665237 C220.278457,6.09079849 221.537865,5.02631747 223.547625,5.02631747 C226.04104,5.02631747 228,6.58974195 228,9.95632964 L228,16 L228,16 Z M212.118768,3.77127489 L212.093368,3.77127489 C210.823377,3.77127489 210,2.94038548 210,1.88717423 C210,0.813472498 210.847719,0 212.143109,0 C213.437441,0 214.233302,0.811423449 214.258702,1.88410066 C214.258702,2.9373119 213.437441,3.77127489 212.118768,3.77127489 L212.118768,3.77127489 L212.118768,3.77127489 Z M210.454022,5.13081898 L213.962371,5.13081898 L213.962371,16 L210.454022,16 L210.454022,5.13081898 L210.454022,5.13081898 Z" id="LinkedIn"></path>
            </g>
        </g>
    </g>
</svg>