<svg xmlns="http://www.w3.org/2000/svg" width="19" height="19" viewBox="0 0 19 19">
    <g fill="none" fill-rule="evenodd">
        <g>
            <g>
                <path fill="#8736C1" fill-rule="nonzero" d="M15.51 1H3.996C2.892 1 2 1.904 2 3.016V16.34c0 1.112.892 2.016 1.995 2.016H15.51c1.102 0 1.995-.904 1.995-2.016V3.016C17.506 1.904 16.613 1 15.51 1zm-11.515.7H15.51c.714 0 1.295.588 1.295 1.316V16.34c0 .727-.581 1.316-1.295 1.316H3.995c-.714 0-1.295-.589-1.295-1.316V3.016c0-.728.581-1.316 1.295-1.316z" transform="translate(-380 -588) translate(380 588)"/>
                <path fill="#8736C1" fill-rule="nonzero" d="M15.426 3.077c.193 0 .35.157.35.35 0 .17-.12.31-.28.343l-.07.007H9.984c-.193 0-.35-.157-.35-.35 0-.17.12-.31.28-.343l.07-.007h5.442zM15.426 5.373c.193 0 .35.157.35.35 0 .169-.12.31-.28.343l-.07.007H9.984c-.193 0-.35-.157-.35-.35 0-.17.12-.31.28-.343l.07-.007h5.442zM15.426 7.669c.193 0 .35.157.35.35 0 .169-.12.31-.28.343l-.07.007H9.984c-.193 0-.35-.157-.35-.35 0-.17.12-.31.28-.343l.07-.007h5.442zM15.426 9.965c.193 0 .35.156.35.35 0 .169-.12.31-.28.343l-.07.007H9.984c-.193 0-.35-.157-.35-.35 0-.17.12-.31.28-.343l.07-.007h5.442zM15.427 12.412c.193 0 .35.157.35.35 0 .17-.12.31-.28.343l-.07.008H4.093c-.193 0-.35-.157-.35-.35 0-.17.12-.31.28-.343l.07-.008h11.334z" transform="translate(-380 -588) translate(380 588)"/>
                <path fill="#FF4722" fill-rule="nonzero" d="M13.497 14.914c.202-.102.432-.06.563.127l.044.077c.017.035.06.094.114.153l.075.078.278-.142c.065-.031.115-.051.164-.066.08-.025.167-.035.262-.036l.112.003.113.01c.041.004.072.008.095.012.19.032.32.213.287.404-.029.167-.17.286-.333.291l-.199-.018-.067-.002c-.034 0-.058.003-.066.005l-.067.03-.38.195c-.086.04-.114.044-.184.053-.2.022-.457-.162-.644-.381l-.016-.022-.08.066-.082.056-.224.14c-.07.043-.134.076-.212.107-.261.105-.417.026-.572-.163l-.084-.11c0-.002.002 0 .005.002l-.13-.106c-.049-.037-.08-.053-.1-.057h-.008l-.02.04c-.016.033-.03.069-.037.097l-.009.035c-.035.19-.217.316-.407.282-.19-.035-.316-.217-.282-.407.016-.089.05-.205.113-.326.102-.2.251-.35.47-.402.266-.064.49.017.706.182l.182.15.051.058.218-.136.217-.19c.048-.041.082-.063.134-.09z" transform="translate(-380 -588) translate(380 588)"/>
                <path fill="#FF4722" d="M8.1 8.18c0 .862-.61 1.508-1.67 1.62v.869h-.645v-.87c-.69-.077-1.292-.395-1.706-.817l.448-.5c.457.439.981.724 1.601.724.801 0 1.3-.354 1.3-.991 0-.56-.335-.835-1.437-1.231-1.3-.465-1.74-.844-1.74-1.714 0-.861.603-1.378 1.534-1.481v-.87h.645v.862c.646.05 1.094.284 1.541.637l-.43.525c-.439-.362-.844-.56-1.447-.56-.827 0-1.17.37-1.17.844 0 .499.223.74 1.428 1.17 1.335.484 1.748.888 1.748 1.784" transform="translate(-380 -588) translate(380 588)"/>
                <path fill="#FF4722" d="M5.784 9.8L6.43 9.8 6.43 3.168 5.784 3.168z" transform="translate(-380 -588) translate(380 588)"/>
            </g>
        </g>
    </g>
</svg>
