<svg xmlns="http://www.w3.org/2000/svg" width="19" height="19" viewBox="0 0 19 19">
    <g fill="none" fill-rule="evenodd">
        <g fill-rule="nonzero">
            <g>
                <g>
                    <path fill="#FF4722" d="M9.5 3.023c-1.67 0-3.023 1.353-3.023 3.022 0 1.67 1.354 3.023 3.023 3.023 1.67 0 3.023-1.353 3.023-3.023 0-1.669-1.354-3.022-3.023-3.022zm0 .863c1.192 0 2.16.967 2.16 2.16 0 1.192-.968 2.159-2.16 2.159-1.192 0-2.16-.967-2.16-2.16 0-1.192.968-2.159 2.16-2.159zM10.364 10.795c3.033 0 5.504 2.406 5.61 5.413l.003.201h-.863c0-2.56-2.025-4.646-4.56-4.746l-.19-.004H8.636c-2.559 0-4.646 2.024-4.746 4.559l-.004.191h-.863c0-3.033 2.405-5.504 5.412-5.61l.201-.004h1.728z" transform="translate(-380 -648) translate(380 648)"/>
                    <path fill="#8736C1" d="M9.5 0C14.747 0 19 4.254 19 9.5c0 5.247-4.253 9.5-9.5 9.5S0 14.747 0 9.5C0 4.254 4.253 0 9.5 0zm0 .864C4.73.864.864 4.73.864 9.5c0 4.77 3.866 8.636 8.636 8.636s8.636-3.866 8.636-8.636S14.27.864 9.5.864z" transform="translate(-380 -648) translate(380 648)"/>
                </g>
            </g>
        </g>
    </g>
</svg>
