<?xml version="1.0" encoding="UTF-8"?>
<svg width="200px" height="200px" viewBox="0 0 200 200" version="1.1" xmlns="http://www.w3.org/2000/svg" xmlns:xlink="http://www.w3.org/1999/xlink">
    <!-- Generator: Sketch 48.1 (47250) - http://www.bohemiancoding.com/sketch -->
    <title>assets/img_weapons_permit</title>
    <desc>Created with Sketch.</desc>
    <defs></defs>
    <g id="Circular-Icons" stroke="none" stroke-width="1" fill="none" fill-rule="evenodd" transform="translate(-250.000000, -1250.000000)">
        <g id="assets/img_weapons_permit" transform="translate(250.000000, 1250.000000)">
            <circle id="background" fill="#353167" cx="100" cy="100" r="100"></circle>
            <g id="Group" transform="translate(40.000000, 56.000000)">
                <polygon id="Fill-2368" fill="#EBEAF4" points="120 30.1538462 11.25 30.1538462 11.25 7.53846154 120 7.53846154"></polygon>
                <path d="M86.8066875,18.0069346 C86.4579375,18.5308577 85.8729375,18.8455885 85.2466875,18.8455885 L61.0029375,18.8455885 C60.3766875,18.8455885 59.7916875,18.5308577 59.4429375,18.0069346 L52.4998125,7.53789615 L93.7498125,7.53789615 L86.8066875,18.0069346 Z" id="Fill-2369" fill="#8B88AA"></path>
                <polygon id="Fill-2370" fill="#FFFFFF" points="11.25 30.1538462 5.625 30.1538462 5.625 7.53846154 11.25 7.53846154"></polygon>
                <polygon id="Fill-2371" fill="#8B88AA" points="5.625 26.3846154 0 26.3846154 0 11.3076923 5.625 11.3076923"></polygon>
                <polygon id="Fill-2372" fill="#FFFFFF" points="26.25 0 20.625 0 15 7.53846154 26.25 7.53846154"></polygon>
                <polygon id="Fill-2373" fill="#FFFFFF" points="112.5 3.76923077 101.25 3.76923077 97.5 7.53846154 116.25 7.53846154"></polygon>
                <polygon id="Fill-2374" fill="#8B88AA" points="100.78125 22.6153846 97.5 22.6153846 97.5 11.3076923 100.78125 11.3076923"></polygon>
                <polygon id="Fill-2375" fill="#8B88AA" points="106.875 22.6153846 103.59375 22.6153846 103.59375 11.3076923 106.875 11.3076923"></polygon>
                <polygon id="Fill-2376" fill="#8B88AA" points="112.96875 22.6153846 109.6875 22.6153846 109.6875 11.3076923 112.96875 11.3076923"></polygon>
                <path d="M5.625,30.1538462 L21.555,40.8283077 C22.171875,41.2410385 22.895625,41.4615385 23.63625,41.4615385 L36.5625,41.4615385 L36.5625,30.1538462 L5.625,30.1538462 Z" id="Fill-2377" fill="#8B88AA"></path>
                <path d="M60,30.1538462 C61.771875,37.1570769 58.846875,41.6141923 54.375,45.2307692 C60.556875,46.8100769 64.74,44.6729231 68.11875,41.0337308 L60,30.1538462 Z" id="Fill-2378" fill="#FFFFFF"></path>
                <path d="M79.6875,48.0576923 L46.875,48.0576923 C44.29125,48.0576923 42.1875,45.9431538 42.1875,43.3461538 L42.1875,30.1538462 L36.5625,30.1538462 L36.5625,43.3461538 C36.5625,49.0621923 41.188125,53.7115385 46.875,53.7115385 L77.8125,53.7115385 L79.6875,48.0576923 Z" id="Fill-2379" fill="#EBEAF4"></path>
                <path d="M60,30.1538462 L120,30.1538462 C120,30.1538462 101.484375,48.8303846 106.875,56.5384615 C110.863125,62.2413077 117.3675,84.9283077 117.46125,94.1911923 C117.4725,95.1975769 117.0825,96.1662692 116.3775,96.8805385 C115.6725,97.5966923 114.714375,98 113.71125,98 L78.75,98 C77.413125,98 76.1775,97.2838462 75.50625,96.1229231 C74.835,94.9601154 74.83125,93.5278077 75.493125,92.3612308 L79.65375,87.8758462 C80.379375,87.0937308 80.74125,86.0383462 80.645625,84.9735385 C80.551875,83.9068462 80.011875,82.9325 79.160625,82.2898462 L78.375,81.0384615 C76.783125,79.8379615 76.400625,77.5971538 77.505,75.9330385 L80.53125,70.8125385 C81.635625,69.1484231 81.255,66.9076154 79.66125,65.7071154 L77.161875,63.8225 C75.871875,62.8481538 75.345,61.1538846 75.855,59.6141538 L80.625,45.2307692 L71.25,45.2307692 L60,30.1538462 Z" id="Fill-2380" fill="#8B88AA"></path>
            </g>
        </g>
    </g>
</svg>