<svg width="28" height="28" xmlns="http://www.w3.org/2000/svg" xmlns:xlink="http://www.w3.org/1999/xlink">
    <defs>
        <path id="a" d="M0 .072h8.167v1.007H0z"/>
        <path id="c" d="M0 0h21.53v12.93H0z"/>
        <path id="e" d="M0 0h5.45v7.009H0z"/>
        <path id="g" d="M0 0h25.63v15.41H0z"/>
    </defs>
    <g fill="none" fill-rule="evenodd">
        <path d="M11.146 6.4A.432.432 0 0 1 11 5.808l1.199-1.995a.432.432 0 0 1 .74.444l-1.2 1.996a.432.432 0 0 1-.592.147" fill="#C33F72"/>
        <g transform="rotate(31 2.087 17.602)">
            <mask id="b" fill="#fff">
                <use xlink:href="#a"/>
            </mask>
            <path d="M7.736.935H.432a.432.432 0 0 1 0-.863h7.304a.432.432 0 0 1 0 .863" fill="#C33F72" mask="url(#b)"/>
        </g>
        <path d="M3.35 9.784a.412.412 0 0 1-.128-.12L.972 6.489C.752 6.177.749 5.742.965 5.383l1.991-3.315c.187-.311.5-.505.836-.518.291-.01.558.118.727.355l2.038 2.88a.43.43 0 1 1-.703.5l-2.04-2.88c-.003.005-.068.025-.118.108L1.703 5.827c-.046.077-.038.147-.026.163l2.247 3.175a.43.43 0 0 1-.573.62M16.003 19.28 2.696 11.284a.432.432 0 0 1 .445-.74l13.307 7.996a.432.432 0 0 1-.445.74" fill="#C33F72"/>
        <g transform="rotate(31 -1.957 14.39)">
            <mask id="d" fill="#fff">
                <use xlink:href="#c"/>
            </mask>
            <path d="M.928.863.863.926v11.078l12.102.063 7.688-9.741-.21-.507.14.409-6.59 2.252a.94.94 0 0 1-.961-.228L9.727.882.927.864zM12.965 12.93H.928A.928.928 0 0 1 0 12.004V.926C0 .416.417 0 .928 0h8.751c.251 0 .487.098.663.277l3.305 3.37 6.657-2.236a.919.919 0 0 1 1.055.34.92.92 0 0 1-.028 1.109l-7.638 9.717a.927.927 0 0 1-.728.353z" fill="#C33F72" mask="url(#d)"/>
        </g>
        <g transform="rotate(31 -19.117 53.106)">
            <mask id="f" fill="#fff">
                <use xlink:href="#e"/>
            </mask>
            <path d="M1.002.915.867 4.167c-.02.341.048.662.203.965a1.86 1.86 0 0 0 1.232.964 1.837 1.837 0 0 0 1.538-.314c.687-.5.943-1.5.585-2.274a1.828 1.828 0 0 0-.69-.798l-.006-.003L1.002.915zm1.73 6.094A2.724 2.724 0 0 1 .005 4.125L.142.768a.802.802 0 0 1 .435-.68.79.79 0 0 1 .802.045l2.82 1.85c.44.28.788.683 1.009 1.164.532 1.153.162 2.585-.86 3.331a2.73 2.73 0 0 1-1.618.53z" fill="#C33F72" mask="url(#f)"/>
        </g>
        <g>
            <g transform="rotate(31 4.603 7.995)">
                <mask id="h" fill="#fff">
                    <use xlink:href="#g"/>
                </mask>
                <path d="M17.688 13.741H4.96v-.863h13.407l-.679.863zM4.097 9.184.922 7.79c-.013 0-.059-.057-.059-.15V3.776c0-.104.046-.15.046-.161l3.188 1.404v4.166zm21.36-4.962c-.242-.333-.668-.47-1.06-.333l-6.651 2.233-3.315-3.371a.92.92 0 0 0-.654-.277H9.69V.864h3.223a.426.426 0 0 0 .425-.428.434.434 0 0 0-.425-.436H5.604a.436.436 0 0 0-.437.436c0 .242.196.427.437.427h3.223v1.611h-3.81a.926.926 0 0 0-.92.932v.668L1.254 2.831a.835.835 0 0 0-.804.07c-.277.183-.45.505-.45.874v3.867c0 .414.23.794.575.943l3.522 1.541v4.352c0 .506.414.932.92.932h12.038a.966.966 0 0 0 .737-.357l7.63-9.713a.918.918 0 0 0 .035-1.118z" fill="#C33F72" mask="url(#h)"/>
            </g>
            <path d="M24.89 25.156a2.658 2.658 0 0 1-1.659-.365 2.983 2.983 0 0 1-.501-.397 2.704 2.704 0 0 1-.817-2.127c.028-.493.189-.961.467-1.358l1.85-2.808a.791.791 0 0 1 .724-.358.787.787 0 0 1 .657.449l1.472 3.046c.234.463.322.984.26 1.512-.14 1.26-1.196 2.303-2.453 2.406M13.886 19.27l-1.026.39-10.91-6.555.445-.74z" fill="#C33F72"/>
            <path fill="#FFF" d="m13.886 19.27-1.026.39-10.91-6.555.445-.74z"/>
        </g>
    </g>
</svg>
