<?xml version="1.0" encoding="UTF-8"?>
<svg width="80px" height="80px" viewBox="0 0 80 80" version="1.1" xmlns="http://www.w3.org/2000/svg" xmlns:xlink="http://www.w3.org/1999/xlink">
    <!-- Generator: Sketch 49.1 (51147) - http://www.bohemiancoding.com/sketch -->
    <title>assets/img_domain_spectrum</title>
    <desc>Created with Sketch.</desc>
    <defs></defs>
    <g id="Freshness" stroke="none" stroke-width="1" fill="none" fill-rule="evenodd">
        <g id="Freeform-Icons" transform="translate(-400.000000, -1380.000000)">
            <g id="assets/img_domain_spectrum" transform="translate(400.000000, 1380.000000)">
                <circle id="Oval-11" fill="#353167" cx="40" cy="40" r="40"></circle>
                <g id="logo" transform="translate(13.000000, 35.000000)" fill-rule="nonzero">
                    <path d="M34.3561538,2.34005714 L36.1201099,2.34005714 L36.1201099,6.79548571 C36.1201099,6.79548571 36.0565934,8.00051429 37.2797253,8.00114286 C38.433022,8.00182857 38.4625275,6.92302857 38.4635165,6.84685714 L38.4635165,3.20468571 C38.4635165,3.20468571 38.522967,2.34011429 39.2876923,2.34011429 L40.2032967,2.34011429 C40.2032967,2.34011429 40.2023077,6.4388 40.2032967,6.478 C40.1906593,6.7036 40.434011,9.44457143 37.2797253,9.43348571 C34.1546154,9.43348571 34.375989,6.66051429 34.3561538,6.49731429 L34.3561538,2.34005714 Z" id="Shape" fill="#FFFFFF"></path>
                    <path d="M28.9590659,4.20462857 L29.9950549,4.20462857 L29.9940659,2.36782857 L28.9611538,2.36782857 L28.9611538,1.18805714 C28.9611538,0.864628571 28.787967,0.296971429 28.1294505,0.296971429 L27.2223626,0.296971429 L27.2223626,8.00314286 C27.2223626,8.80662857 27.5220879,9.28731429 28.170989,9.28731429 C28.1782967,9.28731429 28.931978,9.28794286 28.9593407,9.28794286 L28.9590659,4.20462857 Z" id="Shape" fill="#FFFFFF"></path>
                    <path d="M31.8413187,9.30068571 L31.8413187,5.70982857 C31.8413187,5.186 31.9582967,4.80142857 32.1941758,4.5568 C32.4290659,4.31222857 32.79,4.1896 33.2776374,4.1896 L33.8568132,4.1896 L33.8568132,2.32891429 C33.8568132,2.32891429 32.9444505,2.30537143 32.2818681,2.51234286 C31.8564835,2.64542857 31.4797802,2.82691429 31.160989,3.08851429 C30.8239011,3.3684 30.5598352,3.73988571 30.3667582,4.20262857 C30.1736813,4.66565714 30.0771978,5.23788571 30.0771978,5.91937143 L30.0771978,9.30057143 L31.8413187,9.30057143 L31.8413187,9.30068571 Z" id="Shape" fill="#FFFFFF"></path>
                    <polygon id="Shape" fill="#0076BC" points="51.3065934 3.5032 51.3065934 9.3144 54.9882418 6.4096"></polygon>
                    <path d="M9.13912088,11.0521143 C9.13912088,11.5213143 8.78785714,11.9477714 8.27758242,11.9477714 L7.41637363,11.9477714 L7.41637363,5.38874286 C7.51664835,3.64382857 8.1267033,2.25308571 10.6753846,2.15822857 C11.7777473,2.17262857 12.5776374,2.62845714 13.0502747,3.20337143 C13.5568132,3.88845714 13.7740659,4.73965714 13.7740659,5.81022857 C13.7740659,6.91645714 13.5206593,7.81217143 13.0137912,8.4972 C12.5072527,9.16462857 11.8573077,9.49817143 11.0636813,9.49817143 C9.8732967,9.49817143 9.29510989,8.9828 9.13785714,8.88605714 C9.13791209,8.94588571 9.13912088,11.0521143 9.13912088,11.0521143 M12.0262088,5.88931429 C12.0262088,5.20457143 11.9054945,3.75565714 10.5571978,3.75565714 C9.27686813,3.75565714 9.13912088,5.16931429 9.13912088,5.88931429 C9.13912088,7.71234286 10.1352198,7.94388571 10.6078022,7.94388571 C11.8318681,7.94394286 12.0262088,6.59377143 12.0262088,5.88931429" id="Shape" fill="#FFFFFF"></path>
                    <path d="M1.00774725,8.72805714 C1.57846154,9.23491429 2.43554945,9.48771429 3.57818681,9.48771429 C4.6871978,9.48771429 5.54428571,9.24371429 6.1489011,8.75422857 C6.75357143,8.23 7.05637363,7.49622857 7.05637363,6.55285714 C7.05637363,6.11628571 6.97401099,5.71342857 6.77906593,5.34685714 C6.60049451,5.01137143 6.29730769,4.6948 5.93076923,4.50388571 C5.69813187,4.3832 5.55653846,4.33057143 5.27043956,4.23897143 C4.9617033,4.14057143 3.42406593,3.70434286 3.26879121,3.66182857 C2.41230769,3.44468571 1.86835165,3.14811429 1.86456044,2.62097143 C1.9089011,1.60171429 2.82225275,1.52028571 3.32659341,1.52028571 C3.84664835,1.52028571 4.25884615,1.63405714 4.56104396,1.86102857 C5.10373626,2.30022857 5.04335165,2.85805714 5.04335165,2.85805714 L6.75351648,2.85805714 C6.71989011,1.98428571 6.41741758,1.276 5.84642857,0.734171429 C5.29208791,0.244971429 4.50197802,0 3.47758242,0 C2.38527473,0 1.5539011,0.236114286 0.982582418,0.707657143 C0.411263736,1.1972 0.125769231,1.86982857 0.125769231,2.72594286 C0.128296703,3.82565714 0.629505495,4.47411429 1.08357143,4.77034286 C1.35928571,4.942 1.98598901,5.20525714 2.7971978,5.37302857 L3.47851648,5.52737143 C4.66016484,5.82691429 5.33840659,6.20628571 5.31730769,6.8148 C5.30445055,7.18137143 5.18307692,7.4616 4.9139011,7.6536 C4.66796703,7.82851429 4.24978022,7.94131429 3.72972527,7.94131429 C3.1410989,7.94131429 2.67956044,7.81965714 2.34373626,7.57474286 C2.02428571,7.36514286 1.83054945,6.99822857 1.7639011,6.47405714 L0,6.47405714 C0.0503296703,7.46977143 0.386098901,8.22154286 1.00774725,8.72805714" id="Shape" fill="#FFFFFF"></path>
                    <path d="M17.2497253,3.70434286 C18.332967,3.68897143 18.5011538,4.64805714 18.5348352,5.11994286 L15.9643732,5.11994286 C15.9643732,5.11994286 15.9426923,3.72948571 17.2497253,3.70434286 M17.3255495,7.92434286 C16.8888462,7.90142857 16.0574725,7.81251429 15.9813736,6.29942857 L20.3484066,6.3004 C20.3490659,6.25394286 20.3484066,5.75594286 20.3496703,5.75525714 C20.3194505,4.61497143 20.0562637,3.76542857 19.5428022,3.12777143 C18.9881319,2.49862857 18.2070879,2.1844 17.1990659,2.1844 C16.241978,2.1844 15.493956,2.50782857 14.9565934,3.15394286 C14.4356044,3.7828 14.1748901,4.65685714 14.1748901,5.77485714 C14.1748901,6.94582857 14.4434615,7.84542857 14.9817582,8.47428571 C15.5194505,9.12102857 16.2671429,9.44417143 17.2242308,9.44417143 C18.0143956,9.44417143 18.6693407,9.24371429 19.19,8.84148571 C19.7107143,8.45725714 20.065989,7.89617143 20.2509341,7.162 L18.7335165,7.16234286 C18.5103297,7.82097143 17.9396154,7.95634286 17.3255495,7.92434286" id="Shape" fill="#FFFFFF"></path>
                    <path d="M46.5726374,9.32285714 L44.8253297,9.32285714 L44.8253297,4.84491429 C44.8253297,4.32857143 44.6212088,3.63302857 43.6348901,3.63302857 C42.6671429,3.63302857 42.47,4.42371429 42.47,4.84491429 L42.47,9.32291429 L40.6966484,9.32297143 L40.6966484,5.21377143 C40.6966484,4.01988571 41.0371429,3.29034286 41.5958242,2.81685714 C42.1492308,2.3476 42.8576374,2.1936 43.583956,2.15828571 C43.9723077,2.15828571 44.3527473,2.20245714 44.7238462,2.28977143 C45.0954945,2.3784 45.4331868,2.55331429 45.7371978,2.81691429 C45.9908791,2.58897143 46.29,2.42617143 46.6363736,2.32937143 C46.9822527,2.2332 47.3404396,2.16034286 47.7127473,2.15834286 C49.8753297,2.14657143 50.7431868,3.17628571 50.8152198,3.50657143 C50.8152198,3.51148571 50.8157692,9.32297143 50.8157692,9.32297143 L49.8149451,9.32297143 C49.5619231,9.32297143 48.9540659,9.14411429 48.9540659,8.42765714 L48.9540659,4.84491429 C48.9584615,4.33742857 48.7874176,3.63302857 47.7632967,3.63302857 C46.7496154,3.63302857 46.5726374,4.42371429 46.5726374,4.84491429 L46.5726374,9.32285714 Z" id="Shape" fill="#FFFFFF"></path>
                    <path d="M25.1645055,7.16468571 L26.8212088,7.16468571 C26.8212088,7.16468571 26.3715385,9.44422857 23.8687912,9.44422857 C21.3665385,9.44422857 20.7505495,7.356 20.7505495,5.98354286 C20.7505495,4.61142857 20.9848352,2.26714286 23.7715385,2.18502857 C26.3464286,2.1448 26.7708791,4.46491429 26.7708791,4.46491429 L25.0066484,4.46491429 C25.0066484,4.46491429 24.8359341,3.68074286 23.7857143,3.70531429 C22.7358791,3.73017143 22.4613187,4.75565714 22.4613187,5.73011429 C22.4613187,6.70491429 22.6946154,7.92434286 23.8605495,7.92434286 C24.968956,7.9596 25.0667582,7.33605714 25.1645055,7.16468571" id="Shape" fill="#FFFFFF"></path>
                </g>
            </g>
        </g>
    </g>
</svg>