<svg width="40" height="20" xmlns="http://www.w3.org/2000/svg">
    <g fill="none" fill-rule="evenodd">
        <rect fill="#102D8F" width="40" height="20" rx="10"/>
        <path d="M16.748 8.308v1.06a3.759 3.759 0 0 0-2.415 3.518c0 2.076 1.672 3.758 3.734 3.758a3.741 3.741 0 0 0 3.664-3.035l.722 1.072a4.735 4.735 0 0 1-4.386 2.97c-2.614 0-4.734-2.133-4.734-4.765a4.763 4.763 0 0 1 3.415-4.578zM18.2 5.503a.93.93 0 0 1 .612.229l.004.003.004.003 3.22 2.27a.64.64 0 0 1 .156.888.632.632 0 0 1-.88.158l-.003-.002-2.18-1.538v3.291l2.888-.001a.83.83 0 0 1 .801.348l2.297 3.301a.84.84 0 0 1-.206 1.167.83.83 0 0 1-1.16-.204l-2.04-2.934-3.607.001a.839.839 0 0 1-.84-.839l.002-.046-.001-.024V6.437c0-.516.418-.934.933-.934zm8.287 1.3.05.038a.236.236 0 0 1 0 .332l-2.64 2.658-.016.015a.234.234 0 0 1-.183.087h-3.863a.235.235 0 0 1 0-.47h3.768l2.605-2.622a.233.233 0 0 1 .279-.039zm-7.654-4.454c.792 0 1.434.646 1.434 1.443s-.642 1.443-1.434 1.443A1.438 1.438 0 0 1 17.4 3.792c0-.797.642-1.443 1.433-1.443z" fill="#FFF"/>
    </g>
</svg>
