<svg xmlns="http://www.w3.org/2000/svg" xmlns:xlink="http://www.w3.org/1999/xlink" width="104" height="76" viewBox="0 0 104 76">
    <defs>
        <path id="a" d="M.523.884h82.135V57H.523z"/>
        <path id="c" d="M.524.884h45.62V57H.524z"/>
        <path id="e" d="M.524.498h82.135V9.88H.524z"/>
    </defs>
    <g fill="none" fill-rule="evenodd">
        <g transform="translate(21 19)">
            <mask id="b" fill="#fff">
                <use xlink:href="#a"/>
            </mask>
            <path fill="#F3C914" d="M82.658 54.45a2.557 2.557 0 0 1-2.565 2.549H3.09a2.559 2.559 0 0 1-2.567-2.55V3.434A2.561 2.561 0 0 1 3.09.884h77.003a2.56 2.56 0 0 1 2.565 2.55V54.45z" mask="url(#b)"/>
        </g>
        <g transform="translate(21 19)">
            <mask id="d" fill="#fff">
                <use xlink:href="#c"/>
            </mask>
            <path fill="#F5E893" d="M13.796 57H3.09a2.557 2.557 0 0 1-2.565-2.55V3.433A2.558 2.558 0 0 1 3.089.883h43.055L13.796 57z" mask="url(#d)"/>
        </g>
        <path fill="#F8F3D1" d="M97.199 52.855c0 1.1-1.048 1.994-2.339 1.994H82.002c-1.29 0-2.338-.894-2.338-1.994v-7.974c0-1.1 1.048-1.993 2.338-1.993H94.86c1.29 0 2.339.893 2.339 1.993v7.974zM24.292 47.488h22.15v-4.6h-22.15zM24.292 56.688h14.767v-4.6H24.292z"/>
        <g transform="translate(21 27)">
            <mask id="f" fill="#fff">
                <use xlink:href="#e"/>
            </mask>
            <path fill="#3C3D44" d="M-4.09 14.573h91.363V-4.195H-4.09z" mask="url(#f)"/>
        </g>
        <g>
            <circle cx="22" cy="22" r="20" fill="#FFF" stroke="#E51A4D" stroke-width="4"/>
            <path fill="#E51A4D" fill-rule="nonzero" d="M24 9v10.356c0 1.11-.063 2.211-.19 3.304a51.867 51.867 0 0 1-.5 3.34h-3.62a51.867 51.867 0 0 1-.5-3.34 28.71 28.71 0 0 1-.19-3.304V9h5zm-5 23a2.985 2.985 0 0 1 .86-2.123c.268-.269.583-.482.947-.64A2.964 2.964 0 0 1 22 29c.42 0 .812.079 1.176.237.364.158.682.371.955.64.272.27.485.585.639.948.153.362.23.754.23 1.175 0 .421-.077.816-.23 1.184a2.884 2.884 0 0 1-.64.956A2.984 2.984 0 0 1 22 35c-.432 0-.83-.076-1.193-.228a2.886 2.886 0 0 1-1.577-1.588A3.05 3.05 0 0 1 19 32z"/>
        </g>
    </g>
</svg>
