<svg xmlns="http://www.w3.org/2000/svg" width="60" height="60" viewBox="0 0 60 60">
    <g fill="none" fill-rule="evenodd">
        <g fill-rule="nonzero">
            <g>
                <g>
                    <path fill="#F2DA3E" d="M37.5 14.063v15c0 1.546 5.034 2.812 11.25 2.812S60 30.609 60 29.062v-15c0 1.554-5.037 2.813-11.25 2.813s-11.25-1.26-11.25-2.813z" transform="translate(-401 -2283) translate(380 2151) translate(21 132)"/>
                    <path fill="#FEF4B6" d="M60 14.063c0 1.553-5.037 2.812-11.25 2.812s-11.25-1.26-11.25-2.813c0-1.553 5.037-2.812 11.25-2.812S60 12.51 60 14.063" transform="translate(-401 -2283) translate(380 2151) translate(21 132)"/>
                    <path fill="#E1C618" d="M37.5 20.112c2.55 1.43 7.985 1.86 11.25 1.86 3.265 0 8.7-.43 11.25-1.86V18.28c0 .684-3.828 2.286-11.25 2.286-7.422 0-11.25-1.602-11.25-2.286v1.83zM37.5 25.737c2.55 1.43 7.985 1.86 11.25 1.86 3.265 0 8.7-.43 11.25-1.86v-1.831c0 .684-3.828 2.286-11.25 2.286-7.422 0-11.25-1.602-11.25-2.286v1.83z" transform="translate(-401 -2283) translate(380 2151) translate(21 132)"/>
                    <path fill="#FBED91" d="M37.5 29.567c0 .494 2.012 1.466 5.926 1.968l3.926-3.927c-3.255-.107-7.638-.594-9.852-1.835v3.794zM37.5 20.147v3.794c0 .684 3.822 2.283 11.234 2.286l4.441-4.44c-1.604.158-3.173.221-4.425.221-3.265 0-8.7-.43-11.25-1.86M48.75 16.91c-6.213 0-11.25-1.259-11.25-2.812v4.219c0 .683 3.828 2.285 11.25 2.285 2.381 0 4.388-.166 6.02-.412L60 14.96v-.862c0 1.553-5.037 2.812-11.25 2.812" transform="translate(-401 -2283) translate(380 2151) translate(21 132)"/>
                    <path fill="#F2DA3E" d="M37.5 18.317v1.83c2.55 1.43 7.985 1.862 11.25 1.862 1.252 0 2.82-.065 4.425-.224l1.596-1.595c-1.633.246-3.64.412-6.021.412-7.422 0-11.25-1.602-11.25-2.285M37.5 23.942v1.83c2.214 1.242 6.597 1.73 9.852 1.836l1.382-1.382c-7.412-.002-11.234-1.6-11.234-2.284M26.25 5.625C20.037 5.625 15 4.365 15 2.812v25.313c0 1.547 5.034 2.813 11.25 2.813s11.25-1.266 11.25-2.813V2.812c0 1.554-5.037 2.813-11.25 2.813" transform="translate(-401 -2283) translate(380 2151) translate(21 132)"/>
                    <path fill="#FEF4B6" d="M37.5 2.813c0 1.553-5.037 2.812-11.25 2.812S15 4.365 15 2.812C15 1.26 20.037 0 26.25 0S37.5 1.26 37.5 2.813" transform="translate(-401 -2283) translate(380 2151) translate(21 132)"/>
                    <path fill="#E1C618" d="M15 8.862c2.55 1.43 7.985 1.86 11.25 1.86 3.265 0 8.7-.43 11.25-1.86V7.03c0 .684-3.828 2.285-11.25 2.285-7.422 0-11.25-1.6-11.25-2.285v1.83zM15 14.487c2.55 1.43 7.985 1.86 11.25 1.86 3.265 0 8.7-.43 11.25-1.86v-1.831c0 .684-3.828 2.285-11.25 2.285-7.422 0-11.25-1.6-11.25-2.285v1.83zM15 20.112c2.55 1.43 7.985 1.86 11.25 1.86 3.265 0 8.7-.43 11.25-1.86V18.28c0 .684-3.828 2.286-11.25 2.286-7.422 0-11.25-1.602-11.25-2.286v1.83zM15 24.858c2.55 1.43 7.985 1.86 11.25 1.86 3.265 0 8.7-.43 11.25-1.86v-1.831c0 .684-3.828 2.286-11.25 2.286-7.422 0-11.25-1.602-11.25-2.286v1.83z" transform="translate(-401 -2283) translate(380 2151) translate(21 132)"/>
                    <path fill="#FBED91" d="M15 23.014c0 .286.677.731 1.995 1.153l2.7-2.7c-1.84-.291-3.555-.73-4.695-1.369v2.916zM15 18.268c0 .494 2.012 1.466 5.926 1.968l3.926-3.927c-3.255-.106-7.638-.594-9.852-1.835v3.794zM15 8.849v3.794c0 .683 3.822 2.282 11.234 2.285l4.441-4.44c-1.604.158-3.173.222-4.425.222-3.265 0-8.7-.43-11.25-1.861M26.25 5.612C20.037 5.612 15 4.352 15 2.799v4.219c0 .683 3.828 2.286 11.25 2.286 2.381 0 4.387-.166 6.02-.413l5.23-5.23V2.8c0 1.554-5.037 2.813-11.25 2.813" transform="translate(-401 -2283) translate(380 2151) translate(21 132)"/>
                    <path fill="#FBE158" d="M15 24.933v1.317l.9-.901c-.325-.129-.632-.266-.9-.416" transform="translate(-401 -2283) translate(380 2151) translate(21 132)"/>
                    <path fill="#F2DA3E" d="M15 7.018v1.83c2.55 1.43 7.985 1.862 11.25 1.862 1.252 0 2.82-.065 4.425-.223l1.596-1.596c-1.634.247-3.64.413-6.021.413C18.828 9.304 15 7.7 15 7.018M15 12.643v1.83c2.214 1.242 6.597 1.73 9.852 1.836l1.382-1.381C18.822 14.926 15 13.326 15 12.643M15 18.268v1.83c1.14.64 2.856 1.078 4.695 1.369l1.23-1.231C17.013 19.734 15 18.762 15 18.268" transform="translate(-401 -2283) translate(380 2151) translate(21 132)"/>
                    <path fill="#FACB1B" d="M15 23.102v1.83c.268.15.575.288.9.417l1.095-1.094C15.677 23.833 15 23.388 15 23.102" transform="translate(-401 -2283) translate(380 2151) translate(21 132)"/>
                    <path fill="#81B44C" d="M6.563 19.688v22.5c22.5 11.25 22.5 0 45 11.25v-22.5c-22.5-11.25-22.5 0-45-11.25m2.812 4.422c9.243 4.015 14.542 4.015 19.688 4.015 5.172 0 10.072 0 19.687 4.57v16.32C39.507 45 34.208 45 29.062 45c-5.172 0-10.072 0-19.687-4.57V24.11" transform="translate(-401 -2283) translate(380 2151) translate(21 132)"/>
                    <path fill="#638A3A" d="M48.75 49.015v-16.32c-9.615-4.57-14.515-4.57-19.688-4.57-5.145 0-10.444 0-19.687-4.015v16.32C18.99 45 23.89 45 29.063 45c5.145 0 10.444 0 19.687 4.015" transform="translate(-401 -2283) translate(380 2151) translate(21 132)"/>
                    <path fill="#81B44C" d="M34.688 36.563c0 3.106-2.52 5.624-5.626 5.624-3.105 0-5.625-2.518-5.625-5.624 0-3.107 2.52-5.626 5.625-5.626 3.106 0 5.625 2.519 5.625 5.625" transform="translate(-401 -2283) translate(380 2151) translate(21 132)"/>
                    <path fill="#C3DBA9" d="M6.563 20.15v22.037c4.836 2.42 8.63 3.794 11.833 4.58l2.363-2.364c-3.047-.579-6.64-1.719-11.384-3.972V24.11c9.243 4.015 14.542 4.015 19.688 4.015 2.396 0 4.739.006 7.514.46l2.4-2.399c-11.05-2.464-15.096 2.075-32.102-6.348l-.313.313z" transform="translate(-401 -2283) translate(380 2151) translate(21 132)"/>
                    <path fill="#81B44C" d="M36.577 28.585c-2.775-.454-5.118-.46-7.514-.46-5.146 0-10.445 0-19.688-4.015v16.32c4.743 2.255 8.336 3.394 11.384 3.973l15.818-15.817z" transform="translate(-401 -2283) translate(380 2151) translate(21 132)"/>
                    <path fill="#C3DBA9" d="M29.063 30.938c-3.106 0-5.625 2.518-5.625 5.625 0 1.435.542 2.74 1.426 3.734l7.933-7.933c-.993-.885-2.3-1.426-3.734-1.426" transform="translate(-401 -2283) translate(380 2151) translate(21 132)"/>
                    <path fill="#81B44C" d="M0 26.25v22.5C22.5 60 22.5 48.75 45 60V37.5c-22.5-11.25-22.5 0-45-11.25m2.813 4.422c9.242 4.015 14.541 4.015 19.687 4.015 5.172 0 10.072 0 19.688 4.57v16.32c-9.243-4.014-14.542-4.014-19.688-4.014-5.172 0-10.072 0-19.688-4.57v-16.32" transform="translate(-401 -2283) translate(380 2151) translate(21 132)"/>
                    <path fill="#638A3A" d="M42.188 55.578V39.257c-9.616-4.569-14.516-4.57-19.688-4.57-5.146 0-10.445 0-19.688-4.015v16.321c9.616 4.57 14.516 4.57 19.688 4.57 5.146 0 10.445 0 19.688 4.015" transform="translate(-401 -2283) translate(380 2151) translate(21 132)"/>
                    <path fill="#81B44C" d="M28.125 43.125c0 3.107-2.52 5.625-5.625 5.625-3.106 0-5.625-2.518-5.625-5.625S19.395 37.5 22.5 37.5c3.106 0 5.625 2.518 5.625 5.625" transform="translate(-401 -2283) translate(380 2151) translate(21 132)"/>
                    <path fill="#C3DBA9" d="M0 26.713V48.75c4.837 2.419 8.63 3.793 11.833 4.579l2.364-2.364c-3.047-.578-6.64-1.718-11.384-3.972v-16.32c9.242 4.014 14.541 4.014 19.687 4.014 2.396 0 4.74.007 7.514.46l2.4-2.398C21.364 30.285 17.318 34.823.312 26.4L0 26.713z" transform="translate(-401 -2283) translate(380 2151) translate(21 132)"/>
                    <path fill="#81B44C" d="M30.014 35.148c-2.775-.455-5.118-.46-7.514-.46-5.146 0-10.445 0-19.687-4.016v16.321c4.742 2.254 8.336 3.393 11.384 3.972l15.817-15.817z" transform="translate(-401 -2283) translate(380 2151) translate(21 132)"/>
                    <path fill="#C3DBA9" d="M22.5 37.5c-3.106 0-5.625 2.518-5.625 5.625 0 1.435.543 2.741 1.427 3.735l7.933-7.933c-.994-.885-2.3-1.427-3.735-1.427" transform="translate(-401 -2283) translate(380 2151) translate(21 132)"/>
                </g>
            </g>
        </g>
    </g>
</svg>
