<?xml version="1.0" encoding="UTF-8"?>
<svg width="200px" height="200px" viewBox="0 0 200 200" version="1.1" xmlns="http://www.w3.org/2000/svg" xmlns:xlink="http://www.w3.org/1999/xlink">
    <!-- Generator: Sketch 48.2 (47327) - http://www.bohemiancoding.com/sketch -->
    <title>assets/img_in_progress</title>
    <desc>Created with Sketch.</desc>
    <defs></defs>
    <g id="Circular-Icons" stroke="none" stroke-width="1" fill="none" fill-rule="evenodd" transform="translate(-500.000000, -250.000000)">
        <g id="assets/img_in_progress" transform="translate(500.000000, 250.000000)">
            <circle id="background" fill="#F2DA3E" cx="100" cy="100" r="100"></circle>
            <g id="Group" transform="translate(36.000000, 27.000000)">
                <path d="M32.3881308,105.858669 C22.3716005,96.1816062 17.3576402,82.6788875 18.6310631,68.8180125 C20.9341589,43.765325 43.1609696,25.259825 68.1760981,27.5661687 L67.3423364,36.6546687 L96.2324065,20.989325 L70.6819393,0.3075125 L69.8458995,9.39373125 C34.8233528,6.1657625 3.70764019,32.0716375 0.48421729,67.1458562 C-1.29948598,86.5501687 5.71459112,105.445762 19.7336332,118.991825 L32.3881308,105.858669 Z" id="Fill-3208" fill="#0F2D8F"></path>
                <path d="M95.6118692,40.1413312 C105.6284,49.8183937 110.64236,63.3211125 109.368937,77.1819875 C107.065841,102.234675 84.8390304,120.740175 59.8239019,118.433831 L60.6576636,109.345331 L31.7675935,125.010675 L57.3180607,145.692487 L58.1541005,136.606269 C93.1766472,139.834237 124.29236,113.928362 127.515783,78.8541437 C129.299486,59.4498312 122.285409,40.5542375 108.266367,27.008175 L95.6118692,40.1413312 Z" id="Fill-3209" fill="#FFFFFF"></path>
            </g>
        </g>
    </g>
</svg>