<svg width="19" height="19" viewBox="0 0 19 19" xmlns="http://www.w3.org/2000/svg">
    <g fill-rule="nonzero" fill="none">
        <path d="M18.314 3.287c.597.157.969.74.875 1.338l-.028.13-3.324 12.14a1.192 1.192 0 0 1-1.325.863l-.126-.026-.84-.22.203-.774.84.22a.392.392 0 0 0 .449-.201l.028-.074L18.39 4.54l.013-.079a.392.392 0 0 0-.218-.372l-.074-.028L6.488 1.013a.392.392 0 0 0-.451.207l-.028.074-.874 3.394-.775-.2.875-3.394a1.192 1.192 0 0 1 1.332-.88l.124.025 11.623 3.048z" fill="#8736C1"/>
        <path d="M11.63 4.34H2a2.4 2.4 0 0 0-2.4 2.4v10.148a2.4 2.4 0 0 0 2.4 2.4h9.63a2.4 2.4 0 0 0 2.4-2.4V6.74a2.4 2.4 0 0 0-2.4-2.4zM2 5.14h9.63a1.6 1.6 0 0 1 1.6 1.6v10.148a1.6 1.6 0 0 1-1.6 1.6H2a1.6 1.6 0 0 1-1.6-1.6V6.74A1.6 1.6 0 0 1 2 5.14z" fill="#8736C1"/>
        <path d="M11.63 4.34H2a2.4 2.4 0 0 0-2.4 2.4v10.148a2.4 2.4 0 0 0 2.4 2.4h9.63a2.4 2.4 0 0 0 2.4-2.4V6.74a2.4 2.4 0 0 0-2.4-2.4zM2 5.14h9.63a1.6 1.6 0 0 1 1.6 1.6v10.148a1.6 1.6 0 0 1-1.6 1.6H2a1.6 1.6 0 0 1-1.6-1.6V6.74A1.6 1.6 0 0 1 2 5.14z" fill="#8736C1"/>
        <path d="M10.268 6.658H9.145a1.4 1.4 0 0 0-1.4 1.4v1.044a1.4 1.4 0 0 0 1.4 1.4h1.123a1.4 1.4 0 0 0 1.4-1.4V8.058a1.4 1.4 0 0 0-1.4-1.4zm-1.123.8h1.123a.6.6 0 0 1 .6.6v1.044a.6.6 0 0 1-.6.6H9.145a.6.6 0 0 1-.6-.6V8.058a.6.6 0 0 1 .6-.6zM11.152 14.648a.4.4 0 0 1 .08.792l-.08.008H2.478a.4.4 0 0 1-.08-.792l.08-.008h8.674zM11.152 11.818a.4.4 0 0 1 .08.792l-.08.008H2.478a.4.4 0 0 1-.08-.792l.08-.008h8.674zM5.824 8.988a.4.4 0 0 1 .08.792l-.08.008H2.478a.4.4 0 0 1-.08-.791l.08-.009h3.346z" fill="#FF4722"/>
    </g>
</svg>
