<?xml version="1.0" encoding="UTF-8"?>
<svg width="200px" height="200px" viewBox="0 0 200 200" version="1.1" xmlns="http://www.w3.org/2000/svg" xmlns:xlink="http://www.w3.org/1999/xlink">
    <!-- Generator: Sketch 49.1 (51147) - http://www.bohemiancoding.com/sketch -->
    <title>assets/img_professional</title>
    <desc>Created with Sketch.</desc>
    <defs></defs>
    <g id="Freshness" stroke="none" stroke-width="1" fill="none" fill-rule="evenodd">
        <g id="Circular-Icons" transform="translate(-500.000000, -1500.000000)">
            <g id="assets/img_professional" transform="translate(500.000000, 1500.000000)">
                <circle id="background" fill="#353167" cx="100" cy="100" r="100"></circle>
                <g id="assets/tos-briefcase" transform="translate(45.000000, 59.000000)">
                    <path d="M104.952455,14.1826599 C107.461024,14.1826599 109.51349,16.2314604 109.51349,18.7355499 L109.51349,77.9231201 C109.51349,80.4272096 107.461024,82.4760101 104.952455,82.4760101 L4.60968598,82.4760101 C2.10111676,82.4760101 0.0486510394,80.4272096 0.0486510394,77.9231201 L0.0486510394,18.7355499 C0.0486510394,16.2314604 2.10111676,14.1826599 4.60968598,14.1826599 L104.952455,14.1826599 Z" id="Fill-2027" fill="#8E6134"></path>
                    <path d="M4.60968598,14.1826599 C2.10111676,14.1826599 0.0486510394,16.2314604 0.0486510394,18.7355499 L0.0486510394,77.9231201 C0.0486510394,79.1410182 0.538962295,80.245094 1.32574082,81.0623378 L68.3273441,14.1826599 L4.60968598,14.1826599 Z" id="Fill-2028" fill="#A97A45"></path>
                    <polygon id="Fill-2029" fill="#8E6134" points="75.4660479 14.1826599 66.1843418 14.1826599 61.4613901 7.35332492 48.0998383 7.35332492 43.3791671 14.1826599 34.0951805 14.1826599 43.2172504 0.523989899 66.3439781 0.523989899"></polygon>
                    <polygon id="Fill-2030" fill="#D4A263" points="27.4148607 82.4760101 18.2927908 82.4760101 18.2927908 14.1826599 27.4148607 14.1826599"></polygon>
                    <polygon id="Fill-2031" fill="#D4A263" points="91.2693498 82.4760101 82.14728 82.4760101 82.14728 14.1826599 91.2693498 14.1826599"></polygon>
                    <polygon id="Fill-2035" fill="#F4D0A1" points="27.4148607 55.0218557 27.4148607 14.1824323 18.2927908 14.1824323 18.2927908 64.1276357"></polygon>
                </g>
            </g>
        </g>
    </g>
</svg>