<?xml version="1.0" encoding="UTF-8"?>
<svg width="50px" height="30px" viewBox="0 0 50 30" version="1.1" xmlns="http://www.w3.org/2000/svg" xmlns:xlink="http://www.w3.org/1999/xlink">
    <!-- Generator: Sketch 49.3 (51167) - http://www.bohemiancoding.com/sketch -->
    <title>assets/img_slider_toggle</title>
    <desc>Created with Sketch.</desc>
    <defs></defs>
    <g id="Freshness" stroke="none" stroke-width="1" fill="none" fill-rule="evenodd">
        <g id="Freeform-Icons" transform="translate(-920.000000, -1584.000000)">
            <g id="assets/img_slider_toggle" transform="translate(920.000000, 1584.000000)">
                <rect id="Rectangle-20" fill="#353167" x="0" y="0" width="50" height="30" rx="6"></rect>
                <path d="M40.0000358,15.3571492 C40.0000358,15.6417478 39.8828481,15.9096053 39.681955,16.1104984 L35.3962356,20.3962178 C35.1953425,20.5971108 34.9274851,20.7142985 34.6428865,20.7142985 C34.0569483,20.7142985 33.5714567,20.2288068 33.5714567,19.6428686 L33.5714567,17.5000089 L16.4285791,17.5000089 L16.4285791,19.6428686 C16.4285791,20.2288068 15.9430874,20.7142985 15.3571492,20.7142985 C15.0725507,20.7142985 14.8046932,20.5971108 14.6038001,20.3962178 L10.3180807,16.1104984 C10.1171876,15.9096053 10,15.6417478 10,15.3571492 C10,15.0725507 10.1171876,14.8046932 10.3180807,14.6038001 L14.6038001,10.3180807 C14.8046932,10.1171876 15.0725507,10 15.3571492,10 C15.9430874,10 16.4285791,10.4854917 16.4285791,11.0714298 L16.4285791,13.2142895 L33.5714567,13.2142895 L33.5714567,11.0714298 C33.5714567,10.4854917 34.0569483,10 34.6428865,10 C34.9274851,10 35.1953425,10.1171876 35.3962356,10.3180807 L39.681955,14.6038001 C39.8828481,14.8046932 40.0000358,15.0725507 40.0000358,15.3571492 Z" id="ï¾" fill="#FFFFFF"></path>
            </g>
        </g>
    </g>
</svg>