<?xml version="1.0" encoding="UTF-8"?>
<svg width="200px" height="200px" viewBox="0 0 200 200" version="1.1" xmlns="http://www.w3.org/2000/svg" xmlns:xlink="http://www.w3.org/1999/xlink">
    <!-- Generator: Sketch 55 (78076) - https://sketchapp.com -->
    <title>Group 23 Copy</title>
    <desc>Created with Sketch.</desc>
    <g id="Page-1" stroke="none" stroke-width="1" fill="none" fill-rule="evenodd">
        <g id="Group-23-Copy">
            <path d="M100,200 C155.228475,200 200,155.228475 200,100 C200,44.771525 155.228475,0 100,0 C44.771525,0 0,44.771525 0,100 C0,155.228475 44.771525,200 100,200 Z" id="background" fill="#FFFFFF"></path>
            <g id="Group-22" transform="translate(28.500000, 28.000000)">
                <g id="Group" transform="translate(0.500000, 0.000000)">
                    <path d="M108.276269,56.8567775 C108.276269,85.7783696 85.1917097,109.222506 56.7169719,109.222506 C28.2404885,109.222506 5.15592967,85.7783696 5.15592967,56.8567775 C5.15592967,27.9351854 28.2404885,4.49104859 56.7169719,4.49104859 C85.1917097,4.49104859 108.276269,27.9351854 108.276269,56.8567775" id="Fill-7663" fill="#0484AB"></path>
                    <path d="M56.7159246,4.49104859 C28.2411867,4.49104859 5.15662788,27.9369309 5.15662788,56.8567775 C5.15662788,70.9257033 10.6288465,83.6872315 19.5153107,93.0956074 L92.9757008,19.6352174 C83.6615831,10.2739706 70.8546714,4.49104859 56.7159246,4.49104859" id="Fill-7664" fill="#059BBF"></path>
                    <path d="M80.7774533,71.693734 C80.7774533,73.6207928 79.2379009,75.1847826 77.340516,75.1847826 C75.4413855,75.1847826 73.9035786,73.6207928 73.9035786,71.693734 C73.9035786,69.7666752 75.4413855,68.2026854 77.340516,68.2026854 C79.2379009,68.2026854 80.7774533,69.7666752 80.7774533,71.693734" id="Fill-7665" fill="#6FDAF1"></path>
                    <path d="M39.5294923,30.673913 C39.5294923,32.6009719 37.9899399,34.1649616 36.092555,34.1649616 C34.1934246,34.1649616 32.6538721,32.6009719 32.6538721,30.673913 C32.6538721,28.7468542 34.1934246,27.1828645 36.092555,27.1828645 C37.9899399,27.1828645 39.5294923,28.7468542 39.5294923,30.673913" id="Fill-7666" fill="#9CE5F4"></path>
                    <path d="M87.6523753,95.258312 C87.6523753,97.1853708 86.1128229,98.7493606 84.215438,98.7493606 C82.3163075,98.7493606 80.7767551,97.1853708 80.7767551,95.258312 C80.7767551,93.3312532 82.3163075,91.7672634 84.215438,91.7672634 C86.1128229,91.7672634 87.6523753,93.3312532 87.6523753,95.258312" id="Fill-7667" fill="#6FDAF1"></path>
                    <path d="M56.7159246,55.8944699 L95.3984885,17.211906 C85.452491,7.20481522 71.7937634,0.999476343 56.7159246,0.999476343 L56.7159246,55.8944699 Z" id="Fill-7668" fill="#6FDAF1"></path>
                    <path d="M80.7774533,21.0735294 C80.7774533,24.4476279 78.0841093,27.1828645 74.7623766,27.1828645 C71.4406439,27.1828645 68.7472999,24.4476279 68.7472999,21.0735294 C68.7472999,17.6994309 71.4406439,14.9641944 74.7623766,14.9641944 C78.0841093,14.9641944 80.7774533,17.6994309 80.7774533,21.0735294" id="Fill-7669" fill="#C9F2F8"></path>
                    <path d="M22.342711,67.3299233 C22.342711,69.2569821 20.8031586,70.8209719 18.9057737,70.8209719 C17.0066432,70.8209719 15.4670908,69.2569821 15.4670908,67.3299233 C15.4670908,65.4028645 17.0066432,63.8388747 18.9057737,63.8388747 C20.8031586,63.8388747 22.342711,65.4028645 22.342711,67.3299233" id="Fill-7670" fill="#9CE5F4"></path>
                    <path d="M84.1278127,55.1112532 C83.2515595,40.8241368 71.7764827,29.4363363 57.6028254,28.9737724 L57.6028254,18.4779348 C77.4686375,18.9457353 93.5937909,35.0429604 94.4840083,55.1112532 L84.1278127,55.1112532 Z M57.6028254,95.2356202 L57.6028254,84.7397826 C71.7764827,84.2772187 83.2515595,72.8894182 84.1278127,58.6023018 L94.4840083,58.6023018 C93.5937909,78.6705946 77.4686375,94.7678197 57.6028254,95.2356202 L57.6028254,95.2356202 Z M57.6028254,70.7755882 C64.1956707,70.3461893 69.533484,65.1846739 70.3451528,58.6023018 L80.6908753,58.6023018 C79.8233497,70.9641049 69.8825889,80.7914066 57.6028254,81.248734 L57.6028254,70.7755882 Z M57.6028254,58.6023018 L66.873305,58.6023018 C66.0982922,63.2576151 62.3000313,66.876087 57.6028254,67.2845396 L57.6028254,58.6023018 Z M57.6028254,46.4290153 C62.3000313,46.837468 66.0982922,50.4559399 66.873305,55.1112532 L57.6028254,55.1112532 L57.6028254,46.4290153 Z M57.6028254,32.464821 C69.8825889,32.9221483 79.8233497,42.7494501 80.6908753,55.1112532 L70.3451528,55.1112532 C69.533484,48.5288811 64.1956707,43.3673657 57.6028254,42.9379668 L57.6028254,32.464821 Z M54.1641426,29.0593031 C40.762007,30.3195716 30.1457283,41.3879412 29.3043855,55.1112532 L18.9499354,55.1112532 C19.8122244,35.6067647 35.0698523,19.8516624 54.1641426,18.5529923 L54.1641426,29.0593031 Z M54.1641426,43.1439386 C48.3532922,44.2558376 43.8306387,49.0909399 43.0852999,55.1112532 L32.7430684,55.1112532 C33.5687014,43.311509 42.6576464,33.7984015 54.1641426,32.5608248 L54.1641426,43.1439386 Z M54.1641426,55.1112532 L46.5606387,55.1112532 C47.2396477,51.0214898 50.2541682,47.736413 54.1641426,46.7205179 L54.1641426,55.1112532 Z M54.1641426,66.9930371 C50.2541682,65.9771419 47.2396477,62.6920652 46.5606387,58.6023018 L54.1641426,58.6023018 L54.1641426,66.9930371 Z M54.1641426,81.1527302 C42.6576464,79.9151535 33.5687014,70.402046 32.7430684,58.6023018 L43.0852999,58.6023018 C43.8306387,64.6226151 48.3532922,69.4577174 54.1641426,70.5696164 L54.1641426,81.1527302 Z M54.1641426,95.1605627 C35.0698523,93.8618926 19.8122244,78.1067903 18.9499354,58.6023018 L29.3043855,58.6023018 C30.1457283,72.3256138 40.762007,83.3939834 54.1641426,84.6542519 L54.1641426,95.1605627 Z M108.230012,55.1112532 L97.9209457,55.1112532 C97.0272372,33.1176471 79.3642769,15.4564322 57.6028254,14.9868862 L57.6028254,4.51199488 C57.3060863,4.50850384 57.0128382,4.49104859 56.7160991,4.49104859 C55.8607922,4.49104859 55.0107219,4.51548593 54.1641426,4.55737852 L54.1641426,15.0514706 C33.1742129,16.3606138 16.3805237,33.6814514 15.5112526,55.1112532 L5.20044054,55.1112532 C5.17949425,55.6925128 5.15680243,56.2720269 5.15680243,56.8567775 C5.15680243,57.4415281 5.17949425,58.0210422 5.20044054,58.6023018 L15.5112526,58.6023018 C16.3805237,80.0321036 33.1742129,97.3529412 54.1641426,98.6620844 L54.1641426,109.156176 C55.0107219,109.198069 55.8607922,109.222506 56.7160991,109.222506 C57.0128382,109.222506 57.3060863,109.205051 57.6028254,109.199815 L57.6028254,98.7266688 C79.3642769,98.2571228 97.0272372,80.5959079 97.9209457,58.6023018 L108.236994,58.6023018 C108.254449,58.0210422 108.277141,57.4415281 108.275396,56.8567775 C108.275396,56.2720269 108.249213,55.6925128 108.230012,55.1112532 L108.230012,55.1112532 Z" id="Fill-7671" fill="#21B2D1"></path>
                    <path d="M54.1650153,18.5524687 L54.1650153,29.0605249 C40.7611343,30.319048 30.146601,41.3874175 29.3035128,55.1107295 L18.9490627,55.1107295 C19.8130972,35.606241 35.0689795,19.8528843 54.1650153,18.5524687 L54.1650153,18.5524687 Z M54.1650153,43.143415 C48.3524194,44.2570595 43.829766,49.0921618 43.0861726,55.1107295 L32.7421957,55.1107295 C33.5695742,43.3109853 42.6567737,33.7978779 54.1650153,32.5603012 L54.1650153,43.143415 Z M54.1650153,55.1107295 L46.559766,55.1107295 C47.2387749,51.0209661 50.2550409,47.7376349 54.1650153,46.7217398 L54.1650153,55.1107295 Z M26.8894527,85.7202436 L29.3366777,83.2747641 C23.2570166,76.7796682 19.3714795,68.1480505 18.9490627,58.6017781 L29.3035128,58.6017781 C29.713711,65.2836451 32.4541841,71.3231592 36.6905716,75.9208702 L39.1325601,73.4771362 C35.5053606,69.511305 33.1436662,64.3323344 32.7421957,58.6017781 L43.0861726,58.6017781 C43.4405141,61.4784022 44.6763453,64.0670147 46.486454,66.1249879 L48.933679,63.6760173 C47.7310128,62.2603971 46.8791969,60.5270914 46.559766,58.6017781 L54.0079182,58.6017781 L57.6019527,55.0077436 L57.6019527,46.4302372 C59.8833529,46.6274815 61.9430716,47.5927564 63.5559361,49.0555058 L66.0101432,46.6012986 C63.765399,44.5031784 60.8381547,43.1486515 57.6019527,42.9391886 L57.6019527,32.4660428 C63.7077967,32.692961 69.2306355,35.2396809 73.3535639,39.2578779 L75.7990435,36.8106528 C71.0547084,32.1501029 64.664344,29.2054035 57.6019527,28.9749942 L57.6019527,18.4791566 C67.537477,18.7130569 76.5356547,22.8551861 83.1634105,29.4480313 L85.60889,27.0008063 C78.3597276,19.7656081 68.4940243,15.2220083 57.6019527,14.9881081 L57.6019527,4.51321675 C57.3069591,4.50798018 57.013711,4.49052494 56.7152263,4.49052494 C55.8599194,4.49052494 55.0098491,4.51496228 54.1650153,4.55685486 L54.1650153,15.0526925 C33.1733402,16.3600902 16.3813964,33.6809277 15.5121253,55.1107295 L5.19956777,55.1107295 C5.18036701,55.6919891 5.15592967,56.2715032 5.15592967,56.8562538 C5.15592967,57.44275 5.18036701,58.0205185 5.19956777,58.6017781 L15.5121253,58.6017781 C15.9380332,69.0993613 20.2006036,78.5950134 26.8894527,85.7202436 L26.8894527,85.7202436 Z" id="Fill-7672" fill="#40C9E7"></path>
                    <path d="M56.7160991,4.49104859 C28.2867449,4.49104859 5.15680243,27.9823146 5.15680243,56.8567775 C5.15680243,85.7312404 28.2867449,109.222506 56.7160991,109.222506 C85.1454533,109.222506 108.33998,85.7312404 108.275396,56.8567775 C108.212557,27.9194757 85.1018152,4.44915601 56.7160991,4.49104859 M56.7160991,112.713555 C26.38936,112.713555 0.00052365729,87.6565537 0.00052365729,56.8567775 C0.00052365729,26.0570013 26.38936,1 56.7160991,1 C87.0428382,1 111.714079,26.0570013 111.714079,56.8567775 C111.714079,87.6565537 87.0428382,112.713555 56.7160991,112.713555" id="Fill-7673" fill="#F0F0F0"></path>
                </g>
                <g id="house" transform="translate(42.500000, 40.000000)">
                    <polygon id="Fill-2263" fill="#F0F0F0" points="87.3975904 87.3975904 5.60240964 87.3975904 5.60240964 34.7349398 87.3975904 34.7349398"></polygon>
                    <path d="M80.6746988,8.5436747 C80.6746988,6.91862575 79.419759,5.60240964 77.873494,5.60240964 L72.2710843,5.60240964 C70.7248193,5.60240964 69.4698795,6.91862575 69.4698795,8.5436747 L69.4698795,26.1912651 C69.4698795,27.816314 70.7248193,29.1325301 72.2710843,29.1325301 L77.873494,29.1325301 C79.419759,29.1325301 80.6746988,27.816314 80.6746988,26.1912651 L80.6746988,8.5436747 Z" id="Fill-2264" fill="#F0F0F0"></path>
                    <path d="M48.2844285,0.610019671 C47.2352775,-0.20333989 45.7661756,-0.20333989 44.7155715,0.610019671 L1.12204163,29.5551998 C0.14264033,30.3150108 -0.245342086,31.6103076 0.157171507,32.7796928 C0.561138217,33.9490781 1.66405452,34.7349398 2.90647012,34.7349398 L90.0935299,34.7349398 C91.3344924,34.7349398 92.4388618,33.9490781 92.8428285,32.7796928 C93.2453421,31.6103076 92.8573597,30.3150108 91.8779584,29.5551998 L48.2844285,0.610019671 Z" id="Fill-2265" fill="#DF2C2C"></path>
                    <polygon id="Fill-2266" fill="#40C9E7" points="80.6746988 68.3493976 50.4216867 68.3493976 50.4216867 45.939759 80.6746988 45.939759"></polygon>
                    <path d="M38.0963855,58.6385542 C38.0963855,52.2444307 32.8285798,47.060241 26.3313253,47.060241 C19.8340708,47.060241 14.5662651,52.2444307 14.5662651,58.6385542 L14.5662651,81.7951807 L38.0963855,81.7951807 L38.0963855,58.6385542 Z" id="Fill-2267" fill="#84462D"></path>
                    <path d="M34.7349398,66.6686747 C34.7349398,68.2163404 33.48,69.4698795 31.9337349,69.4698795 C30.3874699,69.4698795 29.1325301,68.2163404 29.1325301,66.6686747 C29.1325301,65.121009 30.3874699,63.8674699 31.9337349,63.8674699 C33.48,63.8674699 34.7349398,65.121009 34.7349398,66.6686747" id="Fill-2268" fill="#FACB1B"></path>
                    <polygon id="Fill-2269" fill="#0D9681" points="93 93 0 93 0 87.3975904 93 87.3975904"></polygon>
                    <path d="M0,87.3975904 L4.53520313,83.0263102 C5.3533125,82.2377711 6.46204688,81.7951807 7.61873438,81.7951807 L85.3812656,81.7951807 C86.5379531,81.7951807 87.6466875,82.2377711 88.4647969,83.0263102 L93,87.3975904 L0,87.3975904 Z" id="Fill-2270" fill="#17B198"></path>
                </g>
            </g>
        </g>
    </g>
</svg>