<?xml version="1.0" encoding="UTF-8"?>
<svg width="60px" height="60px" viewBox="0 0 60 60" version="1.1" xmlns="http://www.w3.org/2000/svg" xmlns:xlink="http://www.w3.org/1999/xlink">
    <title>vehicle_no circle </title>
    <g id="vehicle_no-circle-" stroke="none" stroke-width="1" fill="none" fill-rule="evenodd">
        <g id="Group" transform="translate(2.000000, 3.000000)">
            <path d="M52.5068438,18.6121167 C54.2252812,20.1601857 59.8502812,18.6121167 59.8502812,15.5169074 C59.8502812,12.1375295 53.2296562,12.0223762 51.8084063,15.8456515 L48.8843438,4.25974351 C48.2580937,1.77930425 46.0080938,0.0390035377 43.4271562,0.0390035377 L16.5865313,0.0390035377 C14.0046562,0.0390035377 11.7546563,1.77930425 11.1293437,4.25974351 L8.20528125,15.8456515 C6.78965625,12.0381633 0.16340625,12.1208137 0.16340625,15.5169074 C0.16340625,18.6121167 5.78840625,20.1601857 7.50684375,18.6121167 C-0.67565625,25.0959906 -1.86534375,33.6832695 2.56621875,42.5472877 C3.19903125,43.8121167 4.50496875,44.6144752 5.92996875,44.6144752 L54.0959062,44.6144752 C55.5190312,44.6144752 56.8390313,43.8251179 57.4559063,42.554717 C62.1162188,32.9672759 59.8896563,24.1069723 52.5068438,18.6121167" id="Fill-4661" fill="#638A3A"></path>
            <path d="M16.5861562,0.0390035377 C14.0052188,0.0390035377 11.7552187,1.77930425 11.1289687,4.25974351 L8.20490625,15.8456515 C6.79021875,12.0381633 0.16303125,12.1208137 0.16303125,15.5169074 C0.16303125,18.6121167 5.78803125,20.1601857 7.50646875,18.6121167 C1.75678125,23.1690301 -0.52696875,28.7669664 0.15365625,34.7670106 L35.2124063,0.0390035377 L16.5861562,0.0390035377 Z" id="Fill-4662" fill="#81B44C"></path>
            <path d="M13.65825,18.6121167 C13.08075,18.6121167 12.5360625,18.3483785 12.18075,17.8979805 C11.8245,17.4466539 11.698875,16.8588149 11.8395,16.3044074 L14.2966875,6.56745283 C14.713875,4.9135171 16.213875,3.75362618 17.935125,3.75362618 L42.0785625,3.75362618 C43.7998125,3.75362618 45.2998125,4.9135171 45.717,6.56745283 L48.1741875,16.3044074 C48.313875,16.8588149 48.1891875,17.4466539 47.8329375,17.8979805 C47.477625,18.3483785 46.9329375,18.6121167 46.3554375,18.6121167 L13.65825,18.6121167 Z" id="Fill-4663" fill="#40C9E7"></path>
            <polygon id="Fill-4664" fill="#FFFFFF" points="21.5693438 18.6121167 18.7568438 26.041362 28.1318438 26.041362 29.0693438 18.6121167"></polygon>
            <polygon id="Fill-4665" fill="#FFFFFF" points="38.4443438 18.6121167 41.2568438 26.041362 31.8818438 26.041362 30.9443438 18.6121167"></polygon>
            <path d="M14.296875,6.5672671 L11.8396875,16.3042217 C11.6990625,16.8595578 11.8246875,17.4473968 12.18,17.8977948 C12.53625,18.3491215 13.0809375,18.611931 13.6584375,18.611931 L16.4625,18.611931 L31.4625,3.75344045 L17.934375,3.75344045 C16.2140625,3.75344045 14.7140625,4.91333137 14.296875,6.5672671" id="Fill-4666" fill="#6FDAF1"></path>
            <path d="M11.2568438,50.1864092 C11.2568438,51.211645 10.4168438,52.0437205 9.38184375,52.0437205 L5.63184375,52.0437205 C4.59684375,52.0437205 3.75684375,51.211645 3.75684375,50.1864092 L3.75684375,43.6858196 L11.2568438,43.6858196 L11.2568438,50.1864092 Z" id="Fill-4667" fill="#666666"></path>
            <path d="M56.2568438,50.1864092 C56.2568438,51.211645 55.4168438,52.0437205 54.3818438,52.0437205 L50.6318438,52.0437205 C49.5968437,52.0437205 48.7568438,51.211645 48.7568438,50.1864092 L48.7568438,43.6858196 L56.2568438,43.6858196 L56.2568438,50.1864092 Z" id="Fill-4668" fill="#666666"></path>
            <path d="M5.93034375,44.6144752 C4.50534375,44.6144752 3.21909375,43.8028302 2.56659375,42.5472877 C0.80503125,39.1558373 -0.64809375,34.3119693 0.29878125,30.3113208 C0.89315625,27.7993072 3.16471875,26.041362 5.77003125,26.041362 L54.2397188,26.041362 C56.8347188,26.041362 59.0969063,27.8002358 59.7072188,30.2973909 C60.6175313,34.0213001 59.2019063,39.0824735 57.4562813,42.554717 C56.8215938,43.81676 55.5194063,44.6144752 54.0962813,44.6144752 L5.93034375,44.6144752 Z" id="Fill-4669" fill="#C3DBA9"></path>
            <path d="M3.75684375,33.4706073 C3.75684375,35.5220077 5.43590625,37.18523 7.50684375,37.18523 L52.5068438,37.18523 C54.5777813,37.18523 56.2568438,35.5220077 56.2568438,33.4706073 C56.2568438,31.419207 54.5777813,29.7559847 52.5068438,29.7559847 L7.50684375,29.7559847 C5.43590625,29.7559847 3.75684375,31.419207 3.75684375,33.4706073" id="Fill-4670" fill="#333333"></path>
            <path d="M11.2568438,33.4706073 C11.2568438,35.0093897 9.99778125,36.2565743 8.44434375,36.2565743 C6.89090625,36.2565743 5.63184375,35.0093897 5.63184375,33.4706073 C5.63184375,31.9318249 6.89090625,30.6846403 8.44434375,30.6846403 C9.99778125,30.6846403 11.2568438,31.9318249 11.2568438,33.4706073" id="Fill-4671" fill="#E1C618"></path>
            <path d="M17.8193438,33.4706073 C17.8193438,35.0093897 16.5602813,36.2565743 15.0068438,36.2565743 C13.4534063,36.2565743 12.1943438,35.0093897 12.1943438,33.4706073 C12.1943438,31.9318249 13.4534063,30.6846403 15.0068438,30.6846403 C16.5602813,30.6846403 17.8193438,31.9318249 17.8193438,33.4706073" id="Fill-4672" fill="#E1C618"></path>
            <path d="M47.8193438,33.4706073 C47.8193438,35.0093897 46.5602813,36.2565743 45.0068438,36.2565743 C43.4534063,36.2565743 42.1943438,35.0093897 42.1943438,33.4706073 C42.1943438,31.9318249 43.4534063,30.6846403 45.0068438,30.6846403 C46.5602813,30.6846403 47.8193438,31.9318249 47.8193438,33.4706073" id="Fill-4673" fill="#E1C618"></path>
            <path d="M54.3818438,33.4706073 C54.3818438,35.0093897 53.1227813,36.2565743 51.5693438,36.2565743 C50.0159063,36.2565743 48.7568438,35.0093897 48.7568438,33.4706073 C48.7568438,31.9318249 50.0159063,30.6846403 51.5693438,30.6846403 C53.1227813,30.6846403 54.3818438,31.9318249 54.3818438,33.4706073" id="Fill-4674" fill="#E1C618"></path>
            <path d="M9.38184375,40.8998526 C9.38184375,41.9250884 8.54184375,42.7571639 7.50684375,42.7571639 C6.47184375,42.7571639 5.63184375,41.9250884 5.63184375,40.8998526 C5.63184375,39.8746167 6.47184375,39.0425413 7.50684375,39.0425413 C8.54184375,39.0425413 9.38184375,39.8746167 9.38184375,40.8998526" id="Fill-4675" fill="#FFFFFF"></path>
            <path d="M54.3818438,40.8998526 C54.3818438,41.9250884 53.5418438,42.7571639 52.5068438,42.7571639 C51.4718437,42.7571639 50.6318438,41.9250884 50.6318438,40.8998526 C50.6318438,39.8746167 51.4718437,39.0425413 52.5068438,39.0425413 C53.5418438,39.0425413 54.3818438,39.8746167 54.3818438,40.8998526" id="Fill-4676" fill="#FFFFFF"></path>
            <polygon id="Fill-4677" fill="#81B44C" points="11.2568438 44.6144752 15.0068438 40.8998526 45.0068438 40.8998526 48.7568438 44.6144752"></polygon>
            <path d="M8.44434375,30.6846403 C6.89090625,30.6846403 5.63184375,31.9318249 5.63184375,33.4706073 C5.63184375,34.2664652 5.97309375,34.9796728 6.51309375,35.4876474 L10.4805937,31.5575767 C9.96778125,31.022671 9.24778125,30.6846403 8.44434375,30.6846403" id="Fill-4678" fill="#F2DA3E"></path>
            <path d="M15.0068438,30.6846403 C13.4534063,30.6846403 12.1943438,31.9318249 12.1943438,33.4706073 C12.1943438,34.2664652 12.5355937,34.9796728 13.0755937,35.4876474 L17.0430937,31.5575767 C16.5302813,31.022671 15.8102813,30.6846403 15.0068438,30.6846403" id="Fill-4679" fill="#F2DA3E"></path>
            <path d="M45.0068438,30.6846403 C43.4534063,30.6846403 42.1943438,31.9318249 42.1943438,33.4706073 C42.1943438,34.2664652 42.5355937,34.9796728 43.0755937,35.4876474 L47.0430937,31.5575767 C46.5302813,31.022671 45.8102813,30.6846403 45.0068438,30.6846403" id="Fill-4680" fill="#F2DA3E"></path>
            <path d="M51.5693438,30.6846403 C50.0159063,30.6846403 48.7568438,31.9318249 48.7568438,33.4706073 C48.7568438,34.2664652 49.0980937,34.9796728 49.6380937,35.4876474 L53.6055937,31.5575767 C53.0927813,31.022671 52.3727813,30.6846403 51.5693438,30.6846403" id="Fill-4681" fill="#F2DA3E"></path>
            <path d="M39.370875,31.5742925 C39.370875,32.0869104 38.950875,32.5029481 38.433375,32.5029481 L21.558375,32.5029481 C21.040875,32.5029481 20.620875,32.0869104 20.620875,31.5742925 C20.620875,31.0616745 21.040875,30.6456368 21.558375,30.6456368 L38.433375,30.6456368 C38.950875,30.6456368 39.370875,31.0616745 39.370875,31.5742925" id="Fill-4682" fill="#999999"></path>
            <path d="M39.370875,35.2889151 C39.370875,35.801533 38.950875,36.2175708 38.433375,36.2175708 L21.558375,36.2175708 C21.040875,36.2175708 20.620875,35.801533 20.620875,35.2889151 C20.620875,34.7762972 21.040875,34.3602594 21.558375,34.3602594 L38.433375,34.3602594 C38.950875,34.3602594 39.370875,34.7762972 39.370875,35.2889151" id="Fill-4683" fill="#999999"></path>
        </g>
    </g>
</svg>