<?xml version="1.0" encoding="UTF-8"?>
<svg width="150px" height="150px" viewBox="0 0 150 150" version="1.1" xmlns="http://www.w3.org/2000/svg" xmlns:xlink="http://www.w3.org/1999/xlink">
    <!-- Generator: Sketch 51.3 (57544) - http://www.bohemiancoding.com/sketch -->
    <title>assets/img_watercraft_no_bg</title>
    <desc>Created with Sketch.</desc>
    <defs></defs>
    <g id="assets/img_watercraft_no_bg" stroke="none" stroke-width="1" fill="none" fill-rule="evenodd">
        <g id="Group" transform="translate(0.000000, 10.000000)">
            <path d="M139.458624,89.9024929 L126.600434,70.1776357 L121.920474,70.1776357 L111.266545,48.8784393 C110.541151,47.4280821 110.61837,45.7040286 111.472463,44.3261893 C112.324216,42.9460107 113.831163,42.1062071 115.452769,42.1062071 L125.631682,42.1062071 C126.577034,42.1062071 127.431127,41.5377607 127.793823,40.6628679 C128.15418,39.787975 127.955282,38.7820821 127.286048,38.1130464 L122.606088,33.434475 C122.166172,32.9970286 121.571817,32.7490643 120.951722,32.7490643 L37.6811925,32.7490643 L37.6811925,42.1062071 L21.3013322,70.1776357 L0.241511939,70.1776357 C0.241511939,95.9097786 17.4216453,107.606207 34.9878754,107.606207 L140.640314,107.606207 L140.640314,93.0114036 C140.640314,91.8651536 140.219117,90.7586714 139.458624,89.9024929" id="Fill-4972" fill="#8B88AA"></path>
            <polygon id="Fill-4973" fill="#EBEAF4" points="37.6809585 32.75 37.6809585 42.1071429 21.3010982 70.1785714 40.8446115 70.1785714 78.284292 32.75"></polygon>
            <path d="M0.241277941,131 L0.241277941,106.224625 C0.241277941,105.887768 0.384016723,105.569625 0.634394586,105.347393 C0.88477245,105.125161 1.21938959,105.019893 1.55400674,105.062 C11.5270016,106.278429 21.3619377,102.084089 27.4131261,94.0112143 C27.6213843,93.7351786 27.9466415,93.5714286 28.2906186,93.5714286 L28.3140184,93.5714286 C28.6813953,93.5714286 29.0300523,93.7445357 29.2500104,94.0392857 C34.3745667,100.860643 42.5223771,105.267857 51.7208386,105.267857 C60.9310001,105.267857 69.0881704,100.848946 74.2127267,94.0112143 C74.4209849,93.7351786 74.7462422,93.5714286 75.0902192,93.5714286 L75.113619,93.5714286 C75.4809959,93.5714286 75.8296529,93.7445357 76.049611,94.0392857 C81.1741673,100.860643 89.3219778,105.267857 98.5204393,105.267857 C107.730601,105.267857 115.887771,100.848946 121.012327,94.0112143 C121.220586,93.7351786 121.545843,93.5714286 121.88982,93.5714286 L121.91322,93.5714286 C122.280597,93.5714286 122.629254,93.7445357 122.849212,94.0392857 C128.9121,102.107482 138.742356,106.276089 148.687271,105.062 C149.021888,105.019893 149.354166,105.125161 149.606883,105.347393 C149.854921,105.569625 150,105.887768 150,106.224625 L150,131 L0.241277941,131 Z" id="Fill-4974" fill="#6FDAF1"></path>
            <path d="M103.200399,60.8214286 C103.200399,50.4864643 94.8185909,42.1071429 84.4805591,42.1071429 L75.120639,42.1071429 L75.120639,60.8214286 L103.200399,60.8214286 Z" id="Fill-4975" fill="#353167"></path>
            <polygon id="Fill-4976" fill="#353167" points="37.6809585 42.1071429 68.1006989 42.1071429 68.1006989 60.8214286 26.7602716 60.8214286"></polygon>
            <path d="M0.241277941,70.1785714 C0.241277941,83.5405714 4.89549823,93.0848571 11.8077992,99.2067679 L40.8446115,70.1785714 L0.241277941,70.1785714 Z" id="Fill-4977" fill="#EBEAF4"></path>
            <polygon id="Fill-4978" fill="#8B88AA" points="68.1006989 42.1071429 37.6809585 42.1071429 26.7602716 60.8214286 50.2045316 60.8214286 68.1006989 42.9305714"></polygon>
            <polygon id="Fill-4979" fill="#EBEAF4" points="93.8404792 32.75 121.92024 0 124.26022 0 105.540379 32.75"></polygon>
            <path d="M0.750925592,77.1964286 C0.60584683,76.14375 0.488847828,75.0653393 0.402268567,73.965875 C0.315689306,72.7307321 0.240809945,71.4862321 0.240809945,70.1785714 L126.599732,70.1785714 L131.174393,77.1964286 L0.750925592,77.1964286 Z" id="Fill-4980" fill="#DC0015"></path>
            <path d="M40.8436755,70.1785714 L0.240341949,70.1785714 C0.240341949,71.4862321 0.31522131,72.7307321 0.401800571,73.965875 C0.488379832,75.0653393 0.607718814,76.14375 0.750457596,77.1964286 L33.8237354,77.1964286 L40.8436755,70.1785714 Z" id="Fill-4981" fill="#E7114C"></path>
        </g>
    </g>
</svg>