<svg xmlns="http://www.w3.org/2000/svg" xmlns:xlink="http://www.w3.org/1999/xlink" width="51" height="52" viewBox="0 0 51 52">
    <defs>
        <path id="xo34ewq29a" d="M0 0.048L37.85 0.048 37.85 41.447 0 41.447z"/>
        <path id="7hlu0us8dc" d="M0.062 0.041L26.056 0.041 26.056 26.036 0.062 26.036z"/>
    </defs>
    <g fill="none" fill-rule="evenodd">
        <g transform="translate(.5) translate(0 .023)">
            <mask id="g8nrh2xorb" fill="#fff">
                <use xlink:href="#xo34ewq29a"/>
            </mask>
            <path fill="#8736C1" d="M17.325 41.447H0V.048h37.85v19.1c0 .687-.558 1.245-1.245 1.245-.688 0-1.245-.558-1.245-1.245V2.538H2.49v36.42h14.835c.688 0 1.245.557 1.245 1.244 0 .688-.557 1.245-1.245 1.245" mask="url(#g8nrh2xorb)"/>
        </g>
        <g transform="translate(.5) translate(23.546 25.916)">
            <mask id="envk1qun8d" fill="#fff">
                <use xlink:href="#7hlu0us8dc"/>
            </mask>
            <path fill="#8736C1" d="M13.059 2.531c-5.794 0-10.507 4.714-10.507 10.507 0 5.794 4.713 10.508 10.507 10.508s10.507-4.714 10.507-10.508c0-5.793-4.713-10.507-10.507-10.507m0 23.505c-7.167 0-12.997-5.83-12.997-12.998C.062 5.872 5.892.041 13.059.041s12.997 5.83 12.997 12.997-5.83 12.998-12.997 12.998" mask="url(#envk1qun8d)"/>
        </g>
        <path fill="#FF4722" d="M33.387 44.843c-.055 0-.112-.003-.167-.01-.391-.054-.734-.29-.924-.635l-2.62-4.768c-.331-.602-.111-1.359.491-1.69.603-.331 1.36-.111 1.69.491l1.812 3.295 7.883-8.084c.48-.492 1.268-.502 1.76-.022s.502 1.268.022 1.76l-9.056 9.288c-.235.241-.558.375-.89.375M8.747 13.335c-.056 0-.112-.004-.168-.011-.39-.054-.733-.289-.923-.634l-1.337-2.432c-.331-.603-.111-1.36.492-1.69.602-.332 1.359-.112 1.69.49l.527.96 3.446-3.534c.48-.492 1.268-.502 1.76-.022.493.48.503 1.268.023 1.76l-4.62 4.737c-.235.242-.557.376-.89.376" transform="translate(.5)"/>
        <path fill="#8736C1" d="M30.44 8.598H18.65c-.688 0-1.246-.557-1.246-1.245 0-.687.558-1.245 1.245-1.245h11.79c.688 0 1.245.558 1.245 1.245 0 .688-.557 1.245-1.244 1.245M26.44 13.381h-7.79c-.688 0-1.246-.557-1.246-1.245 0-.687.558-1.245 1.245-1.245h7.79c.688 0 1.246.558 1.246 1.245 0 .688-.558 1.245-1.245 1.245" transform="translate(.5)"/>
        <path fill="#FF4722" d="M8.747 24.36c-.056 0-.112-.003-.168-.01-.39-.054-.733-.289-.923-.634l-1.337-2.432c-.331-.603-.111-1.36.492-1.69.602-.332 1.359-.112 1.69.49l.527.96 3.446-3.534c.48-.492 1.268-.502 1.76-.022.493.48.503 1.268.023 1.76l-4.62 4.737c-.235.242-.557.376-.89.376" transform="translate(.5)"/>
        <path fill="#8736C1" d="M30.44 19.624H18.65c-.688 0-1.246-.557-1.246-1.245 0-.687.558-1.245 1.245-1.245h11.79c.688 0 1.245.558 1.245 1.245 0 .688-.557 1.245-1.244 1.245l-5.896 3.538" transform="translate(.5)"/>
        <path fill="#8736C1" d="M26.44 24.407h-7.79c-.688 0-1.246-.557-1.246-1.245 0-.687.558-1.245 1.245-1.245h7.79c.688 0 1.246.558 1.246 1.245 0 .688-.558 1.245-1.245 1.245" transform="translate(.5)"/>
        <path fill="#FF4722" d="M8.747 35.387c-.056 0-.112-.004-.168-.011-.39-.054-.733-.289-.923-.634L6.319 32.31c-.331-.603-.111-1.36.492-1.69.602-.332 1.359-.112 1.69.49l.527.96 3.446-3.534c.48-.492 1.268-.502 1.76-.022.493.48.503 1.268.023 1.76l-4.62 4.737c-.235.242-.557.376-.89.376" transform="translate(.5)"/>
        <path fill="#8736C1" d="M22.615 30.65h-3.966c-.687 0-1.245-.557-1.245-1.245 0-.687.558-1.245 1.245-1.245h3.966c.687 0 1.245.558 1.245 1.245 0 .688-.558 1.245-1.245 1.245M20.038 35.433h-1.389c-.687 0-1.245-.557-1.245-1.245 0-.687.558-1.245 1.245-1.245h1.389c.687 0 1.245.558 1.245 1.245 0 .688-.558 1.245-1.245 1.245" transform="translate(.5)"/>
    </g>
</svg>
