<?xml version="1.0" encoding="UTF-8" standalone="no"?>
<svg width="150px" height="150px" viewBox="0 0 150 150" version="1.1" xmlns="http://www.w3.org/2000/svg" xmlns:xlink="http://www.w3.org/1999/xlink">
    <!-- Generator: Sketch 39.1 (31720) - http://www.bohemiancoding.com/sketch -->
    <title>assets/img_relative_no_bg</title>
    <desc>Created with Sketch.</desc>
    <defs>
        <rect id="path-1" x="0" y="0" width="150" height="150"></rect>
    </defs>
    <g id="Freshness" stroke="none" stroke-width="1" fill="none" fill-rule="evenodd">
        <g id="assets/img_relative_no_bg">
            <mask id="mask-2" fill="white">
                <use xlink:href="#path-1"></use>
            </mask>
            <g id="Mask"></g>
            <g id="Group-6" mask="url(#mask-2)">
                <g transform="translate(-16.047794, 30.882353)" id="Group">
                    <g transform="translate(93.281599, 5.569853)">
                        <path d="M65.8448902,44.4689872 L65.8448902,22.9082661 C65.8448902,10.2561655 55.6174318,0 43.0007446,0 C30.3840574,0 20.156599,10.2561655 20.156599,22.9082661 L20.156599,44.4689872 C20.156599,57.9444379 8.06263961,55.2493477 8.06263961,55.2493477 C8.06263961,55.2493477 9.40641288,66.0297083 26.8754654,66.0297083 L42.9765567,66.0297083 L43.0007446,66.0297083 L59.1260238,66.0297083 C76.5950763,66.0297083 77.9388496,55.2493477 77.9388496,55.2493477 C77.9388496,55.2493477 65.8448902,57.9444379 65.8448902,44.4689872" id="Fill-1779" fill="#84462D"></path>
                        <path d="M20.156599,22.9082661 L20.156599,44.4689872 C20.156599,57.9444379 8.06263961,55.2493477 8.06263961,55.2493477 C8.06263961,55.2493477 9.40641288,66.0297083 26.8754654,66.0297083 L42.9765567,66.0297083 L43.0007446,66.0297083 L43.0007446,0 C30.3840574,0 20.156599,10.2561655 20.156599,22.9082661" id="Fill-1780" fill="#9C6144"></path>
                        <path d="M63.1573436,26.9509013 L61.8135704,26.9509013 L61.8135704,26.9226029 C61.8081953,24.3609197 61.7423504,21.8639187 61.4803146,19.5138001 C60.6270186,22.2533592 58.1074437,24.2558112 55.094704,24.2558112 C52.4192514,24.2558112 50.128118,22.6764884 49.0477243,20.4072225 C47.9673306,22.6764884 45.6761972,24.2558112 43.0007446,24.2558112 C40.325292,24.2558112 38.0341586,22.6764884 36.9537649,20.4072225 C35.8733712,22.6764884 33.5822378,24.2558112 30.9067852,24.2558112 C27.8940455,24.2558112 25.3744706,22.2533592 24.5211746,19.5138001 C24.2591388,21.8639187 24.1932939,24.3609197 24.1879188,26.9226029 L24.1879188,26.9509013 L22.8441456,26.9509013 C21.5003723,26.9509013 20.156599,28.4480239 20.156599,29.9451465 C20.156599,34.1104083 21.3176191,39.5544903 25.7708837,40.3252861 C29.0523781,52.5906413 36.8140125,57.2235012 43.0007446,59.2919829 C49.1874767,57.2235012 56.9491111,52.5906413 60.2306055,40.3252861 C64.6838701,39.5544903 65.8448902,34.1104083 65.8448902,29.9451465 C65.8448902,28.4480239 64.5011169,26.9509013 63.1573436,26.9509013" id="Fill-1781" fill="#FBC8C8"></path>
                        <path d="M36.9537649,20.4066835 C35.8733712,22.6759494 33.5822378,24.2552722 30.9067852,24.2552722 C27.8940455,24.2552722 25.3744706,22.2541678 24.5211746,19.5132611 C24.2591388,21.8633797 24.1932939,24.3617282 24.1879188,26.9220639 L24.1879188,26.9503623 L22.8441456,26.9503623 C21.5003723,26.9503623 20.156599,28.4488324 20.156599,29.945955 C20.156599,34.1098692 21.3176191,39.5539513 25.7708837,40.3260946 C29.0523781,52.5901023 36.8140125,57.2243098 43.0007446,59.2914439 L43.0007446,24.2552722 C40.325292,24.2552722 38.0341586,22.6759494 36.9537649,20.4066835" id="Fill-1782" fill="#FBD7D7"></path>
                        <path d="M81.1755963,70.9659006 C79.9809818,67.8517239 77.4170624,65.4679167 74.230976,64.5098122 L56.4380742,60.6396627 L43.0003415,60.6396627 L29.5626088,60.6396627 L11.7710507,64.5098122 C8.58362051,65.4679167 6.01970111,67.8517239 4.82643045,70.9659006 L-0.000403131981,83.5479289 L43.0003415,83.5479289 L86.0010861,83.5479289 L81.1755963,70.9659006 Z" id="Fill-1783" fill="#9E2022"></path>
                        <path d="M56.4384773,60.639528 L56.4384773,56.5968928 C59.9349753,57.4727971 63.0740297,59.4186522 65.418914,62.1636015 L69.87621,67.3772533 L60.4697971,67.3772533 L60.6579254,67.7532184 C63.9488261,74.3534941 59.7038463,83.5477941 45.6882911,83.5477941 L56.4384773,60.639528 Z" id="Fill-1784" fill="#9E2022"></path>
                        <path d="M29.5630119,60.639528 L29.5630119,56.5968928 C26.0665139,57.4727971 22.9274595,59.4186522 20.5825752,62.1636015 L16.1252792,67.3772533 L25.5316921,67.3772533 L25.3435638,67.7532184 C22.0526631,74.3534941 26.2976429,83.5477941 40.3131981,83.5477941 L29.5630119,60.639528 Z" id="Fill-1785" fill="#9E2022"></path>
                        <path d="M36.2818783,44.4689872 L49.7196109,44.4689872 C49.7196109,44.4689872 49.7196109,48.5116224 43.0007446,48.5116224 C36.2818783,48.5116224 36.2818783,44.4689872 36.2818783,44.4689872" id="Fill-1786" fill="#F89392"></path>
                        <path d="M38.9778906,29.6459915 C38.9778906,28.1583017 37.7738697,26.9509013 36.290344,26.9509013 L36.2822814,26.9509013 C36.2836252,26.9791998 36.290344,27.0074982 36.290344,27.0357967 C36.290344,28.5207913 35.0916983,29.7254966 33.6108601,29.7295393 C33.6565484,31.1781502 34.8350376,32.3410816 36.290344,32.3410816 C37.7738697,32.3410816 38.9778906,31.1336812 38.9778906,29.6459915" id="Fill-1787" fill="#3E3E3F"></path>
                        <path d="M52.4071575,29.6459915 C52.4071575,28.1583017 51.2031366,26.9509013 49.7196109,26.9509013 L49.7115483,26.9509013 C49.7128921,26.9791998 49.7196109,27.0074982 49.7196109,27.0357967 C49.7196109,28.5207913 48.5209652,29.7254966 47.040127,29.7295393 C47.0858153,31.1781502 48.2643045,32.3410816 49.7196109,32.3410816 C51.2031366,32.3410816 52.4071575,31.1336812 52.4071575,29.6459915" id="Fill-1788" fill="#3E3E3F"></path>
                        <path d="M43.0007446,59.2919829 L43.0007446,83.5477941 L45.6882911,83.5477941 L56.4384773,60.639528 L56.4384773,49.0951094 C52.6208174,55.0189175 47.413696,57.8164211 43.0007446,59.2919829" id="Fill-1789" fill="#F8B4B4"></path>
                        <path d="M29.5630119,49.0945704 L29.5630119,60.638989 L40.3131981,83.5472551 L43.0007446,83.5472551 L43.0007446,59.2914439 C38.5877932,57.8172296 33.3806718,55.0183785 29.5630119,49.0945704" id="Fill-1790" fill="#FBC8C8"></path>
                    </g>
                    <g transform="translate(0.578695, 0.000000)">
                        <polygon id="Fill-749" fill="#F1F2F2" points="48.5852569 89.1176471 30.3657856 60.4142124 66.8047282 60.4142124"></polygon>
                        <path d="M54.6576549,60.4652662 L48.5844977,60.4652662 L42.5113406,60.4652662 L33.401605,54.797988 L33.401605,59.658676 C33.401605,59.658676 33.401605,70.9871904 48.5844977,70.9871904 C63.7673905,70.9871904 63.7673905,59.658676 63.7673905,59.658676 L63.7673905,54.797988 L54.6576549,60.4652662 Z" id="Fill-750" fill="#F8B4B4"></path>
                        <path d="M74.3961746,29.0345294 C74.3961746,27.3563988 72.8778853,25.6782682 71.3595961,25.6782682 C69.8413068,25.6782682 69.8413068,27.3563988 69.8413068,27.3563988 L69.8413068,25.6782682 C69.8139776,12.0840508 68.2865786,3.02123928 48.5852569,3.02123928 C28.8839352,3.02123928 27.3565362,12.0840508 27.329207,25.6782682 L27.329207,37.7574855 L33.4023641,52.8621715 L41.1532309,58.898004 C42.0171375,59.8631934 43.2545432,60.4145145 44.5541989,60.4145145 L48.5852569,60.4145145 L52.6163149,60.4145145 C53.9159705,60.4145145 55.1533763,59.8631934 56.0172829,58.898004 L63.7681497,52.8621715 L68.6373034,40.7527448 C72.9416535,40.4446092 74.3961746,33.9480837 74.3961746,29.0345294" id="Fill-751" fill="#FBC8C8"></path>
                        <path d="M27.329207,25.6779661 L27.329207,27.3560967 C27.329207,27.3560967 27.329207,25.6779661 25.8109177,25.6779661 C24.2926284,25.6779661 22.7743392,27.3560967 22.7743392,29.0342273 C22.7743392,33.9492921 24.2288603,40.4443071 28.5332104,40.7524427 L33.4023641,52.8618694 L41.1532309,58.8977019 C42.0171375,59.8628913 43.2545432,60.4142124 44.5541989,60.4142124 L48.5852569,60.4142124 L48.5852569,3.02093719 C28.8839352,3.02093719 27.3565362,12.0837488 27.329207,25.6779661" id="Fill-752" fill="#FBD7D7"></path>
                        <polygon id="Fill-753" fill="#FBC8C8" points="37.9564728 48.3815174 37.973174 48.3301615 36.4123726 48.3301615 36.4381835 48.3815174"></polygon>
                        <path d="M48.5844977,60.4652662 L42.5113406,60.4652662 L33.401605,54.797988 L33.401605,59.658676 C33.401605,59.658676 33.401605,70.9871904 48.5844977,70.9871904 L48.5844977,60.4652662 L48.5844977,60.4652662 Z" id="Fill-754" fill="#FBC8C8"></path>
                        <path d="M60.730812,48.3815174 L59.2125227,48.3815174 L56.1759441,39.3187059 L48.5844977,39.3187059 L40.9930514,39.3187059 L37.9564728,48.3815174 L36.4381835,48.3815174 L31.8833157,39.3187059 L31.8833157,14.6119711 C36.9528836,18.0044835 42.2259022,18.1948026 48.5844977,18.1676142 L48.5844977,18.1630828 C52.538123,18.1449571 60.5653184,18.2099073 65.2856798,13.9549172 L65.2856798,39.3187059 L60.730812,48.3815174 Z M68.0292285,9.47637787 C68.1780209,8.84651246 68.2508988,8.20758425 68.2508988,7.5701665 C68.2508988,3.27892522 66.8722921,0.347105683 48.5844977,0.06011665 L48.5844977,0.0238654038 C47.6234206,0.0102711864 46.6289412,-0.000302093719 45.5722118,-0.000302093719 C26.5753764,-0.000302093719 25.7691648,12.0547478 25.8116769,14.6195234 C25.81775,14.9261486 25.8344512,15.1058943 25.8344512,15.1058943 L25.8344512,25.703342 L25.8344512,25.7244885 L28.8710298,31.7663629 L28.8710298,42.3396431 L30.3650264,52.9083918 L42.5113406,60.4652662 L48.5844977,60.4652662 L54.6576549,60.4652662 L66.8039691,52.9083918 L68.2979657,42.3396431 L68.2979657,31.7663629 L68.346551,31.7663629 L71.3831295,25.7244885 L71.3831295,18.125321 C71.3831295,15.1391246 70.2580772,12.1665224 68.0292285,9.47637787 L68.0292285,9.47637787 Z" id="Fill-755" fill="#692E19"></path>
                        <path d="M48.5852569,18.1676142 L48.5852569,0.0238654038 C47.6241798,0.0102711864 46.6297003,-0.000302093719 45.572971,-0.000302093719 C24.3169211,-0.000302093719 25.8352103,15.1043838 25.8352103,15.1043838 L25.8352103,25.7244885 L28.8717889,31.7663629 L28.8717889,42.3396431 L30.3657856,52.9083918 L42.5120998,60.4652662 L48.5852569,60.4652662 L48.5852569,39.3187059 L40.9938105,39.3187059 L37.9572319,48.3815174 L36.4389427,48.3815174 L31.8840748,39.3187059 L31.8840748,14.5983769 C35.2076101,16.8217866 37.8600614,18.2083968 48.5852569,18.1676142" id="Fill-756" fill="#84462D"></path>
                        <path d="M44.0303891,28.6942208 C44.0303891,27.0266635 42.6700019,25.6732836 40.9938105,25.6732836 C40.9907739,25.6732836 40.9877373,25.6747941 40.9847008,25.6747941 C40.9862191,25.706514 40.9938105,25.7367233 40.9938105,25.7684432 C40.9938105,27.4329796 39.6394965,28.7833385 37.9663417,28.7878699 C38.0179635,30.4116236 39.3495032,31.715158 40.9938105,31.715158 C42.6700019,31.715158 44.0303891,30.3617782 44.0303891,28.6942208" id="Fill-757" fill="#3E3E3F"></path>
                        <path d="M59.2037166,28.6942208 C59.2037166,27.0266635 57.8433294,25.6732836 56.1671381,25.6732836 C56.1641015,25.6732836 56.1610649,25.6747941 56.1580283,25.6747941 C56.1595466,25.706514 56.1671381,25.7367233 56.1671381,25.7684432 C56.1671381,27.4329796 54.812824,28.7833385 53.1396692,28.7878699 C53.1912911,30.4116236 54.5228308,31.715158 56.1671381,31.715158 C57.8433294,31.715158 59.2037166,30.3617782 59.2037166,28.6942208" id="Fill-758" fill="#3E3E3F"></path>
                        <polygon id="Fill-759" fill="#FFFFFF" points="30.3657856 60.4140613 33.4023641 58.9035927 48.5624825 66.4272368 39.4755212 75.5187473"></polygon>
                        <polygon id="Fill-760" fill="#FFFFFF" points="66.8047282 60.4140613 63.7681497 58.9035927 48.6080312 66.4272368 57.6949926 75.5187473"></polygon>
                        <polygon id="Fill-761" fill="#DF2C2C" points="54.658414 89.1176471 50.4087223 73.7108674 53.1401247 70.9950449 48.5564094 66.4273878 44.0045781 70.9557727 46.764828 73.7002941 42.5120998 89.1176471"></polygon>
                        <polygon id="Fill-762" fill="#FA5655" points="48.5852569 89.1176471 48.5852569 66.4560867 48.5564094 66.4273878 44.0045781 70.9557727 46.764828 73.7002941 42.5120998 89.1176471"></polygon>
                        <path d="M0,89.1176471 L6.07315711,72.5024925 C7.00690502,70.4890379 8.6512123,68.8864307 10.6933114,67.9967647 L30.3657856,60.4187438 L48.5852569,89.1176471 L0,89.1176471 Z" id="Fill-763" fill="#666666"></path>
                        <path d="M97.1705138,89.1176471 L91.0973567,72.5024925 C90.1636088,70.4890379 88.5193015,68.8864307 86.4772024,67.9967647 L66.8047282,60.4187438 L48.5852569,89.1176471 L97.1705138,89.1176471 Z" id="Fill-764" fill="#666666"></path>
                        <path d="M42.5120998,43.7989068 L54.658414,43.7989068 C54.658414,43.7989068 54.658414,49.8453126 48.5852569,49.8453126 C42.5120998,49.8453126 42.5120998,43.7989068 42.5120998,43.7989068" id="Fill-766" fill="#FBC8C8"></path>
                    </g>
                    <g transform="translate(56.423818, 21.165441)">
                        <path d="M52.4944155,21.2056555 L50.2606106,22.3196261 L46.9099032,11.1799202 L27.9225614,16.7497732 C27.9225614,16.7497732 29.5979151,14.4026371 31.2732688,11.1799202 C23.175726,11.1799202 21.2211467,22.3196261 21.2211467,22.3196261 L20.1042442,21.7626408 L20.1042442,30.0773173 L24.5718541,41.2170232 L30.274758,45.6673357 C30.9091586,46.3791629 31.8194341,46.7868761 32.7755026,46.7868761 L35.7408786,46.7868761 L38.7062547,46.7868761 C39.6623232,46.7868761 40.5725987,46.3791629 41.2081162,45.6673357 L46.9099032,41.2170232 L50.4761727,32.3253099 C53.6548771,32.1125415 54.7282204,27.3113283 54.7282204,23.6808982 C54.7282204,22.4432768 53.6113179,21.2056555 52.4944155,21.2056555" id="Fill-2029" fill="#FBC8C8"></path>
                        <path d="M67.0141474,55.6985294 C66.3272524,54.2136066 65.1176471,53.0305699 63.6154133,52.3755551 L50.2606106,47.9007353 L35.7408786,47.9007353 L21.2211467,47.9007353 L7.86634401,52.3755551 C6.3641102,53.0305699 5.15450484,54.2136066 4.46760983,55.6985294 L0,67.9522059 L71.4817573,67.9522059 L67.0141474,55.6985294 Z" id="Fill-2030" fill="#059BBF"></path>
                        <polygon id="Fill-2031" fill="#FACB1B" points="1.20357409 64.6505085 70.2784066 64.6505085 69.059866 61.3085967 2.42211467 61.3085967"></polygon>
                        <path d="M4.46760983,55.6985294 L4.0465376,56.8526029 L67.4352197,56.8526029 L67.0141474,55.6985294 C66.6221147,54.8519118 66.045793,54.1200331 65.3566642,53.5106912 L6.12509308,53.5106912 C5.43596426,54.1200331 4.85964259,54.8519118 4.46760983,55.6985294" id="Fill-2032" fill="#FACB1B"></path>
                        <path d="M35.7408786,59.1209812 C40.0487714,59.1209812 50.2606106,58.0070107 50.2606106,51.3231871 L50.2606106,47.9010695 L46.9099032,47.9010695 L46.9099032,51.3231871 C46.9099032,51.3231871 44.6760983,55.7790695 35.7408786,55.7790695 C26.805659,55.7790695 24.5718541,51.3231871 24.5718541,51.3231871 L24.5718541,47.9010695 L21.2211467,47.9010695 L21.2211467,51.3231871 C21.2211467,58.0070107 31.4329859,59.1209812 35.7408786,59.1209812" id="Fill-2033" fill="#FFFFFF"></path>
                        <path d="M38.7060313,46.7867647 L35.7406552,46.7867647 L32.7752792,46.7867647 C31.8203276,46.7867647 30.9100521,46.3790515 30.2745346,45.6672243 L24.5716307,41.2169118 L24.5716307,51.28275 C24.5716307,51.28275 26.8054356,55.7386324 35.7406552,55.7386324 C44.6758749,55.7386324 46.9096798,51.28275 46.9096798,51.28275 L46.9096798,41.2169118 L41.2078928,45.6672243 C40.5723753,46.3790515 39.6620998,46.7867647 38.7060313,46.7867647" id="Fill-2034" fill="#F8B4B4"></path>
                        <path d="M30.2741996,45.6673357 L24.5712956,41.2170232 L24.5712956,51.2828614 C24.5712956,51.2828614 26.8051005,55.7387437 35.7403202,55.7387437 L35.7403202,46.7868761 L32.7760611,46.7868761 C31.8199926,46.7868761 30.9097171,46.3802768 30.2741996,45.6673357" id="Fill-2035" fill="#FBC8C8"></path>
                        <path d="M31.2732688,11.1799202 C23.175726,11.1799202 21.2211467,22.3196261 21.2211467,22.3196261 L18.9873418,21.2056555 C17.8704393,21.2056555 16.7535369,22.4432768 16.7535369,23.6808982 C16.7535369,27.3113283 17.8268801,32.1125415 21.0055845,32.3253099 L24.5718541,41.2170232 L30.274758,45.6673357 C30.9091586,46.3802768 31.8194341,46.7868761 32.7755026,46.7868761 L35.7408786,46.7868761 L35.7408786,14.4561077 L27.9225614,16.7497732 C27.9225614,16.7497732 29.5979151,14.4026371 31.2732688,11.1799202" id="Fill-2036" fill="#FBD7D7"></path>
                        <path d="M32.3901713,23.4335967 C32.3901713,22.2037732 31.3894267,21.2056555 30.1563663,21.2056555 L30.1496649,21.2056555 C30.1507818,21.2290489 30.1563663,21.2524423 30.1563663,21.2758357 C30.1563663,22.5034312 29.1600894,23.499321 27.9292628,23.5026629 C27.9672375,24.7001812 28.946761,25.6615379 30.1563663,25.6615379 C31.3894267,25.6615379 32.3901713,24.6634202 32.3901713,23.4335967" id="Fill-2037" fill="#3E3E3F"></path>
                        <path d="M43.5521593,23.4335967 C43.5521593,22.2037732 42.5514147,21.2056555 41.3183544,21.2056555 L41.311653,21.2056555 C41.3127699,21.2290489 41.3183544,21.2524423 41.3183544,21.2758357 C41.3183544,22.5034312 40.3220774,23.499321 39.0912509,23.5026629 C39.1281087,24.7001812 40.1087491,25.6615379 41.3183544,25.6615379 C42.5514147,25.6615379 43.5521593,24.6634202 43.5521593,23.4335967" id="Fill-2038" fill="#3E3E3F"></path>
                        <path d="M30.1563663,35.6872732 L41.3253909,35.6872732 C41.3253909,35.6872732 41.3253909,39.0291849 35.7408786,39.0291849 C30.1563663,39.0291849 30.1563663,35.6872732 30.1563663,35.6872732" id="Fill-2039" fill="#F89392"></path>
                        <path d="M35.7408786,0.477893382 C26.4884587,0.477893382 18.9873418,7.62958456 18.9873418,17.1874522 L18.9873418,21.2055441 L21.2211467,22.3195147 C21.2211467,22.3195147 23.175726,11.1798088 31.2732688,11.1798088 C29.5979151,14.4025257 27.9225614,16.7496618 27.9225614,16.7496618 L46.9099032,11.1798088 L50.2606106,22.3195147 L52.4944155,21.2055441 L52.4944155,17.1874522 C52.4944155,7.62958456 44.9932986,0.477893382 35.7408786,0.477893382" id="Fill-2040" fill="#84462D"></path>
                        <path d="M18.9873418,17.187118 L18.9873418,21.2052099 L21.2211467,22.3191805 C21.2211467,22.3191805 23.175726,11.1794746 31.2732688,11.1794746 C29.5979151,14.4021915 27.9225614,16.7493276 27.9225614,16.7493276 L35.7408786,14.4556621 L35.7408786,0.477559191 C26.4884587,0.477559191 18.9873418,7.62925037 18.9873418,17.187118" id="Fill-2041" fill="#9C6144"></path>
                    </g>
                </g>
            </g>
        </g>
    </g>
</svg>