<svg xmlns="http://www.w3.org/2000/svg" xmlns:xlink="http://www.w3.org/1999/xlink" width="60" height="60" viewBox="0 0 60 60">
    <defs>
        <path id="prefix__a" d="M27.513 1.198L18 10.808c-1.288 1.3-1.345 3.433-.128 4.753.392.424.884.741 1.426.918.66.215 1.18.742 1.393 1.408.175.547.49 1.044.909 1.439.63.592 1.446.886 2.266.886.547 0 1.095-.13 1.591-.39l2.927 2.957L1.228 50.21c-1.396 1.41-1.396 3.704 0 5.113.697.705 1.614 1.058 2.53 1.058.917 0 1.834-.352 2.531-1.058l27.157-27.43 2.416 2.44c-.64 1.256-.485 2.837.492 3.897.39.423.883.74 1.424.917.66.216 1.18.742 1.393 1.408.176.547.49 1.045.91 1.439.629.592 1.445.886 2.266.886.883 0 1.772-.34 2.44-1.015l9.513-9.609c1.288-1.3 1.345-3.433.127-4.753-.39-.424-.883-.741-1.425-.918-.66-.216-1.18-.742-1.393-1.408-.175-.547-.489-1.044-.908-1.439-1.049-.986-2.615-1.144-3.858-.496L36.438 8.73c.641-1.256.485-2.837-.491-3.897-.391-.423-.884-.74-1.426-.918-.659-.215-1.18-.74-1.393-1.407-.175-.547-.489-1.044-.908-1.44-.63-.591-1.446-.885-2.267-.885-.883 0-1.772.34-2.44 1.014zm-7.695 13.655c-.272-.088-.51-.242-.707-.456-.604-.655-.566-1.723.085-2.38l9.514-9.61c.341-.345.794-.52 1.242-.52.406 0 .806.144 1.115.433.211.2.363.44.451.715.1.314.241.61.412.883L20.693 15.27c-.271-.173-.564-.315-.875-.416zm2.934 3.222c-.211-.2-.363-.44-.45-.714-.102-.314-.241-.61-.413-.883L33.126 5.127c.272.173.564.314.875.416.272.089.51.242.707.456.604.655.566 1.723-.085 2.38l-9.513 9.61c-.342.345-.795.52-1.243.52-.405 0-.806-.144-1.115-.434zm4.017.655l8.588-8.675L45.53 20.333l-4.293 4.337-4.295 4.338L26.77 18.73zm11.53 14.79c-.272-.089-.51-.242-.708-.456-.603-.655-.565-1.722.085-2.38l4.758-4.805 4.757-4.805c.34-.345.794-.52 1.242-.52.405 0 .806.144 1.114.433.212.2.364.44.452.715.1.314.24.61.412.883L39.173 33.936c-.27-.173-.564-.314-.875-.416zm2.935 3.222c-.213-.2-.365-.44-.453-.714-.1-.314-.24-.61-.411-.883l11.237-11.352c.271.174.564.315.875.416.272.09.51.243.707.458.604.654.566 1.722-.085 2.38l-9.514 9.609c-.341.345-.794.52-1.242.52-.405 0-.806-.144-1.114-.434zM2.424 54.114c-.736-.743-.736-1.953 0-2.696l27.157-27.43 2.669 2.695-27.157 27.43c-.368.373-.851.559-1.334.559-.483 0-.966-.186-1.335-.558z"/>
        <path id="prefix__c" d="M.457.347c-.334.346-.334.904 0 1.25L7.49 8.865c.167.172.386.259.605.259.218 0 .437-.087.604-.259.334-.345.334-.904 0-1.25L1.666.347C1.5.174 1.28.088 1.061.088.842.088.624.174.457.347z"/>
    </defs>
    <g fill="none" fill-rule="evenodd">
        <g transform="translate(.517)">
            <mask id="prefix__b" fill="#fff">
                <use xlink:href="#prefix__a"/>
            </mask>
            <path fill="#FFF" d="M-6.015 62.638L61.5 62.638 61.5 -6.075 -6.015 -6.075z" mask="url(#prefix__b)"/>
        </g>
        <g transform="translate(33.979 11.538)">
            <mask id="prefix__d" fill="#fff">
                <use xlink:href="#prefix__c"/>
            </mask>
            <path fill="#8B88AA" d="M-6.056 15.595L15.213 15.595 15.213 -6.383 -6.056 -6.383z" mask="url(#prefix__d)"/>
        </g>
        <path fill="#8B88AA" d="M56.2 54.231L29.065 54.231 28.21 55.385 57.056 55.385zM30.517 51.923L55.902 51.923 55.426 50.769 30.993 50.769z"/>
        <path fill="#FFF" d="M59.362 55.431c0-.187-.057-.373-.17-.527l-3.411-4.617v-2.11c0-.48-.375-.87-.838-.87H31.477c-.463 0-.838.39-.838.87v2.11l-3.41 4.617c-.115.154-.172.34-.172.527l-.001 3.7c0 .48.375.869.838.869h30.632c.462 0 .837-.389.837-.869l-.001-3.7zm-27.047-5.718v-.668h21.79v.668l.424 1.736 2.3 3.114.859 1.737v1.963H28.732V56.3l.859-1.737 2.3-3.114.424-1.736z"/>
    </g>
</svg>
