<?xml version="1.0" encoding="UTF-8" standalone="no"?>
<svg width="200px" height="200px" viewBox="0 0 200 200" version="1.1" xmlns="http://www.w3.org/2000/svg" xmlns:xlink="http://www.w3.org/1999/xlink">
    <!-- Generator: Sketch 39.1 (31720) - http://www.bohemiancoding.com/sketch -->
    <title>assets/img_sex_offender</title>
    <desc>Created with Sketch.</desc>
    <defs>
        <path d="M70,140 C108.659932,140 140,108.659932 140,70 C140,31.3400675 108.659932,0 70,0 C31.3400675,0 0,31.3400675 0,70 C0,108.659932 31.3400675,140 70,140 Z" id="path-1"></path>
    </defs>
    <g id="Freshness" stroke="none" stroke-width="1" fill="none" fill-rule="evenodd">
        <g id="Circular-Icons" transform="translate(-500.000000, -2750.000000)">
            <g id="assets/img_sex_offender" transform="translate(500.000000, 2750.000000)">
                <path d="M100,200 C155.228475,200 200,155.228475 200,100 C200,44.771525 155.228475,0 100,0 C44.771525,0 0,44.771525 0,100 C0,155.228475 44.771525,200 100,200 Z" id="background" fill="#353167"></path>
                <g id="Group-4" transform="translate(30.000000, 30.000000)">
                    <mask id="mask-2" fill="white">
                        <use xlink:href="#path-1"></use>
                    </mask>
                    <g id="Mask"></g>
                    <g mask="url(#mask-2)" id="Group">
                        <g transform="translate(10.000000, 10.000000)">
                            <g>
                                <path d="M96.6752398,49.8721228 C96.6752398,75.6949728 76.0640265,96.6272379 50.6401535,96.6272379 C25.2147219,96.6272379 4.60350863,75.6949728 4.60350863,49.8721228 C4.60350863,24.0492727 25.2147219,3.11700767 50.6401535,3.11700767 C76.0640265,3.11700767 96.6752398,24.0492727 96.6752398,49.8721228" id="Fill-7663" fill="#0484AB"></path>
                                <path d="M50.6392184,3.11700767 C25.2153453,3.11700767 4.60413203,24.0508312 4.60413203,49.8721228 C4.60413203,62.4336637 9.49004156,73.8278852 17.4243846,82.2282209 L83.0140185,16.638587 C74.6978421,8.28033088 63.2630994,3.11700767 50.6392184,3.11700767" id="Fill-7664" fill="#059BBF"></path>
                                <path d="M72.1227262,63.1194054 C72.1227262,64.8399936 70.7481258,66.236413 69.0540321,66.236413 C67.35838,66.236413 65.9853381,64.8399936 65.9853381,63.1194054 C65.9853381,61.3988171 67.35838,60.0023977 69.0540321,60.0023977 C70.7481258,60.0023977 72.1227262,61.3988171 72.1227262,63.1194054" id="Fill-7665" fill="#6FDAF1"></path>
                                <path d="M35.2941896,26.4945652 C35.2941896,28.2151535 33.9195892,29.6115729 32.2254955,29.6115729 C30.5298434,29.6115729 29.155243,28.2151535 29.155243,26.4945652 C29.155243,24.773977 30.5298434,23.3775575 32.2254955,23.3775575 C33.9195892,23.3775575 35.2941896,24.773977 35.2941896,26.4945652" id="Fill-7666" fill="#9CE5F4"></path>
                                <path d="M78.2610494,84.1592072 C78.2610494,85.8797954 76.886449,87.2762148 75.1923553,87.2762148 C73.4967032,87.2762148 72.1221028,85.8797954 72.1221028,84.1592072 C72.1221028,82.4386189 73.4967032,81.0421995 75.1923553,81.0421995 C76.886449,81.0421995 78.2610494,82.4386189 78.2610494,84.1592072" id="Fill-7667" fill="#6FDAF1"></path>
                                <path d="M50.6392184,49.0129196 L85.1772219,14.4749161 C76.296867,5.54001359 64.1015745,-0.000467551151 50.6392184,-0.000467551151 L50.6392184,49.0129196 Z" id="Fill-7668" fill="#6FDAF1"></path>
                                <path d="M72.1227262,17.9227941 C72.1227262,20.935382 69.7179548,23.3775575 66.752122,23.3775575 C63.7862892,23.3775575 61.3815177,20.935382 61.3815177,17.9227941 C61.3815177,14.9102062 63.7862892,12.4680307 66.752122,12.4680307 C69.7179548,12.4680307 72.1227262,14.9102062 72.1227262,17.9227941" id="Fill-7669" fill="#C9F2F9"></path>
                                <path d="M19.9488491,59.2231458 C19.9488491,60.943734 18.5742487,62.3401535 16.8801551,62.3401535 C15.1845029,62.3401535 13.8099025,60.943734 13.8099025,59.2231458 C13.8099025,57.5025575 15.1845029,56.1061381 16.8801551,56.1061381 C18.5742487,56.1061381 19.9488491,57.5025575 19.9488491,59.2231458" id="Fill-7670" fill="#9CE5F4"></path>
                                <path d="M75.1141184,48.3136189 C74.3317495,35.557265 64.0861453,25.389586 51.4310941,24.9765825 L51.4310941,15.6052989 C69.1684263,16.0229779 83.5658848,30.3955003 84.3607217,48.3136189 L75.1141184,48.3136189 Z M51.4310941,84.1389466 L51.4310941,74.767663 C64.0861453,74.3546595 74.3317495,64.1869805 75.1141184,51.4306266 L84.3607217,51.4306266 C83.5658848,69.3487452 69.1684263,83.7212676 51.4310941,84.1389466 L51.4310941,84.1389466 Z M51.4310941,62.2996324 C57.3175631,61.9162404 62.0834679,57.3077446 62.8081722,51.4306266 L72.0454244,51.4306266 C71.270848,62.4679508 62.3951686,71.2423274 51.4310941,71.6506554 L51.4310941,62.2996324 Z M51.4310941,51.4306266 L59.708308,51.4306266 C59.0163323,55.5871563 55.625028,58.8179348 51.4310941,59.1826247 L51.4310941,51.4306266 Z M51.4310941,40.5616208 C55.625028,40.9263107 59.0163323,44.1570892 59.708308,48.3136189 L51.4310941,48.3136189 L51.4310941,40.5616208 Z M51.4310941,28.0935902 C62.3951686,28.5019182 71.270848,37.2762948 72.0454244,48.3136189 L62.8081722,48.3136189 C62.0834679,42.436501 57.3175631,37.8280051 51.4310941,37.4446132 L51.4310941,28.0935902 Z M48.3608416,25.0529492 C36.3946491,26.1781889 26.9158288,36.0606618 26.16463,48.3136189 L16.9195852,48.3136189 C17.6894861,30.8988971 31.3123681,16.8318414 48.3608416,15.6723146 L48.3608416,25.0529492 Z M48.3608416,37.6285166 C43.1725823,38.6212836 39.1344989,42.9383392 38.4690177,48.3136189 L29.2348825,48.3136189 C29.9720548,37.778133 38.0871843,29.2842871 48.3608416,28.1793079 L48.3608416,37.6285166 Z M48.3608416,48.3136189 L41.5719989,48.3136189 C42.1782569,44.6620444 44.869793,41.7289402 48.3608416,40.821891 L48.3608416,48.3136189 Z M48.3608416,58.9223545 C44.869793,58.0153053 42.1782569,55.0822011 41.5719989,51.4306266 L48.3608416,51.4306266 L48.3608416,58.9223545 Z M48.3608416,71.5649377 C38.0871843,70.4599584 29.9720548,61.9661125 29.2348825,51.4306266 L38.4690177,51.4306266 C39.1344989,56.8059063 43.1725823,61.122962 48.3608416,62.1157289 L48.3608416,71.5649377 Z M48.3608416,84.0719309 C31.3123681,82.9124041 17.6894861,68.8453485 16.9195852,51.4306266 L26.16463,51.4306266 C26.9158288,63.6835838 36.3946491,73.5660566 48.3608416,74.6912964 L48.3608416,84.0719309 Z M96.6339394,48.3136189 L87.4294158,48.3136189 C86.6314618,28.6764706 70.8609615,12.9075288 51.4310941,12.4882912 L51.4310941,3.13570972 C51.1661485,3.13259271 50.9043199,3.11700767 50.6393742,3.11700767 C49.8757073,3.11700767 49.116716,3.13882673 48.3608416,3.17623082 L48.3608416,12.5459559 C29.619833,13.7148338 14.6254676,29.1798673 13.8493326,48.3136189 L4.64325048,48.3136189 C4.62454843,48.8326007 4.60428788,49.350024 4.60428788,49.8721228 C4.60428788,50.3942215 4.62454843,50.9116448 4.64325048,51.4306266 L13.8493326,51.4306266 C14.6254676,70.5643782 29.619833,86.0294118 48.3608416,87.1982896 L48.3608416,96.5680147 C49.116716,96.6054188 49.8757073,96.6272379 50.6393742,96.6272379 C50.9043199,96.6272379 51.1661485,96.6116528 51.4310941,96.6069773 L51.4310941,87.2559543 C70.8609615,86.8367168 86.6314618,71.0677749 87.4294158,51.4306266 L96.6401734,51.4306266 C96.6557585,50.9116448 96.676019,50.3942215 96.6744605,49.8721228 C96.6744605,49.350024 96.651083,48.8326007 96.6339394,48.3136189 L96.6339394,48.3136189 Z" id="Fill-7671" fill="#21B2D1"></path>
                                <path d="M48.3616208,15.671847 L48.3616208,25.0540401 C36.3938699,26.1777214 26.9166081,36.0601942 26.1638507,48.3131514 L16.9188059,48.3131514 C17.6902653,30.8984295 31.3115889,16.8329324 48.3616208,15.671847 L48.3616208,15.671847 Z M48.3616208,37.6280491 C43.1718031,38.6223745 39.1337196,42.9394301 38.469797,48.3131514 L29.2341033,48.3131514 C29.9728341,37.7776654 38.0864051,29.2838195 48.3616208,28.1788403 L48.3616208,37.6280491 Z M48.3616208,48.3131514 L41.5712196,48.3131514 C42.1774776,44.6615769 44.8705723,41.7300312 48.3616208,40.8229819 L48.3616208,48.3131514 Z M24.0084399,75.6430746 L26.1934623,73.4596108 C20.7651934,67.660418 17.2959639,59.9536165 16.9188059,51.430159 L26.1638507,51.430159 C26.5300991,57.3961117 28.9769501,62.788535 32.7594389,66.8936341 L34.9397858,64.7117287 C31.7012148,61.170808 29.5925591,56.5467271 29.2341033,51.430159 L38.469797,51.430159 C38.7861733,53.9985734 39.889594,56.3098346 41.5057625,58.1473106 L43.6907848,55.9607297 C42.6169757,54.6967831 41.8564258,53.1491888 41.5712196,51.430159 L48.2213555,51.430159 L51.4303149,48.2211996 L51.4303149,40.5627118 C53.4672794,40.7388227 55.3063139,41.6006754 56.7463715,42.9067016 L58.9376279,40.7154452 C56.9333919,38.8421236 54.319781,37.6327246 51.4303149,37.4457041 L51.4303149,28.0946811 C56.8819613,28.2972866 61.8130675,30.5711437 65.4942535,34.1588195 L67.6777174,31.9737972 C63.441704,27.8125919 57.7360214,25.1833959 51.4303149,24.9776734 L51.4303149,15.6063899 C60.3013187,15.8152294 68.335406,19.513559 74.2530451,25.400028 L76.436509,23.2150056 C69.9640425,16.7550072 61.1553788,12.6982217 51.4303149,12.4893822 L51.4303149,3.13680067 C51.1669277,3.13212516 50.9050991,3.11654012 50.6385949,3.11654012 C49.8749281,3.11654012 49.1159367,3.13835918 48.3616208,3.17576327 L48.3616208,12.5470468 C29.6190537,13.7143662 14.6262468,29.1793998 13.8501119,48.3131514 L4.64247123,48.3131514 C4.62532769,48.8321332 4.60350863,49.3495564 4.60350863,49.8716552 C4.60350863,50.3953125 4.62532769,50.9111773 4.64247123,51.430159 L13.8501119,51.430159 C14.2303868,60.8030011 18.0362532,69.281262 24.0084399,75.6430746 L24.0084399,75.6430746 Z" id="Fill-7672" fill="#40C9E7"></path>
                                <path d="M50.6393742,3.11700767 C25.2560222,3.11700767 4.60428788,24.0913523 4.60428788,49.8721228 C4.60428788,75.6528932 25.2560222,96.6272379 50.6393742,96.6272379 C76.0227262,96.6272379 96.7321252,75.6528932 96.6744605,49.8721228 C96.6183544,24.0352462 75.9837636,3.07960358 50.6393742,3.11700767 M50.6393742,99.7442455 C23.5619285,99.7442455 0.000467551152,77.371923 0.000467551152,49.8721228 C0.000467551152,22.3723226 23.5619285,0 50.6393742,0 C77.7168199,0 99.7447131,22.3723226 99.7447131,49.8721228 C99.7447131,77.371923 77.7168199,99.7442455 50.6393742,99.7442455" id="Fill-7673" fill="#FFFFFF"></path>
                            </g>
                            <g transform="translate(11.000000, 24.000000)">
                                <path d="M64.97775,70.6612737 L59.999625,70.6612737 L55.0215,70.6612737 C53.4165,70.6612737 51.89025,69.9825018 50.823375,68.794186 L41.249625,61.3630281 L41.249625,69.7314491 C41.249625,69.7314491 41.249625,83.6788175 59.999625,83.6788175 C78.749625,83.6788175 78.749625,69.7314491 78.749625,69.7314491 L78.749625,61.3630281 L69.17775,68.794186 C68.110875,69.9825018 66.58275,70.6612737 64.97775,70.6612737" id="Fill-1703" fill="#F8B4B4"></path>
                                <path d="M50.8228125,68.7934421 L41.2509375,61.3622842 L41.2509375,69.7307053 C41.2509375,69.7307053 41.2509375,83.6780737 60.0009375,83.6780737 L60.0009375,70.6605298 L55.0228125,70.6605298 C53.4178125,70.6605298 51.8896875,69.9817579 50.8228125,68.7934421" id="Fill-1704" fill="#FBC8C8"></path>
                                <path d="M91.875,32.0380351 C91.875,29.9719649 90,27.9058947 88.125,27.9058947 C87.335625,27.9058947 86.743125,28.0937193 86.25,28.3540702 C86.25,11.3568772 84.541875,0.00557894737 60,0.00557894737 C35.67,0.00557894737 33.78375,11.1634737 33.75,27.9003158 L33.75,42.7719298 L41.25,61.3684211 L50.821875,68.7995789 C51.88875,69.9860351 53.416875,70.6666667 55.021875,70.6666667 L60,70.6666667 L64.978125,70.6666667 C66.583125,70.6666667 68.11125,69.9860351 69.178125,68.7995789 L78.75,61.3684211 L84.76125,46.4670526 C90.07875,46.0876842 91.875,38.0893333 91.875,32.0380351" id="Fill-1705" fill="#FBC8C8"></path>
                                <path d="M33.75,28.3542561 C33.256875,28.0939053 32.664375,27.9060807 31.875,27.9060807 C30,27.9060807 28.125,29.9721509 28.125,32.0382211 C28.125,38.0895193 29.92125,46.0878702 35.23875,46.4672386 L41.25,61.368607 L50.821875,68.7997649 C51.88875,69.9880807 53.416875,70.6668526 55.021875,70.6668526 L60,70.6668526 L60,0.00576491228 C35.465625,0.00576491228 33.75,11.3496246 33.75,28.3542561" id="Fill-1706" fill="#FBD7D7"></path>
                                <path d="M82.5,70.6666667 L78.75,68.8070175 C78.75,68.8070175 73.125,83.6897895 60,83.6897895 C46.875,83.6897895 41.25,68.8070175 41.25,68.8070175 L37.5,70.6666667 L60,106.005579 L82.5,70.6666667 Z" id="Fill-1707" fill="#FFFFFF"></path>
                                <path d="M13.205625,79.9970842 C10.68375,81.0924175 8.653125,83.0655053 7.5,85.5444175 L4.26325641e-13,106.000558 L60,106.000558 L37.5,70.6672246 L13.205625,79.9970842 Z" id="Fill-1708" fill="#F37A10"></path>
                                <path d="M112.5,85.5438596 C111.346875,83.0649474 109.31625,81.0918596 106.794375,79.9965263 L82.5,70.6666667 L60,106 L120,106 L112.5,85.5438596 Z" id="Fill-1709" fill="#F37A10"></path>
                                <path d="M54.3631875,31.6817263 C54.3631875,29.6286737 52.6831875,27.9624281 50.6131875,27.9624281 C50.6094375,27.9624281 50.6056875,27.9642877 50.6019375,27.9642877 C50.6038125,28.0033404 50.6131875,28.0405333 50.6131875,28.079586 C50.6131875,30.1289193 48.9406875,31.7914456 46.8744375,31.7970246 C46.9381875,33.7961474 48.5825625,35.4010246 50.6131875,35.4010246 C52.6831875,35.4010246 54.3631875,33.7366386 54.3631875,31.6817263" id="Fill-1710" fill="#3E3E3F"></path>
                                <path d="M73.1011875,31.6817263 C73.1011875,29.6286737 71.4211875,27.9624281 69.3511875,27.9624281 C69.3474375,27.9624281 69.3436875,27.9642877 69.3399375,27.9642877 C69.3418125,28.0033404 69.3511875,28.0405333 69.3511875,28.079586 C69.3511875,30.1289193 67.6786875,31.7914456 65.6124375,31.7970246 C65.6761875,33.7961474 67.3205625,35.4010246 69.3511875,35.4010246 C71.4211875,35.4010246 73.1011875,33.7366386 73.1011875,31.6817263" id="Fill-1711" fill="#3E3E3F"></path>
                                <polygon id="Fill-1712" fill="#F99134" points="41.25 68.8124105 37.5 70.6664807 60 105.999814 54.375 106.005393 41.25 87.4089018 24.375 91.1282 33.75 65.0931123 41.25 64.1744456"></polygon>
                                <polygon id="Fill-1713" fill="#F99134" points="78.75 68.8124105 82.5 70.6664807 60 105.999814 65.625 106.005393 78.75 87.4089018 95.625 91.1282 86.25 65.0931123 78.75 63.2334632"></polygon>
                                <path d="M63.75,57.6545158 L61.875,55.7948667 L60,55.7948667 L58.125,55.7948667 L56.25,57.6545158 L52.5,57.6545158 L50.281875,53.9891474 C49.588125,52.8398842 49.569375,51.409814 50.235,50.243814 C50.900625,49.077814 52.1475,48.3562702 53.4975,48.3562702 L60,48.3562702 L66.5025,48.3562702 C67.8525,48.3562702 69.099375,49.077814 69.765,50.243814 C70.430625,51.409814 70.411875,52.8398842 69.718125,53.9891474 L67.5,57.6545158 L63.75,57.6545158 Z M60,42.7773228 C60,42.7773228 48.75,42.7773228 43.125,46.4966211 C43.125,59.5141649 52.5,68.8124105 52.5,68.8124105 L60,72.5317088 L67.5,68.8124105 C67.5,68.8124105 76.875,59.5141649 76.875,46.4966211 C71.25,42.7773228 60,42.7773228 60,42.7773228 L60,42.7773228 Z" id="Fill-1714" fill="#3E3E3F"></path>
                                <path d="M90.786375,98.5468982 L88.8045,98.5468982 L90.81825,95.7016351 L90.786375,98.5468982 Z M93.2895,98.5152842 L93.2895,92.0864772 L90.96075,92.0864772 L86.372625,98.2772491 C86.136375,97.8848632 85.81575,97.5222316 85.32825,97.2730386 C86.46825,96.5663719 86.563875,94.9782316 86.1195,93.8773193 C85.517625,92.4007579 84.122625,91.928407 82.7445,91.928407 C81.477,91.928407 80.128875,92.6053193 79.210125,93.735986 L80.85825,95.182793 C81.55575,94.3961614 82.933875,94.1916 83.442,94.9782316 C83.758875,95.4505825 83.50575,96.3450737 82.776375,96.3450737 L81.096375,96.3450737 L81.096375,98.5933895 L82.83825,98.5933895 C83.64825,98.5933895 84.06075,99.0973544 84.06075,99.6645474 C84.06075,100.259635 83.410125,100.622267 82.648875,100.622267 C81.98325,100.622267 81.25575,100.3396 80.841375,99.6775649 L79.003875,101.360547 C79.843875,102.760863 81.317625,103.372688 82.7595,103.372688 C84.51075,103.372688 86.215125,102.413109 86.691375,100.795214 L90.580125,100.795214 L90.580125,103.216477 L93.2895,103.216477 L93.2895,100.795214 L94.337625,100.795214 L94.337625,98.5152842 L93.2895,98.5152842 Z" id="Fill-1715" fill="#FFFFFF"></path>
                                <path d="M38.4375,11.1632877 L38.4375,42.9316737 L34.6875,42.9316737 C34.6875,39.257007 34.648125,36.8338842 34.6875,33.5962351 C34.726875,30.2804807 33.88875,27.9001298 32.109375,27.9001298 C30,27.9001298 27.313125,11.1632877 38.4375,11.1632877" id="Fill-1716" fill="#3E3E3F"></path>
                                <path d="M81.7738125,11.1632877 L81.7738125,42.9316737 L85.5238125,42.9316737 C85.5238125,39.257007 85.5631875,36.8338842 85.5238125,33.5962351 C85.4844375,30.2804807 86.3225625,27.9001298 88.1019375,27.9001298 C90.2113125,27.9001298 92.8981875,11.1632877 81.7738125,11.1632877" id="Fill-1717" fill="#3E3E3F"></path>
                            </g>
                        </g>
                    </g>
                </g>
            </g>
        </g>
    </g>
</svg>