<?xml version="1.0" encoding="UTF-8"?>
<svg width="176px" height="22px" viewBox="0 0 176 22" version="1.1" xmlns="http://www.w3.org/2000/svg" xmlns:xlink="http://www.w3.org/1999/xlink">
    <!-- Generator: Sketch 44.1 (41455) - http://www.bohemiancoding.com/sketch -->
    <title>BvProLogo</title>
    <desc>Created with Sketch.</desc>
    <defs>
        <linearGradient x1="50%" y1="97.672%" x2="50%" y2="0%" id="linearGradient-1">
            <stop stop-color="#80B44B" offset="0%"></stop>
            <stop stop-color="#69A543" offset="100%"></stop>
        </linearGradient>
    </defs>
    <g id="Page-1" stroke="none" stroke-width="1" fill="none" fill-rule="evenodd">
        <g id="BVPro-Landing-Page-1" transform="translate(-115.000000, -24.000000)">
            <g id="BvProLogo" transform="translate(115.000000, 24.000000)">
                <g id="Group-9" transform="translate(0.000000, 1.540000)" fill="#FEFEFE">
                    <path d="M2.33143036,17.9566554 L5.61669821,17.9566554 C7.89487679,17.9566554 9.56393036,16.4677268 9.56393036,14.2482804 C9.56393036,12.1977625 8.16005536,10.5681911 5.72257321,10.5681911 L2.33143036,10.5681911 L2.33143036,17.9566554 Z M2.33143036,8.54536964 L4.9806625,8.54536964 C6.96773393,8.54536964 8.10701964,7.14090536 8.10701964,5.31490536 C8.10701964,3.51660179 7.12664464,2.22449464 5.0604125,2.22449464 L2.33143036,2.22449464 L2.33143036,8.54536964 Z M1.9642856e-05,1.43799464 C1.9642856e-05,0.679191071 0.371073214,0.0895125 1.24518036,0.0895125 L5.35171607,0.0895125 C8.68962679,0.0895125 10.4382339,2.58985179 10.4382339,4.86547679 C10.4382339,7.0566375 9.35218036,8.74219107 7.81532321,9.24760179 L7.81532321,9.30378036 C10.0940911,9.5563875 11.8953411,11.6076911 11.8953411,14.2482804 C11.8953411,17.3944768 9.69651964,20.0916375 5.72257321,20.0916375 L1.24518036,20.0916375 C0.371073214,20.0916375 1.9642856e-05,19.5015661 1.9642856e-05,18.7427625 L1.9642856e-05,1.43799464 Z" id="Fill-1"></path>
                    <path d="M22.7089696,11.7198518 C22.7089696,9.58486964 21.5431661,7.11261964 18.9734875,7.11261964 C16.0857911,7.00045893 15.0523804,9.44422679 14.9728268,11.7198518 L22.7089696,11.7198518 Z M14.9728268,13.5737446 C14.9728268,16.1304589 16.5096839,18.1249946 19.1323982,18.1249946 C22.2322375,18.1249946 23.0269875,16.1023696 23.9010946,16.1023696 C24.3251839,16.1023696 24.7488804,16.4954232 24.7488804,17.1984411 C24.7488804,18.4060839 21.8613804,20.2601732 19.1060768,20.2601732 C14.6021661,20.2601732 12.6414161,16.5798875 12.6414161,12.6187089 C12.6414161,8.57365536 15.0258625,4.9776375 18.9734875,4.9776375 C22.8150411,4.9776375 25.0405768,8.65772679 25.0405768,12.2537446 C25.0405768,13.1243161 24.7488804,13.5737446 23.7423804,13.5737446 L14.9728268,13.5737446 Z" id="Fill-3"></path>
                    <path d="M35.748075,11.7198518 C35.748075,9.58486964 34.5826643,7.11261964 32.0125929,7.11261964 C29.1248964,7.00045893 28.0914857,9.44422679 28.0121286,11.7198518 L35.748075,11.7198518 Z M28.0121286,13.5737446 C28.0121286,16.1304589 29.5487893,18.1249946 32.1717,18.1249946 C35.2711464,18.1249946 36.0660929,16.1023696 36.9402,16.1023696 C37.3644857,16.1023696 37.7881821,16.4954232 37.7881821,17.1984411 C37.7881821,18.4060839 34.9004857,20.2601732 32.1451821,20.2601732 C27.6412714,20.2601732 25.6809143,16.5798875 25.6809143,12.6187089 C25.6809143,8.57365536 28.0651643,4.9776375 32.0125929,4.9776375 C35.8541464,4.9776375 38.0796821,8.65772679 38.0796821,12.2537446 C38.0796821,13.1243161 37.7881821,13.5737446 36.7816821,13.5737446 L28.0121286,13.5737446 Z" id="Fill-5"></path>
                    <path d="M39.1995804,6.29810893 C39.1995804,5.48332321 39.6497946,4.97751964 40.3657768,4.97751964 C41.0803839,4.97751964 41.5311875,5.48332321 41.5311875,6.29810893 L41.5311875,6.88818036 L41.5842232,6.94435893 C42.6172411,5.53930536 44.0743482,4.97751964 45.4784196,4.97751964 C47.6507232,4.97751964 50.3797054,6.43855536 50.3797054,10.6527339 L50.3797054,18.9398589 C50.3797054,19.7544482 49.9296875,20.2600554 49.2137054,20.2600554 C48.4990982,20.2600554 48.0482946,19.7544482 48.0482946,18.9398589 L48.0482946,10.7927875 C48.0482946,8.18009107 46.3264018,7.11250179 44.7895446,7.11250179 C43.2530804,7.11250179 41.5311875,8.18009107 41.5311875,10.7927875 L41.5311875,18.9398589 C41.5311875,19.7544482 41.0803839,20.2600554 40.3657768,20.2600554 C39.6497946,20.2600554 39.1995804,19.7544482 39.1995804,18.9398589 L39.1995804,6.29810893 Z" id="Fill-7"></path>
                </g>
                <path d="M62.3912143,2.83741071 L58.2852679,14.5237321 L54.1785357,2.83741071 C53.8345893,2.07919643 53.2785,1.46083929 52.3770893,1.46083929 L52.3770893,1.46083929 C51.31775,1.46083929 50.3371786,2.30371429 50.3371786,3.48366071 L50.3371786,3.48366071 C50.3371786,3.87691071 50.3902143,4.15760714 50.5228036,4.52316071 L50.5228036,4.52316071 L56.3249107,20.17125 C56.66925,21.0699107 57.1194643,21.8000357 58.2852679,21.8000357 L58.2852679,21.8000357 C59.450875,21.8000357 59.9010893,21.0699107 60.2462143,20.17125 L60.2462143,20.17125 L66.048125,4.52316071 C66.180125,4.15760714 66.2331607,3.87691071 66.2331607,3.48366071 L66.2331607,3.48366071 C66.2331607,2.30371429 65.2531786,1.46083929 64.19325,1.46083929 L64.19325,1.46083929 C63.2924286,1.46083929 62.7365357,2.07919643 62.3912143,2.83741071" id="Fill-10" fill="url(#linearGradient-1)"></path>
                <path d="M64.1997321,14.18725 C64.1997321,18.6538393 67.0607143,21.9685714 71.3524821,21.9685714 L71.3524821,21.9685714 C74.1875357,21.9685714 77.5786786,20.2828214 77.5786786,18.5412857 L77.5786786,18.5412857 C77.5786786,17.6705179 76.8367679,16.7993571 76.0153036,16.7993571 L76.0153036,16.7993571 C75.0086071,16.7993571 73.657375,18.4289286 71.6970179,18.4289286 L71.6970179,18.4289286 C69.9218929,18.4289286 68.3593036,17.5021786 68.094125,15.5070536 L68.094125,15.5070536 L76.22725,15.5070536 C77.3934464,15.5070536 77.8966964,14.917375 77.8966964,13.7093393 L77.8966964,13.7093393 C77.8966964,10.3382321 75.1675179,6.34916071 71.0344643,6.34916071 L71.0344643,6.34916071 C67.0080714,6.34916071 64.1997321,10.0854286 64.1997321,14.18725 M71.0344643,9.72007143 C72.8099821,9.72007143 73.8695179,11.0404643 74.0812679,12.8102857 L74.0812679,12.8102857 L68.0147679,12.8102857 C68.2003929,11.0964464 69.3390893,9.72007143 71.0344643,9.72007143" id="Fill-12" fill="url(#linearGradient-1)"></path>
                <path d="M83.0606071,8.20305357 L83.0077679,8.20305357 C83.0077679,6.91094643 82.160375,6.51769643 81.1536786,6.51769643 L81.1536786,6.51769643 C80.1998214,6.51769643 79.1927321,7.19203571 79.1927321,8.54051786 L79.1927321,8.54051786 L79.1927321,19.5526964 C79.1927321,20.9011786 79.9876786,21.8000357 81.1006429,21.8000357 L81.1006429,21.8000357 C82.2132143,21.8000357 83.0077679,20.9011786 83.0077679,19.5526964 L83.0077679,19.5526964 L83.0077679,13.3441786 C83.0077679,11.7426964 84.1737679,11.2091964 85.3124643,10.6470179 L85.3124643,10.6470179 C86.4521429,10.0854286 87.5908393,10.0009643 87.5908393,8.68096429 L87.5908393,8.68096429 C87.5908393,7.220125 86.6638929,6.51769643 85.73675,6.51769643 L85.73675,6.51769643 C84.5442321,6.51769643 83.7765893,7.07928571 83.0606071,8.20305357" id="Fill-14" fill="url(#linearGradient-1)"></path>
                <path d="M87.7756786,2.66907143 C87.7756786,3.90480357 88.7825714,5.000875 89.9218571,5.000875 L89.9218571,5.000875 C91.114375,5.000875 92.0676429,3.93308929 92.0676429,2.66907143 L92.0676429,2.66907143 C92.0676429,1.489125 91.0605536,0.449821429 89.9218571,0.449821429 L89.9218571,0.449821429 C88.7825714,0.449821429 87.7756786,1.51701786 87.7756786,2.66907143 M88.0143393,8.76483929 L88.0143393,19.5526964 C88.0143393,20.9011786 88.8088929,21.8000357 89.9218571,21.8000357 L89.9218571,21.8000357 C91.0340357,21.8000357 91.8289821,20.9011786 91.8289821,19.5526964 L91.8289821,19.5526964 L91.8289821,8.76483929 C91.8289821,7.41655357 91.0340357,6.51769643 89.9218571,6.51769643 L89.9218571,6.51769643 C88.8088929,6.51769643 88.0143393,7.41655357 88.0143393,8.76483929" id="Fill-16" fill="url(#linearGradient-1)"></path>
                <path d="M98.7829464,0.000196428571 C96.4721607,0.0184642857 94.8221607,1.64646429 94.8221607,4.60723214 L94.8221607,4.60723214 L94.8221607,6.68623214 L93.974375,6.68623214 C93.020125,6.68623214 92.3055179,7.44483929 92.3055179,8.45585714 L92.3055179,8.45585714 C92.3055179,9.55153571 92.9411607,10.225875 93.974375,10.225875 L93.974375,10.225875 L94.8221607,10.225875 L94.8221607,19.5526964 C94.8221607,20.9011786 95.6169107,21.8000357 96.7296786,21.8000357 L96.7296786,21.8000357 C97.8424464,21.8000357 98.6371964,20.9011786 98.6371964,19.5526964 L98.6371964,19.5526964 L98.6371964,10.225875 L99.8293214,10.225875 C100.941893,10.225875 101.76375,9.72007143 101.76375,8.45585714 L101.76375,8.45585714 C101.76375,7.16375 100.968607,6.68623214 99.8293214,6.68623214 L99.8293214,6.68623214 L98.6371964,6.68623214 L98.6371964,5.02857143 C98.6371964,3.53964286 99.2730357,3.53964286 99.9086786,3.53964286 L99.9086786,3.53964286 C100.968607,3.53964286 101.472054,3.00575 101.472054,1.82639286 L101.472054,1.82639286 C101.472054,0.438035714 100.2045,0.0100178571 98.8701607,0.000196428571 L98.8701607,0.000196428571 L98.7829464,0.000196428571 Z" id="Fill-19" fill="url(#linearGradient-1)"></path>
                <path d="M102.233214,2.66907143 C102.233214,3.90480357 103.240107,5.000875 104.379786,5.000875 L104.379786,5.000875 C105.571714,5.000875 106.525375,3.93308929 106.525375,2.66907143 L106.525375,2.66907143 C106.525375,1.489125 105.518482,0.449821429 104.379786,0.449821429 L104.379786,0.449821429 C103.240107,0.449821429 102.233214,1.51701786 102.233214,2.66907143 M102.471875,8.76483929 L102.471875,19.5526964 C102.471875,20.9011786 103.266429,21.8000357 104.379786,21.8000357 L104.379786,21.8000357 C105.492357,21.8000357 106.286714,20.9011786 106.286714,19.5526964 L106.286714,19.5526964 L106.286714,8.76483929 C106.286714,7.41655357 105.492357,6.51769643 104.379786,6.51769643 L104.379786,6.51769643 C103.266429,6.51769643 102.471875,7.41655357 102.471875,8.76483929" id="Fill-21" fill="url(#linearGradient-1)"></path>
                <path d="M107.583732,14.18725 C107.583732,18.6538393 110.445304,21.9685714 114.737071,21.9685714 L114.737071,21.9685714 C117.571929,21.9685714 120.962875,20.2828214 120.962875,18.5412857 L120.962875,18.5412857 C120.962875,17.6705179 120.221357,16.7993571 119.399696,16.7993571 L119.399696,16.7993571 C118.393196,16.7993571 117.042357,18.4289286 115.081607,18.4289286 L115.081607,18.4289286 C113.306286,18.4289286 111.7435,17.5021786 111.478321,15.5070536 L111.478321,15.5070536 L119.612232,15.5070536 C120.777643,15.5070536 121.281089,14.917375 121.281089,13.7093393 L121.281089,13.7093393 C121.281089,10.3382321 118.552107,6.34916071 114.419446,6.34916071 L114.419446,6.34916071 C110.392268,6.34916071 107.583732,10.0854286 107.583732,14.18725 M114.419446,9.72007143 C116.194179,9.72007143 117.253911,11.0404643 117.465661,12.8102857 L117.465661,12.8102857 L111.398571,12.8102857 C111.584393,11.0964464 112.723679,9.72007143 114.419446,9.72007143" id="Fill-24" fill="url(#linearGradient-1)"></path>
                <path d="M133.730929,0.000196428571 C132.6325,0.0145357143 131.850518,0.910053571 131.850518,2.24753571 L131.850518,2.24753571 L131.850518,7.75382143 C130.843429,6.82628571 129.545232,6.34916071 128.220321,6.34916071 L128.220321,6.34916071 C124.113786,6.34916071 122.074071,10.4225 122.074071,14.3553929 L122.074071,14.3553929 C122.074071,18.176125 124.511357,21.9685714 128.353107,21.9685714 L128.353107,21.9685714 C129.651107,21.9685714 131.134732,21.3508036 131.850518,20.1144821 L131.850518,20.1144821 C132.088393,21.1822679 132.697714,21.8000357 133.757643,21.8000357 L133.757643,21.8000357 C134.870214,21.8000357 135.664768,20.9011786 135.664768,19.5526964 L135.664768,19.5526964 L135.664768,2.24753571 C135.664768,0.910053571 134.882786,0.0145357143 133.784357,0.000196428571 L133.784357,0.000196428571 L133.730929,0.000196428571 Z M127.193786,14.3066786 L124.647286,12.4661429 L127.887768,12.4661429 L128.858321,9.89233929 L129.828679,12.4661429 L133.069357,12.4661429 L130.522661,14.3060893 L131.769982,17.6129643 L128.858321,15.5092143 L125.946857,17.6129643 L127.193786,14.3066786 Z" id="Fill-26" fill="url(#linearGradient-1)"></path>
                <g id="Group-38" transform="translate(137.500000, 1.343571)" fill="#FEFEFE">
                    <polygon id="Fill-28" points="35.9113071 2.05898393 35.9113071 2.46225179 35.2302893 2.46225179 35.2302893 4.33559107 34.7515929 4.33559107 34.7515929 2.46225179 34.0672357 2.46225179 34.0672357 2.05898393"></polygon>
                    <path d="M37.6996911,2.05898393 L38.3842446,2.05898393 L38.3842446,4.33559107 L37.9411018,4.33559107 L37.9411018,2.7957875 C37.9411018,2.75139464 37.9412982,2.68951964 37.9424768,2.60957321 C37.9434589,2.52982321 37.9440482,2.46834107 37.9440482,2.42493036 L37.5126911,4.33559107 L37.0502982,4.33559107 L36.6220839,2.42493036 C36.6220839,2.46834107 36.6224768,2.52982321 36.6234589,2.60957321 C36.6244411,2.68951964 36.6250304,2.75139464 36.6250304,2.7957875 L36.6250304,4.33559107 L36.1816911,4.33559107 L36.1816911,2.05898393 L36.8739054,2.05898393 L37.2883696,3.8490375 L37.6996911,2.05898393 Z" id="Fill-30"></path>
                    <path d="M2.65887679,10.4827643 L6.31068036,10.4827643 C8.75444821,10.4827643 10.4119125,8.65676429 10.4119125,6.38153214 C10.4119125,4.41508571 9.28814464,2.22412143 6.19832321,2.22412143 L2.65887679,2.22412143 L2.65887679,10.4827643 Z M2.65887679,18.9378357 C2.65887679,19.752425 2.1811625,20.2582286 1.42294821,20.2582286 C0.6645375,20.2582286 0.186823214,19.752425 0.186823214,18.9378357 L0.186823214,1.43762143 C0.186823214,0.679210714 0.580073214,0.0893357143 1.50721607,0.0893357143 L6.39494821,0.0893357143 C10.4119125,0.0893357143 12.8837696,2.89826429 12.8837696,6.38153214 C12.8837696,9.8648 10.1308232,12.61755 6.47901964,12.61755 L2.65887679,12.61755 L2.65887679,18.9378357 Z" id="Fill-32"></path>
                    <path d="M14.7651232,6.29714643 C14.7651232,5.48275357 15.2428375,4.97695 16.0012482,4.97695 C16.7594625,4.97695 17.2371768,5.48275357 17.2371768,6.29714643 L17.2371768,7.56136071 L17.2933554,7.56136071 C17.8549446,6.40950357 19.2315161,4.97695 20.6640696,4.97695 C21.5350339,4.97695 22.0406411,5.53893214 22.0406411,6.24116429 C22.0406411,6.9432 21.5350339,7.39262857 20.4957304,7.58945 C19.0348911,7.84205714 17.2371768,8.93773571 17.2371768,11.8311286 L17.2371768,18.9379143 C17.2371768,19.7525036 16.7594625,20.2581107 16.0012482,20.2581107 C15.2428375,20.2581107 14.7651232,19.7525036 14.7651232,18.9379143 L14.7651232,6.29714643 Z" id="Fill-34"></path>
                    <path d="M29.5400482,18.1231482 C32.5736911,18.1231482 33.6412804,15.1456839 33.6412804,12.6176482 C33.6412804,10.0894161 32.5736911,7.11175536 29.5400482,7.11175536 C26.5062089,7.11175536 25.4388161,10.0894161 25.4388161,12.6176482 C25.4388161,15.1456839 26.5062089,18.1231482 29.5400482,18.1231482 M29.5400482,4.97696964 C33.7534411,4.97696964 36.1131375,8.6568625 36.1131375,12.6176482 C36.1131375,16.5782375 33.7534411,20.2581304 29.5400482,20.2581304 C25.3264589,20.2581304 22.9667625,16.5782375 22.9667625,12.6176482 C22.9667625,8.6568625 25.3264589,4.97696964 29.5400482,4.97696964" id="Fill-36"></path>
                </g>
            </g>
        </g>
    </g>
</svg>