<?xml version="1.0" encoding="UTF-8"?>
<svg width="200px" height="200px" viewBox="0 0 200 200" version="1.1" xmlns="http://www.w3.org/2000/svg" xmlns:xlink="http://www.w3.org/1999/xlink">
    <!-- Generator: Sketch 43.2 (39069) - http://www.bohemiancoding.com/sketch -->
    <title>assets/img_pdf_sharing</title>
    <desc>Created with Sketch.</desc>
    <defs></defs>
    <g id="Freshness" stroke="none" stroke-width="1" fill="none" fill-rule="evenodd">
        <g id="Circular-Icons" transform="translate(0.000000, -3500.000000)">
            <g id="assets/img_pdf_sharing" transform="translate(0.000000, 3500.000000)">
                <g>
                    <path d="M100,200 C155.228475,200 200,155.228475 200,100 C200,44.771525 155.228475,0 100,0 C44.771525,0 0,44.771525 0,100 C0,155.228475 44.771525,200 100,200 Z" id="background" fill="#3B2469"></path>
                    <g id="Group" transform="translate(40.000000, 55.000000)">
                        <polygon id="Fill-3840" fill="#666666" points="15.8241758 82.3234648 0 82.3234648 0 50.5587589 15.8241758 50.5587589"></polygon>
                        <polygon id="Fill-3841" fill="#F0F0F0" points="23.7362637 82.3234648 15.8241758 82.3234648 15.8241758 50.5587589 23.7362637 50.5587589"></polygon>
                        <path d="M22.4175824,76.3675824 C22.4175824,77.4634648 21.5314286,78.3528766 20.4395604,78.3528766 C19.3476923,78.3528766 18.4615385,77.4634648 18.4615385,76.3675824 C18.4615385,75.2717001 19.3476923,74.3822883 20.4395604,74.3822883 C21.5314286,74.3822883 22.4175824,75.2717001 22.4175824,76.3675824" id="Fill-3842" fill="#F3B607"></path>
                        <path d="M62.0546374,81.2060735 L60.3456264,83.1291618 C58.8911209,84.7650441 59.0322198,87.2744559 60.6621099,88.7356324 C62.2933187,90.1954853 64.7935385,90.0525441 66.248044,88.4166618 L69.8309011,85.0284265 C66.9218901,84.3798971 64.2687033,83.0523971 62.0546374,81.2060735" id="Fill-7141" fill="#F8B4B4"></path>
                        <g id="PDF" transform="translate(55.476852, 0.397123)">
                            <path d="M0,5.08235294 C0,2.27514706 2.26681319,0 5.06373626,0 L42.1978022,0 L63.2967033,17.7882353 L63.2967033,79.6235294 C63.2967033,82.4307353 61.0298901,84.7058824 58.232967,84.7058824 L5.06373626,84.7058824 C2.26681319,84.7058824 0,82.4307353 0,79.6235294 L0,5.08235294 Z" id="Fill-253" fill="#F0386B"></path>
                            <path d="M42.1978022,0 L42.1978022,12.7058824 C42.1978022,15.5130882 44.4646154,17.7882353 47.2615385,17.7882353 L63.2967033,17.7882353" id="Fill-254" fill="#DB3362"></path>
                            <path d="M19.3860659,29.2934118 C17.0374945,30.3787059 21.3337582,35.3525294 23.1205714,37.2279706 C22.815956,34.6523824 21.7267253,28.2107647 19.3860659,29.2934118 M26.8999121,52.5756176 C26.9671648,52.6192941 27.0502418,52.6245882 27.1227692,52.5888529 C28.8357363,51.7298824 30.6014505,50.9198824 32.3671648,50.1853235 C32.4436484,50.1535588 32.4963956,50.0820882 32.502989,50.0000294 C30.8388132,48.9001765 29.1891429,47.7195882 27.6067253,46.4992941 C27.5368352,46.4450294 27.4432088,46.4331176 27.3627692,46.4701765 C27.2862857,48.5004706 27.1306813,50.5585588 26.8999121,52.5756176 M42.2678242,51.0085588 C44.8774945,52.2341471 51.1517802,54.7620882 51.4168352,51.8767941 C51.6779341,49.0179706 45.0199121,50.3163529 42.2678242,51.0085588 M21.4722198,60.4744412 C18.8770549,62.2638529 13.150022,66.6884118 15.7979341,68.4513529 C18.5012308,70.2513529 20.6691429,63.5754706 21.4722198,60.4744412 M16.8001319,72.8044412 C15.7240879,72.8044412 14.6506813,72.4523824 13.6102418,71.7601765 C11.4423297,70.3162059 11.0374945,68.5016471 11.0783736,67.2323824 C11.2247473,62.7760588 17.2260659,58.239 22.5706813,55.0717941 C23.1812308,51.1885588 23.4911209,46.9876765 23.4594725,43.0581176 C19.0102418,39.0782647 14.1693626,33.6835588 14.7667253,29.4654706 C14.9328791,28.2901765 15.582989,26.6807647 17.7284835,25.6867941 C18.5038681,25.3281176 19.2792527,25.1467941 20.0348571,25.1467941 C24.4287033,25.1467941 27.0238681,30.8432647 27.3772747,41.2157647 C30.4155165,43.7953235 33.8862857,46.2862059 37.2977143,48.3350294 C40.4783736,47.2748824 44.6941978,46.1459118 48.2243077,46.1459118 C50.924967,46.1459118 52.9082637,46.8235588 54.1214505,48.159 C54.7887033,48.8922353 55.542989,50.1959118 55.3557363,52.2420882 C55.0722198,55.3312059 52.9174945,57.1748824 49.5904615,57.1748824 C45.7293626,57.1748824 40.6893626,54.8309118 36.8823297,52.6828235 C33.2783736,53.9944412 29.528044,55.7084118 26.1548571,57.5865 C24.8295824,64.7415 22.1487033,72.8031176 16.8001319,72.8044412" id="Fill-255" fill="#FFFFFF"></path>
                        </g>
                        <path d="M66.5934066,76.2163676 L65.9340659,76.2163676 L65.9340659,69.5987206 L66.5934066,69.5987206 C68.4131868,69.5987206 69.8901099,71.0810735 69.8901099,72.9075441 C69.8901099,74.7340147 68.4131868,76.2163676 66.5934066,76.2163676 M67.556044,67.3354853 L55.4769231,65.0590147 C55.4769231,65.0325441 55.4901099,41.1984275 55.4901099,41.1984275 L23.7362637,53.7163676 L23.7362637,80.1869559 C33.2043956,80.6766618 42.4615385,80.6766618 51.4285714,80.0943088 C54.356044,79.9090147 57.2571429,79.6707794 60.1318681,79.3531324 C62.9010989,79.0487206 65.643956,78.6781324 68.3472527,78.2546029 C70.7604396,77.8707794 72.5274725,75.7928382 72.5274725,73.3443088 C72.5274725,70.4060735 70.443956,67.8781324 67.556044,67.3354853" id="Fill-7145" fill="#F8B4B4"></path>
                        <path d="M69.8901099,72.9075441 C69.8901099,74.7340147 68.4131868,76.2163676 66.5934066,76.2163676 L65.9340659,76.2163676 L65.9340659,69.5987206 L66.5934066,69.5987206 C68.4131868,69.5987206 69.8901099,71.0810735 69.8901099,72.9075441" id="Fill-7146" fill="#FFFFFF"></path>
                        <polygon id="Fill-7148" fill="#FBC8C8" points="55.4890056 41.1786966 23.7362637 53.7167647 23.7362637 73.4452941 55.4890056 54.8821618"></polygon>
                    </g>
                </g>
            </g>
        </g>
    </g>
</svg>