<?xml version="1.0" encoding="UTF-8"?>
<svg width="30px" height="30px" viewBox="0 0 30 30" version="1.1" xmlns="http://www.w3.org/2000/svg" xmlns:xlink="http://www.w3.org/1999/xlink">
    <!-- Generator: Sketch 52.5 (67469) - http://www.bohemiancoding.com/sketch -->
    <title>assets/24hr</title>
    <desc>Created with Sketch.</desc>
    <g id="assets/24hr" stroke="none" stroke-width="1" fill="none" fill-rule="evenodd">
        <g id="Group">
            <path d="M20.9331459,24.4400612 C19.1869897,25.5845967 17.105002,26.25 14.8717949,26.25 C8.72137821,26.25 3.71794872,21.2029688 3.71794872,15 C3.71794872,8.79703125 8.72137821,3.75 14.8717949,3.75 C18.2458333,3.75 21.3651923,5.2490625 23.4951122,7.87125 L20.9134615,10.78125 L28.8141026,10.78125 L28.8141026,1.875 L25.9968269,5.05078125 C23.1730449,1.83 19.178109,0 14.8717949,0 C6.67139423,0 0,6.72890625 0,15 C0,23.2710937 6.67139423,30 14.8717949,30 C17.8088895,30 20.5498402,29.1368024 22.8583741,27.6487167 L20.9331459,24.4400612 Z" id="Fill-7123" fill="#E1C618"></path>
            <path d="M3.71794872,15 C3.71794872,8.79703125 8.72137821,3.75 14.8717949,3.75 C16.5992468,3.75 18.2593109,4.145625 19.754391,4.88109375 L22.4959135,2.11546875 C20.2284295,0.74484375 17.6137821,0 14.8717949,0 C6.67139423,0 0,6.72890625 0,15 C0,17.8064063 0.769615385,20.43375 2.10482372,22.6823438 L4.84355769,19.9204687 C4.12366987,18.433125 3.71794872,16.7634375 3.71794872,15" id="Fill-7124" fill="#F2DA3E"></path>
            <path d="M9.88082051,11.25 C10.3091303,11.25 10.6948017,11.3129994 11.0378462,11.439 C11.3808906,11.5650006 11.6733663,11.7399989 11.9152821,11.964 C12.1571978,12.1880011 12.3425976,12.4549985 12.4714872,12.765 C12.6003767,13.0750016 12.6648205,13.4159981 12.6648205,13.788 C12.6648205,14.1080016 12.6202056,14.4039986 12.5309744,14.676 C12.4417431,14.9480014 12.3197956,15.2069988 12.1651282,15.453 C12.0104608,15.6990012 11.8310096,15.9369989 11.6267692,16.167 C11.4225289,16.3970012 11.2054029,16.6299988 10.9753846,16.866 L9.28,18.618 C9.49812075,18.5539997 9.7132639,18.5030002 9.9254359,18.465 C10.1376079,18.4269998 10.336888,18.408 10.5232821,18.408 L12.1413333,18.408 C12.3396249,18.408 12.4962729,18.4629994 12.6112821,18.573 C12.7262912,18.6830005 12.7837949,18.8279991 12.7837949,19.008 L12.7837949,20.088 L6.69230769,20.088 L6.69230769,19.488 C6.69230769,19.3719994 6.71610233,19.2480007 6.76369231,19.116 C6.81128229,18.9839993 6.89456351,18.8640005 7.01353846,18.756 L9.512,16.218 C9.72615492,16.0019989 9.91254622,15.796001 10.0711795,15.6 C10.2298128,15.403999 10.3606832,15.211001 10.4637949,15.021 C10.5669065,14.8309991 10.6442391,14.641001 10.6957949,14.451 C10.7473507,14.2609991 10.7731282,14.0600011 10.7731282,13.848 C10.7731282,13.4999983 10.6908384,13.2330009 10.5262564,13.047 C10.3616744,12.8609991 10.1108393,12.768 9.77374359,12.768 C9.63493948,12.768 9.50803476,12.7879998 9.39302564,12.828 C9.27801652,12.8680002 9.17490644,12.9219997 9.08369231,12.99 C8.99247818,13.0580003 8.91415417,13.1379995 8.84871795,13.23 C8.78328172,13.3220005 8.73073524,13.4219995 8.69107692,13.53 C8.62762361,13.7100009 8.54731673,13.8399996 8.45015385,13.92 C8.35299097,14.0000004 8.22112904,14.04 8.0545641,14.04 C8.01490578,14.04 7.97227373,14.038 7.92666667,14.034 C7.8810596,14.03 7.83446178,14.024 7.78687179,14.016 L6.81128205,13.842 C6.87473536,13.4059978 6.99668286,13.0260016 7.17712821,12.702 C7.35757355,12.3779984 7.58163969,12.1080011 7.84933333,11.892 C8.11702698,11.6759989 8.42338289,11.5150005 8.76841026,11.409 C9.11343762,11.3029995 9.48423733,11.25 9.88082051,11.25 Z M19.0061538,16.692 L19.8984615,16.692 L19.8984615,17.736 C19.8984615,17.8280005 19.8677268,17.9079997 19.8062564,17.976 C19.744786,18.0440003 19.6565476,18.078 19.5415385,18.078 L19.0061538,18.078 L19.0061538,20.088 L17.4,20.088 L17.4,18.078 L13.9140513,18.078 C13.7990422,18.078 13.6949406,18.0420004 13.6017436,17.97 C13.5085465,17.8979996 13.4500514,17.8080005 13.4262564,17.7 L13.2358974,16.782 L17.2453333,11.346 L19.0061538,11.346 L19.0061538,16.692 Z M17.4,14.412 C17.4,14.2719993 17.4049572,14.1210008 17.4148718,13.959 C17.4247864,13.7969992 17.439658,13.6300009 17.4594872,13.458 L15.1692308,16.692 L17.4,16.692 L17.4,14.412 Z" id="24hr" fill="#353167"></path>
            <path d="M22,20 L22,14 L23.3419913,14 L23.3419913,16.2084168 C23.5036083,16.0801597 23.6789312,15.9766203 23.8679654,15.8977956 C24.0569995,15.8189709 24.282827,15.7795591 24.5454545,15.7795591 C24.790766,15.7795591 25.0079356,15.8189709 25.1969697,15.8977956 C25.3860038,15.9766203 25.5454539,16.0861716 25.6753247,16.2264529 C25.8051955,16.3667342 25.9033186,16.5337332 25.969697,16.7274549 C26.0360754,16.9211767 26.0692641,17.1315954 26.0692641,17.3587174 L26.0692641,20 L24.7272727,20 L24.7272727,17.3587174 C24.7272727,17.1556436 24.6767682,16.9973286 24.5757576,16.8837675 C24.474747,16.7702065 24.3261193,16.7134269 24.1298701,16.7134269 C23.9826832,16.7134269 23.8441565,16.7428187 23.7142857,16.8016032 C23.5844149,16.8603877 23.4603181,16.9392113 23.3419913,17.0380762 L23.3419913,20 L22,20 Z M27.021645,20 L27.021645,15.8436874 L27.8181818,15.8436874 C27.8845602,15.8436874 27.9401152,15.8490313 27.9848485,15.8597194 C28.0295818,15.8704075 28.0670994,15.8871074 28.0974026,15.9098196 C28.1277058,15.9325318 28.1507936,15.9625917 28.1666667,16 C28.1825398,16.0374083 28.1962481,16.0828321 28.2077922,16.1362725 L28.2813853,16.5250501 C28.4458883,16.289912 28.6305906,16.1042091 28.8354978,15.9679359 C29.0404051,15.8316626 29.2640681,15.7635271 29.5064935,15.7635271 C29.7114007,15.7635271 29.8759013,15.8089508 30,15.8997996 L29.8268398,16.8136273 C29.8152958,16.8697398 29.792208,16.9091515 29.7575758,16.9318637 C29.7229435,16.9545759 29.676768,16.9659319 29.6190476,16.9659319 C29.5699853,16.9659319 29.5122658,16.9599199 29.4458874,16.9478958 C29.379509,16.9358717 29.2958158,16.9298597 29.1948052,16.9298597 C28.8427111,16.9298597 28.5656576,17.1035387 28.3636364,17.4509018 L28.3636364,20 L27.021645,20 Z" id="Combined-Shape" fill="#353167"></path>
        </g>
    </g>
</svg>