<?xml version="1.0" encoding="UTF-8"?>
<svg width="100px" height="100px" viewBox="0 0 100 100" version="1.1" xmlns="http://www.w3.org/2000/svg" xmlns:xlink="http://www.w3.org/1999/xlink">
    <!-- Generator: Sketch 47.1 (45422) - http://www.bohemiancoding.com/sketch -->
    <title>assets/img_premium_bundle</title>
    <desc>Created with Sketch.</desc>
    <defs></defs>
    <g id="Freshness" stroke="none" stroke-width="1" fill="none" fill-rule="evenodd">
        <g id="Circular-Icons" transform="translate(-50.000000, -4050.000000)">
            <g id="assets/img_premium_bundle" transform="translate(50.000000, 4050.000000)">
                <g id="Pass-3" transform="translate(0.000000, 70.000000)">
                    <rect id="Rectangle-6" fill="#736F9C" x="0" y="0" width="100" height="30" rx="6.5"></rect>
                    <rect id="Rectangle-4" fill="#FFFFFF" x="22" y="5" width="72.5" height="20" rx="3"></rect>
                    <path d="M75,5 L92,5 L92,5 C93.6568542,5 95,6.34314575 95,8 L95,22 L95,22 C95,23.6568542 93.6568542,25 92,25 L75,25 L75,5 Z" id="Rectangle-5" fill="#5CB85C"></path>
                </g>
                <g id="Pass-2" transform="translate(53.636207, 64.740381) rotate(-30.000000) translate(-53.636207, -64.740381) translate(11.136207, 49.740381)">
                    <rect id="Rectangle-6" fill="#736F9C" x="2.13162821e-13" y="0" width="85" height="30" rx="6.5"></rect>
                    <rect id="Rectangle-4" fill="#FFFFFF" x="7" y="5" width="72.5" height="20" rx="3"></rect>
                    <path d="M60,5 L77,5 L77,5 C78.6568542,5 80,6.34314575 80,8 L80,22 L80,22 C80,23.6568542 78.6568542,25 77,25 L60,25 L60,5 Z" id="Rectangle-5" fill="#A9B62E"></path>
                </g>
                <g id="Pass-1" transform="translate(37.990381, 50.971143) rotate(-60.000000) translate(-37.990381, -50.971143) translate(-7.009619, 35.971143)">
                    <rect id="Rectangle-6" fill="#736F9C" x="0" y="0" width="90" height="30" rx="6.5"></rect>
                    <rect id="Rectangle-4" fill="#FFFFFF" x="12" y="5" width="72.5" height="20" rx="3"></rect>
                    <path d="M65,5 L82,5 L82,5 C83.6568542,5 85,6.34314575 85,8 L85,22 L85,22 C85,23.6568542 83.6568542,25 82,25 L65,25 L65,5 Z" id="Rectangle-5" fill="#F3B607"></path>
                </g>
                <g id="Cover">
                    <rect id="Rectangle-7" fill="#3B2469" x="0" y="0" width="30" height="100" rx="6"></rect>
                    <path d="M15.125,88.75 C13.4,88.75 12,87.35 12,85.625 C12,83.9 13.4,82.5 15.125,82.5 C16.85,82.5 18.25,83.9 18.25,85.625 C18.25,87.35 16.85,88.75 15.125,88.75" id="Path" fill="#FFFFFF"></path>
                    <path d="M6,8.8817842e-16 L24,8.8817842e-16 L24,8.8817842e-16 C27.3137085,2.79460044e-16 30,2.6862915 30,6 L30,22.5 L0,52.5 L0,6 L0,6 C-4.05812251e-16,2.6862915 2.6862915,6.08718376e-16 6,0 Z" id="Rectangle-7" fill="#736F9C"></path>
                    <path d="M-14.2185,43.0475 L-14.2185,46.33475 L-16.5,46.33475 L-16.5,36.5 L-13.0305,36.5 C-12.3374965,36.5 -11.7423775,36.5821242 -11.245125,36.746375 C-10.7478725,36.9106258 -10.3383766,37.1367486 -10.016625,37.42475 C-9.69487339,37.7127514 -9.45750076,38.052498 -9.3045,38.444 C-9.15149923,38.835502 -9.075,39.2584977 -9.075,39.713 C-9.075,40.2035025 -9.15374921,40.653498 -9.31125,41.063 C-9.46875079,41.472502 -9.70949838,41.8234985 -10.0335,42.116 C-10.3575016,42.4085015 -10.7681225,42.6368742 -11.265375,42.801125 C-11.7626275,42.9653758 -12.3509966,43.0475 -13.0305,43.0475 L-14.2185,43.0475 Z M-14.2185,41.32625 L-13.0305,41.32625 C-12.436497,41.32625 -12.0090013,41.1845014 -11.748,40.901 C-11.4869987,40.6174986 -11.3565,40.2215025 -11.3565,39.713 C-11.3565,39.4879989 -11.3902497,39.2832509 -11.45775,39.09875 C-11.5252503,38.9142491 -11.6276243,38.7556257 -11.764875,38.622875 C-11.9021257,38.4901243 -12.075374,38.3877504 -12.284625,38.31575 C-12.493876,38.2437496 -12.7424986,38.20775 -13.0305,38.20775 L-14.2185,38.20775 L-14.2185,41.32625 Z M-5.6055,42.6965 L-5.6055,46.33475 L-7.887,46.33475 L-7.887,36.5 L-4.6875,36.5 C-3.97649644,36.5 -3.37012751,36.5731243 -2.868375,36.719375 C-2.36662249,36.8656257 -1.95712659,37.0692487 -1.639875,37.33025 C-1.32262341,37.5912513 -1.09200072,37.8994982 -0.948,38.255 C-0.80399928,38.6105018 -0.732,38.9974979 -0.732,39.416 C-0.732,39.7355016 -0.774749572,40.0369986 -0.86025,40.3205 C-0.945750427,40.6040014 -1.07287416,40.8661238 -1.241625,41.106875 C-1.41037584,41.3476262 -1.61737377,41.5624991 -1.862625,41.7515 C-2.10787623,41.9405009 -2.3902484,42.0957494 -2.70975,42.21725 C-2.55674923,42.2937504 -2.41387566,42.3882494 -2.281125,42.50075 C-2.14837434,42.6132506 -2.03250049,42.7504992 -1.9335,42.9125 L0.159,46.33475 L-1.9065,46.33475 C-2.28900191,46.33475 -2.56349917,46.1907514 -2.73,45.90275 L-4.3635,43.0475 C-4.43550036,42.9214994 -4.51987452,42.8315003 -4.616625,42.7775 C-4.71337548,42.7234997 -4.84949912,42.6965 -5.025,42.6965 L-5.6055,42.6965 Z M-5.6055,41.12375 L-4.6875,41.12375 C-4.37699845,41.12375 -4.11262609,41.0843754 -3.894375,41.005625 C-3.67612391,40.9268746 -3.4972507,40.8177507 -3.35775,40.67825 C-3.2182493,40.5387493 -3.11700031,40.3756259 -3.054,40.188875 C-2.99099968,40.0021241 -2.9595,39.8007511 -2.9595,39.58475 C-2.9595,39.1527478 -3.10012359,38.8152512 -3.381375,38.57225 C-3.66262641,38.3292488 -4.09799705,38.20775 -4.6875,38.20775 L-5.6055,38.20775 L-5.6055,41.12375 Z M7.422,36.5 L7.422,38.255 L3.3855,38.255 L3.3855,40.55 L6.477,40.55 L6.477,42.2375 L3.3855,42.2375 L3.3855,44.57975 L7.422,44.57975 L7.422,46.33475 L1.0905,46.33475 L1.0905,36.5 L7.422,36.5 Z M13.74675,41.83925 C13.8367505,42.0102509 13.9233746,42.1879991 14.006625,42.3725 C14.0898754,42.5570009 14.1697496,42.745999 14.24625,42.9395 C14.3227504,42.741499 14.4037496,42.5491259 14.48925,42.362375 C14.5747504,42.1756241 14.6624996,41.9945009 14.7525,41.819 L17.277,36.851 C17.3220002,36.7654996 17.3681248,36.6991252 17.415375,36.651875 C17.4626252,36.6046248 17.5154997,36.5697501 17.574,36.54725 C17.6325003,36.5247499 17.6988746,36.51125 17.773125,36.50675 C17.8473754,36.50225 17.9339995,36.5 18.033,36.5 L19.7745,36.5 L19.7745,46.33475 L17.763,46.33475 L17.763,40.67825 C17.763,40.4037486 17.7764999,40.1067516 17.8035,39.78725 L15.198,44.843 C15.1169996,45.0005008 15.0078757,45.1197496 14.870625,45.20075 C14.7333743,45.2817504 14.5770009,45.32225 14.4015,45.32225 L14.091,45.32225 C13.9154991,45.32225 13.7591257,45.2817504 13.621875,45.20075 C13.4846243,45.1197496 13.3755004,45.0005008 13.2945,44.843 L10.6755,39.7805 C10.6935001,39.9380008 10.707,40.0943742 10.716,40.249625 C10.725,40.4048758 10.7295,40.5477493 10.7295,40.67825 L10.7295,46.33475 L8.718,46.33475 L8.718,36.5 L10.4595,36.5 C10.5585005,36.5 10.6451246,36.50225 10.719375,36.50675 C10.7936254,36.51125 10.8599997,36.5247499 10.9185,36.54725 C10.9770003,36.5697501 11.0298748,36.6046248 11.077125,36.651875 C11.1243752,36.6991252 11.1704998,36.7654996 11.2155,36.851 L13.74675,41.83925 Z M23.892,46.33475 L21.597,46.33475 L21.597,36.5 L23.892,36.5 L23.892,46.33475 Z M29.805,44.5325 C30.1110015,44.5325 30.3843738,44.4818755 30.625125,44.380625 C30.8658762,44.2793745 31.0694992,44.1342509 31.236,43.94525 C31.4025008,43.7562491 31.5296246,43.5256264 31.617375,43.253375 C31.7051254,42.9811236 31.749,42.6717517 31.749,42.32525 L31.749,36.5 L34.0305,36.5 L34.0305,42.32525 C34.0305,42.928253 33.932626,43.4817475 33.736875,43.98575 C33.541124,44.4897525 33.2610018,44.9239982 32.8965,45.2885 C32.5319982,45.6530018 32.0887526,45.936499 31.56675,46.139 C31.0447474,46.341501 30.4575033,46.44275 29.805,46.44275 C29.1479967,46.44275 28.5585026,46.341501 28.0365,46.139 C27.5144974,45.936499 27.0712518,45.6530018 26.70675,45.2885 C26.3422482,44.9239982 26.063251,44.4897525 25.86975,43.98575 C25.676249,43.4817475 25.5795,42.928253 25.5795,42.32525 L25.5795,36.5 L27.861,36.5 L27.861,42.3185 C27.861,42.6650017 27.9048746,42.9743736 27.992625,43.246625 C28.0803754,43.5188764 28.2074992,43.750624 28.374,43.941875 C28.5405008,44.133126 28.7441238,44.2793745 28.984875,44.380625 C29.2256262,44.4818755 29.4989985,44.5325 29.805,44.5325 Z M40.54425,41.83925 C40.6342504,42.0102509 40.7208746,42.1879991 40.804125,42.3725 C40.8873754,42.5570009 40.9672496,42.745999 41.04375,42.9395 C41.1202504,42.741499 41.2012496,42.5491259 41.28675,42.362375 C41.3722504,42.1756241 41.4599995,41.9945009 41.55,41.819 L44.0745,36.851 C44.1195002,36.7654996 44.1656248,36.6991252 44.212875,36.651875 C44.2601252,36.6046248 44.3129997,36.5697501 44.3715,36.54725 C44.4300003,36.5247499 44.4963746,36.51125 44.570625,36.50675 C44.6448754,36.50225 44.7314995,36.5 44.8305,36.5 L46.572,36.5 L46.572,46.33475 L44.5605,46.33475 L44.5605,40.67825 C44.5605,40.4037486 44.5739999,40.1067516 44.601,39.78725 L41.9955,44.843 C41.9144996,45.0005008 41.8053757,45.1197496 41.668125,45.20075 C41.5308743,45.2817504 41.3745009,45.32225 41.199,45.32225 L40.8885,45.32225 C40.7129991,45.32225 40.5566257,45.2817504 40.419375,45.20075 C40.2821243,45.1197496 40.1730004,45.0005008 40.092,44.843 L37.473,39.7805 C37.4910001,39.9380008 37.5045,40.0943742 37.5135,40.249625 C37.5225,40.4048758 37.527,40.5477493 37.527,40.67825 L37.527,46.33475 L35.5155,46.33475 L35.5155,36.5 L37.257,36.5 C37.3560005,36.5 37.4426246,36.50225 37.516875,36.50675 C37.5911254,36.51125 37.6574997,36.5247499 37.716,36.54725 C37.7745003,36.5697501 37.8273748,36.6046248 37.874625,36.651875 C37.9218752,36.6991252 37.9679998,36.7654996 38.013,36.851 L40.54425,41.83925 Z" id="PREMIUM" fill="#FFFFFF" transform="translate(15.036000, 41.471375) rotate(-90.000000) translate(-15.036000, -41.471375) "></path>
                </g>
            </g>
        </g>
    </g>
</svg>