<svg width="163" height="62" xmlns="http://www.w3.org/2000/svg" xmlns:xlink="http://www.w3.org/1999/xlink">
    <defs>
        <path id="a" d="M.132.779h146.594V31.49H.132z"/>
    </defs>
    <g fill="none" fill-rule="evenodd">
        <path d="M141.36 6.408a2.304 2.304 0 0 1-2.302-2.302 2.304 2.304 0 0 1 2.302-2.3 2.304 2.304 0 0 1 2.301 2.301 2.304 2.304 0 0 1-2.302 2.301m.001-4.204a1.903 1.903 0 0 0 0 3.805 1.905 1.905 0 0 0 1.902-1.903 1.905 1.905 0 0 0-1.902-1.903" fill="#000"/>
        <path d="M140.532 2.913c.187-.031.452-.048.704-.048.392 0 .646.058.82.19a.535.535 0 0 1 .226.445c0 .309-.236.515-.536.598v.01c.22.062.349.23.417.473.094.327.16.552.22.643h-.38c-.046-.066-.11-.268-.19-.56-.083-.323-.235-.445-.568-.455h-.346v1.015h-.367V2.913zm.367 1.067h.375c.393 0 .64-.177.64-.445 0-.302-.265-.435-.653-.438-.176 0-.303.014-.362.028v.855z" fill="#000"/>
        <path d="M16.004 52.868C5.574 45.292-1.066 35.523.449 29.01c1.077-4.639 6.047-6.6 12.872-5.873-6.397-.445-10.993 1.461-11.98 5.692-1.246 5.374 3.674 13.034 11.853 19.587C9.162 45.94 4.81 41.5 3.64 39.305c1.16 2.643 7.365 9.587 12.365 13.563m-2.26-9.214C7.124 38.704 3.044 32.252 4.144 27.7c.66-2.733 3.075-4.285 6.473-4.606-3.256.635-5.502 2.312-6.011 4.927-.917 4.701 4.075 10.891 11.607 14.944-3.618-1.479-7.172-4.005-8.4-5.665.829 1.35 3.14 3.863 5.933 6.354" fill="#E6A60F"/>
        <path d="m16.005 52.867.137-.188C11.44 49.263 7.514 45.403 4.77 41.61 2.023 37.813.464 34.083.466 30.955c0-.66.069-1.293.208-1.895.455-1.944 1.597-3.385 3.305-4.365 1.708-.976 3.987-1.476 6.676-1.476.84 0 1.724.051 2.642.147l.024-.23.016-.233a25.481 25.481 0 0 0-1.786-.066c-2.76 0-5.128.487-6.932 1.471-1.805.983-3.046 2.484-3.504 4.467a7.956 7.956 0 0 0-.198 1.794c0 2.676 1.203 5.703 3.314 8.805 2.11 3.1 5.135 6.272 8.817 9.221l.145-.183.123-.197c-1.996-1.227-4.083-2.946-5.811-4.629-1.727-1.68-3.1-3.336-3.657-4.392l-.422.205c.306.693.919 1.626 1.748 2.72 2.485 3.274 6.915 7.93 10.685 10.93l.146-.183.137-.189-.137.19.145-.184c-2.486-1.977-5.282-4.699-7.594-7.254-1.156-1.279-2.194-2.513-3.011-3.592-.817-1.075-1.415-1.999-1.691-2.627l-.213.093-.208.11c.61 1.14 1.998 2.802 3.747 4.507 1.749 1.703 3.854 3.441 5.89 4.693l.269-.383c-3.651-2.924-6.646-6.068-8.724-9.118-2.08-3.05-3.234-6.009-3.232-8.543 0-.586.06-1.15.187-1.69.43-1.848 1.562-3.224 3.27-4.16 1.71-.936 4.005-1.417 6.71-1.417.568 0 1.152.022 1.755.064l.039-.464c-.93-.099-1.83-.148-2.69-.148-2.746 0-5.102.506-6.907 1.537C1.943 25.32.7 26.886.222 28.954A8.708 8.708 0 0 0 0 30.956c0 3.283 1.61 7.08 4.39 10.927 2.782 3.844 6.74 7.734 11.477 11.172l.282-.369-.145.182zm-2.122-9.399c-2.93-2.192-5.36-4.678-7.048-7.153-1.69-2.474-2.64-4.934-2.637-7.06 0-.52.056-1.023.172-1.499.318-1.314 1.049-2.33 2.116-3.073 1.068-.74 2.483-1.2 4.153-1.358l-.022-.232-.045-.229c-1.655.323-3.066.913-4.135 1.77-1.07.854-1.794 1.981-2.06 3.341a6.193 6.193 0 0 0-.111 1.19c0 2.347 1.229 4.904 3.312 7.348 2.086 2.446 5.035 4.78 8.527 6.655l.109-.204.089-.216a27.968 27.968 0 0 1-5.054-2.739C9.769 38.995 8.586 37.954 8 37.161l-.388.261c.433.7 1.224 1.67 2.259 2.786a58.024 58.024 0 0 0 3.718 3.621l.31-.348a56.837 56.837 0 0 1-3.687-3.592c-1.024-1.1-1.802-2.063-2.202-2.712l-.197.122-.19.14c.646.867 1.853 1.92 3.362 2.954a28.286 28.286 0 0 0 5.14 2.787l.2-.42c-3.445-1.854-6.353-4.157-8.391-6.548-2.043-2.393-3.205-4.868-3.204-7.046 0-.377.034-.743.105-1.1.245-1.252.898-2.27 1.892-3.069.994-.795 2.335-1.363 3.935-1.677l-.067-.459c-1.728.163-3.22.64-4.375 1.44a5.568 5.568 0 0 0-2.304 3.345 6.814 6.814 0 0 0-.184 1.61c.002 2.262.994 4.796 2.718 7.321 1.726 2.525 4.187 5.046 7.155 7.264l.278-.373h-.001zM35.067 25.925h-5.742l-6.296-11.073c-.808-1.42-1.622-3.146-2.441-5.177.37 1.615.556 2.986.556 4.112v12.138H15.42V.86h6.667l5.353 9.182c1.067 1.824 1.875 3.427 2.425 4.81a39.69 39.69 0 0 1-.54-6.573V.859h5.743v25.066h-.001z" fill="#E6A60F"/>
        <path d="M35.067 25.925h-5.742l-6.296-11.073c-.808-1.42-1.622-3.146-2.441-5.177.37 1.615.556 2.986.556 4.112v12.138H15.42V.86h6.667l5.353 9.182c1.067 1.824 1.875 3.427 2.425 4.81a39.69 39.69 0 0 1-.54-6.573V.859h5.743v25.066h-.001z" stroke="#003764" stroke-width=".869"/>
        <path fill="#E6A60F" d="M64.042.86v25.065h-6.55V8.003l-4.259 17.922h-4.479l-4.41-17.922v17.922h-5.287V.86h9.21L51.6 14.173 54.782.86z"/>
        <path stroke="#003764" stroke-width=".869" d="M64.042.86v25.065h-6.55V8.003l-4.259 17.922h-4.479l-4.41-17.922v17.922h-5.287V.86h9.21L51.6 14.173 54.782.86z"/>
        <path d="m87.968.86-7.14 25.065H73.64L66.198.86h7.442l3.62 13.662c.246.808.465 1.604.655 2.387L82.16.859h5.81-.001z" fill="#E6A60F"/>
        <path d="m87.968.86-7.14 25.065H73.64L66.198.86h7.442l3.62 13.662c.246.808.465 1.604.655 2.387L82.16.859h5.81-.001z" stroke="#003764" stroke-width=".869"/>
        <path fill="#E6A60F" d="M100.594 6.864v19.061H93.91V6.865h-4.764V.86h16.215v6.004z"/>
        <path stroke="#003764" stroke-width=".869" d="M100.594 6.864v19.061H93.91V6.865h-4.764V.86h16.215v6.004z"/>
        <path fill="#E6A60F" d="M107.414 25.925h7.055V.86h-7.055z"/>
        <path stroke="#003764" stroke-width=".869" d="M107.414 25.925h7.055V.86h-7.055z"/>
        <path d="m116.085 18.671 6.55-1.286c.549 2.02 1.964 3.031 4.242 3.031 1.773 0 2.66-.514 2.66-1.543 0-.538-.208-.955-.622-1.249-.405-.305-1.135-.575-2.19-.807-4.03-.845-6.616-1.946-7.761-3.306-1.145-1.359-1.717-2.956-1.717-4.793 0-2.362.817-4.326 2.458-5.894 1.65-1.567 4.019-2.35 7.105-2.35 4.68 0 7.772 2.05 9.277 6.152l-5.843 1.928c-.605-1.678-1.835-2.516-3.687-2.516-1.537 0-2.306.52-2.306 1.56 0 .466.174.827.522 1.084.347.256 1.02.501 2.02.735 2.75.636 4.703 1.2 5.858 1.69 1.158.49 2.123 1.328 2.897 2.515.775 1.174 1.162 2.565 1.162 4.168 0 2.534-.943 4.591-2.83 6.17-1.884 1.566-4.36 2.35-7.424 2.35-5.6 0-9.06-2.546-10.371-7.639" fill="#E6A60F"/>
        <path d="m116.085 18.671 6.55-1.286c.549 2.02 1.964 3.031 4.242 3.031 1.773 0 2.66-.514 2.66-1.543 0-.538-.208-.955-.622-1.249-.405-.305-1.135-.575-2.19-.807-4.03-.845-6.616-1.946-7.761-3.306-1.145-1.359-1.717-2.956-1.717-4.793 0-2.362.817-4.326 2.458-5.894 1.65-1.567 4.019-2.35 7.105-2.35 4.68 0 7.772 2.05 9.277 6.152l-5.843 1.928c-.605-1.678-1.835-2.516-3.687-2.516-1.537 0-2.306.52-2.306 1.56 0 .466.174.827.522 1.084.347.256 1.02.501 2.02.735 2.75.636 4.703 1.2 5.858 1.69 1.158.49 2.123 1.328 2.897 2.515.775 1.174 1.162 2.565 1.162 4.168 0 2.534-.943 4.591-2.83 6.17-1.884 1.566-4.36 2.35-7.424 2.35-5.6 0-9.06-2.546-10.371-7.639z" stroke="#003764" stroke-width=".869"/>
        <g transform="translate(16 29.114)">
            <mask id="b" fill="#fff">
                <use xlink:href="#a"/>
            </mask>
            <path d="M2.274 22.605c.073.412.283 1.652.6 1.885.302.217.692.3.692.482s.038.828-.51.883c-.546.055-.947.022-1.173-.173-.168-.142-.312-.527-.408-.995.132.384.315.663.5.725.32.107.53-.47.469-1.287-.061-.82-.37-1.568-.69-1.676-.127-.043-.237.024-.32.17.062-.264.16-.472.304-.578.339-.252.494.32.536.564zm23.232 6.7c-.247.04-1.095.139-1.273-.171a49.301 49.301 0 0 0 2.495-.638c-.333.38-.683.723-1.222.809zm-11.515-2.44c.062.367.2 1.133.302 1.543.137.55.428 1.15.705 1.426.276.275.428.353.23.813-.2.46-.475.857-1.32.843-.843-.015-1.732-.337-2.208-1.257a5.415 5.415 0 0 1-.512-1.44c.356 1.017 1.03 1.798 1.68 1.868.805.084 1.27-.951 1.039-2.315-.232-1.361-1.072-2.534-1.878-2.62a.768.768 0 0 0-.566.156c.2-.454.522-.802 1.05-.802.154 0 .536.009.598.245.13.487.464.89.698 1.162.134.156.146.177.182.379zm13.99.052c-1.021.366-2.01.672-2.992.888a32.18 32.18 0 0 1-2.902.492 48.353 48.353 0 0 1-3.106.29 58.16 58.16 0 0 1-3.212.09c-.046 0-.068.024-.052.052l.068.106c.018.03.07.053.112.053 1.059-.014 2.1-.041 3.12-.113a49.558 49.558 0 0 0 3.049-.313c.965-.132 1.92-.295 2.867-.508a25.863 25.863 0 0 0 2.969-.885c.04-.015.083-.044.094-.067.01-.024.027-.05.039-.075.01-.021-.012-.026-.053-.01zm.12-.277c-1.032.376-2.032.688-3.028.897-.964.205-1.946.353-2.941.464a48.991 48.991 0 0 1-3.2.242 67.599 67.599 0 0 1-3.363.045c-.048 0-.076.024-.061.053.016.037.034.076.052.11.017.03.069.054.114.054 1.12 0 2.215-.011 3.284-.07a49.737 49.737 0 0 0 3.149-.27 31.75 31.75 0 0 0 2.92-.478c.993-.213 1.986-.522 3.01-.892.044-.015.084-.045.092-.07a.756.756 0 0 0 .033-.075c.009-.021-.02-.024-.06-.01zm.095-.281c-1.042.386-2.052.704-3.054.908-.974.198-1.964.334-2.971.43a47.78 47.78 0 0 1-3.265.193 76.576 76.576 0 0 1-3.486-.005c-.047-.001-.081.025-.072.055l.04.114c.01.03.06.056.11.056 1.174.015 2.315.017 3.42-.024a48.778 48.778 0 0 0 3.23-.22c1-.103 1.99-.246 2.96-.448.999-.208 2.002-.521 3.038-.902.043-.015.082-.048.088-.07.009-.026.018-.05.025-.077.007-.022-.021-.025-.063-.01zm.068-.286c-1.053.395-2.07.72-3.073.919-.977.192-1.975.317-2.988.398a46.859 46.859 0 0 1-3.307.138 84.19 84.19 0 0 1-3.574-.057c-.051-.001-.09.023-.082.056.009.04.014.078.025.116.008.03.057.059.108.06 1.213.03 2.388.049 3.526.025a47.13 47.13 0 0 0 3.285-.165 27.719 27.719 0 0 0 2.984-.418c1.003-.201 2.015-.522 3.062-.914.044-.015.079-.047.084-.07.005-.025.012-.053.016-.08.003-.021-.023-.025-.066-.008zm-.09-2.754c-.035 0-.066.057-.067.125 0 .068.027.124.064.124.037 0 .067-.056.068-.124 0-.07-.028-.125-.064-.125zm-.06-.07a.91.91 0 0 0-.125.488c.015.314.195.493.399.43.08-.025.072-.123.05-.222a5.284 5.284 0 0 0-.178-.634c-.037-.094-.068-.187-.146-.063zm.346.98a.396.396 0 0 1-.323.017c-.095.05-.186.104-.271.15l-.243.134-.384.207c-.113.06-.22.114-.315.162.019.032.055.035.096.023a3.23 3.23 0 0 0 .588-.198c.067-.028.137-.06.21-.098a4.097 4.097 0 0 0 .453-.257c.076-.05.113-.082.189-.14zm-.45-.054a.384.384 0 0 1-.121-.161c-.136.109-.254.2-.357.28l-.256.199c-.147.11-.264.197-.358.264a.364.364 0 0 0-.007.098 13.874 13.874 0 0 0 .642-.39l.208-.131c.075-.047.159-.1.249-.16zm-.144-.246a.745.745 0 0 1-.005-.19 21.047 21.047 0 0 1-.546.533c-.143.135-.26.239-.354.325a1.884 1.884 0 0 0-.032.11 27.314 27.314 0 0 0 .604-.492l.333-.286zm.01-.291c.012-.05.025-.098.04-.147l.042-.115a5.854 5.854 0 0 1-.181.216 12.528 12.528 0 0 1-.423.48c-.114.125-.212.227-.296.315l-.022.04a1.014 1.014 0 0 0-.053.11 22.9 22.9 0 0 0 .345-.332l.238-.24c.09-.092.193-.203.31-.326v-.001zm.12-.382.074-.17c-.087.127-.19.249-.29.37l-.158.188c-.093.108-.183.217-.267.32a3.78 3.78 0 0 0-.228.314l.239-.268c.103-.117.209-.24.318-.366l.172-.214c.056-.072.084-.097.14-.174zm-1.001 1.776c.37-.021.952-.224 1.41-.585.11-.086.163-.182.13-.363-.061-.337-.151-.784-.33-1.084-.073-.126-.168-.046-.254.062-.373.469-.721.918-1.055 1.414-.277.41-.058.567.099.556zm1.755.447c-.316-.026-1.814.907-5.074 1.277-3.261.37-6.837.315-8.068.113-1.23-.2-1.555-.56-1.268.47.287 1.032.182 2.478 2.04 2.506 1.86.027 4.94-.27 6.895-.715 1.955-.447 4.02-.94 4.57-1.26.493-.284 1.398-2.347.905-2.391zm-12.888-1.292c-.067-.011-.108.01-.121.053-.012.039 0 .093.037.15a.546.546 0 0 0 .133.143.458.458 0 0 0 .152.075c.049.012.09.006.113-.015.026-.021.035-.06.018-.113a.419.419 0 0 0-.124-.18.474.474 0 0 0-.208-.113zm.15-.16c-.217-.038-.35.032-.39.166-.038.122.004.297.122.485.107.174.262.333.425.454.157.117.329.205.487.244.16.038.286.017.365-.047.082-.07.112-.195.059-.367-.058-.19-.205-.395-.398-.571-.204-.186-.452-.328-.67-.364zm.562.099a1.181 1.181 0 0 0-.438-.202c.737.192 2.062.469 2.843.923l-2.405-.721zm.558.49a1.743 1.743 0 0 0-.17-.175l-.15-.133 1.506.426.863.243.066.05a.84.84 0 0 1 .142.145c-.281-.066-.602-.146-.978-.238-.36-.088-.78-.192-1.28-.317zm.22.37a1.072 1.072 0 0 0-.125-.24l1.228.282.986.223c.03.052.053.103.068.152l-.966-.188-1.19-.23zm.002.314a.36.36 0 0 0 .026-.208l1.203.212c.362.065.672.118.943.165a.222.222 0 0 1-.012.133l-.848-.117-1.312-.185zm-.356.15c.12.02.217-.002.283-.056l1.425.174.757.094c-.061.042-.154.05-.258.049-.727-.022-1.502-.09-2.207-.26zm2.256.499c-.21.009-2.444-.107-2.928-.371-.5-.275-1.076-.84-1.235-1.42-.072-.257-.061-.49.437-.474.98.03 1.586.177 2.524.497a4.9 4.9 0 0 1 1.26.627c.44.305.778 1.11-.058 1.14zm8.112-3.571c-.272-.537-2.662-2.877-3.461-2.775-2.954.379-6.651.344-9.698.344-.401 0-.973.087-1.06.429-.085.343-.695 1.185-.981 1.185-.162 0-.094.199.165.356.569.347 1.433 1.132 1.936 1.344.09.037.677-.573 1.796-.43 1.117.14 2.524.554 3.093.892.493.296 1.712 1.242 1.602 1.945-.044.284.452.326 1.025.298.759-.036 3.35-.312 4.128-.586.273-.095.189-.055.25-.36.04-.196.104-.453.204-.697.2-.486.544-.858.859-1.2.314-.344.429-.401.142-.745zM11.99 20.053s-1.975-4.342-2.545-4.933c-.568-.593-2.7-.45-5.09-.31-2.358.137-2.656.469-3.074 1.722.06-.74.45-1.497.979-1.662.85-.266 2.707-.712 4.734-.791 2.76-.108 2.947-.201 4.717 2.779 1.769 2.979 1.055 2.575 2.079 2.575 1.024 0 4.22-.062 5.927-.093 1.705-.032 2.42-.062 3.196-.125.776-.06 1.21.063.372-.745-.838-.807-2.936-2.948-3.817-3.506a2.008 2.008 0 0 0-.221-.121c-2.062-.344-5.767-.26-8.687-.281 2.407-.09 4.876-.146 7.627-.063l-.13-.033c-.937-.22-3.09-.343-7.44-.553 2.386-.027 6.418.175 7.734.4 1.822.31 3.138 1.99 4.13 2.945a45.991 45.991 0 0 1 1.707 1.699c.473.495 1.83 1.339 2.699 2.27.868.932 1.222 1.449 1.062 1.643-.16.193-1.478 1.554-1.364 2.113.105.514 1.616-.131 1.885-.47.099-.124.176-.137.232.086.055.224.147.455-1.437.886-1.584.432-4.378 1.046-7.284 1.046-2.91 0-4.966-.23-5.424-.36-.458-.13-.71-.117-.832-.337-.122-.221-.926-1.752-1.87-1.56-.943.193-1.054.806-1.088 1.529-.033.724.036 1.557.216 1.956.18.4.31.719-.097.507-.408-.212-7.317-3.653-7.61-3.8-.082-.041-.225-.014-.483-.554-.261-.541-.708-3.541-1.484-2.398.01-.505.638-.943.894-.241.254.702.512 2.367.953 2.662.442.293 7.105 3.348 7.105 3.348s.393.213.294-.556c-.097-.768-.19-2.765.989-3.21 1.177-.446 2.04.282 2.294 1.25.254.969.752 1.242 1.438.98.686-.261.727.017 1.547.153.822.133 2.148.32 2.606.223.456-.1 1.238-.284.26-1.312-.86-.903-2.154-1.173-3.552-1.432-.857-.16-1.433-.057-1.4.335.033.39-.164.098-.817-.261-.653-.36-3.807-2.346-5.275-2.835-1.471-.491-4.083-1.437-4.083-1.437s3.168.946 4.474 1.306c1.307.359 2.62.732 2.914.2.193-.352.063-.564.04-.635zm99.609-9.745c-1.012 0-1.788.2-2.328.605-.538.403-.806.908-.806 1.517 0 .473.188.884.562 1.234.376.349 1.225.633 2.545.85.345.06.584.129.716.207.137.076.204.184.204.322 0 .265-.29.398-.871.398-.746 0-1.211-.261-1.391-.78l-2.145.33c.43 1.312 1.563 1.966 3.398 1.966 1.004 0 1.815-.201 2.432-.604.619-.407.927-.935.927-1.588 0-.413-.126-.77-.38-1.073a2.042 2.042 0 0 0-.95-.648c-.377-.126-1.018-.27-1.918-.434-.328-.06-.548-.123-.662-.19-.116-.067-.172-.16-.172-.28 0-.265.252-.4.756-.4.607 0 1.009.216 1.209.647l1.913-.495c-.492-1.057-1.505-1.584-3.04-1.584zm18.145.15-2.091.03-.032 1.563h-.84v1.225h.84v1.517l-.006.564c0 .544.158.94.475 1.189.32.249.818.374 1.495.374.419 0 .846-.037 1.28-.11V15.47a2.948 2.948 0 0 1-.63.078.817.817 0 0 1-.33-.065c-.108-.047-.161-.19-.161-.434v-1.772h1.12V12.05h-1.12v-1.592zm-6.035 1.495c-.776 0-1.403.152-1.882.458-.477.303-.717.699-.717 1.19 0 .355.142.676.424.965.283.287.996.498 2.136.634.412.047.674.094.784.14.11.045.165.109.165.19 0 .188-.285.283-.854.283-.69 0-1.082-.173-1.182-.52l-1.737.205c.36.973 1.3 1.459 2.818 1.459.902 0 1.608-.154 2.119-.462.515-.31.773-.727.773-1.251a1.23 1.23 0 0 0-.348-.881 1.813 1.813 0 0 0-.84-.501c-.327-.092-.95-.181-1.87-.27-.352-.035-.53-.131-.53-.288 0-.053.058-.107.172-.16.118-.057.296-.085.53-.085.497 0 .822.142.977.426l1.667-.271c-.376-.84-1.245-1.261-2.605-1.261zm10.653 0c-.926 0-1.668.247-2.222.742-.557.495-.834 1.1-.834 1.82 0 .693.282 1.274.843 1.743.565.467 1.318.699 2.263.699.85 0 1.523-.165 2.019-.496.499-.334.812-.737.932-1.21l-2.052-.118c-.085.395-.365.59-.843.59-.332 0-.557-.071-.675-.217-.117-.148-.18-.373-.187-.675h3.757c.005-.117.006-.207.006-.275 0-.804-.278-1.437-.833-1.904-.553-.466-1.276-.7-2.174-.7zm7.377 0c-.674 0-1.186.249-1.54.747v-.648h-1.975v4.807h2.119v-3.006c0-.385.179-.577.535-.577.346 0 .519.192.519.577v3.006h2.113v-2.78c0-.513.205-.77.617-.77.173 0 .293.04.359.122.07.078.105.219.105.422v3.005h2.135v-3.271c0-.424-.063-.74-.188-.94-.121-.205-.32-.372-.596-.501a2.173 2.173 0 0 0-.95-.193c-.753 0-1.31.249-1.676.747-.326-.498-.852-.747-1.577-.747zm-26.71.099 2.014 4.456a.869.869 0 0 1 .095.326c0 .24-.316.36-.95.36-.242 0-.506-.02-.794-.058v1.338c.578.029.945.043 1.103.043.658 0 1.147-.112 1.463-.336.315-.221.56-.527.729-.921l2.2-5.208h-1.605l-.97 2.562-.927-2.563h-2.357zm19.355 1.01c.22 0 .405.059.553.172.15.109.226.327.23.65h-1.565c0-.547.26-.821.78-.821h.002zm-29.587 3.796h-2.202v-3.024c0-.25-.045-.41-.138-.478a.53.53 0 0 0-.337-.104c-.4 0-.6.24-.6.719v2.888h-2.202v-4.807h2.04v.68c.303-.521.84-.78 1.618-.78.408 0 .752.069 1.03.204.284.133.487.305.608.519.122.212.183.58.183 1.107v3.077-.001zm-15.542-5.16h2.2v-1.493h-2.2v1.493zm6.145.255c-.916 0-1.66.239-2.233.718-.57.478-.856 1.078-.856 1.797 0 .668.274 1.25.822 1.748.548.493 1.288.742 2.217.742.942 0 1.697-.24 2.263-.72.57-.481.855-1.081.855-1.8 0-.712-.28-1.304-.843-1.777-.56-.472-1.302-.708-2.225-.708zm-6.145 4.905h2.2v-4.806h-2.2v4.806zm6.135-3.725c.276 0 .466.1.573.299.107.198.16.522.16.973 0 .33-.038.649-.115.956-.074.303-.281.453-.624.453-.243 0-.424-.088-.546-.266-.121-.178-.182-.545-.182-1.095 0-.47.059-.808.176-1.012.117-.205.305-.308.558-.308zm-7.983-2.674-2.092.029-.032 1.564h-.84v1.224h.84v1.517l-.007.563c0 .545.16.94.476 1.19.319.249.818.374 1.496.374.418 0 .845-.037 1.278-.11V15.47a2.94 2.94 0 0 1-.628.079.822.822 0 0 1-.331-.066c-.107-.047-.16-.19-.16-.434v-1.772h1.119v-1.224h-1.12v-1.593zM72.29 11.953c-.673 0-1.186.25-1.54.747v-.648h-1.976v4.806h2.12v-3.005c0-.384.178-.577.535-.577.345 0 .518.193.518.577v3.006h2.114v-2.78c0-.512.206-.77.617-.77.174 0 .293.04.359.122.07.078.105.219.105.422v3.005h2.135v-3.271c0-.424-.062-.738-.188-.94-.121-.205-.32-.372-.595-.501-.271-.131-.59-.192-.95-.192-.755 0-1.313.249-1.676.746-.328-.497-.853-.747-1.578-.747zm8.932 0c-1.665 0-2.643.502-2.93 1.508l2.008.16c.059-.35.343-.524.849-.524.218 0 .383.034.494.105.113.069.169.208.169.419v.108c-1.372.063-2.33.252-2.87.567-.536.314-.804.722-.804 1.23 0 .375.164.708.49.997.33.29.829.435 1.49.435.806 0 1.407-.257 1.804-.771 0 .243.026.467.078.67h2.097c-.116-.257-.172-.567-.172-.935v-1.918c0-.52-.04-.871-.115-1.053-.075-.182-.222-.356-.442-.521-.221-.164-.521-.282-.9-.358a6.047 6.047 0 0 0-1.246-.117v-.002zm-13.457.008c-.764 0-1.251.36-1.462 1.083v-.992h-1.831v4.806h2.107v-2.201c0-.698.364-1.045 1.093-1.045.12 0 .26.015.415.047v-1.676a3.343 3.343 0 0 0-.322-.021v-.001zm14.047 2.648v.23c0 .412-.082.675-.247.795-.166.12-.368.18-.603.18-.371 0-.557-.145-.557-.435 0-.43.469-.686 1.407-.77zM55.738 10.08c-.458 0-.824.046-1.096.14-.272.093-.49.227-.651.404a1.15 1.15 0 0 0-.304.547c-.04.189-.06.48-.06.879h-.84v1.224h.84v3.583H55.7v-3.583h1.418V12.05h-1.433v-.17c0-.233.07-.38.215-.44.143-.06.3-.09.474-.09.172 0 .433.02.782.062v-1.234a9.826 9.826 0 0 0-1.418-.098h-.001zm-5.394 1.872c-.776 0-1.315.26-1.616.78v-.681h-2.041v4.806h2.2V13.97c0-.477.2-.72.6-.72a.53.53 0 0 1 .338.106c.093.069.137.228.137.478v3.023h2.203V13.78c0-.527-.061-.895-.183-1.106-.12-.214-.324-.386-.606-.52-.28-.135-.624-.203-1.032-.203zm10.212 0c-.916 0-1.661.239-2.235.718-.57.478-.854 1.078-.854 1.797 0 .668.274 1.25.82 1.748.549.493 1.288.742 2.219.742.942 0 1.697-.24 2.263-.72.569-.481.855-1.081.855-1.8 0-.712-.282-1.304-.845-1.777-.56-.472-1.3-.708-2.223-.708zm-.011 1.18c.277 0 .467.1.574.299.107.198.16.522.16.973 0 .33-.038.649-.116.956-.074.303-.281.453-.623.453-.244 0-.424-.088-.546-.266-.121-.178-.182-.545-.182-1.095 0-.47.058-.808.176-1.012.118-.205.304-.308.557-.308zm-17.401 3.725h2.312v-6.45h-2.312v6.45zm101.372-11.15 2.05.119c-.121.472-.43.878-.931 1.21-.495.33-1.17.496-2.02.496-.945 0-1.698-.233-2.261-.7-.563-.468-.844-1.05-.844-1.743 0-.718.277-1.324.832-1.82.556-.494 1.297-.741 2.224-.741.897 0 1.622.232 2.173.699.556.467.834 1.102.834 1.904 0 .067-.002.159-.006.275h-3.756c.006.302.069.528.187.676.118.144.34.216.673.216.477 0 .76-.196.845-.59zm-.145-1.247c-.003-.324-.081-.542-.23-.652a.886.886 0 0 0-.553-.17c-.522 0-.784.275-.784.822h1.567zm-6.896 2.973h2.168V.983h-2.168v6.45zm-9.693-4.905v4.905h-2.19V2.529h-1.562V.983h5.313v1.546h-1.561zM111.83 7.435H114V.983h-2.17v6.453-.001zm-3.342-4.906c-.85 0-1.542.239-2.076.719-.53.474-.794 1.08-.794 1.817 0 .723.268 1.316.8 1.778.539.46 1.234.69 2.092.69.764 0 1.378-.175 1.837-.53.463-.351.74-.81.828-1.37l-1.876-.136c-.073.475-.308.713-.7.713-.27 0-.458-.093-.57-.283-.106-.19-.16-.48-.16-.874 0-.458.054-.778.16-.96.112-.185.284-.28.52-.28.367 0 .592.254.672.763l1.926-.138c-.07-.551-.342-1.008-.817-1.366-.474-.363-1.088-.543-1.843-.543zm9.434 0c-.927 0-1.668.246-2.224.742-.555.495-.833 1.1-.833 1.819 0 .693.282 1.275.844 1.744.563.466 1.317.7 2.262.7.849 0 1.523-.165 2.02-.496.5-.334.81-.74.932-1.211l-2.052-.118c-.085.394-.366.59-.845.59-.331 0-.555-.072-.673-.216-.118-.148-.18-.374-.187-.676h3.757c.005-.116.005-.208.005-.274 0-.803-.278-1.44-.832-1.905-.553-.468-1.277-.7-2.174-.7zm.022 1.11a.88.88 0 0 1 .552.17c.15.109.227.328.23.652h-1.565c0-.546.26-.822.783-.822zm-16.556 3.795h-2.197V4.543c0-.266-.035-.447-.104-.544-.066-.1-.198-.153-.392-.153a.677.677 0 0 0-.397.119c-.11.077-.175.155-.193.237a2.89 2.89 0 0 0-.028.515v2.717h-2.201V.983h2.2v2.212c.398-.444.917-.666 1.557-.666.324 0 .606.049.849.145.247.096.436.218.568.369.134.152.222.298.265.44.049.142.073.417.073.823v3.128zm-8.437-1.725 2.053.118c-.121.472-.433.878-.933 1.21-.496.33-1.17.496-2.018.496-.946 0-1.7-.233-2.263-.7-.562-.468-.843-1.05-.843-1.743 0-.718.277-1.324.832-1.82.555-.494 1.297-.741 2.224-.741.897 0 1.622.232 2.174.699.555.467.834 1.102.834 1.904 0 .067-.003.159-.007.275h-3.758c.009.302.07.528.189.676.117.144.34.216.672.216.479 0 .76-.196.844-.59zM92.81 4.46c-.005-.324-.081-.542-.232-.652a.882.882 0 0 0-.553-.17c-.52 0-.783.275-.783.822h1.568zM88.986.983l-2.34 6.45h-2.355L81.853.984h2.438L85.478 4.5c.08.208.152.412.214.614l1.39-4.131h1.904zm-11.613 6.45h-2.107V2.628h1.83v.994c.21-.721.698-1.082 1.463-1.082.078 0 .183.005.32.017v1.679a2.05 2.05 0 0 0-.414-.047c-.73 0-1.092.348-1.092 1.044v2.202zM66.708 1.036l-2.091.028-.034 1.563h-.838v1.226h.838v1.517l-.005.562c0 .546.158.942.474 1.19.32.25.818.374 1.495.374a7.7 7.7 0 0 0 1.28-.108V6.044a2.903 2.903 0 0 1-.628.082.861.861 0 0 1-.33-.067c-.107-.047-.161-.193-.161-.434V3.85h1.12V2.626h-1.12V1.035zm-6.261 1.494c-.916 0-1.661.239-2.235.719-.57.478-.856 1.077-.856 1.795 0 .668.274 1.25.823 1.749.548.494 1.288.742 2.218.742.942 0 1.695-.24 2.26-.72.57-.48.856-1.082.856-1.8 0-.712-.281-1.304-.843-1.776-.56-.473-1.3-.71-2.224-.71zm10.902 0c-.917 0-1.662.239-2.236.719-.57.478-.854 1.077-.854 1.795 0 .668.273 1.25.82 1.749.549.494 1.289.742 2.219.742.94 0 1.696-.24 2.263-.72.57-.48.854-1.082.854-1.8 0-.712-.281-1.304-.844-1.776-.56-.473-1.3-.71-2.223-.71zM60.435 3.71c.276 0 .467.099.574.297.106.199.16.523.16.973 0 .332-.04.65-.116.955-.074.303-.28.454-.623.454-.243 0-.426-.088-.547-.264-.121-.18-.183-.546-.183-1.097 0-.47.06-.807.178-1.011.118-.205.303-.308.557-.308zm10.9 0c.277 0 .47.099.575.297.108.199.16.523.16.973 0 .332-.038.65-.115.955-.074.303-.281.454-.624.454-.243 0-.426-.088-.546-.264-.122-.18-.181-.546-.181-1.097 0-.47.058-.807.175-1.011a.599.599 0 0 1 .556-.308zM56.408.983v6.45h-2.145V2.823l-1.396 4.612h-1.467l-1.446-4.612v4.612H48.22V.983h3.018L52.33 4.41 53.373.983h3.034zm-14.422 6.45h2.168V.984h-2.168v6.45zm87.944-5.16h2.2V.779h-2.2v1.494zm5.698-1.237-2.091.027-.033 1.563h-.84v1.226h.84V5.37l-.006.56c0 .547.158.943.476 1.192.32.249.818.373 1.495.373.418 0 .845-.036 1.279-.108V6.045a2.958 2.958 0 0 1-.63.08.859.859 0 0 1-.33-.066c-.107-.047-.16-.192-.16-.434V3.85h1.12V2.626h-1.12v-1.59zm-5.698 6.399h2.2V2.627h-2.2v4.808zm-27.366-5.161h2.2V.78h-2.2v1.494zm0 5.16h2.2V2.627h-2.2v4.807zM18.66 2.274h2.2V.78h-2.2v1.494zM.13.983v6.452H2.01V4.31c0-.29-.061-.642-.182-1.06.269.524.534.969.8 1.334l2.063 2.85h1.88V.983H4.69v1.909c0 .576.059 1.142.177 1.692a8.98 8.98 0 0 0-.795-1.238L2.318.983H.132zm16.68.053-2.092.028-.032 1.563h-.838v1.225h.838V5.37l-.006.56c0 .547.158.943.474 1.192.322.249.82.373 1.496.373.42 0 .846-.036 1.28-.108V6.046c-.243.053-.452.08-.63.08a.856.856 0 0 1-.33-.066c-.108-.047-.16-.192-.16-.434V3.85h1.12V2.626H16.81v-1.59zM10.626 2.53c-1.666 0-2.643.502-2.93 1.507l2.01.162c.058-.351.34-.527.849-.527.217 0 .38.036.49.105.115.069.172.21.172.422v.107c-1.373.064-2.328.252-2.868.569-.538.312-.806.72-.806 1.227 0 .376.164.707.49.998.33.29.828.434 1.49.434.805 0 1.407-.256 1.804-.771 0 .243.026.468.078.672H13.5c-.114-.258-.171-.57-.171-.935V4.58c0-.52-.04-.871-.116-1.053-.074-.184-.221-.357-.441-.522-.221-.162-.521-.282-.9-.357a6.204 6.204 0 0 0-1.247-.118zm14.18 0c-.917 0-1.661.239-2.235.718-.57.479-.855 1.077-.855 1.796 0 .668.273 1.25.822 1.748.548.495 1.286.743 2.218.743.94 0 1.696-.241 2.262-.72.57-.481.855-1.082.855-1.8 0-.713-.283-1.304-.845-1.776-.56-.473-1.3-.71-2.223-.71zm7.574 0c-.776 0-1.315.26-1.617.779v-.681h-2.04v4.807h2.2V4.547c0-.478.202-.718.602-.718.136 0 .248.035.337.104.09.069.137.229.137.478v3.024H34.2V4.358c0-.526-.06-.895-.182-1.106-.122-.214-.324-.387-.606-.52-.28-.136-.626-.202-1.033-.202zm5.765 0c-1.666 0-2.642.502-2.93 1.507l2.01.162c.058-.351.34-.527.85-.527.217 0 .379.036.49.105.113.069.17.21.17.422v.107c-1.371.064-2.327.252-2.868.569-.536.312-.806.72-.806 1.227 0 .376.165.707.492.998.33.29.827.434 1.489.434.805 0 1.407-.256 1.805-.771 0 .243.025.468.077.672h2.097a2.305 2.305 0 0 1-.173-.935V4.58c0-.52-.038-.871-.115-1.053-.073-.184-.22-.357-.441-.522-.22-.162-.521-.282-.9-.357a6.204 6.204 0 0 0-1.247-.118zM18.66 7.434h2.2V2.627h-2.2v4.807zm6.134-3.724c.275 0 .468.1.574.298.106.199.16.523.16.973 0 .332-.04.649-.115.955-.074.303-.283.454-.624.454-.243 0-.426-.088-.547-.264-.121-.18-.182-.545-.182-1.097 0-.47.059-.807.177-1.011.118-.205.303-.308.557-.308zM11.217 5.185v.232c0 .41-.083.674-.248.793a.985.985 0 0 1-.601.18c-.371 0-.556-.145-.556-.434 0-.43.468-.687 1.406-.771h-.001zm27.519 0v.232c0 .41-.082.674-.248.793a.987.987 0 0 1-.601.18c-.372 0-.558-.145-.558-.434 0-.43.469-.687 1.407-.771z" fill="#003764" mask="url(#b)"/>
        </g>
    </g>
</svg>
