<?xml version="1.0" encoding="UTF-8"?>
<svg width="40px" height="40px" viewBox="0 0 40 40" version="1.1" xmlns="http://www.w3.org/2000/svg" xmlns:xlink="http://www.w3.org/1999/xlink">
    <!-- Generator: sketchtool 63.1 (101010) - https://sketch.com -->
    <title>D10E51ED-966E-4AAF-B0D5-B292879BF959</title>
    <desc>Created with sketchtool.</desc>
    <defs>
        <path d="M0.0565669452,4.24336289 L0.0565669452,5.08375327 C0.0565669452,7.39993621 1.94072846,9.28409772 4.2569114,9.28409772 L4.2569114,9.28409772 C6.57309434,9.28409772 8.45725585,7.39993621 8.45725585,5.08375327 L8.45725585,5.08375327 L8.45725585,4.24336289 C8.45725585,1.92717995 6.57309434,0.0432480704 4.2569114,0.0432480704 L4.2569114,0.0432480704 C1.94072846,0.0432480704 0.0565669452,1.92717995 0.0565669452,4.24336289 L0.0565669452,4.24336289 Z M1.7366588,5.08375327 L1.7366588,4.24336289 C1.7366588,2.85406647 2.8673088,1.72311029 4.2569114,1.72311029 L4.2569114,1.72311029 C5.646514,1.72311029 6.777164,2.85406647 6.777164,4.24336289 L6.777164,4.24336289 L6.777164,5.08375327 C6.777164,6.47327933 5.646514,7.60392932 4.2569114,7.60392932 L4.2569114,7.60392932 C2.8673088,7.60392932 1.7366588,6.47327933 1.7366588,5.08375327 L1.7366588,5.08375327 Z" id="path-1"></path>
        <path d="M9.43795369,0.0497544173 C9.14616317,0.0497544173 8.87503987,0.200931301 8.72263826,0.449320661 L8.72263826,0.449320661 C8.23228934,1.24562097 7.52554698,1.70228998 6.78290489,1.70228998 L6.78290489,1.70228998 C6.04033935,1.70228998 5.33352044,1.24562097 4.84347771,0.449626842 L4.84347771,0.449626842 C4.69046374,0.200931301 4.4199528,0.0500605983 4.12785609,0.0500605983 L4.12785609,0.0500605983 L3.41506666,0.0500605983 C1.52692479,0.0497544173 0.0620782037,1.84129617 0.0620782037,3.38238183 L0.0620782037,3.38238183 L0.0620782037,5.20216878 C0.0620782037,6.05166805 0.753358423,6.74302481 1.60278114,6.74302481 L1.60278114,6.74302481 L11.9666263,6.74302481 C12.8136761,6.74302481 13.5038081,6.05319895 13.5038081,5.20584295 L13.5038081,5.20584295 L13.5038081,3.38238183 C13.5038081,2.6509919 13.162799,1.83279964 12.5923837,1.19311093 L12.5923837,1.19311093 C11.9341711,0.455673917 11.0670664,0.0497544173 10.1511259,0.0497544173 L10.1511259,0.0497544173 L9.43795369,0.0497544173 Z M9.88084455,1.72992282 L10.1508197,1.72992282 C11.1720865,1.72992282 11.8236397,2.81495184 11.8236397,3.38238183 L11.8236397,3.38238183 L11.8236397,5.06285641 L1.74217006,5.06285641 L1.74217006,3.38238183 C1.74217006,2.81495184 2.39372329,1.72992282 3.41506666,1.72992282 L3.41506666,1.72992282 L3.68465905,1.72992282 C4.47950501,2.78609428 5.58734452,3.38238183 6.78290489,3.38238183 L6.78290489,3.38238183 C7.97877145,3.38238183 9.08638132,2.78609428 9.88084455,1.72992282 L9.88084455,1.72992282 Z" id="path-3"></path>
    </defs>
    <g id="Phone-+-mobile" stroke="none" stroke-width="1" fill="none" fill-rule="evenodd">
        <g id="phone-report-update" transform="translate(-401.000000, -613.000000)">
            <g id="owner" transform="translate(401.000000, 613.000000)">
                <g id="Group-7" transform="translate(0.000000, 0.007655)">
                    <path d="M30.4616521,28.2978631 L37.2587179,35.0949289 C37.5479058,35.3838107 37.7071965,35.7679913 37.7071965,36.1768961 C37.7071965,36.5858009 37.5479058,36.9699815 37.2585648,37.2591695 C36.9693002,37.5485106 36.58489,37.7078012 36.1762914,37.7078012 C35.7676928,37.7078012 35.3833591,37.5485106 35.0940945,37.2591695 L28.2972584,30.4623334 L27.2118467,29.3769216 L25.0401812,27.2052561 C25.8324246,26.5571474 26.5566193,25.8329527 27.2046514,25.0407859 L29.3763169,27.2124514 L30.4616521,28.2978631 Z M23.4342617,26.5112968 C23.4342617,26.5113733 23.4341851,26.5113733 23.4341086,26.5114499 C21.0713861,28.2275946 18.2780966,29.1347324 15.3559814,29.1347324 C7.75871149,29.1347324 1.57783504,22.953856 1.57783504,15.3565861 C1.57783504,7.7593162 7.75871149,1.57843975 15.3559814,1.57843975 C22.9532513,1.57843975 29.1341277,7.7593162 29.1341277,15.3565861 C29.1341277,18.2787013 28.2270664,21.0719908 26.5107686,23.4347898 C25.6521605,24.6176437 24.6171155,25.6527652 23.4342617,26.5112968 L23.4342617,26.5112968 Z M38.3410678,34.0121197 L28.1238069,23.7948587 C29.7882835,21.2876953 30.6650329,18.3843337 30.6650329,15.3565861 C30.6650329,6.9151751 23.7973924,0.0475346048 15.3559814,0.0475346048 C6.91457039,0.0475346048 0.0469298973,6.9151751 0.0469298973,15.3565861 C0.0469298973,23.7979971 6.91457039,30.6656376 15.3559814,30.6656376 C18.3838056,30.6656376 21.2872437,29.7888116 23.794254,28.1244881 L26.6183913,30.9486254 C26.618774,30.9490081 26.6191567,30.9493908 26.6196925,30.9498501 L34.0114384,38.3416725 C34.590044,38.920125 35.358788,39.2387064 36.1762914,39.2387064 C36.9938713,39.2387064 37.7626153,38.920125 38.3409147,38.3419021 C38.9194438,37.7637558 39.2381017,36.9949353 39.2381017,36.1768961 C39.2381017,35.3588569 38.9194438,34.5900364 38.3410678,34.0121197 L38.3410678,34.0121197 Z" id="Fill-1" fill="#493B8E"></path>
                    <path d="M15.3559967,26.0728915 C9.44700899,26.0728915 4.63966065,21.2655432 4.63966065,15.3565555 C4.63966065,9.44756777 9.44700899,4.64021943 15.3559967,4.64021943 C21.2649844,4.64021943 26.0723327,9.44756777 26.0723327,15.3565555 C26.0723327,21.2655432 21.2649844,26.0728915 15.3559967,26.0728915 M15.3559967,3.10931428 C8.60279135,3.10931428 3.1087555,8.60335013 3.1087555,15.3565555 C3.1087555,22.1098373 8.60279135,27.6037966 15.3559967,27.6037966 C22.109202,27.6037966 27.6032379,22.1098373 27.6032379,15.3565555 C27.6032379,8.60335013 22.109202,3.10931428 15.3559967,3.10931428" id="Fill-3" fill="#8B88AA"></path>
                    <path d="M29.3511412,27.1890055 C28.6907087,27.9684659 27.9661313,28.6930433 27.1867475,29.3533992 L28.2720061,30.4388875 C29.0471799,29.7736327 29.7712981,29.0495911 30.4365529,28.2744173 L29.3511412,27.1890055 Z" id="Fill-5" fill="#8B88AA"></path>
                </g>
                <g id="Group-10" transform="translate(11.099062, 6.743637)">
                    <mask id="mask-2" fill="white">
                        <use xlink:href="#path-1"></use>
                    </mask>
                    <g id="Clip-9"></g>
                    <polygon id="Fill-8" fill="#493B8E" mask="url(#mask-2)" points="-4.1439306 13.4845953 12.6579065 13.4845953 12.6579065 -4.15740256 -4.1439306 -4.15740256"></polygon>
                </g>
                <g id="Group-13" transform="translate(8.573069, 16.005613)">
                    <mask id="mask-4" fill="white">
                        <use xlink:href="#path-3"></use>
                    </mask>
                    <g id="Clip-12"></g>
                    <polygon id="Fill-11" fill="#4A3B8F" mask="url(#mask-4)" points="-4.13826625 10.9432927 17.704076 10.9432927 17.704076 -4.15074313 -4.13826625 -4.15074313"></polygon>
                </g>
            </g>
        </g>
    </g>
</svg>