<?xml version="1.0" encoding="UTF-8"?>
<svg width="300px" height="285px" viewBox="0 0 300 285" version="1.1" xmlns="http://www.w3.org/2000/svg" xmlns:xlink="http://www.w3.org/1999/xlink">
    <!-- Generator: Sketch 48.2 (47327) - http://www.bohemiancoding.com/sketch -->
    <title>assets/img_gray_rep</title>
    <desc>Created with Sketch.</desc>
    <defs></defs>
    <g id="Characters" stroke="none" stroke-width="1" fill="none" fill-rule="evenodd" transform="translate(-700.000000, -701.000000)">
        <g id="assets/img_gray_rep" transform="translate(700.000000, 701.000000)">
            <polygon id="Fill-819" fill="#EBEAF4" points="150 285 93.75 195.903967 206.25 195.903967"></polygon>
            <path d="M220.3125,88.0819672 L210.9375,92.7704918 L196.875,45.8852459 L117.1875,69.3278689 C117.1875,69.3278689 124.21875,59.4491475 131.25,45.8852459 C97.265625,45.8852459 89.0625,92.7704918 89.0625,92.7704918 L84.375,90.4262295 L84.375,125.421377 L103.125,172.306623 L127.059375,191.037279 C129.721875,194.033246 133.542188,195.749246 137.554688,195.749246 L150,195.749246 L162.445312,195.749246 C166.457812,195.749246 170.278125,194.033246 172.945312,191.037279 L196.875,172.306623 L211.842187,134.88282 C225.182812,133.987311 229.6875,113.77977 229.6875,98.4998689 C229.6875,93.290918 225,88.0819672 220.3125,88.0819672" id="Fill-820" fill="#FBC8C8"></path>
            <path d="M162.444375,195.748777 L149.999063,195.748777 L137.55375,195.748777 C133.545938,195.748777 129.725625,194.032777 127.058438,191.03681 L103.124063,172.306154 L103.124063,209.983138 C103.124063,209.983138 112.499063,228.737236 149.999063,228.737236 C187.499063,228.737236 196.874063,209.983138 196.874063,209.983138 L196.874063,172.306154 L172.944375,191.03681 C170.277188,194.032777 166.456875,195.748777 162.444375,195.748777" id="Fill-821" fill="#F7B4B4"></path>
            <path d="M127.057031,191.037279 L103.122656,172.306623 L103.122656,209.983607 C103.122656,209.983607 112.497656,228.737705 149.997656,228.737705 L149.997656,195.749246 L137.557031,195.749246 C133.544531,195.749246 129.724219,194.037934 127.057031,191.037279" id="Fill-822" fill="#FBC8C8"></path>
            <path d="M131.25,45.8852459 C97.265625,45.8852459 89.0625,92.7704918 89.0625,92.7704918 L79.6875,88.0819672 C75,88.0819672 70.3125,93.290918 70.3125,98.4998689 C70.3125,113.77977 74.8171875,133.987311 88.1578125,134.88282 L103.125,172.306623 L127.059375,191.037279 C129.721875,194.037934 133.542188,195.749246 137.554688,195.749246 L150,195.749246 L150,59.6741967 L117.1875,69.3278689 C117.1875,69.3278689 124.21875,59.4491475 131.25,45.8852459" id="Fill-823" fill="#FBD7D7"></path>
            <path d="M135.9375,97.4590164 C135.9375,92.2828852 131.7375,88.0819672 126.5625,88.0819672 L126.534375,88.0819672 C126.539062,88.1804262 126.5625,88.2788852 126.5625,88.3773443 C126.5625,93.5440984 122.38125,97.7356393 117.215625,97.7497049 C117.375,102.789869 121.485938,106.836066 126.5625,106.836066 C131.7375,106.836066 135.9375,102.635148 135.9375,97.4590164" id="Fill-824" fill="#3E3E3F"></path>
            <path d="M182.782969,97.4590164 C182.782969,92.2828852 178.582969,88.0819672 173.407969,88.0819672 L173.379844,88.0819672 C173.384531,88.1804262 173.407969,88.2788852 173.407969,88.3773443 C173.407969,93.5440984 169.226719,97.7356393 164.061094,97.7497049 C164.215781,102.789869 168.331406,106.836066 173.407969,106.836066 C178.582969,106.836066 182.782969,102.635148 182.782969,97.4590164" id="Fill-825" fill="#3E3E3F"></path>
            <path d="M126.5625,149.032787 L173.4375,149.032787 C173.4375,149.032787 173.4375,163.098361 150,163.098361 C126.5625,163.098361 126.5625,149.032787 126.5625,149.032787" id="Fill-826" fill="#F79392"></path>
            <path d="M150,0.842121311 C111.16875,0.842121311 79.6875,30.9424492 79.6875,71.1699902 L79.6875,88.0814984 L89.0625,92.770023 C89.0625,92.770023 97.265625,45.884777 131.25,45.884777 C124.21875,59.4486787 117.1875,69.3274 117.1875,69.3274 L196.875,45.884777 L210.9375,92.770023 L220.3125,88.0814984 L220.3125,71.1699902 C220.3125,30.9424492 188.83125,0.842121311 150,0.842121311" id="Fill-827" fill="#84462D"></path>
            <path d="M79.6875,71.1685836 L79.6875,88.0800918 L89.0625,92.7686164 C89.0625,92.7686164 97.265625,45.8833705 131.25,45.8833705 C124.21875,59.4472721 117.1875,69.3259934 117.1875,69.3259934 L150,59.6723213 L150,0.840714754 C111.16875,0.840714754 79.6875,30.9410426 79.6875,71.1685836" id="Fill-828" fill="#9C6144"></path>
            <polygon id="Fill-829" fill="#FFFFFF" points="93.75 195.903498 103.125 191.214974 149.929688 214.568515 121.875 242.788744"></polygon>
            <polygon id="Fill-830" fill="#FFFFFF" points="206.25 195.903498 196.875 191.214974 150.070312 214.568515 178.125 242.788744"></polygon>
            <polygon id="Fill-831" fill="#638A3A" points="168.75 285 155.629688 237.177049 164.0625 228.747082 149.910937 214.568984 135.857812 228.62518 144.379688 237.14423 131.25 285"></polygon>
            <polygon id="Fill-832" fill="#81B44C" points="150 285 150 214.658066 149.910937 214.568984 135.857812 228.62518 144.379688 237.14423 131.25 285"></polygon>
            <path d="M0,285 L18.75,233.42623 C21.6328125,227.176426 26.709375,222.201902 33.0140625,219.440361 L93.75,195.918033 L150,285 L0,285 Z" id="Fill-833" fill="#8B88AA"></path>
            <path d="M276.5625,285 L300,285 L281.25,233.42623 C278.367187,227.176426 273.290625,222.201902 266.985937,219.440361 L206.25,195.918033 L150,285 L276.5625,285" id="Fill-834" fill="#8B88AA"></path>
            <polygon id="Fill-835" fill="#EBEAF4" points="248.4375 261.543311 201.5625 261.543311 201.5625 252.166262 248.4375 252.166262"></polygon>
        </g>
    </g>
</svg>