<?xml version="1.0" encoding="UTF-8"?>
<svg width="120px" height="52px" viewBox="0 0 120 52" version="1.1" xmlns="http://www.w3.org/2000/svg" xmlns:xlink="http://www.w3.org/1999/xlink">
    <title>Group 7</title>
    <g id="my-bumper" stroke="none" stroke-width="1" fill="none" fill-rule="evenodd">
        <g id="Group-7" transform="translate(0.000000, -0.004884)" fill-rule="nonzero">
            <path d="M76.18,0.00488379545 C64.5769391,-0.167723629 53.3736368,4.2410166 45,12.2748838 C58.5635179,17.0257502 67.6485645,29.8233975 67.66,44.1948838 L67.66,51.5148838 L112.74,51.5148838 C116.567275,51.5148838 119.685325,48.4417684 119.74,44.6148838 C119.65,20.4348838 100.38,0.324883795 76.18,0.00488379545 Z" id="Path" fill="#FF4722"></path>
            <path d="M45,12.2748838 C41.2137629,10.947421 37.221575,10.3040659 33.21,10.3748838 C14.76,10.6848838 0.1,26.1048838 0,44.5748838 C0.0329372759,48.4174251 3.15731751,51.5148838 7,51.5148838 L31.4,51.5148838 L31.4,44.1948838 C31.3791339,32.1431017 36.2937005,20.6083247 45,12.2748838 L45,12.2748838 Z" id="Path" fill="#8736C1"></path>
            <path d="M45,12.2748838 C36.2937005,20.6083247 31.3791339,32.1431017 31.399868,44.1948838 L31.399868,51.5148838 L67.68,51.5148838 L67.68,44.1948838 C67.6655871,29.8181885 58.5714098,17.018976 45,12.2748838 L45,12.2748838 Z" id="Path" fill="#C33F72"></path>
            <path d="M92.82,44.6648838 C88.9031173,44.6713523 85.6814309,47.7521999 85.5,51.6648838 L100.15,51.6148838 C99.9377386,47.7203062 96.7203546,44.669717 92.82,44.6648838 Z" id="Path" fill="#FFFFFF"></path>
            <path d="M27.24,44.6648838 C23.2878685,44.6731647 20.0497949,47.8052169 19.91,51.7548838 C23.97,51.7548838 28.99,51.7548838 34.57,51.7548838 C34.4353202,47.8029425 31.1942343,44.6679768 27.24,44.6648838 Z" id="Path" fill="#FFFFFF"></path>
            <path d="M109.4,37.4548838 C107.26,35.1848838 97.57,31.7248838 91.4,30.7748838 C90.6958936,30.666789 90.017835,30.4294684 89.4,30.0748838 C63.17,15.1248838 38.69,17.0048838 14.72,26.9148838 C13.8146592,27.2813129 12.846679,27.4681161 11.87,27.4648838 C10.8206034,27.454833 9.8392585,27.9832495 9.27,28.8648838 C7.17,32.2248838 6.07,51.4148838 10.27,51.6148838 C11.27,51.6148838 13.63,51.7048838 16.9,51.7248838 C16.9193301,45.997691 21.5778072,41.370554 27.305,41.389884 C33.0321928,41.4092139 37.6593299,46.067691 37.64,51.7948838 C51.81,51.7948838 68.84,51.7948838 82.49,51.7148838 C82.6440174,46.1144306 87.2185254,41.6489376 92.8210641,41.6300192 C98.4236028,41.6111008 103.028164,46.0455984 103.22,51.6448838 L107.02,51.6448838 C109.49,51.4548838 113.12,50.5248838 113.28,47.1148838 C113.49,42.1548838 111.42,39.5948838 109.4,37.4548838 Z M47.66,33.4548838 C47.66,33.8746202 47.3197364,34.2148838 46.9,34.2148838 L25.9,34.2148838 C24.6407908,34.2148838 23.6199948,33.194093 23.6199948,31.9348838 L23.6199948,28.3948838 C23.6185338,27.4196202 24.2375312,26.551416 25.16,26.2348838 C32.1943563,23.9065353 39.5248269,22.5933137 46.93,22.3348838 C47.1358057,22.3266244 47.3359507,22.4033682 47.4834735,22.5471084 C47.6309963,22.6908485 47.712912,22.888933 47.7101464,23.0948838 L47.66,33.4548838 Z M84.5,33.7348838 C77.78,34.1748838 65.13,34.2148838 51.71,34.2148838 C51.1577153,34.2148838 50.71,33.7671685 50.71,33.2148838 L50.71,23.3348838 C50.71,22.7825991 51.1577153,22.3348838 51.71,22.3348838 C63.28,22.5848838 77.32,26.9148838 85.02,31.3848838 C85.4866253,31.6664991 85.7215396,32.2144469 85.6037878,32.7465943 C85.4860361,33.2787417 85.0418755,33.6764262 84.5,33.7348838 L84.5,33.7348838 Z" id="Shape" fill="#FFFFFF"></path>
        </g>
    </g>
</svg>