<svg xmlns="http://www.w3.org/2000/svg" xmlns:xlink="http://www.w3.org/1999/xlink" width="36" height="36" viewBox="0 0 36 36">
    <defs>
        <path id="24sn6830ra" d="M0 0L36 0 36 14.484 0 14.484z"/>
        <path id="lpabftiy0c" d="M0 28.916L36 28.916 36 0 0 0z"/>
    </defs>
    <g fill="none" fill-rule="evenodd">
        <g>
            <g transform="translate(-669.000000, -92.000000) translate(669.000000, 92.000000) translate(0.000000, 3.789474)">
                <g transform="translate(0.000138, 0.000195)">
                    <mask id="li08oe2xcb" fill="#fff">
                        <use xlink:href="#24sn6830ra"/>
                    </mask>
                    <path fill="#FF4722" d="M33.17 14.484h-.557c-.27 0-.487-.218-.487-.487 0-.268.218-.486.487-.486h.557c1.024 0 1.856-.833 1.856-1.856v-.334c0-.664-.095-1.324-.287-1.961l-.724-2.427c-.197-.662-.517-1.269-.948-1.804L30.918 2.46c-.761-.946-1.894-1.487-3.106-1.487H17.306c-1.648 0-3.237.6-4.474 1.69l-1.363 1.203c-1.186 1.045-2.614 1.837-4.127 2.29L3.572 7.29c-.793.238-1.422.817-1.727 1.59l-.699 1.78c-.362.92-.143 1.965.556 2.666.118.117.281.186.449.186h2.686c.27 0 .487.218.487.486 0 .27-.217.487-.487.487H2.151c-.43 0-.835-.167-1.137-.471-.974-.974-1.278-2.43-.774-3.71L.94 8.521c.414-1.05 1.272-1.84 2.354-2.164l3.77-1.132c1.378-.414 2.68-1.136 3.761-2.089l1.363-1.202C13.602.686 15.42 0 17.307 0h10.505c1.51 0 2.917.674 3.866 1.85l2.147 2.667c.51.635.89 1.355 1.123 2.138l.725 2.426c.217.727.327 1.481.327 2.24v.334c0 1.56-1.269 2.83-2.83 2.83" mask="url(#li08oe2xcb)"/>
                </g>
                <path fill="#8736C1" d="M12.097 6.44h8.897V3.346H15.5L12.097 6.44zm9.087.974h-9.543c-.333 0-.625-.201-.744-.51-.12-.31-.038-.654.207-.878l3.792-3.446c.147-.134.338-.207.536-.207h5.752c.431 0 .784.351.784.782V6.63c0 .432-.353.784-.784.784zM24.137 6.44h6.54L28.1 3.346h-3.962V6.44zm7.282.974H23.79c-.346 0-.627-.282-.627-.627V3c0-.346.281-.626.627-.626h4.472c.186 0 .36.081.48.224l3.158 3.79c.158.187.191.442.087.665-.104.223-.322.362-.568.362z"/>
                <mask id="1cjzkzwh6d" fill="#fff">
                    <use xlink:href="#lpabftiy0c"/>
                </mask>
                <path fill="#8736C1" d="M13.63 16.405h9.533v-1.92H13.63v1.92zm-.974.973h11.481v-3.867H12.656v3.867z" mask="url(#1cjzkzwh6d)"/>
                <path fill="#8736C1" d="M15.527 23.807h5.467V17.37h-5.467v6.437zm-.974.974h7.414v-8.384h-7.414v8.384z" mask="url(#1cjzkzwh6d)"/>
                <path fill="#FF4722" d="M29.401 28.916c-.269 0-.487-.218-.487-.487v-3.648H7.461v3.648c0 .269-.218.487-.487.487-.27 0-.487-.218-.487-.487v-4.622h23.4v4.622c0 .269-.217.487-.486.487" mask="url(#1cjzkzwh6d)"/>
                <path fill="#8736C1" d="M4.261 28.916L32.113 28.916 32.113 27.942 4.261 27.942z" mask="url(#1cjzkzwh6d)"/>
                <path fill="#FF4722" d="M4.426 9.187H1.393c-.27 0-.487-.218-.487-.487s.217-.487.487-.487h3.033c.389 0 .705-.316.705-.705v-1.34c0-.27.217-.487.487-.487.269 0 .487.218.487.486v1.341c0 .926-.754 1.679-1.679 1.679M26.19 14.485H11.262c-.268 0-.486-.219-.486-.487 0-.27.218-.487.486-.487H26.19c.269 0 .487.218.487.487 0 .268-.218.487-.487.487" mask="url(#1cjzkzwh6d)"/>
                <path fill="#8736C1" d="M8.05 11.273c-1.502 0-2.725 1.222-2.725 2.724 0 1.503 1.223 2.726 2.725 2.726 1.503 0 2.726-1.223 2.726-2.726 0-1.502-1.223-2.724-2.726-2.724m0 6.424c-2.04 0-3.7-1.66-3.7-3.7 0-2.039 1.66-3.698 3.7-3.698s3.7 1.66 3.7 3.698c0 2.04-1.66 3.7-3.7 3.7M29.401 11.273c-1.502 0-2.725 1.222-2.725 2.724 0 1.503 1.223 2.726 2.725 2.726s2.725-1.223 2.725-2.726c0-1.502-1.223-2.724-2.725-2.724m0 6.424c-2.039 0-3.698-1.66-3.698-3.7 0-2.039 1.659-3.698 3.698-3.698 2.04 0 3.7 1.66 3.7 3.698 0 2.04-1.66 3.7-3.7 3.7" mask="url(#1cjzkzwh6d)"/>
            </g>
        </g>
    </g>
</svg>
