<svg xmlns="http://www.w3.org/2000/svg" width="44" height="44" viewBox="0 0 44 44">
    <g fill="none" fill-rule="evenodd">
        <g>
            <g>
                <g>
                    <g>
                        <g>
                            <g transform="translate(-234 -517) translate(234 517) translate(5.867 5.867)">
                                <circle cx="19.921" cy="12.516" r="11.872" fill="#FFF"/>
                                <path fill="#8736C1" d="M9.858 18.829l-9.14 9.14c-.958.957-.958 2.515 0 3.473l.035.035c.958.958 2.516.957 3.474 0l9.14-9.14c-1.402-.91-2.598-2.108-3.509-3.508"/>
                                <path fill="#B076DA" d="M.716 27.968c-.944.944-.953 2.468-.037 3.429l8.416-8.416-1.696-1.696-6.683 6.683z"/>
                                <path fill="#FACB1B" d="M9.856 18.829l-2.457 2.456 1.696 1.696 2.272-2.272c-.565-.572-1.071-1.203-1.511-1.88"/>
                                <path fill="#8736C1" fill-rule="nonzero" d="M19.846.22C13.148.22 7.718 5.65 7.718 12.35c0 6.698 5.43 12.128 12.128 12.128 6.699 0 12.129-5.43 12.129-12.128C31.975 5.65 26.545.22 19.846.22zm0 .442c6.455 0 11.688 5.232 11.688 11.687 0 6.455-5.233 11.687-11.688 11.687-6.454 0-11.687-5.232-11.687-11.687C8.159 5.894 13.392.662 19.846.662z"/>
                                <path fill="#E5C8FA" d="M10.42 12.349c0-5.206 4.22-9.427 9.426-9.427s9.427 4.22 9.427 9.427c0 5.206-4.22 9.427-9.427 9.427-5.206 0-9.427-4.221-9.427-9.427z"/>
                                <path fill="#DBA9FF" d="M19.846 2.922c-5.206 0-9.427 4.22-9.427 9.427 0 2.718 1.157 5.16 2.997 6.88l13.31-13.31c-1.72-1.84-4.162-2.997-6.88-2.997"/>
                            </g>
                        </g>
                        <path fill="#FFF" d="M9.858 18.829l-2.456 2.456 3.508 3.508 2.457-2.456c-1.402-.91-2.598-2.108-3.509-3.508" transform="translate(-234 -517) translate(234 517) translate(5.867 5.867)"/>
                        <path fill="#8736C1" fill-rule="nonzero" d="M9.702 18.673l.156.155.185-.12c.847 1.303 1.946 2.426 3.228 3.3l.216.144.228.148-2.805 2.805-3.82-3.82 2.612-2.612zm.122.502l-2.11 2.11 3.196 3.197 2.11-2.11-.195-.137c-1.108-.788-2.077-1.757-2.865-2.864l-.136-.196z" transform="translate(-234 -517) translate(234 517) translate(5.867 5.867)"/>
                    </g>
                </g>
            </g>
        </g>
    </g>
</svg>
