<svg xmlns="http://www.w3.org/2000/svg" width="36" height="36" viewBox="0 0 36 36">
    <g fill="none" fill-rule="evenodd">
        <g fill-rule="nonzero">
            <g>
                <g>
                    <g>
                        <path fill="#FF4722" d="M19.401 1.987C20.564.049 23.076-.58 25.014.584c.48.287.894.67 1.22 1.123l.183.28 8.947 14.911c1.162 1.938.534 4.45-1.403 5.613-.545.327-1.157.522-1.788.57l-.317.013H22.91v-1.636h8.947c.445 0 .881-.121 1.263-.35 1.094-.656 1.492-2.03.954-3.16l-.112-.208L25.014 2.83c-.207-.346-.497-.635-.842-.842-1.094-.657-2.494-.361-3.236.645l-.132.197-4.696 7.826-1.403-.842 4.696-7.826z" transform="translate(-380 -6449) translate(360 6437) translate(20 12) translate(0 1.895)"/>
                        <path fill="#FF4722" d="M23.038 5.094c.465 0 .852.29.932.671l.016.147v6.546c0 .452-.425.818-.948.818-.465 0-.852-.29-.932-.671l-.015-.147V5.912c0-.452.424-.818.947-.818zM22.91 14.912c.562 0 1.044.2 1.444.6.4.4.6.883.6 1.446s-.2 1.045-.6 1.445c-.4.4-.882.6-1.445.6-.563 0-1.045-.2-1.445-.6-.4-.4-.6-.882-.6-1.445 0-.563.2-1.045.6-1.445.4-.4.882-.6 1.445-.6zm0 1.637c-.13 0-.195.027-.289.12-.094.094-.121.16-.121.289 0 .128.027.194.121.288.094.094.16.12.288.12.129 0 .194-.026.288-.12.094-.094.121-.16.121-.288 0-.129-.027-.195-.12-.288-.095-.094-.16-.121-.289-.121z" transform="translate(-380 -6449) translate(360 6437) translate(20 12) translate(0 1.895)"/>
                        <path fill="#8736C1" d="M13.09 23.094c.564 0 1.046.2 1.446.6.4.4.6.882.6 1.446 0 .563-.2 1.045-.6 1.445-.4.4-.882.6-1.445.6-.563 0-1.045-.2-1.445-.6-.4-.4-.6-.882-.6-1.445 0-.564.2-1.045.6-1.446.4-.4.882-.6 1.445-.6zm0 1.636c-.128 0-.193.028-.287.122-.094.093-.121.159-.121.288 0 .128.027.194.12.288.095.093.16.12.289.12.129 0 .194-.027.288-.12.094-.094.121-.16.121-.288 0-.13-.027-.195-.121-.288-.094-.094-.16-.122-.288-.122z" transform="translate(-380 -6449) translate(360 6437) translate(20 12) translate(0 1.895)"/>
                        <path fill="#8736C1" d="M9.583 10.169L.636 25.08c-.382.636-.583 1.364-.583 2.105 0 2.26 1.832 4.09 4.09 4.09h17.895c.741 0 1.469-.2 2.105-.582 1.937-1.162 2.565-3.675 1.403-5.613L16.599 10.17c-.346-.576-.828-1.058-1.403-1.404-1.938-1.162-4.45-.534-5.613 1.404zm4.77 0c.346.207.635.496.843.841l8.947 14.912c.697 1.163.32 2.67-.842 3.368-.382.229-.818.35-1.263.35H4.144c-1.356 0-2.455-1.1-2.455-2.455 0-.445.121-.881.35-1.263l8.947-14.912c.657-1.094 2.03-1.492 3.16-.953l.208.112z" transform="translate(-380 -6449) translate(360 6437) translate(20 12) translate(0 1.895)"/>
                        <path fill="#8736C1" d="M13.22 13.276c.465 0 .852.29.932.671l.015.147v6.546c0 .451-.424.818-.947.818-.465 0-.852-.29-.932-.671l-.015-.147v-6.546c0-.452.424-.818.947-.818z" transform="translate(-380 -6449) translate(360 6437) translate(20 12) translate(0 1.895)"/>
                    </g>
                </g>
            </g>
        </g>
    </g>
</svg>
