<svg xmlns="http://www.w3.org/2000/svg" xmlns:xlink="http://www.w3.org/1999/xlink" width="36" height="36" viewBox="0 0 36 36">
    <defs>
        <path id="hvbirg3mra" d="M0 0L35.869 0 35.869 36 0 36z"/>
    </defs>
    <g fill="none" fill-rule="evenodd">
        <g>
            <g>
                <g>
                    <g transform="translate(-1902 -92) translate(1902 92)">
                        <mask id="hc2zvrzieb" fill="#fff">
                            <use xlink:href="#hvbirg3mra"/>
                        </mask>
                        <path fill="#8736C1" d="M26.025 1.13c-2.303 0-4.515.907-6.156 2.55-2.412 2.413-3.191 6.04-1.984 9.242l.141.375-.307.257c-.125.105-.25.217-.37.336L2.297 28.096c-.755.754-1.169 1.751-1.169 2.815 0 1.062.414 2.061 1.163 2.81.743.743 1.729 1.151 2.777 1.151h.02c1.056-.004 2.05-.421 2.801-1.173L21.971 18.53c.126-.13.233-.251.334-.376l.257-.315.38.143c3.205 1.208 6.835.43 9.247-1.981 1.823-1.824 2.741-4.342 2.518-6.912V9.09c-.007-.09-.067-.17-.153-.2-.09-.033-.187-.012-.25.054l-4.748 4.75-5.604-1.776-1.775-5.6 4.75-4.75c.067-.065.087-.164.057-.25-.034-.086-.112-.146-.204-.155-.252-.021-.504-.032-.755-.032zM5.068 36c-1.35 0-2.62-.525-3.576-1.481C.531 33.557 0 32.275 0 30.91c0-1.365.53-2.646 1.494-3.608L16.565 13.08l.134-.128c-1.172-3.522-.26-7.435 2.371-10.068C21.128.823 23.97-.219 26.877.038c.523.045.982.394 1.166.89.18.502.055 1.063-.316 1.436l-4.265 4.265 1.39 4.39 4.39 1.39 4.263-4.263c.375-.375.938-.5 1.436-.318.496.18.845.638.892 1.165.25 2.902-.787 5.747-2.845 7.806-2.635 2.634-6.546 3.542-10.071 2.373-.044.046-.087.093-.132.138L8.723 34.46c-.998 1-2.275 1.534-3.63 1.54h-.025z" mask="url(#hc2zvrzieb)"/>
                    </g>
                    <path fill="#FF4722" d="M26.658 9.277l2.516.674 1.841-1.842-.674-2.515-2.515-.674-1.842 1.841.674 2.516zm2.853 1.933l-3.772-1.012-1.012-3.774 2.762-2.763 3.773 1.01 1.011 3.775-2.762 2.764zM4.841 29.925c-.293 0-.572.114-.782.323-.43.43-.43 1.132.001 1.562.43.43 1.132.429 1.562 0h.001c.208-.21.322-.486.322-.782 0-.294-.114-.57-.322-.78-.209-.209-.487-.323-.782-.323m.002 3.335c-.572 0-1.145-.216-1.58-.651-.871-.873-.871-2.288-.002-3.158.847-.846 2.316-.844 3.16 0 .42.42.653.98.653 1.577s-.232 1.158-.653 1.58h-.002c-.433.434-1.005.652-1.576.652" transform="translate(-1902 -92) translate(1902 92)"/>
                </g>
            </g>
        </g>
    </g>
</svg>
