<?xml version="1.0" encoding="UTF-8"?>
<svg width="80px" height="80px" viewBox="0 0 80 80" version="1.1" xmlns="http://www.w3.org/2000/svg" xmlns:xlink="http://www.w3.org/1999/xlink">
    <!-- Generator: Sketch 53.2 (72643) - https://sketchapp.com -->
    <title>bell</title>
    <desc>Created with Sketch.</desc>
    <g id="bell" stroke="none" stroke-width="1" fill="none" fill-rule="evenodd">
        <g id="Group-13-Copy">
            <circle id="background" fill="#353167" cx="40" cy="40" r="40"></circle>
            <g id="bell" transform="translate(18.400000, 15.200000)">
                <path d="M39.7459627,36.857971 C37.1231056,34.7113043 33.9602484,31.0696377 33.9602484,15.3913043 C33.9602484,15.3913043 33.9602484,14.0113043 33.2428199,12.3246377 C32.1165342,9.64897101 29.1851056,6.19130435 21.6173913,6.19130435 C14.049677,6.19130435 11.1182484,9.64897101 9.99196273,12.3246377 C9.27453416,14.0113043 9.27453416,15.3913043 9.27453416,15.3913043 C9.27453416,31.0696377 6.11167702,34.7113043 3.48881988,36.857971 C1.61424845,38.3913043 0.0173913043,39.1656377 0.0173913043,42.9913043 L21.6173913,42.9913043 L43.2173913,42.9913043 C43.2173913,39.1656377 41.6205342,38.3913043 39.7459627,36.857971" id="Fill-2619" fill="#F2DA3E"></path>
                <path d="M21.6173913,42.9913043 L0.0173913043,42.9913043 C0.0173913043,39.1656377 1.61424845,38.3913043 3.48881988,36.857971 C6.11167702,34.7113043 9.27453416,31.0696377 9.27453416,15.3913043 C9.27453416,15.3913043 9.27453416,14.0113043 9.99196273,12.3246377 C11.1182484,9.64897101 14.049677,6.19130435 21.6173913,6.19130435 L21.6173913,42.9913043 Z" id="Fill-2620" fill="#FBEC9A"></path>
                <path d="M18.4173913,3.19130435 C18.4173913,4.84805435 19.7606413,6.19130435 21.4173913,6.19130435 C23.0741413,6.19130435 24.4173913,4.84805435 24.4173913,3.19130435 C24.4173913,1.53455435 23.0741413,0.191304348 21.4173913,0.191304348 C19.7606413,0.191304348 18.4173913,1.53455435 18.4173913,3.19130435" id="Fill-2621" fill="#FBEC9A"></path>
                <path d="M9.2290163,15.1393043 C9.2840413,14.3393043 9.5111163,13.2345043 9.9381413,12.1913043 L21.6173913,12.1913043 L21.6173913,15.3913043 L9.2173913,15.3913043 C9.2173913,15.3913043 9.2173913,15.3017043 9.2290163,15.1393043" id="Fill-2622" fill="#F2DA3E"></path>
                <path d="M34.0057663,15.1393043 C33.9507413,14.3393043 33.7236663,13.2345043 33.2966413,12.1913043 L21.6173913,12.1913043 L21.6173913,15.3913043 L34.0173913,15.3913043 C34.0173913,15.3913043 34.0173913,15.3017043 34.0057663,15.1393043" id="Fill-2623" fill="#E1C618"></path>
                <path d="M39.7459627,36.5913043 L21.6173913,36.5913043 L21.6173913,42.5913043 L43.2173913,42.5913043 C43.2173913,38.8488043 41.6205342,38.0913043 39.7459627,36.5913043" id="Fill-2624" fill="#E1C618"></path>
                <path d="M3.48881988,36.5913043 L21.6173913,36.5913043 L21.6173913,42.5913043 L0.0173913043,42.5913043 C0.0173913043,38.8488043 1.61424845,38.0913043 3.48881988,36.5913043" id="Fill-2625" fill="#F2DA3E"></path>
                <path d="M21.4173913,48.9913043 C24.8421163,48.9913043 27.6173913,46.3048043 27.6173913,42.9913043 L15.2173913,42.9913043 C15.2173913,46.3048043 17.9926663,48.9913043 21.4173913,48.9913043" id="Fill-2626" fill="#FBEC9A"></path>
            </g>
        </g>
    </g>
</svg>