<?xml version="1.0" encoding="UTF-8"?>
<svg width="130px" height="180px" viewBox="0 0 130 180" version="1.1" xmlns="http://www.w3.org/2000/svg" xmlns:xlink="http://www.w3.org/1999/xlink">
    <!-- Generator: Sketch 45.2 (43514) - http://www.bohemiancoding.com/sketch -->
    <title>assets/img_claimed_report</title>
    <desc>Created with Sketch.</desc>
    <defs></defs>
    <g id="Freshness" stroke="none" stroke-width="1" fill="none" fill-rule="evenodd">
        <g id="Freeform-Icons-(Dark-Background)" transform="translate(-1070.000000, -220.000000)">
            <g id="assets/img_claimed_report" transform="translate(1070.000000, 220.000000)">
                <path d="M123.079938,56.0460942 L73.165734,56.0460942 C71.9393976,56.0460942 70.761652,55.5579976 69.8939611,54.6905273 L63.3504154,48.1486448 C62.4827245,47.2811745 61.3049789,46.7930779 60.0786425,46.7930779 L6.46229096,46.7930779 C1.35101353,46.7930779 -2.79307786,50.9361159 -2.79307786,56.0460942 L-2.79307786,176.335307 L113.824569,176.335307 C124.047124,176.335307 132.335307,168.049231 132.335307,157.829274 L132.335307,65.2991106 L123.079938,65.2991106 L123.079938,56.0460942 Z" id="folder-back" fill="#D4A263" transform="translate(64.771114, 111.564192) rotate(90.000000) translate(-64.771114, -111.564192) "></path>
                <g id="report" transform="translate(65.770111, 76.476006) rotate(5.000000) translate(-65.770111, -76.476006) translate(11.270111, 4.476006)">
                    <rect id="Rectangle-5" fill="#FFFFFF" x="0" y="0" width="108.596327" height="144"></rect>
                    <rect id="Rectangle-4" fill="#736F9C" x="5.17125369" y="21.5903715" width="20.6850147" height="32.8996137"></rect>
                    <rect id="Rectangle-7" fill="#3B2469" x="31.0275221" y="27.7590491" width="15.5137611" height="18.5060327"></rect>
                    <rect id="Rectangle-7" fill="#3B2469" x="49.6440354" y="27.7590491" width="15.5137611" height="18.5060327"></rect>
                    <rect id="Rectangle-7" fill="#3B2469" x="68.2605487" y="27.7590491" width="15.5137611" height="18.5060327"></rect>
                    <rect id="Rectangle-7" fill="#3B2469" x="86.8770619" y="27.7590491" width="15.5137611" height="18.5060327"></rect>
                    <rect id="Rectangle-5" fill="#3B2469" x="0" y="0" width="108.596327" height="6.16867757"></rect>
                    <rect id="Rectangle-5" fill="#736F9C" x="0" y="6.16867757" width="108.596327" height="15.4216939"></rect>
                    <ellipse id="Oval-10" fill="#3B2469" cx="10.8596327" cy="13.8795245" rx="4.65412832" ry="4.62650818"></ellipse>
                    <rect id="Rectangle-6" fill="#FFFFFF" x="80.6715575" y="12.3373551" width="21.7192655" height="9.25301636"></rect>
                    <rect id="Rectangle-6" fill="#3B2469" x="18.6165133" y="9.25301636" width="40.3357788" height="3.08433879"></rect>
                    <rect id="Rectangle-6" fill="#CFD9DE" x="31.0275221" y="52.4337593" width="71.3633009" height="3.08433879"></rect>
                    <rect id="Rectangle-6" fill="#3B2469" x="31.0275221" y="86.361486" width="43.438531" height="3.08433879"></rect>
                    <rect id="Rectangle-6" fill="#3B2469" x="31.0275221" y="111.036196" width="43.438531" height="3.08433879"></rect>
                    <rect id="Rectangle-6" fill="#FFFFFF" x="7.23975516" y="27.7590491" width="16.5480118" height="2.05622586"></rect>
                    <rect id="Rectangle-6" fill="#FFFFFF" x="7.23975516" y="32.8996137" width="16.5480118" height="2.05622586"></rect>
                    <rect id="Rectangle-6" fill="#FFFFFF" x="7.23975516" y="38.0401783" width="16.5480118" height="2.05622586"></rect>
                    <rect id="Rectangle-6" fill="#FFFFFF" x="7.23975516" y="43.180743" width="16.5480118" height="2.05622586"></rect>
                    <rect id="Rectangle-6" fill="#FFFFFF" x="7.23975516" y="48.3213076" width="16.5480118" height="2.05622586"></rect>
                    <rect id="Rectangle-6" fill="#CFD9DE" x="31.0275221" y="58.6024369" width="71.3633009" height="3.08433879"></rect>
                    <rect id="Rectangle-6" fill="#CFD9DE" x="31.0275221" y="92.5301636" width="71.3633009" height="3.08433879"></rect>
                    <rect id="Rectangle-6" fill="#CFD9DE" x="31.0275221" y="117.204874" width="71.3633009" height="3.08433879"></rect>
                    <rect id="Rectangle-6" fill="#CFD9DE" x="31.0275221" y="64.7711145" width="71.3633009" height="3.08433879"></rect>
                    <rect id="Rectangle-6" fill="#CFD9DE" x="31.0275221" y="98.6988411" width="71.3633009" height="3.08433879"></rect>
                    <rect id="Rectangle-6" fill="#F3B607" x="31.0275221" y="70.9397921" width="71.3633009" height="6.16867757"></rect>
                    <rect id="Rectangle-6" fill="#3B2469" x="18.6165133" y="15.4216939" width="18.6165133" height="3.08433879"></rect>
                </g>
                <path d="M123.08229,56.0460942 L55.6013965,56.0460942 C53.8498179,56.0460942 52.2463253,57.036167 51.4619327,58.6045532 L44.7656734,71.9936679 C43.9812809,73.5620542 42.3777883,74.5521269 40.6262097,74.5521269 L-2.7907254,74.5521269 C-7.90200282,74.5521269 -12.0460942,78.695165 -12.0460942,83.8051433 L-12.0460942,167.08229 L104.571553,167.08229 C114.794108,167.08229 123.08229,158.796214 123.08229,148.576258 L123.08229,56.0460942 Z" id="folder-front" fill="#F4D0A1" transform="translate(55.518098, 111.564192) rotate(90.000000) translate(-55.518098, -111.564192) "></path>
                <g id="Group-5" transform="translate(21.478261, 77.187500)" fill="#D4A263">
                    <path d="M2.46469179,64.4584488 L2.46469179,67.6393093 L0.256469681,67.6393093 L0.256469681,58.1228541 L3.61453526,58.1228541 C4.28528064,58.1228541 4.86128548,58.2023204 5.34256706,58.3612554 C5.82384865,58.5201903 6.22019224,58.7389948 6.53160974,59.0176752 C6.84302723,59.2963557 7.07277586,59.6251066 7.2208625,60.0039379 C7.36894914,60.3827692 7.44299135,60.792075 7.44299135,61.2318676 C7.44299135,61.7064953 7.36677143,62.141927 7.2143293,62.5381758 C7.06188716,62.9344246 6.82887197,63.2740613 6.51527673,63.5570962 C6.20168149,63.840131 5.80424904,64.0611126 5.32296746,64.2200476 C4.84168587,64.3789826 4.27221417,64.4584488 3.61453526,64.4584488 L2.46469179,64.4584488 Z M2.46469179,62.7929059 L3.61453526,62.7929059 C4.18945987,62.7929059 4.60322516,62.6557449 4.85584355,62.3814188 C5.10846194,62.1070927 5.23476924,61.7239128 5.23476924,61.2318676 C5.23476924,61.0141485 5.20210355,60.8160271 5.13677121,60.6374974 C5.07143887,60.4589677 4.97235297,60.305478 4.83951054,60.1770237 C4.70666812,60.0485695 4.53898429,59.9495087 4.33645403,59.8798386 C4.13392377,59.8101685 3.89328659,59.775334 3.61453526,59.775334 L2.46469179,59.775334 L2.46469179,62.7929059 Z M14.7209778,58.1228541 L14.7209778,59.8210548 L10.8141233,59.8210548 L10.8141233,62.0417787 L13.8063296,62.0417787 L13.8063296,63.6746639 L10.8141233,63.6746639 L10.8141233,65.9411086 L14.7209778,65.9411086 L14.7209778,67.6393093 L8.59283482,67.6393093 L8.59283482,58.1228541 L14.7209778,58.1228541 Z M18.1835746,64.1188087 L18.1835746,67.6393093 L15.9753525,67.6393093 L15.9753525,58.1228541 L19.07209,58.1228541 C19.7602574,58.1228541 20.3471508,58.1936118 20.8327879,58.3351292 C21.3184249,58.4766466 21.7147685,58.6736795 22.0218305,58.9262337 C22.3288925,59.1787878 22.552108,59.4770586 22.6914837,59.8210548 C22.8308593,60.165051 22.9005461,60.5395222 22.9005461,60.9444798 C22.9005461,61.253641 22.8591696,61.5453802 22.7764153,61.8197063 C22.693661,62.0940324 22.5706203,62.3476714 22.4072894,62.5806308 C22.2439586,62.8135903 22.0436091,63.0215089 21.8062349,63.204393 C21.5688607,63.387277 21.2955578,63.537501 20.9863181,63.6550693 C21.1344047,63.7290938 21.2726894,63.8205345 21.4011764,63.929394 C21.5296633,64.0382536 21.6418155,64.1710603 21.7376363,64.327818 L23.7629287,67.6393093 L21.7637691,67.6393093 C21.3935525,67.6393093 21.1278716,67.4999711 20.9667185,67.2212907 L19.3856837,64.4584488 C19.3159959,64.3365261 19.2343317,64.2494398 19.1406887,64.1971872 C19.0470456,64.1449346 18.9152941,64.1188087 18.74543,64.1188087 L18.1835746,64.1188087 Z M18.1835746,62.5969597 L19.07209,62.5969597 C19.3726188,62.5969597 19.6285,62.5588594 19.8397412,62.4826577 C20.0509825,62.406456 20.2241106,62.3008638 20.3591307,62.165878 C20.4941509,62.0308921 20.592148,61.8730481 20.6531248,61.6923412 C20.7141017,61.5116344 20.7445896,61.3167787 20.7445896,61.1077683 C20.7445896,60.6897476 20.6084826,60.3631738 20.3362645,60.1280372 C20.0640464,59.8929005 19.6426592,59.775334 19.07209,59.775334 L18.1835746,59.775334 L18.1835746,62.5969597 Z M29.9694702,60.0561902 C29.9041378,60.1606954 29.8355399,60.2390731 29.7636743,60.2913257 C29.6918088,60.3435783 29.599256,60.3697042 29.4860133,60.3697042 C29.385837,60.3697042 29.2780403,60.3381354 29.1626198,60.2749969 C29.0471993,60.2118583 28.9165366,60.1411007 28.7706277,60.0627218 C28.6247188,59.9843429 28.4581238,59.9135852 28.2708378,59.8504467 C28.0835517,59.7873082 27.870136,59.7557394 27.630584,59.7557394 C27.2168125,59.7557394 26.9086663,59.8439143 26.706136,60.0202668 C26.5036058,60.1966192 26.4023421,60.4350181 26.4023421,60.7354705 C26.4023421,60.9270633 26.4633181,61.0859959 26.5852718,61.212273 C26.7072255,61.3385501 26.8672873,61.447408 27.0654621,61.53885 C27.2636369,61.6302921 27.4901189,61.7141127 27.7449151,61.7903144 C27.9997112,61.8665161 28.2599478,61.9514252 28.5256326,62.0450445 C28.7913175,62.1386637 29.0515541,62.2486102 29.3063502,62.3748873 C29.5611464,62.5011644 29.7876284,62.6622741 29.9858032,62.8582213 C30.1839779,63.0541685 30.3440398,63.2925674 30.4659935,63.573425 C30.5879472,63.8542827 30.6489231,64.1928309 30.6489231,64.5890797 C30.6489231,65.0288723 30.5727032,65.4403552 30.4202611,65.8235409 C30.2678189,66.2067266 30.0467812,66.5409204 29.7571411,66.8261324 C29.4675011,67.1113445 29.1103563,67.3355918 28.6856961,67.4988812 C28.2610359,67.6621705 27.7786726,67.7438139 27.2385919,67.7438139 C26.9424187,67.7438139 26.6408055,67.7133337 26.3337435,67.6523724 C26.0266815,67.591411 25.7294238,67.5054133 25.4419615,67.3943765 C25.1544992,67.2833398 24.8844629,67.1516217 24.6318445,66.9992183 C24.3792261,66.8468149 24.1592772,66.6769965 23.9719912,66.4897581 L24.6253113,65.4577746 C24.6732217,65.3793957 24.7407308,65.3162581 24.8278406,65.2683599 C24.9149504,65.2204617 25.008592,65.196513 25.1087682,65.196513 C25.2394329,65.196513 25.3711845,65.237879 25.5040269,65.3206122 C25.6368694,65.4033455 25.7871315,65.4947862 25.9548178,65.594937 C26.1225042,65.6950878 26.3152317,65.7865284 26.5330062,65.8692617 C26.7507807,65.951995 27.0077507,65.993361 27.303924,65.993361 C27.704629,65.993361 28.0160418,65.905186 28.2381718,65.7288336 C28.4603017,65.5524811 28.5713651,65.2727162 28.5713651,64.8895305 C28.5713651,64.667457 28.5103891,64.4867529 28.3884354,64.3474126 C28.2664817,64.2080724 28.1064199,64.092683 27.9082451,64.001241 C27.7100703,63.9097989 27.4846771,63.8292441 27.2320587,63.759574 C26.9794404,63.6899038 26.7202926,63.6126147 26.4546078,63.5277043 C26.1889229,63.4427938 25.9297752,63.3382902 25.6771568,63.2141903 C25.4245384,63.0900904 25.1991452,62.9268035 25.0009704,62.7243247 C24.8027957,62.5218459 24.6427338,62.2692955 24.5207801,61.966666 C24.3988264,61.6640364 24.3378505,61.2906537 24.3378505,60.8465067 C24.3378505,60.4894473 24.409715,60.141102 24.5534461,59.8014601 C24.6971773,59.4618183 24.9084153,59.1591933 25.1871667,58.8935759 C25.465918,58.6279586 25.8078188,58.4156857 26.2128793,58.2567507 C26.6179398,58.0978157 27.0817925,58.0183495 27.6044512,58.0183495 C27.896269,58.0183495 28.1804604,58.0412096 28.457034,58.0869306 C28.7336076,58.1326517 28.9960219,58.2001436 29.2442848,58.2894084 C29.4925477,58.3786732 29.724474,58.485354 29.9400708,58.6094539 C30.1556675,58.7335538 30.348395,58.8739805 30.5182591,59.0307383 L29.9694702,60.0561902 Z M41.1412448,62.8778159 C41.1412448,63.5658084 41.0225595,64.205893 40.7851853,64.798089 C40.5478111,65.390285 40.2135323,65.905183 39.7823389,66.3427984 C39.3511454,66.7804138 38.8317611,67.1233163 38.2241703,67.3715161 C37.6165795,67.6197159 36.9425776,67.7438139 36.2021444,67.7438139 C35.4617112,67.7438139 34.7866205,67.6197159 34.176852,67.3715161 C33.5670834,67.1233163 33.0455214,66.7804138 32.6121502,66.3427984 C32.178779,65.905183 31.8434113,65.390285 31.6060372,64.798089 C31.368663,64.205893 31.2499777,63.5658084 31.2499777,62.8778159 C31.2499777,62.1898235 31.368663,61.5497389 31.6060372,60.9575429 C31.8434113,60.3653469 32.178779,59.8515375 32.6121502,59.4160992 C33.0455214,58.980661 33.5670834,58.6388471 34.176852,58.3906473 C34.7866205,58.1424475 35.4617112,58.0183495 36.2021444,58.0183495 C36.9425776,58.0183495 37.6165795,58.1435361 38.2241703,58.3939131 C38.8317611,58.6442901 39.3511454,58.9871925 39.7823389,59.4226308 C40.2135323,59.858069 40.5478111,60.3718784 40.7851853,60.9640744 C41.0225595,61.5562704 41.1412448,62.1941779 41.1412448,62.8778159 Z M38.880757,62.8778159 C38.880757,62.4075426 38.8197811,61.9840853 38.6978274,61.6074312 C38.5758737,61.2307771 38.4005679,60.9118234 38.1719047,60.6505605 C37.9432415,60.3892975 37.6634055,60.1889989 37.3323883,60.0496587 C37.0013711,59.9103185 36.6246269,59.8406494 36.2021444,59.8406494 C35.7753065,59.8406494 35.3952957,59.9103185 35.0621008,60.0496587 C34.7289058,60.1889989 34.447981,60.3892975 34.2193178,60.6505605 C33.9906546,60.9118234 33.8153487,61.2307771 33.693395,61.6074312 C33.5714413,61.9840853 33.5104654,62.4075426 33.5104654,62.8778159 C33.5104654,63.3524436 33.5714413,63.7780781 33.693395,64.1547322 C33.8153487,64.5313863 33.9906546,64.85034 34.2193178,65.1116029 C34.447981,65.3728659 34.7289058,65.5720759 35.0621008,65.7092389 C35.3952957,65.846402 35.7753065,65.9149825 36.2021444,65.9149825 C36.6246269,65.9149825 37.0013711,65.846402 37.3323883,65.7092389 C37.6634055,65.5720759 37.9432415,65.3728659 38.1719047,65.1116029 C38.4005679,64.85034 38.5758737,64.5313863 38.6978274,64.1547322 C38.8197811,63.7780781 38.880757,63.3524436 38.880757,62.8778159 Z M43.3625333,58.1228541 C43.4583541,58.1228541 43.5389294,58.1272084 43.6042617,58.1359172 C43.6695941,58.144626 43.7283923,58.1609546 43.7806582,58.1849038 C43.8329241,58.2088529 43.8830114,58.2425988 43.9309218,58.2861426 C43.9788322,58.3296865 44.033275,58.3884697 44.0942519,58.4624942 L48.6152273,64.1775926 C48.5978053,63.9947085 48.5847391,63.8172701 48.5760281,63.645272 C48.5673171,63.4732739 48.5629617,63.3110756 48.5629617,63.1586722 L48.5629617,58.1228541 L50.5098557,58.1228541 L50.5098557,67.6393093 L49.3600123,67.6393093 C49.1901482,67.6393093 49.0464192,67.6131834 48.928821,67.5609308 C48.8112228,67.5086782 48.6979817,67.4128832 48.5890945,67.273543 L44.1007851,61.6041654 C44.1138515,61.769632 44.1247401,61.9318303 44.1334511,62.0907652 C44.142162,62.2497002 44.1465175,62.3988356 44.1465175,62.5381758 L44.1465175,67.6393093 L42.1996234,67.6393093 L42.1996234,58.1228541 L43.3625333,58.1228541 Z M60.9368454,67.6393093 L59.2251466,67.6393093 C59.033505,67.6393093 58.8756209,67.5946775 58.7514895,67.5054127 C58.627358,67.4161479 58.5413384,67.301847 58.493428,67.1625068 L57.9315727,65.5034954 L54.312179,65.5034954 L53.7503237,67.1625068 C53.7067688,67.2844295 53.621838,67.394376 53.4955288,67.4923496 C53.3692196,67.5903232 53.2146021,67.6393093 53.0316715,67.6393093 L51.3069063,67.6393093 L54.991632,58.1228541 L57.2521197,58.1228541 L60.9368454,67.6393093 Z M54.8217687,64.001241 L57.4219829,64.001241 L56.5465339,61.3951561 C56.4899126,61.2296896 56.4234924,61.0348339 56.3472713,60.8105832 C56.2710502,60.5863325 56.1959192,60.3435793 56.1218758,60.0823164 C56.052188,60.3479337 55.9803235,60.5939526 55.9062802,60.8203805 C55.8322369,61.0468084 55.7625501,61.2427527 55.6972177,61.4082192 L54.8217687,64.001241 Z M63.9159853,65.8757932 L67.4439141,65.8757932 L67.4439141,67.6393093 L61.7077631,67.6393093 L61.7077631,58.1228541 L63.9159853,58.1228541 L63.9159853,65.8757932 Z" id="PERSONAL"></path>
                    <g id="silhouette" transform="translate(6.005687, 0.146719)">
                        <path d="M38.7672619,18.0879282 C39.2480603,17.6867856 39.6902919,16.8845006 40.0913858,15.6785016 C40.5747553,13.2690749 40.1736614,11.4999335 38.8881043,10.3762202 C38.8881043,3.39736867 33.1056681,0.000514285297 27.4466455,0.000514285297 C21.7876228,0.000514285297 16.0051867,3.39736867 16.0051867,10.3762202 C14.7196295,11.4999335 14.3185357,13.2690749 14.8019052,15.6785016 C15.202999,16.8845006 15.6452307,17.6867856 16.1260291,18.0879282 C16.3677138,21.0604972 18.0955027,30.687918 27.4466455,30.687918 C36.7977883,30.687918 38.5255771,21.0604972 38.7672619,18.0879282 Z" id="Fill-1"></path>
                        <path d="M52.1234295,38.9465684 C51.3495241,37.4705696 49.8197111,36.1694278 47.5365615,35.043143 C45.6493636,34.114858 38.9361841,30.846575 36.8818637,29.8462901 C34.5498631,31.9188598 31.4542414,33.258573 27.4535875,33.258573 L27.4484453,33.258573 L27.4458742,33.258573 L27.4458742,33.258573 C23.4477914,33.258573 20.3573119,31.9240027 18.0253112,29.8565758 C16.400367,30.6948608 11.9729081,32.9654304 10.7310599,33.4617157 C9.14982457,34.0942866 7.56858926,34.904286 5.98735394,35.8891423 C4.40354752,36.8714272 3.33139284,37.8922835 2.77088991,38.9465684 C1.22307909,42.0399945 0.449173674,45.238849 0.449173674,48.543132 C0.449173674,49.3171314 0.837411938,49.7054168 1.61131735,49.7054168 L53.2830021,49.7054168 C54.0569075,49.7054168 54.4425746,49.3171314 54.4425746,48.543132 C54.4425746,45.238849 53.6712403,42.0399945 52.1234295,38.9465684" id="Fill-3"></path>
                    </g>
                </g>
            </g>
        </g>
    </g>
</svg>