<svg id="Layer_1" data-name="Layer 1" xmlns="http://www.w3.org/2000/svg" viewBox="0 0 77.84776 78.12336"><defs><style>.cls-1{fill:#8b88aa;}.cls-2,.cls-8{fill:#fff;}.cls-3{fill:#4a3b8f;}.cls-4{fill:#807d9c;}.cls-4,.cls-7,.cls-8,.cls-9{fill-rule:evenodd;}.cls-5{fill:#81b44c;}.cls-6{fill:#010101;}.cls-7{fill:#433584;}.cls-9{fill:#eaeaf4;}</style></defs><path class="cls-1" d="M63.82128,14.00657l-.06-1.34c-.01-.34-.01-.7-.02-1.06v-.16a1.96967,1.96967,0,0,0-.55-1.37,1.901,1.901,0,0,0-1.33-.62,39.00718,39.00718,0,0,1-13.02-2.84,34.42863,34.42863,0,0,1-9.94-6.46h-.04a34.11347,34.11347,0,0,1-9.93,6.46,39.00717,39.00717,0,0,1-13.02,2.84,1.91682,1.91682,0,0,0-1.32.62,1.97933,1.97933,0,0,0-.54,1.37v.16c-.00995.18-.02.36-.02.54,0,.17,0,.35-.01.52l-.06,1.34c-.05,2.6-.1,5.31-.05,8.07q.02992,1.275.09,2.55c.01.15.01.31.02.47.02.33.05.69.08,1.06.02.19.03.38.05.57.08.86.17,1.72.28,2.58s.24006,1.72.37,2.57c.07.43.14.86.21,1.28.15.86.31,1.71.48,2.56.09.42.18006.85.27,1.27l.02.11005q.21.765.45,1.53c.17.51.34,1.01.52,1.51.15.4.31.8.47,1.2.33.79.69,1.56,1.07,2.3a30.65818,30.65818,0,0,0,10.97,11.94l2.06,1.2.76.44.29.17a50.84762,50.84762,0,0,0,6.49,2.77h.04a49.07382,49.07382,0,0,0,6.49-2.77l3.12-1.81a33.28579,33.28579,0,0,0,5.95-4.87,29.45188,29.45188,0,0,0,4.43-5.97,31.15965,31.15965,0,0,0,2.13-4.6c.19-.5.36-1,.52-1.51.17-.51.31-1.02.46-1.53l.02-.11005c.09-.42.18-.85.27-1.27.17-.85.33-1.7.48-2.56.07-.42.14-.85.21-1.28.14-.85.25995-1.71.37-2.57.1-.86.2-1.72.28-2.58.07-.77.13-1.5.15-2.1C63.95128,20.9766,63.89129,17.40659,63.82128,14.00657Zm-4.98,23.61c-.07.22-.15.45-.23.67-.06995.22-.15.45-.23.67q-.195.54-.42,1.05c-.15.35-.3.69-.45,1.03-.31.68-.65,1.33-1.01,1.97a27.17016,27.17016,0,0,1-9.14,9.53l-2.75,1.6a42.4,42.4,0,0,1-5.72,2.45h-.03a40.93374,40.93374,0,0,1-4.34-1.79c-.25-.11005-.5-.22-.75-.35-.22-.1-.42-.2-.62-.31h-.01l-1.93-1.13h-.01l-.5-.29-.3-.18a29.514,29.514,0,0,1-4.46-3.51c-.53-.51-1.03-1.04-1.51995-1.59a26.13324,26.13324,0,0,1-2.6-3.49,28.949,28.949,0,0,1-1.57-2.91c-.32-.67-.6-1.37-.87-2.08-.25-.68-.47-1.37-.67-2.06v-.01l-.18-.63-.02-.09c-.08-.33-.15-.67-.22-1.01-.06-.33-.13-.66-.19-1q-.15006-.735-.27-1.47c-.15-.88995-.28-1.77-.4-2.65-.14-.97-.25-1.93-.34-2.91-.06-.68-.11-1.33-.13-1.84-.03-.79-.06-1.57-.08-2.34-.02-.78-.02-1.56-.02-2.33,0-1.6.03-3.16.06006-4.7l.06-1.17c.00995-.15.00995-.31.00995-.46,0-.16,0-.31.01-.48v-.13a1.76279,1.76279,0,0,1,1.64-1.77,34.481,34.481,0,0,0,11.48-2.49,30.26552,30.26552,0,0,0,8.74-5.69h.03a30.02138,30.02138,0,0,0,2.73,2.24,21.79826,21.79826,0,0,0,1.83,1.24c.36.23.73.46,1.1.66.71.42,1.44.8,2.18005,1.15.31.14.61.27.92.4a34.31235,34.31235,0,0,0,11.47,2.49,1.78119,1.78119,0,0,1,1.65,1.77v.13c0,.17.01.32.01.48,0,.15.01.31.01.46l.06,1.17c.01.75995.03,1.52.04,2.29.02,1.46.03,2.96,0,4.48,0,.27-.01.55-.03.83,0,.59-.02,1.18-.04,1.77-.01.13-.02.26-.03.41q-.015.21-.03.45c-.02.31-.05.64-.07.98-.02.11-.02.21-.04.32-.01.1-.02.21-.04.31-.04.41-.08.82-.14,1.23-.28,2.41-.69,4.8-1.2,7.18005l-.03.09C59.11126,36.71659,58.98131,37.1666,58.8413,37.61656Z"/><path class="cls-1" d="M60.89129,18.20658c-.01-.77-.03-1.53-.04-2.29l-.06-1.17c0-.15-.01-.31-.01-.46,0-.16-.01-.31-.01-.48v-.13a1.78119,1.78119,0,0,0-1.65-1.77,34.31235,34.31235,0,0,1-11.47-2.49c-.31-.13-.61-.26-.92-.4-.74005-.35-1.47-.73-2.18005-1.15-.37-.2-.74-.43-1.1-.66a21.79826,21.79826,0,0,1-1.83-1.24,30.02138,30.02138,0,0,1-2.73-2.24h-.03a30.26552,30.26552,0,0,1-8.74,5.69,34.481,34.481,0,0,1-11.48,2.49,1.76279,1.76279,0,0,0-1.64,1.77v.13c-.01.17-.01.32-.01.48,0,.15,0,.31-.00995.46l-.06,1.17c-.03,1.54-.06006,3.1-.06006,4.7,0,.77,0,1.55.02,2.33.02.77.05,1.55.08,2.34.02.51.07,1.16.13,1.84.09.98.2,1.94.34,2.91.12.88.25,1.76.4,2.65q.12.735.27,1.47c.06.34.13.67.19,1,.07.34.14.68.22,1.01l.02.09.18.63v.01c.2.69.42,1.38.67,2.06.27.71.55,1.41.87,2.08a28.949,28.949,0,0,0,1.57,2.91,26.13324,26.13324,0,0,0,2.6,3.49c.49.55.99,1.08,1.51995,1.59a29.514,29.514,0,0,0,4.46,3.51l.3.18.5.29h.01l1.93,1.13h.01c.2.11.4.21.62.31.25.13.5.24.75.35a40.93374,40.93374,0,0,0,4.34,1.79h.03a42.4,42.4,0,0,0,5.72-2.45l2.75-1.6a27.17016,27.17016,0,0,0,9.14-9.53c.36-.64.7-1.29,1.01-1.97.15-.34.3-.68.45-1.03q.225-.51.42-1.05c.08-.22.16-.45.23-.67.08-.22.16-.45.23-.67.14-.45.27-.9.4-1.36l.03-.09c.51-2.38.92-4.77,1.2-7.18005.06-.41.1-.82.14-1.23.02-.1.03-.21.04-.31.02-.11.02-.21.04-.32.02-.34.05-.67.07-.98q.015-.24.03-.45c.00995-.15.02-.28.03-.41.02-.59.04-1.18.04-1.77.02-.28.03-.56.03-.83C60.92132,21.1666,60.91131,19.6666,60.89129,18.20658Z"/><path class="cls-2" d="M46.7412,9.01659,18.70736,36.89348,18.53,36.25834l-.02368-.09412c-.14194-.67046-.28388-1.34093-.40221-2.01132-.09458-.4823-.18923-.9763-.272-1.4703L43.45281,7.2052c.36668.23527.73336.45875,1.10005.6587C45.26262,8.28732,45.996,8.66373,46.7412,9.01659Z"/><path class="cls-2" d="M60.86457,23.51964c0,.58812-.02368,1.17624-.04736,1.76436-.02361.51755-.071,1.16447-.1301,1.84671-.02361.21171-.03545.41165-.071.62344-.04729.41165-.08281.82331-.14194,1.235l-25.952,25.8067q-.37254-.15884-.74521-.35286c-.21291-.09412-.42582-.2-.62688-.30583L31.21022,53.008Z"/><path class="cls-1" d="M38.89129,3.7266v52.86h-.03a40.93374,40.93374,0,0,1-4.34-1.79c-.25-.11005-.5-.22-.75-.35-.22-.1-.42-.2-.62-.31h-.01l-1.93-1.13h-.01l-.5-.29-.3-.18a29.514,29.514,0,0,1-4.46-3.51c-.53-.51-1.03-1.04-1.51995-1.59a25.29723,25.29723,0,0,1-2.6-3.49,27.06046,27.06046,0,0,1-1.57-2.91c-.32-.67-.6-1.37-.87-2.08-.25-.68-.48-1.37-.68-2.06l-.18-.64-.02-.09c-.07-.33-.14-.67-.21-1.01-.06-.33-.13-.66-.19-1q-.15006-.735-.27-1.47c-.16-.88995-.29-1.77-.41-2.65-.14-.97-.24006-1.93-.34-2.91-.06-.68-.11-1.33-.13-1.84-.04-.79-.06-1.57-.07-2.34-.02-.78-.02-1.56-.02-2.33,0-1.6.02-3.17.05-4.7l.06-1.17c.01-.15.02-.31.02-.46,0-.16,0-.31.01-.48v-.13a1.76279,1.76279,0,0,1,1.64-1.77,34.481,34.481,0,0,0,11.48-2.49,30.26552,30.26552,0,0,0,8.74-5.69Z"/><path class="cls-3" d="M60.88879,22.68748c0,.26995-.01.55-.03.83,0,.59-.02,1.18-.04,1.77-.01.13-.02.26-.03.41q-.01493.20994-.03.45c-.02.31-.05.64-.07.98-.02.11-.02.21-.04.32-.01.1-.02.21-.04.31-.04.41-.08.81995-.14,1.23-.28,2.41-.68994,4.8-1.19995,7.18l-.03.09c-.13.46-.26.91-.4,1.36-.07.22-.15.45-.23.67-.07.22-.15.45-.23.67q-.195.54008-.42,1.05c-.15.35-.3.69-.45,1.03-.31.68-.65,1.33-1.01,1.97a27.17,27.17,0,0,1-9.14,9.53l-2.75,1.6a42.39232,42.39232,0,0,1-5.72,2.45h-.03a40.93374,40.93374,0,0,1-4.34-1.79c-.25-.11-.5-.22-.75-.35-.22-.1-.42-.2-.62-.31h-.01l-1.93-1.13h-.01l-.5-.29-.3-.18a29.51022,29.51022,0,0,1-4.46-3.51c-.53-.51-1.03-1.04-1.52-1.59-.48-.55-.94-1.11005-1.37-1.69-.44-.58-.84-1.18-1.23-1.8-.15-.23-.29-.47-.42-.7-.27-.48-.54-.96-.79-1.46l-.36-.75c-.32-.67-.6-1.37-.87-2.08-.25-.68-.47-1.37-.67-2.06v-.01l-.18-.63-.02-.09c-.08-.33-.15-.67-.22-1.01-.06-.33-.13-.66-.19-1q-.15-.735-.27-1.47c-.15-.89-.28-1.77-.4-2.65-.14-.97-.25-1.93-.34-2.91-.06-.68-.11-1.33-.13-1.84-.03-.79-.06-1.57-.08-2.34-.02-.78-.02-1.56005-.02-2.33,0-1.6.03-3.16.06-4.7l.06-1.17c.01-.15.01-.31.01-.46,0-.16,0-.31.01-.48v-.13a1.76284,1.76284,0,0,1,1.64-1.77,34.48012,34.48012,0,0,0,11.48-2.49,30.26576,30.26576,0,0,0,8.74-5.69h.03a30.02138,30.02138,0,0,0,2.73,2.24,21.78606,21.78606,0,0,0,1.83,1.24c.36.23005.73.46,1.1.66.71.42,1.44.8,2.18,1.15.31.14.61005.27.92005.4a34.31047,34.31047,0,0,0,11.47,2.49,1.78129,1.78129,0,0,1,1.65,1.77v.13c0,.17.01.32.01.48,0,.15.01.31.01.46l.06,1.17c.01.76.03,1.52.04,2.29C60.90874,19.66746,60.91875,21.16746,60.88879,22.68748Z"/><path class="cls-3" d="M16.98876,14.28745c0,.15,0,.31-.01.46l-.06,1.17c-.03,1.54-.06,3.1-.06,4.7,0-1.6.02-3.17.05-4.7l.06-1.17C16.97875,14.59745,16.98876,14.43748,16.98876,14.28745Z"/><path class="cls-3" d="M17.82879,32.68748c-.16-.89-.29-1.77-.41-2.65-.13995-.97-.24-1.93-.34-2.91-.06-.68-.11005-1.33-.13-1.84-.04-.79-.06-1.57-.07-2.34.02.77.05,1.55.08,2.34.02.51.07,1.16.13,1.84.09.98.2,1.94.34,2.91C17.54876,30.91746,17.67876,31.79746,17.82879,32.68748Z"/><path class="cls-3" d="M19.37878,38.95743c-.25-.68-.48-1.37-.68-2.06l-.18-.64-.02-.09c-.07-.33-.14-.67-.21-1.01.07.34.14.68.22,1.01l.02.09.18.63v.01C18.90874,37.58744,19.12878,38.27744,19.37878,38.95743Z"/><path class="cls-3" d="M24.41875,47.43748c-.49-.55-.94-1.11005-1.37-1.69C23.47875,46.32743,23.93877,46.88743,24.41875,47.43748Z"/><path class="cls-2" d="M46.72875,9.01743l-7.84,7.80005-20.19,20.08-.18-.64-.02-.09c-.14-.67-.28-1.34-.4-2.01q-.15-.735-.27-1.47l21.06-20.94,4.56-4.54c.36.23005.73.46,1.1.66C45.25878,8.28745,45.98876,8.66746,46.72875,9.01743Z"/><path class="cls-2" d="M60.85876,23.51743c0,.59-.03,1.18-.05,1.77-.02.51-.07,1.16-.13,1.84-.02.22-.03.42-.07.63-.05.41-.08.81995-.14,1.23l-21.57995,21.46-4.37,4.35c-.25-.11-.5-.22-.75-.35-.21-.1-.43-.2-.63-.31l-1.94-1.13,7.69-7.65Z"/><path class="cls-4" d="M63.78291,24.62663c-.02.6-.08,1.33-.15,2.1a86.85531,86.85531,0,0,1-1.61,10.26l-.03.11c-.28,1.02-.6,2.04-.98,3.04a30.56794,30.56794,0,0,1-12.5,15.44l-3.12,1.81a49.07378,49.07378,0,0,1-6.49,2.77h-.01V56.58665a42.40707,42.40707,0,0,0,5.72-2.45l2.75-1.6a26.8318,26.8318,0,0,0,11.01-13.58c.34-.89.62-1.79.87-2.7l.02-.09c.51-2.38.92-4.77,1.21-7.18.06-.41.09-.82.13995-1.23.04-.21.05-.41.07-.63.06-.68.11-1.33.13-1.84.02-.59.05-1.18.05-1.77.01-.28.02-.56.02-.83.05-2.32.01-4.58-.03-6.77l-.06-1.17c-.00995-.31-.00995-.61-.03-.94v-.13a1.76289,1.76289,0,0,0-1.64-1.77,34.31022,34.31022,0,0,1-11.47-2.49c-.31-.13-.61005-.26-.92-.4-.74-.35-1.47-.73-2.18-1.15-.37-.2-.74-.43-1.1-.66a21.81289,21.81289,0,0,1-1.83-1.24,30.03354,30.03354,0,0,1-2.73-2.24v-3.57h.01a34.42738,34.42738,0,0,0,9.94,6.46,39.00718,39.00718,0,0,0,13.02,2.84,1.97894,1.97894,0,0,1,1.87,1.99v.16c.01.36.01.72.03,1.06l.06,1.34C63.8929,17.40659,63.9529,20.9766,63.78291,24.62663Z"/><g id="IDH"><g id="Group-9"><path id="Shape" class="cls-5" d="M5.99482,67.53777A5.63688,5.63688,0,0,0,3.26913,78.12336l-.25474-3.427a.97545.97545,0,0,1,.99348-.95617h3.9739a.97553.97553,0,0,1,.99348.95617l-.25474,3.427A5.63688,5.63688,0,0,0,5.99482,67.53777Zm0,5.79627a2.39043,2.39043,0,1,1,2.39453-2.39466A2.38761,2.38761,0,0,1,5.99482,73.334Z"/><path id="Shape-2" data-name="Shape" class="cls-6" d="M13.24635,69.73781a.5128.5128,0,0,1,.535-.58385H15.556a2.08242,2.08242,0,0,1,2.19923,2.05619,1.86913,1.86913,0,0,1-1.13783,1.887v.02538a2.06629,2.06629,0,0,1,1.76618,2.13235A2.46946,2.46946,0,0,1,15.7173,77.768h-1.936c-.38211,0-.535-.25385-.535-.58386v-7.4463Zm1.002,3.06314h1.14632a1.292,1.292,0,0,0,1.35011-1.38772,1.20775,1.20775,0,0,0-1.31614-1.32849H14.24831V72.801Zm0,4.05315h1.418a1.58657,1.58657,0,0,0,1.70674-1.59926,1.53823,1.53823,0,0,0-1.66428-1.58233h-1.469V76.8541Z"/><path id="Shape-3" data-name="Shape" class="cls-6" d="M19.71668,74.96715a1.79123,1.79123,0,0,0,1.80014,1.96311c1.34162,0,1.68127-.87155,2.06338-.87155.1868,0,.36512.16923.36512.47385,0,.51616-1.24821,1.32-2.437,1.32-1.94449,0-2.79362-1.58234-2.79362-3.29161,0-1.74311,1.02744-3.2916,2.73418-3.2916a2.87492,2.87492,0,0,1,2.6238,3.13083c0,.37232-.12737.56694-.56042.56694Zm3.34555-.7954a1.78355,1.78355,0,0,0-1.61334-1.9885c-1.24821-.05077-1.69825,1.00694-1.73221,1.9885Z"/><path id="Shape-4" data-name="Shape" class="cls-6" d="M25.35487,74.96715A1.79123,1.79123,0,0,0,27.155,76.93026c1.34162,0,1.68127-.87155,2.06338-.87155.1868,0,.36512.16923.36512.47385,0,.51616-1.24821,1.32-2.437,1.32-1.9445,0-2.79367-1.58234-2.79367-3.29161-.00844-1.74311,1.02749-3.30006,2.72574-3.30006a2.87493,2.87493,0,0,1,2.6238,3.13083c0,.37231-.12737.56693-.56043.56693H25.35487Zm3.34555-.7954a1.78355,1.78355,0,0,0-1.61334-1.9885c-1.24821-.05077-1.69825,1.00694-1.73221,1.9885Z"/><path id="Shape-5" data-name="Shape" class="cls-6" d="M30.18639,71.83632a.50482.50482,0,1,1,1.002,0v.25385l.02548.02538a2.03647,2.03647,0,0,1,1.68127-.84617,2.15505,2.15505,0,0,1,2.12281,2.44543v3.57084a.50482.50482,0,1,1-1.002,0V73.76558a1.419,1.419,0,1,0-2.81909,0v3.51161a.50482.50482,0,1,1-1.002,0V71.83632Z"/><path id="Shape-6" data-name="Shape" class="cls-5" d="M35.08584,70.40629a1.16074,1.16074,0,0,1-.07642-.44847.87881.87881,0,0,1,.88309-.87156.86411.86411,0,0,1,.78119.59232l1.77467,5.03471L40.223,69.67858a.86412.86412,0,0,1,.7812-.59232.87881.87881,0,0,1,.88309.87156,1.3457,1.3457,0,0,1-.07642.44847l-2.50492,6.744c-.15284.38924-.33965.70233-.84913.70233-.501,0-.69628-.31309-.84912-.70233l-2.5219-6.744Z"/><path id="Shape-7" data-name="Shape" class="cls-5" d="M42.677,75.13638a1.43613,1.43613,0,0,0,1.5539,1.26079c.84913,0,1.435-.70232,1.86808-.70232a.7565.7565,0,0,1,.6793.75309c0,.75309-1.469,1.47234-2.69173,1.47234a3.09938,3.09938,0,0,1-3.09081-3.35083,2.976,2.976,0,1,1,5.9184-.20309c0,.51617-.22078.77848-.72176.77848H42.677Zm2.58983-1.15925a1.3405,1.3405,0,0,0-1.31614-1.32849,1.36869,1.36869,0,0,0-1.30765,1.32849Z"/><path id="Shape-8" data-name="Shape" class="cls-5" d="M47.47457,72.13248a.82893.82893,0,0,1,.84912-.87156c.43306,0,.79818.16923.79818.72771h.02548a1.29659,1.29659,0,0,1,1.1548-.72771.8302.8302,0,0,1,.79818.93079c0,.56693-.49249.60078-.985.84617s-.99348.47385-.99348,1.15925V76.871a.834.834,0,1,1-1.6473,0V72.13248Z"/><path id="Shape-9" data-name="Shape" class="cls-5" d="M53.04483,69.61089a.97933.97933,0,0,1-.92555,1.00694.997.997,0,0,1-.92554-1.00694.97337.97337,0,0,1,.92554-.95617.96158.96158,0,0,1,.92555.95617ZM51.28714,72.234a.834.834,0,1,1,1.6473,0v4.64547a.834.834,0,1,1-1.6473,0V72.234Z"/><path id="Shape-10" data-name="Shape" class="cls-5" d="M54.2336,72.86018h-.36512a.68446.68446,0,0,1-.72176-.76155.72491.72491,0,0,1,.72176-.76155h.36512v-.89694c0-1.28618.72176-1.9885,1.73222-1.9885.58589,0,1.14632.17769,1.14632.78693,0,.50771-.22078.73617-.6793.73617-.27172,0-.55194,0-.55194.64309v.71078h.518c.49249,0,.83215.20308.83215.76156,0,.54155-.35664.76155-.83215.76155h-.518V76.871a.834.834,0,1,1-1.6473,0V72.86018Z"/><path id="Shape-11" data-name="Shape" class="cls-5" d="M59.29439,69.61089a.97933.97933,0,0,1-.92555,1.00694.997.997,0,0,1-.92555-1.00694.97338.97338,0,0,1,.92555-.95617.96158.96158,0,0,1,.92555.95617ZM57.54519,72.234a.834.834,0,1,1,1.6473,0v4.64547a.834.834,0,1,1-1.6473,0V72.234Z"/><path id="Shape-12" data-name="Shape" class="cls-5" d="M61.43418,75.13638a1.43613,1.43613,0,0,0,1.5539,1.26079c.84912,0,1.435-.70232,1.86808-.70232a.75651.75651,0,0,1,.6793.75309c0,.75309-1.469,1.47234-2.69173,1.47234a3.09938,3.09938,0,0,1-3.09081-3.35083,2.976,2.976,0,1,1,5.91839-.20309c0,.51617-.22077.77848-.72175.77848H61.43418ZM64.024,73.97713a1.3405,1.3405,0,0,0-1.31614-1.32849,1.3687,1.3687,0,0,0-1.30766,1.32849Z"/><path id="Shape-13" data-name="Shape" class="cls-6" d="M74.27294,77.69181a.28022.28022,0,1,1,.28022.27924.28221.28221,0,0,1-.28022-.27924Z"/><path id="Shape-14" data-name="Shape" class="cls-6" d="M73.41533,75.78793c0,.12693-.1019.24539-.1019.40616,0,.29616.26324.43155.52647.43155a.47194.47194,0,0,0,.518-.43155,2.74122,2.74122,0,0,0-.11039-.38077.22628.22628,0,0,1,.22927-.22c.26323,0,.35663.44.35663.62617a.94236.94236,0,0,1-.99347.92232.96031.96031,0,0,1-1.002-.92232c0-.20308.07643-.62617.32268-.62617.11887,0,.25473.07616.25473.19462Z"/><path id="Shape-15" data-name="Shape" class="cls-6" d="M73.8399,73.64712a.92487.92487,0,1,1,0,1.84465.96032.96032,0,0,1-1.002-.92232.97091.97091,0,0,1,1.002-.92233Zm0,1.32849c.24624,0,.518-.12693.518-.40616s-.27172-.40617-.518-.40617-.52647.12693-.52647.40617.28022.40616.52647.40616Z"/><path id="Shape-16" data-name="Shape" class="cls-6" d="M73.1521,73.43558a.26441.26441,0,0,1-.2887-.25385.21346.21346,0,0,1,.1953-.23693.63418.63418,0,0,1-.21228-.47386.66829.66829,0,0,1,.26323-.53308.78406.78406,0,0,1-.26323-.54155.64769.64769,0,0,1,.69628-.70232h.985a.26442.26442,0,0,1,.28871.25385.25516.25516,0,0,1-.28871.25385h-.90007c-.20379,0-.35663.11-.35663.29616s.14435.30462.35663.30462h.90007a.26442.26442,0,0,1,.28871.25385.25516.25516,0,0,1-.28871.25385h-.90007c-.20379,0-.35663.11-.35663.29616,0,.21154.14435.30462.35663.30462h.90007a.26442.26442,0,0,1,.28871.25385.25516.25516,0,0,1-.28871.25385H73.1521Z"/><polygon id="Shape-17" data-name="Shape" class="cls-5" points="7.404 76.583 8.406 75.864 7.133 75.864 6.751 74.849 6.368 75.864 5.086 75.864 6.097 76.583 5.604 77.886 6.751 77.057 7.897 77.886 7.404 76.583"/><path id="Shape-18" data-name="Shape" class="cls-5" d="M71.06326,68.4601a.85955.85955,0,0,0-.82366.96463V71.794a2.3164,2.3164,0,0,0-1.57088-.60924c-1.77467,0-2.65776,1.75157-2.65776,3.45237,0,1.65,1.05292,3.28314,2.7172,3.28314a1.75755,1.75755,0,0,0,1.51144-.7954.80416.80416,0,0,0,.82366.72771.85955.85955,0,0,0,.82365-.96464V69.42473a.855.855,0,0,0-.82365-.96463Zm-1.39257,6.16012.535,1.42156-1.25671-.9054-1.2567.9054.535-1.42156-1.10386-.7954h1.401l.41608-1.10849.41606,1.10849h1.40106l-1.08688.7954Z"/><polygon id="Shape-19" data-name="Shape" class="cls-6" points="76.362 68.655 76.362 68.832 76.065 68.832 76.065 69.636 75.861 69.636 75.861 68.832 75.564 68.832 75.564 68.655 76.362 68.655"/><polygon id="Shape-20" data-name="Shape" class="cls-6" points="77.134 68.655 77.432 68.655 77.432 69.636 77.236 69.636 77.236 68.976 77.236 68.9 77.236 68.824 77.05 69.645 76.846 69.645 76.667 68.807 76.667 68.883 76.667 68.959 76.667 69.619 76.472 69.619 76.472 68.655 76.769 68.655 76.948 69.425 77.134 68.655"/></g></g><path class="cls-7" d="M60.47292,28.98661c-.29,2.41-.7,4.8-1.21,7.18l-.02.09c-.25.91-.53,1.81-.87,2.7a26.8318,26.8318,0,0,1-11.01,13.58l-2.75,1.6a42.40707,42.40707,0,0,1-5.72,2.45v-6.14Z"/><path class="cls-7" d="M38.89129,24.68656v-7.87l7.84-7.8c.31.14.61.27.92.4a34.31235,34.31235,0,0,0,11.47,2.49,1.73662,1.73662,0,0,1,1.17.56,1.80957,1.80957,0,0,1,.47,1.21v.13c.01.17.01.32.02.48,0,.15.01.31.01.46l.06,1.17c.01.75995.03,1.52.04,2.29.02,1.47.02,2.96-.01,4.48,0,.27-.01.55-.02.83l-21.97,21.84V33.55656l.02-.00995Z"/><path class="cls-7" d="M43.4529,7.20664l-4.56,4.54v-8.02a30.03354,30.03354,0,0,0,2.73,2.24A21.81289,21.81289,0,0,0,43.4529,7.20664Z"/><polygon class="cls-8" points="41.822 31.022 46.239 28.136 40.625 28.136 38.94 24.061 37.256 28.136 31.604 28.136 36.058 31.022 33.888 36.252 38.94 32.924 43.993 36.252 41.822 31.022"/><polygon class="cls-8" points="38.944 24.057 38.944 32.927 33.884 36.257 36.054 31.027 31.604 28.137 37.254 28.137 38.944 24.057"/><polygon class="cls-9" points="41.824 31.027 43.994 36.257 38.944 32.927 38.944 24.057 40.624 28.137 46.244 28.137 41.824 31.027"/><path class="cls-9" d="M60.86287,23.51664c0,.59-.03,1.18-.05,1.77-.02.51-.07,1.16-.13,1.84-.02.22-.03.42-.07.63-.05.41-.08.82-.13995,1.23l-21.58,21.46v-5.09Z"/><path class="cls-9" d="M46.73286,9.01664l-7.84,7.8v-5.07l4.56-4.54c.36.23.73.46,1.1.66C45.26289,8.2866,45.99287,8.6666,46.73286,9.01664Z"/></svg>