<?xml version="1.0" encoding="UTF-8"?>
<svg width="200px" height="200px" viewBox="0 0 200 200" version="1.1" xmlns="http://www.w3.org/2000/svg" xmlns:xlink="http://www.w3.org/1999/xlink">
    <!-- Generator: Sketch 51.3 (57544) - http://www.bohemiancoding.com/sketch -->
    <title>assets/img_darkweb</title>
    <desc>Created with Sketch.</desc>
    <defs>
        <circle id="path-1" cx="100" cy="100" r="100"></circle>
    </defs>
    <g id="Freshness" stroke="none" stroke-width="1" fill="none" fill-rule="evenodd">
        <g id="Circular-Icons" transform="translate(0.000000, -4750.000000)">
            <g id="assets/img_darkweb" transform="translate(0.000000, 4750.000000)">
                <mask id="mask-2" fill="white">
                    <use xlink:href="#path-1"></use>
                </mask>
                <use id="background" fill="#8B88AA" xlink:href="#path-1"></use>
                <g id="Group" mask="url(#mask-2)">
                    <g transform="translate(52.000000, 47.000000)">
                        <path d="M105,0.12882 C113.2875,0.12882 120,6.87115333 120,15.1954867 L120,82.9954867 C120,91.31982 113.2875,98.0621533 105,98.0621533 L15,98.0621533 C6.7125,98.0621533 0,91.31982 0,82.9954867 L0,15.1954867 C0,6.87115333 6.7125,0.12882 15,0.12882 L105,0.12882 Z" id="Fill-6281" fill="#FFFFFF"></path>
                        <path d="M16.0134375,36.9172883 C16.6171875,36.9172883 17.0615625,37.3805883 17.0615625,37.9531217 C17.0615625,38.5444883 16.6171875,39.005905 16.0134375,39.005905 C15.4265625,39.005905 14.9821875,38.5444883 14.9821875,37.9531217 C14.9821875,37.3805883 15.4265625,36.9172883 16.0134375,36.9172883 M18.1246875,37.9531217 C18.1246875,34.7476883 17.3465625,33.440655 16.0134375,33.440655 C14.6953125,33.440655 13.9021875,34.7476883 13.9021875,37.9531217 C13.9021875,41.175505 14.6953125,42.4844217 16.0134375,42.4844217 C17.3465625,42.4844217 18.1246875,41.175505 18.1246875,37.9531217 M12.3928125,37.9531217 C12.3928125,34.3182883 13.6321875,32.276755 16.0134375,32.276755 C18.3946875,32.276755 19.6340625,34.3182883 19.6340625,37.9531217 C19.6340625,41.6067883 18.3946875,43.6483217 16.0134375,43.6483217 C13.6321875,43.6483217 12.3928125,41.6067883 12.3928125,37.9531217" id="Fill-6282" fill="#353167"></path>
                        <polygon id="Fill-6283" fill="#353167" points="25.5005625 34.0783517 22.8811875 35.673535 22.1818125 34.6527683 25.6749375 32.4681017 26.9611875 32.4681017 26.9611875 42.2765017 29.1999375 42.2765017 29.1999375 43.4554683 22.8174375 43.4554683 22.8174375 42.2765017 25.5005625 42.2765017"></polygon>
                        <path d="M35.0829375,36.9172883 C35.6866875,36.9172883 36.1310625,37.3805883 36.1310625,37.9531217 C36.1310625,38.5444883 35.6866875,39.005905 35.0829375,39.005905 C34.4960625,39.005905 34.0516875,38.5444883 34.0516875,37.9531217 C34.0516875,37.3805883 34.4960625,36.9172883 35.0829375,36.9172883 M37.1941875,37.9531217 C37.1941875,34.7476883 36.4160625,33.440655 35.0829375,33.440655 C33.7648125,33.440655 32.9716875,34.7476883 32.9716875,37.9531217 C32.9716875,41.175505 33.7648125,42.4844217 35.0829375,42.4844217 C36.4160625,42.4844217 37.1941875,41.175505 37.1941875,37.9531217 M31.4623125,37.9531217 C31.4623125,34.3182883 32.7016875,32.276755 35.0829375,32.276755 C37.4641875,32.276755 38.7035625,34.3182883 38.7035625,37.9531217 C38.7035625,41.6067883 37.4641875,43.6483217 35.0829375,43.6483217 C32.7016875,43.6483217 31.4623125,41.6067883 31.4623125,37.9531217" id="Fill-6284" fill="#353167"></path>
                        <polygon id="Fill-6285" fill="#353167" points="44.57025 34.0783517 41.950875 35.673535 41.2515 34.6527683 44.744625 32.4681017 46.030875 32.4681017 46.030875 42.2765017 48.269625 42.2765017 48.269625 43.4554683 41.887125 43.4554683 41.887125 42.2765017 44.57025 42.2765017"></polygon>
                        <polygon id="Fill-6286" fill="#353167" points="54.105 34.0783517 51.485625 35.673535 50.78625 34.6527683 54.279375 32.4681017 55.565625 32.4681017 55.565625 42.2765017 57.804375 42.2765017 57.804375 43.4554683 51.421875 43.4554683 51.421875 42.2765017 54.105 42.2765017"></polygon>
                        <path d="M63.687375,36.9172883 C64.291125,36.9172883 64.7355,37.3805883 64.7355,37.9531217 C64.7355,38.5444883 64.291125,39.005905 63.687375,39.005905 C63.1005,39.005905 62.656125,38.5444883 62.656125,37.9531217 C62.656125,37.3805883 63.1005,36.9172883 63.687375,36.9172883 M65.798625,37.9531217 C65.798625,34.7476883 65.0205,33.440655 63.687375,33.440655 C62.36925,33.440655 61.576125,34.7476883 61.576125,37.9531217 C61.576125,41.175505 62.36925,42.4844217 63.687375,42.4844217 C65.0205,42.4844217 65.798625,41.175505 65.798625,37.9531217 M60.06675,37.9531217 C60.06675,34.3182883 61.306125,32.276755 63.687375,32.276755 C66.068625,32.276755 67.308,34.3182883 67.308,37.9531217 C67.308,41.6067883 66.068625,43.6483217 63.687375,43.6483217 C61.306125,43.6483217 60.06675,41.6067883 60.06675,37.9531217" id="Fill-6287" fill="#353167"></path>
                        <polygon id="Fill-6288" fill="#353167" points="73.1745 34.0783517 70.555125 35.673535 69.85575 34.6527683 73.348875 32.4681017 74.635125 32.4681017 74.635125 42.2765017 76.873875 42.2765017 76.873875 43.4554683 70.491375 43.4554683 70.491375 42.2765017 73.1745 42.2765017"></polygon>
                        <path d="M82.756875,36.9172883 C83.360625,36.9172883 83.805,37.3805883 83.805,37.9531217 C83.805,38.5444883 83.360625,39.005905 82.756875,39.005905 C82.17,39.005905 81.725625,38.5444883 81.725625,37.9531217 C81.725625,37.3805883 82.17,36.9172883 82.756875,36.9172883 M84.868125,37.9531217 C84.868125,34.7476883 84.09,33.440655 82.756875,33.440655 C81.43875,33.440655 80.645625,34.7476883 80.645625,37.9531217 C80.645625,41.175505 81.43875,42.4844217 82.756875,42.4844217 C84.09,42.4844217 84.868125,41.175505 84.868125,37.9531217 M79.13625,37.9531217 C79.13625,34.3182883 80.375625,32.276755 82.756875,32.276755 C85.138125,32.276755 86.3775,34.3182883 86.3775,37.9531217 C86.3775,41.6067883 85.138125,43.6483217 82.756875,43.6483217 C80.375625,43.6483217 79.13625,41.6067883 79.13625,37.9531217" id="Fill-6289" fill="#353167"></path>
                        <polygon id="Fill-6290" fill="#353167" points="92.244 34.0783517 89.624625 35.673535 88.92525 34.6527683 92.418375 32.4681017 93.704625 32.4681017 93.704625 42.2765017 95.943375 42.2765017 95.943375 43.4554683 89.560875 43.4554683 89.560875 42.2765017 92.244 42.2765017"></polygon>
                        <path d="M16.0134375,56.0715417 C16.6171875,56.0715417 17.0615625,56.5348417 17.0615625,57.107375 C17.0615625,57.6987417 16.6171875,58.1601583 16.0134375,58.1601583 C15.4265625,58.1601583 14.9821875,57.6987417 14.9821875,57.107375 C14.9821875,56.5348417 15.4265625,56.0715417 16.0134375,56.0715417 M18.1246875,57.107375 C18.1246875,53.9019417 17.3465625,52.5949083 16.0134375,52.5949083 C14.6953125,52.5949083 13.9021875,53.9019417 13.9021875,57.107375 C13.9021875,60.3297583 14.6953125,61.638675 16.0134375,61.638675 C17.3465625,61.638675 18.1246875,60.3297583 18.1246875,57.107375 M12.3928125,57.107375 C12.3928125,53.4725417 13.6321875,51.4310083 16.0134375,51.4310083 C18.3946875,51.4310083 19.6340625,53.4725417 19.6340625,57.107375 C19.6340625,60.7610417 18.3946875,62.802575 16.0134375,62.802575 C13.6321875,62.802575 12.3928125,60.7610417 12.3928125,57.107375" id="Fill-6291" fill="#353167"></path>
                        <polygon id="Fill-6292" fill="#353167" points="25.5005625 53.232605 22.8811875 54.8277883 22.1818125 53.8070217 25.6749375 51.622355 26.9611875 51.622355 26.9611875 61.430755 29.1999375 61.430755 29.1999375 62.611605 22.8174375 62.611605 22.8174375 61.430755 25.5005625 61.430755"></polygon>
                        <path d="M35.0829375,56.0715417 C35.6866875,56.0715417 36.1310625,56.5348417 36.1310625,57.107375 C36.1310625,57.6987417 35.6866875,58.1601583 35.0829375,58.1601583 C34.4960625,58.1601583 34.0516875,57.6987417 34.0516875,57.107375 C34.0516875,56.5348417 34.4960625,56.0715417 35.0829375,56.0715417 M37.1941875,57.107375 C37.1941875,53.9019417 36.4160625,52.5949083 35.0829375,52.5949083 C33.7648125,52.5949083 32.9716875,53.9019417 32.9716875,57.107375 C32.9716875,60.3297583 33.7648125,61.638675 35.0829375,61.638675 C36.4160625,61.638675 37.1941875,60.3297583 37.1941875,57.107375 M31.4623125,57.107375 C31.4623125,53.4725417 32.7016875,51.4310083 35.0829375,51.4310083 C37.4641875,51.4310083 38.7035625,53.4725417 38.7035625,57.107375 C38.7035625,60.7610417 37.4641875,62.802575 35.0829375,62.802575 C32.7016875,62.802575 31.4623125,60.7610417 31.4623125,57.107375" id="Fill-6293" fill="#353167"></path>
                        <polygon id="Fill-6294" fill="#353167" points="44.57025 53.232605 41.950875 54.8277883 41.2515 53.8070217 44.744625 51.622355 46.030875 51.622355 46.030875 61.430755 48.269625 61.430755 48.269625 62.611605 41.887125 62.611605 41.887125 61.430755 44.57025 61.430755"></polygon>
                        <path d="M54.1524375,56.0715417 C54.7561875,56.0715417 55.2005625,56.5348417 55.2005625,57.107375 C55.2005625,57.6987417 54.7561875,58.1601583 54.1524375,58.1601583 C53.5655625,58.1601583 53.1211875,57.6987417 53.1211875,57.107375 C53.1211875,56.5348417 53.5655625,56.0715417 54.1524375,56.0715417 M56.2636875,57.107375 C56.2636875,53.9019417 55.4855625,52.5949083 54.1524375,52.5949083 C52.8343125,52.5949083 52.0411875,53.9019417 52.0411875,57.107375 C52.0411875,60.3297583 52.8343125,61.638675 54.1524375,61.638675 C55.4855625,61.638675 56.2636875,60.3297583 56.2636875,57.107375 M50.5318125,57.107375 C50.5318125,53.4725417 51.7711875,51.4310083 54.1524375,51.4310083 C56.5336875,51.4310083 57.7730625,53.4725417 57.7730625,57.107375 C57.7730625,60.7610417 56.5336875,62.802575 54.1524375,62.802575 C51.7711875,62.802575 50.5318125,60.7610417 50.5318125,57.107375" id="Fill-6295" fill="#353167"></path>
                        <path d="M63.687375,56.0715417 C64.291125,56.0715417 64.7355,56.5348417 64.7355,57.107375 C64.7355,57.6987417 64.291125,58.1601583 63.687375,58.1601583 C63.1005,58.1601583 62.656125,57.6987417 62.656125,57.107375 C62.656125,56.5348417 63.1005,56.0715417 63.687375,56.0715417 M65.798625,57.107375 C65.798625,53.9019417 65.0205,52.5949083 63.687375,52.5949083 C62.36925,52.5949083 61.576125,53.9019417 61.576125,57.107375 C61.576125,60.3297583 62.36925,61.638675 63.687375,61.638675 C65.0205,61.638675 65.798625,60.3297583 65.798625,57.107375 M60.06675,57.107375 C60.06675,53.4725417 61.306125,51.4310083 63.687375,51.4310083 C66.068625,51.4310083 67.308,53.4725417 67.308,57.107375 C67.308,60.7610417 66.068625,62.802575 63.687375,62.802575 C61.306125,62.802575 60.06675,60.7610417 60.06675,57.107375" id="Fill-6296" fill="#353167"></path>
                        <polygon id="Fill-6297" fill="#353167" points="73.1745 53.232605 70.555125 54.8277883 69.85575 53.8070217 73.348875 51.622355 74.635125 51.622355 74.635125 61.430755 76.873875 61.430755 76.873875 62.611605 70.491375 62.611605 70.491375 61.430755 73.1745 61.430755"></polygon>
                        <polygon id="Fill-6299" fill="#353167" points="15.9658125 72.3878 13.3464375 73.9829833 12.6470625 72.9622167 16.1401875 70.77755 17.4264375 70.77755 17.4264375 80.58595 19.6651875 80.58595 19.6651875 81.7668 13.2826875 81.7668 13.2826875 80.58595 15.9658125 80.58595"></polygon>
                        <path d="M25.5481875,75.2267367 C26.1519375,75.2267367 26.5963125,75.6900367 26.5963125,76.26257 C26.5963125,76.8539367 26.1519375,77.3153533 25.5481875,77.3153533 C24.9613125,77.3153533 24.5169375,76.8539367 24.5169375,76.26257 C24.5169375,75.6900367 24.9613125,75.2267367 25.5481875,75.2267367 M27.6594375,76.26257 C27.6594375,73.0571367 26.8813125,71.7501033 25.5481875,71.7501033 C24.2300625,71.7501033 23.4369375,73.0571367 23.4369375,76.26257 C23.4369375,79.4849533 24.2300625,80.79387 25.5481875,80.79387 C26.8813125,80.79387 27.6594375,79.4849533 27.6594375,76.26257 M21.9275625,76.26257 C21.9275625,72.6277367 23.1669375,70.5862033 25.5481875,70.5862033 C27.9294375,70.5862033 29.1688125,72.6277367 29.1688125,76.26257 C29.1688125,79.9162367 27.9294375,81.95777 25.5481875,81.95777 C23.1669375,81.95777 21.9275625,79.9162367 21.9275625,76.26257" id="Fill-6300" fill="#353167"></path>
                        <polygon id="Fill-6301" fill="#353167" points="35.0353125 72.3878 32.4159375 73.9829833 31.7165625 72.9622167 35.2096875 70.77755 36.4959375 70.77755 36.4959375 80.58595 38.7346875 80.58595 38.7346875 81.7668 32.3521875 81.7668 32.3521875 80.58595 35.0353125 80.58595"></polygon>
                        <path d="M44.6176875,75.2267367 C45.2214375,75.2267367 45.6658125,75.6900367 45.6658125,76.26257 C45.6658125,76.8539367 45.2214375,77.3153533 44.6176875,77.3153533 C44.0308125,77.3153533 43.5864375,76.8539367 43.5864375,76.26257 C43.5864375,75.6900367 44.0308125,75.2267367 44.6176875,75.2267367 M46.7289375,76.26257 C46.7289375,73.0571367 45.9508125,71.7501033 44.6176875,71.7501033 C43.2995625,71.7501033 42.5064375,73.0571367 42.5064375,76.26257 C42.5064375,79.4849533 43.2995625,80.79387 44.6176875,80.79387 C45.9508125,80.79387 46.7289375,79.4849533 46.7289375,76.26257 M40.9970625,76.26257 C40.9970625,72.6277367 42.2364375,70.5862033 44.6176875,70.5862033 C46.9989375,70.5862033 48.2383125,72.6277367 48.2383125,76.26257 C48.2383125,79.9162367 46.9989375,81.95777 44.6176875,81.95777 C42.2364375,81.95777 40.9970625,79.9162367 40.9970625,76.26257" id="Fill-6302" fill="#353167"></path>
                        <path d="M54.1524375,75.2267367 C54.7561875,75.2267367 55.2005625,75.6900367 55.2005625,76.26257 C55.2005625,76.8539367 54.7561875,77.3153533 54.1524375,77.3153533 C53.5655625,77.3153533 53.1211875,76.8539367 53.1211875,76.26257 C53.1211875,75.6900367 53.5655625,75.2267367 54.1524375,75.2267367 M56.2636875,76.26257 C56.2636875,73.0571367 55.4855625,71.7501033 54.1524375,71.7501033 C52.8343125,71.7501033 52.0411875,73.0571367 52.0411875,76.26257 C52.0411875,79.4849533 52.8343125,80.79387 54.1524375,80.79387 C55.4855625,80.79387 56.2636875,79.4849533 56.2636875,76.26257 M50.5318125,76.26257 C50.5318125,72.6277367 51.7711875,70.5862033 54.1524375,70.5862033 C56.5336875,70.5862033 57.7730625,72.6277367 57.7730625,76.26257 C57.7730625,79.9162367 56.5336875,81.95777 54.1524375,81.95777 C51.7711875,81.95777 50.5318125,79.9162367 50.5318125,76.26257" id="Fill-6303" fill="#353167"></path>
                        <polygon id="Fill-6304" fill="#353167" points="63.63975 72.3878 61.020375 73.9829833 60.321 72.9622167 63.814125 70.77755 65.100375 70.77755 65.100375 80.58595 67.339125 80.58595 67.339125 81.7668 60.956625 81.7668 60.956625 80.58595 63.63975 80.58595"></polygon>
                        <path d="M105,0 L15,0 C6.71625,0 0,6.74421667 0,15.0666667 L0,22.6 L120,22.6 L120,15.0666667 C120,6.74421667 113.28375,0 105,0" id="Fill-6305" fill="#353167"></path>
                        <path d="M16.625,11.42882 C16.625,13.5099033 14.945,15.1954867 12.875,15.1954867 C10.805,15.1954867 9.125,13.5099033 9.125,11.42882 C9.125,9.34773667 10.805,7.66215333 12.875,7.66215333 C14.945,7.66215333 16.625,9.34773667 16.625,11.42882" id="Fill-6306" fill="#E7114C"></path>
                        <path d="M27.625,11.42882 C27.625,13.5099033 25.945,15.1954867 23.875,15.1954867 C21.805,15.1954867 20.125,13.5099033 20.125,11.42882 C20.125,9.34773667 21.805,7.66215333 23.875,7.66215333 C25.945,7.66215333 27.625,9.34773667 27.625,11.42882" id="Fill-6307" fill="#F2DA3E"></path>
                        <path d="M38.625,11.42882 C38.625,13.5099033 36.945,15.1954867 34.875,15.1954867 C32.805,15.1954867 31.125,13.5099033 31.125,11.42882 C31.125,9.34773667 32.805,7.66215333 34.875,7.66215333 C36.945,7.66215333 38.625,9.34773667 38.625,11.42882" id="Fill-6308" fill="#81B44C"></path>
                        <g id="Group" stroke-width="1" fill="none" transform="translate(80.000000, 50.000000)">
                            <path d="M10,17.5 L10,10 C10,7.243125 12.243125,5 15,5 C17.756875,5 20,7.243125 20,10 L20,17.5 L10,17.5 Z M27.5,17.5 L25,17.5 L25,10 C25,4.48625 20.51375,0 15,0 C9.48625,0 5,4.48625 5,10 L5,17.5 L2.5,17.5 C1.119375,17.5 0,18.619375 0,20 L0,37.5 C0,38.8775 1.149375,40 2.5,40 L27.5,40 C28.880625,40 30,38.880625 30,37.5 L30,20 C30,18.619375 28.880625,17.5 27.5,17.5 L27.5,17.5 Z" id="Fill-6769" fill="#E1C618"></path>
                            <path d="M15,17.5 L2.5,17.5 C1.119375,17.5 0,18.619375 0,20 L0,37.5 C0,38.8775 1.149375,40 2.5,40 L15,40 L15,17.5 Z" id="Fill-6770" fill="#F2DA3E"></path>
                        </g>
                    </g>
                </g>
                <path d="M38,144 C38,102 10,74 10,74 L10,130 L-9.4285,117.05 C-10.454,116.364 -11.658,116 -12.89,116 C-15.711,116 -18,118.289 -18,121.11 C-18,122.3315 -17.5625,123.511 -16.768,124.435 C-5.2425,140.787 3,158 20.5,172 L31,214 L80,214 L38,144 Z" id="Fill-2203" fill="#000000" mask="url(#mask-2)" transform="translate(31.000000, 144.000000) scale(-1, 1) translate(-31.000000, -144.000000) "></path>
            </g>
        </g>
    </g>
</svg>