<svg xmlns="http://www.w3.org/2000/svg" xmlns:xlink="http://www.w3.org/1999/xlink" width="66" height="60" viewBox="0 0 66 60">
    <defs>
        <path id="prefix__a" d="M1.953.579c-.083.288.083.586.372.67l1.796.514L.866 8.734c-.217.077-.362.281-.362.51-.002 1.76 1.059 3.346 2.684 4.017 1.626.672 3.496.298 4.736-.95.827-.806 1.295-1.91 1.296-3.066 0-.241-.16-.455-.395-.52L5.801 2.246l5.627 1.615-.002.117c.002 1.102.761 2.059 1.833 2.312v10.73h-1.494c-1.196 0-2.19.96-2.19 2.155v.314c-1.006.212-1.728 1.096-1.733 2.125v.756c.008.307.256.552.564.556h10.79c.307-.004.556-.249.564-.556v-.756c-.006-1.029-.728-1.913-1.733-2.125v-.314c0-1.195-.995-2.154-2.19-2.154h-1.495V6.29c.65-.154 1.205-.572 1.53-1.154l6.133 1.76-3.26 6.985c-.219.076-.364.282-.364.511 0 1.76 1.06 3.345 2.684 4.016 1.627.672 3.497.297 4.738-.95.827-.806 1.294-1.911 1.296-3.066-.002-.243-.162-.455-.396-.521L23.67 7.372l1.31.377c.287.082.587-.083.669-.37.082-.288-.083-.588-.371-.671l-9.106-2.614c.002-.038.004-.077.004-.116 0-1.08-.73-2.027-1.775-2.299-1.047-.273-2.145.197-2.673 1.14L2.622.206c-.05-.014-.1-.021-.149-.021-.236 0-.452.154-.52.393zm1.35 12.405C1.782 12.357.801 10.89.801 9.244c0-.102.067-.193.164-.228l.119-.042L4.54 1.573 2.407.96C2.344.94 2.292.9 2.261.845 2.23.788 2.223.724 2.24.66c.019-.063.059-.114.116-.144.055-.032.123-.04.185-.021l9.333 2.676.115-.206c.461-.824 1.425-1.234 2.336-.996.914.238 1.552 1.063 1.552 2.009l-.013.34 9.332 2.677c.128.038.203.172.166.3-.018.064-.06.115-.115.145-.057.032-.123.04-.186.021l-1.941-.557 3.37 7.218.13.037c.108.03.18.124.18.232-.002 1.068-.442 2.108-1.21 2.856-1.16 1.165-2.89 1.512-4.41.884-1.519-.627-2.5-2.095-2.5-3.738 0-.104.066-.196.162-.23l.12-.04 3.463-7.419-6.697-1.922-.116.208c-.284.507-.771.875-1.338 1.009l-.23.053V17.32h1.794c1.043 0 1.89.832 1.89 1.855v.557l.238.05c.86.182 1.49.953 1.496 1.832v.748c-.005.146-.122.263-.265.265H8.409c-.147-.002-.264-.119-.268-.257v-.755c.005-.88.634-1.651 1.496-1.833l.238-.05v-.557c0-1.023.847-1.855 1.89-1.855h1.794V6.052L13.328 6c-.943-.223-1.601-1.054-1.602-2.021l.006-.341-6.48-1.86 3.36 7.199.133.037c.103.029.176.125.176.232-.001 1.068-.44 2.107-1.208 2.856-.776.78-1.807 1.192-2.86 1.192-.521 0-1.048-.101-1.55-.309zM1.605 8.978H8.09L4.848 2.034 1.606 8.978zm3.242-6.237L7.62 8.678H2.076L4.848 2.74zm7.967-.015c-.533.42-.741 1.133-.519 1.772.221.64.827 1.071 1.505 1.071h.001c.685-.001 1.292-.439 1.508-1.088l.037-.13c.16-.66-.117-1.348-.687-1.713-.262-.17-.561-.252-.86-.252-.349 0-.698.114-.985.34zM12.58 4.4c-.181-.52-.012-1.098.42-1.438.433-.342 1.035-.37 1.498-.073.464.297.688.855.558 1.391-.014.035-.023.07-.03.107-.176.526-.67.88-1.224.882-.551 0-1.043-.348-1.222-.869zm6.905 9.724h6.484l-3.242-6.943-3.242 6.943zm3.241-6.237l2.773 5.938h-5.545l2.772-5.938zM1.279 9.462l.056.347c.282 1.725 1.748 2.97 3.492 2.97h.026c1.746 0 3.23-1.247 3.53-2.966l.062-.351H1.279zm.352.299H8.09c-.276 1.573-1.642 2.722-3.24 2.72h-.02c-1.587 0-2.942-1.151-3.198-2.72zm17.527 4.848l.056.347c.281 1.725 1.747 2.97 3.49 2.97h.027c1.744 0 3.23-1.247 3.532-2.966l.06-.351h-7.165zm.351.299h6.458c-.275 1.575-1.642 2.721-3.241 2.719h-.021c-1.586 0-2.94-1.15-3.196-2.72zm-7.744 2.898c-.776 0-1.405.615-1.405 1.369v.583h6.882v-.583c0-.754-.629-1.369-1.404-1.369h-4.073zm-1.106 1.369c0-.598.507-1.07 1.106-1.07h4.073c.598 0 1.105.472 1.105 1.07v.283H10.66v-.283zm-.63 1.068c-.773 0-1.403.615-1.403 1.37v.529h10.35v-.528c0-.756-.63-1.37-1.404-1.37H10.03zm-1.104 1.37c0-.598.508-1.07 1.105-1.07h7.543c.595 0 1.104.472 1.104 1.07v.23H8.925v-.23z"/>
        <path id="prefix__c" d="M1.989.485h1.603l-.97-.278c-.05-.014-.1-.021-.149-.021-.203 0-.392.114-.484.299zM.504 9.245c0 .553.104 1.09.298 1.586V8.76c-.182.091-.298.278-.298.484z"/>
    </defs>
    <g fill="none" fill-rule="evenodd">
        <g>
            <path fill="#FFF" d="M33.855 15.77c-.651 0-.968.302-.968.889 0 .652.317.978.968.978h5.672v5.662c0 .652.325.978.97.978.594 0 .887-.326.887-.978v-7.528h-7.529zm7.53 31.139v8.551h-9.387V42.17H20.655v13.29H11.18V37.477c0-.652-.325-.978-.97-.978-.594 0-.888.326-.888.978v19.841h13.2v-13.2h7.53v13.2h13.28v-10.41h-1.947zm7.358-11.029L26.947 14.092c-.474-.473-.914-.473-1.33 0l-6.876 6.902-1.63 1.637v2.714l9.216-9.216 20.997 21.08c.237.179.473.268.71.268.235 0 .472-.09.709-.268.464-.407.464-.856 0-1.329zm-36.43-8.425l-1.623 1.63-6.77 6.795c-.473.473-.473.922 0 1.33.472.414.912.414 1.327 0l8.124-8.125 1.63-1.63h-2.688z" transform="translate(0 .705)"/>
            <path fill="#8B88AA" d="M1.63 27.455H17.11V11.974H1.63v15.481zM0 29.085h18.74v-18.74H0v18.74z" transform="translate(0 .705)"/>
            <path fill="#8B88AA" d="M4.481 10.914h-1.63V6.832c0-3.594 2.925-6.518 6.52-6.518 3.594 0 6.518 2.924 6.518 6.518h-1.63c0-2.696-2.192-4.888-4.889-4.888-2.696 0-4.889 2.192-4.889 4.888v4.082zM10.593 19.454l-.424.269.44 4.375H8.132l.44-4.375-.424-.27c-.635-.415-1.018-1.115-1.018-1.873 0-1.239 1.002-2.24 2.24-2.24 1.239 0 2.241 1.001 2.241 2.24 0 .758-.383 1.458-1.018 1.874m2.648-1.874c0-2.135-1.736-3.87-3.87-3.87-2.135 0-3.871 1.735-3.871 3.87 0 1.14.497 2.2 1.353 2.933l-.522 5.215h6.079l-.522-5.215c.856-.733 1.353-1.792 1.353-2.933M60.207 51.85c-1.594.01-2.96-1.144-3.216-2.72h6.458c-.276 1.575-1.643 2.722-3.242 2.72zm2.773-3.803h-5.544l2.771-5.937 2.773 5.937zM51.283 39.49c-.551 0-1.042-.348-1.222-.87-.18-.519-.012-1.096.42-1.437.434-.34 1.035-.37 1.498-.072.465.297.688.855.558 1.39-.014.035-.023.07-.029.107-.177.527-.67.881-1.225.882zm3.141 13.907v.282H48.14v-.282c0-.6.507-1.07 1.106-1.07h4.074c.597 0 1.104.47 1.104 1.07zm1.734 2.438v.229h-9.751v-.23c0-.597.508-1.07 1.105-1.07h7.542c.596 0 1.104.473 1.104 1.07zM42.33 46.702c-1.595.01-2.96-1.143-3.218-2.719h6.459c-.276 1.574-1.643 2.722-3.24 2.72zm0-9.74l2.771 5.938h-5.544l2.773-5.937zm21.854 11.131l-3.033-6.498 1.31.377c.288.082.587-.084.67-.372.081-.288-.083-.587-.372-.67l-9.105-2.613c.002-.039.004-.077.004-.117 0-1.08-.73-2.027-1.776-2.298-1.047-.273-2.145.196-2.672 1.14l-9.106-2.613c-.288-.083-.588.083-.67.371-.083.289.083.587.372.67l1.796.516-3.255 6.97c-.217.076-.361.282-.361.512-.002 1.759 1.058 3.344 2.684 4.015 1.626.672 3.496.297 4.736-.95.827-.805 1.294-1.91 1.296-3.065 0-.242-.16-.455-.396-.52l-3.023-6.48 5.627 1.615-.003.117c.002 1.103.761 2.059 1.834 2.312v10.73h-1.495c-1.196 0-2.19.96-2.19 2.156v.313c-1.005.212-1.727 1.096-1.733 2.125v.757c.009.307.257.551.564.555h10.791c.307-.004.555-.248.563-.555v-.757c-.005-1.029-.727-1.913-1.733-2.125v-.313c0-1.196-.994-2.156-2.188-2.156h-1.496v-10.73c.649-.153 1.205-.571 1.53-1.154l6.132 1.76-3.26 6.985c-.218.076-.363.282-.363.512 0 1.758 1.06 3.345 2.684 4.015 1.626.672 3.496.298 4.737-.95.827-.805 1.294-1.91 1.296-3.065-.001-.243-.162-.455-.396-.522z" transform="translate(0 .705)"/>
            <path fill="#8B88AA" d="M51.282 37.206c-.219 0-.436.072-.616.213-.331.262-.46.706-.322 1.105.138.4.515.668.938.669.427-.002.805-.274.942-.679 0-.015.014-.068.035-.119.088-.374-.085-.803-.441-1.032-.163-.105-.349-.157-.536-.157zm.001 2.585c-.68 0-1.284-.43-1.506-1.07-.221-.64-.013-1.352.519-1.772.534-.42 1.276-.455 1.846-.09.57.366.847 1.054.686 1.714l-.037.13c-.216.65-.823 1.086-1.508 1.088zM40.027 42.6h4.604l-2.301-4.93-2.303 4.93zm5.544.599h-6.484l3.243-6.945 3.241 6.945zm-6.085 1.082c.358 1.25 1.493 2.121 2.822 2.121h.027c1.332 0 2.481-.872 2.857-2.12h-5.706zm2.822 2.72c-1.744 0-3.21-1.246-3.491-2.97l-.057-.348h7.167l-.061.35c-.302 1.72-1.786 2.968-3.531 2.968h-.027zm15.598.745h4.604l-2.302-4.93-2.302 4.93zm5.545.599h-6.484l3.24-6.943 3.244 6.943zm-6.086 1.083c.358 1.25 1.493 2.121 2.822 2.121h.026c1.332 0 2.48-.872 2.859-2.12h-5.707zm2.822 2.72c-1.745 0-3.21-1.246-3.491-2.97l-.057-.348h7.166l-.06.351c-.302 1.72-1.788 2.967-3.532 2.967h-.026zM48.44 53.381h5.685c-.009-.417-.367-.754-.806-.754h-4.073c-.438 0-.798.337-.806.754zm6.284.599h-6.883v-.583c0-.754.63-1.368 1.405-1.368h4.073c.775 0 1.405.614 1.405 1.368v.583zm-8.014 1.785h9.145c-.037-.392-.382-.7-.802-.7h-7.542c-.42 0-.764.308-.801.7zm9.747.6h-10.35v-.53c0-.755.63-1.37 1.404-1.37h7.542c.774 0 1.404.615 1.404 1.37v.53zm-7.21-4.823c-1.043 0-1.89.833-1.89 1.855v.558l-.238.05c-.862.181-1.491.952-1.496 1.832v.756c.004.138.121.254.268.256h10.788c.142-.002.259-.118.264-.266v-.748c-.007-.878-.636-1.649-1.496-1.83l-.238-.05v-.558c0-1.022-.847-1.855-1.89-1.855h-1.794V40.275l.23-.055c.567-.133 1.054-.5 1.339-1.009l.115-.206 6.697 1.922-3.463 7.418-.12.041c-.096.034-.161.126-.161.23 0 1.643.98 3.11 2.5 3.738 1.52.628 3.25.28 4.41-.884.767-.748 1.207-1.788 1.21-2.856 0-.109-.073-.202-.18-.233l-.131-.037-3.37-7.218 1.942.558c.062.018.129.01.186-.022.055-.03.096-.082.114-.144.037-.129-.037-.263-.166-.3l-9.331-2.678.013-.34c0-.946-.638-1.771-1.552-2.008-.912-.239-1.875.17-2.337.995l-.115.207-9.333-2.677c-.061-.018-.13-.01-.185.02-.057.032-.097.083-.115.145-.018.064-.01.13.02.185.032.057.083.097.147.116l2.133.612-3.456 7.402-.119.041c-.097.035-.163.127-.163.23-.001 1.644.98 3.112 2.5 3.738 1.52.628 3.25.282 4.41-.883.768-.749 1.207-1.788 1.208-2.856 0-.107-.072-.203-.176-.231l-.132-.038L42.734 36l6.48 1.86-.007.34c0 .968.66 1.8 1.603 2.021l.23.055v11.267h-1.794zm-3.36 5.906c-.472-.007-.85-.379-.863-.847v-.766c.006-1.078.72-2.032 1.733-2.354v-.084c0-1.352 1.116-2.454 2.49-2.454h1.195V40.738c-1.056-.35-1.786-1.31-1.83-2.43l-4.78-1.37 2.696 5.774c.284.138.473.431.473.755-.002 1.228-.507 2.424-1.386 3.282-1.329 1.333-3.314 1.733-5.06 1.01-1.745-.719-2.87-2.404-2.87-4.292 0-.31.17-.591.438-.737l3.06-6.553-1.46-.419c-.216-.062-.395-.204-.504-.4-.108-.197-.135-.424-.072-.641.06-.215.202-.394.4-.503.198-.109.427-.134.64-.073l8.888 2.55c.632-.925 1.785-1.365 2.883-1.079 1.141.297 1.95 1.307 1.996 2.48l8.889 2.55c.445.13.703.596.575 1.04-.06.216-.203.395-.4.504-.195.109-.423.135-.639.074l-.678-.196 2.703 5.794c.285.14.475.432.475.756-.001 1.23-.508 2.425-1.387 3.28-1.328 1.335-3.314 1.734-5.06 1.013-1.742-.72-2.869-2.405-2.869-4.293.001-.312.172-.593.438-.738l3.067-6.567-5.58-1.601c-.328.482-.809.845-1.365 1.03v10.205h1.196c1.373 0 2.49 1.102 2.49 2.454v.084c1.01.322 1.725 1.275 1.733 2.353v.76c-.015.476-.392.847-.859.854H45.887z" transform="translate(0 .705)"/>
        </g>
        <g transform="translate(37.481 34.927)">
            <mask id="prefix__b" fill="#fff">
                <use xlink:href="#prefix__a"/>
            </mask>
            <path fill="#8B88AA" d="M0.503 23.475L28.027 23.475 28.027 0.185 0.503 0.185z" mask="url(#prefix__b)"/>
            <path fill="#8B88AA" d="M.802 23.176h26.925V.485H.802v22.69zm-.598.599h28.123V-.113H.204v23.888z" mask="url(#prefix__b)"/>
        </g>
        <g transform="translate(37.481 34.927)">
            <mask id="prefix__d" fill="#fff">
                <use xlink:href="#prefix__c"/>
            </mask>
            <path fill="#8B88AA" d="M-4.789 28.219L32.392 28.219 32.392 -5.107 -4.789 -5.107z" mask="url(#prefix__d)"/>
            <path fill="#8B88AA" d="M-4.491 27.92h36.583V-4.808H-4.49V27.92zm-.598.599h37.78V-5.407h-37.78v33.926z" mask="url(#prefix__d)"/>
        </g>
    </g>
</svg>
