<?xml version="1.0" encoding="UTF-8"?>
<svg width="60px" height="60px" viewBox="0 0 60 60" version="1.1" xmlns="http://www.w3.org/2000/svg" xmlns:xlink="http://www.w3.org/1999/xlink">
    <!-- Generator: Sketch 49 (51002) - http://www.bohemiancoding.com/sketch -->
    <title>assets/img_onboard_phone</title>
    <desc>Created with Sketch.</desc>
    <defs></defs>
    <g id="assets/img_onboard_phone" stroke="none" stroke-width="1" fill="none" fill-rule="evenodd">
        <circle id="Oval-8" fill="#FFFFFF" cx="30" cy="30" r="20"></circle>
        <g id="assets/img_generic_caller" opacity="0.24" transform="translate(10.000000, 10.000000)">
            <circle id="Oval-8" fill="#353167" cx="20" cy="20" r="20"></circle>
            <g id="Group-13" transform="translate(9.400000, 7.800000)" fill="#FFFFFF">
                <path d="M14.4826214,22.2826781 C13.5734831,23.1865041 12.0971884,23.1861684 11.1883877,22.2826781 C6.76726812,17.8877278 4.06956147,13.8384666 1.0194076,16.8724758 C-0.388018139,18.2720132 -0.277625187,20.3625933 0.97889642,21.6117727 L4.03749012,24.6524944 C4.23464451,24.8484967 4.55502038,24.8498392 4.75386273,24.6524944 C4.9520299,24.4554851 4.95135471,24.1366457 4.75386273,23.9406433 L1.69493144,20.8999217 C0.833393784,20.0430826 0.72603917,18.5881677 1.7357802,17.5843268 C2.64491849,16.6805009 4.12087562,16.6808365 5.03001391,17.5843268 L10.4720151,22.9945291 C11.7727614,24.2876749 13.8908206,24.2950585 15.1996692,22.9938579 C16.407915,21.7591101 16.5037914,20.3793743 15.9079395,19.2047026 C15.4829098,19.2003395 15.0680079,19.1748323 14.6635713,19.1298592 C15.4302453,20.0706034 15.5352367,21.236549 14.4826214,22.2826781 Z" id="Fill-3244"></path>
                <g id="Group-12" transform="translate(11.690169, 10.334363) rotate(4.000000) translate(-11.690169, -10.334363) translate(2.190169, 0.834363)">
                    <path d="M18.1714286,14.3314856 C18.1714286,14.7954545 17.9649351,15.6976164 17.7713474,16.1229213 C17.5003247,16.7544346 16.7775974,17.1668514 16.1968344,17.4890521 C15.4353896,17.901469 14.661039,18.1463415 13.7963474,18.1463415 C12.5961039,18.1463415 11.512013,17.6565965 10.4150162,17.2570676 C9.62775974,16.973531 8.86631494,16.6255543 8.15649351,16.1873614 C5.9625,14.8341186 3.31680195,12.1920732 1.96168831,10.0011086 C1.52288961,9.29226718 1.17443182,8.53187361 0.890503247,7.74570399 C0.490422078,6.65022173 0,5.56762749 0,4.36904102 C0,3.50554324 0.245211039,2.73226164 0.658198052,1.97186807 C0.980844156,1.39190687 1.39383117,0.670177384 2.02621753,0.399528825 C2.45211039,0.206208426 3.35551948,0 3.82012987,0 C3.91047078,0 4.00081169,0 4.0911526,0.0386640798 C4.36217532,0.128880266 4.6461039,0.76039357 4.77516234,1.0181541 C5.18814935,1.75277162 5.58823052,2.50027716 6.01412338,3.22200665 C6.22061688,3.55709534 6.60779221,3.9695122 6.60779221,4.36904102 C6.60779221,5.15521064 4.27183442,6.30224501 4.27183442,6.99819845 C4.27183442,7.34617517 4.59448052,7.7972561 4.77516234,8.10656874 C6.0786526,10.4521896 7.70478896,12.0760809 10.0536526,13.3777716 C10.3633929,13.558204 10.8150974,13.8804047 11.1635552,13.8804047 C11.8604708,13.8804047 13.0090909,11.5476718 13.7963474,11.5476718 C14.1964286,11.5476718 14.6094156,11.9343126 14.9449675,12.1405211 C15.6676948,12.5658259 16.4162338,12.9653548 17.1518669,13.3777716 C17.4099838,13.5066519 18.0423701,13.7901885 18.132711,14.060837 C18.1714286,14.1510532 18.1714286,14.2412694 18.1714286,14.3314856 Z" id=""></path>
                </g>
            </g>
        </g>
        <g id="checkmark" transform="translate(35.000000, 5.000000)">
            <path d="M18.6588542,4.98697917 C19.5529559,6.51476458 20,8.18575482 20,10 C20,11.8142452 19.5529559,13.4874055 18.6588542,15.0195312 C17.7647525,16.551657 16.551657,17.7647525 15.0195313,18.6588542 C13.4874055,19.5529559 11.8142452,20 10,20 C8.18575482,20 6.51259447,19.5529559 4.98046875,18.6588542 C3.44834303,17.7647525 2.23524753,16.551657 1.34114583,15.0195312 C0.447044141,13.4874055 0,11.8142452 0,10 C0,8.18575482 0.447044141,6.51259447 1.34114583,4.98046875 C2.23524753,3.44834303 3.44834303,2.23524753 4.98046875,1.34114583 C6.51259447,0.447044141 8.18575482,0 10,0 C11.8142452,0 13.4874055,0.447044141 15.0195313,1.34114583 C16.551657,2.23524753 17.7647525,3.45051315 18.6588542,4.98697917 Z" id="Path" fill="#81B44C"></path>
            <path d="M16.71875,7.890625 C16.71875,7.64756823 16.6406258,7.44791745 16.484375,7.29166667 L15.2994792,6.11979167 C15.1345478,5.95486029 14.9392372,5.87239583 14.7135417,5.87239583 C14.4878461,5.87239583 14.2925355,5.95486029 14.1276042,6.11979167 L8.81510417,11.4192708 L5.87239583,8.4765625 C5.70746445,8.31163112 5.51215391,8.22916667 5.28645833,8.22916667 C5.06076276,8.22916667 4.86545221,8.31163112 4.70052083,8.4765625 L3.515625,9.6484375 C3.35937422,9.80468828 3.28125,10.0043391 3.28125,10.2473958 C3.28125,10.481772 3.35937422,10.6770826 3.515625,10.8333333 L8.22916667,15.546875 C8.39409805,15.7118064 8.58940859,15.7942708 8.81510417,15.7942708 C9.04948034,15.7942708 9.24913112,15.7118064 9.4140625,15.546875 L16.484375,8.4765625 C16.6406258,8.32031172 16.71875,8.12500117 16.71875,7.890625 Z" id="Path" fill="#FFFFFF"></path>
        </g>
    </g>
</svg>