<svg xmlns="http://www.w3.org/2000/svg" xmlns:xlink="http://www.w3.org/1999/xlink" width="50" height="50" viewBox="0 0 50 50">
    <defs>
        <path id="prefix__a" d="M.108.34c.105.395-.15.782.008 1.162h44.182V.341H.108z"/>
        <path id="prefix__c" d="M.42 1.954c0 .564.455 1.017 1.018 1.017.562 0 1.019-.453 1.019-1.017C2.457 1.392 2 .937 1.438.937.875.937.42 1.392.42 1.954z"/>
        <path id="prefix__e" d="M.134 1.954c0 .564.455 1.017 1.017 1.017.563 0 1.018-.453 1.018-1.017 0-.562-.455-1.017-1.018-1.017-.562 0-1.017.455-1.017 1.017z"/>
        <path id="prefix__g" d="M.729 1.954c0 .564.457 1.017 1.018 1.017.562 0 1.017-.453 1.017-1.017 0-.562-.455-1.017-1.017-1.017C1.186.937.73 1.392.73 1.954z"/>
        <path id="prefix__i" d="M.108 3.714v.051H1.45v-.05c0-1.169.96-2.116 2.145-2.116 1.184 0 2.145.947 2.147 2.115v.051h1.341v-.05c0-1.9-1.56-3.438-3.488-3.438C1.67.277.109 1.816.108 3.714z"/>
        <path id="prefix__k" d="M3.274.291C1.834.293.667 1.47.665 2.923V6.67C.667 8.122 1.833 9.3 3.274 9.302H9.1c1.44-.002 2.607-1.18 2.609-2.632V2.923C11.708 1.47 10.54.293 9.1.291H3.274zM1.984 6.67V2.923c0-.717.578-1.3 1.29-1.301H9.1c.712.001 1.29.584 1.29 1.301V6.67c0 .717-.578 1.3-1.29 1.3H3.274c-.712 0-1.29-.583-1.29-1.3z"/>
        <path id="prefix__m" d="M.695.702c-.174.302-.26.733-.26 1.29 0 .559.086.99.26 1.291.172.302.474.452.902.452.43 0 .73-.15.904-.452.172-.3.26-.732.26-1.29S2.672 1.003 2.5.701C2.328.398 2.027.248 1.597.248c-.428 0-.73.15-.902.454zm.512 2.183c-.063-.205-.095-.503-.095-.893 0-.405.032-.706.095-.903.062-.196.193-.293.39-.293.2 0 .326.097.387.293.062.197.092.498.092.903 0 .39-.03.688-.092.893-.06.207-.188.309-.387.309-.197 0-.328-.102-.39-.309z"/>
        <path id="prefix__o" d="M.376.702c-.172.302-.26.733-.26 1.29 0 .559.088.99.26 1.291.171.302.474.452.902.452.43 0 .73-.15.904-.452.173-.3.258-.732.258-1.29s-.085-.989-.258-1.291C2.008.398 1.708.248 1.278.248c-.428 0-.73.15-.902.454zm.512 2.183C.824 2.68.793 2.382.793 1.992c0-.405.031-.706.095-.903.064-.196.194-.293.39-.293.199 0 .328.097.388.293.06.197.092.498.092.903 0 .39-.031.688-.092.893-.06.207-.19.309-.388.309-.196 0-.326-.102-.39-.309z"/>
        <path id="prefix__q" d="M1.357.248c-.003.046-.011.093-.026.137-.022.096-.068.18-.127.252-.087.093-.2.159-.321.183C.739.847.593.86.45.864v.465h.783v2.406h.67V.248h-.546z"/>
        <path id="prefix__s" d="M1.141.702c-.172.302-.258.733-.258 1.29 0 .559.086.99.258 1.291.173.302.474.452.904.452.43 0 .73-.15.904-.452.172-.3.26-.732.26-1.29s-.088-.989-.26-1.291C2.775.398 2.475.248 2.045.248c-.43 0-.73.15-.904.454zm.514 2.183c-.064-.205-.095-.503-.095-.893 0-.405.031-.706.095-.903.062-.196.194-.293.39-.293.197 0 .326.097.388.293.06.197.093.498.093.903 0 .39-.032.688-.093.893-.062.207-.19.309-.388.309-.196 0-.328-.102-.39-.309z"/>
        <path id="prefix__u" d="M.866.702c-.172.302-.258.733-.258 1.29 0 .559.086.99.258 1.291.173.302.474.452.904.452.43 0 .728-.15.902-.452.172-.3.26-.732.26-1.29s-.088-.989-.26-1.291C2.498.398 2.199.248 1.77.248c-.43 0-.73.15-.904.454zm.512 2.183c-.062-.205-.095-.503-.095-.893 0-.405.033-.706.095-.903.064-.196.194-.293.392-.293.197 0 .326.097.386.293.06.197.093.498.093.903 0 .39-.032.688-.093.893-.06.207-.189.309-.386.309-.198 0-.328-.102-.392-.309z"/>
        <path id="prefix__w" d="M1.53.248c-.005.046-.013.093-.028.137-.022.096-.067.18-.127.252-.088.093-.199.159-.32.183C.912.847.765.86.621.864v.465h.784v2.406h.669V.248h-.545z"/>
        <path id="prefix__y" d="M.314.702c-.172.302-.26.733-.26 1.29 0 .559.088.99.26 1.291.173.302.474.452.903.452.43 0 .73-.15.903-.452.173-.3.26-.732.26-1.29s-.087-.989-.26-1.291C1.948.398 1.647.248 1.217.248c-.43 0-.73.15-.903.454zm.512 2.183C.762 2.68.732 2.382.732 1.992c0-.405.03-.706.094-.903.064-.196.194-.293.391-.293.196 0 .327.097.387.293.06.197.092.498.092.903 0 .39-.031.688-.092.893-.06.207-.19.309-.387.309S.89 3.092.826 2.885z"/>
        <path id="prefix__A" d="M.976.248C.972.294.964.341.95.385.928.481.885.565.823.637.737.73.623.796.5.82.358.847.213.86.068.864v.465h.783v2.406h.672V.248H.976z"/>
        <path id="prefix__C" d="M.353.702c-.172.302-.26.733-.26 1.29 0 .559.088.99.26 1.291.173.302.474.452.904.452.428 0 .73-.15.902-.452.173-.3.26-.732.26-1.29s-.087-.989-.26-1.291C1.987.398 1.685.248 1.257.248c-.43 0-.73.15-.904.454zm.514 2.183C.8 2.68.77 2.382.77 1.992c0-.405.031-.706.097-.903.062-.196.19-.293.39-.293.197 0 .326.097.386.293.06.197.091.498.091.903 0 .39-.03.688-.09.893-.061.207-.19.309-.387.309-.2 0-.328-.102-.39-.309z"/>
        <path id="prefix__E" d="M1.015.248C1.012.294 1.004.341.99.385.967.481.924.565.86.637.775.73.664.796.542.82.396.847.253.86.107.864v.465H.89v2.406h.67V.248h-.546z"/>
        <path id="prefix__G" d="M1.092.702c-.174.302-.26.733-.26 1.29 0 .559.086.99.26 1.291.172.302.472.452.904.452.428 0 .728-.15.9-.452.174-.3.261-.732.261-1.29s-.087-.989-.26-1.291C2.723.398 2.423.248 1.995.248c-.432 0-.732.15-.904.454zm.512 2.183c-.064-.205-.095-.503-.095-.893 0-.405.031-.706.095-.903.062-.196.193-.293.392-.293.195 0 .324.097.385.293.062.197.092.498.092.903 0 .39-.03.688-.092.893-.06.207-.19.309-.385.309-.2 0-.33-.102-.392-.309z"/>
        <path id="prefix__I" d="M1.462.248c-.001.046-.01.093-.025.137-.024.096-.067.18-.127.252-.088.093-.2.159-.322.183C.845.847.7.86.557.864v.465h.781v2.406h.67V.248h-.546z"/>
        <path id="prefix__K" d="M.84.702c-.174.302-.26.733-.26 1.29 0 .559.086.99.26 1.291.172.302.474.452.902.452.431 0 .73-.15.905-.452.172-.3.26-.732.26-1.29s-.088-.989-.26-1.291C2.472.398 2.173.248 1.742.248c-.428 0-.73.15-.902.454zm.512 2.183c-.064-.205-.094-.503-.094-.893 0-.405.03-.706.094-.903.064-.196.196-.293.39-.293.197 0 .326.097.39.293.06.197.09.498.09.903 0 .39-.03.688-.09.893-.064.207-.193.309-.39.309-.194 0-.326-.102-.39-.309z"/>
        <path id="prefix__M" d="M.379.604c-.174.302-.261.734-.261 1.29 0 .56.087.989.26 1.291.173.301.475.452.905.452.43 0 .73-.15.904-.452.171-.302.259-.732.259-1.29 0-.557-.088-.989-.26-1.29C2.014.3 1.713.148 1.284.148.853.149.55.3.379.604zM.89 2.786C.828 2.58.796 2.283.796 1.895c0-.408.032-.71.095-.904.064-.197.194-.295.392-.295.197 0 .324.098.386.295.062.194.093.496.093.904 0 .388-.03.686-.093.89-.062.206-.189.311-.386.311-.198 0-.328-.105-.392-.31z"/>
        <path id="prefix__O" d="M.695.604c-.174.302-.26.734-.26 1.29 0 .56.086.989.26 1.291.172.301.474.452.902.452.43 0 .73-.15.904-.452.172-.302.26-.732.26-1.29 0-.557-.088-.989-.26-1.29C2.328.3 2.027.148 1.597.148 1.17.149.867.3.695.604zm.512 2.182c-.063-.205-.095-.503-.095-.891 0-.408.032-.71.095-.904.062-.197.193-.295.39-.295.2 0 .326.098.387.295.062.194.092.496.092.904 0 .388-.03.686-.092.89-.06.206-.188.311-.387.311-.197 0-.328-.105-.39-.31z"/>
        <path id="prefix__Q" d="M1.357.149c-.003.046-.011.094-.026.138-.022.093-.068.179-.127.252-.087.094-.2.157-.321.183C.739.746.593.762.45.765v.466h.783v2.406h.67V.15h-.546z"/>
        <path id="prefix__S" d="M1.141.604c-.172.302-.258.734-.258 1.29 0 .56.086.989.258 1.291.173.301.474.452.904.452.43 0 .73-.15.904-.452.172-.302.26-.732.26-1.29 0-.557-.088-.989-.26-1.29C2.775.3 2.475.148 2.045.148c-.43 0-.73.151-.904.455zm.514 2.182c-.064-.205-.095-.503-.095-.891 0-.408.031-.71.095-.904.062-.197.194-.295.39-.295.197 0 .326.098.388.295.06.194.093.496.093.904 0 .388-.032.686-.093.89-.062.206-.19.311-.388.311-.196 0-.328-.105-.39-.31z"/>
        <path id="prefix__U" d="M1.512.149c-.002.046-.01.094-.024.138-.022.093-.067.179-.127.252-.088.094-.2.157-.322.183C.896.746.753.762.608.765v.466h.781v2.406h.67V.15h-.547z"/>
        <path id="prefix__W" d="M1.238.149c-.003.046-.013.094-.027.138-.02.093-.065.179-.127.252-.088.094-.2.157-.32.183C.619.746.476.762.33.765v.466h.783v2.406h.668V.15h-.544z"/>
        <path id="prefix__Y" d="M.614.604c-.172.302-.26.734-.26 1.29 0 .56.088.989.26 1.291.173.301.474.452.904.452.43 0 .732-.15.904-.452.173-.302.259-.732.259-1.29 0-.557-.086-.989-.26-1.29C2.25.3 1.948.148 1.519.148c-.43 0-.73.151-.904.455zm.512 2.182c-.062-.205-.094-.503-.094-.891 0-.408.032-.71.094-.904.065-.197.196-.295.392-.295.197 0 .326.098.388.295.06.194.09.496.09.904 0 .388-.03.686-.09.89-.062.206-.191.311-.388.311-.196 0-.327-.105-.392-.31z"/>
        <path id="prefix__aa" d="M1.318.603c-.004.048-.011.094-.026.14-.024.092-.067.178-.127.25-.088.094-.199.158-.322.183-.143.026-.288.04-.434.043v.468h.783V4.09h.673V.603h-.547z"/>
        <path id="prefix__ac" d="M.695 1.058c-.174.303-.26.732-.26 1.29s.086.99.26 1.292c.172.3.474.451.902.451.43 0 .73-.15.904-.451.172-.303.26-.734.26-1.291 0-.559-.088-.988-.26-1.29-.173-.303-.474-.456-.904-.456-.428 0-.73.153-.902.455zm.512 2.184c-.063-.206-.095-.505-.095-.893 0-.406.032-.708.095-.906.062-.194.193-.292.39-.292.2 0 .326.098.387.292.062.198.092.5.092.906 0 .388-.03.687-.092.893-.06.207-.188.308-.387.308-.197 0-.328-.101-.39-.308z"/>
        <path id="prefix__ae" d="M1.357.603c-.003.048-.011.094-.026.14-.022.092-.068.178-.127.25-.087.094-.2.158-.321.183-.144.026-.29.04-.433.043v.468h.783V4.09h.67V.603h-.546z"/>
        <path id="prefix__ag" d="M1.141 1.058c-.172.303-.258.732-.258 1.29s.086.99.258 1.292c.173.3.474.451.904.451.43 0 .73-.15.904-.451.172-.303.26-.734.26-1.291 0-.559-.088-.988-.26-1.29-.174-.303-.474-.456-.904-.456-.43 0-.73.153-.904.455zm.514 2.184c-.064-.206-.095-.505-.095-.893 0-.406.031-.708.095-.906.062-.194.194-.292.39-.292.197 0 .326.098.388.292.06.198.093.5.093.906 0 .388-.032.687-.093.893-.062.207-.19.308-.388.308-.196 0-.328-.101-.39-.308z"/>
        <path id="prefix__ai" d="M.866 1.058c-.172.303-.258.732-.258 1.29s.086.99.258 1.292c.173.3.474.451.904.451.43 0 .728-.15.902-.451.172-.303.26-.734.26-1.291 0-.559-.088-.988-.26-1.29C2.498.755 2.199.602 1.77.602c-.43 0-.73.153-.904.455zm.512 2.184c-.062-.206-.095-.505-.095-.893 0-.406.033-.708.095-.906.064-.194.194-.292.392-.292.197 0 .326.098.386.292.06.198.093.5.093.906 0 .388-.032.687-.093.893-.06.207-.189.308-.386.308-.198 0-.328-.101-.392-.308z"/>
        <path id="prefix__ak" d="M1.53.603c-.005.048-.013.094-.028.14-.022.092-.067.178-.127.25-.088.094-.199.158-.32.183-.143.026-.29.04-.434.043v.468h.784V4.09h.669V.603h-.545z"/>
    </defs>
    <g fill="none" fill-rule="evenodd">
        <g transform="translate(2 10) translate(1 7.846)">
            <mask id="prefix__b" fill="#fff">
                <use xlink:href="#prefix__a"/>
            </mask>
            <path fill="#FFF" d="M-5.808 9.459L52.253 9.459 52.253 -7.616 -5.808 -7.616z" mask="url(#prefix__b)"/>
        </g>
        <g transform="translate(2 10) translate(4.183 3.47)">
            <mask id="prefix__d" fill="#fff">
                <use xlink:href="#prefix__c"/>
            </mask>
            <path fill="#8B88AA" d="M-7.537 10.93L10.412 10.93 10.412 -7.018 -7.537 -7.018z" mask="url(#prefix__d)"/>
        </g>
        <g transform="translate(2 10) translate(7.957 3.47)">
            <mask id="prefix__f" fill="#fff">
                <use xlink:href="#prefix__e"/>
            </mask>
            <path fill="#8B88AA" d="M-7.822 10.93L10.126 10.93 10.126 -7.018 -7.822 -7.018z" mask="url(#prefix__f)"/>
        </g>
        <g transform="translate(2 10) translate(11.14 3.47)">
            <mask id="prefix__h" fill="#fff">
                <use xlink:href="#prefix__g"/>
            </mask>
            <path fill="#8B88AA" d="M-7.227 10.93L10.721 10.93 10.721 -7.018 -7.227 -7.018z" mask="url(#prefix__h)"/>
        </g>
        <g transform="translate(2 10) translate(31.237 17.792)">
            <mask id="prefix__j" fill="#fff">
                <use xlink:href="#prefix__i"/>
            </mask>
            <path fill="#8B88AA" d="M-7.849 11.722L15.041 11.722 15.041 -7.68 -7.849 -7.68z" mask="url(#prefix__j)"/>
        </g>
        <path fill="#8B88AA" d="M29.891 25.335L39.483 25.335 39.483 24.172 29.891 24.172z" transform="translate(2 10)"/>
        <g transform="translate(2 10) translate(28.645 20.975)">
            <mask id="prefix__l" fill="#fff">
                <use xlink:href="#prefix__k"/>
            </mask>
            <path fill="#FFF" d="M-7.292 17.259L19.666 17.259 19.666 -7.666 -7.292 -7.666z" mask="url(#prefix__l)"/>
        </g>
        <g transform="translate(2 10) translate(7.366 11.426)">
            <mask id="prefix__n" fill="#fff">
                <use xlink:href="#prefix__m"/>
            </mask>
            <path fill="#8B88AA" d="M-7.522 11.692L10.717 11.692 10.717 -7.709 -7.522 -7.709z" mask="url(#prefix__n)"/>
        </g>
        <g transform="translate(2 10) translate(4.774 11.426)">
            <mask id="prefix__p" fill="#fff">
                <use xlink:href="#prefix__o"/>
            </mask>
            <path fill="#8B88AA" d="M-7.841 11.692L10.398 11.692 10.398 -7.709 -7.841 -7.709z" mask="url(#prefix__p)"/>
        </g>
        <g transform="translate(2 10) translate(10.548 11.426)">
            <mask id="prefix__r" fill="#fff">
                <use xlink:href="#prefix__q"/>
            </mask>
            <path fill="#8B88AA" d="M-7.507 11.692L9.86 11.692 9.86 -7.709 -7.507 -7.709z" mask="url(#prefix__r)"/>
        </g>
        <g transform="translate(2 10) translate(12.731 11.426)">
            <mask id="prefix__t" fill="#fff">
                <use xlink:href="#prefix__s"/>
            </mask>
            <path fill="#8B88AA" d="M-7.075 11.692L11.165 11.692 11.165 -7.709 -7.075 -7.709z" mask="url(#prefix__t)"/>
        </g>
        <g transform="translate(2 10) translate(15.914 11.426)">
            <mask id="prefix__v" fill="#fff">
                <use xlink:href="#prefix__u"/>
            </mask>
            <path fill="#8B88AA" d="M-7.349 11.692L10.89 11.692 10.89 -7.709 -7.349 -7.709z" mask="url(#prefix__v)"/>
        </g>
        <g transform="translate(2 10) translate(19.097 11.426)">
            <mask id="prefix__x" fill="#fff">
                <use xlink:href="#prefix__w"/>
            </mask>
            <path fill="#8B88AA" d="M-7.336 11.692L10.031 11.692 10.031 -7.709 -7.336 -7.709z" mask="url(#prefix__x)"/>
        </g>
        <g transform="translate(2 10) translate(22.28 11.426)">
            <mask id="prefix__z" fill="#fff">
                <use xlink:href="#prefix__y"/>
            </mask>
            <path fill="#8B88AA" d="M-7.903 11.692L10.338 11.692 10.338 -7.709 -7.903 -7.709z" mask="url(#prefix__z)"/>
        </g>
        <g transform="translate(2 10) translate(25.462 11.426)">
            <mask id="prefix__B" fill="#fff">
                <use xlink:href="#prefix__A"/>
            </mask>
            <path fill="#8B88AA" d="M-7.887 11.692L9.48 11.692 9.48 -7.709 -7.887 -7.709z" mask="url(#prefix__B)"/>
        </g>
        <g transform="translate(2 10) translate(28.054 11.426)">
            <mask id="prefix__D" fill="#fff">
                <use xlink:href="#prefix__C"/>
            </mask>
            <path fill="#8B88AA" d="M-7.864 11.692L10.375 11.692 10.375 -7.709 -7.864 -7.709z" mask="url(#prefix__D)"/>
        </g>
        <g transform="translate(2 10) translate(31.237 11.426)">
            <mask id="prefix__F" fill="#fff">
                <use xlink:href="#prefix__E"/>
            </mask>
            <path fill="#8B88AA" d="M-7.849 11.692L9.518 11.692 9.518 -7.709 -7.849 -7.709z" mask="url(#prefix__F)"/>
        </g>
        <g transform="translate(2 10) translate(33.42 11.426)">
            <mask id="prefix__H" fill="#fff">
                <use xlink:href="#prefix__G"/>
            </mask>
            <path fill="#8B88AA" d="M-7.125 11.692L11.114 11.692 11.114 -7.709 -7.125 -7.709z" mask="url(#prefix__H)"/>
        </g>
        <g transform="translate(2 10) translate(36.602 11.426)">
            <mask id="prefix__J" fill="#fff">
                <use xlink:href="#prefix__I"/>
            </mask>
            <path fill="#8B88AA" d="M-7.402 11.692L9.965 11.692 9.965 -7.709 -7.402 -7.709z" mask="url(#prefix__J)"/>
        </g>
        <g transform="translate(2 10) translate(39.194 11.426)">
            <mask id="prefix__L" fill="#fff">
                <use xlink:href="#prefix__K"/>
            </mask>
            <path fill="#8B88AA" d="M-7.377 11.692L10.864 11.692 10.864 -7.709 -7.377 -7.709z" mask="url(#prefix__L)"/>
        </g>
        <g transform="translate(2 10) translate(4.774 18.792)">
            <mask id="prefix__N" fill="#fff">
                <use xlink:href="#prefix__M"/>
            </mask>
            <path fill="#8B88AA" d="M-7.838 11.594L10.403 11.594 10.403 -7.808 -7.838 -7.808z" mask="url(#prefix__N)"/>
        </g>
        <g transform="translate(2 10) translate(7.366 18.792)">
            <mask id="prefix__P" fill="#fff">
                <use xlink:href="#prefix__O"/>
            </mask>
            <path fill="#8B88AA" d="M-7.522 11.594L10.717 11.594 10.717 -7.808 -7.522 -7.808z" mask="url(#prefix__P)"/>
        </g>
        <g transform="translate(2 10) translate(10.548 18.792)">
            <mask id="prefix__R" fill="#fff">
                <use xlink:href="#prefix__Q"/>
            </mask>
            <path fill="#8B88AA" d="M-7.507 11.594L9.86 11.594 9.86 -7.808 -7.507 -7.808z" mask="url(#prefix__R)"/>
        </g>
        <g transform="translate(2 10) translate(12.731 18.792)">
            <mask id="prefix__T" fill="#fff">
                <use xlink:href="#prefix__S"/>
            </mask>
            <path fill="#8B88AA" d="M-7.075 11.594L11.165 11.594 11.165 -7.808 -7.075 -7.808z" mask="url(#prefix__T)"/>
        </g>
        <g transform="translate(2 10) translate(15.914 18.792)">
            <mask id="prefix__V" fill="#fff">
                <use xlink:href="#prefix__U"/>
            </mask>
            <path fill="#8B88AA" d="M-7.349 11.594L10.018 11.594 10.018 -7.808 -7.349 -7.808z" mask="url(#prefix__V)"/>
        </g>
        <g transform="translate(2 10) translate(19.097 18.792)">
            <mask id="prefix__X" fill="#fff">
                <use xlink:href="#prefix__W"/>
            </mask>
            <path fill="#8B88AA" d="M-7.626 11.594L9.741 11.594 9.741 -7.808 -7.626 -7.808z" mask="url(#prefix__X)"/>
        </g>
        <g transform="translate(2 10) translate(21.688 18.792)">
            <mask id="prefix__Z" fill="#fff">
                <use xlink:href="#prefix__Y"/>
            </mask>
            <path fill="#8B88AA" d="M-7.603 11.594L10.638 11.594 10.638 -7.808 -7.603 -7.808z" mask="url(#prefix__Z)"/>
        </g>
        <g transform="translate(2 10) translate(4.774 25.749)">
            <mask id="prefix__ab" fill="#fff">
                <use xlink:href="#prefix__aa"/>
            </mask>
            <path fill="#8B88AA" d="M-7.548 12.048L9.821 12.048 9.821 -7.352 -7.548 -7.352z" mask="url(#prefix__ab)"/>
        </g>
        <g transform="translate(2 10) translate(7.366 25.749)">
            <mask id="prefix__ad" fill="#fff">
                <use xlink:href="#prefix__ac"/>
            </mask>
            <path fill="#8B88AA" d="M-7.522 12.048L10.717 12.048 10.717 -7.352 -7.522 -7.352z" mask="url(#prefix__ad)"/>
        </g>
        <g transform="translate(2 10) translate(10.548 25.749)">
            <mask id="prefix__af" fill="#fff">
                <use xlink:href="#prefix__ae"/>
            </mask>
            <path fill="#8B88AA" d="M-7.507 12.048L9.86 12.048 9.86 -7.352 -7.507 -7.352z" mask="url(#prefix__af)"/>
        </g>
        <g transform="translate(2 10) translate(12.731 25.749)">
            <mask id="prefix__ah" fill="#fff">
                <use xlink:href="#prefix__ag"/>
            </mask>
            <path fill="#8B88AA" d="M-7.075 12.048L11.165 12.048 11.165 -7.352 -7.075 -7.352z" mask="url(#prefix__ah)"/>
        </g>
        <g transform="translate(2 10) translate(15.914 25.749)">
            <mask id="prefix__aj" fill="#fff">
                <use xlink:href="#prefix__ai"/>
            </mask>
            <path fill="#8B88AA" d="M-7.349 12.048L10.89 12.048 10.89 -7.352 -7.349 -7.352z" mask="url(#prefix__aj)"/>
        </g>
        <g transform="translate(2 10) translate(19.097 25.749)">
            <mask id="prefix__al" fill="#fff">
                <use xlink:href="#prefix__ak"/>
            </mask>
            <path fill="#8B88AA" d="M-7.336 12.048L10.031 12.048 10.031 -7.352 -7.336 -7.352z" mask="url(#prefix__al)"/>
        </g>
        <path fill="#FFF" d="M1.911 34.422h43.172V1.602H1.91v32.82zm43.967 1.591H1.116c-.441 0-.796-.356-.796-.795V.807C.32.366.675.01 1.116.01h44.762c.44 0 .796.355.796.796v34.41c0 .44-.356.796-.796.796z" transform="translate(2 10)"/>
    </g>
</svg>
