<svg xmlns="http://www.w3.org/2000/svg" xmlns:xlink="http://www.w3.org/1999/xlink" width="28" height="28" viewBox="0 0 28 28">
    <defs>
        <path id="taioljt1ea" d="M0 0L21.941 0 21.941 21.93 0 21.93z"/>
        <path id="4b19akizkc" d="M0 26.915L28 26.915 28 0 0 0z"/>
    </defs>
    <g fill="none" fill-rule="evenodd">
        <g>
            <g>
                <g>
                    <g transform="translate(-59.000000, -1957.000000) translate(39.000000, 336.000000) translate(20.000000, 1621.000000) translate(0.000000, 0.294737)">
                        <path fill="#8736C1" d="M10.099 22.188c.59.08 1.15.08 1.733.001v-2.55c0-.273.162-.514.412-.617.254-.105.537-.047.727.147l1.799 1.805c.458-.351.868-.761 1.22-1.221l-1.799-1.799c-.19-.19-.248-.476-.144-.726.103-.25.345-.412.616-.412h2.54c.04-.29.06-.58.06-.861 0-.287-.02-.583-.06-.883h-2.526c-.271 0-.514-.163-.618-.413-.103-.25-.046-.536.147-.727l1.787-1.78c-.341-.455-.75-.867-1.224-1.229l-1.798 1.8c-.193.192-.48.248-.73.143-.247-.103-.41-.345-.41-.615v-2.54c-.581-.08-1.141-.08-1.732 0v2.529c0 .272-.163.513-.412.616-.25.104-.535.047-.727-.145l-1.787-1.788c-.477.365-.89.778-1.23 1.236l1.782 1.774c.192.19.25.475.146.726-.104.25-.346.413-.617.413H4.739c-.041.298-.061.594-.061.883 0 .283.018.572.06.86h2.529c.271 0 .513.163.617.412.103.25.047.535-.144.727l-1.793 1.791c.341.456.752.869 1.226 1.23l1.786-1.796c.191-.193.478-.25.728-.146.25.103.412.345.412.617v2.538zm.872.893c-.447 0-.892-.042-1.364-.129l-.342-.062v-2.837l-1.6 1.607c-.234.234-.608.265-.873.07-.631-.462-1.171-1.004-1.603-1.612-.188-.26-.158-.634.073-.865l1.605-1.604H4.04l-.065-.339c-.086-.453-.13-.909-.13-1.355 0-.448.044-.911.13-1.376l.064-.34h2.814l-1.863-1.855v-.299l.07-.115c.452-.684 1.035-1.29 1.733-1.802.264-.193.64-.163.873.071l1.6 1.599V9.009l.342-.062c.943-.174 1.808-.172 2.719 0l.339.064v2.839l1.61-1.612c.237-.233.612-.261.875-.07.63.462 1.17 1.004 1.603 1.612.189.262.157.637-.076.868l-1.598 1.59h2.827l.063.343c.085.466.128.928.128 1.374 0 .444-.043.9-.129 1.354l-.063.34h-2.84l1.612 1.612c.234.232.264.607.07.873-.45.61-.986 1.147-1.596 1.595-.267.197-.641.163-.875-.069l-1.611-1.618v2.846l-.339.064c-.455.086-.91.13-1.355.13z"/>
                        <g transform="translate(0.000150, 4.984325)">
                            <mask id="kfrechj4lb" fill="#fff">
                                <use xlink:href="#taioljt1ea"/>
                            </mask>
                            <path fill="#8736C1" d="M5.822 7.343l-.072.117c-.464.686-.795 1.479-.958 2.293-.076.409-.115.82-.115 1.218 0 .394.039.797.115 1.2.163.824.486 1.603.959 2.312.436.658 1.007 1.233 1.7 1.71.706.47 1.485.793 2.311.957.83.153 1.6.153 2.409 0 .82-.163 1.625-.495 2.323-.96.666-.458 1.238-1.031 1.698-1.7.462-.692.793-1.497.958-2.32.075-.405.113-.807.113-1.2 0-.395-.039-.807-.114-1.224-.16-.81-.483-1.585-.959-2.3-.438-.66-1.009-1.233-1.7-1.709-.694-.46-1.498-.793-2.324-.956-.8-.151-1.57-.155-2.41 0-.82.163-1.599.486-2.31.96-.65.448-1.2.988-1.624 1.602zm5.148 10.754c-.445 0-.89-.042-1.363-.129-.94-.186-1.82-.551-2.623-1.085-.787-.542-1.434-1.193-1.926-1.939-.533-.799-.899-1.68-1.084-2.615-.087-.456-.13-.913-.13-1.358 0-.448.043-.911.13-1.376.177-.887.527-1.746 1.017-2.498l.067-.111c.493-.747 1.14-1.398 1.922-1.935.806-.538 1.687-.904 2.62-1.088.956-.176 1.815-.172 2.725 0 .935.184 1.843.559 2.63 1.084.786.54 1.433 1.191 1.928 1.939.537.804.901 1.68 1.085 2.604.085.473.128.935.128 1.38 0 .445-.043.9-.128 1.355v.004c-.185.931-.56 1.84-1.086 2.627-.52.76-1.165 1.405-1.92 1.923-.794.53-1.702.903-2.632 1.088-.46.087-.915.13-1.36.13zM9.23.979c-4.178.696-7.571 4.1-8.256 8.277-.54 3.303.49 6.537 2.826 8.873 2.342 2.34 5.585 3.368 8.897 2.825 4.19-.689 7.591-4.094 8.271-8.28.539-3.31-.499-6.548-2.844-8.884C15.778 1.452 12.535.43 9.23.98zm1.73 20.952c-2.91 0-5.66-1.125-7.748-3.212C.683 16.191-.432 12.692.152 9.122.893 4.596 4.57.91 9.092.157c3.577-.594 7.083.514 9.62 3.043 2.538 2.528 3.66 6.03 3.08 9.608-.738 4.535-4.421 8.223-8.96 8.968-.627.103-1.254.155-1.872.155z" mask="url(#kfrechj4lb)"/>
                        </g>
                        <path fill="#8736C1" d="M5.822 12.328l-.071.116c-.465.686-.796 1.479-.96 2.293-.075.409-.113.82-.113 1.218 0 .394.038.797.114 1.2.163.824.487 1.604.96 2.312.434.658 1.006 1.233 1.7 1.71.706.471 1.485.793 2.311.958.829.152 1.599.152 2.409-.002.82-.162 1.625-.494 2.322-.96.666-.457 1.24-1.03 1.698-1.699.463-.693.795-1.497.957-2.323.077-.4.115-.804.115-1.196 0-.396-.039-.808-.116-1.224-.158-.81-.482-1.586-.958-2.3-.438-.659-1.008-1.234-1.7-1.71-.693-.46-1.499-.793-2.323-.956-.8-.151-1.57-.155-2.41.001-.82.162-1.6.485-2.31.959-.652.448-1.2.988-1.625 1.603M10.97 23.08c-.447 0-.892-.042-1.364-.129-.94-.185-1.82-.55-2.622-1.085-.788-.542-1.434-1.193-1.926-1.939-.535-.798-.9-1.68-1.085-2.615-.086-.456-.13-.912-.13-1.358 0-.448.044-.911.13-1.376.177-.886.528-1.746 1.017-2.498l.068-.111c.493-.747 1.14-1.398 1.92-1.935.808-.538 1.689-.902 2.62-1.087.957-.176 1.816-.173 2.726 0 .934.184 1.844.558 2.632 1.083.785.54 1.432 1.191 1.926 1.939.536.804.902 1.68 1.085 2.604.086.473.13.935.13 1.38 0 .445-.044.9-.13 1.355-.184.935-.56 1.845-1.086 2.632-.521.758-1.166 1.404-1.92 1.923-.793.528-1.703.903-2.633 1.087-.458.087-.914.13-1.358.13"/>
                        <path fill="#8736C1" d="M5.822 12.328l-.071.116c-.465.686-.796 1.479-.96 2.293-.075.409-.113.82-.113 1.218 0 .394.038.797.114 1.2.163.824.487 1.604.96 2.312.434.658 1.006 1.233 1.7 1.71.706.471 1.485.793 2.311.958.829.152 1.599.152 2.409-.002.82-.162 1.625-.494 2.322-.96.666-.457 1.24-1.03 1.698-1.699.463-.693.795-1.497.957-2.323.077-.4.115-.804.115-1.196 0-.396-.039-.808-.116-1.224-.158-.81-.482-1.586-.958-2.3-.438-.659-1.008-1.234-1.7-1.71-.693-.46-1.499-.793-2.323-.956-.8-.151-1.57-.155-2.41.001-.82.162-1.6.485-2.31.959-.652.448-1.2.988-1.625 1.603M10.97 23.08c-.447 0-.892-.042-1.364-.129-.94-.185-1.82-.55-2.622-1.085-.788-.542-1.434-1.193-1.926-1.939-.535-.798-.9-1.68-1.085-2.615-.086-.456-.13-.912-.13-1.358 0-.448.044-.911.13-1.376.177-.886.528-1.746 1.017-2.498l.068-.111c.493-.747 1.14-1.398 1.92-1.935.808-.538 1.689-.902 2.62-1.087.957-.176 1.816-.173 2.726 0 .934.184 1.844.558 2.632 1.083.785.54 1.432 1.191 1.926 1.939.536.804.902 1.68 1.085 2.604.086.473.13.935.13 1.38 0 .445-.044.9-.13 1.355-.184.935-.56 1.845-1.086 2.632-.521.758-1.166 1.404-1.92 1.923-.793.528-1.703.903-2.633 1.087-.458.087-.914.13-1.358.13"/>
                        <path fill="#8736C1" d="M10.97 14.92c-.567 0-1.03.462-1.03 1.03 0 .567.463 1.029 1.03 1.029.57 0 1.031-.462 1.031-1.03 0-.567-.462-1.03-1.03-1.03m0 2.893c-1.028 0-1.863-.835-1.863-1.863 0-1.027.835-1.863 1.862-1.863 1.028 0 1.865.836 1.865 1.863 0 1.028-.837 1.863-1.865 1.863"/>
                        <path fill="#FF4722" d="M21.525 26.481c-1.597 0-2.897-1.3-2.897-2.896l.078-2.032c0-1.122-.926-2.047-2.064-2.047s-2.063.925-2.063 2.064c0 .23-.187.417-.417.417-.23 0-.417-.187-.417-.417 0-1.597 1.3-2.897 2.897-2.897 1.597 0 2.897 1.3 2.897 2.897l-.078 2.03c0 1.123.927 2.048 2.064 2.048 1.138 0 2.063-.925 2.063-2.063v-11.82c0-.23.187-.416.417-.416.23 0 .416.186.416.416v11.82c0 1.597-1.3 2.896-2.896 2.896"/>
                        <mask id="br1fca5jmd" fill="#fff">
                            <use xlink:href="#4b19akizkc"/>
                        </mask>
                        <path fill="#FF4722" d="M23.425 10.831h1.092V8.295h-1.092v2.536zm-.832.833h2.759V7.462h-2.759v4.202z" mask="url(#br1fca5jmd)"/>
                        <path fill="#FF4722" d="M26.27 9.439h-1.244c-.23 0-.417-.187-.417-.417 0-.23.187-.416.417-.416h1.243c.23 0 .417.186.417.416 0 .23-.187.417-.417.417" mask="url(#br1fca5jmd)"/>
                        <path fill="#FF4722" d="M26.27 10.221c-.23 0-.417-.187-.417-.417V8.18c0-.23.186-.416.416-.416.23 0 .417.186.417.416v1.624c0 .23-.187.417-.417.417M24.845 10.203H23.1c-.23 0-.417-.187-.417-.417 0-.23.187-.416.417-.416h1.744c.23 0 .416.186.416.416 0 .23-.186.417-.416.417M23.972.834c-1.76 0-3.193 1.433-3.193 3.194 0 1.76 1.433 3.193 3.193 3.193 1.761 0 3.194-1.433 3.194-3.193 0-1.761-1.433-3.194-3.194-3.194m0 7.22c-2.22 0-4.027-1.806-4.027-4.026C19.945 1.807 21.752 0 23.972 0 26.193 0 28 1.807 28 4.028c0 2.22-1.806 4.027-4.027 4.027" mask="url(#br1fca5jmd)"/>
                        <path fill="#FF4722" d="M24.021 3.843c-.085 0-.156.07-.156.155.002.17.312.172.31 0 0-.085-.07-.155-.154-.155m0 .892c-.407 0-.737-.33-.737-.737 0-.406.33-.737.737-.737s.736.331.736.737c0 .406-.33.737-.736.737" mask="url(#br1fca5jmd)"/>
                        <path fill="#FF4722" d="M25.624 5.322c-.072 0-.144-.018-.208-.056-.2-.115-.269-.37-.152-.569.132-.23.202-.488.202-.747 0-.825-.67-1.495-1.494-1.495-.825 0-1.496.67-1.496 1.495 0 .259.07.516.204.747.115.2.047.454-.152.57-.197.112-.454.047-.57-.153-.206-.357-.315-.76-.315-1.164 0-1.284 1.044-2.329 2.329-2.329 1.283 0 2.327 1.045 2.327 2.329 0 .404-.108.807-.315 1.164-.077.133-.217.208-.36.208" mask="url(#br1fca5jmd)"/>
                        <path fill="#FF4722" d="M23.972 4.366c-.1 0-.203-.037-.282-.111-.169-.156-.18-.419-.023-.588l1.24-1.344c.154-.169.422-.179.587-.023.17.155.18.42.025.588l-1.241 1.343c-.082.09-.193.135-.306.135" mask="url(#br1fca5jmd)"/>
                    </g>
                </g>
            </g>
        </g>
    </g>
</svg>
