<?xml version="1.0" encoding="UTF-8"?>
<svg width="80px" height="80px" viewBox="0 0 80 80" version="1.1" xmlns="http://www.w3.org/2000/svg" xmlns:xlink="http://www.w3.org/1999/xlink">
    <!-- Generator: Sketch 49.1 (51147) - http://www.bohemiancoding.com/sketch -->
    <title>assets/img_domain_outlook</title>
    <desc>Created with Sketch.</desc>
    <defs></defs>
    <g id="Freshness" stroke="none" stroke-width="1" fill="none" fill-rule="evenodd">
        <g id="Freeform-Icons" transform="translate(-320.000000, -1300.000000)">
            <g id="assets/img_domain_outlook" transform="translate(320.000000, 1300.000000)">
                <circle id="Oval-11" fill="#353167" cx="40" cy="40" r="40"></circle>
                <g id="logo" transform="translate(18.000000, 18.000000)" fill="#FFFFFF" fill-rule="nonzero">
                    <path d="M27.0033984,10.182317 L27.0033984,18.4543196 L29.8959703,20.2745416 C29.972258,20.2967781 30.1375475,20.2983673 30.2138352,20.2745416 L42.6630179,11.8865911 C42.6630179,10.893887 41.7364409,10.182317 41.2135545,10.182317 L27.0033984,10.182317 Z" id="path3"></path>
                    <path d="M27.0033984,21.5404374 L29.6432674,23.3527176 C30.0151695,23.6259097 30.4633593,23.3527176 30.4633593,23.3527176 C30.0167589,23.6259097 42.6646081,15.2300177 42.6646081,15.2300177 L42.6646081,30.4334757 C42.6646081,32.0885116 41.6045283,32.7826099 40.4125346,32.7826099 L27.001809,32.7826099 L27.001809,21.5404374 L27.0033984,21.5404374 Z" id="path5"></path>
                    <g id="g23" transform="translate(0.110428, 0.321988)">
                        <path d="M13.2247742,17.4048781 C12.3252162,17.4048781 11.6084306,17.8273728 11.0791853,18.670774 C10.5499401,19.5141752 10.2845228,20.6307685 10.2845228,22.0205539 C10.2845228,23.4309875 10.5499401,24.5459925 11.0791853,25.3655688 C11.6084306,26.1867334 12.3029657,26.5949333 13.1612012,26.5949333 C14.0464553,26.5949333 14.748937,26.1962634 15.267057,25.3989237 C15.785177,24.6015839 16.0458263,23.4945206 16.0458263,22.079322 C16.0458263,20.603767 15.7947129,19.4554072 15.2908969,18.6342425 C14.7870808,17.8146662 14.098903,17.4048781 13.2247742,17.4048781 Z" id="path25"></path>
                        <path d="M0.700892373,5.65920612 L0.700892373,38.0213517 L25.3354316,43.1834117 L25.3354316,0.894227629 L0.700892373,5.65920612 Z M17.1853724,27.3112684 C16.1443645,28.6804055 14.7870808,29.3665624 13.1119322,29.3665624 C11.4796953,29.3665624 10.1510195,28.7026421 9.12272613,27.3763897 C8.09602211,26.0485491 7.58108077,24.3204502 7.58108077,22.1889165 C7.58108077,19.9382583 8.10237941,18.1180365 9.146566,16.7282511 C10.1907526,15.3384657 11.5734654,14.6427789 13.2947045,14.6427789 C14.9205841,14.6427789 16.2365453,15.3066992 17.2394095,16.6377165 C18.2438629,17.9687339 18.7460897,19.722246 18.7460897,21.8998411 C18.747679,24.1377927 18.2263804,25.9421312 17.1853724,27.3112684 Z" id="path27"></path>
                    </g>
                </g>
            </g>
        </g>
    </g>
</svg>