<svg xmlns="http://www.w3.org/2000/svg" xmlns:xlink="http://www.w3.org/1999/xlink" width="56" height="56" viewBox="0 0 56 56">
    <defs>
        <path id="pjs4d17lja" d="M0 0L19.388 0 19.388 30.637 0 30.637z"/>
        <path id="mmtxp74cwc" d="M0 56L57.001 56 57.001 0 0 0z"/>
    </defs>
    <g fill="none" fill-rule="evenodd">
        <g>
            <g>
                <g transform="translate(-144.000000, -191.000000) translate(111.000000, 191.000000) translate(33.000000, 0.000000)">
                    <path fill="#FF4722" d="M45.82 39.424c-.268 0-.539-.102-.745-.307l-1.692-1.693c-.28-.28-.28-.733 0-1.012.28-.28.734-.28 1.014 0l1.423 1.423 4.396-4.395c.28-.282.734-.282 1.014 0 .28.279.28.732 0 1.011l-4.663 4.665c-.206.206-.478.308-.747.308"/>
                    <path fill="#8736C1" d="M16.953 21.927c-.282 0-.547-.11-.746-.311l-1.692-1.689c-.28-.279-.28-.734 0-1.013.28-.28.734-.28 1.015 0l1.423 1.425 4.398-4.397c.28-.28.734-.28 1.014 0 .279.279.279.732 0 1.011L17.7 21.618c-.199.198-.464.31-.747.31z"/>
                    <path fill="#FF4722" d="M5.616 36.22c-.395 0-.716-.321-.716-.717V9.832c0-1.603 1.304-2.906 2.908-2.906h37.21c1.602 0 2.908 1.303 2.908 2.906v15.194c0 .394-.323.715-.716.715-.396 0-.718-.32-.718-.715V9.832c0-.813-.661-1.476-1.474-1.476H7.808c-.813 0-1.475.663-1.475 1.476v25.671c0 .396-.32.716-.717.716"/>
                    <path fill="#FF4722" d="M9.344 36.22c-.395 0-.716-.321-.716-.717V12.342c0-.76.616-1.377 1.375-1.377H42.67c.76 0 1.377.618 1.377 1.377v12.684c0 .394-.322.715-.718.715-.394 0-.716-.32-.716-.715V12.342l-32.61.056.058 23.105c0 .396-.32.716-.717.716"/>
                    <path fill="#FF4722" d="M38.319 41.56H4.509c-3.923 0-4.508-2.181-4.508-3.481v-2.006h38.318c.396 0 .716.32.716.715 0 .395-.32.716-.716.716H1.433v.575c0 .56 0 2.048 3.076 2.048h33.81c.396 0 .716.32.716.716 0 .396-.32.717-.716.717"/>
                    <g transform="translate(37.612841, 24.309282)">
                        <mask id="597498latb" fill="#fff">
                            <use xlink:href="#pjs4d17lja"/>
                        </mask>
                        <path fill="#8736C1" d="M2.444 1.432c-.559 0-1.01.453-1.01 1.012v25.748c0 .557.451 1.012 1.01 1.012h14.5c.557 0 1.01-.455 1.01-1.012V2.444c0-.559-.453-1.012-1.01-1.012h-14.5zm14.5 29.205h-14.5C1.096 30.637 0 29.539 0 28.192V2.444C0 1.098 1.096 0 2.444 0h14.5c1.348 0 2.444 1.098 2.444 2.444v25.748c0 1.347-1.096 2.445-2.444 2.445z" mask="url(#597498latb)"/>
                    </g>
                    <mask id="7fspzi4pod" fill="#fff">
                        <use xlink:href="#mmtxp74cwc"/>
                    </mask>
                    <path fill="#8736C1" d="M38.132 47.842L56.086 47.842 56.086 46.41 38.132 46.41zM49.132 51.393H44.99c-.396 0-.718-.32-.718-.716 0-.396.322-.717.718-.717h4.143c.396 0 .717.32.717.717 0 .395-.321.716-.717.716M39.419 17.164H25.925c-.396 0-.718-.32-.718-.716 0-.396.322-.717.718-.717h13.494c.395 0 .716.32.716.717 0 .395-.32.716-.716.716M39.419 21.927H25.925c-.396 0-.718-.32-.718-.716 0-.396.322-.716.718-.716h13.494c.395 0 .716.32.716.716 0 .396-.32.716-.716.716M33.304 27.108H14.012c-.395 0-.718-.32-.718-.716 0-.396.323-.716.718-.716h19.292c.396 0 .716.32.716.716 0 .396-.32.716-.716.716M33.304 32.306H14.012c-.395 0-.718-.32-.718-.716 0-.396.323-.716.718-.716h19.292c.396 0 .716.32.716.716 0 .395-.32.716-.716.716" mask="url(#7fspzi4pod)"/>
                </g>
            </g>
        </g>
    </g>
</svg>
