<svg xmlns="http://www.w3.org/2000/svg" xmlns:xlink="http://www.w3.org/1999/xlink" width="46" height="52" viewBox="0 0 46 52">
    <defs>
        <path id="qxe3kmcnsa" d="M0 0.008L45.154 0.008 45.154 51.909 0 51.909z"/>
    </defs>
    <g fill="none" fill-rule="evenodd" transform="translate(.5)">
        <path fill="#FF4722" d="M22.836 22.833c.866 0 1.57.697 1.57 1.553v1.512h2.176c.866 0 1.57.696 1.57 1.552 0 .856-.704 1.553-1.57 1.553h-5.225c-.926 0-1.68.746-1.68 1.662 0 .915.754 1.66 1.68 1.66h2.969c2.657 0 4.82 2.138 4.82 4.767 0 2.587-2.12 4.72-4.729 4.766v1.555c0 .857-.704 1.553-1.57 1.553-.866 0-1.57-.696-1.57-1.553v-1.554h-2.273c-.866 0-1.57-.697-1.57-1.553 0-.857.704-1.553 1.57-1.553h5.322c.926 0 1.679-.745 1.679-1.66 0-.917-.753-1.661-1.68-1.661h-2.968c-2.657 0-4.819-2.14-4.819-4.767 0-2.6 2.112-4.718 4.728-4.766v-1.513c0-.856.704-1.553 1.57-1.553"/>
        <mask id="cc9lowm8eb" fill="#fff">
            <use xlink:href="#qxe3kmcnsa"/>
        </mask>
        <path fill="#8736C1" d="M39.912 46.711c-1.357 1.35-3.162 2.092-5.083 2.092H10.325c-3.961 0-7.184-3.188-7.184-7.106 0-6.774 2.51-13.207 7.46-19.12 2.825-3.379 5.7-5.626 7.206-6.693h9.52c.985.68 4.088 2.966 7.204 6.693 4.95 5.9 7.461 12.334 7.461 19.122.01 1.889-.729 3.669-2.08 5.012M16.262 3.348c1.51 0 3.21.513 5.465 1.34.503.181 1.04.273 1.595.273 1.346 0 2.615-.527 3.741-.996 1.086-.45 2.113-.872 3.081-.872.423 0 .991.062 1.723.52l-4.985 9.165h-8.713l-5.428-8.112c1.127-.91 2.222-1.318 3.521-1.318m28.24 32.164c-.433-2.036-1.08-4.045-1.94-6.01-1.386-3.154-3.288-6.173-5.654-8.97-2.787-3.317-5.541-5.554-7.046-6.664l5.393-9.895c.33-.613.21-1.37-.288-1.838C33.487.704 31.912.008 30.155.008c-1.629 0-3.107.615-4.293 1.109l-.101.042c-.907.368-1.764.717-2.428.717-.198 0-.357-.027-.521-.09-2.6-.94-4.602-1.522-6.55-1.522-2.49 0-4.617.983-6.695 3.093-.51.519-.588 1.335-.184 1.942l5.794 8.659c-1.493 1.116-4.204 3.339-6.93 6.573-2.378 2.825-4.28 5.843-5.655 8.971C.872 33.432 0 37.535 0 41.697c0 5.631 4.632 10.212 10.325 10.212h24.504c5.693 0 10.325-4.58 10.325-10.212 0-2.08-.218-4.147-.651-6.185" mask="url(#cc9lowm8eb)"/>
    </g>
</svg>
