<?xml version="1.0" encoding="UTF-8" standalone="no"?>
<svg width="106px" height="120px" viewBox="0 0 106 120" version="1.1" xmlns="http://www.w3.org/2000/svg" xmlns:xlink="http://www.w3.org/1999/xlink">
    <!-- Generator: Sketch 40.3 (33839) - http://www.bohemiancoding.com/sketch -->
    <title>assets/img_bell</title>
    <desc>Created with Sketch.</desc>
    <defs></defs>
    <g id="Freshness" stroke="none" stroke-width="1" fill="none" fill-rule="evenodd">
        <g id="Freeform-Icons" transform="translate(-994.000000, -980.000000)">
            <g id="assets/img_bell" transform="translate(994.000000, 980.000000)">
                <path d="M97.4821429,90 C91.0464286,84.75 83.2857143,75.84375 83.2857143,37.5 C83.2857143,37.5 83.2857143,34.125 81.5253571,30 C78.7617857,23.45625 71.5689286,15 53,15 C34.4310714,15 27.2382143,23.45625 24.4746429,30 C22.7142857,34.125 22.7142857,37.5 22.7142857,37.5 C22.7142857,75.84375 14.9535714,84.75 8.51785714,90 C3.91821429,93.75 0,95.64375 0,105 L53,105 L106,105 C106,95.64375 102.081786,93.75 97.4821429,90" id="Fill-2619" fill="#FACB1B"></path>
                <path d="M53,105 L0,105 C0,95.64375 3.91821429,93.75 8.51785714,90 C14.9535714,84.75 22.7142857,75.84375 22.7142857,37.5 C22.7142857,37.5 22.7142857,34.125 24.4746429,30 C27.2382143,23.45625 34.4310714,15 53,15 L53,105 Z" id="Fill-2620" fill="#FBED9A"></path>
                <path d="M45.4285714,7.5 C45.4285714,11.641875 48.8186786,15 53,15 C57.1813214,15 60.5714286,11.641875 60.5714286,7.5 C60.5714286,3.358125 57.1813214,-2.27373675e-13 53,-2.27373675e-13 C48.8186786,-2.27373675e-13 45.4285714,3.358125 45.4285714,7.5" id="Fill-2621" fill="#FBE158"></path>
                <path d="M22.7419214,36.908625 C22.8763143,35.033625 23.4309214,32.44425 24.4738857,29.99925 L52.9992429,29.99925 L52.9992429,37.49925 L22.7135286,37.49925 C22.7135286,37.49925 22.7135286,37.28925 22.7419214,36.908625" id="Fill-2622" fill="#FACB1B"></path>
                <path d="M83.2580786,36.908625 C83.1236857,35.033625 82.5690786,32.44425 81.5261143,29.99925 L53.0007571,29.99925 L53.0007571,37.49925 L83.2864714,37.49925 C83.2864714,37.49925 83.2864714,37.28925 83.2580786,36.908625" id="Fill-2623" fill="#F3B606"></path>
                <path d="M97.4821429,90 L53,90 L53,105 L106,105 C106,95.64375 102.081786,93.75 97.4821429,90" id="Fill-2624" fill="#F3B606"></path>
                <path d="M8.51785714,90 L53,90 L53,105 L0,105 C0,95.64375 3.91821429,93.75 8.51785714,90" id="Fill-2625" fill="#FACB1B"></path>
                <path d="M53,120 C61.3645357,120 68.1428571,113.28375 68.1428571,105 L37.8571429,105 C37.8571429,113.28375 44.6354643,120 53,120" id="Fill-2626" fill="#FBE158"></path>
            </g>
        </g>
    </g>
</svg>