<svg xmlns="http://www.w3.org/2000/svg" xmlns:xlink="http://www.w3.org/1999/xlink" width="56" height="56" viewBox="0 0 56 56">
    <defs>
        <path id="b0rclfb5ra" d="M0 54.644L56 54.644 56 0 0 0z"/>
    </defs>
    <g fill="none" fill-rule="evenodd">
        <g>
            <g>
                <g>
                    <path fill="#8736C1" d="M0 4.507L0 45.537 20.527 45.537 20.527 44.137 1.4 44.137 1.4 5.903 47.339 5.903 47.339 16.661 48.74 16.661 48.74 4.507z" transform="translate(-477.000000, -191.000000) translate(444.000000, 191.000000) translate(33.000000, 0.000000)"/>
                    <path fill="#FF4722" d="M27.631 23.755L27.631 52.123 55.999 52.123 55.999 41.735 54.604 41.735 54.604 50.723 29.026 50.723 29.026 25.15 37.179 25.15 37.179 23.755z" transform="translate(-477.000000, -191.000000) translate(444.000000, 191.000000) translate(33.000000, 0.000000)"/>
                    <g transform="translate(-477.000000, -191.000000) translate(444.000000, 191.000000) translate(33.000000, 0.000000)">
                        <path fill="#8736C1" d="M41.817 40.35c-.385 0-.702-.312-.702-.697V28.879c0-.385.317-.697.702-.697.38 0 .698.312.698.697v10.774c0 .385-.317.698-.698.698"/>
                        <path fill="#8736C1" d="M41.817 41.702l-5.294-5.294c-.278-.274-.278-.713 0-.99.273-.274.717-.274.986 0l4.308 4.308 4.304-4.309c.268-.273.712-.273.99 0 .274.278.274.717 0 .99l-5.294 5.295z"/>
                        <path fill="#8736C1" d="M50.952 46.657H32.679v-5.09c0-.385.312-.697.698-.697.39 0 .702.312.702.698v3.694h15.472v-3.694c0-.386.313-.698.698-.698.39 0 .703.312.703.698v5.09zM40.169 19.504H9.697c-.385 0-.702-.313-.702-.698 0-.386.317-.703.702-.703H40.17c.385 0 .702.317.702.703 0 .385-.317.698-.702.698M23.272 25.722H9.698c-.386 0-.703-.312-.703-.702 0-.38.317-.698.703-.698h13.574c.385 0 .703.317.703.698 0 .39-.318.702-.703.702M23.272 13.285H9.698c-.386 0-.703-.312-.703-.697 0-.386.317-.698.703-.698h13.574c.385 0 .703.312.703.698 0 .385-.318.697-.703.697"/>
                        <mask id="wt68zzkmxb" fill="#fff">
                            <use xlink:href="#b0rclfb5ra"/>
                        </mask>
                        <path fill="#8736C1" d="M26.587 13.286L40.167 13.286 40.167 11.891 26.587 11.891zM23.272 31.938H9.698c-.386 0-.703-.312-.703-.698 0-.385.317-.697.703-.697h13.574c.385 0 .703.312.703.697 0 .386-.318.698-.703.698M23.272 38.156H9.698c-.386 0-.703-.312-.703-.697 0-.386.317-.698.703-.698h13.574c.385 0 .703.312.703.698 0 .385-.318.697-.703.697" mask="url(#wt68zzkmxb)"/>
                        <path fill="#FF4722" d="M37.176 25.153L38.923 25.153 38.923 23.753 37.176 23.753M41.835 25.153L41.85 25.153 41.85 23.753 41.835 23.753zM41.85 25.153h2.928v-1.4H41.85v1.4zm5.836 0h.014v-1.4h-.014v1.4zm.014 0h2.928v-1.4H47.7v1.4zm5.84 0h.015v-1.4h-.014v1.4z" mask="url(#wt68zzkmxb)"/>
                        <path fill="#FF4722" d="M53.554 25.153L54.603 25.153 54.603 26.202 55.998 26.202 55.998 24.455 55.998 23.753 53.554 23.753zM54.6 28.959L55.995 28.959 55.995 28.949 54.6 28.949zM54.6 31.716h1.395v-2.757H54.6v2.757zm0 2.756h1.395v-.014H54.6v.014zm0 2.762h1.395v-2.757H54.6v2.757zm0 2.752h1.395v-.015H54.6v.015zM54.602 39.988L54.602 41.735 55.997 41.735 55.997 39.988" mask="url(#wt68zzkmxb)"/>
                    </g>
                </g>
            </g>
        </g>
    </g>
</svg>
