<?xml version="1.0" encoding="UTF-8"?>
<svg width="60px" height="60px" viewBox="0 0 60 60" version="1.1" xmlns="http://www.w3.org/2000/svg" xmlns:xlink="http://www.w3.org/1999/xlink">
    <!-- Generator: Sketch 53 (72520) - https://sketchapp.com -->
    <title>assets/dark_web_scan</title>
    <desc>Created with Sketch.</desc>
    <defs>
        <linearGradient x1="50%" y1="0%" x2="50%" y2="100%" id="linearGradient-1">
            <stop stop-color="#000000" offset="0.485641892%"></stop>
            <stop stop-color="#000000" offset="100%"></stop>
        </linearGradient>
    </defs>
    <g id="assets/dark_web_scan" stroke="none" stroke-width="1" fill="none" fill-rule="evenodd">
        <g id="assets/img_darkweb" transform="translate(8.000000, 10.000000)">
            <g id="Group" transform="translate(16.758621, 0.078431)">
                <path d="M24.4396552,0.0303105882 C26.3686422,0.0303105882 27.9310345,1.61674196 27.9310345,3.57540863 L27.9310345,19.5283498 C27.9310345,21.4870165 26.3686422,23.0734478 24.4396552,23.0734478 L3.49137931,23.0734478 C1.56239224,23.0734478 0,21.4870165 0,19.5283498 L0,3.57540863 C0,1.61674196 1.56239224,0.0303105882 3.49137931,0.0303105882 L24.4396552,0.0303105882 Z" id="Fill-6281" fill="#EBEAF4"></path>
                <path d="M3.72726563,8.68642078 C3.86779364,8.68642078 3.97122575,8.79543255 3.97122575,8.93014627 C3.97122575,9.06929137 3.86779364,9.17786 3.72726563,9.17786 C3.59066541,9.17786 3.4872333,9.06929137 3.4872333,8.93014627 C3.4872333,8.79543255 3.59066541,8.68642078 3.72726563,8.68642078 M4.21867726,8.93014627 C4.21867726,8.17592667 4.03756196,7.86838941 3.72726563,7.86838941 C3.42046067,7.86838941 3.23585399,8.17592667 3.23585399,8.93014627 C3.23585399,9.68835412 3.42046067,9.99633451 3.72726563,9.99633451 C4.03756196,9.99633451 4.21867726,9.68835412 4.21867726,8.93014627 M2.88453394,8.93014627 C2.88453394,8.07489137 3.17300916,7.59453059 3.72726563,7.59453059 C4.28152209,7.59453059 4.56999731,8.07489137 4.56999731,8.93014627 C4.56999731,9.78983255 4.28152209,10.2701933 3.72726563,10.2701933 C3.17300916,10.2701933 2.88453394,9.78983255 2.88453394,8.93014627" id="Fill-6282" fill="#353167"></path>
                <polygon id="Fill-6283" fill="#353167" points="5.93547575 8.01843569 5.32579364 8.39377294 5.16300808 8.15359255 5.97606304 7.63955333 6.27544881 7.63955333 6.27544881 9.94741216 6.79653718 9.94741216 6.79653718 10.2248161 5.31095528 10.2248161 5.31095528 9.94741216 5.93547575 9.94741216"></polygon>
                <path d="M8.16585614,8.68642078 C8.30638416,8.68642078 8.40981627,8.79543255 8.40981627,8.93014627 C8.40981627,9.06929137 8.30638416,9.17786 8.16585614,9.17786 C8.02925593,9.17786 7.92582381,9.06929137 7.92582381,8.93014627 C7.92582381,8.79543255 8.02925593,8.68642078 8.16585614,8.68642078 M8.65726778,8.93014627 C8.65726778,8.17592667 8.47615248,7.86838941 8.16585614,7.86838941 C7.85905119,7.86838941 7.6744445,8.17592667 7.6744445,8.93014627 C7.6744445,9.68835412 7.85905119,9.99633451 8.16585614,9.99633451 C8.47615248,9.99633451 8.65726778,9.68835412 8.65726778,8.93014627 M7.32312446,8.93014627 C7.32312446,8.07489137 7.61159968,7.59453059 8.16585614,7.59453059 C8.72011261,7.59453059 9.00858782,8.07489137 9.00858782,8.93014627 C9.00858782,9.78983255 8.72011261,10.2701933 8.16585614,10.2701933 C7.61159968,10.2701933 7.32312446,9.78983255 7.32312446,8.93014627" id="Fill-6284" fill="#353167"></path>
                <polygon id="Fill-6285" fill="#353167" points="10.3741099 8.01843569 9.7644278 8.39377294 9.60164224 8.15359255 10.4146972 7.63955333 10.714083 7.63955333 10.714083 9.94741216 11.2351713 9.94741216 11.2351713 10.2248161 9.74958944 10.2248161 9.74958944 9.94741216 10.3741099 9.94741216"></polygon>
                <polygon id="Fill-6286" fill="#353167" points="12.5934052 8.01843569 11.9837231 8.39377294 11.8209375 8.15359255 12.6339925 7.63955333 12.9333782 7.63955333 12.9333782 9.94741216 13.4544666 9.94741216 13.4544666 10.2248161 11.9688847 10.2248161 11.9688847 9.94741216 12.5934052 9.94741216"></polygon>
                <path d="M14.8237856,8.68642078 C14.9643136,8.68642078 15.0677457,8.79543255 15.0677457,8.93014627 C15.0677457,9.06929137 14.9643136,9.17786 14.8237856,9.17786 C14.6871853,9.17786 14.5837532,9.06929137 14.5837532,8.93014627 C14.5837532,8.79543255 14.6871853,8.68642078 14.8237856,8.68642078 M15.3151972,8.93014627 C15.3151972,8.17592667 15.1340819,7.86838941 14.8237856,7.86838941 C14.5169806,7.86838941 14.3323739,8.17592667 14.3323739,8.93014627 C14.3323739,9.68835412 14.5169806,9.99633451 14.8237856,9.99633451 C15.1340819,9.99633451 15.3151972,9.68835412 15.3151972,8.93014627 M13.9810539,8.93014627 C13.9810539,8.07489137 14.2695291,7.59453059 14.8237856,7.59453059 C15.378042,7.59453059 15.6665172,8.07489137 15.6665172,8.93014627 C15.6665172,9.78983255 15.378042,10.2701933 14.8237856,10.2701933 C14.2695291,10.2701933 13.9810539,9.78983255 13.9810539,8.93014627" id="Fill-6287" fill="#353167"></path>
                <polygon id="Fill-6288" fill="#353167" points="17.0319957 8.01843569 16.4223136 8.39377294 16.259528 8.15359255 17.072583 7.63955333 17.3719688 7.63955333 17.3719688 9.94741216 17.8930571 9.94741216 17.8930571 10.2248161 16.4074752 10.2248161 16.4074752 9.94741216 17.0319957 9.94741216"></polygon>
                <path d="M19.2623761,8.68642078 C19.4029041,8.68642078 19.5063362,8.79543255 19.5063362,8.93014627 C19.5063362,9.06929137 19.4029041,9.17786 19.2623761,9.17786 C19.1257759,9.17786 19.0223437,9.06929137 19.0223437,8.93014627 C19.0223437,8.79543255 19.1257759,8.68642078 19.2623761,8.68642078 M19.7537877,8.93014627 C19.7537877,8.17592667 19.5726724,7.86838941 19.2623761,7.86838941 C18.9555711,7.86838941 18.7709644,8.17592667 18.7709644,8.93014627 C18.7709644,9.68835412 18.9555711,9.99633451 19.2623761,9.99633451 C19.5726724,9.99633451 19.7537877,9.68835412 19.7537877,8.93014627 M18.4196444,8.93014627 C18.4196444,8.07489137 18.7081196,7.59453059 19.2623761,7.59453059 C19.8166325,7.59453059 20.1051078,8.07489137 20.1051078,8.93014627 C20.1051078,9.78983255 19.8166325,10.2701933 19.2623761,10.2701933 C18.7081196,10.2701933 18.4196444,9.78983255 18.4196444,8.93014627" id="Fill-6289" fill="#353167"></path>
                <polygon id="Fill-6290" fill="#353167" points="21.4705862 8.01843569 20.8609041 8.39377294 20.6981185 8.15359255 21.5111735 7.63955333 21.8105593 7.63955333 21.8105593 9.94741216 22.3316476 9.94741216 22.3316476 10.2248161 20.8460657 10.2248161 20.8460657 9.94741216 21.4705862 9.94741216"></polygon>
                <path d="M3.72726563,13.1933039 C3.86779364,13.1933039 3.97122575,13.3023157 3.97122575,13.4370294 C3.97122575,13.5761745 3.86779364,13.6847431 3.72726563,13.6847431 C3.59066541,13.6847431 3.4872333,13.5761745 3.4872333,13.4370294 C3.4872333,13.3023157 3.59066541,13.1933039 3.72726563,13.1933039 M4.21867726,13.4370294 C4.21867726,12.6828098 4.03756196,12.3752725 3.72726563,12.3752725 C3.42046067,12.3752725 3.23585399,12.6828098 3.23585399,13.4370294 C3.23585399,14.1952373 3.42046067,14.5032176 3.72726563,14.5032176 C4.03756196,14.5032176 4.21867726,14.1952373 4.21867726,13.4370294 M2.88453394,13.4370294 C2.88453394,12.5817745 3.17300916,12.1014137 3.72726563,12.1014137 C4.28152209,12.1014137 4.56999731,12.5817745 4.56999731,13.4370294 C4.56999731,14.2967157 4.28152209,14.7770765 3.72726563,14.7770765 C3.17300916,14.7770765 2.88453394,14.2967157 2.88453394,13.4370294" id="Fill-6291" fill="#353167"></path>
                <polygon id="Fill-6292" fill="#353167" points="5.93547575 12.5253188 5.32579364 12.9006561 5.16300808 12.6604757 5.97606304 12.1464365 6.27544881 12.1464365 6.27544881 14.4542953 6.79653718 14.4542953 6.79653718 14.7321424 5.31095528 14.7321424 5.31095528 14.4542953 5.93547575 14.4542953"></polygon>
                <path d="M8.16585614,13.1933039 C8.30638416,13.1933039 8.40981627,13.3023157 8.40981627,13.4370294 C8.40981627,13.5761745 8.30638416,13.6847431 8.16585614,13.6847431 C8.02925593,13.6847431 7.92582381,13.5761745 7.92582381,13.4370294 C7.92582381,13.3023157 8.02925593,13.1933039 8.16585614,13.1933039 M8.65726778,13.4370294 C8.65726778,12.6828098 8.47615248,12.3752725 8.16585614,12.3752725 C7.85905119,12.3752725 7.6744445,12.6828098 7.6744445,13.4370294 C7.6744445,14.1952373 7.85905119,14.5032176 8.16585614,14.5032176 C8.47615248,14.5032176 8.65726778,14.1952373 8.65726778,13.4370294 M7.32312446,13.4370294 C7.32312446,12.5817745 7.61159968,12.1014137 8.16585614,12.1014137 C8.72011261,12.1014137 9.00858782,12.5817745 9.00858782,13.4370294 C9.00858782,14.2967157 8.72011261,14.7770765 8.16585614,14.7770765 C7.61159968,14.7770765 7.32312446,14.2967157 7.32312446,13.4370294" id="Fill-6293" fill="#353167"></path>
                <polygon id="Fill-6294" fill="#353167" points="10.3741099 12.5253188 9.7644278 12.9006561 9.60164224 12.6604757 10.4146972 12.1464365 10.714083 12.1464365 10.714083 14.4542953 11.2351713 14.4542953 11.2351713 14.7321424 9.74958944 14.7321424 9.74958944 14.4542953 10.3741099 14.4542953"></polygon>
                <path d="M12.6044467,13.1933039 C12.7449747,13.1933039 12.8484068,13.3023157 12.8484068,13.4370294 C12.8484068,13.5761745 12.7449747,13.6847431 12.6044467,13.6847431 C12.4678464,13.6847431 12.3644143,13.5761745 12.3644143,13.4370294 C12.3644143,13.3023157 12.4678464,13.1933039 12.6044467,13.1933039 M13.0958583,13.4370294 C13.0958583,12.6828098 12.914743,12.3752725 12.6044467,12.3752725 C12.2976417,12.3752725 12.113035,12.6828098 12.113035,13.4370294 C12.113035,14.1952373 12.2976417,14.5032176 12.6044467,14.5032176 C12.914743,14.5032176 13.0958583,14.1952373 13.0958583,13.4370294 M11.761715,13.4370294 C11.761715,12.5817745 12.0501902,12.1014137 12.6044467,12.1014137 C13.1587031,12.1014137 13.4471783,12.5817745 13.4471783,13.4370294 C13.4471783,14.2967157 13.1587031,14.7770765 12.6044467,14.7770765 C12.0501902,14.7770765 11.761715,14.2967157 11.761715,13.4370294" id="Fill-6295" fill="#353167"></path>
                <path d="M14.8237856,13.1933039 C14.9643136,13.1933039 15.0677457,13.3023157 15.0677457,13.4370294 C15.0677457,13.5761745 14.9643136,13.6847431 14.8237856,13.6847431 C14.6871853,13.6847431 14.5837532,13.5761745 14.5837532,13.4370294 C14.5837532,13.3023157 14.6871853,13.1933039 14.8237856,13.1933039 M15.3151972,13.4370294 C15.3151972,12.6828098 15.1340819,12.3752725 14.8237856,12.3752725 C14.5169806,12.3752725 14.3323739,12.6828098 14.3323739,13.4370294 C14.3323739,14.1952373 14.5169806,14.5032176 14.8237856,14.5032176 C15.1340819,14.5032176 15.3151972,14.1952373 15.3151972,13.4370294 M13.9810539,13.4370294 C13.9810539,12.5817745 14.2695291,12.1014137 14.8237856,12.1014137 C15.378042,12.1014137 15.6665172,12.5817745 15.6665172,13.4370294 C15.6665172,14.2967157 15.378042,14.7770765 14.8237856,14.7770765 C14.2695291,14.7770765 13.9810539,14.2967157 13.9810539,13.4370294" id="Fill-6296" fill="#353167"></path>
                <polygon id="Fill-6297" fill="#353167" points="17.0319957 12.5253188 16.4223136 12.9006561 16.259528 12.6604757 17.072583 12.1464365 17.3719688 12.1464365 17.3719688 14.4542953 17.8930571 14.4542953 17.8930571 14.7321424 16.4074752 14.7321424 16.4074752 14.4542953 17.0319957 14.4542953"></polygon>
                <polygon id="Fill-6299" fill="#353167" points="3.7161805 17.0324235 3.10649838 17.4077608 2.94371282 17.1675804 3.75676778 16.6535412 4.05615356 16.6535412 4.05615356 18.9614 4.57724192 18.9614 4.57724192 19.2392471 3.09166002 19.2392471 3.09166002 18.9614 3.7161805 18.9614"></polygon>
                <path d="M5.94656088,17.7004086 C6.0870889,17.7004086 6.19052101,17.8094204 6.19052101,17.9441341 C6.19052101,18.0832792 6.0870889,18.1918478 5.94656088,18.1918478 C5.80996067,18.1918478 5.70652856,18.0832792 5.70652856,17.9441341 C5.70652856,17.8094204 5.80996067,17.7004086 5.94656088,17.7004086 M6.43797252,17.9441341 C6.43797252,17.1899145 6.25685722,16.8823773 5.94656088,16.8823773 C5.63975593,16.8823773 5.45514925,17.1899145 5.45514925,17.9441341 C5.45514925,18.702342 5.63975593,19.0103224 5.94656088,19.0103224 C6.25685722,19.0103224 6.43797252,18.702342 6.43797252,17.9441341 M5.1038292,17.9441341 C5.1038292,17.0888792 5.39230442,16.6085184 5.94656088,16.6085184 C6.50081735,16.6085184 6.78929256,17.0888792 6.78929256,17.9441341 C6.78929256,18.8038204 6.50081735,19.2841812 5.94656088,19.2841812 C5.39230442,19.2841812 5.1038292,18.8038204 5.1038292,17.9441341" id="Fill-6300" fill="#353167"></path>
                <polygon id="Fill-6301" fill="#353167" points="8.15477101 17.0324235 7.5450889 17.4077608 7.38230334 17.1675804 8.1953583 16.6535412 8.49474407 16.6535412 8.49474407 18.9614 9.01583244 18.9614 9.01583244 19.2392471 7.53025054 19.2392471 7.53025054 18.9614 8.15477101 18.9614"></polygon>
                <path d="M10.3851514,17.7004086 C10.5256794,17.7004086 10.6291115,17.8094204 10.6291115,17.9441341 C10.6291115,18.0832792 10.5256794,18.1918478 10.3851514,18.1918478 C10.2485512,18.1918478 10.1451191,18.0832792 10.1451191,17.9441341 C10.1451191,17.8094204 10.2485512,17.7004086 10.3851514,17.7004086 M10.876563,17.9441341 C10.876563,17.1899145 10.6954477,16.8823773 10.3851514,16.8823773 C10.0783464,16.8823773 9.89373976,17.1899145 9.89373976,17.9441341 C9.89373976,18.702342 10.0783464,19.0103224 10.3851514,19.0103224 C10.6954477,19.0103224 10.876563,18.702342 10.876563,17.9441341 M9.54241972,17.9441341 C9.54241972,17.0888792 9.83089494,16.6085184 10.3851514,16.6085184 C10.9394079,16.6085184 11.2278831,17.0888792 11.2278831,17.9441341 C11.2278831,18.8038204 10.9394079,19.2841812 10.3851514,19.2841812 C9.83089494,19.2841812 9.54241972,18.8038204 9.54241972,17.9441341" id="Fill-6302" fill="#353167"></path>
                <path d="M12.6044467,17.7004086 C12.7449747,17.7004086 12.8484068,17.8094204 12.8484068,17.9441341 C12.8484068,18.0832792 12.7449747,18.1918478 12.6044467,18.1918478 C12.4678464,18.1918478 12.3644143,18.0832792 12.3644143,17.9441341 C12.3644143,17.8094204 12.4678464,17.7004086 12.6044467,17.7004086 M13.0958583,17.9441341 C13.0958583,17.1899145 12.914743,16.8823773 12.6044467,16.8823773 C12.2976417,16.8823773 12.113035,17.1899145 12.113035,17.9441341 C12.113035,18.702342 12.2976417,19.0103224 12.6044467,19.0103224 C12.914743,19.0103224 13.0958583,18.702342 13.0958583,17.9441341 M11.761715,17.9441341 C11.761715,17.0888792 12.0501902,16.6085184 12.6044467,16.6085184 C13.1587031,16.6085184 13.4471783,17.0888792 13.4471783,17.9441341 C13.4471783,18.8038204 13.1587031,19.2841812 12.6044467,19.2841812 C12.0501902,19.2841812 11.761715,18.8038204 11.761715,17.9441341" id="Fill-6303" fill="#353167"></path>
                <polygon id="Fill-6304" fill="#353167" points="14.8127004 17.0324235 14.2030183 17.4077608 14.0402328 17.1675804 14.8532877 16.6535412 15.1526735 16.6535412 15.1526735 18.9614 15.6737619 18.9614 15.6737619 19.2392471 14.18818 19.2392471 14.18818 18.9614 14.8127004 18.9614"></polygon>
                <path d="M24.4396552,0 L3.49137931,0 C1.56326509,0 0,1.58687451 0,3.54509804 L0,5.31764706 L27.9310345,5.31764706 L27.9310345,3.54509804 C27.9310345,1.58687451 26.3677694,0 24.4396552,0" id="Fill-6305" fill="#353167"></path>
                <path d="M3.86961207,2.68913412 C3.86961207,3.17880078 3.47857759,3.57540863 2.99676724,3.57540863 C2.5149569,3.57540863 2.12392241,3.17880078 2.12392241,2.68913412 C2.12392241,2.19946745 2.5149569,1.80285961 2.99676724,1.80285961 C3.47857759,1.80285961 3.86961207,2.19946745 3.86961207,2.68913412" id="Fill-6306" fill="#E7114C"></path>
                <path d="M6.4299569,2.68913412 C6.4299569,3.17880078 6.03892241,3.57540863 5.55711207,3.57540863 C5.07530172,3.57540863 4.68426724,3.17880078 4.68426724,2.68913412 C4.68426724,2.19946745 5.07530172,1.80285961 5.55711207,1.80285961 C6.03892241,1.80285961 6.4299569,2.19946745 6.4299569,2.68913412" id="Fill-6307" fill="#F2DA3E"></path>
                <path d="M8.99030172,2.68913412 C8.99030172,3.17880078 8.59926724,3.57540863 8.1174569,3.57540863 C7.63564655,3.57540863 7.24461207,3.17880078 7.24461207,2.68913412 C7.24461207,2.19946745 7.63564655,1.80285961 8.1174569,1.80285961 C8.59926724,1.80285961 8.99030172,2.19946745 8.99030172,2.68913412" id="Fill-6308" fill="#81B44C"></path>
                <g transform="translate(18.620690, 11.764706)">
                    <path d="M2.32758621,4.11764706 L2.32758621,2.35294118 C2.32758621,1.70426471 2.84969289,1.17647059 3.49137931,1.17647059 C4.13306573,1.17647059 4.65517241,1.70426471 4.65517241,2.35294118 L4.65517241,4.11764706 L2.32758621,4.11764706 Z M6.40086207,4.11764706 L5.81896552,4.11764706 L5.81896552,2.35294118 C5.81896552,1.05558824 4.77475216,0 3.49137931,0 C2.20800647,0 1.1637931,1.05558824 1.1637931,2.35294118 L1.1637931,4.11764706 L0.581896552,4.11764706 C0.260544181,4.11764706 0,4.38102941 0,4.70588235 L0,8.82352941 C0,9.14764706 0.26752694,9.41176471 0.581896552,9.41176471 L6.40086207,9.41176471 C6.72221444,9.41176471 6.98275862,9.14838235 6.98275862,8.82352941 L6.98275862,4.70588235 C6.98275862,4.38102941 6.72221444,4.11764706 6.40086207,4.11764706 L6.40086207,4.11764706 Z" id="Fill-6769" fill="#E1C618"></path>
                    <path d="M3.49137931,4.11764706 L0.581896552,4.11764706 C0.260544181,4.11764706 0,4.38102941 0,4.70588235 L0,8.82352941 C0,9.14764706 0.26752694,9.41176471 0.581896552,9.41176471 L3.49137931,9.41176471 L3.49137931,4.11764706 Z" id="Fill-6770" fill="#F2DA3E"></path>
                </g>
            </g>
            <path d="M13.5,22.9019608 C13.5,13.0196078 6.98275862,6.43137255 6.98275862,6.43137255 L6.98275862,19.6078431 L2.46060776,16.5607843 C2.22191379,16.3993725 1.94167241,16.3137255 1.65491379,16.3137255 C0.998301724,16.3137255 0.465517241,16.8523137 0.465517241,17.5160784 C0.465517241,17.8034902 0.567349138,18.0810196 0.752275862,18.2984314 C3.43493534,22.1459608 5.35344828,26.1960784 9.42672414,29.4901961 L11.8706897,39.372549 L23.2758621,39.372549 L13.5,22.9019608 Z" id="Fill-2203" fill="url(#linearGradient-1)" transform="translate(11.870690, 22.901961) scale(-1, 1) translate(-11.870690, -22.901961) "></path>
        </g>
    </g>
</svg>