<?xml version="1.0" encoding="UTF-8"?>
<svg width="18px" height="15px" viewBox="0 0 18 15" version="1.1" xmlns="http://www.w3.org/2000/svg" xmlns:xlink="http://www.w3.org/1999/xlink">
    <!-- Generator: Sketch 48.2 (47327) - http://www.bohemiancoding.com/sketch -->
    <title>Twitter-color</title>
    <desc>Created with Sketch.</desc>
    <defs></defs>
    <g id="Footer-OPT1" stroke="none" stroke-width="1" fill="none" fill-rule="evenodd" transform="translate(-168.000000, -472.000000)">
        <g id="Footer-Tablet" transform="translate(48.000000, 49.000000)" fill="#00AAEC">
            <g id="SocialMedia" transform="translate(1.000000, 421.000000)">
                <path d="M137,3.77573131 C136.338616,4.07692308 135.626519,4.28060672 134.879556,4.3716143 C135.642367,3.9035753 136.227681,3.16143012 136.503434,2.27735645 C135.789223,2.71072589 135,3.02600217 134.156894,3.19501625 C133.484945,2.45937161 132.524564,2 131.461701,2 C129.423666,2 127.770206,3.69555796 127.770206,5.78656555 C127.770206,6.08342362 127.801902,6.3716143 127.865293,6.64897075 C124.796091,6.4907909 122.075541,4.98483207 120.253038,2.69122427 C119.935024,3.2524377 119.753302,3.9035753 119.753302,4.59696641 C119.753302,5.91007584 120.405177,7.06933911 121.396197,7.74864572 C120.791865,7.73022752 120.221342,7.55796316 119.722662,7.27627302 L119.722662,7.32286024 C119.722662,9.15817985 120.995774,10.6890574 122.686212,11.035753 C122.376651,11.1245937 122.050185,11.1690141 121.713154,11.1690141 C121.475436,11.1690141 121.243001,11.1462622 121.017961,11.1018418 C121.488114,12.6056338 122.85103,13.7009751 124.467512,13.7302275 C123.203909,14.7464789 121.610671,15.3521127 119.881141,15.3521127 C119.583201,15.3521127 119.288431,15.3347779 119,15.3001083 C120.634443,16.3726977 122.576334,17 124.660856,17 C131.454305,17 135.167987,11.2307692 135.167987,6.22643554 C135.167987,6.06175515 135.164818,5.89707476 135.158479,5.73564464 C135.880085,5.20151679 136.506603,4.53521127 137,3.77573131" id="Twitter"></path>
            </g>
        </g>
    </g>
</svg>