<svg xmlns="http://www.w3.org/2000/svg" xmlns:xlink="http://www.w3.org/1999/xlink" width="60" height="60" viewBox="0 0 60 60">
    <defs>
        <path id="kaa0xzh0la" d="M0.001 0.272L51.625 0.272 51.625 45.177 0.001 45.177z"/>
        <path id="t8qbmsd9rc" d="M0.25 0.14L10.637 0.14 10.637 8.023 0.25 8.023z"/>
        <path id="h2szdwm8fe" d="M0.364 0.084L6.832 0.084 6.832 6.116 0.364 6.116z"/>
    </defs>
    <g fill="none" fill-rule="evenodd">
        <g>
            <g>
                <g>
                    <g transform="translate(-400 -1300) translate(20 250) translate(380 1050) translate(0 .165)">
                        <mask id="ht0i2s5w3b" fill="#fff">
                            <use xlink:href="#kaa0xzh0la"/>
                        </mask>
                        <path fill="#FFF" d="M39.867 36.555h-17.47l-11.31 8.399c-.15.15-.335.223-.56.223-.15 0-.299-.037-.447-.112-.3-.148-.449-.41-.449-.784v-7.726H1.01c-.672 0-1.008-.298-1.008-.896V1.279C0 .61.337.273 1.009.273h49.72c.597 0 .896.336.896 1.008v26.092l-.56-.56c-.448-.597-.896-.597-1.343 0l-9.855 9.743z" mask="url(#ht0i2s5w3b)"/>
                    </g>
                    <path fill="#FFF" d="M50.73.438H25.813v36.28h14.053l9.855-9.742c.45-.594.896-.594 1.346 0l.559.559V1.443c0-.669-.297-1.005-.896-1.005" transform="translate(-400 -1300) translate(20 250) translate(380 1050)"/>
                    <path fill="#DF2C2C" d="M54.15 32.631L50.484 28.993 46.206 33.238 49.262 41.121z" transform="translate(-400 -1300) translate(20 250) translate(380 1050)"/>
                    <g transform="translate(-400 -1300) translate(20 250) translate(380 1050) translate(47.179 32.49)">
                        <mask id="8fylf2twdd" fill="#fff">
                            <use xlink:href="#t8qbmsd9rc"/>
                        </mask>
                        <path fill="#D12727" d="M6.971 0.14L0.25 6.81 6.36 8.023 10.637 3.778z" mask="url(#8fylf2twdd)"/>
                    </g>
                    <g transform="translate(-400 -1300) translate(20 250) translate(380 1050) translate(27.958 52.149)">
                        <mask id="o9w2rv6nzf" fill="#fff">
                            <use xlink:href="#h2szdwm8fe"/>
                        </mask>
                        <path fill="#1E1E1E" d="M2.335 0.084L0.364 6.116 6.832 2.122z" mask="url(#o9w2rv6nzf)"/>
                    </g>
                    <path fill="#000" d="M28.322 58.264L34.399 56.308 33.568 53.058z" transform="translate(-400 -1300) translate(20 250) translate(380 1050)"/>
                    <path fill="#FEF4B6" d="M39.173 49.92L31.841 47.495 30.293 52.233 32.346 54.271z" transform="translate(-400 -1300) translate(20 250) translate(380 1050)"/>
                    <path fill="#FBED91" d="M32.346 54.271L34.399 56.308 39.173 54.772 37.951 48.708z" transform="translate(-400 -1300) translate(20 250) translate(380 1050)"/>
                    <path fill="#E1C618" d="M35.507 51.133L39.173 54.772 53.538 40.514 49.873 36.876 40.301 41.525z" transform="translate(-400 -1300) translate(20 250) translate(380 1050)"/>
                    <path fill="#F2DA3E" d="M31.84 47.494L46.203 33.239 49.869 36.876 35.505 51.132z" transform="translate(-400 -1300) translate(20 250) translate(380 1050)"/>
                    <path fill="#FAFAFD" d="M25.813.438v36.28h-3.416l-11.31 8.4c-.148.148-.336.223-.56.223-.148 0-.296-.035-.445-.11-.301-.148-.45-.41-.45-.786v-7.727H1.01C.336 36.718 0 36.42 0 35.822V1.442C0 .775.336.439 1.01.439h24.803z" transform="translate(-400 -1300) translate(20 250) translate(380 1050)"/>
                    <path fill="#807D9C" d="M44.316 9.048h-37.1c-.717 0-1.3-.582-1.3-1.3 0-.718.583-1.3 1.3-1.3h37.1c.718 0 1.3.582 1.3 1.3 0 .718-.582 1.3-1.3 1.3M44.316 16.268h-37.1c-.717 0-1.3-.582-1.3-1.3 0-.718.583-1.3 1.3-1.3h37.1c.718 0 1.3.582 1.3 1.3 0 .718-.582 1.3-1.3 1.3M44.316 23.488h-37.1c-.717 0-1.3-.582-1.3-1.3 0-.718.583-1.3 1.3-1.3h37.1c.718 0 1.3.582 1.3 1.3 0 .718-.582 1.3-1.3 1.3M38.484 30.708H7.217c-.719 0-1.3-.581-1.3-1.3 0-.718.581-1.3 1.3-1.3h31.267c.718 0 1.3.582 1.3 1.3 0 .719-.582 1.3-1.3 1.3" transform="translate(-400 -1300) translate(20 250) translate(380 1050)"/>
                    <path fill="#8B88AA" d="M44.316 9.048h-18.55v-2.6h18.55c.718 0 1.3.582 1.3 1.3 0 .718-.582 1.3-1.3 1.3M44.316 16.268h-18.55v-2.6h18.55c.718 0 1.3.582 1.3 1.3 0 .718-.582 1.3-1.3 1.3M44.316 23.488h-18.55v-2.6h18.55c.718 0 1.3.582 1.3 1.3 0 .718-.582 1.3-1.3 1.3M38.484 30.708H25.766v-2.6h12.718c.718 0 1.3.582 1.3 1.3 0 .719-.582 1.3-1.3 1.3" transform="translate(-400 -1300) translate(20 250) translate(380 1050)"/>
                </g>
            </g>
        </g>
    </g>
</svg>
