<?xml version="1.0" encoding="UTF-8"?>
<svg width="60px" height="60px" viewBox="0 0 60 60" version="1.1" xmlns="http://www.w3.org/2000/svg" xmlns:xlink="http://www.w3.org/1999/xlink">
    <!-- Generator: Sketch 49 (51002) - http://www.bohemiancoding.com/sketch -->
    <title>assets/img_onboard_property</title>
    <desc>Created with Sketch.</desc>
    <defs></defs>
    <g id="assets/img_onboard_property" stroke="none" stroke-width="1" fill="none" fill-rule="evenodd">
        <circle id="background" fill="#FFFFFF" cx="30" cy="30" r="20"></circle>
        <g id="assets/img_address_generic" opacity="0.24" transform="translate(10.000000, 10.000000)">
            <path d="M20,40 C31.045695,40 40,31.045695 40,20 C40,8.954305 31.045695,0 20,0 C8.954305,0 0,8.954305 0,20 C0,31.045695 8.954305,40 20,40 Z" id="background" fill="#353167"></path>
            <g id="Group-11" transform="translate(9.000000, 9.200001)">
                <path d="M13.32996,14.8676356 C13.32996,14.5401619 12.5687578,14.2746548 11.6298992,14.2746548 C10.6910407,14.2746548 9.92983852,14.5401619 9.92983852,14.8676356 L9.92983852,23.7623472 L13.32996,23.7623472 L13.32996,14.8676356 Z" id="Fill-1707" fill="#FFFFFF"></path>
                <path d="M22.2222222,6.86307978 L19.6848485,7.33760162 L19.6848485,6.54545455 L2.61818182,2.19406308 L2.61818182,4.20333952 L16.9310209,7.85260314 L12.2146835,8.73461949 L1.11725729,5.91805567 C0.460125759,5.7512735 2.13202761e-14,5.15977779 2.15383267e-14,4.48181161 L2.17603713e-14,1.6024141 C2.16601505e-14,0.784049147 0.663415876,0.120633271 1.48178083,0.120633271 C1.60470713,0.120633271 1.72715574,0.135929714 1.84630437,0.166170036 L21.1049649,5.0540824 C21.7620965,5.22086458 22.2222222,5.81236028 22.2222222,6.49032647 L22.2222222,6.86307978 Z" id="Combined-Shape" fill="#FFFFFF"></path>
                <path d="M9.99021924,8.16015657 L13.0419263,7.72338959 C13.3233589,7.68311035 13.5841578,7.87860371 13.624437,8.16003622 C13.6278944,8.18419308 13.6296296,8.20856521 13.6296296,8.23296823 L13.6296296,8.31273843 C13.6296296,8.60764348 13.4128221,8.85769021 13.1208919,8.89947191 L10.0691848,9.3362389 C9.78775226,9.37651813 9.52695336,9.18102477 9.48667412,8.89959226 C9.48321674,8.8754354 9.48148148,8.85106327 9.48148148,8.82666025 L9.48148148,8.74689005 C9.48148148,8.451985 9.69828897,8.20193827 9.99021924,8.16015657 Z" id="Rectangle-2" fill="#999999" transform="translate(11.555556, 8.529814) scale(1, -1) translate(-11.555556, -8.529814) "></path>
                <path d="M15.7333333,9.97200835 L10.6133333,10.9575 L10.6133333,12.9667764 L15.7333333,11.9812848 L15.7333333,9.97200835 Z M16.6933333,9.78722866 L16.6933333,11.7965051 L21.0666667,10.954731 L21.0666667,8.94545455 L16.6933333,9.78722866 Z M9.65333333,11.1422797 L4,12.2304267 L4,14.2397032 L9.65333333,13.1515561 L9.65333333,11.1422797 Z M2.98716868,10.4602846 L22.2458292,6.85866496 C23.0502483,6.70822815 23.8243119,7.23838549 23.9747487,8.04280452 C23.9915469,8.1326283 24,8.22381342 24,8.31519445 L24,11.2371748 C24,11.9504927 23.4917712,12.5625778 22.7906091,12.6937043 L3.53194854,16.2953239 C2.72752951,16.4457607 1.95346592,15.9156034 1.80302912,15.1111843 C1.7862309,15.0213606 1.77777778,14.9301754 1.77777778,14.8387944 L1.77777778,11.9168141 C1.77777778,11.2034961 2.28600653,10.591411 2.98716868,10.4602846 Z" id="Combined-Shape" fill="#FFFFFF"></path>
                <path d="M10.1447342,7.51840583 L13.1074577,7.87353217 C13.4053868,7.9092434 13.6296296,8.16197017 13.6296296,8.46203192 L13.6296296,8.60958444 C13.6296296,8.90448949 13.4128221,9.15453622 13.1208919,9.19631792 L10.1581684,9.62034938 C9.83412444,9.66672726 9.53383821,9.44163443 9.48746033,9.11759047 C9.48347947,9.08977605 9.48148148,9.06171375 9.48148148,9.03361589 L9.48148148,8.10690558 C9.48148148,7.7795596 9.74684783,7.51419325 10.0741938,7.51419325 C10.0977701,7.51419325 10.1213255,7.51559994 10.1447342,7.51840583 Z" id="Rectangle-2" fill="#EBEAF4"></path>
                <path d="M9.99021924,14.3939228 L12.9529427,13.9698913 C13.2769867,13.9235135 13.5772729,14.1486063 13.6236508,14.4726503 C13.6276316,14.5004647 13.6296296,14.528527 13.6296296,14.5566248 L13.6296296,15.0614062 C13.6296296,15.3887522 13.3642633,15.6541185 13.0369173,15.6541185 L10.0741938,15.6541185 C9.74684783,15.6541185 9.48148148,15.3887522 9.48148148,15.0614062 L9.48148148,14.9806563 C9.48148148,14.6857512 9.69828897,14.4357045 9.99021924,14.3939228 Z" id="Rectangle-2" fill="#EBEAF4"></path>
            </g>
        </g>
        <g id="checkmark" transform="translate(35.000000, 5.000000)">
            <path d="M18.6588542,4.98697917 C19.5529559,6.51476458 20,8.18575482 20,10 C20,11.8142452 19.5529559,13.4874055 18.6588542,15.0195312 C17.7647525,16.551657 16.551657,17.7647525 15.0195313,18.6588542 C13.4874055,19.5529559 11.8142452,20 10,20 C8.18575482,20 6.51259447,19.5529559 4.98046875,18.6588542 C3.44834303,17.7647525 2.23524753,16.551657 1.34114583,15.0195312 C0.447044141,13.4874055 0,11.8142452 0,10 C0,8.18575482 0.447044141,6.51259447 1.34114583,4.98046875 C2.23524753,3.44834303 3.44834303,2.23524753 4.98046875,1.34114583 C6.51259447,0.447044141 8.18575482,0 10,0 C11.8142452,0 13.4874055,0.447044141 15.0195313,1.34114583 C16.551657,2.23524753 17.7647525,3.45051315 18.6588542,4.98697917 Z" id="Path" fill="#81B44C"></path>
            <path d="M16.71875,7.890625 C16.71875,7.64756823 16.6406258,7.44791745 16.484375,7.29166667 L15.2994792,6.11979167 C15.1345478,5.95486029 14.9392372,5.87239583 14.7135417,5.87239583 C14.4878461,5.87239583 14.2925355,5.95486029 14.1276042,6.11979167 L8.81510417,11.4192708 L5.87239583,8.4765625 C5.70746445,8.31163112 5.51215391,8.22916667 5.28645833,8.22916667 C5.06076276,8.22916667 4.86545221,8.31163112 4.70052083,8.4765625 L3.515625,9.6484375 C3.35937422,9.80468828 3.28125,10.0043391 3.28125,10.2473958 C3.28125,10.481772 3.35937422,10.6770826 3.515625,10.8333333 L8.22916667,15.546875 C8.39409805,15.7118064 8.58940859,15.7942708 8.81510417,15.7942708 C9.04948034,15.7942708 9.24913112,15.7118064 9.4140625,15.546875 L16.484375,8.4765625 C16.6406258,8.32031172 16.71875,8.12500117 16.71875,7.890625 Z" id="Path" fill="#FFFFFF"></path>
        </g>
    </g>
</svg>