<?xml version="1.0" encoding="UTF-8"?>
<svg width="60px" height="60px" viewBox="0 0 60 60" version="1.1" xmlns="http://www.w3.org/2000/svg" xmlns:xlink="http://www.w3.org/1999/xlink">
    <!-- Generator: Sketch 49 (51002) - http://www.bohemiancoding.com/sketch -->
    <title>assets/img_onboard_email</title>
    <desc>Created with Sketch.</desc>
    <defs></defs>
    <g id="assets/img_onboard_email" stroke="none" stroke-width="1" fill="none" fill-rule="evenodd">
        <path d="M30,50 C41.045695,50 50,41.045695 50,30 C50,18.954305 41.045695,10 30,10 C18.954305,10 10,18.954305 10,30 C10,41.045695 18.954305,50 30,50 Z" id="background" fill="#FFFFFF"></path>
        <g id="assets/img_email_placeholder" opacity="0.24" transform="translate(10.000000, 10.000000)">
            <circle id="background" fill="#353167" cx="20" cy="20" r="20"></circle>
            <g id="paper-airplane" transform="translate(9.000000, 10.200000)">
                <polygon id="Fill-2338" fill="#EBEAF4" points="9.16777812 16.9626309 6.87496562 19.2561747 6.87496562 15.8175782"></polygon>
                <polygon id="Fill-2339" fill="#FFFFFF" points="22 0 14.4375 19.6 6.875 15.8175439 6.875 19.2561404 4.125 13.754386 0 11.0035088"></polygon>
                <polygon id="Fill-2340" fill="#EBEAF4" points="4.125 13.754386 6.875 19.2561404 6.875 15.8175439 22 0"></polygon>
            </g>
        </g>
        <g id="checkmark" transform="translate(35.000000, 5.000000)">
            <path d="M18.6588542,4.98697917 C19.5529559,6.51476458 20,8.18575482 20,10 C20,11.8142452 19.5529559,13.4874055 18.6588542,15.0195312 C17.7647525,16.551657 16.551657,17.7647525 15.0195313,18.6588542 C13.4874055,19.5529559 11.8142452,20 10,20 C8.18575482,20 6.51259447,19.5529559 4.98046875,18.6588542 C3.44834303,17.7647525 2.23524753,16.551657 1.34114583,15.0195312 C0.447044141,13.4874055 0,11.8142452 0,10 C0,8.18575482 0.447044141,6.51259447 1.34114583,4.98046875 C2.23524753,3.44834303 3.44834303,2.23524753 4.98046875,1.34114583 C6.51259447,0.447044141 8.18575482,0 10,0 C11.8142452,0 13.4874055,0.447044141 15.0195313,1.34114583 C16.551657,2.23524753 17.7647525,3.45051315 18.6588542,4.98697917 Z" id="Path" fill="#81B44C"></path>
            <path d="M16.71875,7.890625 C16.71875,7.64756823 16.6406258,7.44791745 16.484375,7.29166667 L15.2994792,6.11979167 C15.1345478,5.95486029 14.9392372,5.87239583 14.7135417,5.87239583 C14.4878461,5.87239583 14.2925355,5.95486029 14.1276042,6.11979167 L8.81510417,11.4192708 L5.87239583,8.4765625 C5.70746445,8.31163112 5.51215391,8.22916667 5.28645833,8.22916667 C5.06076276,8.22916667 4.86545221,8.31163112 4.70052083,8.4765625 L3.515625,9.6484375 C3.35937422,9.80468828 3.28125,10.0043391 3.28125,10.2473958 C3.28125,10.481772 3.35937422,10.6770826 3.515625,10.8333333 L8.22916667,15.546875 C8.39409805,15.7118064 8.58940859,15.7942708 8.81510417,15.7942708 C9.04948034,15.7942708 9.24913112,15.7118064 9.4140625,15.546875 L16.484375,8.4765625 C16.6406258,8.32031172 16.71875,8.12500117 16.71875,7.890625 Z" id="Path" fill="#FFFFFF"></path>
        </g>
    </g>
</svg>