<?xml version="1.0" encoding="UTF-8"?>
<svg width="100px" height="100px" viewBox="0 0 100 100" version="1.1" xmlns="http://www.w3.org/2000/svg" xmlns:xlink="http://www.w3.org/1999/xlink">
    <!-- Generator: Sketch 42 (36781) - http://www.bohemiancoding.com/sketch -->
    <title>assets/img_person_details</title>
    <desc>Created with Sketch.</desc>
    <defs>
        <path d="M30,59.6875 C13.6046875,59.6875 0.3125,46.3953125 0.3125,30 C0.3125,13.6046875 13.6046875,0.3125 30,0.3125 C46.3953125,0.3125 59.6875,13.6046875 59.6875,30 C59.6875,46.3953125 46.3953125,59.6875 30,59.6875" id="path-1"></path>
    </defs>
    <g id="Freshness" stroke="none" stroke-width="1" fill="none" fill-rule="evenodd">
        <g id="Freeform-Icons" transform="translate(-300.000000, -150.000000)">
            <g id="assets/img_person_details" transform="translate(300.000000, 150.000000)">
                <path d="M31.0454687,57.9064062 L2.26265625,86.6892187 C-0.75453125,89.7064062 -0.75453125,94.6110937 2.26265625,97.6267187 L2.37203125,97.7376562 C5.38921875,100.754844 10.2939062,100.753281 13.3110937,97.7376562 L42.0939062,68.9548437 C37.6814063,66.0860937 33.9126562,62.3173437 31.0454687,57.9064062" id="Fill-7472" fill="#84462D"></path>
                <path d="M2.25453125,86.6890625 C-0.71734375,89.6609375 -0.74546875,94.459375 2.13890625,97.4859375 L28.6420312,70.9828125 L23.3014063,65.6421875 L2.25453125,86.6890625 Z" id="Fill-7473" fill="#9C6144"></path>
                <path d="M31.0379688,57.9064062 L23.3020313,65.6423437 L28.6426562,70.9829687 L35.7957813,63.8282812 C34.0176563,62.0251562 32.4239062,60.0392187 31.0379688,57.9064062" id="Fill-7474" fill="#FACB1B"></path>
                <path d="M31.0454687,57.9064062 L23.3095312,65.6423437 L34.3579687,76.6907812 L42.0939062,68.9548437 C37.6814063,66.0860937 33.9126562,62.3173437 31.0454687,57.9064062" id="Fill-7475" fill="#F3B607"></path>
                <path d="M62.5,75 C41.7890625,75 25,58.2109375 25,37.5 C25,16.7890625 41.7890625,0 62.5,0 C83.2109375,0 100,16.7890625 100,37.5 C100,58.2109375 83.2109375,75 62.5,75" id="Fill-7476" fill="#F3B607"></path>
                <g id="Group" transform="translate(32.500000, 7.500000)">
                    <mask id="mask-2" fill="white">
                        <use xlink:href="#path-1"></use>
                    </mask>
                    <use id="Mask" fill="#40C9E7" xlink:href="#path-1"></use>
                    <g mask="url(#mask-2)">
                        <g transform="translate(-2.500000, -7.500000)">
                            <polygon id="Fill-546" fill="#9CE5F4" points="63.1381381 0.52328125 0.68506006 0.52328125 0.68506006 68.1770833 63.1381381 68.1770833"></polygon>
                            <path d="M40.140076,47.9961875 C43.1548564,44.5047813 44.9205753,40.3150938 44.9205753,29.1482708 C44.9205753,23.3973854 39.7199371,16.1363958 31.9133024,16.1363958 C24.1066676,16.1363958 18.9003519,23.3973854 18.9003519,29.1482708 C18.9003519,40.2583229 21.3303444,44.4139479 24.3451248,47.9167083 C15.5505959,49.1486354 7.47711618,52.458375 0.686763326,57.3179583 L0.686763326,68.1782188 L63.1398414,68.1782188 L63.1398414,57.3179583 C56.5141376,52.5775938 48.6791151,49.3019167 40.140076,47.9961875" id="Fill-547" fill="#0484AB"></path>
                            <path d="M0.68506006,57.3156875 C7.48109047,52.4617812 15.5488926,49.1520417 24.3434215,47.9201146 C21.3286411,44.4173542 18.8986486,40.2617292 18.8986486,29.146 C18.8986486,23.4007917 24.1049643,16.1398021 31.9115991,16.1398021 C38.3726539,16.1398021 43.0396021,21.10725 44.4589902,26.080375 L63.1381381,0.527822917 L0.68506006,0.527822917 L0.68506006,57.3156875 Z" id="Fill-548" fill="#C9F2F9"></path>
                            <path d="M31.9115991,16.1369635 C24.1049643,16.1369635 18.8986486,23.3979531 18.8986486,29.1488385 C18.8986486,40.2588906 21.3286411,44.4145156 24.3434215,47.917276 C15.5488926,49.1492031 7.48109047,52.4589427 0.68506006,57.312849 L0.68506006,68.1787865 L13.6980105,68.1787865 L44.4589902,26.0832135 C43.0396021,21.1100885 38.3726539,16.1369635 31.9115991,16.1369635" id="Fill-549" fill="#059BBF"></path>
                        </g>
                    </g>
                </g>
            </g>
        </g>
    </g>
</svg>