<?xml version="1.0" encoding="UTF-8"?>
<svg width="53px" height="69px" viewBox="0 0 53 69" version="1.1" xmlns="http://www.w3.org/2000/svg" xmlns:xlink="http://www.w3.org/1999/xlink">
    <!-- Generator: Sketch 63.1 (92452) - https://sketch.com -->
    <title>PDF@2x</title>
    <desc>Created with Sketch.</desc>
    <defs>
        <path d="M0,3.6 C0,1.6115625 1.6115625,0 3.6,0 L30,0 L45,12.6 L45,56.4 C45,58.3884375 43.3884375,60 41.4,60 L3.6,60 C1.6115625,60 0,58.3884375 0,56.4 L0,3.6 Z" id="path-1"></path>
        <filter x="-15.6%" y="-8.3%" width="131.1%" height="123.3%" filterUnits="objectBoundingBox" id="filter-2">
            <feOffset dx="0" dy="2" in="SourceAlpha" result="shadowOffsetOuter1"></feOffset>
            <feGaussianBlur stdDeviation="2" in="shadowOffsetOuter1" result="shadowBlurOuter1"></feGaussianBlur>
            <feColorMatrix values="0 0 0 0 0.862745098   0 0 0 0 0   0 0 0 0 0.0823529412  0 0 0 0.48 0" type="matrix" in="shadowBlurOuter1"></feColorMatrix>
        </filter>
    </defs>
    <g id="PDF" stroke="none" stroke-width="1" fill="none" fill-rule="evenodd">
        <g id="assets/img_pdf_glow" transform="translate(4.000000, 3.000000)">
            <g id="Fill-250">
                <use fill="black" fill-opacity="1" filter="url(#filter-2)" xlink:href="#path-1"></use>
                <use fill="#FFFFFF" fill-rule="evenodd" xlink:href="#path-1"></use>
            </g>
            <path d="M30,0 L30,9 C30,10.9884375 31.6115625,12.6 33.6,12.6 L45,12.6" id="Fill-251" fill="#C33F72"></path>
            <path d="M13.4085,21.687 C11.7388125,22.45575 14.7931875,25.978875 16.0635,27.3073125 C15.8469375,25.4829375 15.0725625,20.920125 13.4085,21.687 M18.750375,38.1785625 C18.7981875,38.2095 18.85725,38.21325 18.9088125,38.1879375 C20.126625,37.5795 21.3819375,37.00575 22.63725,36.4854375 C22.691625,36.4629375 22.729125,36.4123125 22.7338125,36.3541875 C21.5506875,35.575125 20.377875,34.738875 19.252875,33.8745 C19.2031875,33.8360625 19.136625,33.827625 19.0794375,33.853875 C19.0250625,35.292 18.9144375,36.7498125 18.750375,38.1785625 M29.676,37.0685625 C31.5313125,37.9366875 35.9919375,39.7273125 36.180375,37.6835625 C36.366,35.6585625 31.6325625,36.57825 29.676,37.0685625 M14.891625,43.7735625 C13.046625,45.0410625 8.9750625,48.175125 10.8575625,49.423875 C12.7794375,50.698875 14.3206875,45.970125 14.891625,43.7735625 M11.5700625,52.5073125 C10.8050625,52.5073125 10.0419375,52.2579375 9.30225,51.767625 C7.761,50.7448125 7.47225,49.4595 7.50225,48.5604375 C7.6063125,45.403875 11.872875,42.190125 15.6735,39.9466875 C16.1056875,37.1960625 16.3269375,34.2204375 16.3044375,31.437 C13.1413125,28.6179375 9.6988125,24.7966875 10.1244375,21.808875 C10.2435,20.976375 10.70475,19.836375 12.2300625,19.1323125 C12.7813125,18.87825 13.3325625,18.7498125 13.86975,18.7498125 C16.9935,18.7498125 18.8385,22.7848125 19.08975,30.132 C21.24975,31.9591875 23.71725,33.7235625 26.1425625,35.1748125 C28.4038125,34.423875 31.401,33.6241875 33.9106875,33.6241875 C35.8306875,33.6241875 37.2406875,34.1041875 38.1031875,35.050125 C38.5775625,35.5695 39.1138125,36.4929375 38.9806875,37.9423125 C38.779125,40.1304375 37.24725,41.436375 34.8819375,41.436375 C32.137875,41.436375 28.5538125,39.7760625 25.84725,38.2545 C23.2850625,39.1835625 20.6188125,40.397625 18.2206875,41.7279375 C17.2785,46.7960625 15.3725625,52.506375 11.5700625,52.5073125" id="Fill-252" fill="#C33F72"></path>
        </g>
    </g>
</svg>