<?xml version="1.0" encoding="UTF-8"?>
<svg width="59px" height="60px" viewBox="0 0 59 60" version="1.1" xmlns="http://www.w3.org/2000/svg" xmlns:xlink="http://www.w3.org/1999/xlink">
    <title>neighborhood watch_no circle</title>
    <g id="neighborhood-watch_no-circle" stroke="none" stroke-width="1" fill="none" fill-rule="evenodd">
        <g id="Group-22-Copy" transform="translate(0.000000, 1.000000)" fill-rule="nonzero">
            <g id="Group" transform="translate(0.220588, 0.000000)">
                <path d="M47.7689422,24.642696 C47.7689422,37.4022219 37.5845778,47.7452232 25.0221935,47.7452232 C12.459039,47.7452232 2.27467485,37.4022219 2.27467485,24.642696 C2.27467485,11.88317 12.459039,1.5401685 25.0221935,1.5401685 C37.5845778,1.5401685 47.7689422,11.88317 47.7689422,24.642696" id="Fill-7663" fill="#0484AB"></path>
                <path d="M25.0217314,1.5401685 C12.4593471,1.5401685 2.27498289,11.8839401 2.27498289,24.642696 C2.27498289,30.849575 4.68919699,36.479661 8.6096959,40.630415 L41.0186915,8.22141944 C36.909522,4.09145762 31.2594139,1.5401685 25.0217314,1.5401685" id="Fill-7664" fill="#059BBF"></path>
                <path d="M35.6371117,31.1884121 C35.6371117,32.0385851 34.9578975,32.7285806 34.1208159,32.7285806 C33.2829642,32.7285806 32.60452,32.0385851 32.60452,31.1884121 C32.60452,30.3382391 33.2829642,29.6482436 34.1208159,29.6482436 C34.9578975,29.6482436 35.6371117,30.3382391 35.6371117,31.1884121" id="Fill-7665" fill="#6FDAF1"></path>
                <path d="M17.4394819,13.0914322 C17.4394819,13.9416052 16.7602676,14.6316007 15.923186,14.6316007 C15.0853344,14.6316007 14.40612,13.9416052 14.40612,13.0914322 C14.40612,12.2412592 15.0853344,11.5512638 15.923186,11.5512638 C16.7602676,11.5512638 17.4394819,12.2412592 17.4394819,13.0914322" id="Fill-7666" fill="#9CE5F4"></path>
                <path d="M38.6701656,41.5845494 C38.6701656,42.4347224 37.9909513,43.1247179 37.1538697,43.1247179 C36.316018,43.1247179 35.6368037,42.4347224 35.6368037,41.5845494 C35.6368037,40.7343764 36.316018,40.0443809 37.1538697,40.0443809 C37.9909513,40.0443809 38.6701656,40.7343764 38.6701656,41.5845494" id="Fill-7667" fill="#6FDAF1"></path>
                <path d="M25.0217314,24.2181485 L42.0875685,7.15231147 C37.6996284,2.73741848 31.6737191,-0.000231025147 25.0217314,-0.000231025147 L25.0217314,24.2181485 Z" id="Fill-7668" fill="#6FDAF1"></path>
                <path d="M35.6371118,8.85596885 C35.6371118,10.3445417 34.4488718,11.5512637 32.9834014,11.5512637 C31.5179311,11.5512637 30.3296911,10.3445417 30.3296911,8.85596885 C30.3296911,7.36739599 31.5179311,6.160674 32.9834014,6.160674 C34.4488718,6.160674 35.6371118,7.36739599 35.6371118,8.85596885" id="Fill-7669" fill="#C9F2F8"></path>
                <path d="M9.85707838,29.2632015 C9.85707838,30.1133745 9.17786409,30.80337 8.34078251,30.80337 C7.50293082,30.80337 6.82371653,30.1133745 6.82371653,29.2632015 C6.82371653,28.4130285 7.50293082,27.723033 8.34078251,27.723033 C9.17786409,27.723033 9.85707838,28.4130285 9.85707838,29.2632015" id="Fill-7670" fill="#9CE5F4"></path>
                <path d="M37.1152115,23.8726117 C36.7286292,17.5694721 31.6660953,12.5454425 25.4130112,12.3413702 L25.4130112,7.71085359 C34.1773401,7.91723616 41.2913783,15.0189531 41.6841213,23.8726117 L37.1152115,23.8726117 Z M25.4130112,41.5745383 L25.4130112,36.9440217 C31.6660953,36.7399494 36.7286292,31.7159198 37.1152115,25.4127802 L41.6841213,25.4127802 C41.2913783,34.2664388 34.1773401,41.3681558 25.4130112,41.5745383 L25.4130112,41.5745383 Z M25.4130112,30.7833477 C28.3216194,30.593907 30.6765371,28.3167679 31.0346262,25.4127802 L35.5989156,25.4127802 C35.2161837,30.8665169 30.8305539,35.2020911 25.4130112,35.4038532 L25.4130112,30.7833477 Z M25.4130112,25.4127802 L29.5029287,25.4127802 C29.1610113,27.4665949 27.4853079,29.0629796 25.4130112,29.2431792 L25.4130112,25.4127802 Z M25.4130112,20.0422126 C27.4853079,20.2224124 29.1610113,21.818797 29.5029287,23.8726117 L25.4130112,23.8726117 L25.4130112,20.0422126 Z M25.4130112,13.8815387 C30.8305539,14.0833007 35.2161837,18.418875 35.5989156,23.8726117 L31.0346262,23.8726117 C30.6765371,20.968624 28.3216194,18.6914849 25.4130112,18.5020442 L25.4130112,13.8815387 Z M23.8959453,12.3791043 C17.9832384,12.9351051 13.299586,17.8182094 12.9284054,23.8726117 L8.36026562,23.8726117 C8.74068724,15.2676903 15.4719937,8.31690988 23.8959453,7.74396719 L23.8959453,12.3791043 Z M23.8959453,18.5929141 C21.3323348,19.0834578 19.3370465,21.2165911 19.0082205,23.8726117 L14.4454714,23.8726117 C14.8097212,18.6668422 18.8195499,14.469883 23.8959453,13.9238933 L23.8959453,18.5929141 Z M23.8959453,23.8726117 L20.5414583,23.8726117 C20.841021,22.0683043 22.1709566,20.6190057 23.8959453,20.1708167 L23.8959453,23.8726117 Z M23.8959453,29.1145752 C22.1709566,28.6663861 20.841021,27.2170876 20.5414583,25.4127802 L23.8959453,25.4127802 L23.8959453,29.1145752 Z M23.8959453,35.3614986 C18.8195499,34.8155089 14.8097212,30.6185497 14.4454714,25.4127802 L19.0082205,25.4127802 C19.3370465,28.0688008 21.3323348,30.2019341 23.8959453,30.6924778 L23.8959453,35.3614986 Z M23.8959453,41.5414247 C15.4719937,40.968482 8.74068724,34.0177016 8.36026562,25.4127802 L12.9284054,25.4127802 C13.299586,31.4671826 17.9832384,36.3502868 23.8959453,36.9062876 L23.8959453,41.5414247 Z M47.7485347,23.8726117 L43.2004172,23.8726117 C42.8061341,14.1695502 35.0136516,6.37783774 25.4130112,6.17068509 L25.4130112,1.54940951 C25.2820969,1.54786934 25.1527227,1.5401685 25.0218084,1.5401685 C24.6444671,1.5401685 24.2694361,1.55094967 23.8959453,1.5694317 L23.8959453,6.19917821 C14.6356822,6.77674138 7.22670163,14.4182874 6.84319968,23.8726117 L2.294312,23.8726117 C2.28507099,24.1290498 2.2750599,24.3847178 2.2750599,24.642696 C2.2750599,24.9006742 2.28507099,25.1563421 2.294312,25.4127802 L6.84319968,25.4127802 C7.22670163,34.8671045 14.6356822,42.5086505 23.8959453,43.0862137 L23.8959453,47.71596 C24.2694361,47.7344422 24.6444671,47.7452232 25.0218084,47.7452232 C25.1527227,47.7452232 25.2820969,47.7375225 25.4130112,47.7352125 L25.4130112,43.1147068 C35.0136516,42.9075542 42.8061341,35.1158417 43.2004172,25.4127802 L47.751615,25.4127802 C47.7593157,25.1563421 47.7693269,24.9006742 47.7685989,24.642696 C47.7685989,24.3847178 47.7570057,24.1290498 47.7485347,23.8726117 L47.7485347,23.8726117 Z" id="Fill-7671" fill="#21B2D1"></path>
                <path d="M23.8963303,7.74373619 L23.8963303,12.3796433 C17.9828534,12.9348741 13.299971,17.8179783 12.9280204,23.8723807 L8.3598806,23.8723807 C8.74107229,15.2674593 15.4716086,8.31744896 23.8963303,7.74373619 L23.8963303,7.74373619 Z M23.8963303,18.5926831 C21.3319497,19.0839968 19.3366615,21.2171302 19.0086056,23.8723807 L14.4450863,23.8723807 C14.8101063,18.6666112 18.8191649,14.469652 23.8963303,13.9236623 L23.8963303,18.5926831 Z M23.8963303,23.8723807 L20.5410732,23.8723807 C20.840636,22.0680733 22.1713416,20.6195448 23.8963303,20.1713558 L23.8963303,23.8723807 Z M11.8629938,37.3765781 L12.9426519,36.29769 C10.2604485,33.4322066 8.54624096,29.6241399 8.3598806,25.4125492 L12.9280204,25.4125492 C13.1089901,28.3604317 14.3180224,31.0249232 16.1870169,33.0533251 L17.2643647,31.9752071 C15.6641297,30.2255757 14.6222057,27.9407358 14.4450863,25.4125492 L19.0086056,25.4125492 C19.1649327,26.681648 19.7101523,27.823683 20.5087297,28.7316123 L21.5883878,27.6511841 C21.0577998,27.0266458 20.6819986,26.2619521 20.5410732,25.4125492 L23.8270227,25.4125492 L25.4126262,23.8269457 L25.4126262,20.0427517 C26.4191263,20.1297712 27.3278257,20.5556278 28.0393836,21.2009584 L29.122122,20.11822 C28.1317937,19.1925787 26.8403624,18.5949933 25.4126262,18.5025832 L25.4126262,13.8820777 C28.1063809,13.9821887 30.5429274,15.1057416 32.3618664,16.8784755 L33.4407545,15.7988174 C31.3476655,13.7426925 28.5283871,12.4435604 25.4126262,12.3419092 L25.4126262,7.71139262 C29.7959457,7.81458393 33.76573,9.64199387 36.6897399,12.550602 L37.7686279,11.470944 C34.5704681,8.27894475 30.2179519,6.27441543 25.4126262,6.17122416 L25.4126262,1.54994857 C25.282482,1.54763831 25.1531078,1.53993747 25.0214234,1.53993747 C24.6440821,1.53993747 24.2690511,1.55071865 23.8963303,1.56920067 L23.8963303,6.19971728 C14.6352971,6.77651038 7.22708665,14.4180563 6.84358469,23.8723807 L2.29392696,23.8723807 C2.28545603,24.1288187 2.27467485,24.3844867 2.27467485,24.6424649 C2.27467485,24.9012132 2.28545603,25.1561111 2.29392696,25.4125492 L6.84358469,25.4125492 C7.03148524,30.0438359 8.912031,34.2330941 11.8629938,37.3765781 L11.8629938,37.3765781 Z" id="Fill-7672" fill="#40C9E7"></path>
                <path d="M25.0218084,1.54014379 C12.4794463,1.54014379 2.2750599,11.9039623 2.2750599,24.642696 C2.2750599,37.3814296 12.4794463,47.7452232 25.0218084,47.7452232 C37.5641706,47.7452232 47.79705,37.3814296 47.7686164,24.642696 C47.740834,11.8762393 37.5449185,1.52168647 25.0218084,1.54014379 M25.0218084,49.2853919 C11.6423647,49.2853919 0.000231025275,38.2308325 0.000231025275,24.642696 C0.000231025275,11.0545594 11.6423647,0 25.0218084,0 C38.4012521,0 49.2856231,11.0545594 49.2856231,24.642696 C49.2856231,38.2308325 38.4012521,49.2853919 25.0218084,49.2853919" id="Fill-7673" fill="#FFFFFF"></path>
            </g>
            <g id="house" transform="translate(18.750000, 17.205882)">
                <polygon id="Fill-2263" fill="#F0F0F0" points="38.5577605 38.5577605 2.47165131 38.5577605 2.47165131 15.3242381 38.5577605 15.3242381"></polygon>
                <path d="M35.5917789,3.76926825 C35.5917789,3.05233489 35.038129,2.47165131 34.3559532,2.47165131 L31.8843019,2.47165131 C31.2021262,2.47165131 30.6484762,3.05233489 30.6484762,3.76926825 L30.6484762,11.5549699 C30.6484762,12.2719032 31.2021262,12.8525868 31.8843019,12.8525868 L34.3559532,12.8525868 C35.038129,12.8525868 35.5917789,12.2719032 35.5917789,11.5549699 L35.5917789,3.76926825 Z" id="Fill-2264" fill="#F0F0F0"></path>
                <path d="M21.3019537,0.269126325 C20.839093,-0.089708775 20.1909598,-0.089708775 19.727458,0.269126325 L0.495018366,13.0390587 C0.0629295574,13.3742695 -0.108239156,13.9457239 0.0693403707,14.4616292 C0.247560978,14.9775345 0.7341417,15.3242381 1.28226623,15.3242381 L39.7471455,15.3242381 C40.294629,15.3242381 40.7818508,14.9775345 40.9600714,14.4616292 C41.1376509,13.9457239 40.9664822,13.3742695 40.5343934,13.0390587 L21.3019537,0.269126325 Z" id="Fill-2265" fill="#DF2C2C"></path>
                <polygon id="Fill-2266" fill="#40C9E7" points="35.5917789 30.154146 22.2448618 30.154146 22.2448618 20.2675407 35.5917789 20.2675407"></polygon>
                <path d="M16.8072289,25.8699504 C16.8072289,23.0490135 14.483197,20.761871 11.6167612,20.761871 C8.75032535,20.761871 6.42629343,23.0490135 6.42629343,25.8699504 L6.42629343,36.0861091 L16.8072289,36.0861091 L16.8072289,25.8699504 Z" id="Fill-2267" fill="#84462D"></path>
                <path d="M15.3242381,29.4126506 C15.3242381,30.0954443 14.7705882,30.6484763 14.0884125,30.6484763 C13.4062367,30.6484763 12.8525868,30.0954443 12.8525868,29.4126506 C12.8525868,28.7298569 13.4062367,28.176825 14.0884125,28.176825 C14.7705882,28.176825 15.3242381,28.7298569 15.3242381,29.4126506" id="Fill-2268" fill="#FACB1B"></path>
                <polygon id="Fill-2269" fill="#0D9681" points="41.0294118 41.0294118 0 41.0294118 0 38.5577605 41.0294118 38.5577605"></polygon>
                <path d="M0,38.5577605 L2.00082491,36.6292545 C2.36175551,36.2813696 2.85090304,36.0861091 3.36120634,36.0861091 L37.6682054,36.0861091 C38.1785087,36.0861091 38.6676562,36.2813696 39.0285869,36.6292545 L41.0294118,38.5577605 L0,38.5577605 Z" id="Fill-2270" fill="#17B198"></path>
            </g>
        </g>
    </g>
</svg>