<?xml version="1.0" encoding="UTF-8"?>
<svg width="300px" height="300px" viewBox="0 0 300 300" version="1.1" xmlns="http://www.w3.org/2000/svg" xmlns:xlink="http://www.w3.org/1999/xlink">
    <!-- Generator: Sketch 50.2 (55047) - http://www.bohemiancoding.com/sketch -->
    <title>assets/img_customer_service</title>
    <desc>Created with Sketch.</desc>
    <defs></defs>
    <g id="Freshness" stroke="none" stroke-width="1" fill="none" fill-rule="evenodd">
        <g id="Characters" transform="translate(-800.000000, 0.000000)">
            <g id="assets/img_customer_service" transform="translate(800.000000, 0.000000)">
                <polygon id="Fill-2787" fill="#EBEAF4" points="149.5 300 92.3125 209.509524 206.6875 209.509524"></polygon>
                <path d="M162.151781,209.51 L149.499047,209.51 L136.846313,209.51 C132.771703,209.51 128.887719,207.771905 126.176078,204.729048 L101.842797,185.700476 L101.842797,207.129048 C101.842797,207.129048 101.842797,242.843333 149.499047,242.843333 C197.155297,242.843333 197.155297,207.129048 197.155297,207.129048 L197.155297,185.700476 L172.826781,204.729048 C170.115141,207.771905 166.231156,209.51 162.151781,209.51" id="Fill-2788" fill="#F7B4B4"></path>
                <path d="M126.174648,204.727143 L101.841367,185.698571 L101.841367,207.127143 C101.841367,207.127143 101.841367,242.841429 149.497617,242.841429 L149.497617,209.508095 L136.849648,209.508095 C132.770273,209.508095 128.886289,207.77 126.174648,204.727143" id="Fill-2789" fill="#FBC8C8"></path>
                <polygon id="Fill-2790" fill="#FFFFFF" points="92.3125 209.509048 101.84375 204.747143 149.428516 228.46619 120.90625 257.128095"></polygon>
                <polygon id="Fill-2791" fill="#FFFFFF" points="206.6875 209.509048 197.15625 204.747143 149.571484 228.46619 178.09375 257.128095"></polygon>
                <polygon id="Fill-2792" fill="#638A3A" points="168.5625 300 155.223516 251.428571 163.796875 242.866667 149.409453 228.466667 135.122109 242.742857 143.786016 251.395238 130.4375 300"></polygon>
                <polygon id="Fill-2793" fill="#81B44C" points="149.5 300 149.5 228.557143 149.409453 228.466667 135.122109 242.742857 143.786016 251.395238 130.4375 300"></polygon>
                <path d="M0,300 L16.0625,247.619048 C18.9933594,241.271429 24.1545312,236.219048 30.5642969,233.414286 L92.3125,209.52381 L149.5,300 L0,300 Z" id="Fill-2794" fill="#8B88AA"></path>
                <path d="M300,300 L282.9375,247.619048 C280.006641,241.271429 274.845469,236.219048 268.435703,233.414286 L206.6875,209.52381 L149.5,300 L300,300 Z" id="Fill-2795" fill="#8B88AA"></path>
                <path d="M259.109375,295.238095 C259.109375,297.857143 256.964844,300 254.34375,300 L201.921875,300 C199.300781,300 197.15625,297.857143 197.15625,295.238095 L197.15625,261.904762 C197.15625,259.285714 199.300781,257.142857 201.921875,257.142857 L254.34375,257.142857 C256.964844,257.142857 259.109375,259.285714 259.109375,261.904762 L259.109375,295.238095 Z" id="Fill-2796" fill="#FFFFFF"></path>
                <polygon id="Fill-2797" fill="#8B88AA" points="220.984375 295.238095 201.921875 295.238095 201.921875 271.428571 220.984375 271.428571"></polygon>
                <path d="M254.34375,257.142857 L235.28125,257.142857 L235.28125,254.761905 C235.28125,250.833333 232.064453,247.619048 228.132812,247.619048 C224.201172,247.619048 220.984375,250.833333 220.984375,254.761905 L220.984375,257.142857 L201.921875,257.142857 C199.300781,257.142857 197.15625,259.285714 197.15625,261.904762 L197.15625,266.666667 L259.109375,266.666667 L259.109375,261.904762 C259.109375,259.285714 256.964844,257.142857 254.34375,257.142857" id="Fill-2798" fill="#EBEAF4"></path>
                <path d="M224.328414,100.848571 L215.221305,119.048571 L209.81232,67.22 L132.194586,98.2438095 L142.540758,62.0485714 C142.540758,62.0485714 117.378258,80.0152381 94.4365391,97.2057143 L91.3150547,123.810476 L82.7798203,109.59619 L82.7798203,138.081905 L101.84232,185.700952 L126.175602,204.724762 C128.887242,207.767619 132.771227,209.510476 136.845836,209.510476 L149.49857,209.510476 L162.151305,209.510476 C166.23068,209.510476 170.114664,207.767619 172.826305,204.724762 L197.15482,185.700952 L212.43818,147.524762 C225.948727,146.553333 230.514195,126.072381 230.514195,110.581905 C230.514195,106.553333 227.750133,102.54381 224.328414,100.848571" id="Fill-2799" fill="#FBC8C8"></path>
                <path d="M132.194586,98.2442857 L142.540758,62.0490476 C142.540758,62.0490476 117.378258,80.0109524 94.4365391,97.2061905 L91.3150547,123.810952 L77.0944297,100.125238 C72.6576328,100.744286 68.4829453,105.634762 68.4829453,110.582381 C68.4829453,126.072857 73.0484141,146.55381 86.5637266,147.525238 L101.84232,185.701429 L126.175602,204.725238 C128.887242,207.768095 132.771227,209.510952 136.850602,209.510952 L149.49857,209.510952 L149.49857,91.3252381 L132.194586,98.2442857 Z" id="Fill-2800" fill="#FBD7D7"></path>
                <path d="M152.892648,0 C110.021086,0 75.2701484,34.7238095 75.2701484,77.5619048 C75.2701484,84.4142857 77.0191328,100 77.0191328,100 L91.3160078,123.809524 L94.4374922,97.2095238 C117.379211,80.0142857 142.541711,62.047619 142.541711,62.047619 L132.195539,98.2428571 L209.813273,67.2190476 L215.222258,119.047619 L224.753508,100 C224.753508,100 229.519133,90.4761905 230.515148,77.5619048 C230.515148,34.7238095 195.764211,0 152.892648,0" id="Fill-2801" fill="#84462D"></path>
                <path d="M135.203125,109.509048 C135.203125,104.251905 130.933125,99.9852381 125.671875,99.9852381 C125.662344,99.9852381 125.652812,99.99 125.643281,99.99 C125.648047,100.09 125.671875,100.185238 125.671875,100.285238 C125.671875,105.532857 121.420937,109.79 116.169219,109.804286 C116.33125,114.923333 120.510703,119.032857 125.671875,119.032857 C130.933125,119.032857 135.203125,114.76619 135.203125,109.509048" id="Fill-2802" fill="#3E3E3F"></path>
                <path d="M182.829352,109.509048 C182.829352,104.251905 178.559352,99.9852381 173.298102,99.9852381 C173.28857,99.9852381 173.279039,99.99 173.269508,99.99 C173.274273,100.09 173.298102,100.185238 173.298102,100.285238 C173.298102,105.532857 169.047164,109.79 163.795445,109.804286 C163.952711,114.923333 168.13693,119.032857 173.298102,119.032857 C178.559352,119.032857 182.829352,114.76619 182.829352,109.509048" id="Fill-2803" fill="#3E3E3F"></path>
                <path d="M125.671875,157.128095 L173.328125,157.128095 C173.328125,157.128095 173.328125,171.41381 149.5,171.41381 C125.671875,171.41381 125.671875,157.128095 125.671875,157.128095" id="Fill-2804" fill="#F79392"></path>
                <path d="M167.697062,166.666667 L131.301984,166.666667 C127.641984,166.666667 124.434719,168.566667 122.585656,171.428571 L116.142531,171.428571 C106.249094,171.428571 87.5487813,165.457143 87.5487813,142.857143 L87.5487813,100 L76.4258125,100 C64.1447969,100 54.1894063,109.947619 54.1894063,122.22381 C54.1894063,134.495238 64.1447969,144.442857 76.4258125,144.442857 L78.0985469,144.442857 C78.9658906,171.157143 101.116516,180.952381 116.142531,180.952381 L121.675422,180.952381 C123.219484,184.757143 126.941437,187.447619 131.301984,187.447619 L167.697062,187.447619 C173.439641,187.447619 178.095656,182.795238 178.095656,177.057143 C178.095656,171.319048 173.439641,166.666667 167.697062,166.666667" id="Fill-2805" fill="#353167"></path>
            </g>
        </g>
    </g>
</svg>