<?xml version="1.0" encoding="UTF-8"?>
<svg width="80px" height="80px" viewBox="0 0 80 80" version="1.1" xmlns="http://www.w3.org/2000/svg" xmlns:xlink="http://www.w3.org/1999/xlink">
    <!-- Generator: Sketch 49.1 (51147) - http://www.bohemiancoding.com/sketch -->
    <title>assets/img_domain_us_cellular</title>
    <desc>Created with Sketch.</desc>
    <defs></defs>
    <g id="Freshness" stroke="none" stroke-width="1" fill="none" fill-rule="evenodd">
        <g id="Freeform-Icons" transform="translate(-480.000000, -1300.000000)">
            <g id="assets/img_domain_us_cellular" transform="translate(480.000000, 1300.000000)">
                <circle id="Oval-11" fill="#353167" cx="40" cy="40" r="40"></circle>
                <g id="logo" transform="translate(18.000000, 17.000000)">
                    <g transform="translate(0.652903, 0.000000)" id="Shape">
                        <path d="M37.8576103,15.9214655 C33.1230555,14.9725862 26.7582761,14.4217241 21.427489,14.4962069 C23.5668645,10.5346552 26.4036748,6.64991379 29.088289,4.30137931 L28.3947768,3.73189655 C28.3947768,3.73189655 21.5130013,7.8687931 16.560351,18.8860345 L18.8087742,19.6316379 C19.3336155,18.4476724 20.016929,17.262931 20.5911948,16.0968103 C25.412831,15.9982759 32.2491045,16.5289655 38.1761239,17.6555172 C31.7030813,18.7518103 19.843551,21.7419828 12.9727587,36.6090517 C12.9727587,36.6090517 14.1683613,29.289569 17.4884335,22.7831897 C18.21568,23.0625 19.7211665,23.697931 19.7211665,23.697931 L21.4996645,22.1834483 C16.8466994,19.9776724 11.5904413,18.6206897 5.93800258,17.8999138 C5.93800258,17.8999138 9.70917161,16.7314655 16.3344103,16.2690517 L17.289951,14.6622414 C6.73977806,15.080431 -1.38937806,18.0403448 0.200051613,18.4911207 C1.99031742,18.9977586 7.26461935,19.2568966 14.784991,21.8071552 C10.115551,31.8825 9.32005161,43.5731897 11.0467716,44.5344828 C12.7625084,45.4794828 16.6497858,32.247931 24.4871019,26.0790517 C24.4871019,26.0790517 31.4159484,29.4610345 37.0495587,34.9867241 C37.2543174,34.7531897 37.5281135,34.5646552 37.8481961,34.4599138 C34.7328826,30.4176724 30.4274581,26.6974138 26.4444697,24.7143103 C29.3471794,22.7087069 34.8387923,20.6255172 40.1076026,19.5012931 C42.1787252,19.0621552 46.7665755,17.7028448 37.8576103,15.9214655" fill="#FFFFFF"></path>
                        <path d="M39.1591226,38.6068966 C40.0275819,38.6107759 40.7305084,37.9233621 40.7305084,37.062931 C40.7367845,36.2102586 40.0369961,35.5143103 39.1693213,35.510431 C38.3032155,35.510431 37.5979355,36.1986207 37.5979355,37.0543966 C37.597151,37.9148276 38.2945858,38.6068966 39.1591226,38.6068966" fill="#BF2F37"></path>
                        <path d="M30.8487432,3.51853448 C31.714849,3.52474138 32.4177755,2.83267241 32.4232671,1.9737931 C32.4232671,1.11568966 31.7274013,0.42362069 30.8612955,0.417413793 C29.9951897,0.417413793 29.2914787,1.10948276 29.2867716,1.96758621 C29.282849,2.8187069 29.988129,3.51853448 30.8487432,3.51853448" fill="#BF2F37"></path>
                    </g>
                </g>
            </g>
        </g>
    </g>
</svg>