<svg width="147" height="61" xmlns="http://www.w3.org/2000/svg">
    <g fill-rule="nonzero" fill="none">
        <path fill="#FF4722" d="m24.024 43.344-8.008.498v-7.884l-8.008.504v-8.02L0 28.963v8.081l8.008-.51v7.801L0 44.828v8.081l8.008-.482v7.947l8.008-.47v-8.031l-8.008.481v-7.873l8.008-.493v7.885l8.008-.487v-7.89l8.008-.5v-8.052l-8.008.51z"/>
        <path fill="#FF4722" d="m24.024 27.412-8.008.515v8.03l8.008-.503zM32.032 58.957v-8.053l-8.008.482v8.041zM130.48 29.792v-8.187l-8.008.515v8.176l-8.008.504v8.165l8.008-.493v8.03l-8.008.482v8.176l8.008-.47v-8.115l7.907-.476v8.115l8.008-.47v-8.205l-7.907.476V37.98l7.907-.487v8.047l8.008-.481v-8.21l-8.008.493v-8.047l-7.907.498zm-8.008.56 7.907-.498v7.98l-7.907.487v-7.969z"/>
        <path fill="#FF4722" d="m146.395 20.58-8.008.515v8.199l8.008-.504z"/>
        <path fill="#8736C1" d="M117.964 51.027V18.57l-90.62 5.885V56.42z"/>
        <path d="M41.882 33.673c0 1.422-.896 2.453-2.9 2.576a3.422 3.422 0 0 1-2.8-1.12l.845-.88a2.682 2.682 0 0 0 2.039.813c1.12-.073 1.624-.488 1.624-1.255 0-.61-.46-.885-1.77-1.198-1.68-.392-2.453-.756-2.453-2.167 0-1.412 1.12-2.268 2.587-2.364.946-.081 1.881.25 2.565.908l-.829.901a2.24 2.24 0 0 0-1.825-.638c-.919.056-1.31.56-1.31 1.064s.358.8 1.713 1.12c1.551.397 2.514.829 2.514 2.24zM49.79 35.448l-1.255.078-.66-1.836-3.137.201-.65 1.915-1.22.073 2.8-8.08 1.266-.079 2.856 7.728zm-2.274-2.8-.627-1.78c-.19-.56-.504-1.446-.594-1.782-.09.348-.37 1.266-.56 1.865l-.627 1.848 2.408-.151zM55.58 28.33l-2.285.146v6.748l-1.176.073v-6.748l-2.279.151v-1.165l5.74-.375zM58.358 34.905l-1.176.078V27.06l1.176-.073zM65.705 32.166c0 1.428-.896 2.459-2.901 2.588a3.405 3.405 0 0 1-2.8-1.12l.851-.874a2.66 2.66 0 0 0 2.039.806c1.12-.067 1.624-.487 1.624-1.254 0-.61-.46-.89-1.77-1.204-1.68-.392-2.453-.762-2.453-2.173s1.12-2.285 2.587-2.374a3.276 3.276 0 0 1 2.565.913l-.829.901a2.24 2.24 0 0 0-1.825-.655c-.919.062-1.316.56-1.316 1.07s.364.806 1.719 1.12c1.546.403 2.509.84 2.509 2.256zM72.514 27.244l-3.875.252v2.072l2.24-.146v1.17l-2.24.14v3.529l-1.181.073v-7.93l5.04-.325zM79.29 33.589l-1.254.078-.66-1.842-3.137.201-.655 1.921-1.22.079 2.827-8.12 1.243-.079 2.856 7.762zm-2.273-2.8-.627-1.787c-.19-.56-.504-1.456-.594-1.792-.09.348-.37 1.272-.56 1.876l-.633 1.854 2.414-.151zM86.24 31.758a3.203 3.203 0 0 1-2.7 1.68c-2.026.128-3.32-1.484-3.32-3.92s1.294-4.184 3.32-4.312a2.61 2.61 0 0 1 2.666 1.316l-1.041.728a1.58 1.58 0 0 0-1.624-.852c-1.367.09-2.106 1.26-2.106 3.041s.74 2.862 2.106 2.8a2.005 2.005 0 0 0 1.725-1.12l.974.639zM93.022 25.934l-2.285.145v6.793l-1.176.073v-6.793l-2.285.151v-1.176l5.746-.364zM95.8 32.553l-1.182.073v-7.97l1.181-.072zM104.2 28.022c0 2.487-1.367 4.217-3.36 4.34-1.994.124-3.333-1.41-3.333-3.92 0-2.508 1.372-4.21 3.36-4.34 1.988-.128 3.332 1.434 3.332 3.92zm-1.2.101c0-1.814-.918-2.884-2.172-2.8-1.254.084-2.117 1.243-2.117 3.052s.907 2.884 2.162 2.8c1.254-.084 2.128-1.215 2.128-3.052zM111.815 31.545l-1.12.073-3.125-4.81c-.19-.286-.459-.751-.588-.947v5.986l-1.12.073v-7.986l1.199-.072 2.979 4.681c.202.32.56.89.65 1.087v-6.004l1.12-.072.005 7.99zM41.826 46.11c0 2.24-1.232 3.573-3.505 3.708-2.15.134-3.601-1.266-3.601-3.848 0-2.335 1.277-4.15 3.651-4.295 1.96-.123 2.722.56 3.282 2.01l-1.971.897c-.258-.661-.56-1.048-1.322-1.003-1.02.067-1.366 1.003-1.366 2.24 0 1.568.504 2.19 1.512 2.128.918-.056 1.22-.504 1.31-1.047l-1.422.084V45.36l3.45-.207-.018.957zM49.935 45.64c0 2.509-1.49 3.595-3.46 3.713-1.972.117-3.417-.784-3.417-3.293v-4.553l2.24-.134v4.525c0 .974.381 1.545 1.232 1.495.852-.05 1.21-.672 1.21-1.647v-4.524l2.24-.14-.045 4.558zM58.503 48.474l-2.352.14-.425-1.361-2.352.14-.426 1.417-2.33.14 2.845-8.087 2.195-.134 2.845 7.745zM55.2 45.539l-.145-.51c-.28-1.002-.404-1.422-.504-1.948-.101.56-.224.985-.504 2.01l-.146.527 1.3-.079zM66.343 47.998l-2.43.145-1.277-2.593-.874.056v2.672l-2.139.128v-7.924l3.506-.218c1.837-.112 3.057.515 3.057 2.397a2.526 2.526 0 0 1-1.41 2.408l1.567 2.929zm-2.318-5.158c0-.498-.269-.834-.952-.79l-1.31.079v1.73l1.276-.078c.706-.028.986-.381.986-.941zM74.889 47.482l-2.352.14-.426-1.366-2.352.14-.425 1.422-2.33.14 2.845-8.108 2.195-.135 2.845 7.767zm-3.304-2.962-.146-.515c-.28-1.003-.403-1.428-.504-1.955-.1.56-.224.992-.504 2.016l-.145.56 1.299-.106zM82.88 46.995l-1.77.107-1.87-2.51c-.347-.464-1.02-1.444-1.22-1.786.055.348.066 1.406.066 2.05v2.43l-2.083.13V39.48l1.915-.118 1.725 2.24c.44.578.85 1.178 1.227 1.798-.056-.347-.068-1.406-.068-2.055v-2.173l2.084-.129-.006 7.952zM90.72 40.482l-2.195.135v6.037l-2.173.134v-6.037l-2.195.135v-1.921l6.563-.403zM98.062 46.077l-6.082.37v-7.964l6.02-.375v1.86l-3.853.234v1.059l2.319-.14v1.831l-2.319.14v1.366l3.92-.235zM105.532 45.64l-6.082.364v-7.986l6.004-.37v1.86l-3.853.235v1.059l2.318-.14v1.836l-2.318.14v1.367l3.92-.241zM113.68 41.087c0 3.007-1.456 4.133-4.234 4.301l-2.542.151v-7.985l2.744-.168c2.48-.146 4.032.7 4.032 3.701zm-2.24.174c0-1.473-.46-2.061-1.814-1.977h-.56v4.2h.47c1.406-.084 1.932-.644 1.932-2.223h-.028z" fill="#FFF"/>
        <path fill="#FF4722" d="m72.31.29 1.204 4.25 4.407-.173-3.668 2.453 1.529 4.144-3.472-2.738-3.467 2.738 1.529-4.144-3.674-2.453 4.413.174zM59.15 3.37l1.198 4.25 4.413-.173L61.093 9.9l1.529 4.144-3.472-2.733-3.467 2.733L57.212 9.9l-3.674-2.453 4.413.174zM45.611 8l1.199 4.25 4.412-.173-3.668 2.453 1.53 4.144-3.473-2.733-3.466 2.733 1.529-4.144L40 12.077l4.413.173zM85.47 1.875l1.204 4.25 4.412-.173-3.673 2.453 1.529 4.144L85.47 9.81l-3.467 2.739 1.529-4.144-3.668-2.453 4.413.174zM97.606 5l1.204 4.25 4.412-.173-3.673 2.453 1.529 4.144-3.472-2.739-3.467 2.739 1.529-4.144L92 9.077l4.413.173z"/>
    </g>
</svg>
