<svg xmlns="http://www.w3.org/2000/svg" width="100" height="25" viewBox="0 0 100 25">
    <g fill="none" fill-rule="evenodd">
        <g>
            <g>
                <g>
                    <g>
                        <path fill="#28356A" d="M37.325 5.493h-5.524c-.378 0-.7.275-.758.648l-2.234 14.165c-.045.28.172.532.455.532h2.637c.378 0 .7-.275.759-.649l.602-3.82c.059-.374.38-.65.758-.65h1.749c3.638 0 5.738-1.76 6.287-5.25.247-1.526.01-2.725-.704-3.565-.785-.923-2.178-1.41-4.027-1.41zm.637 5.174c-.302 1.982-1.816 1.982-3.28 1.982h-.834l.585-3.702c.035-.223.228-.388.455-.388h.382c.997 0 1.938 0 2.424.568.29.34.38.844.268 1.54zM53.837 10.603h-2.645c-.225 0-.42.165-.455.389l-.117.74-.185-.269c-.572-.83-1.85-1.109-3.124-1.109-2.923 0-5.42 2.214-5.906 5.32-.253 1.55.107 3.03.985 4.064.807.95 1.96 1.345 3.332 1.345 2.356 0 3.661-1.514 3.661-1.514l-.117.735c-.045.28.172.533.454.533h2.382c.38 0 .7-.275.759-.649l1.43-9.053c.045-.28-.171-.532-.454-.532zm-3.687 5.149c-.255 1.51-1.455 2.525-2.984 2.525-.768 0-1.382-.246-1.777-.713-.39-.464-.539-1.124-.415-1.859.239-1.498 1.458-2.545 2.965-2.545.75 0 1.361.25 1.764.72.403.476.563 1.14.447 1.872zM67.926 10.603h-2.659c-.253 0-.492.126-.635.337l-3.667 5.4-1.554-5.19c-.097-.324-.397-.547-.736-.547h-2.612c-.318 0-.538.31-.437.61l2.928 8.592L55.8 23.69c-.217.307.001.727.375.727h2.655c.252 0 .488-.122.631-.329l8.841-12.762c.212-.305-.005-.723-.377-.723" transform="translate(-20 -492) translate(20 492)"/>
                        <path fill="#298FC2" d="M76.726 5.493h-5.524c-.378 0-.7.275-.758.648L68.21 20.306c-.045.28.172.532.454.532h2.835c.263 0 .488-.193.53-.454l.634-4.015c.058-.374.38-.65.757-.65h1.748c3.64 0 5.739-1.76 6.288-5.25.248-1.526.01-2.725-.705-3.565-.784-.923-2.176-1.41-4.025-1.41zm.638 5.174c-.302 1.982-1.816 1.982-3.281 1.982h-.833l.586-3.702c.034-.223.226-.388.453-.388h.382c.997 0 1.939 0 2.425.568.29.34.378.844.268 1.54zM93.238 10.603h-2.644c-.227 0-.42.165-.454.389l-.117.74-.186-.269c-.573-.83-1.849-1.109-3.123-1.109-2.924 0-5.42 2.214-5.905 5.32-.252 1.55.105 3.03.984 4.064.808.95 1.96 1.345 3.332 1.345 2.355 0 3.661-1.514 3.661-1.514l-.118.735c-.044.28.172.533.456.533h2.382c.377 0 .699-.275.758-.649l1.43-9.053c.044-.28-.173-.532-.456-.532zm-3.688 5.149c-.253 1.51-1.454 2.525-2.984 2.525-.767 0-1.382-.246-1.776-.713-.391-.464-.538-1.124-.416-1.859.24-1.498 1.458-2.545 2.965-2.545.751 0 1.362.25 1.764.72.404.476.564 1.14.447 1.872zM96.356 5.882L94.09 20.306c-.044.28.172.532.454.532h2.28c.378 0 .7-.275.758-.649l2.235-14.164c.045-.28-.172-.532-.454-.532H96.81c-.225 0-.419.165-.454.39" transform="translate(-20 -492) translate(20 492)"/>
                        <path fill="#28356A" d="M5.869 23.59l.422-2.683-.94-.022H.856L3.98 1.086c.01-.06.04-.116.087-.155.046-.04.105-.062.166-.062h7.577c2.515 0 4.25.524 5.157 1.557.425.484.695.991.826 1.548.138.585.14 1.284.006 2.136l-.01.062v.546l.425.24c.358.19.642.408.86.656.364.415.599.942.698 1.566.103.642.069 1.406-.1 2.271-.193.995-.507 1.862-.93 2.571-.39.654-.885 1.196-1.474 1.616-.562.399-1.23.702-1.985.895-.732.191-1.566.287-2.482.287h-.59c-.42 0-.83.152-1.152.424-.322.278-.535.658-.6 1.073l-.045.241-.747 4.73-.033.173c-.01.055-.025.082-.047.101-.02.017-.05.028-.078.028H5.87" transform="translate(-20 -492) translate(20 492)"/>
                        <path fill="#298FC2" d="M18.616 6.235c-.022.145-.048.292-.077.444-1 5.13-4.418 6.902-8.783 6.902H7.533c-.534 0-.984.388-1.067.914l-1.46 9.264c-.055.346.212.658.56.658H9.51c.467 0 .864-.34.937-.8l.039-.2.742-4.71.048-.26c.073-.461.47-.8.937-.8h.59c3.819 0 6.81-1.551 7.683-6.04.365-1.874.176-3.44-.79-4.54-.292-.332-.655-.607-1.079-.832" transform="translate(-20 -492) translate(20 492)"/>
                        <g>
                            <path fill="#22284F" d="M17.571 5.818c-.153-.044-.31-.085-.472-.12-.162-.036-.328-.068-.5-.096-.599-.096-1.256-.142-1.96-.142H8.703c-.147 0-.286.033-.41.092-.274.132-.477.391-.527.709l-1.263 8.001-.036.233c.083-.526.533-.914 1.067-.914h2.223c4.365 0 7.784-1.773 8.783-6.902.03-.152.055-.3.077-.444-.253-.134-.526-.249-.821-.347-.073-.024-.148-.047-.224-.07" transform="translate(-20 -492) translate(20 492)"/>
                            <path fill="#28356A" d="M7.765 6.26c.05-.317.253-.576.527-.707.125-.06.263-.093.41-.093h5.938c.703 0 1.36.047 1.96.143.17.028.337.06.5.095.16.036.318.077.471.121l.224.07c.295.097.57.213.822.346.297-1.896-.003-3.186-1.027-4.355C16.46.593 14.42.042 11.81.042H4.234c-.533 0-.988.388-1.07.915L.008 20.96c-.062.396.243.753.642.753h4.678L7.765 6.261" transform="translate(-20 -492) translate(20 492)"/>
                        </g>
                    </g>
                </g>
            </g>
        </g>
    </g>
</svg>
