<svg width="40" height="40" viewBox="0 0 40 40" xmlns="http://www.w3.org/2000/svg" xmlns:xlink="http://www.w3.org/1999/xlink">
    <defs>
        <path d="M11.875 23.75C5.317 23.75 0 18.433 0 11.875S5.317 0 11.875 0 23.75 5.317 23.75 11.875 18.433 23.75 11.875 23.75" id="a"/>
    </defs>
    <g fill="none" fill-rule="evenodd">
        <path d="M12.418 23.83.905 35.341a3.096 3.096 0 0 0 0 4.375l.044.045a3.097 3.097 0 0 0 4.375 0l11.514-11.513a15.074 15.074 0 0 1-4.42-4.42" fill="#8B88AA"/>
        <path d="M.902 35.342a3.094 3.094 0 0 0-.046 4.319l10.6-10.601-2.135-2.136L.9 35.342z" fill="#B3B1C7"/>
        <path d="M25 .667c8.284 0 15 6.715 15 15 0 8.284-6.716 15-15 15a14.93 14.93 0 0 1-8.166-2.416l-3.09 3.092-4.42-4.42 3.091-3.09A14.93 14.93 0 0 1 10 15.666c0-8.285 6.716-15 15-15z" fill="#4A3B8F"/>
        <g transform="translate(13 3.667)">
            <mask id="b" fill="#fff">
                <use xlink:href="#a"/>
            </mask>
            <use fill="#40C9E7" xlink:href="#a"/>
            <path d="M12.874-2.5C5.212-2.5-1 3.712-1 11.374c0 4 1.703 7.594 4.41 10.126L23 1.91C20.468-.796 16.874-2.5 12.874-2.5" fill="#6FDAF1" mask="url(#b)"/>
        </g>
    </g>
</svg>
