<?xml version="1.0" encoding="UTF-8"?>
<svg width="80px" height="80px" viewBox="0 0 80 80" version="1.1" xmlns="http://www.w3.org/2000/svg" xmlns:xlink="http://www.w3.org/1999/xlink">
    <!-- Generator: Sketch 49.1 (51147) - http://www.bohemiancoding.com/sketch -->
    <title>assets/img_domain_facebook</title>
    <desc>Created with Sketch.</desc>
    <defs></defs>
    <g id="Freshness" stroke="none" stroke-width="1" fill="none" fill-rule="evenodd">
        <g id="Freeform-Icons" transform="translate(0.000000, -1460.000000)">
            <g id="assets/img_domain_facebook" transform="translate(0.000000, 1460.000000)">
                <circle id="Oval-7" fill="#353167" cx="40" cy="40" r="40"></circle>
                <g id="F_icon" transform="translate(18.000000, 18.000000)" fill-rule="nonzero">
                    <path d="M41.8666899,44.3066636 C43.2138641,44.3066636 44.3063205,43.2142072 44.3063205,41.8666899 L44.3063205,2.54066015 C44.3063205,1.19297133 43.2140357,0.100857964 41.8666899,0.100857964 L2.54066015,0.100857964 C1.19297133,0.100857964 0.100857964,1.19297133 0.100857964,2.54066015 L0.100857964,41.8666899 C0.100857964,43.2140357 1.1927998,44.3066636 2.54066015,44.3066636 L41.8666899,44.3066636 Z" id="Blue_1_" fill="#FFFFFF"></path>
                    <path d="M30.6019873,44.3066636 L30.6019873,27.1877394 L36.3479754,27.1877394 L37.2083555,20.5161909 L30.6019873,20.5161909 L30.6019873,16.2568287 C30.6019873,14.3252615 31.1383527,13.0089621 33.9081732,13.0089621 L37.4409464,13.0074184 L37.4409464,7.04033188 C36.8299666,6.95902801 34.7328757,6.77738076 32.2930735,6.77738076 C27.1995748,6.77738076 23.7124278,9.88648189 23.7124278,15.5961061 L23.7124278,20.5161909 L17.9516885,20.5161909 L17.9516885,27.1877394 L23.7124278,27.1877394 L23.7124278,44.3066636 L30.6019873,44.3066636 Z" id="f" fill="#353167"></path>
                </g>
            </g>
        </g>
    </g>
</svg>