<svg xmlns="http://www.w3.org/2000/svg" width="32" height="32" viewBox="0 0 32 32">
    <g fill="none" fill-rule="evenodd">
        <g fill-rule="nonzero">
            <g>
                <g>
                    <path fill="#8736C1" d="M22.16 1.558c1.529 0 2.785 1.174 2.913 2.67l.01.252v2.661c0 .349-.282.632-.631.632-.306 0-.56-.217-.619-.504l-.013-.128v-2.66c0-.852-.64-1.553-1.467-1.649l-.194-.01h-4.32c-.348 0-.631-.284-.631-.632 0-.306.216-.56.504-.62l.127-.012h4.32zM7.244 1.559c.349 0 .631.282.631.631 0 .305-.216.56-.504.619l-.127.013h-4.32c-.853 0-1.554.64-1.65 1.465l-.01.194v23.99c0 .852.64 1.553 1.466 1.649l.194.011H22.16c.85 0 1.552-.64 1.648-1.467l.01-.193v-1.11c0-.35.284-.632.632-.632.306 0 .56.217.62.504l.012.128v1.11c0 1.53-1.174 2.785-2.67 2.913l-.252.01H2.924c-1.53 0-2.785-1.174-2.913-2.671L0 28.47V4.48c0-1.53 1.174-2.784 2.671-2.912l.253-.01h4.32z" transform="translate(-478 -249) translate(478 249) translate(.674)"/>
                    <path fill="#8736C1" d="M30.115 11.43l-5.37-1.61c-.191-.057-.396-.057-.587 0l-5.372 1.61c-.437.131-.735.534-.735.99v5.904c0 .921.364 1.84 1.06 2.728.507.647 1.197 1.287 2.051 1.905.748.542 1.54 1.013 2.3 1.402l.492.242.079.035c.14.059.276.09.418.09.143 0 .285-.032.415-.088.706-.312 1.806-.907 2.876-1.681.856-.62 1.546-1.26 2.052-1.906.694-.887 1.057-1.807 1.057-2.727V12.42c0-.457-.297-.86-.736-.991zm-5.66-.382l5.132 1.543.001 5.733c0 .617-.258 1.27-.789 1.948-.427.546-1.032 1.107-1.798 1.662l-.33.232c-.66.452-1.316.827-1.838 1.09l-.383.181-.149-.07-.27-.135c-.7-.359-1.437-.797-2.128-1.298-.765-.554-1.369-1.114-1.798-1.662l-.187-.253c-.406-.588-.604-1.155-.604-1.695V12.59l5.141-1.543z" transform="translate(-478 -249) translate(478 249) translate(.674)"/>
                    <path fill="#FF4722" d="M27.648 14.662c.247-.247.647-.247.893 0 .212.211.242.535.091.779l-.09.114-4.73 4.731-2.537-2.536c-.246-.247-.246-.647 0-.894.212-.21.536-.241.78-.09l.114.09 1.641 1.642 3.838-3.836zM5.742 6.696c.246-.247.646-.247.893 0 .211.211.241.535.09.779l-.09.114-2.587 2.587-1.493-1.49c-.246-.247-.247-.646 0-.893.21-.212.535-.242.779-.091l.114.09.598.597 1.696-1.693zM22.297 6.51c.349 0 .632.283.632.632 0 .305-.217.56-.505.619l-.127.012H8.714c-.349 0-.632-.282-.632-.631 0-.305.217-.56.504-.619l.128-.013h13.583zM19.201 8.652c.35 0 .632.283.632.631 0 .306-.217.56-.504.62l-.128.012H8.714c-.349 0-.632-.283-.632-.632 0-.305.217-.56.504-.618l.128-.013H19.2zM5.741 12.72c.247-.246.647-.246.894 0 .211.212.241.536.09.78l-.09.114-2.587 2.589-1.493-1.493c-.247-.246-.247-.646 0-.893.211-.211.535-.242.779-.09l.114.09.598.598 1.695-1.694zM16.55 12.535c.35 0 .632.283.632.632 0 .305-.217.56-.504.618l-.128.013H8.714c-.349 0-.632-.283-.632-.631 0-.306.217-.56.504-.62l.128-.012h7.836zM16.55 14.678c.35 0 .632.283.632.632 0 .305-.217.56-.504.618l-.128.013H8.714c-.349 0-.632-.283-.632-.631 0-.306.217-.56.504-.62l.128-.012h7.836zM5.742 18.747c.246-.247.646-.247.893 0 .211.211.241.535.09.779l-.09.114-2.587 2.587-1.493-1.49c-.246-.246-.247-.646 0-.893.21-.212.535-.242.779-.091l.114.09.598.598 1.696-1.694zM16.55 18.561c.35 0 .632.283.632.632 0 .305-.217.56-.504.619l-.128.013H8.714c-.349 0-.632-.283-.632-.632 0-.305.217-.56.504-.619l.128-.013h7.836zM16.55 20.703c.35 0 .632.283.632.631 0 .306-.217.56-.504.62l-.128.012H8.714c-.349 0-.632-.283-.632-.632 0-.305.217-.56.504-.618l.128-.013h7.836zM5.741 24.772c.247-.247.647-.247.894 0 .211.21.241.535.09.778l-.09.115-2.587 2.589-1.493-1.493c-.247-.246-.247-.646 0-.893.211-.211.535-.242.779-.09l.114.09.598.6 1.695-1.696zM19.201 24.586c.35 0 .632.283.632.632 0 .305-.217.56-.504.618l-.128.013H8.714c-.349 0-.632-.283-.632-.631 0-.306.217-.56.504-.62l.128-.012H19.2zM22.297 26.73c.349 0 .632.282.632.63 0 .306-.217.56-.505.62l-.127.012H8.714c-.349 0-.632-.283-.632-.631 0-.306.217-.56.504-.62l.128-.012h13.583z" transform="translate(-478 -249) translate(478 249) translate(.674)"/>
                    <path fill="#8736C1" d="M16.664 0H8.42C7.42 0 6.613.81 6.613 1.807v.756c0 .999.808 1.808 1.806 1.808h8.245c.998 0 1.808-.81 1.808-1.808v-.756C18.472.81 17.662 0 16.664 0zM8.42 1.263h8.245c.3 0 .544.245.544.544v.756c0 .3-.243.544-.544.544H8.42c-.3 0-.543-.242-.543-.544v-.756c0-.3.244-.544.543-.544z" transform="translate(-478 -249) translate(478 249) translate(.674)"/>
                </g>
            </g>
        </g>
    </g>
</svg>
