<?xml version="1.0" encoding="UTF-8" standalone="no"?>
<svg width="200px" height="200px" viewBox="0 0 200 200" version="1.1" xmlns="http://www.w3.org/2000/svg" xmlns:xlink="http://www.w3.org/1999/xlink">
    <!-- Generator: Sketch 39.1 (31720) - http://www.bohemiancoding.com/sketch -->
    <title>assets/img_loan</title>
    <desc>Created with Sketch.</desc>
    <defs></defs>
    <g id="Freshness" stroke="none" stroke-width="1" fill="none" fill-rule="evenodd">
        <g id="Circular-Icons" transform="translate(0.000000, -2750.000000)">
            <g id="assets/img_loan" transform="translate(0.000000, 2750.000000)">
                <path d="M100,200 C155.228475,200 200,155.228475 200,100 C200,44.771525 155.228475,0 100,0 C44.771525,0 0,44.771525 0,100 C0,155.228475 44.771525,200 100,200 Z" id="background" fill="#3B2469"></path>
                <g id="Group" transform="translate(48.000000, 40.000000)">
                    <path d="M44.6163782,2.856 C44.2722327,2.276625 44.2571055,1.551 44.57856,0.9585 C44.8981236,0.366 45.5051055,0.000374999999 46.1612509,0.000374999999 L74.8576873,0.000374999999 C75.5138327,0.000374999999 76.1189236,0.367875 76.4384873,0.960375 C76.7599418,1.551 76.7467055,2.2785 76.40256,2.856 C74.2715055,6.439125 71.3821964,13.9185 71.3821964,28.125375 C71.3821964,54.375375 104.000378,54.375375 104.000378,84.375375 C104.000378,105.000375 87.6912873,120.000375 60.5094691,120.000375 C33.3276509,120.000375 17.01856,103.125375 17.01856,84.375375 C17.01856,54.375375 49.6367418,54.375375 49.6367418,28.125375 C49.6367418,13.9185 46.7455418,6.439125 44.6163782,2.856" id="Fill-3838" fill="#F0F1F1"></path>
                    <path d="M46.1610618,0 C45.5049164,0 44.8998255,0.365625 44.5783709,0.958125 C44.2569164,1.550625 44.2720436,2.27625 44.6161891,2.855625 C46.7472436,6.440625 49.6365527,13.918125 49.6365527,28.125 C49.6365527,54.375 17.0183709,54.375 17.0183709,84.375 C17.0183709,103.125 33.3274618,120 60.50928,120 L60.50928,0 L46.1610618,0 Z" id="Fill-3839" fill="#FFFFFF"></path>
                    <polygon id="Fill-3840" fill="#999999" points="15.1272727 45 0 45 0 15 15.1272727 15"></polygon>
                    <polygon id="Fill-3841" fill="#FFFFFF" points="22.6909091 45 15.1272727 45 15.1272727 15 22.6909091 15"></polygon>
                    <path d="M20.8,39.375 C20.8,40.41 19.9528727,41.25 18.9090909,41.25 C17.8653091,41.25 17.0181818,40.41 17.0181818,39.375 C17.0181818,38.34 17.8653091,37.5 18.9090909,37.5 C19.9528727,37.5 20.8,38.34 20.8,39.375" id="Fill-3842" fill="#F3B606"></path>
                    <path d="M62.4,11.25 C62.4,13.3125 60.6981818,15 58.6181818,15 L48.5736727,15 C49.1976727,18.54375 49.6363636,22.875 49.6363636,28.125 C49.6363636,35.274375 46.9777455,40.723125 43.9258182,44.5125 L22.6909091,41.25 L22.6909091,20.625 L35.4167273,11.2875 C38.1774545,8.85 41.7512727,7.5 45.4574545,7.5 L58.6181818,7.5 C60.6981818,7.5 62.4,9.1875 62.4,11.25" id="Fill-3843" fill="#F8B4B4"></path>
                    <path d="M62.4,13.125 L56.7272727,13.125 C54.6397091,13.125 52.9454545,14.805 52.9454545,16.875 C52.9454545,18.945 54.6397091,20.625 56.7272727,20.625 C54.6397091,20.625 52.9454545,22.305 52.9454545,24.375 C52.9454545,26.445 54.6397091,28.125 56.7272727,28.125 C54.6397091,28.125 52.9454545,29.805 52.9454545,31.875 C52.9454545,33.945 54.6397091,35.625 56.7272727,35.625 C54.6397091,35.625 52.9454545,37.305 52.9454545,39.375 C52.9454545,41.445 54.6397091,43.125 56.7272727,43.125 L71.8545455,43.125 C73.9421091,43.125 75.6363636,41.445 75.6363636,39.375 L75.6363636,16.875 C75.6363636,14.805 73.9421091,13.125 71.8545455,13.125 L62.4,13.125 Z" id="Fill-3844" fill="#F8B4B4"></path>
                    <path d="M62.5597818,87.0163125 L62.5597818,96.1700625 C65.8064727,95.8175625 67.5820364,94.2088125 67.5820364,91.7938125 C67.5820364,89.5813125 66.4645091,88.2238125 62.5597818,87.0163125 M58.5529455,80.0244375 L58.5529455,71.1219375 C55.3062545,71.4238125 53.6838545,73.1338125 53.6838545,75.3481875 C53.6838545,77.4594375 54.6463273,78.7681875 58.5529455,80.0244375 M60.5818909,62.8738125 C61.7996364,62.8738125 62.7621091,63.8300625 62.7621091,65.0375625 L62.7621091,66.1438125 C65.7554182,66.4944375 68.2911273,67.4506875 70.6245091,68.9094375 C71.4357091,69.3613125 72.1466909,70.1169375 72.1466909,71.3225625 C72.1466909,72.8825625 70.8778909,74.0900625 69.3065455,74.0900625 C68.7978909,74.0900625 68.2911273,73.9400625 67.7843636,73.6381875 C66.0088,72.5806875 64.2842909,71.8269375 62.5597818,71.4238125 L62.5597818,81.0800625 C70.2709091,82.9925625 73.5667636,86.0619375 73.5667636,91.4431875 C73.5667636,96.9763125 69.2044364,100.647563 62.7621091,101.249438 L62.7621091,104.268188 C62.7621091,105.475687 61.7996364,106.430063 60.5818909,106.430063 C59.3641455,106.430063 58.3487273,105.475687 58.3487273,104.268188 L58.3487273,101.150063 C54.5461091,100.746938 51.0460364,99.3894375 47.9506182,97.2275625 C47.0883636,96.6725625 46.5816,95.8681875 46.5816,94.8125625 C46.5816,93.2544375 47.7993455,92.0469375 49.3706909,92.0469375 C49.9795636,92.0469375 50.5884364,92.2475625 51.0460364,92.6000625 C53.4285818,94.3100625 55.7619636,95.4650625 58.5529455,95.9694375 L58.5529455,86.0619375 C51.1462545,84.1494375 47.6972364,81.3838125 47.6972364,75.6988125 C47.6972364,70.3175625 52.0085091,66.5956875 58.3487273,66.0931875 L58.3487273,65.0375625 C58.3487273,63.8300625 59.3641455,62.8738125 60.5818909,62.8738125" id="Fill-3845" fill="#5CB85C"></path>
                    <path d="M59.4566109,7.60125 C59.1862109,7.539375 58.9063564,7.5 58.6189382,7.5 L45.4582109,7.5 C41.7520291,7.5 38.1782109,8.85 35.4174836,11.2875 L22.6916655,20.625 L22.6916655,41.25 L25.1422836,41.626875 L49.0452655,18.105 C48.9034473,16.92375 48.7559564,16.0425 48.5725382,15 L51.9950836,15 L59.4566109,7.60125 Z" id="Fill-3846" fill="#FBC8C8"></path>
                </g>
            </g>
        </g>
    </g>
</svg>