<?xml version="1.0" encoding="UTF-8"?>
<svg width="80px" height="80px" viewBox="0 0 80 80" version="1.1" xmlns="http://www.w3.org/2000/svg" xmlns:xlink="http://www.w3.org/1999/xlink">
    <!-- Generator: Sketch 49.1 (51147) - http://www.bohemiancoding.com/sketch -->
    <title>assets/img_domain_linkedin</title>
    <desc>Created with Sketch.</desc>
    <defs></defs>
    <g id="Freshness" stroke="none" stroke-width="1" fill="none" fill-rule="evenodd">
        <g id="Freeform-Icons" transform="translate(-160.000000, -1460.000000)">
            <g id="assets/img_domain_linkedin" transform="translate(160.000000, 1460.000000)">
                <circle id="Oval-7" fill="#353167" cx="40" cy="40" r="40"></circle>
                <g id="linkedin" transform="translate(18.000000, 18.000000)" fill-rule="nonzero">
                    <path d="M41.1429787,-4.11048149e-16 L3.28255319,-4.11048149e-16 C2.42176808,-0.00987484988 1.59232156,0.322629277 0.976711146,0.924353743 C0.36110073,1.52607821 0.00976284781,2.34772425 0,3.20851064 L0,41.2170213 C0.00976284781,42.0778077 0.36110073,42.8994537 0.976711146,43.5011782 C1.59232156,44.1029026 2.42176808,44.4354068 3.28255319,44.4255319 L41.1429787,44.4255319 C42.0037638,44.4354068 42.8332104,44.1029026 43.4488208,43.5011782 C44.0644312,42.8994537 44.4157691,42.0778077 44.4255319,41.2170213 L44.4255319,3.20851064 C44.4157691,2.34772425 44.0644312,1.52607821 43.4488208,0.924353743 C42.8332104,0.322629277 42.0037638,-0.00987484988 41.1429787,-7.71355636e-16 L41.1429787,-4.11048149e-16 Z" id="Shape" fill="#0065A1"></path>
                    <path d="M6.57744681,16.6595745 L13.167234,16.6595745 L13.167234,37.8604255 L6.57744681,37.8604255 L6.57744681,16.6595745 Z M9.87234043,6.17021277 C11.9851234,6.17021277 13.6978723,7.88296174 13.6978723,9.99574468 C13.6978723,12.1085276 11.9851234,13.8212766 9.87234043,13.8212766 C7.75955749,13.8212766 6.04680851,12.1085276 6.04680851,9.99574468 C6.04680851,7.88296174 7.75955749,6.17021277 9.87234043,6.17021277 L9.87234043,6.17021277 Z" id="Shape" fill="#FFFFFF"></path>
                    <path d="M17.2765957,16.6595745 L23.5948936,16.6595745 L23.5948936,19.5595745 L23.6812766,19.5595745 C24.9704617,17.3593282 27.3648592,16.0459656 29.9131915,16.1412766 C36.5893617,16.1412766 37.8234043,20.5344681 37.8234043,26.2357447 L37.8234043,37.8604255 L31.2706383,37.8604255 L31.2706383,27.5438298 C31.2706383,25.0757447 31.2706383,21.9165957 27.8523404,21.9165957 C24.4340426,21.9165957 23.9034043,24.5944681 23.9034043,27.3587234 L23.9034043,37.8480851 L17.2765957,37.8480851 L17.2765957,16.6595745 Z" id="Shape" fill="#FFFFFF"></path>
                </g>
            </g>
        </g>
    </g>
</svg>