<?xml version="1.0" encoding="UTF-8"?>
<svg width="80px" height="80px" viewBox="0 0 80 80" version="1.1" xmlns="http://www.w3.org/2000/svg" xmlns:xlink="http://www.w3.org/1999/xlink">
    <!-- Generator: Sketch 55.2 (78181) - https://sketchapp.com -->
    <title>imposter</title>
    <desc>Created with Sketch.</desc>
    <g id="Page-1" stroke="none" stroke-width="1" fill="none" fill-rule="evenodd">
        <g id="01_preclick_1272px_FTB2865" transform="translate(-411.000000, -184.000000)">
            <g id="imposter" transform="translate(411.000000, 184.000000)">
                <g id="Group-5">
                    <g id="Group-3" fill="#353167">
                        <circle id="background" cx="40" cy="40" r="40"></circle>
                    </g>
                    <g id="Group" transform="translate(12.000000, 19.000000)">
                        <g id="Group-4-Copy-2" transform="translate(14.000000, 0.000000)">
                            <g id="Group-4-Copy">
                                <path d="M38.2075472,0 C39.6142217,0 40.754717,1.0074375 40.754717,2.25 L40.754717,24.75 C40.754717,25.9925625 39.6142217,27 38.2075472,27 L2.54716981,27 C1.14049528,27 -2.494005e-12,25.9925625 -2.494005e-12,24.75 L-2.494005e-12,2.25 C-2.494005e-12,1.0074375 1.14049528,0 2.54716981,0 L38.2075472,0 Z" id="Combined-Shape" fill="#EBEAF4"></path>
                                <g id="Group-2" transform="translate(3.000000, 5.000000)">
                                    <polygon id="Fill-523" fill="#8B88AA" points="15.2830189 -2.77111667e-13 -1.37845291e-12 -2.77111667e-13 -1.37845291e-12 16.5566038 15.2830189 16.5566038"></polygon>
                                    <path d="M33.75,2.54716981 C33.75,2.89867925 33.464717,3.18396226 33.1132075,3.18396226 L19.1037736,3.18396226 C18.7522642,3.18396226 18.4669811,2.89867925 18.4669811,2.54716981 C18.4669811,2.19566038 18.7522642,1.91037736 19.1037736,1.91037736 L33.1132075,1.91037736 C33.464717,1.91037736 33.75,2.19566038 33.75,2.54716981" id="Fill-524" fill="#8B88AA"></path>
                                    <path d="M33.75,7.64150943 C33.75,7.99301887 33.464717,8.27830189 33.1132075,8.27830189 L19.1037736,8.27830189 C18.7522642,8.27830189 18.4669811,7.99301887 18.4669811,7.64150943 C18.4669811,7.29 18.7522642,7.00471698 19.1037736,7.00471698 L33.1132075,7.00471698 C33.464717,7.00471698 33.75,7.29 33.75,7.64150943" id="Fill-525" fill="#8B88AA"></path>
                                    <path d="M28.6556604,12.7358491 C28.6556604,13.0873585 28.3703774,13.3726415 28.0188679,13.3726415 L19.1037736,13.3726415 C18.7522642,13.3726415 18.4669811,13.0873585 18.4669811,12.7358491 C18.4669811,12.3843396 18.7522642,12.0990566 19.1037736,12.0990566 L28.0188679,12.0990566 C28.3703774,12.0990566 28.6556604,12.3843396 28.6556604,12.7358491" id="Fill-526" fill="#8B88AA"></path>
                                    <polygon id="Fill-527" fill="#8B88AA" points="15.2830189 1.24371934 15.2830189 6.36792459e-05 -1.37845291e-12 6.36792459e-05 -1.37845291e-12 16.5267382"></polygon>
                                    <path d="M9.65511085,11.6177052 C10.3931533,10.7637665 10.8255354,9.73853066 10.8255354,7.00478066 C10.8255354,5.59810613 9.55195047,3.8208184 7.64157311,3.8208184 C5.73119575,3.8208184 4.45761085,5.59810613 4.45761085,7.00478066 C4.45761085,9.72388443 5.05173821,10.7414788 5.78914387,11.5986014 C3.63805896,11.8998042 1.66272877,12.7098042 6.36792451e-05,13.8986958 L6.36792451e-05,16.5566675 L15.2830825,16.5566675 L15.2830825,13.8986958 C13.661809,12.7397335 11.7444269,11.9367382 9.65511085,11.6177052" id="Fill-530" fill="#353167"></path>
                                    <path d="M7.64150943,3.82075472 C5.73113208,3.82075472 4.45754717,5.59804245 4.45754717,7.00471698 C4.45754717,9.2392217 4.85936321,10.3236792 5.41146226,11.1158491 L10.6013208,5.92599057 C10.1562028,4.82816038 9.07938679,3.82075472 7.64150943,3.82075472" id="Fill-531" fill="#353167"></path>
                                    <path d="M5.06261699e-13,16.5267382 L4.73073113,11.7960071 C2.99037736,12.1857241 1.38502358,12.9078467 5.06261699e-13,13.8986958 L5.06261699e-13,16.5267382 Z" id="Fill-532" fill="#353167"></path>
                                </g>
                            </g>
                        </g>
                        <g id="Group-4" transform="translate(0.000000, 15.000000)">
                            <path d="M38.2075472,0 C39.6142217,0 40.754717,1.0074375 40.754717,2.25 L40.754717,24.75 C40.754717,25.9925625 39.6142217,27 38.2075472,27 L2.54716981,27 C1.14049528,27 -2.494005e-12,25.9925625 -2.494005e-12,24.75 L-2.494005e-12,2.25 C-2.494005e-12,1.0074375 1.14049528,0 2.54716981,0 L38.2075472,0 Z" id="Combined-Shape" fill="#FFFFFF"></path>
                            <g id="Group-2" transform="translate(3.000000, 5.000000)">
                                <polygon id="Fill-523" fill="#6FDAF1" points="15.2830189 -2.77111667e-13 -1.37845291e-12 -2.77111667e-13 -1.37845291e-12 16.5566038 15.2830189 16.5566038"></polygon>
                                <path d="M33.75,2.54716981 C33.75,2.89867925 33.464717,3.18396226 33.1132075,3.18396226 L19.1037736,3.18396226 C18.7522642,3.18396226 18.4669811,2.89867925 18.4669811,2.54716981 C18.4669811,2.19566038 18.7522642,1.91037736 19.1037736,1.91037736 L33.1132075,1.91037736 C33.464717,1.91037736 33.75,2.19566038 33.75,2.54716981" id="Fill-524" fill="#CFD9DE"></path>
                                <path d="M33.75,7.64150943 C33.75,7.99301887 33.464717,8.27830189 33.1132075,8.27830189 L19.1037736,8.27830189 C18.7522642,8.27830189 18.4669811,7.99301887 18.4669811,7.64150943 C18.4669811,7.29 18.7522642,7.00471698 19.1037736,7.00471698 L33.1132075,7.00471698 C33.464717,7.00471698 33.75,7.29 33.75,7.64150943" id="Fill-525" fill="#CFD9DE"></path>
                                <path d="M28.6556604,12.7358491 C28.6556604,13.0873585 28.3703774,13.3726415 28.0188679,13.3726415 L19.1037736,13.3726415 C18.7522642,13.3726415 18.4669811,13.0873585 18.4669811,12.7358491 C18.4669811,12.3843396 18.7522642,12.0990566 19.1037736,12.0990566 L28.0188679,12.0990566 C28.3703774,12.0990566 28.6556604,12.3843396 28.6556604,12.7358491" id="Fill-526" fill="#CFD9DE"></path>
                                <polygon id="Fill-527" fill="#9CE5F4" points="15.2830189 1.24371934 15.2830189 6.36792459e-05 -1.37845291e-12 6.36792459e-05 -1.37845291e-12 16.5267382"></polygon>
                                <path d="M9.65511085,11.6177052 C10.3931533,10.7637665 10.8255354,9.73853066 10.8255354,7.00478066 C10.8255354,5.59810613 9.55195047,3.8208184 7.64157311,3.8208184 C5.73119575,3.8208184 4.45761085,5.59810613 4.45761085,7.00478066 C4.45761085,9.72388443 5.05173821,10.7414788 5.78914387,11.5986014 C3.63805896,11.8998042 1.66272877,12.7098042 6.36792451e-05,13.8986958 L6.36792451e-05,16.5566675 L15.2830825,16.5566675 L15.2830825,13.8986958 C13.661809,12.7397335 11.7444269,11.9367382 9.65511085,11.6177052" id="Fill-530" fill="#0484AB"></path>
                                <path d="M7.64150943,3.82075472 C5.73113208,3.82075472 4.45754717,5.59804245 4.45754717,7.00471698 C4.45754717,9.2392217 4.85936321,10.3236792 5.41146226,11.1158491 L10.6013208,5.92599057 C10.1562028,4.82816038 9.07938679,3.82075472 7.64150943,3.82075472" id="Fill-531" fill="#059BBF"></path>
                                <path d="M5.06261699e-13,16.5267382 L4.73073113,11.7960071 C2.99037736,12.1857241 1.38502358,12.9078467 5.06261699e-13,13.8986958 L5.06261699e-13,16.5267382 Z" id="Fill-532" fill="#059BBF"></path>
                            </g>
                        </g>
                    </g>
                </g>
            </g>
        </g>
    </g>
</svg>