<?xml version="1.0" encoding="UTF-8" standalone="no"?>
<svg width="200px" height="200px" viewBox="0 0 200 200" version="1.1" xmlns="http://www.w3.org/2000/svg" xmlns:xlink="http://www.w3.org/1999/xlink">
    <!-- Generator: Sketch 39.1 (31720) - http://www.bohemiancoding.com/sketch -->
    <title>assets/img_room_count</title>
    <desc>Created with Sketch.</desc>
    <defs></defs>
    <g id="Freshness" stroke="none" stroke-width="1" fill="none" fill-rule="evenodd">
        <g id="Circular-Icons" transform="translate(-250.000000, -2500.000000)">
            <g id="assets/img_room_count" transform="translate(250.000000, 2500.000000)">
                <circle id="background" fill="#3B2469" cx="100" cy="100" r="100"></circle>
                <g id="Group" transform="translate(50.000000, 50.000000)">
                    <polygon id="Fill-3727" fill="#059BBF" points="100 100 100 12.5 71.875 0 25 12.5 0 0 0 87.5 25 100 71.875 87.5"></polygon>
                    <polygon id="Fill-3728" fill="#0484AB" points="71.875 87.5 100 100 100 12.5 71.875 0"></polygon>
                    <polygon id="Fill-3729" fill="#0484AB" points="25 12.5 0 0 0 87.5 25 100"></polygon>
                    <path d="M73.0765625,73.6778125 C72.440625,73.41375 71.734375,73.366875 71.0703125,73.5434375 L65.625,74.995 L65.625,57.00125 L71.978125,51.9184375 L87.5,61.7965625 L87.5,79.6871875 L73.0765625,73.6778125 Z M25.3390625,85.7371875 L12.5,79.3184375 L12.5,60.0309375 L24.69375,62.47 C24.8875,62.5090625 25.0859375,62.510625 25.2796875,62.4746875 L40.625,59.6840625 L40.625,81.660625 L25.3390625,85.7371875 Z M23.6015625,26.2325 C24.284375,26.5746875 25.0703125,26.6528125 25.8046875,26.4575 L42.1875,22.08875 L42.1875,30.6028125 L36.853125,35.9371875 L25.253125,35.9371875 L12.5,31.685625 L12.5,20.6809375 L23.6015625,26.2325 Z M71.653125,14.2309375 L87.5,20.8340625 L87.5,45.6184375 L77.390625,39.2996875 C76.9078125,38.998125 76.3015625,38.9825 75.8046875,39.2590625 C75.3078125,39.5340625 75,40.0559375 75,40.6246875 L75,50.135625 L72.7140625,48.6809375 C72.1515625,48.323125 71.421875,48.36375 70.8984375,48.779375 L63.0859375,55.029375 C62.715625,55.32625 62.5,55.7746875 62.5,56.2496875 L62.5,75.8278125 L43.75,80.8278125 L43.75,57.8121875 C43.75,57.3496875 43.54375,56.910625 43.1890625,56.61375 C42.8328125,56.3153125 42.3609375,56.191875 41.9078125,56.2746875 L25.0140625,59.3465625 L12.5,56.845 L12.5,34.9809375 L24.50625,38.9825 C24.665625,39.035625 24.8328125,39.0621875 25,39.0621875 L37.5,39.0621875 C37.9140625,39.0621875 38.3109375,38.898125 38.6046875,38.604375 L44.8546875,32.354375 C45.146875,32.0621875 45.3125,31.66375 45.3125,31.2496875 L45.3125,21.254375 L62.5,16.6715625 L62.5,20.816875 L55.66875,23.548125 C54.86875,23.87 54.478125,24.779375 54.7984375,25.5809375 C55.115625,26.37 56.0125,26.7746875 56.83125,26.45125 L62.5,24.1825 L62.5,28.629375 L55.66875,31.360625 C54.86875,31.6825 54.478125,32.591875 54.7984375,33.3934375 C55.115625,34.1825 56.0125,34.5871875 56.83125,34.26375 L62.5,31.995 L62.5,36.441875 L55.66875,39.173125 C54.86875,39.495 54.478125,40.404375 54.7984375,41.2059375 C55.115625,41.995 56.0125,42.3996875 56.83125,42.07625 L62.5,39.8075 L62.5,45.3121875 L65.625,43.7496875 L65.625,37.5325 L65.625,37.5278125 L65.625,29.72 L65.625,29.7153125 L65.625,21.9075 L65.625,21.9028125 L65.625,15.8371875 L71.653125,14.2309375 Z M87.5,58.0903125 L78.125,52.1246875 L78.125,43.4434375 L87.5,49.3028125 L87.5,58.0903125 Z M91.8265625,15.8653125 L73.0765625,8.0528125 C72.440625,7.7871875 71.734375,7.7403125 71.0703125,7.9184375 L25.3390625,20.1121875 L10.771875,12.829375 C9.8046875,12.3465625 8.653125,12.3965625 7.7328125,12.966875 C6.8109375,13.535625 6.25,14.541875 6.25,15.6246875 L6.25,81.2496875 C6.25,82.4340625 6.91875,83.5153125 7.9765625,84.045 L23.6015625,91.8575 C24.2625,92.1871875 25.04375,92.2840625 25.8046875,92.0825 L71.653125,79.8559375 L89.4234375,87.2590625 C90.3875,87.660625 91.4890625,87.554375 92.3578125,86.9746875 C93.228125,86.395 93.75,85.42 93.75,84.3746875 L93.75,18.7496875 C93.75,17.48875 92.9921875,16.35125 91.8265625,15.8653125 L91.8265625,15.8653125 Z" id="Fill-3730" fill="#E2E4E5"></path>
                </g>
            </g>
        </g>
    </g>
</svg>