<?xml version="1.0" encoding="UTF-8"?>
<svg width="25px" height="25px" viewBox="0 0 25 25" version="1.1" xmlns="http://www.w3.org/2000/svg" xmlns:xlink="http://www.w3.org/1999/xlink">
    <title>icon/type accident</title>
    <g id="icon/type-accident" stroke="none" stroke-width="1" fill="none" fill-rule="evenodd">
        <g id="Group-16" transform="translate(7.384615, 14.000000)" fill="#FF4722">
            <path d="M6.1493293,0 C6.10202784,0.230694444 6.07527805,0.468111111 6.07527805,0.711638889 C6.07527805,1.14552778 6.15683229,1.56077778 6.30069398,1.94944444 C6.42433021,2.28372222 6.59461547,2.59691667 6.80730893,2.88108333 C7.11884614,3.29725 7.51715706,3.65108333 7.97777542,3.92088889 C8.777007,4.38808333 9.35865186,5.14036111 9.53448281,6.00722222 C9.54622662,6.06527778 9.55601313,6.12333333 9.56384233,6.18108333 C9.58993969,6.37938889 9.61538462,6.57922222 9.61538462,6.78516667 C9.61538462,6.80319444 9.61244866,6.82030556 9.61244866,6.83833333 C9.60494567,7.41063889 9.4767424,7.95544444 9.24871674,8.45075 C8.55909406,9.94980556 6.96878633,11 5.11554772,11 C2.64934743,11 0.649637397,9.14161111 0.618646785,6.83863889 C0.618320568,6.82030556 0.615384615,6.8035 0.615384615,6.78516667 C0.615384615,6.57952778 0.636588718,6.37877778 0.666926897,6.18108333 C0.8130721,5.07161111 1.26227287,4.07794444 1.91340194,3.31497222 C1.9587461,3.443 2.01028838,3.56827778 2.06802879,3.69019444 C2.48623894,4.57325 3.21794361,5.29497222 4.13135112,5.73466667 C3.87755432,5.18191667 3.73597616,4.57386111 3.73597616,3.93372222 C3.73597616,3.51541667 3.80089333,3.11208333 3.91343819,2.72708333 C4.00249542,2.42366667 4.12254327,2.13277778 4.27292929,1.85808333 C4.69668513,1.08319444 5.34977151,0.439083333 6.1493293,0 Z" id="Stroke-1"></path>
        </g>
        <path d="M15.1448113,1 C15.0523107,1.46138889 15,1.93622222 15,2.42327778 C15,3.29105556 15.1594839,4.12155556 15.4408134,4.89888889 C15.6825909,5.56744444 16.0155932,6.19383333 16.4315271,6.76216667 C17.0407554,7.5945 17.8196745,8.30216667 18.7204393,8.84177778 C20.2833811,9.77616667 21.4208199,11.2807222 21.7646671,13.0144444 C21.7876328,13.1305556 21.8067708,13.2466667 21.8220813,13.3621667 C21.8731161,13.7587778 21.9228751,14.1584444 21.9228751,14.5703333 C21.9228751,14.6063889 21.9171336,14.6406111 21.9171336,14.6766667 C21.9024611,15.8212778 21.6517525,16.9108889 21.2058357,17.9015 C20.8889555,18.6059676 20.4748299,19.260871 19.9796381,19.8506079" id="Stroke-1-Copy" stroke="#9428C9" stroke-width="2" stroke-linecap="round" stroke-linejoin="round"></path>
        <path d="M5.13416961,19.7046896 C4.43288136,18.5121511 4.0256192,17.1395225 4.00637935,15.6772778 C4.00574142,15.6406111 4,15.607 4,15.5703333 C4,15.1590556 4.0414658,14.7575556 4.10079379,14.3621667 C4.38658886,12.1432222 5.26502592,10.1558889 6.53834499,8.62994444 C6.62701801,8.886 6.72781181,9.13655556 6.84072638,9.38038889 C7.65855957,11.1465 9.08944869,12.5899444 10.8756678,13.4693333 C10.3793541,12.3638333 10.1024901,11.1477222 10.1024901,9.86744444 C10.1024901,9.03083333 10.2294393,8.22416667 10.449527,7.45416667 C10.6236834,6.84733333 10.8584436,6.26555556 11.1525318,5.71616667 C11.7049839,4.68298148 13.0357437,3.11092593 15.1448113,1" id="Stroke-1" stroke="#9428C9" stroke-width="2" stroke-linecap="round" stroke-linejoin="round"></path>
    </g>
</svg>