<svg xmlns="http://www.w3.org/2000/svg" width="36" height="36" viewBox="0 0 36 36">
    <g fill="none" fill-rule="evenodd">
        <g fill-rule="nonzero">
            <g>
                <g>
                    <g fill="#8736C1">
                        <path d="M17.313-.9l.162.016c.488.094.807.566.713 1.054C18.064.816 18 1.455 18 2.09c0 1.137.195 2.257.572 3.34.314.904.746 1.75 1.285 2.515.691.983 1.552 1.838 2.539 2.524l.43.284c2.453 1.526 4.18 3.966 4.706 6.724l.05.283.04.286c.093.75.136 1.19.147 1.651l-.001.343-.025.647c-.087 1.565-.447 3.08-1.058 4.493-.476 1.103-1.102 2.136-1.856 3.07-.312.388-.879.448-1.266.136-.386-.312-.447-.879-.135-1.265.653-.809 1.193-1.702 1.605-2.655.52-1.2.828-2.486.91-3.81l.028-.736-.002-.184-.02-.4c-.02-.281-.056-.608-.113-1.066-.019-.152-.043-.304-.072-.456-.403-2.114-1.68-4.015-3.515-5.287l-.374-.246c-1.373-.856-2.561-1.98-3.49-3.3-.636-.904-1.144-1.899-1.513-2.96-.442-1.27-.672-2.589-.672-3.93 0-.753.075-1.506.22-2.261.084-.434.466-.735.893-.73z" transform="translate(-380 -3229) translate(380 3229) translate(3.79)"/>
                        <path d="M16.46-.632c.348-.354.918-.358 1.272-.009.354.35.358.92.009 1.273-3.024 3.065-4.925 5.34-5.68 6.77-.398.754-.718 1.556-.956 2.396-.312 1.105-.473 2.215-.473 3.327 0 1.728.36 3.407 1.052 4.967.342.77-.47 1.546-1.224 1.17-2.625-1.31-4.753-3.405-6.062-5.965l-.092-.19-.087.134c-1.13 1.766-1.914 3.83-2.278 6.058l-.09.61c-.068.463-.11.877-.128 1.27l-.004.431.005.103c.025 1.962.554 3.847 1.526 5.52.25.43.103.981-.326 1.231-.43.25-.981.103-1.23-.326C.66 26.36.058 24.373-.057 22.306l-.03-.74c0-.607.054-1.222.155-1.902.43-3.39 1.753-6.506 3.76-8.943.448-.543 1.318-.385 1.546.281.12.353.257.696.409 1.028.737 1.613 1.845 3.034 3.223 4.162l.198.156-.13-.62c-.121-.64-.197-1.288-.228-1.945l-.015-.658c0-1.282.185-2.555.541-3.817.272-.961.64-1.88 1.097-2.748.86-1.629 2.849-4.008 5.99-7.192z" transform="translate(-380 -3229) translate(380 3229) translate(3.79)"/>
                    </g>
                    <g fill="#FF4722">
                        <path d="M14.78 9.566l.027-.525c0-.229-.015-.418-.051-.7l-.032-.232c-.015-.102-.033-.2-.055-.298-.286-1.298-1.16-2.439-2.39-3.197l-.316-.182c-.563-.304-1.047-.7-1.422-1.16-.252-.31-.452-.649-.597-1.01-.173-.43-.261-.87-.261-1.314 0-.247.028-.497.085-.752.165-.742-.606-1.342-1.284-1C7.174-.14 6.1.837 5.4 2.017c-.252.424-.454.874-.604 1.344l-.107.373c-.127.498-.193 1.001-.193 1.509l.008.282-.09-.093c-.25-.287-.463-.597-.632-.926-.068-.133-.13-.27-.184-.411-.24-.622-1.047-.777-1.5-.289C1.012 4.976.296 6.476.062 8.11c-.053.32-.083.626-.083.932l.006.13c.051 3.55 3.377 6.386 7.408 6.386 2.957 0 5.61-1.536 6.789-3.894.33-.66.532-1.367.598-2.097zm-6.838-7.84l.004.03c.064.4.174.794.328 1.177.213.53.505 1.025.87 1.474.44.54.977 1.01 1.59 1.391l.376.219c.956.514 1.61 1.314 1.801 2.181l.031.17.056.457.01.17-.005.117c-.009.6-.156 1.194-.431 1.746-.865 1.73-2.885 2.9-5.179 2.9-2.985 0-5.388-1.956-5.596-4.378l-.02-.399c.002-.137.022-.347.064-.597l.075-.425c.119-.56.308-1.092.56-1.584l.163-.295.225.302c.702.879 1.643 1.596 2.74 2.082.771.342 1.546-.47 1.17-1.224-.315-.63-.478-1.305-.478-1.998 0-.444.073-.889.215-1.336.108-.34.254-.664.436-.97.261-.44.596-.845.995-1.21z" transform="translate(-380 -3229) translate(380 3229) translate(3.79) translate(6.462 18.563)"/>
                    </g>
                </g>
            </g>
        </g>
    </g>
</svg>
