<svg xmlns="http://www.w3.org/2000/svg" viewBox="0 0 354.5 60.28"><defs><style>.cls-1{fill:#ff4722;}.cls-2{fill:#8736c1;}.cls-3{fill:#c33f72;}.cls-4{fill:#fff;fill-rule:evenodd;}</style></defs><g id="Layer_2" data-name="Layer 2"><g id="Layer_1-2" data-name="Layer 1"><path class="cls-1" d="M76.18,0A44.09,44.09,0,0,0,45,12.27,33.85,33.85,0,0,1,67.66,44.19l0,7.32h45.08a7,7,0,0,0,7-6.9C119.65,20.43,100.38.32,76.18,0Z"/><path d="M119.78,44.49v0Z"/><path class="cls-2" d="M45,12.27a33.83,33.83,0,0,0-11.79-1.9C14.76,10.68.1,26.1,0,44.57a7,7,0,0,0,7,6.94H31.4V44.19A44.08,44.08,0,0,1,45,12.27Z"/><path d="M0,44.75v0Z"/><path class="cls-3" d="M45,12.27A44.08,44.08,0,0,0,31.4,44.19v7.32H67.68l0-7.32A33.85,33.85,0,0,0,45,12.27Z"/><path class="cls-4" d="M92.82,44.66a7.34,7.34,0,0,0-7.32,7l14.65-.05A7.35,7.35,0,0,0,92.82,44.66Z"/><path class="cls-4" d="M27.24,44.66a7.35,7.35,0,0,0-7.33,7.09c4.06,0,9.08,0,14.66,0A7.34,7.34,0,0,0,27.24,44.66Z"/><path class="cls-4" d="M109.4,37.45c-2.14-2.27-11.83-5.73-18-6.68a5.78,5.78,0,0,1-2-.7C63.17,15.12,38.69,17,14.72,26.91a7.53,7.53,0,0,1-2.85.55,3.06,3.06,0,0,0-2.6,1.4c-2.1,3.36-3.2,22.55,1,22.75,1,0,3.36.09,6.63.11a10.37,10.37,0,0,1,20.74.07c14.17,0,31.2,0,44.85-.08a10.37,10.37,0,0,1,20.73-.07l3.8,0c2.47-.19,6.1-1.12,6.26-4.53C113.49,42.15,111.42,39.59,109.4,37.45Zm-61.74-4a.76.76,0,0,1-.76.76h-21a2.28,2.28,0,0,1-2.28-2.28V28.39a2.28,2.28,0,0,1,1.54-2.16,77.93,77.93,0,0,1,21.77-3.9.75.75,0,0,1,.78.76Zm36.84.28c-6.72.44-19.37.48-32.79.48a1,1,0,0,1-1-1V23.33a1,1,0,0,1,1-1c11.57.25,25.61,4.58,33.31,9.05A1.27,1.27,0,0,1,84.5,33.73Z"/><path d="M169,36.73c0,9-7.79,14.52-17,14.52H130.82a1,1,0,0,1-1-1.21L137,8.85a1,1,0,0,1,1-.85H156.4c9.83,0,14.83,3.52,14.83,10.07a10.53,10.53,0,0,1-6.92,10.13A9.42,9.42,0,0,1,169,36.73Zm-11.81.06c0-1.91-1.23-3.4-4.32-3.4h-8.59l-1.48,8.41h9C154.8,41.8,157.14,40.25,157.14,36.79Zm1.92-16.43c0-2-1.67-2.91-3.95-2.91H147l-1.17,6.8h8.65C157.21,24.25,159.06,22.83,159.06,20.36Z"/><path d="M177.59,18.81h9.09a1,1,0,0,1,1,1.21l-3.06,17.2a12.12,12.12,0,0,0-.18,2c0,2.29,1.23,3.34,3.09,3.34,2.34,0,3.58-1.12,4.32-5.19L195,19.66a1,1,0,0,1,1-.85h9A1,1,0,0,1,206,20L200.66,50.4a1,1,0,0,1-1,.85h-9a1,1,0,0,1-1-1.21l.16-.95a12.42,12.42,0,0,1-7.54,2.84c-5.93,0-9.33-3-9.33-9.45a35.12,35.12,0,0,1,.5-4.89l3.18-17.93A1,1,0,0,1,177.59,18.81Z"/><path d="M244.18,51.25a1,1,0,0,1-1-1.21l3.06-17.2a17.19,17.19,0,0,0,.24-2.17c0-2.41-1.36-3.15-3.09-3.15-2.16,0-3.46,1.3-4.14,5.19L236.12,50.4a1,1,0,0,1-1,.85h-9.22a1,1,0,0,1-1-1.21l3.06-17.2a14.34,14.34,0,0,0,.18-2c0-2.35-1.23-3.28-3-3.28-2.17,0-3.46,1.24-4.14,5.19L217.83,50.4a1,1,0,0,1-1,.85h-9a1,1,0,0,1-1-1.21l5.39-30.38a1,1,0,0,1,1-.85h9a1,1,0,0,1,1,1.21l-.16.95a14,14,0,0,1,8-2.84,9.45,9.45,0,0,1,7.9,3.71,14.94,14.94,0,0,1,9.52-3.71c6.3,0,9.45,3.15,9.45,9.27a27.64,27.64,0,0,1-.49,4.82L254.1,50.4a1,1,0,0,1-1,.85Z"/><path d="M324.6,31.17a26.08,26.08,0,0,1-.77,6.28,1,1,0,0,1-1,.76H304.89c-.25,3.59,2.23,5,5.25,5.19a20.25,20.25,0,0,0,10.54-1.94,1,1,0,0,1,1.43,1.12l-1,5.74a1,1,0,0,1-.56.76,25.61,25.61,0,0,1-11.7,2.85c-9.08,0-14-5.62-14-14.09,0-11.18,6.8-19.71,16.81-19.71C320.58,18.13,324.6,23.38,324.6,31.17Zm-9.52.12c.06-3.27-.92-4.94-4.2-4.94-2.53,0-3.95,1.73-4.88,4.94Z"/><path d="M354.42,20.61l-3.68,9a1,1,0,0,1-1.62.37,6.49,6.49,0,0,0-4.22-1.67c-2.59,0-3.95,1.29-4.63,5.25L337.33,50.4a1,1,0,0,1-1,.85h-9a1,1,0,0,1-1-1.21l5.39-30.38a1,1,0,0,1,1-.85h9a1,1,0,0,1,1,1.23l-.13.69a10.74,10.74,0,0,1,6.67-2.6A8.78,8.78,0,0,1,354,19.38,1,1,0,0,1,354.42,20.61Z"/><path d="M292.17,29.25c0,13.28-5.47,22.49-13.52,22.49A12.38,12.38,0,0,1,271,48.92l-1.54,8.87a1,1,0,0,1-.83.84l-9.29,1.64a1,1,0,0,1-1.18-1.19l6.92-39.43a1,1,0,0,1,1-.84h9a1,1,0,0,1,1,1.19l-.17,1.08A11.42,11.42,0,0,1,283,18.13C288.79,18.13,292.17,21.94,292.17,29.25ZM281.05,31.1c0-2.64-.68-3.87-2.65-3.87a7.21,7.21,0,0,0-3.87,1.53L272.32,41a5.41,5.41,0,0,0,3.87,1.66C278.9,42.65,281.05,37.92,281.05,31.1Z"/></g></g></svg>