<?xml version="1.0" encoding="UTF-8"?>
<svg width="200px" height="200px" viewBox="0 0 200 200" version="1.1" xmlns="http://www.w3.org/2000/svg" xmlns:xlink="http://www.w3.org/1999/xlink">
    <!-- Generator: Sketch 49.2 (51160) - http://www.bohemiancoding.com/sketch -->
    <title>assets/img_pdf_printing</title>
    <desc>Created with Sketch.</desc>
    <defs></defs>
    <g id="Freshness" stroke="none" stroke-width="1" fill="none" fill-rule="evenodd">
        <g id="Circular-Icons" transform="translate(-500.000000, -3500.000000)">
            <g id="assets/img_pdf_printing" transform="translate(500.000000, 3500.000000)">
                <path d="M100,200 C155.228475,200 200,155.228475 200,100 C200,44.771525 155.228475,0 100,0 C44.771525,0 0,44.771525 0,100 C0,155.228475 44.771525,200 100,200 Z" id="background" fill="#353167"></path>
                <g id="Group" transform="translate(40.000000, 40.000000)">
                    <path d="M120,97.5 C120,101.641875 116.641875,105 112.5,105 L7.5,105 C3.358125,105 0,101.641875 0,97.5 L0,52.5 C0,44.21625 6.71625,37.5 15,37.5 L105,37.5 C113.28375,37.5 120,44.21625 120,52.5 L120,97.5 Z" id="Fill-7686" fill="#8B88AA"></path>
                    <polygon id="Fill-7687" fill="#8B88AA" points="97.5 15 22.5 15 22.5 37.5 97.5 37.5"></polygon>
                    <g id="PDF" transform="translate(30.000000, 0.000000)">
                        <path d="M39.5604396,0 L39.5604396,11.9584775 C39.5604396,14.6005536 41.6855769,16.7418685 44.3076923,16.7418685 L59.3406593,16.7418685 L59.3406593,74.9397924 C59.3406593,77.5818685 57.215522,79.7231834 54.5934066,79.7231834 L4.74725275,79.7231834 C2.12513736,79.7231834 0,77.5818685 0,74.9397924 L0,4.783391 C0,2.14131488 2.12513736,0 4.74725275,0 L39.5604396,0 Z" id="Combined-Shape" fill="#DC0015"></path>
                        <path d="M39.5604396,0 L39.5604396,11.9584775 C39.5604396,14.6005536 41.6855769,16.7418685 44.3076923,16.7418685 L59.3406593,16.7418685" id="Fill-254" fill="#FFFFFF"></path>
                        <path d="M22.0639829,15.6102533 C20.6328675,16.2934348 23.2508204,19.4244057 24.3396252,20.6049767 C24.1540061,18.9836703 23.4902771,14.9287381 22.0639829,15.6102533 M26.6425881,30.2661631 C26.683569,30.293657 26.7341924,30.2969896 26.7783874,30.2744946 C27.8221937,29.7337814 28.8981418,29.2238947 29.9740899,28.7614974 C30.0206956,28.7415019 30.0528374,28.6965119 30.0568551,28.6448567 C29.0427801,27.9525106 28.037544,27.2093424 27.0732888,26.4411797 C27.0307008,26.4070207 26.9736491,26.3995223 26.9246328,26.4228505 C26.8780271,27.7008998 26.7832087,28.9964452 26.6425881,30.2661631 M36.0071134,29.2797156 C37.5973309,30.0512108 41.4206029,31.6425239 41.5821156,29.8262608 C41.7412178,28.0266607 37.6841139,28.8439791 36.0071134,29.2797156 M23.3351927,35.2383915 C21.7538142,36.3648078 18.2640138,39.1500222 19.8775342,40.2597756 C21.5248035,41.3928571 22.8458332,37.1904577 23.3351927,35.2383915 M20.4882292,43 C19.8325356,43 19.1784492,42.7783826 18.5444514,42.3426461 C17.2234217,41.4336814 16.9767331,40.2914352 17.001643,39.4924461 C17.0908366,36.6872362 20.7477745,33.8312042 24.0045465,31.8374806 C24.3765883,29.3930238 24.5654217,26.7486114 24.5461366,24.2749944 C21.8349723,21.7697178 18.8851549,18.3738058 19.2491612,15.7185625 C19.350408,14.9787269 19.7465562,13.9656188 21.0539256,13.3399245 C21.5264106,13.1141413 21.9988957,13 22.4593276,13 C25.1367429,13 26.7181214,16.5858698 26.9334718,23.1152522 C28.7848418,24.739058 30.8997749,26.3070429 32.9785484,27.5967563 C34.9167014,26.9294046 37.4856381,26.2187292 39.6367307,26.2187292 C41.282393,26.2187292 42.4909262,26.645301 43.2301885,27.4859476 C43.6367828,27.9475117 44.0964111,28.7681626 43.9823076,30.0562097 C43.8095452,32.0007776 42.496551,33.161353 40.4692044,33.161353 C38.1164217,33.161353 35.0452688,31.6858476 32.7254315,30.3336481 C30.5293402,31.1592979 28.2440553,32.2382248 26.1885846,33.4204621 C25.3810209,37.9244612 23.7474118,42.9991669 20.4882292,43" id="Fill-255" fill="#FFFFFF"></path>
                    </g>
                    <path d="M112.5,52.5 C112.5,44.21625 105.78375,37.5 97.5,37.5 L22.5,37.5 C14.21625,37.5 7.5,44.21625 7.5,52.5 L7.5,105 L112.5,105 L112.5,52.5 Z" id="Fill-7689" fill="#F4F4F4"></path>
                    <polygon id="Fill-7690" fill="#EBEAF4" points="112.5 105 7.5 105 7.5 60 112.5 60"></polygon>
                    <path d="M97.5,90 C97.5,85.858125 94.141875,82.5 90,82.5 L30,82.5 C25.858125,82.5 22.5,85.858125 22.5,90 L22.5,105 L97.5,105 L97.5,90 Z" id="Fill-7691" fill="#8B88AA"></path>
                    <path d="M97.5,120 L22.5,120 C22.5,112.5 25.340625,102.01875 30,90 L90,90 C94.66125,102.01875 97.5,112.5 97.5,120" id="Fill-7692" fill="#FFFFFF"></path>
                    <path d="M82.575,67.5 L37.425,67.5 C33.324375,67.5 30,64.175625 30,60.075 L30,60 L90,60 L90,60.075 C90,64.175625 86.675625,67.5 82.575,67.5" id="Fill-7693" fill="#8B88AA"></path>
                    <polygon id="Fill-7694" fill="#EBEAF4" points="82.5 110.625 37.5 110.625 37.5 106.875 82.5 106.875"></polygon>
                    <polygon id="Fill-7695" fill="#EBEAF4" points="78.75 101.25 41.25 101.25 41.25 97.5 78.75 97.5"></polygon>
                    <path d="M105,50.625 C105,51.66 104.16,52.5 103.125,52.5 C102.09,52.5 101.25,51.66 101.25,50.625 C101.25,49.59 102.09,48.75 103.125,48.75 C104.16,48.75 105,49.59 105,50.625" id="Fill-7696" fill="#81B44C"></path>
                    <path d="M95.625,52.5 C94.59,52.5 93.75,51.66 93.75,50.625 C93.75,49.59 94.59,48.75 95.625,48.75 C96.66,48.75 97.5,49.59 97.5,50.625 C97.5,51.66 96.66,52.5 95.625,52.5 Z" id="Fill-7697" fill="#E76511"></path>
                    <path d="M38.542875,60 L61.042875,37.5 L22.500375,37.5 C14.21475,37.5 7.500375,44.21625 7.500375,52.5 L7.500375,60 L38.542875,60 Z" id="Fill-7698" fill="#FFFFFF"></path>
                </g>
            </g>
        </g>
    </g>
</svg>