<?xml version="1.0" encoding="UTF-8"?>
<svg width="42px" height="24px" viewBox="0 0 42 24" version="1.1" xmlns="http://www.w3.org/2000/svg" xmlns:xlink="http://www.w3.org/1999/xlink">
    <title>Group 8</title>
    <g id="Subscribe_and_DownSell" stroke="none" stroke-width="1" fill="none" fill-rule="evenodd">
        <g id="Group-8" fill="#9C9B9B" fill-rule="nonzero">
            <path d="M40.5,0 C40.7761424,0 41,0.223857625 41,0.5 C41,0.745459889 40.8231248,0.94960837 40.5898756,0.991944331 L40.5,1 L0.5,1 C0.223857625,1 0,0.776142375 0,0.5 C0,0.254540111 0.176875161,0.0503916296 0.410124368,0.00805566941 L0.5,0 L40.5,0 Z" id="Line-3"></path>
            <path d="M41,23 C41.2761424,23 41.5,23.2238576 41.5,23.5 C41.5,23.7454599 41.3231248,23.9496084 41.0898756,23.9919443 L41,24 L1,24 C0.723857625,24 0.5,23.7761424 0.5,23.5 C0.5,23.2545401 0.676875161,23.0503916 0.910124368,23.0080557 L1,23 L41,23 Z" id="Line-3"></path>
            <g id="Group-7" transform="translate(4.172000, 6.800000)">
                <path d="M3.712,11.2 L6.336,0 L5.216,0 L3.728,6.816 C3.504,7.84 3.296,8.928 3.168,9.76 C3.04,8.928 2.848,7.856 2.624,6.816 L1.136,0 L0,0 L2.624,11.2 L3.712,11.2 Z" id="Path"></path>
                <path d="M12.76,11.2 L12.76,0 L11.896,0 C11.704,0.896 11.16,1.152 10.136,1.232 L10.136,1.968 L11.672,1.968 L11.672,11.2 L12.76,11.2 Z" id="Path"></path>
                <polygon id="Path" points="20.56 5.888 20.56 4.8 17.568 4.8 17.568 5.888"></polygon>
                <path d="M26.376,11.2 L26.376,4.48 C26.376,3.808 26.36,2.736 26.36,2.304 C26.632,3.008 27.112,4.128 27.512,5.056 L30.2,11.2 L31.144,11.2 L31.144,0 L30.088,0 L30.088,6.432 C30.088,7.104 30.104,8.192 30.12,8.608 C29.9338182,8.15418182 29.629157,7.43801653 29.3106476,6.69338542 L29.0708039,6.13322915 C29.0309421,6.04019835 28.9912727,5.94763636 28.952,5.856 L26.408,0 L25.32,0 L25.32,11.2 L26.376,11.2 Z" id="Path"></path>
            </g>
        </g>
    </g>
</svg>