<?xml version="1.0" encoding="UTF-8"?>
<svg width="200px" height="200px" viewBox="0 0 200 200" version="1.1" xmlns="http://www.w3.org/2000/svg" xmlns:xlink="http://www.w3.org/1999/xlink">
    <!-- Generator: Sketch 42 (36781) - http://www.bohemiancoding.com/sketch -->
    <title>assets/img_land_usage</title>
    <desc>Created with Sketch.</desc>
    <defs></defs>
    <g id="Freshness" stroke="none" stroke-width="1" fill="none" fill-rule="evenodd">
        <g id="Circular-Icons" transform="translate(-1000.000000, -3250.000000)">
            <g id="assets/img_land_usage" transform="translate(1000.000000, 3250.000000)">
                <circle id="background" fill="#3B2469" cx="100" cy="100" r="100"></circle>
                <g id="Group" transform="translate(40.000000, 35.000000)">
                    <path d="M119.85,33.75 C119.85,36.436875 112.419375,38.109375 111.7575,40.588125 C111.07125,43.15125 116.649375,48.31125 115.351875,50.555625 C114.03375,52.831875 106.764375,50.570625 104.9175,52.4175 C103.070625,54.264375 105.331875,61.53375 103.055625,62.851875 C100.81125,64.149375 95.65125,58.57125 93.088125,59.2575 C90.609375,59.919375 88.936875,67.35 86.25,67.35 C83.563125,67.35 81.890625,59.919375 79.411875,59.2575 C76.84875,58.57125 71.68875,64.149375 69.444375,62.851875 C67.168125,61.53375 69.429375,54.264375 67.5825,52.4175 C65.73375,50.570625 58.46625,52.831875 57.148125,50.555625 C55.850625,48.31125 61.42875,43.15125 60.7425,40.58625 C60.080625,38.109375 52.65,36.436875 52.65,33.75 C52.65,31.063125 60.080625,29.390625 60.7425,26.911875 C61.42875,24.34875 55.850625,19.18875 57.15,16.944375 C58.46625,14.668125 65.735625,16.929375 67.5825,15.0825 C69.429375,13.235625 67.168125,5.96625 69.444375,4.648125 C71.68875,3.350625 76.84875,8.92875 79.411875,8.2425 C81.890625,7.580625 83.563125,0.15 86.25,0.15 C88.936875,0.15 90.61125,7.580625 93.088125,8.2425 C95.65125,8.92875 100.81125,3.350625 103.055625,4.648125 C105.331875,5.96625 103.070625,13.235625 104.9175,15.0825 C106.76625,16.929375 114.03375,14.668125 115.351875,16.944375 C116.649375,19.18875 111.07125,24.34875 111.7575,26.91375 C112.419375,29.390625 119.85,31.063125 119.85,33.75" id="Fill-4211" fill="#FBEC9A"></path>
                    <path d="M105,33.75 C105,44.105625 96.605625,52.5 86.25,52.5 C75.894375,52.5 67.5,44.105625 67.5,33.75 C67.5,23.394375 75.894375,15 86.25,15 C96.605625,15 105,23.394375 105,33.75" id="Fill-4212" fill="#F3B607"></path>
                    <path d="M86.25,15 C75.894375,15 67.5,23.394375 67.5,33.75 C67.5,38.83125 69.530625,43.434375 72.811875,46.81125 L99.31125,20.311875 C95.934375,17.030625 91.33125,15 86.25,15" id="Fill-4213" fill="#FACB1B"></path>
                    <path d="M0,120 L0,52.5 C0,52.5 76.875,37.5 120,50.625 L120,120 L0,120 Z" id="Fill-4214" fill="#51A351"></path>
                    <path d="M120,50.625 C111.166875,47.93625 100.914375,46.42875 90.200625,45.73125 C51.346875,52.50375 20.01375,69.73875 0,83.585625 L0,120 L120,120 L120,50.625 Z" id="Fill-4215" fill="#5CB85C"></path>
                    <path d="M120,50.625 C117.7125,49.929375 115.325625,49.31625 112.865625,48.7725 C68.724375,60.133125 23.649375,90.68625 0,108.493125 L0,120 L120,120 L120,50.625 Z" id="Fill-4216" fill="#51A351"></path>
                    <path d="M33.3526875,120 L120.000187,120 L120.000187,50.625 C118.993312,50.319375 117.963937,50.0325 116.923313,49.756875 C71.5951875,76.336875 46.4589375,102.59625 33.3526875,120" id="Fill-4217" fill="#5CB85C"></path>
                    <path d="M120,120 L120,50.625 C119.98125,50.619375 119.960625,50.61375 119.941875,50.608125 C90.78375,79.93125 75.555,104.983125 68.14125,120 L120,120 Z" id="Fill-4218" fill="#51A351"></path>
                    <path d="M120,120 L120,52.42125 C109.7025,67.09875 99.61125,104.068125 95.58375,120 L120,120 Z" id="Fill-4219" fill="#5CB85C"></path>
                </g>
            </g>
        </g>
    </g>
</svg>