<?xml version="1.0" encoding="UTF-8"?>
<svg width="100px" height="100px" viewBox="0 0 100 100" version="1.1" xmlns="http://www.w3.org/2000/svg" xmlns:xlink="http://www.w3.org/1999/xlink">
    <!-- Generator: Sketch 46.2 (44496) - http://www.bohemiancoding.com/sketch -->
    <title>assets/img_photo_collapse</title>
    <desc>Created with Sketch.</desc>
    <defs></defs>
    <g id="Freshness" stroke="none" stroke-width="1" fill="none" fill-rule="evenodd">
        <g id="Freeform-Icons-(Dark-Background)" transform="translate(-100.000000, -400.000000)">
            <g id="assets/img_photo_collapse" transform="translate(100.000000, 400.000000)">
                <circle id="Oval-7" fill-opacity="0.64" fill="#FFFFFF" cx="50" cy="50" r="50"></circle>
                <path d="M50,52.4582781 L50,69.6662252 C50,70.3320122 49.7567353,70.9081653 49.2701987,71.394702 C48.783662,71.8812386 48.2075088,72.1245033 47.5417219,72.1245033 C46.8759349,72.1245033 46.2997817,71.8812386 45.813245,71.394702 L40.2821192,65.8635762 L27.5298013,78.615894 C27.2737294,78.871966 26.9792511,79 26.6463576,79 C26.3134641,79 26.0189858,78.871966 25.7629139,78.615894 L21.384106,74.2370861 C21.128034,73.9810142 21,73.6865359 21,73.3536424 C21,73.0207489 21.128034,72.7262706 21.384106,72.4701987 L34.1364238,59.7178808 L28.605298,54.186755 C28.1187614,53.7002183 27.8754967,53.1240651 27.8754967,52.4582781 C27.8754967,51.7924912 28.1187614,51.216338 28.605298,50.7298013 C29.0918347,50.2432647 29.6679878,50 30.3337748,50 L47.5417219,50 C48.2075088,50 48.783662,50.2432647 49.2701987,50.7298013 C49.7567353,51.216338 50,51.7924912 50,52.4582781 Z M78.615894,25.7629139 C78.871966,26.0189858 79,26.3134641 79,26.6463576 C79,26.9792511 78.871966,27.2737294 78.615894,27.5298013 L65.8635762,40.2821192 L71.394702,45.813245 C71.8812386,46.2997817 72.1245033,46.8759349 72.1245033,47.5417219 C72.1245033,48.2075088 71.8812386,48.783662 71.394702,49.2701987 C70.9081653,49.7567353 70.3320122,50 69.6662252,50 L52.4582781,50 C51.7924912,50 51.216338,49.7567353 50.7298013,49.2701987 C50.2432647,48.783662 50,48.2075088 50,47.5417219 L50,30.3337748 C50,29.6679878 50.2432647,29.0918347 50.7298013,28.605298 C51.216338,28.1187614 51.7924912,27.8754967 52.4582781,27.8754967 C53.1240651,27.8754967 53.7002183,28.1187614 54.186755,28.605298 L59.7178808,34.1364238 L72.4701987,21.384106 C72.7262706,21.128034 73.0207489,21 73.3536424,21 C73.6865359,21 73.9810142,21.128034 74.2370861,21.384106 L78.615894,25.7629139 Z" id="ï¦" fill="#3B2469"></path>
            </g>
        </g>
    </g>
</svg>