<svg xmlns="http://www.w3.org/2000/svg" width="40" height="36" viewBox="0 0 40 36">
    <g fill="none" fill-rule="evenodd">
        <g>
            <g>
                <g>
                    <g>
                        <path fill="gray" fill-rule="nonzero" d="M28.286 16.112V22.5c0 1.594-.566 2.956-1.698 4.088-1.132 1.132-2.494 1.698-4.088 1.698H5.786c-1.594 0-2.957-.566-4.088-1.698C.566 25.456 0 24.094 0 22.5V5.786c0-1.594.566-2.957 1.698-4.088C2.829.566 4.192 0 5.786 0H22.5c.844 0 1.627.167 2.35.502.201.094.322.248.362.462.04.228-.02.422-.18.583l-.985.984c-.134.134-.288.201-.462.201-.04 0-.1-.013-.181-.04-.308-.08-.61-.12-.904-.12H5.786c-.884 0-1.64.314-2.27.944-.63.63-.945 1.386-.945 2.27V22.5c0 .884.315 1.64.945 2.27.63.63 1.386.944 2.27.944H22.5c.884 0 1.64-.314 2.27-.944.63-.63.944-1.386.944-2.27v-5.103c0-.174.06-.321.181-.442l1.286-1.285c.134-.134.288-.201.462-.201.08 0 .16.02.24.06.269.107.403.301.403.583z" transform="translate(-120 -1414) translate(39 681) translate(81 733) translate(6 2.714)"/>
                        <path fill="#FF4722" d="M32.926 6.288L16.574 22.64c-.322.321-.703.482-1.145.482-.442 0-.824-.16-1.146-.482l-8.638-8.639c-.321-.321-.482-.703-.482-1.145 0-.442.16-.824.482-1.145l2.21-2.21c.321-.321.703-.482 1.145-.482.442 0 .824.16 1.145.482l5.284 5.284L28.426 1.788c.322-.321.703-.482 1.145-.482.442 0 .824.16 1.146.482l2.21 2.21c.32.321.481.703.481 1.145 0 .442-.16.824-.482 1.145z" transform="translate(-120 -1414) translate(39 681) translate(81 733) translate(6 2.714)"/>
                    </g>
                </g>
            </g>
        </g>
    </g>
</svg>
