<?xml version="1.0" encoding="UTF-8"?>
<svg width="200px" height="200px" viewBox="0 0 200 200" version="1.1" xmlns="http://www.w3.org/2000/svg" xmlns:xlink="http://www.w3.org/1999/xlink">
    <!-- Generator: Sketch 48.2 (47327) - http://www.bohemiancoding.com/sketch -->
    <title>assets/img_county</title>
    <desc>Created with Sketch.</desc>
    <defs></defs>
    <g id="Circular-Icons" stroke="none" stroke-width="1" fill="none" fill-rule="evenodd" transform="translate(-750.000000, -2750.000000)">
        <g id="assets/img_county" transform="translate(750.000000, 2750.000000)">
            <circle id="background" fill="#353167" cx="100" cy="100" r="100"></circle>
            <g id="Group" transform="translate(44.000000, 40.000000)">
                <g>
                    <polygon id="Fill-1549" fill="#F2DA3E" points="7.0625 98.8461538 0 120 17.5679687 120 25.1425 98.8461538"></polygon>
                    <polygon id="Fill-1550" fill="#8B88AA" points="40.2740828 56.5384615 21.1876766 56.5384615 9.41095781 91.7948718 27.6675203 91.7948718"></polygon>
                    <path d="M37.6609578,84.7435897 L25.0543953,120 L60.7023641,120 C64.0217391,105.897436 71.8258016,93.5576923 80.1242391,84.7435897 L37.6609578,84.7435897 Z" id="Fill-1551" fill="#8B88AA"></path>
                    <path d="M87.7337297,77.6923077 C91.0177922,75.1009615 94.1782609,73.1442308 96.9679484,71.9807692 L91.8123234,56.5384615 L47.7599797,56.5384615 L40.1854484,77.6923077 L87.7337297,77.6923077 Z" id="Fill-1552" fill="#638A3A"></path>
                    <path d="M67.9938656,120 L96.6323031,120 L78.3580844,98.1233974 C73.9793344,104.346154 70.1655844,111.767628 67.9938656,120" id="Fill-1553" fill="#0F2D8F"></path>
                    <path d="M99.1749797,78.6089744 C93.4437609,81.244391 86.8721047,87.5729167 82.7899797,92.3942308 L105.831386,120 L112.999823,120 L99.1749797,78.6089744 Z" id="Fill-1554" fill="#E1C618"></path>
                    <path d="M99.1749797,78.6089744 L96.9679484,71.9807692 C94.1782609,73.1442308 91.0177922,75.1009615 87.7337297,77.6923077 L40.1854484,77.6923077 L47.7599797,56.5384615 L40.2737297,56.5384615 L27.6671672,91.7948718 L9.41060469,91.7948718 L7.06232344,98.8461538 L25.1423234,98.8461538 L17.5677922,120 L25.0540422,120 L37.6606047,84.7435897 L80.1238859,84.7435897 C71.8254484,93.5576923 64.0213859,105.897436 60.7020109,120 L67.9940422,120 C70.1657609,111.767628 73.9795109,104.346154 78.3582609,98.1233974 L96.6324797,120 L105.831386,120 L82.7899797,92.3942308 C86.8703391,87.5746795 93.4419953,81.2461538 99.1749797,78.6089744" id="Fill-1555" fill="#FFFFFF"></path>
                    <polygon id="Fill-1556" fill="#81B44C" points="47.7598031 56.5384615 40.1852719 77.6923077 67.7113656 77.6923077 88.8988656 56.5384615"></polygon>
                    <polygon id="Fill-1557" fill="#EBEAF4" points="37.6609578 84.7435897 25.0543953 120 25.3368953 120 60.6493953 84.7435897"></polygon>
                    <g id="Group-7" transform="translate(32.872727, 0.000000)">
                        <path d="M23.6272727,0 C36.4424312,0 46.8326299,10.3798736 46.8326299,23.1822972 C46.8326299,35.9847208 23.6272727,81.13804 23.6272727,81.13804 C23.6272727,81.13804 0.421915584,35.9847208 0.421915584,23.1822972 C0.421915584,10.3798736 10.8121142,0 23.6272727,0" id="Fill-1558" fill="#E7114C"></path>
                        <path d="M33.2961715,23.1822972 C33.2961715,28.5161574 28.9664386,32.8415876 23.6272727,32.8415876 C18.2881068,32.8415876 13.9583739,28.5161574 13.9583739,23.1822972 C13.9583739,17.848437 18.2881068,13.5230067 23.6272727,13.5230067 C28.9664386,13.5230067 33.2961715,17.848437 33.2961715,23.1822972" id="Fill-1559" fill="#FFFFFF"></path>
                    </g>
                </g>
            </g>
        </g>
    </g>
</svg>