<svg xmlns="http://www.w3.org/2000/svg" width="60" height="60" viewBox="0 0 60 60">
    <g fill="none" fill-rule="evenodd">
        <path fill="#282426" d="M30 60c16.569 0 30-13.431 30-30C60 13.431 46.569 0 30 0 13.431 0 0 13.431 0 30c0 16.569 13.431 30 30 30z"/>
        <g fill-rule="nonzero">
            <path fill="#FF4722" d="M32.362 11.624c1.059.967 4.526 0 4.526-1.933 0-2.11-4.08-2.182-4.957.205L30.13 2.66C29.743 1.111 28.356.024 26.766.024H10.223c-1.591 0-2.978 1.087-3.364 2.636L5.057 9.896C4.185 7.518.101 7.57.101 9.691c0 1.933 3.467 2.9 4.526 1.933-5.043 4.05-5.777 9.413-3.045 14.949.39.79 1.195 1.291 2.073 1.291H33.34c.877 0 1.69-.493 2.071-1.286 2.872-5.988 1.5-11.522-3.05-14.954" transform="translate(11.186 13.22)"/>
            <path fill="#FF856C" d="M10.223.024c-1.591 0-2.978 1.087-3.364 2.636L5.057 9.896C4.185 7.518.1 7.57.1 9.691c0 1.933 3.467 2.9 4.526 1.933-3.543 2.846-4.95 6.342-4.531 10.09L21.703.024h-11.48z" transform="translate(11.186 13.22)"/>
            <path fill="#40C9E7" d="M8.418 11.624c-.356 0-.692-.165-.91-.446-.22-.282-.298-.649-.21-.995l1.514-6.081c.257-1.033 1.181-1.758 2.242-1.758h14.88c1.061 0 1.986.725 2.243 1.758l1.514 6.08c.086.347.01.714-.21.996-.219.281-.555.446-.91.446H8.417z" transform="translate(11.186 13.22)"/>
            <path fill="#FFF" d="M13.294 11.624L11.56 16.264 17.339 16.264 17.916 11.624zM23.695 11.624L25.428 16.264 19.65 16.264 19.072 11.624z" transform="translate(11.186 13.22)"/>
            <path fill="#6FDAF1" d="M8.812 4.102l-1.515 6.08c-.086.348-.01.715.21.996.22.282.555.446.911.446h1.728l9.245-9.28h-8.337c-1.06 0-1.985.725-2.242 1.758" transform="translate(11.186 13.22)"/>
            <path fill="#5F5563" d="M6.938 31.344c0 .64-.518 1.16-1.156 1.16h-2.31c-.639 0-1.157-.52-1.157-1.16v-4.06h4.623v4.06zM34.673 31.344c0 .64-.518 1.16-1.156 1.16h-2.31c-.639 0-1.157-.52-1.157-1.16v-4.06h4.623v4.06z" transform="translate(11.186 13.22)"/>
            <path fill="#A5A5A5" d="M3.655 27.864c-.878 0-1.671-.507-2.073-1.291C.496 24.455-.4 21.43.184 18.93c.366-1.569 1.767-2.667 3.372-2.667H33.43c1.6 0 2.993 1.099 3.37 2.658.56 2.326-.312 5.487-1.388 7.656-.391.788-1.194 1.286-2.07 1.286H3.654z" transform="translate(11.186 13.22)"/>
            <path fill="#333" d="M2.315 20.904c0 1.281 1.035 2.32 2.312 2.32h27.735c1.276 0 2.31-1.039 2.31-2.32s-1.034-2.32-2.31-2.32H4.627c-1.277 0-2.312 1.039-2.312 2.32" transform="translate(11.186 13.22)"/>
            <path fill="#E1C618" d="M6.938 20.904c0 .961-.776 1.74-1.733 1.74-.958 0-1.734-.779-1.734-1.74s.776-1.74 1.734-1.74c.957 0 1.733.779 1.733 1.74M10.983 20.904c0 .961-.776 1.74-1.734 1.74-.957 0-1.733-.779-1.733-1.74s.776-1.74 1.733-1.74c.958 0 1.734.779 1.734 1.74M29.473 20.904c0 .961-.776 1.74-1.734 1.74-.957 0-1.733-.779-1.733-1.74s.776-1.74 1.733-1.74c.958 0 1.734.779 1.734 1.74M33.517 20.904c0 .961-.776 1.74-1.733 1.74-.958 0-1.734-.779-1.734-1.74s.776-1.74 1.734-1.74c.957 0 1.733.779 1.733 1.74" transform="translate(11.186 13.22)"/>
            <path fill="#FFF" d="M5.782 25.544c0 .64-.517 1.16-1.155 1.16s-1.156-.52-1.156-1.16c0-.64.518-1.16 1.156-1.16.638 0 1.155.52 1.155 1.16M33.517 25.544c0 .64-.517 1.16-1.155 1.16s-1.156-.52-1.156-1.16c0-.64.518-1.16 1.156-1.16.638 0 1.155.52 1.155 1.16" transform="translate(11.186 13.22)"/>
            <path fill="#FF4722" d="M6.938 27.864L9.249 25.544 27.739 25.544 30.05 27.864z" transform="translate(11.186 13.22)"/>
            <path fill="#F2DA3E" d="M5.205 19.164c-.958 0-1.734.779-1.734 1.74 0 .497.21.943.543 1.26l2.446-2.455c-.317-.334-.76-.545-1.255-.545M9.25 19.164c-.958 0-1.734.779-1.734 1.74 0 .497.21.943.543 1.26l2.445-2.455c-.316-.334-.76-.545-1.255-.545M27.74 19.164c-.958 0-1.734.779-1.734 1.74 0 .497.21.943.543 1.26l2.445-2.455c-.316-.334-.76-.545-1.255-.545M31.784 19.164c-.958 0-1.734.779-1.734 1.74 0 .497.21.943.544 1.26l2.445-2.455c-.316-.334-.76-.545-1.255-.545" transform="translate(11.186 13.22)"/>
            <path fill="#999" d="M24.266 19.72c0 .32-.26.58-.578.58h-10.4c-.32 0-.579-.26-.579-.58 0-.32.26-.58.578-.58h10.4c.32 0 .579.26.579.58M24.266 22.04c0 .32-.26.58-.578.58h-10.4c-.32 0-.579-.26-.579-.58 0-.32.26-.58.578-.58h10.4c.32 0 .579.26.579.58" transform="translate(11.186 13.22)"/>
        </g>
    </g>
</svg>
