<svg xmlns="http://www.w3.org/2000/svg" width="36" height="36" viewBox="0 0 36 36">
    <g fill="none" fill-rule="evenodd">
        <g fill-rule="nonzero">
            <g>
                <g>
                    <g>
                        <path fill="#FF4722" d="M4.773 0c2.019 0 3.75 1.406 4.183 3.352l.053.282.3 1.948.12-.01h21.51c.29 0 .578.029.862.087 2.226.456 3.692 2.562 3.385 4.781l-.048.278-2.022 9.857c-.39 1.899-2 3.287-3.91 3.415l-.288.01H14.084c-2.019 0-3.75-1.406-4.183-3.352l-.053-.282L7.314 3.895c-.18-1.176-1.14-2.064-2.306-2.17l-.235-.01H.857C.384 1.714 0 1.33 0 .856c0-.42.303-.77.703-.843L.857 0h3.916zm6.77 20.105c.18 1.176 1.14 2.064 2.306 2.17l.235.01h14.834c1.14 0 2.132-.747 2.459-1.82l.06-.234 2.022-9.857c.285-1.391-.611-2.75-2.003-3.036l-.257-.04-.26-.012H9.572l1.972 12.82z" transform="translate(-385 -7075) translate(335 7065) translate(50 10)"/>
                        <path fill="#8736C1" d="M15.637 25.8c-2.364 0-4.286 1.925-4.286 4.286 0 2.366 1.92 4.285 4.286 4.285 2.36 0 4.285-1.921 4.285-4.285 0-2.36-1.926-4.286-4.285-4.286zm0 1.714c1.412 0 2.571 1.16 2.571 2.572 0 1.416-1.156 2.571-2.571 2.571-1.42 0-2.572-1.152-2.572-2.571 0-1.415 1.155-2.572 2.572-2.572zM27.637 25.8c-2.364 0-4.286 1.925-4.286 4.286 0 2.366 1.92 4.285 4.286 4.285 2.36 0 4.285-1.921 4.285-4.285 0-2.36-1.926-4.286-4.285-4.286zm0 1.714c1.412 0 2.571 1.16 2.571 2.572 0 1.416-1.156 2.571-2.571 2.571-1.42 0-2.572-1.152-2.572-2.571 0-1.415 1.155-2.572 2.572-2.572z" transform="translate(-385 -7075) translate(335 7065) translate(50 10)"/>
                        <path fill="#FF4722" d="M33.429 13.714L33.429 15.609 9.429 15.609 9.429 13.714z" transform="translate(-385 -7075) translate(335 7065) translate(50 10)"/>
                        <path fill="#FF4722" d="M26.667 6.181c.418.047.732.388.76.793l-.004.155-1.714 15.238c-.053.47-.477.809-.948.756-.418-.047-.732-.388-.76-.793l.004-.155L25.72 6.937c.047-.418.387-.732.793-.76l.154.004z" transform="translate(-385 -7075) translate(335 7065) translate(50 10)"/>
                        <path fill="#FF4722" d="M18.096 6.181c.418.047.732.388.76.793l-.004.155-1.715 15.238c-.052.47-.477.809-.947.756-.418-.047-.732-.388-.76-.793l.004-.155 1.714-15.238c.047-.418.388-.732.793-.76l.155.004z" transform="translate(-385 -7075) translate(335 7065) translate(50 10) matrix(-1 0 0 1 34.286 0)"/>
                    </g>
                </g>
            </g>
        </g>
    </g>
</svg>
