<svg xmlns="http://www.w3.org/2000/svg" width="134" height="61" viewBox="0 0 134 61">
    <g fill="none" fill-rule="evenodd">
        <g>
            <g>
                <g>
                    <path fill="#8736C1" d="M43.312 34.495c-.685.924-1.3 1.887-1.857 2.89-.148.267-.297.535-.436.812-.05.08-.1.17-.13.26-.148.277-.287.565-.426.853-.01.01-.01.02-.01.03-.278.576-.526 1.161-.755 1.767-.208.506-.387 1.032-.556 1.568-.069.189-.119.378-.178.566-.11.367-.219.735-.308 1.112-.129.467-.238.933-.328 1.41 0 .01-.01.02-.01.03-.089.446-.168.893-.238 1.339-.06.368-.109.744-.149 1.132-.04.268-.06.526-.08.795-.039.347-.059.704-.079 1.05v.032c-.03.496-.04.992-.04 1.499h-9.708c0-.477.01-.944.03-1.42 0-.11 0-.218.01-.338.02-.476.05-.943.09-1.42.039-.476.078-.942.138-1.409.01-.119.03-.248.05-.367.05-.447.109-.884.188-1.33.07-.458.16-.924.248-1.38.02-.08.03-.159.05-.248.1-.467.199-.934.318-1.39.09-.358.178-.725.288-1.082.02-.09.04-.179.07-.268l.148-.507c.1-.337.209-.675.318-1.012.03-.1.06-.199.099-.298.13-.387.268-.774.417-1.161 0-.03.01-.05.03-.08.168-.457.347-.903.536-1.35.218-.516.437-1.032.675-1.529.179-.377.367-.744.556-1.112.923-1.806 1.985-3.534 3.167-5.162l7.862 5.718zM57.42 24.038c-.497.169-.993.356-1.47.556-.248.098-.486.198-.714.307-.278.109-.546.229-.804.357-.16.07-.308.15-.457.23-.218.098-.427.208-.625.316-.21.1-.407.208-.606.327-1.23.686-2.412 1.45-3.524 2.314-.209.15-.417.308-.616.477-.18.148-.357.298-.536.446-.923.774-1.787 1.608-2.61 2.502-.239.267-.487.536-.716.814-.01 0-.02.01-.029.03-.189.219-.377.456-.566.685l-.327.417c-.17.218-.338.447-.507.674l.288-.396-7.852-5.708h-.01c.516-.686 1.042-1.35 1.598-1.996.328-.388.664-.764 1.013-1.141.337-.367.695-.736 1.052-1.093.357-.356.715-.705 1.092-1.051.367-.348.744-.686 1.132-1.013.764-.655 1.558-1.291 2.382-1.886.377-.279.765-.546 1.162-.815.04-.029.089-.059.139-.09.377-.257.774-.505 1.161-.753.09-.05.179-.11.278-.169.367-.218.735-.437 1.112-.646.883-.496 1.797-.962 2.73-1.4.466-.208.933-.417 1.41-.615.416-.179.853-.347 1.28-.506.09-.04.179-.069.258-.099.298-.1.586-.208.883-.308l2.999 9.233z" transform="translate(-933 -576) translate(933 576) translate(0 5.44)"/>
                    <path fill="#D7D7D7" d="M35.749 28.386l7.852 5.708-.288.396-7.862-5.717.06-.09c.079-.099.148-.198.228-.297h.01z" transform="translate(-933 -576) translate(933 576) translate(0 5.44)"/>
                    <path fill="#8736C1" d="M78.466 14.507l-3.008 9.223c-.031-.01-.07-.02-.11-.03-.378-.118-.754-.219-1.141-.318-.468-.128-.943-.238-1.42-.328-.418-.088-.835-.168-1.25-.228-.438-.068-.874-.129-1.322-.179-.188-.03-.386-.05-.585-.058-.398-.04-.805-.07-1.222-.09-.495-.03-.991-.04-1.499-.04-.505 0-1.001.01-1.498.04-.417.02-.824.05-1.22.09-.2.009-.398.029-.587.058-.446.05-.883.11-1.32.18-.418.059-.835.14-1.252.227-.476.09-.953.2-1.418.328-.387.1-.766.2-1.143.318-.04.01-.08.02-.108.03l-2.999-9.233c.794-.248 1.598-.465 2.413-.665.426-.11.863-.198 1.29-.288l.318-.06c.456-.089.903-.178 1.37-.248.497-.078 1.002-.148 1.51-.208.465-.06.942-.11 1.41-.149.087 0 .168-.009.247-.02.426-.029.853-.05 1.28-.068.09-.011.179-.011.258-.011.487-.02.964-.03 1.45-.03.487 0 .963.01 1.449.03.08 0 .168 0 .258.01.428.02.854.04 1.28.07.08.01.16.02.249.02.467.039.943.088 1.41.148.507.06 1.013.13 1.51.208.465.07.911.16 1.368.249l.319.06c.426.089.863.178 1.29.287.814.2 1.627.417 2.423.675" transform="translate(-933 -576) translate(933 576) translate(0 5.44)"/>
                    <path fill="#D7D7D7" d="M55.365 14.498l2.998 9.232-.944.308-2.998-9.233c.16-.05.318-.109.477-.159.159-.05.308-.099.467-.148" transform="translate(-933 -576) translate(933 576) translate(0 5.44)"/>
                    <path fill="#8736C1" d="M98.072 28.384l-7.853 5.708c-.08-.1-.15-.188-.219-.277l-.328-.418c-.187-.228-.377-.466-.564-.685-.01-.02-.021-.03-.031-.03-.228-.278-.476-.546-.714-.814-.824-.893-1.688-1.726-2.61-2.501-.18-.15-.36-.298-.537-.447-.198-.169-.407-.328-.615-.475-1.112-.865-2.295-1.63-3.525-2.314-.198-.12-.398-.229-.605-.328-.2-.11-.408-.217-.626-.318-.15-.08-.297-.159-.456-.227-.258-.13-.527-.248-.805-.358-.228-.11-.467-.209-.715-.307-.476-.2-.972-.388-1.468-.557l2.997-9.232c.298.099.595.208.883.307 1.054.388 2.086.814 3.098 1.292.416.187.823.396 1.23.595.935.487 1.858 1.002 2.74 1.548.398.248.785.497 1.162.756.05.018.09.058.14.088.396.258.784.536 1.161.814.824.596 1.618 1.231 2.382 1.886.388.328.765.665 1.141 1.014.359.337.715.684 1.074 1.032l.03.029c.327.337.655.676.971 1.013.1.099.19.208.288.307.258.298.527.597.784.904.546.646 1.082 1.311 1.59 1.995" transform="translate(-933 -576) translate(933 576) translate(0 5.44)"/>
                    <path fill="#D7D7D7" d="M78.932 14.645c.159.05.317.1.466.159L76.4 24.036l-.208-.07-.268-.089-.467-.149 3.008-9.222c.158.04.308.09.457.139h.01z" transform="translate(-933 -576) translate(933 576) translate(0 5.44)"/>
                    <path fill="#8736C1" d="M105.794 51.633h-9.707c0-.506-.011-1.002-.04-1.499v-.03c-.021-.347-.04-.704-.08-1.052-.02-.268-.04-.526-.079-.793-.04-.377-.09-.755-.15-1.133-.07-.445-.148-.892-.238-1.34 0-.009 0-.02-.01-.03-.09-.475-.199-.943-.328-1.41-.089-.376-.198-.744-.307-1.111-.06-.188-.11-.377-.179-.565-.169-.536-.357-1.063-.556-1.568-.228-.607-.486-1.193-.754-1.768 0-.01-.01-.02-.01-.03-.14-.288-.278-.576-.427-.853-.03-.09-.08-.18-.13-.26-.137-.276-.287-.545-.435-.812-.488-.855-1.004-1.689-1.569-2.482l-.575-.805 7.852-5.708c.108.129.198.258.298.388.098.13.187.267.288.406.168.238.327.477.496.716 1.4 2.065 2.601 4.267 3.583 6.6.129.288.248.586.357.885.12.288.229.585.338.882.119.298.229.596.317.904.09.248.17.496.249.744.218.696.426 1.41.605 2.125.06.22.11.446.159.665.03.119.06.228.08.348.109.447.198.893.277 1.34.07.318.12.646.17.962.088.517.158 1.033.217 1.55.07.515.12 1.032.16 1.559.039.475.069.942.089 1.418.01.12.01.229.01.338.01.307.02.615.02.923v.01c.01.17.01.318.01.486" transform="translate(-933 -576) translate(933 576) translate(0 5.44)"/>
                    <path fill="#FFF" d="M28.024 52.137L37.733 52.137 37.733 51.144 28.024 51.144zM96.086 52.137L105.794 52.137 105.794 51.144 96.086 51.144zM98.746 29.109L98.667 29.169 98.657 29.178 90.795 34.897 90.219 34.092 98.071 28.384 98.15 28.325zM79.428 14.715L79.398 14.804 76.4 24.036 76.192 23.966 75.924 23.876 75.457 23.729 78.465 14.506 78.495 14.406zM58.363 23.73L57.419 24.038 54.421 14.805 55.335 14.408 55.365 14.487 55.365 14.497zM43.601 34.094L43.313 34.49 43.015 34.898 35.173 29.18 35.073 29.11 35.669 28.325 35.738 28.386 35.748 28.386z" transform="translate(-933 -576) translate(933 576) translate(0 5.44)"/>
                    <path fill="#000" d="M4.971 53.724L0 53.724 0 46.779 4.822 46.779 4.822 48.138 1.389 48.138 1.389 49.34 3.383 49.34 3.383 50.689 1.389 50.689 1.389 52.365 4.971 52.365zM8.943 52.197v-.655c-.238-.15-.467-.218-.952-.218-.516 0-.794.237-.794.654 0 .367.208.694.794.694.446 0 .803-.227.952-.475zm1.369 1.527h-1.37v-.347c-.247.258-.683.457-1.17.457-.972 0-1.944-.595-1.944-1.856 0-1.15.932-1.726 2.113-1.726.476 0 .783.1 1.002.208v-.258c0-.367-.248-.665-.745-.665-.624 0-.952.09-1.428.349l-.526-.953c.605-.348 1.112-.526 1.954-.526 1.261 0 2.114.655 2.114 1.825v3.492zM15.713 52.206c0 1.2-.952 1.628-2.124 1.628-.823 0-1.627-.239-2.183-.606l.457-1.042c.556.308 1.14.477 1.806.477.536 0 .694-.13.694-.396 0-.24-.188-.359-.764-.527-1.25-.378-2.054-.684-2.054-1.786 0-1.08.864-1.547 2.084-1.547.655 0 1.369.198 1.925.506l-.437 1.08c-.516-.277-1.081-.416-1.518-.416-.555 0-.704.11-.704.337 0 .218.158.309 1.081.607.932.306 1.737.644 1.737 1.685M21.609 48.515l-2.68 7.045H17.58l.695-1.836-2.024-5.209h1.508l.853 2.51c.14.398.278.895.337 1.142.06-.258.199-.735.338-1.142l.854-2.51h1.468zM117.878 53.724L116.489 53.724 116.489 50.808 113.641 50.808 113.641 53.724 112.252 53.724 112.252 46.779 113.641 46.779 113.641 49.439 116.489 49.439 116.489 46.779 117.878 46.779zM122.307 52.197v-.655c-.238-.15-.467-.218-.953-.218-.515 0-.794.237-.794.654 0 .367.208.694.794.694.447 0 .804-.227.953-.475zm1.369 1.527h-1.369v-.347c-.248.258-.684.457-1.171.457-.972 0-1.945-.595-1.945-1.856 0-1.15.933-1.726 2.113-1.726.477 0 .785.1 1.003.208v-.258c0-.367-.248-.665-.744-.665-.626 0-.953.09-1.429.349l-.526-.953c.605-.348 1.11-.526 1.955-.526 1.26 0 2.113.655 2.113 1.825v3.492zM128.362 48.773l-.357 1.34c-.219-.199-.487-.337-.793-.337-.536 0-.884.227-.884 1.13v2.818h-1.37v-5.209h1.37v.348c.237-.247.586-.456 1.071-.456.447 0 .785.179.963.366M131.916 52.107v-1.964c-.208-.288-.525-.447-.923-.447-.525 0-.813.457-.813 1.33 0 1.071.356 1.517.892 1.517.427 0 .646-.178.844-.436zm1.37 1.617h-1.37v-.327c-.258.228-.604.437-1.1.437-1.113 0-2.025-.834-2.025-2.779 0-1.558.734-2.649 2.024-2.649.457 0 .853.18 1.101.408v-1.637l1.37-.685v7.232zM32.701 12.985c-2.13-2.462-2.817-2.77-3.382-2.283l-.228.197 5.247 6.067.205-.177c.54-.467.361-1.258-1.842-3.804m1.371-1.207c2.495 2.883 3.004 4.857 1.48 6.177l-1.538 1.33-7.274-8.41 1.67-1.443c1.633-1.413 3.408-.26 5.662 2.346M40.202 14.351l-1.389.979-4.803-6.815 1.39-.979 4.802 6.815zm-5.94-8.675c.32.453.226 1.064-.228 1.384-.455.321-1.061.204-1.382-.25-.33-.467-.235-1.079.22-1.398.454-.32 1.06-.204 1.39.264zM39.004 3.463c-.169.027-.362.106-.554.222-.3.178-.356.454-.136.822l.514.858.777-.465.809 1.35-.778.465 3.479 5.808-1.432.856-3.478-5.806-.532.318-.808-1.35.532-.318-.637-1.063c-.678-1.132-.35-2.07.454-2.55.478-.286.69-.396.998-.47l.792 1.323zM43.15 1.382c-.17.014-.37.076-.57.175-.313.154-.392.424-.202.808l.442.898.812-.402.696 1.41-.811.4 2.994 6.066-1.496.739L42.02 5.41l-.555.274-.696-1.41.556-.273-.55-1.111c-.583-1.183-.18-2.089.66-2.504.498-.246.72-.337 1.031-.386l.682 1.382zM90.023 6.465c.567-1.277.7-2.006.311-2.187-.387-.184-.79.223-1.503 1.625l1.192.562zm.896 1.897l-2.67-1.259c-.717 1.592-.753 2.19-.322 2.393.315.148.546-.04 1.126-.715l1.112 1.068c-.901.98-1.718 1.56-2.94.984-1.507-.71-1.335-2.526-.24-4.852 1.206-2.557 2.45-3.708 4.002-2.975 1.364.642 1.36 2.325.148 4.896l-.216.46zM93.893 12.417l-.948 1.264c-.39-.03-.725-.122-1.118-.36-.899-.542-1.014-1.335-.365-2.41l2.618-4.339-.53-.32.814-1.346.53.32 1.289-2.136 1.827.232-1.675 2.774.939.566-.812 1.347-.939-.566-2.414 4c-.23.38-.223.645.022.791.26.157.45.18.762.183M99.062 12.064c.813-1.137 1.09-1.823.746-2.08-.343-.258-.819.06-1.8 1.29l1.054.79zm.496 2.04l-2.364-1.772c-1.022 1.417-1.178 1.995-.798 2.28.281.21.544.071 1.249-.473l.875 1.27c-1.08.779-1.999 1.183-3.079.373-1.334-1-.801-2.745.743-4.804 1.696-2.261 3.147-3.139 4.52-2.11 1.207.905.864 2.555-.841 4.83l-.305.406zM106.463 14.006l-1.403 1.19c-.047-.324-.146-.546-.413-.794-.223-.204-.473-.285-.753-.262l-4.422 4.782-1.236-1.143 5.662-6.124 1.236 1.143-.28.304c.447-.063.866 0 1.192.302.291.27.365.423.417.602M66.57 55.133c-1.907.07-3.509-1.417-3.58-3.323-.07-1.906 1.416-3.508 3.322-3.578l38.31 1.292c.87.079.917 1.33.056 1.473l-38.109 4.136z" transform="translate(-933 -576) translate(933 576) translate(0 5.44)"/>
                </g>
                <path fill="#000" d="M49.897 14.721l-1.575.637-3.125-7.73 1.575-.636 3.125 7.73zm-3.808-9.8c.209.514-.023 1.088-.538 1.296-.515.209-1.079-.042-1.287-.558-.215-.53.016-1.103.53-1.312.516-.208 1.08.044 1.295.574zM54.714 10.687c.203 1.665-.183 2.693-1.34 3.042-1.384.418-2.596-.411-3.504-3.422-.918-3.042-.526-4.438 1.04-4.91 1.308-.395 2.156.544 2.731 1.846l-1.367.861c-.366-.884-.605-1.293-.956-1.188-.547.165-.386 1.03.17 2.87.569 1.885.886 2.603 1.448 2.433.304-.091.344-.453.195-1.553l1.583.021zM60.75 11.928l-1.657.296-.072-.406c-.27.386-.586.7-1.194.809-.986.176-1.549-.272-1.823-1.804l-1.126-6.315 1.657-.295 1.082 6.064c.093.515.248.762.561.707.266-.048.437-.175.626-.386l-1.175-6.58 1.658-.297 1.463 8.207zM63.843 11.675L62.149 11.815 61.261 1.019 62.893.136zM68.39 9.886l-.134 1.575c-.346.18-.678.28-1.139.289-1.047.017-1.565-.595-1.586-1.849l-.081-5.063-.62.01-.026-1.572.62-.01-.04-2.493L67.053 0l.053 3.238 1.095-.018.025 1.572-1.096.019.077 4.666c.007.444.153.665.439.66.301-.005.475-.087.743-.25M74.788 3.725l-3.41 11.007-1.66-.156.975-2.749-.933-8.575 1.74.163.107 2.26c.05 1.17.092 2.929.063 4.074.171-1.132.573-2.865.854-3.987l.541-2.2 1.723.163zM84.108 14.64l-1.516-.472.863-2.774c.4-1.289.827-2.503 1.196-3.585-.41.786-1.249 2.255-1.842 3.252l-1.757 2.98.256-3.447c.078-1.107.243-2.868.34-3.718-.295 1.004-.658 2.39-1.045 3.632l-.861 2.775-1.517-.472 3.298-10.613 1.668.518-.306 3.446c-.085 1.021-.209 2.33-.386 3.222.359-.836 1.018-1.994 1.527-2.884l1.712-2.993 1.668.519-3.298 10.614z" transform="translate(-933 -576) translate(933 576)"/>
            </g>
        </g>
    </g>
</svg>
