<svg width="19" height="19" viewBox="0 0 19 19" xmlns="http://www.w3.org/2000/svg">
    <g fill-rule="nonzero" fill="none">
        <path d="M12.124 4.416c-2.587.22-4.805 2.115-5.428 4.636a6.187 6.187 0 0 0 6.555 7.679c2.593-.215 4.817-2.112 5.437-4.637a6.19 6.19 0 0 0-6.34-7.693l-.224.015zm5.836 7.499c-.543 2.212-2.5 3.88-4.771 4.069a5.437 5.437 0 0 1-5.765-6.752c.546-2.21 2.497-3.875 4.764-4.069a5.44 5.44 0 0 1 5.772 6.752z" fill="#8736C1"/>
        <path d="M12.562 2.265a1.434 1.434 0 1 0 .128-.005l-.128.005zm.064.748a.685.685 0 0 1 .728.852.684.684 0 1 1-.729-.852zM12.692 14.854c.18 0 .332.129.367.3l.008.075v1.128a.375.375 0 0 1-.743.076l-.007-.076V15.23c0-.207.167-.375.375-.375z" fill="#8736C1"/>
        <path d="M12.692 4.392c.18 0 .332.129.367.3l.008.075v1.128a.375.375 0 0 1-.743.076l-.007-.076V4.767c0-.207.167-.375.375-.375zM18.487 10.187a.375.375 0 0 1 .075.743l-.075.007h-1.128a.375.375 0 0 1-.076-.742l.076-.008h1.128zM8.025 10.187a.375.375 0 0 1 .075.743l-.075.007H6.897a.375.375 0 0 1-.076-.742l.076-.008h1.128z" fill="#8736C1"/>
        <path d="M12.692 7.88c.18 0 .332.129.367.3l.008.075-.001 1.932h1.704c.181 0 .332.129.367.3l.008.075a.375.375 0 0 1-.3.368l-.075.007h-2.453V8.255c0-.207.167-.375.375-.375zM5.74 14.854a.375.375 0 0 1 .075.743l-.076.007H.5a.375.375 0 0 1-.076-.742l.076-.008h5.24zM5.739 11.414a.375.375 0 0 1 .076.742l-.076.008H1.577a.375.375 0 0 1-.076-.742l.076-.008h4.162zM5.74 7.974a.375.375 0 0 1 .075.742l-.076.008H2.603a.375.375 0 0 1-.076-.742l.076-.008h3.136zM5.74 4.534a.375.375 0 0 1 .075.742l-.076.008H3.525a.375.375 0 0 1-.075-.743l.075-.007H5.74z" fill="#FF4722"/>
    </g>
</svg>
