<svg id="Layer_1" data-name="Layer 1" xmlns="http://www.w3.org/2000/svg" xmlns:xlink="http://www.w3.org/1999/xlink" viewBox="0 0 136 112"><defs><style>.cls-1,.cls-2,.cls-3{fill:#363267;}.cls-1{clip-rule:evenodd;}.cls-3{fill-rule:evenodd;}.cls-4{clip-path:url(#clip-path);}.cls-5{clip-path:url(#clip-path-2);}</style><clipPath id="clip-path"><path class="cls-1" d="M73.07,102H2.15A1.91,1.91,0,0,1,0,99.8,39.42,39.42,0,0,1,4.31,82q1.56-2.94,6-5.68a56,56,0,0,1,8.81-4.5Q23.5,70,32.51,66.7c.26-.13,1-.42,2.25-.88S37,65,37.6,64.75v-10a18.07,18.07,0,0,1-6.26-12.34,8.71,8.71,0,0,1-2.16-3.92c-.78-3.91-.13-6.79,2-8.61a1.17,1.17,0,0,1-.2-.79q-4.31-12.93-.58-18.21a8.68,8.68,0,0,1,5.87-3.14q3.14-6.06,16.84-6.07A33.87,33.87,0,0,1,66.2,4.13q5.86,2.44,6.85,7.35,1.17,6.06-3.33,17.43a3.32,3.32,0,0,0-.39,1c2,2.08,2.55,5,1.76,8.61a8.81,8.81,0,0,1-2.15,3.92,18,18,0,0,1-6.27,12.34v10c.65.26,1.6.62,2.84,1.07s2,.75,2.25.88q11.49,4.23,17.81,7.14l-1.85,3.89a163.93,163.93,0,0,0-17.33-7.11c-2.87-1-5-1.89-6.46-2.55-.92-.13-1.37-.78-1.37-1.95V53.58A1.85,1.85,0,0,1,59.34,52l.2-.2a3,3,0,0,1,.49-.39,4.2,4.2,0,0,0,.58-.49,10.37,10.37,0,0,0,.69-.78,9.85,9.85,0,0,1,.88-1A3.57,3.57,0,0,0,63,48q.3-.69.69-1.47A7.65,7.65,0,0,0,64.24,45c.13-.53.26-1.15.39-1.87a11.42,11.42,0,0,0,.19-2.05,1.85,1.85,0,0,1,1.57-2,7.58,7.58,0,0,0,.79-4.5c-.27-1.18-.66-1.83-1.18-2a2,2,0,0,1-1.18-2,12.78,12.78,0,0,1,1-3.33q4.13-10.57,3.14-15.08c-.39-2-2.16-3.53-5.29-4.7A29.83,29.83,0,0,0,53.07,5.8a27.56,27.56,0,0,0-9.3,1.37c-2.54.91-4,2-4.21,3.13a1.85,1.85,0,0,1-2,1.57q-2.74,0-3.72,1.56-2.36,2.94,1,14.5a21.17,21.17,0,0,1,.59,2.74,2,2,0,0,1-1.18,2c-.52.13-.91.78-1.17,2a7.59,7.59,0,0,0,.78,4.5,1.85,1.85,0,0,1,1.57,2,12.65,12.65,0,0,0,.19,2.25,20.69,20.69,0,0,0,.49,2.06,11.53,11.53,0,0,0,.69,1.76,10.78,10.78,0,0,0,.88,1.47c.33.46.62.85.88,1.17a5.63,5.63,0,0,0,.88.88c.33.27.59.49.79.69l.68.69a1.86,1.86,0,0,1,.79,1.56V66.12q0,1.75-1.38,1.95c-1.43.66-3.59,1.51-6.46,2.55Q10.38,79,8.23,83.94a33.23,33.23,0,0,0-3.92,13.9H73.07Z"/></clipPath><clipPath id="clip-path-2"><rect class="cls-2" x="-576.57" y="-40.1" width="2506.83" height="417.8"/></clipPath></defs><title>img_breached_websites (2)</title><path class="cls-2" d="M135.2,107.28Q121.88,80.7,108.6,54.1c-.59-1.18-1.12-2.59-2.71-2.72-2-.16-2.4,1.54-3.06,2.85C94,71.81,85.29,89.41,76.44,107c-2,4-.58,5.09,3.39,5,8.59-.11,17.18,0,25.76,0,8.76,0,17.52-.06,26.27,0C135.47,112,137.1,111.07,135.2,107.28Zm-8.6.24c-14.76-.06-29.51,0-45.16,0l24.15-48.75c4.29,8.51,8.29,16.4,12.25,24.32,3.53,7,7,14.15,10.55,21.16C129.56,106.49,129.57,107.53,126.6,107.52Z"/><path class="cls-2" d="M106.92,83.46c0,2.51,0,5,0,7.55,0,1.29-.48,2.39-1.9,2.49s-2-1-2.06-2.28c0-5,0-10.06,0-15.09,0-1.27.41-2.46,1.86-2.49,1.77,0,2.12,1.33,2.13,2.77,0,2.35,0,4.7,0,7Z"/><path class="cls-2" d="M104.87,101.71a1.85,1.85,0,0,1-1.85-2,1.71,1.71,0,0,1,1.77-1.93,1.95,1.95,0,1,1,.08,3.89Z"/><path class="cls-3" d="M73.07,102H2.15A1.91,1.91,0,0,1,0,99.8,39.42,39.42,0,0,1,4.31,82q1.56-2.94,6-5.68a56,56,0,0,1,8.81-4.5Q23.5,70,32.51,66.7c.26-.13,1-.42,2.25-.88S37,65,37.6,64.75v-10a18.07,18.07,0,0,1-6.26-12.34,8.71,8.71,0,0,1-2.16-3.92c-.78-3.91-.13-6.79,2-8.61a1.17,1.17,0,0,1-.2-.79q-4.31-12.93-.58-18.21a8.68,8.68,0,0,1,5.87-3.14q3.14-6.06,16.84-6.07A33.87,33.87,0,0,1,66.2,4.13q5.86,2.44,6.85,7.35,1.17,6.06-3.33,17.43a3.32,3.32,0,0,0-.39,1c2,2.08,2.55,5,1.76,8.61a8.81,8.81,0,0,1-2.15,3.92,18,18,0,0,1-6.27,12.34v10c.65.26,1.6.62,2.84,1.07s2,.75,2.25.88q11.49,4.23,17.81,7.14l-1.85,3.89a163.93,163.93,0,0,0-17.33-7.11c-2.87-1-5-1.89-6.46-2.55-.92-.13-1.37-.78-1.37-1.95V53.58A1.85,1.85,0,0,1,59.34,52l.2-.2a3,3,0,0,1,.49-.39,4.2,4.2,0,0,0,.58-.49,10.37,10.37,0,0,0,.69-.78,9.85,9.85,0,0,1,.88-1A3.57,3.57,0,0,0,63,48q.3-.69.69-1.47A7.65,7.65,0,0,0,64.24,45c.13-.53.26-1.15.39-1.87a11.42,11.42,0,0,0,.19-2.05,1.85,1.85,0,0,1,1.57-2,7.58,7.58,0,0,0,.79-4.5c-.27-1.18-.66-1.83-1.18-2a2,2,0,0,1-1.18-2,12.78,12.78,0,0,1,1-3.33q4.13-10.57,3.14-15.08c-.39-2-2.16-3.53-5.29-4.7A29.83,29.83,0,0,0,53.07,5.8a27.56,27.56,0,0,0-9.3,1.37c-2.54.91-4,2-4.21,3.13a1.85,1.85,0,0,1-2,1.57q-2.74,0-3.72,1.56-2.36,2.94,1,14.5a21.17,21.17,0,0,1,.59,2.74,2,2,0,0,1-1.18,2c-.52.13-.91.78-1.17,2a7.59,7.59,0,0,0,.78,4.5,1.85,1.85,0,0,1,1.57,2,12.65,12.65,0,0,0,.19,2.25,20.69,20.69,0,0,0,.49,2.06,11.53,11.53,0,0,0,.69,1.76,10.78,10.78,0,0,0,.88,1.47c.33.46.62.85.88,1.17a5.63,5.63,0,0,0,.88.88c.33.27.59.49.79.69l.68.69a1.86,1.86,0,0,1,.79,1.56V66.12q0,1.75-1.38,1.95c-1.43.66-3.59,1.51-6.46,2.55Q10.38,79,8.23,83.94a33.23,33.23,0,0,0-3.92,13.9H73.07Z"/><g class="cls-4"><rect class="cls-2" x="-576.57" y="-40.1" width="2506.83" height="417.8"/><g class="cls-5"><rect class="cls-2" x="-20.89" y="-19.21" width="142.05" height="142.05"/></g></g></svg>