<?xml version="1.0" encoding="UTF-8"?>
<svg width="200px" height="200px" viewBox="0 0 200 200" version="1.1" xmlns="http://www.w3.org/2000/svg" xmlns:xlink="http://www.w3.org/1999/xlink">
    <!-- Generator: Sketch 48.1 (47250) - http://www.bohemiancoding.com/sketch -->
    <title>assets/img_address_generic</title>
    <desc>Created with Sketch.</desc>
    <defs></defs>
    <g id="Circular-Icons" stroke="none" stroke-width="1" fill="none" fill-rule="evenodd" transform="translate(-500.000000, -4250.000000)">
        <g id="assets/img_address_generic" transform="translate(500.000000, 4250.000000)">
            <path d="M100,200 C155.228475,200 200,155.228475 200,100 C200,44.771525 155.228475,0 100,0 C44.771525,0 0,44.771525 0,100 C0,155.228475 44.771525,200 100,200 Z" id="background" fill="#353167"></path>
            <g id="Group-11" transform="translate(45.000000, 46.000000)">
                <g id="Group-10" transform="translate(48.592575, 35.621521)">
                    <path d="M18.0572253,5.60986645 C18.0572253,2.75361663 14.2512143,0.437843235 9.55692168,0.437843235 C4.86262902,0.437843235 1.05661809,2.75361663 1.05661809,5.60986645 L1.05661809,83.1902146 L18.0572253,83.1902146 L18.0572253,5.60986645 Z" id="Fill-1707" fill="#84462D"></path>
                    <path d="M9.43961749,83.1902146 L0.939313904,83.1902146 L0.939313904,5.60986645 C0.939313904,2.75361663 4.74532483,0.437843235 9.43961749,0.437843235 L9.43961749,83.1902146 Z" id="Fill-1708" fill="#9C6144"></path>
                </g>
                <path d="M9.23152186,0.830850178 L105.524825,25.270412 C108.810482,26.1043229 111.111111,29.0618014 111.111111,32.4516323 L111.111111,46.8486199 C111.111111,50.9404446 107.794032,54.257524 103.702207,54.257524 C103.087575,54.257524 102.475332,54.1810418 101.879589,54.0298402 L5.58628645,29.5902784 C2.30062879,28.7563675 9.02594925e-15,25.7988889 7.10542736e-15,22.409058 L7.10542736e-15,8.01207051 C6.60432335e-15,3.92024573 3.31707938,0.603166357 7.40890416,0.603166357 C8.02353564,0.603166357 8.63577868,0.679648568 9.23152186,0.830850178 Z" id="Rectangle-14" fill="#17B198"></path>
                <polygon id="Rectangle-3" fill="#C2F8F0" points="13.0909091 10.9703154 98.4242424 32.7272727 98.4242424 42.7736549 13.0909091 21.0166976"></polygon>
                <path d="M49.9510962,40.8007829 L65.2096317,38.6169479 C66.6167943,38.4155517 67.9207888,39.3930185 68.122185,40.8001811 C68.1394719,40.9209654 68.1481481,41.0428261 68.1481481,41.1648411 L68.1481481,41.5636921 C68.1481481,43.0382174 67.0641107,44.2884511 65.6044594,44.4973596 L50.3459239,46.6811945 C48.9387613,46.8825907 47.6347668,45.9051239 47.4333706,44.4979613 C47.4160837,44.377177 47.4074074,44.2553164 47.4074074,44.1333013 L47.4074074,43.7344503 C47.4074074,42.259925 48.4914449,41.0096913 49.9510962,40.8007829 Z" id="Rectangle-2" fill="#999999" transform="translate(57.777778, 42.649071) scale(1, -1) translate(-57.777778, -42.649071) "></path>
                <path d="M14.9358434,52.301423 L111.229146,34.2933248 C115.251241,33.5411408 119.121559,36.1919275 119.873743,40.2140226 C119.957734,40.6631415 120,41.1190671 120,41.5759722 L120,56.1858739 C120,59.7524637 117.458856,62.8128892 113.953045,63.4685214 L17.6597427,81.4766195 C13.6376476,82.2288036 9.76732961,79.5780169 9.01514559,75.5559217 C8.93115452,75.1068028 8.88888889,74.6508772 8.88888889,74.1939721 L8.88888889,59.5840704 C8.88888889,56.0174807 11.4300327,52.9570551 14.9358434,52.301423 Z" id="Rectangle-14" fill="#0D9681"></path>
                <path d="M50.7236712,37.5920291 L65.5372886,39.3676609 C67.0269342,39.546217 68.1481481,40.8098509 68.1481481,42.3101596 L68.1481481,43.0479222 C68.1481481,44.5224475 67.0641107,45.7726811 65.6044594,45.9815896 L50.790842,48.1017469 C49.1706222,48.3336363 47.669191,47.2081721 47.4373017,45.5879524 C47.4173974,45.4488802 47.4074074,45.3085688 47.4074074,45.1680795 L47.4074074,40.5345279 C47.4074074,38.897798 48.7342392,37.5709662 50.3709691,37.5709662 C50.4888507,37.5709662 50.6066274,37.5779997 50.7236712,37.5920291 Z" id="Rectangle-2" fill="#CFD9DE"></path>
                <path d="M49.9510962,71.969614 L64.7647136,69.8494567 C66.3849334,69.6175674 67.8863645,70.7430315 68.1182539,72.3632513 C68.1381582,72.5023234 68.1481481,72.6426349 68.1481481,72.7831242 L68.1481481,75.3070309 C68.1481481,76.9437608 66.8213164,78.2705925 65.1845865,78.2705925 L50.3709691,78.2705925 C48.7342392,78.2705925 47.4074074,76.9437608 47.4074074,75.3070309 L47.4074074,74.9032814 C47.4074074,73.4287562 48.4914449,72.1785225 49.9510962,71.969614 Z" id="Rectangle-2" fill="#CFD9DE"></path>
                <path d="M78.6666667,49.8600417 L78.6666667,59.9064239 L53.0666667,64.8338822 L53.0666667,54.7875 L78.6666667,49.8600417 Z M83.4666667,48.9361433 L105.333333,44.7272727 L105.333333,54.7736549 L83.4666667,58.9825255 L83.4666667,48.9361433 Z M48.2666667,55.7113984 L48.2666667,65.7577806 L20,71.1985158 L20,61.1521336 L48.2666667,55.7113984 Z" id="Combined-Shape" fill-opacity="0.6" fill="#C2F8F0"></path>
            </g>
        </g>
    </g>
</svg>