<?xml version="1.0" encoding="UTF-8"?>
<svg width="85px" height="61px" viewBox="0 0 85 61" version="1.1" xmlns="http://www.w3.org/2000/svg" xmlns:xlink="http://www.w3.org/1999/xlink">
    <!-- Generator: sketchtool 63.1 (101010) - https://sketch.com -->
    <title>CC4AFAF4-31A1-447F-B368-AED3D5F034E8</title>
    <desc>Created with sketchtool.</desc>
    <g id="email-report" stroke="none" stroke-width="1" fill="none" fill-rule="evenodd">
        <g id="Email-update_1200px" transform="translate(-719.000000, -3077.000000)" fill-rule="nonzero">
            <g id="Group-11" transform="translate(360.000000, 3035.000000)">
                <g id="darkweb_dark-mode" transform="translate(359.000000, 42.000000)">
                    <g id="Group-9">
                        <g id="loupe-01" transform="translate(12.000000, 0.000000)">
                            <path d="M8.33333333,3.41020389 L8.33333333,6.82040556 C8.33333333,7.29125615 7.9468626,7.67295597 7.4701268,7.67295597 C6.99339099,7.67295597 6.60692026,7.29125615 6.60692026,6.82040556 L6.60692026,3.41020389 C6.60692026,2.4685005 5.83397699,1.70509906 4.88050314,1.70509906 C3.9270293,1.70509906 3.15408603,2.4685005 3.15408603,3.41020389 L3.15408603,6.82040556 C3.15408603,7.29125615 2.7676153,7.67295597 2.29087949,7.67295597 C1.81414369,7.67295597 1.42767296,7.29125615 1.42767296,6.82040556 L1.42767296,3.41020389 C1.42767296,1.52680029 2.97355688,0 4.88050135,0 C6.78744581,0 8.33333333,1.52680029 8.33333333,3.41020389 L8.33333333,3.41020389 Z" id="Path" fill="#8B88AA"></path>
                            <path d="M8.53008519,34.8045406 C8.37758442,34.5383751 8.09773952,34.3755836 7.79596536,34.3774881 C7.49419121,34.3793926 7.21633447,34.5457038 7.0670611,34.8137738 C6.91778774,35.0818438 6.91977592,35.4109464 7.07227671,35.6771119 C7.68647132,36.7642948 7.44828114,38.1452719 6.50738251,38.9522509 C5.56648389,39.75923 4.19452152,39.75923 3.2536229,38.9522509 C2.31272427,38.1452719 2.0745341,36.7642948 2.6887287,35.6771119 C2.84128466,35.4109433 2.84330585,35.0818037 2.69403078,34.8136988 C2.54475571,34.5455939 2.26686761,34.3792639 1.96506284,34.3773585 C1.66325808,34.3754856 1.38339768,34.5383245 1.23092109,34.8045406 C0.201555476,36.6169936 0.595806979,38.9234234 2.16546544,40.2717637 C3.73512389,41.6201039 6.0258824,41.6201039 7.59554085,40.2717637 C9.16519931,38.9234234 9.55945081,36.6169936 8.53008519,34.8045406 L8.53008519,34.8045406 Z" id="Path" fill="#8B88AA"></path>
                            <path d="M68.5443041,16.496844 L16.4116716,16.496844 C15.8515848,16.4958399 16.2997134,16.6309161 15.8039749,16.8903615 C15.8118817,17.0451383 15.8153958,17.2007896 15.8153958,17.3573232 L15.8153958,19.3256788 C16.0750437,18.6742537 15.7075818,18.2463231 16.4116707,18.2457518 L68.5443041,18.2457518 C69.4924223,18.2468159 70.2607549,19.0115863 70.2618157,19.9553004 L70.2618157,57.541586 C70.2607409,58.4852902 69.4924123,59.2500452 68.5443041,59.2511092 L16.4116716,59.2511092 C15.4635631,59.2500457 14.695234,58.4852906 14.6941592,57.541586 L14.6941592,34.3325605 L12.9371069,34.3325605 L12.9371069,57.541586 C12.9391542,59.4507751 14.493573,60.9979686 16.4116716,61 L68.5443041,61 C70.4624024,60.9979681 72.0168207,59.4507747 72.0188679,57.541586 L72.0188679,19.9553004 C72.0168323,18.0461028 70.4624113,16.4988955 68.5443041,16.496844 Z" id="Path" fill="#8B88AA"></path>
                            <path d="M71.2515723,25.3207547 L71.2515723,26.8553459 L16.1411133,26.8553459 C15.9348654,26.3529742 15.7617549,25.8405956 15.6226415,25.3207547 L71.2515723,25.3207547 Z" id="Path" fill="#8B88AA"></path>
                            <circle id="Oval" fill="#8B88AA" cx="18.8836478" cy="21.6761006" r="1.3427673"></circle>
                            <circle id="Oval" fill="#8B88AA" cx="23.4874214" cy="21.6761006" r="1.3427673"></circle>
                            <circle id="Oval" fill="#8B88AA" cx="28.4748428" cy="21.6761006" r="1.3427673"></circle>
                            <path d="M62.0440252,42.9685535 L60.2729106,42.9685535 L60.2729106,42.903641 C60.2720362,41.3611983 59.0040677,40.1112586 57.4402516,40.1112586 C55.8764354,40.1112586 54.6084669,41.3611983 54.6075925,42.903641 L54.6075925,42.9685535 L52.836478,42.9685535 L52.836478,42.903641 C52.8375928,40.3965753 54.8984459,38.3647799 57.4402516,38.3647799 C59.9820573,38.3647799 62.0429104,40.3965753 62.0440252,42.903641 L62.0440252,42.9685535 Z" id="Path" fill="#8B88AA"></path>
                            <rect id="Rectangle" fill="#8B88AA" x="50.918239" y="46.4213836" width="12.6603774" height="1.53459119"></rect>
                            <path d="M61.285057,54.4779874 L53.5954453,54.4779874 C51.6939825,54.4758392 50.1530736,52.9218906 50.1509434,51.004337 L50.1509434,46.0584709 C50.1531105,44.1409465 51.6940114,42.5870441 53.5954453,42.5849057 L61.285057,42.5849057 C63.1864912,42.5870436 64.7273926,44.1409462 64.7295597,46.0584709 L64.7295597,51.004337 C64.7274291,52.9218908 63.18652,54.4758392 61.285057,54.4779874 Z M53.5954453,44.3415449 C52.655592,44.3426044 51.8939393,45.1106643 51.8928421,46.0584709 L51.8928421,51.004337 C51.8939028,51.9521726 52.6555632,52.7202785 53.5954453,52.7213482 L61.285057,52.7213482 C62.2249394,52.720279 62.9866003,51.952173 62.9876611,51.004337 L62.9876611,46.0584709 C62.9865638,45.110664 62.2249106,44.3426039 61.285057,44.3415449 L53.5954453,44.3415449 Z" id="Shape" fill="#FFFFFF"></path>
                            <path d="M24.4879958,30.5245782 C24.7160976,30.9247208 24.8301887,31.4930389 24.8301887,32.2295327 C24.8301887,32.9660556 24.7161244,33.5333077 24.4879958,33.9312889 C24.2598114,34.3292981 23.8623453,34.5283019 23.2955975,34.5283019 C22.728824,34.5283019 22.3313579,34.3292976 22.1031992,33.9312889 C21.8750147,33.5332803 21.7609505,32.9660282 21.7610063,32.2295327 C21.7610063,31.4930098 21.8750706,30.9246916 22.1031992,30.5245782 C22.3313836,30.1245993 22.7288497,29.9245826 23.2955975,29.9245283 C23.8623738,29.9245283 24.2598399,30.1245449 24.4879958,30.5245782 Z M22.779975,33.4065722 C22.8638657,33.6784476 23.0357399,33.8143466 23.2955975,33.8143466 C23.5554556,33.8143466 23.7258023,33.6784218 23.8066373,33.4065722 C23.8874176,33.1347769 23.9278217,32.7424304 23.9278497,32.2295327 C23.9278497,31.6920161 23.8874456,31.2940069 23.8066373,31.0355051 C23.7257738,30.7770039 23.5554272,30.6477261 23.2955975,30.6476717 C23.0357393,30.6476717 22.8638652,30.7769495 22.779975,31.0355051 C22.6960837,31.2940058 22.6541232,31.692015 22.6540936,32.2295327 C22.6540936,32.742431 22.6960563,33.1347775 22.779975,33.4065722 L22.779975,33.4065722 Z" id="Shape" fill="#FFFFFF"></path>
                            <path d="M25.9811321,31.3532853 L25.9811321,30.7373298 C26.1726535,30.7333599 26.363616,30.7142555 26.5523935,30.6801795 C26.7136712,30.6469048 26.8613601,30.5626979 26.9756064,30.4388785 C27.0563544,30.3445228 27.1144016,30.231309 27.1449081,30.1086772 C27.1632007,30.0489646 27.1743838,29.9871134 27.1782033,29.9245283 L27.8993711,29.9245283 L27.8993711,34.5283019 L27.0144774,34.5283019 L27.0144774,31.3532853 L25.9811321,31.3532853 Z" id="Path" fill="#FFFFFF"></path>
                            <path d="M32.1609517,30.5245782 C32.3890535,30.9247208 32.5031446,31.4930389 32.5031446,32.2295327 C32.5031446,32.9660556 32.3890803,33.5333077 32.1609517,33.9312889 C31.9327672,34.3292981 31.535301,34.5283019 30.968553,34.5283019 C30.4017794,34.5283019 30.0043135,34.3292976 29.7761552,33.9312889 C29.5479707,33.5332803 29.4339064,32.9660282 29.4339623,32.2295327 C29.4339623,31.4930098 29.5480266,30.9246916 29.7761552,30.5245782 C30.0043397,30.1245993 30.4018057,29.9245826 30.968553,29.9245283 C31.5353295,29.9245283 31.9327957,30.1245449 32.1609517,30.5245782 Z M30.4529304,33.4065722 C30.5368217,33.6784476 30.7086959,33.8143466 30.9685531,33.8143466 C31.2284113,33.8143466 31.3987579,33.6784218 31.479593,33.4065722 C31.5603745,33.1347769 31.6007786,32.7424304 31.6008054,32.2295327 C31.6008054,31.6920161 31.5604013,31.2940069 31.479593,31.0355051 C31.3987306,30.7770039 31.2283839,30.6477261 30.9685531,30.6476717 C30.7086959,30.6476717 30.5368217,30.7769495 30.4529304,31.0355051 C30.3690391,31.2940058 30.32708,31.692015 30.3270532,32.2295327 C30.3270532,32.742431 30.3690123,33.1347775 30.4529304,33.4065722 L30.4529304,33.4065722 Z" id="Shape" fill="#FFFFFF"></path>
                            <path d="M35.9974298,30.5245782 C36.2255315,30.9247208 36.3396226,31.4930389 36.3396226,32.2295327 C36.3396226,32.9660556 36.2255583,33.5333077 35.9974298,33.9312889 C35.7692453,34.3292981 35.3717792,34.5283019 34.8050315,34.5283019 C34.238258,34.5283019 33.8407919,34.3292976 33.6126331,33.9312889 C33.3844487,33.5332803 33.2703844,32.9660282 33.2704403,32.2295327 C33.2704403,31.4930098 33.3845046,30.9246916 33.6126331,30.5245782 C33.8408176,30.1245993 34.2382837,29.9245826 34.8050315,29.9245283 C35.37181,29.9245283 35.7692761,30.1245449 35.9974298,30.5245782 Z M34.2894089,33.4065722 C34.3733002,33.6784476 34.5451744,33.8143466 34.8050315,33.8143466 C35.0648896,33.8143466 35.2352362,33.6784218 35.3160713,33.4065722 C35.3968521,33.1347769 35.4372563,32.7424304 35.4372836,32.2295327 C35.4372836,31.6920161 35.3968795,31.2940069 35.3160713,31.0355051 C35.2352077,30.7770039 35.0648611,30.6477261 34.8050315,30.6476717 C34.5451744,30.6476717 34.3733002,30.7769495 34.2894089,31.0355051 C34.2055176,31.2940058 34.1635572,31.692015 34.1635276,32.2295327 C34.1635276,32.742431 34.2054942,33.1347775 34.2894123,33.4065722 L34.2894089,33.4065722 Z" id="Shape" fill="#FFFFFF"></path>
                            <path d="M37.490566,31.3532853 L37.490566,30.7373298 C37.6820874,30.7333599 37.87305,30.7142556 38.0618275,30.6801795 C38.2231054,30.6469048 38.3707946,30.5626979 38.4850412,30.4388785 C38.5657886,30.3445226 38.6238355,30.2313088 38.6543421,30.1086772 C38.6726347,30.0489646 38.6838177,29.9871134 38.6876372,29.9245283 L39.408805,29.9245283 L39.408805,34.5283019 L38.5239113,34.5283019 L38.5239113,31.3532853 L37.490566,31.3532853 Z" id="Path" fill="#FFFFFF"></path>
                            <path d="M43.6703858,30.5245782 C43.8984875,30.9247208 44.0125786,31.4930389 44.0125786,32.2295327 C44.0125786,32.9660556 43.8985143,33.5333077 43.6703858,33.9312889 C43.4422013,34.3292981 43.0447352,34.5283019 42.4779874,34.5283019 C41.9112139,34.5283019 41.5137478,34.3292976 41.2855891,33.9312889 C41.0574047,33.5332803 40.9433404,32.9660282 40.9433962,32.2295327 C40.9433962,31.4930098 41.0574605,30.9246916 41.2855891,30.5245782 C41.5137735,30.1245993 41.9112397,29.9245826 42.4779874,29.9245283 C43.0447631,29.9245283 43.4422293,30.1245449 43.6703858,30.5245782 Z M41.9623616,33.4065722 C42.0462529,33.6784476 42.2181273,33.8143466 42.4779849,33.8143466 C42.737842,33.8143466 42.9081883,33.6784218 42.9890239,33.4065722 C43.0698048,33.1347769 43.1102089,32.7424304 43.1102363,32.2295327 C43.1102363,31.6920161 43.0698321,31.2940069 42.9890239,31.0355051 C42.9081615,30.7770039 42.7378151,30.6477261 42.4779849,30.6476717 C42.2181268,30.6476717 42.0462523,30.7769495 41.9623616,31.0355051 C41.8784708,31.2940058 41.8365104,31.692015 41.8364802,32.2295327 C41.8364802,32.742431 41.8784451,33.1347775 41.9623616,33.4065722 Z" id="Shape" fill="#FFFFFF"></path>
                            <path d="M45.163522,31.3532853 L45.163522,30.7373298 C45.3550433,30.7333599 45.5460058,30.7142556 45.7347832,30.6801795 C45.8960611,30.646905 46.0437503,30.5626981 46.1579967,30.4388785 C46.2387447,30.3445228 46.2967919,30.231309 46.3272984,30.1086772 C46.3455908,30.0489646 46.3567736,29.9871133 46.3605927,29.9245283 L47.081761,29.9245283 L47.081761,34.5283019 L46.1968677,34.5283019 L46.1968677,31.3532853 L45.163522,31.3532853 Z" id="Path" fill="#FFFFFF"></path>
                            <path d="M51.3433417,30.5245782 C51.5714435,30.9247208 51.6855346,31.4930389 51.6855346,32.2295327 C51.6855346,32.9660556 51.5714703,33.5333077 51.3433417,33.9312889 C51.1151573,34.3292981 50.7176912,34.5283019 50.1509434,34.5283019 C49.5841699,34.5283019 49.1867038,34.3292976 48.9585451,33.9312889 C48.7303606,33.5332803 48.6162964,32.9660282 48.6163522,32.2295327 C48.6163522,31.4930098 48.7304165,30.9246916 48.9585451,30.5245782 C49.1867295,30.1245993 49.5841956,29.9245826 50.1509434,29.9245283 C50.7177197,29.9245283 51.1151858,30.1245449 51.3433417,30.5245782 Z M49.6353209,33.4065722 C49.7192122,33.6784476 49.8910864,33.8143466 50.1509434,33.8143466 C50.4108016,33.8143466 50.5811482,33.6784218 50.6619832,33.4065722 C50.7427641,33.1347769 50.7831682,32.7424304 50.7831956,32.2295327 C50.7831956,31.6920161 50.7427915,31.2940069 50.6619832,31.0355051 C50.5811197,30.7770039 50.4107731,30.6477261 50.1509434,30.6476717 C49.8910864,30.6476717 49.7192122,30.7769495 49.6353209,31.0355051 C49.5514296,31.2940058 49.5094691,31.692015 49.5094395,32.2295327 C49.5094395,32.742431 49.551405,33.1347775 49.6353209,33.4065722 Z" id="Shape" fill="#FFFFFF"></path>
                            <path d="M52.836478,31.3532853 L52.836478,30.7373298 C53.0279994,30.7333599 53.2189619,30.7142556 53.4077394,30.6801795 C53.5690174,30.6469048 53.7167065,30.5626979 53.8309531,30.4388785 C53.9117005,30.3445226 53.9697475,30.2313088 54.000254,30.1086772 C54.0185466,30.0489646 54.0297297,29.9871134 54.0335492,29.9245283 L54.754717,29.9245283 L54.754717,34.5283019 L53.8698233,34.5283019 L53.8698233,31.3532853 L52.836478,31.3532853 Z" id="Path" fill="#FFFFFF"></path>
                            <path d="M59.3999455,30.5245782 C59.6280472,30.9247208 59.7421383,31.4930389 59.7421383,32.2295327 C59.7421383,32.9660556 59.6280741,33.5333077 59.3999455,33.9312889 C59.1717611,34.3292981 58.774295,34.5283019 58.2075472,34.5283019 C57.6407737,34.5283019 57.2433076,34.3292976 57.0151489,33.9312889 C56.7869644,33.5332803 56.6729001,32.9660282 56.672956,32.2295327 C56.672956,31.4930098 56.7870203,30.9246916 57.0151489,30.5245782 C57.2433333,30.1245993 57.6407994,29.9245826 58.2075472,29.9245283 C58.7743229,29.9245283 59.171789,30.1245449 59.3999455,30.5245782 Z M57.6919238,33.4065722 C57.7758151,33.6784476 57.9476896,33.8143466 58.2075472,33.8143466 C58.4674042,33.8143466 58.6377505,33.6784218 58.7185862,33.4065722 C58.799367,33.1347769 58.8397712,32.7424304 58.8397985,32.2295327 C58.8397985,31.6920161 58.7993944,31.2940069 58.7185862,31.0355051 C58.6377237,30.7770039 58.4673774,30.6477261 58.2075472,30.6476717 C57.947689,30.6476717 57.7758146,30.7769495 57.6919238,31.0355051 C57.6080331,31.2940058 57.5660726,31.692015 57.5660425,32.2295327 C57.5660425,32.742431 57.6080057,33.1347775 57.6919238,33.4065722 L57.6919238,33.4065722 Z" id="Shape" fill="#FFFFFF"></path>
                            <path d="M60.509434,31.3532853 L60.509434,30.7373298 C60.7009553,30.7333599 60.8919177,30.7142556 61.0806952,30.6801795 C61.2419731,30.646905 61.3896622,30.5626981 61.5039087,30.4388785 C61.5846566,30.3445228 61.6427039,30.231309 61.6732103,30.1086772 C61.6915028,30.0489646 61.7026855,29.9871133 61.7065046,29.9245283 L62.427673,29.9245283 L62.427673,34.5283019 L61.5427763,34.5283019 L61.5427763,31.3532853 L60.509434,31.3532853 Z" id="Path" fill="#FFFFFF"></path>
                            <path d="M66.6892537,30.5245782 C66.9173554,30.9247208 67.0314465,31.4930389 67.0314465,32.2295327 C67.0314465,32.9660556 66.9173822,33.5333077 66.6892537,33.9312889 C66.4610692,34.3292981 66.0636031,34.5283019 65.4968554,34.5283019 C64.9300819,34.5283019 64.5326158,34.3292976 64.304457,33.9312889 C64.0762726,33.5332803 63.9622083,32.9660282 63.9622642,32.2295327 C63.9622642,31.4930098 64.0763285,30.9246916 64.304457,30.5245782 C64.5326415,30.1245993 64.9301076,29.9245826 65.4968554,29.9245283 C66.0636316,29.9245283 66.4610977,30.1245449 66.6892537,30.5245782 Z M64.9812328,33.4065722 C65.0651241,33.6784476 65.2369983,33.8143466 65.4968554,33.8143466 C65.7567135,33.8143466 65.9270601,33.6784218 66.0078952,33.4065722 C66.088676,33.1347769 66.1290802,32.7424304 66.1291075,32.2295327 C66.1291075,31.6920161 66.0887034,31.2940069 66.0078952,31.0355051 C65.9270316,30.7770039 65.756685,30.6477261 65.4968554,30.6476717 C65.2369983,30.6476717 65.0651241,30.7769495 64.9812328,31.0355051 C64.8973415,31.2940058 64.8553811,31.692015 64.8553515,32.2295327 C64.8553515,32.742431 64.8973147,33.1347775 64.9812328,33.4065722 Z" id="Shape" fill="#FFFFFF"></path>
                            <path d="M20.6515178,40.1157732 C20.8796196,40.5159157 20.9937107,41.0842339 20.9937107,41.8207277 C20.9937107,42.5572506 20.8796464,43.1245027 20.6515178,43.5224839 C20.4233334,43.9204931 20.0258673,44.1194969 19.4591195,44.1194969 C18.892346,44.1194969 18.4948799,43.9204925 18.2667212,43.5224839 C18.0385368,43.1244752 17.9244725,42.5572232 17.9245283,41.8207277 C17.9245283,41.0842048 18.0385926,40.5158866 18.2667212,40.1157732 C18.4949056,39.7157948 18.8923717,39.5157782 19.4591195,39.5157233 C20.0258958,39.5157233 20.4233619,39.7157399 20.6515178,40.1157732 Z M18.943497,42.9977672 C19.0273883,43.2696426 19.1992625,43.4055416 19.4591195,43.4055416 C19.7189777,43.4055416 19.8893243,43.2696168 19.9701593,42.9977672 C20.0509408,42.7259719 20.0913449,42.3336254 20.0913717,41.8207277 C20.0913717,41.2832111 20.0509676,40.8852018 19.9701593,40.6267001 C19.8892963,40.3681988 19.7189497,40.238921 19.4591195,40.2388667 C19.1992625,40.2388667 19.0273883,40.3681445 18.943497,40.6267001 C18.8596057,40.8852002 18.8176466,41.2832094 18.8176198,41.8207277 C18.8176198,42.333626 18.8595789,42.7259725 18.943497,42.9977672 Z" id="Shape" fill="#FFFFFF"></path>
                            <path d="M24.4879958,40.1157732 C24.7160976,40.5159157 24.8301887,41.0842339 24.8301887,41.8207277 C24.8301887,42.5572506 24.7161244,43.1245027 24.4879958,43.5224839 C24.2598114,43.9204931 23.8623453,44.1194969 23.2955975,44.1194969 C22.728824,44.1194969 22.3313579,43.9204925 22.1031992,43.5224839 C21.8750147,43.1244752 21.7609505,42.5572232 21.7610063,41.8207277 C21.7610063,41.0842048 21.8750706,40.5158866 22.1031992,40.1157732 C22.3313836,39.7157948 22.7288497,39.5157782 23.2955975,39.5157233 C23.8623738,39.5157233 24.2598399,39.7157399 24.4879958,40.1157732 Z M22.779975,42.9977672 C22.8638657,43.2696426 23.0357399,43.4055416 23.2955975,43.4055416 C23.5554556,43.4055416 23.7258023,43.2696168 23.8066373,42.9977672 C23.8874176,42.7259719 23.9278217,42.3336254 23.9278497,41.8207277 C23.9278497,41.2832111 23.8874456,40.8852018 23.8066373,40.6267001 C23.7257738,40.3681988 23.5554272,40.238921 23.2955975,40.2388667 C23.0357393,40.2388667 22.8638652,40.3681445 22.779975,40.6267001 C22.6960837,40.8852002 22.6541232,41.2832094 22.6540936,41.8207277 C22.6540936,42.333626 22.6960563,42.7259725 22.779975,42.9977672 L22.779975,42.9977672 Z" id="Shape" fill="#FFFFFF"></path>
                            <path d="M24.4879958,48.6000499 C24.7160976,49.0001925 24.8301887,49.5685106 24.8301887,50.3050044 C24.8301887,51.0415273 24.7161244,51.6087794 24.4879958,52.0067606 C24.2598114,52.4047698 23.8623453,52.6037736 23.2955975,52.6037736 C22.728824,52.6037736 22.3313579,52.4047693 22.1031992,52.0067606 C21.8750147,51.608752 21.7609505,51.0414999 21.7610063,50.3050044 C21.7610063,49.5684815 21.8750706,49.0001633 22.1031992,48.6000499 C22.3313836,48.2000715 22.7288497,48.0000549 23.2955975,48 C23.8623738,48 24.2598399,48.2000166 24.4879958,48.6000499 Z M22.779975,51.4820439 C22.8638657,51.7539193 23.0357399,51.8898183 23.2955975,51.8898183 C23.5554556,51.8898183 23.7258023,51.7538935 23.8066373,51.4820439 C23.8874176,51.2102486 23.9278217,50.8179021 23.9278497,50.3050044 C23.9278497,49.7674878 23.8874456,49.3694786 23.8066373,49.1109768 C23.7257738,48.8524756 23.5554272,48.7231978 23.2955975,48.7231434 C23.0357393,48.7231434 22.8638652,48.8524212 22.779975,49.1109768 C22.6960837,49.3694769 22.6541232,49.7674861 22.6540936,50.3050044 C22.6540936,50.8179027 22.6960563,51.2102492 22.779975,51.4820439 L22.779975,51.4820439 Z" id="Shape-Copy-3" fill="#FFFFFF"></path>
                            <path d="M25.9811321,40.9444803 L25.9811321,40.3285248 C26.1726535,40.3245548 26.363616,40.3054505 26.5523935,40.2713745 C26.7136712,40.2380998 26.8613601,40.1538928 26.9756064,40.0300735 C27.0563544,39.9357178 27.1144016,39.822504 27.1449081,39.6998722 C27.1632007,39.6401595 27.1743838,39.5783083 27.1782033,39.5157233 L27.8993711,39.5157233 L27.8993711,44.1194969 L27.0144774,44.1194969 L27.0144774,40.9444803 L25.9811321,40.9444803 Z" id="Path" fill="#FFFFFF"></path>
                            <path d="M25.9811321,49.428757 L25.9811321,48.8128015 C26.1726535,48.8088315 26.363616,48.7897272 26.5523935,48.7556512 C26.7136712,48.7223765 26.8613601,48.6381696 26.9756064,48.5143502 C27.0563544,48.4199945 27.1144016,48.3067807 27.1449081,48.1841489 C27.1632007,48.1244363 27.1743838,48.0625851 27.1782033,48 L27.8993711,48 L27.8993711,52.6037736 L27.0144774,52.6037736 L27.0144774,49.428757 L25.9811321,49.428757 Z" id="Path-Copy" fill="#FFFFFF"></path>
                            <path d="M32.1609517,40.1157732 C32.3890535,40.5159157 32.5031446,41.0842339 32.5031446,41.8207277 C32.5031446,42.5572506 32.3890803,43.1245027 32.1609517,43.5224839 C31.9327672,43.9204931 31.535301,44.1194969 30.968553,44.1194969 C30.4017794,44.1194969 30.0043135,43.9204925 29.7761552,43.5224839 C29.5479707,43.1244752 29.4339064,42.5572232 29.4339623,41.8207277 C29.4339623,41.0842048 29.5480266,40.5158866 29.7761552,40.1157732 C30.0043397,39.7157948 30.4018057,39.5157782 30.968553,39.5157233 C31.5353295,39.5157233 31.9327957,39.7157399 32.1609517,40.1157732 Z M30.4529304,42.9977672 C30.5368217,43.2696426 30.7086959,43.4055416 30.9685531,43.4055416 C31.2284113,43.4055416 31.3987579,43.2696168 31.479593,42.9977672 C31.5603745,42.7259719 31.6007786,42.3336254 31.6008054,41.8207277 C31.6008054,41.2832111 31.5604013,40.8852018 31.479593,40.6267001 C31.3987306,40.3681988 31.2283839,40.238921 30.9685531,40.2388667 C30.7086959,40.2388667 30.5368217,40.3681445 30.4529304,40.6267001 C30.3690391,40.8852002 30.32708,41.2832094 30.3270532,41.8207277 C30.3270532,42.333626 30.3690123,42.7259725 30.4529304,42.9977672 L30.4529304,42.9977672 Z" id="Shape" fill="#FFFFFF"></path>
                            <path d="M32.1609517,48.6000499 C32.3890535,49.0001925 32.5031446,49.5685106 32.5031446,50.3050044 C32.5031446,51.0415273 32.3890803,51.6087794 32.1609517,52.0067606 C31.9327672,52.4047698 31.535301,52.6037736 30.968553,52.6037736 C30.4017794,52.6037736 30.0043135,52.4047693 29.7761552,52.0067606 C29.5479707,51.608752 29.4339064,51.0414999 29.4339623,50.3050044 C29.4339623,49.5684815 29.5480266,49.0001633 29.7761552,48.6000499 C30.0043397,48.2000715 30.4018057,48.0000549 30.968553,48 C31.5353295,48 31.9327957,48.2000166 32.1609517,48.6000499 Z M30.4529304,51.4820439 C30.5368217,51.7539193 30.7086959,51.8898183 30.9685531,51.8898183 C31.2284113,51.8898183 31.3987579,51.7538935 31.479593,51.4820439 C31.5603745,51.2102486 31.6007786,50.8179021 31.6008054,50.3050044 C31.6008054,49.7674878 31.5604013,49.3694786 31.479593,49.1109768 C31.3987306,48.8524756 31.2283839,48.7231978 30.9685531,48.7231434 C30.7086959,48.7231434 30.5368217,48.8524212 30.4529304,49.1109768 C30.3690391,49.3694769 30.32708,49.7674861 30.3270532,50.3050044 C30.3270532,50.8179027 30.3690123,51.2102492 30.4529304,51.4820439 L30.4529304,51.4820439 Z" id="Shape-Copy-4" fill="#FFFFFF"></path>
                            <path d="M33.2704403,40.9444803 L33.2704403,40.3285248 C33.4619617,40.3245549 33.6529242,40.3054505 33.8417017,40.2713745 C34.0029797,40.2381 34.1506689,40.153893 34.2649154,40.0300735 C34.3456634,39.9357178 34.4037106,39.822504 34.4342171,39.6998722 C34.4525096,39.6401595 34.4636923,39.5783083 34.4675114,39.5157233 L35.1886792,39.5157233 L35.1886792,44.1194969 L34.3037864,44.1194969 L34.3037864,40.9444803 L33.2704403,40.9444803 Z" id="Path" fill="#FFFFFF"></path>
                            <path d="M33.2704403,49.428757 L33.2704403,48.8128015 C33.4619617,48.8088316 33.6529242,48.7897273 33.8417017,48.7556512 C34.0029797,48.7223767 34.1506689,48.6381698 34.2649154,48.5143502 C34.3456634,48.4199945 34.4037106,48.3067807 34.4342171,48.1841489 C34.4525096,48.1244363 34.4636923,48.062585 34.4675114,48 L35.1886792,48 L35.1886792,52.6037736 L34.3037864,52.6037736 L34.3037864,49.428757 L33.2704403,49.428757 Z" id="Path-Copy-2" fill="#FFFFFF"></path>
                            <path d="M37.1069182,40.9444803 L37.1069182,40.3285248 C37.2984396,40.3245548 37.4894022,40.3054505 37.6781797,40.2713745 C37.8394574,40.2380998 37.9871463,40.1538928 38.1013926,40.0300735 C38.1821405,39.9357178 38.2401878,39.822504 38.2706943,39.6998722 C38.2889869,39.6401595 38.3001699,39.5783083 38.3039894,39.5157233 L39.0251572,39.5157233 L39.0251572,44.1194969 L38.1402635,44.1194969 L38.1402635,40.9444803 L37.1069182,40.9444803 Z" id="Path" fill="#FFFFFF"></path>
                            <path d="M37.1069182,49.428757 L37.1069182,48.8128015 C37.2984396,48.8088315 37.4894022,48.7897272 37.6781797,48.7556512 C37.8394574,48.7223765 37.9871463,48.6381696 38.1013926,48.5143502 C38.1821405,48.4199945 38.2401878,48.3067807 38.2706943,48.1841489 C38.2889869,48.1244363 38.3001699,48.0625851 38.3039894,48 L39.0251572,48 L39.0251572,52.6037736 L38.1402635,52.6037736 L38.1402635,49.428757 L37.1069182,49.428757 Z" id="Path-Copy-3" fill="#FFFFFF"></path>
                            <path d="M43.2867379,40.1157732 C43.5148397,40.5159157 43.6289308,41.0842339 43.6289308,41.8207277 C43.6289308,42.5572506 43.5148665,43.1245027 43.2867379,43.5224839 C43.0585534,43.9204931 42.6610871,44.1194969 42.0943392,44.1194969 C41.5275656,44.1194969 41.1300996,43.9204925 40.9019414,43.5224839 C40.6737569,43.1244752 40.5596926,42.5572232 40.5597484,41.8207277 C40.5597484,41.0842048 40.6738128,40.5158866 40.9019414,40.1157732 C41.1301259,39.7157948 41.5275918,39.5157782 42.0943392,39.5157233 C42.6611156,39.5157233 43.0585819,39.7157399 43.2867379,40.1157732 Z M41.5787166,42.9977672 C41.6626079,43.2696426 41.8344821,43.4055416 42.0943392,43.4055416 C42.3541974,43.4055416 42.5245441,43.2696168 42.6053792,42.9977672 C42.6861606,42.7259719 42.7265648,42.3336254 42.7265916,41.8207277 C42.7265916,41.2832111 42.6861874,40.8852018 42.6053792,40.6267001 C42.5245167,40.3681988 42.3541701,40.238921 42.0943392,40.2388667 C41.8344821,40.2388667 41.6626079,40.3681445 41.5787166,40.6267001 C41.4948252,40.8852002 41.4528662,41.2832094 41.4528393,41.8207277 C41.4528393,42.333626 41.4947984,42.7259725 41.5787166,42.9977672 L41.5787166,42.9977672 Z" id="Shape" fill="#FFFFFF"></path>
                            <path d="M43.2867379,48.6000499 C43.5148397,49.0001925 43.6289308,49.5685106 43.6289308,50.3050044 C43.6289308,51.0415273 43.5148665,51.6087794 43.2867379,52.0067606 C43.0585534,52.4047698 42.6610871,52.6037736 42.0943392,52.6037736 C41.5275656,52.6037736 41.1300996,52.4047693 40.9019414,52.0067606 C40.6737569,51.608752 40.5596926,51.0414999 40.5597484,50.3050044 C40.5597484,49.5684815 40.6738128,49.0001633 40.9019414,48.6000499 C41.1301259,48.2000715 41.5275918,48.0000549 42.0943392,48 C42.6611156,48 43.0585819,48.2000166 43.2867379,48.6000499 Z M41.5787166,51.4820439 C41.6626079,51.7539193 41.8344821,51.8898183 42.0943392,51.8898183 C42.3541974,51.8898183 42.5245441,51.7538935 42.6053792,51.4820439 C42.6861606,51.2102486 42.7265648,50.8179021 42.7265916,50.3050044 C42.7265916,49.7674878 42.6861874,49.3694786 42.6053792,49.1109768 C42.5245167,48.8524756 42.3541701,48.7231978 42.0943392,48.7231434 C41.8344821,48.7231434 41.6626079,48.8524212 41.5787166,49.1109768 C41.4948252,49.3694769 41.4528662,49.7674861 41.4528393,50.3050044 C41.4528393,50.8179027 41.4947984,51.2102492 41.5787166,51.4820439 L41.5787166,51.4820439 Z" id="Shape-Copy-5" fill="#FFFFFF"></path>
                        </g>
                        <path d="M30,49.428757 L30,48.8128015 C30.1915214,48.8088315 30.3824839,48.7897272 30.5712615,48.7556512 C30.7325391,48.7223765 30.880228,48.6381696 30.9944743,48.5143502 C31.0752223,48.4199945 31.1332696,48.3067807 31.163776,48.1841489 C31.1820686,48.1244363 31.1932517,48.0625851 31.1970712,48 L31.918239,48 L31.918239,52.6037736 L31.0333453,52.6037736 L31.0333453,49.428757 L30,49.428757 Z" id="Path-Copy-4" fill="#FFFFFF"></path>
                        <path d="M33.6407305,34.0175353 L32.1880388,31.5975066 L31.4050845,30.2931131 L30.7406145,29.1862205 C29.4032727,26.9557197 28.6966988,24.4039227 28.696313,21.8032096 L28.696313,17.5714233 C28.696313,17.2808723 28.6860725,16.9929572 28.6655914,16.7076781 C28.2987394,11.8158758 24.9551152,7.65613725 20.2566578,6.24628536 C19.7039468,6.08103551 19.1397614,5.95692914 18.5687266,5.87498363 C17.4491489,5.7146281 16.3124339,5.7146281 15.1928563,5.87498363 C14.6218212,5.95692801 14.0576357,6.0810344 13.504925,6.24628536 C8.62984967,7.70251141 5.06439122,12.2301172 5.06439122,17.5714268 L5.06439122,21.8032131 C5.0643937,24.4038605 4.35811589,26.955684 3.02096748,29.186224 L0.120850613,34.0175353 C-0.0361478893,34.2782467 -0.0404601757,34.6033362 0.109567668,34.8681205 C0.259595511,35.1329048 0.540674938,35.2962819 0.84500207,35.2955932 L32.916579,35.2955932 C33.2207031,35.2955932 33.5014142,35.1323468 33.6513416,34.8677398 C33.8012689,34.6031329 33.797215,34.2783179 33.6407305,34.0175353 L33.6407305,34.0175353 Z M2.33544358,33.6076182 L4.46751399,30.0543573 C5.9625105,27.5617471 6.75223893,24.7097926 6.75232156,21.8032079 L6.75232156,17.5714216 C6.7572078,13.029244 9.7807242,9.04392168 14.1535945,7.81574175 C14.395856,7.74727477 14.6422115,7.68846338 14.8926608,7.6393076 C16.2048189,7.37714504 17.5558747,7.37714504 18.8680329,7.6393076 C19.1181943,7.68846865 19.3645497,7.74728004 19.6070992,7.81574175 C23.81311,8.99712702 26.790368,12.7386866 26.9969604,17.1026781 C27.0048602,17.2580455 27.0083712,17.4142907 27.0083712,17.5714216 L27.0083712,21.8032079 C27.0089088,24.7096122 27.7982801,27.5613725 29.292301,30.0543573 L30.1525052,31.4868815 L30.2314948,31.6185487 L31.2488257,33.3126721 L31.4261331,33.6076182 L2.33544358,33.6076182 Z M18.5687283,6.99501221 L18.5687283,5.87498363 C17.4491507,5.7146281 16.3124357,5.7146281 15.192858,5.87498363 L15.192858,6.99501221 C15.1929349,7.24359219 15.0830342,7.47946999 14.8926643,7.63931199 C16.2048224,7.37714943 17.5558783,7.37714943 18.8680364,7.63931199 C18.678232,7.4791214 18.5687207,7.24338409 18.5687283,6.99501221 L18.5687283,6.99501221 Z M30.2315053,31.6185487 L31.2488363,33.3126721 L31.2488363,31.6185487 L30.2315053,31.6185487 Z" id="Shape" fill="#FFFFFF"></path>
                    </g>
                </g>
            </g>
        </g>
    </g>
</svg>