<?xml version="1.0" encoding="UTF-8"?>
<svg width="80px" height="80px" viewBox="0 0 80 80" version="1.1" xmlns="http://www.w3.org/2000/svg" xmlns:xlink="http://www.w3.org/1999/xlink">
    <!-- Generator: Sketch 49.1 (51147) - http://www.bohemiancoding.com/sketch -->
    <title>assets/img_domain_twitter</title>
    <desc>Created with Sketch.</desc>
    <defs></defs>
    <g id="Freshness" stroke="none" stroke-width="1" fill="none" fill-rule="evenodd">
        <g id="Freeform-Icons" transform="translate(-240.000000, -1460.000000)">
            <g id="assets/img_domain_twitter" transform="translate(240.000000, 1460.000000)">
                <circle id="Oval-7" fill="#353167" cx="40" cy="40" r="40"></circle>
                <path d="M32.1516,58 C49.1328,58 58.4208,44.1486448 58.4208,32.136812 C58.4208,31.7433881 58.4208,31.3517365 58.3938,30.961857 C60.2006965,29.6750967 61.7604399,28.0818515 63,26.2567203 C61.3149823,26.9918235 59.5274927,27.473904 57.6972,27.6868692 C59.6245392,26.5508703 61.0670223,24.7641411 61.7562,22.6591959 C59.9438835,23.717994 57.961163,24.4641821 55.8936,24.8655594 C53.031749,21.8695026 48.4842948,21.1362071 44.8011887,23.076863 C41.1180825,25.017519 39.215295,29.1494946 40.1598,33.1558152 C32.7364123,32.7894163 25.8200564,29.3373412 21.132,23.6587052 C18.681521,27.8120644 19.9331782,33.1254392 23.9904,35.7928184 C22.5211342,35.749945 21.0839029,35.359721 19.8,34.6550791 L19.8,34.7702708 C19.8012026,39.0972119 22.8991527,42.8240029 27.207,43.6807894 C25.8477653,44.0457522 24.4216451,44.0991023 23.0382,43.8367412 C24.2477063,47.5395736 27.7138342,50.0762023 31.6638,50.1492447 C28.3945231,52.6789104 24.3559071,54.0521648 20.1978,54.0480397 C19.4632264,54.0466512 18.7293673,54.0028623 18,53.9168984 C22.2221447,56.5845187 27.1348441,57.9994983 32.1516,57.9929113" id="Shape" fill="#1DA1F2" fill-rule="nonzero"></path>
            </g>
        </g>
    </g>
</svg>