<?xml version="1.0" encoding="UTF-8"?>
<svg width="80px" height="80px" viewBox="0 0 80 80" version="1.1" xmlns="http://www.w3.org/2000/svg" xmlns:xlink="http://www.w3.org/1999/xlink">
    <!-- Generator: Sketch 49.1 (51147) - http://www.bohemiancoding.com/sketch -->
    <title>assets/img_domain_xfinity</title>
    <desc>Created with Sketch.</desc>
    <defs></defs>
    <g id="Freshness" stroke="none" stroke-width="1" fill="none" fill-rule="evenodd">
        <g id="Freeform-Icons" transform="translate(-480.000000, -1380.000000)">
            <g id="assets/img_domain_xfinity" transform="translate(480.000000, 1380.000000)">
                <circle id="Oval-11" fill="#353167" cx="40" cy="40" r="40"></circle>
                <g id="Xfinity_2017" transform="translate(19.000000, 18.000000)" fill="#C8001D" fill-rule="nonzero">
                    <path d="M0.174650699,31.4511565 L12.2264752,15.2199141 L1.29420639,0.342559412 L5.80827201,0.342559412 C8.70729179,0.342559412 9.5048632,1.54565824 10.5305415,2.77613294 L15.9987456,10.3893229 L21.1663211,3.45341824 C23.3170213,0.545197059 23.9425059,0.342559412 27.0439888,0.342559412 L30.8971107,0.342559412 L19.810052,15.2144135 L41.3183249,44.7430112 L36.5602128,44.7430112 C33.826126,44.7430112 32.7799544,43.5729935 32.0602143,42.5983624 L15.9360001,20.1270724 L9.20762675,29.1807176 C8.31590901,30.3395753 7.05681737,31.4511565 4.6528738,31.4511565 L0.174650699,31.4511565 Z" id="path3049"></path>
                </g>
            </g>
        </g>
    </g>
</svg>