<svg xmlns="http://www.w3.org/2000/svg" width="133" height="61" viewBox="0 0 133 61">
    <g fill="none" fill-rule="evenodd">
        <g>
            <g>
                <g>
                    <path fill="#8736C1" d="M43.311 39.936c-.685.923-1.3 1.885-1.856 2.889-.149.268-.298.536-.437.813-.05.08-.099.168-.129.259-.149.278-.288.565-.427.853-.01.01-.01.02-.01.03-.278.576-.526 1.162-.754 1.767-.208.506-.387 1.033-.556 1.569-.07.188-.12.377-.179.565-.109.368-.218.735-.307 1.112-.13.466-.239.933-.328 1.41 0 .009-.01.02-.01.03-.09.446-.169.893-.238 1.339-.06.368-.11.744-.149 1.133-.04.268-.06.525-.08.794-.04.347-.059.705-.079 1.051v.03c-.03.497-.04.994-.04 1.5h-9.708c0-.477.01-.943.03-1.42 0-.11 0-.218.01-.337.02-.477.05-.943.089-1.42.04-.476.08-.943.139-1.41.01-.119.03-.249.05-.367.049-.447.109-.883.188-1.331.07-.457.159-.922.248-1.379.02-.08.03-.159.05-.248.1-.467.198-.934.317-1.39.09-.357.18-.725.288-1.082.02-.09.04-.179.07-.268l.149-.506c.1-.339.208-.675.317-1.013.03-.1.06-.198.1-.298.129-.387.268-.774.417-1.161 0-.03.01-.05.03-.08.168-.456.347-.903.535-1.35.219-.516.437-1.032.676-1.528.178-.378.367-.745.555-1.113.924-1.806 1.986-3.533 3.167-5.161l7.862 5.718zM57.42 29.48c-.497.168-.994.356-1.47.555-.248.099-.486.199-.715.307-.278.11-.546.23-.804.357-.159.07-.308.15-.456.23-.219.099-.427.208-.626.316-.21.1-.407.209-.605.328-1.231.686-2.413 1.45-3.525 2.313-.208.15-.416.309-.615.477-.18.148-.357.298-.536.446-.923.775-1.787 1.608-2.61 2.503-.24.267-.487.536-.717.814-.009 0-.019.01-.028.029-.19.219-.378.456-.566.686-.11.138-.219.278-.328.417-.169.217-.337.446-.506.674l.288-.397-7.853-5.708h-.01c.517-.686 1.043-1.35 1.599-1.996.327-.387.664-.763 1.012-1.14.338-.368.695-.736 1.053-1.094.357-.356.714-.704 1.092-1.05.367-.348.744-.687 1.131-1.013.765-.656 1.559-1.292 2.383-1.887.377-.278.764-.545 1.161-.815.04-.028.09-.058.14-.089.376-.257.773-.505 1.16-.753.09-.05.18-.11.279-.17.367-.217.734-.437 1.111-.645.884-.497 1.797-.962 2.73-1.4.467-.209.934-.417 1.41-.616.417-.178.854-.346 1.28-.506.09-.04.18-.068.259-.098.298-.1.585-.209.882-.309l3 9.233z" transform="translate(-933 -212) translate(933 212)"/>
                    <path fill="#D7D7D7" d="M35.748 33.827l7.853 5.708-.288.396-7.863-5.717.06-.089c.08-.1.149-.199.228-.298h.01zM105.793 57.076h-9.707c0-.506-.011-1.002-.04-1.499v-.03c-.02-.348-.04-.704-.08-1.053-.02-.267-.04-.525-.079-.793-.04-.377-.09-.754-.15-1.131-.07-.447-.148-.894-.238-1.342 0-.009 0-.018-.01-.028-.09-.477-.198-.943-.328-1.41-.089-.377-.198-.745-.307-1.112-.06-.188-.11-.377-.179-.566-.169-.536-.357-1.063-.556-1.568-.228-.606-.486-1.192-.754-1.768 0-.01-.01-.02-.01-.029-.14-.288-.278-.576-.427-.854-.03-.09-.08-.178-.13-.258-.137-.278-.287-.546-.435-.814-.567-1.002-1.182-1.965-1.856-2.89-.17-.227-.339-.455-.508-.674l-.327-.417c-.189-.229-.377-.466-.566-.686-.009-.018-.02-.028-.03-.028-.227-.278-.475-.547-.715-.814-.824-.895-1.687-1.728-2.61-2.503-.18-.148-.358-.297-.535-.446-.2-.168-.408-.327-.617-.476-1.112-.864-2.293-1.628-3.523-2.313-.2-.12-.398-.229-.607-.329-.198-.108-.407-.217-.625-.316-.149-.08-.297-.16-.457-.229-.257-.129-.526-.248-.804-.358-.228-.108-.466-.209-.715-.307-.546-.228-1.111-.438-1.676-.625-.09-.03-.17-.06-.26-.09h-.01c-.187-.06-.376-.119-.575-.18-.377-.117-.754-.217-1.14-.316-.468-.13-.945-.238-1.421-.328-.417-.089-.834-.168-1.251-.229-.437-.068-.874-.128-1.32-.178-.188-.03-.386-.05-.586-.06-.397-.039-.804-.069-1.221-.09-.496-.028-.993-.04-1.499-.04-.506 0-1.003.012-1.499.04-.417.021-.824.051-1.221.09-.199.01-.397.03-.586.06-.446.05-.883.11-1.32.178-.417.06-.834.14-1.25.23-.477.089-.954.198-1.42.327-.388.1-.765.199-1.142.317-.04.01-.08.02-.11.03l-.941.308-3-9.233c.16-.049.318-.108.477-.158.16-.05.308-.1.467-.149.794-.248 1.598-.466 2.412-.665.427-.11.864-.198 1.29-.288l.318-.06c.457-.09.904-.178 1.37-.249.497-.078 1.003-.147 1.51-.208.466-.059.942-.108 1.409-.148.09 0 .169-.01.248-.02.427-.03.854-.05 1.28-.07.09-.01.18-.01.259-.01.486-.019.963-.029 1.449-.029.486 0 .963.01 1.45.029.079 0 .168 0 .257.01.427.02.854.04 1.281.07.08.01.159.02.248.02.468.04.943.09 1.41.148.507.06 1.012.13 1.509.208.466.071.913.16 1.37.249l.317.06c.427.09.865.179 1.29.288.974.238 1.937.506 2.88.814h.01c.456.149.904.308 1.35.467 1.052.387 2.084.814 3.097 1.29.417.189.824.397 1.231.595.934.487 1.856 1.003 2.74 1.55.397.248.784.496 1.161.754.05.02.09.06.14.09.396.257.785.535 1.16.813.825.595 1.619 1.231 2.383 1.886.387.327.765.666 1.142 1.013.358.338.715.685 1.072 1.032l.03.03c.328.338.656.675.973 1.013.1.099.188.208.288.308.258.297.526.595.784.902.655.765 1.29 1.568 1.887 2.383.267.368.525.745.784 1.122 1.4 2.065 2.601 4.268 3.583 6.602.129.288.248.585.357.883.12.288.229.585.338.884.119.297.229.595.317.902.09.248.17.496.249.745.218.695.426 1.41.605 2.125.06.218.11.447.159.665.03.12.06.227.08.348.109.446.198.893.277 1.34.07.317.12.645.17.963.088.515.158 1.032.217 1.547.07.517.12 1.034.16 1.56.039.476.069.943.089 1.418.01.12.01.23.01.338.02.477.03.944.03 1.42" transform="translate(-933 -212) translate(933 212)"/>
                    <path fill="#FFF" d="M28.024 57.577L37.733 57.577 37.733 56.584 28.024 56.584zM96.085 57.577L105.793 57.577 105.793 56.584 96.085 56.584zM90.797 40.337L90.213 39.534 98.147 33.762 98.747 34.554 98.667 34.613zM76.404 29.477L75.46 29.171 78.49 19.844 79.431 20.16 79.401 20.249zM58.362 29.171L57.419 29.48 54.421 20.247 55.334 19.841 55.364 19.929 55.364 19.939zM43.6 39.535L43.312 39.931 43.015 40.339 35.073 34.551 35.669 33.758 35.738 33.827 35.748 33.827z" transform="translate(-933 -212) translate(933 212)"/>
                    <path fill="#000" d="M4.97 59.165L0 59.165 0 52.22 4.822 52.22 4.822 53.579 1.389 53.579 1.389 54.78 3.383 54.78 3.383 56.129 1.389 56.129 1.389 57.806 4.97 57.806zM8.943 57.637v-.654c-.238-.15-.467-.219-.952-.219-.516 0-.794.237-.794.654 0 .368.208.694.794.694.446 0 .803-.227.952-.475zm1.369 1.527h-1.37v-.347c-.247.258-.683.457-1.17.457-.972 0-1.944-.595-1.944-1.856 0-1.15.932-1.726 2.113-1.726.476 0 .783.1 1.002.208v-.258c0-.367-.248-.665-.745-.665-.624 0-.952.09-1.428.349l-.526-.953c.605-.348 1.111-.525 1.954-.525 1.261 0 2.114.654 2.114 1.824v3.492zM15.712 57.646c0 1.2-.952 1.628-2.123 1.628-.823 0-1.627-.239-2.183-.606l.457-1.041c.556.307 1.14.476 1.805.476.536 0 .695-.129.695-.396 0-.24-.188-.358-.764-.527-1.25-.377-2.054-.684-2.054-1.786 0-1.08.864-1.547 2.084-1.547.655 0 1.369.198 1.925.507l-.437 1.08c-.516-.277-1.081-.416-1.518-.416-.555 0-.704.109-.704.336 0 .219.158.309 1.081.607.932.307 1.736.644 1.736 1.685M21.609 53.956L18.929 61H17.58l.695-1.836-2.024-5.208h1.508l.853 2.51c.14.397.278.894.337 1.14.06-.257.199-.734.338-1.14l.853-2.51h1.469zM117.876 59.165L116.488 59.165 116.488 56.248 113.64 56.248 113.64 59.165 112.251 59.165 112.251 52.22 113.64 52.22 113.64 54.879 116.488 54.879 116.488 52.22 117.876 52.22zM122.306 57.637v-.654c-.238-.15-.467-.219-.953-.219-.515 0-.794.237-.794.654 0 .368.208.694.794.694.447 0 .804-.227.953-.475zm1.369 1.527h-1.37v-.347c-.247.258-.683.457-1.17.457-.972 0-1.945-.595-1.945-1.856 0-1.15.933-1.726 2.113-1.726.477 0 .784.1 1.003.208v-.258c0-.367-.248-.665-.745-.665-.625 0-.952.09-1.428.349l-.526-.953c.605-.348 1.11-.525 1.954-.525 1.261 0 2.114.654 2.114 1.824v3.492zM128.361 54.214l-.357 1.34c-.219-.2-.487-.338-.794-.338-.536 0-.883.228-.883 1.131v2.817h-1.37v-5.208h1.37v.347c.237-.247.586-.456 1.071-.456.447 0 .784.179.963.367M131.915 57.548v-1.965c-.209-.288-.525-.447-.923-.447-.525 0-.813.457-.813 1.33 0 1.072.356 1.517.892 1.517.427 0 .645-.177.844-.435zm1.369 1.617h-1.369v-.328c-.258.228-.605.437-1.1.437-1.113 0-2.025-.834-2.025-2.779 0-1.557.734-2.648 2.024-2.648.457 0 .853.178 1.101.407v-1.637l1.369-.685v7.233zM32.7 18.426c-2.13-2.463-2.816-2.772-3.381-2.283l-.229.197 5.248 6.067.204-.177c.541-.468.362-1.258-1.841-3.804m1.37-1.207c2.495 2.882 3.005 4.857 1.48 6.176l-1.538 1.33-7.273-8.409 1.67-1.444c1.632-1.413 3.407-.26 5.662 2.347M40.201 19.792l-1.388.979-4.803-6.815 1.389-.98 4.802 6.816zm-5.939-8.677c.32.454.225 1.066-.228 1.385-.455.32-1.061.205-1.382-.25-.33-.467-.235-1.078.22-1.398.454-.32 1.06-.203 1.39.263zM39.004 8.903c-.17.027-.363.107-.554.222-.3.178-.357.454-.136.822l.514.858.776-.465.81 1.35-.778.466 3.478 5.807-1.431.858-3.478-5.808-.533.318-.808-1.35.532-.318-.637-1.063c-.677-1.132-.35-2.069.455-2.55.477-.286.69-.395.998-.469l.792 1.322zM43.149 6.822c-.17.014-.37.076-.569.175-.313.155-.393.425-.202.808l.441.898.812-.402.696 1.41-.81.4 2.993 6.066-1.496.739-2.994-6.066-.555.274-.695-1.41.555-.273-.549-1.111c-.583-1.182-.18-2.089.66-2.504.498-.246.72-.337 1.031-.386l.682 1.382zM49.897 14.721l-1.576.637-3.125-7.73 1.576-.636 3.125 7.73zm-3.808-9.8c.208.514-.023 1.088-.538 1.297-.515.208-1.08-.043-1.288-.56-.214-.53.016-1.102.531-1.31.516-.21 1.08.043 1.295.573zM54.713 10.687c.203 1.665-.183 2.693-1.34 3.042-1.383.418-2.595-.411-3.503-3.422-.919-3.042-.527-4.438 1.039-4.91 1.308-.395 2.156.544 2.732 1.846l-1.367.861c-.366-.884-.606-1.293-.956-1.188-.547.165-.386 1.03.169 2.87.57 1.885.886 2.603 1.448 2.433.305-.091.345-.453.196-1.553l1.582.021zM60.75 11.928l-1.657.296-.073-.406c-.27.386-.585.7-1.194.809-.986.176-1.548-.272-1.822-1.804l-1.126-6.315 1.657-.295 1.082 6.064c.092.515.248.762.56.707.267-.048.437-.175.626-.386l-1.174-6.58 1.657-.297 1.464 8.207zM63.842 11.675L62.149 11.815 61.26 1.019 62.892.136zM68.39 9.886l-.135 1.575c-.346.18-.678.28-1.138.289-1.048.017-1.566-.595-1.587-1.849l-.081-5.064-.62.01-.025-1.571.62-.01-.041-2.493L67.053 0l.053 3.238 1.096-.018.025 1.572-1.096.019.076 4.666c.007.444.153.665.439.66.302-.005.475-.087.743-.25M74.788 3.725l-3.41 11.007-1.66-.156.975-2.749-.933-8.575 1.739.163.107 2.26c.05 1.17.092 2.929.064 4.074.17-1.132.572-2.865.853-3.987l.541-2.2 1.724.163zM84.107 14.64l-1.516-.472.863-2.775c.4-1.288.827-2.502 1.196-3.584-.41.786-1.249 2.255-1.842 3.252l-1.757 2.979.257-3.446c.077-1.107.242-2.868.339-3.718-.295 1.004-.658 2.389-1.044 3.632l-.862 2.775-1.517-.472 3.298-10.613 1.668.518-.306 3.446c-.084 1.021-.209 2.33-.386 3.222.36-.836 1.018-1.994 1.528-2.884l1.711-2.993 1.668.519-3.298 10.614zM90.023 11.905c.566-1.277.698-2.006.31-2.187-.387-.184-.789.223-1.503 1.625l1.193.562zm.895 1.897l-2.67-1.259c-.717 1.592-.753 2.19-.322 2.393.316.148.546-.04 1.127-.715l1.111 1.068c-.9.98-1.718 1.56-2.939.984-1.508-.71-1.336-2.526-.24-4.852 1.205-2.557 2.45-3.707 4.001-2.975 1.364.642 1.36 2.325.148 4.896l-.216.46zM93.892 17.858l-.948 1.263c-.39-.03-.725-.122-1.118-.359-.899-.542-1.014-1.335-.365-2.41l2.618-4.34-.53-.32.814-1.346.53.32 1.289-2.136 1.827.231-1.674 2.775.938.567-.812 1.346-.938-.566-2.415 4c-.23.38-.223.645.022.792.26.157.45.179.762.183M99.06 17.505c.814-1.138 1.09-1.824.747-2.08-.343-.259-.819.059-1.8 1.29l1.054.79zm.497 2.04l-2.364-1.772c-1.022 1.416-1.178 1.994-.798 2.28.281.21.544.07 1.249-.473l.875 1.27c-1.08.779-1.999 1.183-3.079.373-1.334-1.001-.8-2.745.743-4.804 1.696-2.263 3.147-3.14 4.52-2.11 1.207.905.864 2.555-.841 4.829l-.305.407zM106.462 19.447l-1.403 1.189c-.047-.324-.146-.545-.413-.793-.223-.205-.473-.285-.753-.262l-4.422 4.781-1.236-1.142 5.662-6.124 1.236 1.142-.28.304c.447-.062.866 0 1.192.303.291.269.365.423.417.602M70.335 56.044c.597 1.812-.39 3.763-2.202 4.36-1.811.595-3.763-.391-4.359-2.202l-9.365-37.17c-.166-.858 1.025-1.249 1.4-.46l14.526 35.472z" transform="translate(-933 -212) translate(933 212)"/>
                </g>
            </g>
        </g>
    </g>
</svg>
