<?xml version="1.0" encoding="UTF-8"?>
<svg width="98px" height="120px" viewBox="0 0 98 120" version="1.1" xmlns="http://www.w3.org/2000/svg" xmlns:xlink="http://www.w3.org/1999/xlink">
    <!-- Generator: Sketch 42 (36781) - http://www.bohemiancoding.com/sketch -->
    <title>assets/img_traffic_light</title>
    <desc>Created with Sketch.</desc>
    <defs></defs>
    <g id="Freshness" stroke="none" stroke-width="1" fill="none" fill-rule="evenodd">
        <g id="Freeform-Icons" transform="translate(-300.000000, -1130.000000)">
            <g id="assets/img_traffic_light" transform="translate(300.000000, 1130.000000)">
                <path d="M92.4656385,45 C95.5224846,45 98.0007538,47.465625 98.0007538,50.506875 C98.0007538,51.795 97.5465615,53.041875 96.7173308,54.031875 L79.1546,75 L79.1546,45 L92.4656385,45 Z" id="Fill-2638" fill="#736F9C"></path>
                <path d="M92.4656385,82.5 C95.5224846,82.5 98.0007538,84.965625 98.0007538,88.006875 C98.0007538,89.295 97.5465615,90.541875 96.7173308,91.531875 L79.1546,112.5 L79.1546,82.5 L92.4656385,82.5 Z" id="Fill-2639" fill="#736F9C"></path>
                <path d="M18.8461538,45 L18.8461538,75 L1.28342308,54.031875 C0.454192308,53.041875 0,51.795 0,50.506875 C0,47.465625 2.47826923,45 5.53511538,45 L18.8461538,45 Z" id="Fill-2640" fill="#736F9C"></path>
                <path d="M92.4656385,7.5 C95.5224846,7.5 98.0007538,9.965625 98.0007538,13.006875 C98.0007538,14.295 97.5465615,15.541875 96.7173308,16.531875 L79.1546,37.5 L79.1546,7.5 L92.4656385,7.5 Z" id="Fill-2641" fill="#736F9C"></path>
                <path d="M18.8461538,7.5 L18.8461538,37.5 L1.28342308,16.531875 C0.454192308,15.541875 0,14.295 0,13.006875 C0,9.965625 2.47826923,7.5 5.53511538,7.5 L18.8461538,7.5 Z" id="Fill-2642" fill="#736F9C"></path>
                <path d="M18.8461538,82.5 L18.8461538,112.5 L1.28342308,91.531875 C0.454192308,90.541875 0,89.295 0,88.006875 C0,84.965625 2.47826923,82.5 5.53511538,82.5 L18.8461538,82.5 Z" id="Fill-2643" fill="#736F9C"></path>
                <path d="M26.3846154,0 C22.2215,0 18.8461538,3.358125 18.8461538,7.5 L18.8461538,15.13125 L18.8461538,37.5 L18.8461538,112.5 C18.8461538,116.64375 22.2196154,120 26.3846154,120 L71.6153846,120 C75.7803846,120 79.1538462,116.64375 79.1538462,112.5 L79.1538462,37.5 L79.1538462,15.13125 L79.1538462,7.5 C79.1538462,3.358125 75.7785,0 71.6153846,0 L26.3846154,0 Z" id="Fill-2644" fill="#3B2469"></path>
                <path d="M64.0769231,22.5 C64.0769231,30.78375 57.3262308,37.5 49,37.5 C40.6737692,37.5 33.9230769,30.78375 33.9230769,22.5 C33.9230769,14.21625 40.6737692,7.5 49,7.5 C57.3262308,7.5 64.0769231,14.21625 64.0769231,22.5" id="Fill-2645" fill="#DB3262"></path>
                <path d="M64.0769231,60 C64.0769231,68.28375 57.3262308,75 49,75 C40.6737692,75 33.9230769,68.28375 33.9230769,60 C33.9230769,51.71625 40.6737692,45 49,45 C57.3262308,45 64.0769231,51.71625 64.0769231,60" id="Fill-2646" fill="#F37A10"></path>
                <path d="M64.0769231,97.5 C64.0769231,105.78375 57.3262308,112.5 49,112.5 C40.6737692,112.5 33.9230769,105.78375 33.9230769,97.5 C33.9230769,89.21625 40.6737692,82.5 49,82.5 C57.3262308,82.5 64.0769231,89.21625 64.0769231,97.5" id="Fill-2647" fill="#17B198"></path>
                <path d="M49,7.5 C40.6737692,7.5 33.9230769,14.21625 33.9230769,22.5 C33.9230769,26.859375 35.8039231,30.7725 38.7891538,33.51375 L60.0702308,12.34125 C57.3149231,9.37125 53.3817308,7.5 49,7.5" id="Fill-2648" fill="#F0386B"></path>
                <path d="M49,45 C40.6737692,45 33.9230769,51.71625 33.9230769,60 C33.9230769,64.359375 35.8039231,68.2725 38.7891538,71.01375 L60.0702308,49.84125 C57.3149231,46.87125 53.3817308,45 49,45" id="Fill-2649" fill="#F99134"></path>
                <path d="M49,82.5 C40.6737692,82.5 33.9230769,89.21625 33.9230769,97.5 C33.9230769,101.859375 35.8039231,105.7725 38.7891538,108.51375 L60.0702308,87.34125 C57.3149231,84.37125 53.3817308,82.5 49,82.5" id="Fill-2650" fill="#4AC3AF"></path>
                <g id="Group-4" transform="translate(33.000000, 45.000000)" fill-opacity="0.55" fill="#000000">
                    <path d="M31.0769231,15 C31.0769231,23.28375 24.3262308,30 16,30 C7.67376923,30 0.923076923,23.28375 0.923076923,15 C0.923076923,6.71625 7.67376923,0 16,0 C24.3262308,0 31.0769231,6.71625 31.0769231,15" id="Fill-2646"></path>
                    <path d="M31.0769231,52.5 C31.0769231,60.78375 24.3262308,67.5 16,67.5 C7.67376923,67.5 0.923076923,60.78375 0.923076923,52.5 C0.923076923,44.21625 7.67376923,37.5 16,37.5 C24.3262308,37.5 31.0769231,44.21625 31.0769231,52.5" id="Fill-2647"></path>
                </g>
            </g>
        </g>
    </g>
</svg>