<svg width="19" height="19" viewBox="0 0 19 19" xmlns="http://www.w3.org/2000/svg">
    <g fill-rule="nonzero" fill="none">
        <path d="M10.964 3.602H2.659c-.481 0-.776.212-.929.667L.674 7.41l-.02.12v.263l.026.138.011.025.488 3.428c.04.292.177.525.412.7l1.68 1.256.328.24c.173.126.406.199.628.208l.42.013.355.005c.055 0 .108 0 .16-.002l.304-.01.15-.008c.214-.015.34.02.443.128l.05.06c.185.251.463.36.782.35l.509-.003.764 1.152c.189.29.468.44.815.434l.95-.001.13-.008c.379-.04.63-.251.76-.635l.312-.938.104.003c.352-.009.634-.152.812-.43l.06-.106 1.113.004.095.002.517.51.762.763c.413.412.919.416 1.331.007l.956-.957c.366-.368.407-.772.122-1.204l-.623-.938.333-.336.125-.119c.244-.224.362-.505.354-.838a24.92 24.92 0 0 1 0-1.167.435.435 0 0 1 .04-.17l.884-1.78a1.05 1.05 0 0 0 .124-.456l.005-.808L18.242 5c-.003-.492-.375-.857-.868-.87h-.341l-.037-.002c-.33-.023-.61.096-.848.337L14.073 6.55a86.56 86.56 0 0 0-.108.11l-.055.053-.049.036-.039.016.036.146a105.31 105.31 0 0 0-.392-1.567c-.111-.434-.43-.68-.88-.686l-.686-.001v-.126c-.003-.572-.364-.929-.936-.929zm-8.365.751h8.365c.16 0 .185.024.186.18l.001.874h1.423c.116.002.14.02.166.124.135.524.265 1.042.39 1.556.063.265.24.414.514.438.342.03.611-.087.859-.341l.586-.595 1.592-1.595c.074-.075.134-.11.206-.116l.236.004.231-.002c.095.003.138.045.138.125l.003 1.296-.005.803c0 .013-.007.04-.02.075l-.216.44-.695 1.4a1.183 1.183 0 0 0-.116.482c-.01.415-.01.814 0 1.202a.31.31 0 0 1-.112.268l-.214.205-.278.284c-.273.279-.304.6-.09.924l.628.945c.077.116.087.14.014.219l-.292.295-.702.701c-.118.117-.15.117-.273-.005l-1.18-1.176a59.759 59.759 0 0 0-.117-.115.734.734 0 0 0-.48-.2l-.507-.005h-.672l-.156-.002c-.225-.003-.41.082-.516.278l-.04.09c-.044.122-.098.167-.23.169l-.074-.003c-.316-.022-.498.022-.623.241l-.057.12-.363 1.087c-.035.102-.049.125-.129.13l-1.015.004c-.085.001-.124-.02-.173-.095l-.721-1.086a27.007 27.007 0 0 1-.068-.104.618.618 0 0 0-.589-.303l-.106.003h-.445c-.088.004-.126-.011-.15-.043-.279-.38-.658-.526-1.149-.493l-.276.014-.294.005-.337-.005-.401-.013a.441.441 0 0 1-.216-.065l-.554-.407-1.447-1.084a.266.266 0 0 1-.117-.2l-.493-3.467-.012-.059-.013-.038V7.59l1.037-3.082c.043-.128.055-.151.158-.155z" fill="#8736C1"/>
        <path d="M17.87 1.635a.375.375 0 0 1 .076.742l-.075.008H1.029a.375.375 0 0 1-.075-.742l.075-.008h16.842z" fill="#FF4722"/>
        <path d="M1.444.735a.375.375 0 0 1 .585.462l-.054.068-.745.745.745.745a.375.375 0 0 1 .054.462l-.054.068a.375.375 0 0 1-.463.054l-.067-.054L.17 2.01 1.444.735zM16.925.735a.375.375 0 0 1 .463-.054l.067.054L18.73 2.01l-1.274 1.275a.375.375 0 0 1-.585-.462l.054-.068.744-.746-.744-.744a.375.375 0 0 1-.054-.462l.054-.068zM1.444 15.647a.375.375 0 0 1 .585.462l-.054.068-.745.745.745.745a.375.375 0 0 1 .054.462l-.054.068a.375.375 0 0 1-.463.054l-.067-.054L.17 16.922l1.274-1.275zM16.925 15.647a.375.375 0 0 1 .463-.054l.067.054 1.275 1.275-1.274 1.275a.375.375 0 0 1-.585-.462l.054-.068.744-.745-.744-.745a.375.375 0 0 1-.054-.462l.054-.068z" fill="#FF4722"/>
        <path d="M17.87 16.547a.375.375 0 0 1 .076.742l-.075.008H1.029a.375.375 0 0 1-.075-.742l.075-.008h16.842z" fill="#FF4722"/>
    </g>
</svg>
