<svg xmlns="http://www.w3.org/2000/svg" xmlns:xlink="http://www.w3.org/1999/xlink" width="71" height="44" viewBox="0 0 71 44">
    <defs>
        <path id="prefix__a" d="M0 0L70.51 0 70.51 44 0 44z"/>
    </defs>
    <g fill="none" fill-rule="evenodd">
        <mask id="prefix__b" fill="#fff">
            <use xlink:href="#prefix__a"/>
        </mask>
        <path fill="#FFF" d="M39.017 2.2h25.985c1.822 0 3.305 1.48 3.305 3.3v33c0 1.82-1.483 3.3-3.305 3.3H5.509c-1.823 0-3.305-1.48-3.305-3.3v-33c0-1.82 1.482-3.3 3.305-3.3H39.017zM29.29 0H5.51C2.47 0 0 2.467 0 5.5v33C0 41.533 2.471 44 5.51 44h59.493c3.037 0 5.508-2.467 5.508-5.5v-33c0-3.033-2.47-5.5-5.508-5.5H28.906h.384z" mask="url(#prefix__b)"/>
        <path fill="#FFF" d="M16.526 17.6c0-1.82 1.483-3.3 3.305-3.3 1.823 0 3.305 1.48 3.305 3.3v1.1c0 1.82-1.482 3.3-3.305 3.3-1.822 0-3.305-1.48-3.305-3.3v-1.1zm3.305 6.6c3.037 0 5.509-2.467 5.509-5.5v-1.1c0-3.033-2.472-5.5-5.509-5.5-3.037 0-5.509 2.467-5.509 5.5v1.1c0 3.033 2.472 5.5 5.509 5.5zM26.441 30.8h-13.22v-2.2c0-.743.854-2.164 2.193-2.164h.354C16.81 27.82 18.263 28.6 19.83 28.6c1.568 0 3.02-.78 4.063-2.164h.354c1.339 0 2.193 1.421 2.193 2.164v2.2zm-2.193-6.564h-.935c-.383 0-.738.198-.938.523-.643 1.043-1.57 1.641-2.544 1.641s-1.9-.598-2.543-1.64c-.2-.326-.556-.524-.939-.524h-.935c-2.476 0-4.397 2.346-4.397 4.364v2.383c0 1.112.907 2.017 2.02 2.017H26.63c1.111 0 2.016-.903 2.016-2.013V28.6c0-.958-.447-2.03-1.195-2.867-.863-.965-2-1.497-3.202-1.497z"/>
        <path fill="#8B88AA" d="M30.848 34.1c0 .606-.494 1.1-1.101 1.1H9.916c-.608 0-1.102-.494-1.102-1.1V9.9c0-.607.494-1.1 1.102-1.1h19.83c.608 0 1.102.493 1.102 1.1v24.2zM29.747 6.6H9.916C8.093 6.6 6.61 8.08 6.61 9.9v24.2c0 1.82 1.483 3.3 3.306 3.3h19.83c1.823 0 3.306-1.48 3.306-3.3V9.9c0-1.82-1.483-3.3-3.305-3.3zM36.357 11h19.83c.61 0 1.103-.492 1.103-1.1 0-.607-.494-1.1-1.102-1.1H36.357c-.609 0-1.102.493-1.102 1.1 0 .608.493 1.1 1.102 1.1M62.798 13.2H36.357c-.609 0-1.102.492-1.102 1.1 0 .607.493 1.1 1.102 1.1h26.441c.609 0 1.102-.493 1.102-1.1 0-.608-.493-1.1-1.102-1.1M40.764 26.4h9.915c.609 0 1.102-.493 1.102-1.1 0-.608-.493-1.1-1.102-1.1h-9.915c-.609 0-1.102.492-1.102 1.1 0 .607.493 1.1 1.102 1.1"/>
        <path fill="#FFF" d="M36.357 24.2c-.29 0-.574.117-.78.322-.205.205-.322.488-.322.778 0 .29.117.573.322.778.206.205.49.322.78.322.29 0 .574-.117.78-.322.205-.205.322-.488.322-.778 0-.29-.117-.573-.323-.778-.205-.205-.489-.322-.78-.322"/>
        <path fill="#8B88AA" d="M58.391 28.6H40.764c-.609 0-1.102.492-1.102 1.1 0 .607.493 1.1 1.102 1.1H58.39c.609 0 1.102-.493 1.102-1.1 0-.608-.493-1.1-1.102-1.1"/>
        <path fill="#FFF" d="M36.357 28.6c-.29 0-.574.117-.78.322-.205.205-.322.488-.322.778 0 .29.117.573.322.778.206.205.49.322.78.322.29 0 .574-.117.78-.322.205-.205.322-.488.322-.778 0-.29-.117-.573-.323-.778-.205-.205-.489-.322-.78-.322"/>
        <path fill="#8B88AA" d="M55.086 33H40.764c-.609 0-1.102.492-1.102 1.1 0 .607.493 1.1 1.102 1.1h14.322c.609 0 1.102-.493 1.102-1.1 0-.608-.493-1.1-1.102-1.1"/>
        <path fill="#FFF" d="M36.357 33c-.29 0-.574.117-.78.322-.205.205-.322.488-.322.778 0 .29.117.573.322.778.206.205.49.322.78.322.29 0 .574-.117.78-.322.205-.205.322-.488.322-.778 0-.29-.117-.573-.323-.778-.205-.205-.489-.322-.78-.322"/>
    </g>
</svg>
