<svg xmlns="http://www.w3.org/2000/svg" xmlns:xlink="http://www.w3.org/1999/xlink" width="60" height="60" viewBox="0 0 60 60">
    <defs>
        <path id="r2mpo017ca" d="M0.001 0.186L35.277 0.186 35.277 30.871 0.001 30.871z"/>
        <path id="5lcw8sj6uc" d="M0.171 0.096L7.268 0.096 7.268 5.482 0.171 5.482z"/>
        <path id="hhekgsi95e" d="M0.249 0.058L4.669 0.058 4.669 4.179 0.249 4.179z"/>
    </defs>
    <g fill="none" fill-rule="evenodd">
        <g>
            <g>
                <g fill="#000" transform="translate(-3154 -875) translate(3154 875)">
                    <circle cx="30" cy="30" r="30"/>
                </g>
                <g>
                    <g transform="translate(-3154 -875) translate(3154 875) translate(13 14) translate(0 .113)">
                        <mask id="gtwicgorzb" fill="#fff">
                            <use xlink:href="#r2mpo017ca"/>
                        </mask>
                        <path fill="#FFF" d="M27.242 24.979H15.305l-7.729 5.74c-.103.102-.23.152-.382.152-.103 0-.205-.025-.306-.076-.205-.102-.307-.28-.307-.536v-5.28H.69c-.459 0-.688-.204-.688-.612V.875c0-.46.23-.69.688-.69h33.976c.408 0 .612.23.612.69v17.83l-.382-.384c-.307-.407-.613-.407-.919 0l-6.734 6.658z" mask="url(#gtwicgorzb)"/>
                    </g>
                    <path fill="#FFF" d="M34.666.3H17.639v24.79h9.603l6.734-6.656c.308-.406.612-.406.92 0l.382.381V.985c0-.456-.203-.686-.612-.686" transform="translate(-3154 -875) translate(3154 875) translate(13 14)"/>
                    <path fill="#DF2C2C" d="M37.002 22.298L34.497 19.812 31.574 22.712 33.662 28.099z" transform="translate(-3154 -875) translate(3154 875) translate(13 14)"/>
                    <g transform="translate(-3154 -875) translate(3154 875) translate(13 14) translate(32.239 22.202)">
                        <mask id="ef2k6mb9bd" fill="#fff">
                            <use xlink:href="#5lcw8sj6uc"/>
                        </mask>
                        <path fill="#D12727" d="M4.763 0.096L0.171 4.654 4.346 5.482 7.268 2.582z" mask="url(#ef2k6mb9bd)"/>
                    </g>
                    <g transform="translate(-3154 -875) translate(3154 875) translate(13 14) translate(19.104 35.635)">
                        <mask id="u76q4q6rgf" fill="#fff">
                            <use xlink:href="#hhekgsi95e"/>
                        </mask>
                        <path fill="#1E1E1E" d="M1.596 0.058L0.249 4.179 4.669 1.45z" mask="url(#u76q4q6rgf)"/>
                    </g>
                    <path fill="#000" d="M19.353 39.814L23.506 38.477 22.938 36.256z" transform="translate(-3154 -875) translate(3154 875) translate(13 14)"/>
                    <path fill="#FEF4B6" d="M26.768 34.112L21.758 32.455 20.7 35.693 22.103 37.085z" transform="translate(-3154 -875) translate(3154 875) translate(13 14)"/>
                    <path fill="#FBED91" d="M22.103 37.085L23.506 38.477 26.768 37.427 25.933 33.284z" transform="translate(-3154 -875) translate(3154 875) translate(13 14)"/>
                    <path fill="#E1C618" d="M24.263 34.941L26.769 37.427 36.585 27.684 34.08 25.198 27.539 28.375z" transform="translate(-3154 -875) translate(3154 875) translate(13 14)"/>
                    <path fill="#F2DA3E" d="M21.757 32.454L31.572 22.713 34.077 25.199 24.262 34.94z" transform="translate(-3154 -875) translate(3154 875) translate(13 14)"/>
                    <path fill="#FAFAFD" d="M17.639.3v24.79h-2.334l-7.729 5.74c-.101.102-.23.153-.382.153-.101 0-.203-.024-.304-.075-.206-.101-.308-.28-.308-.537v-5.28H.69c-.46 0-.69-.204-.69-.613V.986C0 .529.23.299.69.299h16.949z" transform="translate(-3154 -875) translate(3154 875) translate(13 14)"/>
                    <path fill="#807D9C" d="M30.282 6.183H4.932c-.491 0-.89-.398-.89-.889 0-.49.399-.888.89-.888h25.35c.491 0 .889.398.889.888 0 .491-.398.889-.889.889M30.282 11.116H4.932c-.491 0-.89-.397-.89-.888 0-.49.399-.889.89-.889h25.35c.491 0 .889.398.889.889 0 .49-.398.888-.889.888M30.282 16.05H4.932c-.491 0-.89-.397-.89-.888 0-.49.399-.889.89-.889h25.35c.491 0 .889.398.889.889 0 .49-.398.888-.889.888M26.297 20.984H4.931c-.49 0-.888-.397-.888-.889 0-.49.398-.888.888-.888h21.366c.491 0 .889.398.889.888 0 .492-.398.89-.889.89" transform="translate(-3154 -875) translate(3154 875) translate(13 14)"/>
                    <path fill="#8B88AA" d="M30.282 6.183H17.607V4.406h12.675c.491 0 .889.398.889.888 0 .491-.398.889-.889.889M30.282 11.116H17.607V9.34h12.675c.491 0 .889.398.889.889 0 .49-.398.888-.889.888M30.282 16.05H17.607v-1.777h12.675c.491 0 .889.398.889.889 0 .49-.398.888-.889.888M26.297 20.984h-8.69v-1.777h8.69c.491 0 .889.398.889.888 0 .492-.398.89-.889.89" transform="translate(-3154 -875) translate(3154 875) translate(13 14)"/>
                </g>
            </g>
        </g>
    </g>
</svg>
