<svg width="151" height="25" xmlns="http://www.w3.org/2000/svg">
    <g fill-rule="nonzero" fill="none">
        <path fill="#F6F6F6" d="M0 3.122h32.75v18.864H0z"/>
        <path d="M29.92 1H1.886C.943 1 0 1.943 0 2.886v2.83h32.75V3.83c0-1.887-.943-2.83-2.83-2.83z" fill="#1D1A74"/>
        <path d="M0 19.864v1.886c0 1.887.943 2.83 2.83 2.83h27.09c1.887 0 2.83-.943 2.83-2.83v-1.886H0z" fill="#F5A700"/>
        <g fill="#1E1A76">
            <path d="M22.586 8.85a5.627 5.627 0 0 0-1.986-.348c-2.19 0-3.732 1.127-3.746 2.742-.011 1.194 1.102 1.86 1.942 2.257.863.408 1.153.667 1.149 1.031-.005.557-.69.811-1.326.811-.887 0-1.358-.126-2.087-.436l-.285-.132-.31 1.86c.517.232 1.474.432 2.468.443 2.33 0 3.843-1.114 3.86-2.84.008-.945-.582-1.664-1.86-2.256-.775-.384-1.25-.64-1.245-1.03 0-.346.402-.715 1.27-.715.724-.012 1.25.15 1.658.318l.199.096.299-1.8M28.268 8.654h-1.712c-.53 0-.927.148-1.16.69l-3.292 7.614h2.327s.38-1.024.467-1.248l2.839.004c.066.29.27 1.244.27 1.244h2.056l-1.795-8.304zm-2.732 5.356.883-2.323c-.013.022.182-.48.293-.793l.15.717.513 2.399h-1.84zM12.331 16.954l1.386-8.308h2.217l-1.388 8.308zM10.472 8.652l-2.17 5.665-.231-1.15C7.667 11.84 6.409 10.402 5 9.681l1.985 7.267 2.345-.003 3.49-8.292h-2.349"/>
            <path d="M6.29 8.646H2.715l-.03.173c2.78.688 4.621 2.35 5.385 4.347l-.777-3.817c-.134-.527-.523-.684-1.005-.703"/>
        </g>
        <g>
            <path d="M69.594 1H40.937c-.818 0-1.637.943-1.637 1.886V21.75c0 1.887.819 2.83 2.456 2.83h27.838c1.637 0 2.456-.943 2.456-2.83V3.83c0-1.887-.819-2.83-2.456-2.83z" stroke="#D7D7D7" stroke-width=".655" fill="#FFF"/>
            <path fill="#FF5F00" d="M51.651 6.385h7.911v12.786h-7.911z"/>
            <path d="M52.466 12.779a8.087 8.087 0 0 1 3.138-6.392c-3.369-2.62-8.207-2.239-11.114.876a8.068 8.068 0 0 0 0 11.033c2.907 3.115 7.745 3.497 11.114.877a8.087 8.087 0 0 1-3.138-6.394z" fill="#EB001B"/>
            <path d="M68.259 18.235v-.608h.218v-.126h-.52v.126h.206v.608h.096zm1.009 0v-.734h-.158l-.183.524-.183-.524h-.158v.734h.114v-.555l.17.476h.118l.17-.476v.555h.11zM68.9 12.779c0 3.113-1.796 5.953-4.626 7.313a8.289 8.289 0 0 1-8.67-.921 8.1 8.1 0 0 0 3.14-6.393 8.1 8.1 0 0 0-3.14-6.393 8.289 8.289 0 0 1 8.67-.922c2.83 1.36 4.626 4.2 4.626 7.313v.003z" fill="#F79E1B"/>
        </g>
        <g>
            <path d="M111.35 22.559c0 1.116-.867 2.021-1.936 2.021H80.536c-1.07 0-1.936-.905-1.936-2.021V3.02C78.6 1.905 79.467 1 80.536 1h28.878c1.07 0 1.936.905 1.936 2.021V22.56z" fill="#306FC5"/>
            <g fill="#FFF">
                <path d="M83.295 10.58h.979l-.49-1.225zM88.5 14.691v.57h1.645v.612H88.5v.656h1.824l.845-.919-.8-.919zM101.353 9.355l-.534 1.225h1.024zM93.258 16.879v-2.494l-1.156 1.225zM95.438 15.085c-.045-.262-.223-.394-.49-.394h-.934v.788h.979c.267 0 .445-.131.445-.394zM98.551 15.392c.089-.044.134-.176.134-.307.044-.174-.045-.262-.134-.306-.089-.044-.222-.044-.356-.044h-.89v.7h.89c.134 0 .267 0 .356-.043z"/>
                <path d="M104.956 8.217v.525l-.267-.525h-2.09v.525l-.267-.525h-2.847c-.489 0-.89.088-1.245.263v-.263h-2.002v.263c-.222-.175-.489-.263-.845-.263h-7.16l-.49 1.094-.49-1.094H84.987v.525l-.223-.525h-1.957l-.89 2.056-1.022 2.231-.02.044h2.316l.017-.044.267-.656h.578l.267.7h2.579v-.524l.223.524h1.29l.222-.525v.525H94.815v-1.137h.09c.088 0 .088 0 .088.131v.962h3.202v-.262c.267.131.667.262 1.201.262h1.335l.266-.7h.623l.267.7h2.58v-.656l.4.656h2.09V8.217h-2.001zm-15.078 3.675h-.712V9.486l-.044.1-1.035 2.306h-.655l-1.068-2.406v2.406h-1.512l-.311-.656h-1.513l-.31.656h-.783l1.316-3.062h1.112l1.245 2.93V8.83h1.179l.02.044h.002l.561 1.201.403.9.014-.045.89-2.1h1.201v3.062zm3.07-2.406h-1.736v.569h1.69v.612h-1.69v.613h1.735v.656h-2.49V8.83h2.49v.656zm3.171 1.128.004.003a.832.832 0 0 1 .201.565l.001.012v.01c.002.024.002.05.002.076v.612h-.667v-.35c0-.175 0-.437-.133-.612a.405.405 0 0 0-.131-.088c-.067-.043-.193-.043-.403-.043h-.8v1.093h-.757V8.83h1.69c.4 0 .668 0 .89.131.218.129.35.342.355.68a.87.87 0 0 1-.533.807s.148.03.281.166zm1.498 1.278h-.756V8.83h.756v3.062zm8.673 0h-.978l-1.424-2.318v1.924l-.004-.004v.4h-.752v-.002h-.756l-.267-.656h-1.557l-.266.7h-.845c-.356 0-.801-.088-1.068-.35-.267-.263-.4-.613-.4-1.181 0-.438.089-.875.4-1.225.222-.263.623-.35 1.112-.35h.712v.656h-.712c-.267 0-.4.044-.578.175-.133.131-.222.394-.222.7 0 .35.044.569.222.744.133.131.311.175.534.175h.31l1.024-2.406h1.112l1.245 2.93V8.875h1.112l1.29 2.143V8.874h.756v3.018z"/>
                <path d="M95.485 10.105a.466.466 0 0 0 .096-.377.24.24 0 0 0-.006-.04c-.001-.003 0-.006-.002-.01a.247.247 0 0 0-.135-.148c-.09-.044-.223-.044-.356-.044h-.89v.7h.89c.133 0 .267 0 .356-.044a.168.168 0 0 0 .036-.026l.011-.01zM108.914 16.266c0-.306-.089-.612-.222-.83v-1.97h-.002v-.13h-2.142c-.277 0-.614.262-.614.262v-.262h-2.046c-.311 0-.711.087-.89.262v-.262h-3.646v.262c-.267-.219-.757-.263-.979-.263h-2.402v.262c-.222-.218-.756-.262-1.023-.262H92.28l-.623.657-.578-.657h-4.003V17.754h3.914l.643-.633.558.633H94.682v-1.006h.222c.311 0 .712 0 1.023-.132v1.181h2.001V16.66h.09c.133 0 .133 0 .133.131v1.006h6.048c.401 0 .801-.087 1.023-.262v.262h1.913c.4 0 .8-.043 1.068-.218.41-.242.667-.67.706-1.18l.005-.045-.003-.003c.002-.028.003-.056.003-.085zm-14.01-.262h-.89v1.137h-1.462l-.85-.962-.003.003-.042-.047-.978 1.006h-2.847V14.08h2.891l.79.851.166.178.023-.023.934-1.006h2.357c.457 0 .97.111 1.164.57.023.09.037.19.037.305 0 .875-.623 1.05-1.29 1.05zm4.448-.044c.089.131.133.306.133.569v.612h-.756v-.393c0-.176 0-.482-.133-.613-.09-.13-.267-.13-.534-.13h-.8v1.136h-.757v-3.105h1.69c.356 0 .667 0 .89.13.222.132.4.35.4.7a.871.871 0 0 1-.534.832c.223.087.356.175.4.262zm3.069-1.269h-1.735v.57h1.69v.612h-1.69v.612h1.735v.656h-2.49v-3.106h2.49v.656zm1.868 2.45h-1.424v-.656h1.424c.133 0 .222 0 .311-.087a.331.331 0 0 0 .089-.22.33.33 0 0 0-.089-.218c-.044-.043-.134-.087-.267-.087-.712-.044-1.557 0-1.557-.962 0-.438.267-.92 1.068-.92h1.468v.744h-1.38c-.132 0-.222 0-.31.044-.09.044-.09.132-.09.219 0 .131.09.175.178.218.09.044.178.044.267.044h.4c.4 0 .668.088.846.263.133.131.222.35.222.656 0 .656-.4.962-1.156.962zm3.825-.306c-.178.175-.49.306-.934.306h-1.423v-.656h1.423c.133 0 .222 0 .311-.087a.332.332 0 0 0 .089-.22.332.332 0 0 0-.089-.218c-.044-.043-.133-.087-.267-.087-.711-.044-1.557 0-1.557-.962 0-.416.242-.792.839-.903.071-.01.146-.016.229-.016h1.468v.743h-1.379c-.134 0-.222 0-.311.044a.33.33 0 0 0-.09.219c0 .131.045.175.179.218.088.044.177.044.266.044H107.27c.194 0 .341.024.476.07.123.044.53.224.622.692.008.049.014.1.014.157a.882.882 0 0 1-.267.656z"/>
            </g>
        </g>
        <g>
            <path d="M150.65 21.436c0 1.73-1.404 3.144-3.12 3.144H121.02c-1.715 0-3.119-1.415-3.119-3.144V4.144c0-1.73 1.404-3.144 3.119-3.144h26.512c1.715 0 3.119 1.415 3.119 3.144v17.292z" stroke="#D7D7D7" stroke-width=".655" fill="#FFF"/>
            <path d="M150.65 21.436c0 1.73-1.404 3.144-3.12 3.144h-19.493s18.402-2.987 22.613-11.79v8.646zm-17.935-8.646c0 1.336 1.014 2.358 2.34 2.358 1.325 0 2.339-1.022 2.339-2.358s-1.014-2.358-2.34-2.358c-1.325 0-2.339 1.022-2.339 2.358z" fill="#FF6D00"/>
            <path d="M124.294 10.432h.858v4.716h-.858v-4.716zm4.679 2.358c0 1.336 1.013 2.358 2.339 2.358.39 0 .702-.079 1.092-.236V13.89c-.312.315-.624.472-1.092.472-.858 0-1.482-.629-1.482-1.572 0-.865.624-1.572 1.482-1.572.39 0 .702.157 1.092.472v-1.022c-.39-.157-.702-.315-1.092-.315-1.326.079-2.34 1.18-2.34 2.437zm10.448.707-1.247-3.065h-.936l1.95 4.716h.467l1.95-4.716h-.936l-1.248 3.065zm2.574 1.651h2.495v-.786h-1.638v-1.258h1.56v-.786h-1.56v-1.1h1.638v-.786h-2.495v4.716zm5.926-3.301c0-.865-.546-1.415-1.56-1.415h-1.325v4.716h.857v-1.886h.078l1.248 1.886h1.092l-1.404-1.965c.624-.157 1.014-.629 1.014-1.336zm-1.794.786h-.234v-1.415h.234c.546 0 .858.236.858.707 0 .393-.234.708-.858.708zm-24.562-2.201h-1.326v4.716h1.248c1.95 0 2.417-1.65 2.417-2.358.078-1.415-.936-2.358-2.34-2.358zm-.234 3.93h-.234v-3.144h.312c1.17 0 1.637.786 1.637 1.572 0 .314-.078 1.572-1.715 1.572zm6.16-2.122c-.546-.236-.702-.315-.702-.55 0-.315.312-.472.624-.472.234 0 .468.079.702.393l.468-.629c-.39-.393-.78-.55-1.326-.55-.78 0-1.403.55-1.403 1.336 0 .629.311.943 1.091 1.258.468.157.858.314.858.707 0 .393-.312.629-.702.629-.39 0-.78-.236-.936-.629l-.545.55c.39.63.857.865 1.56.865.935 0 1.559-.629 1.559-1.493 0-.708-.312-1.022-1.248-1.415z" fill="#000"/>
        </g>
    </g>
</svg>
