<?xml version="1.0" encoding="UTF-8"?>
<svg width="80px" height="80px" viewBox="0 0 80 80" version="1.1" xmlns="http://www.w3.org/2000/svg" xmlns:xlink="http://www.w3.org/1999/xlink">
    <!-- Generator: Sketch 49.1 (51147) - http://www.bohemiancoding.com/sketch -->
    <title>assets/img_domain_level3</title>
    <desc>Created with Sketch.</desc>
    <defs></defs>
    <g id="Freshness" stroke="none" stroke-width="1" fill="none" fill-rule="evenodd">
        <g id="Freeform-Icons" transform="translate(-160.000000, -1300.000000)">
            <g id="assets/img_domain_level3" transform="translate(160.000000, 1300.000000)">
                <circle id="Oval-11" fill="#353167" cx="40" cy="40" r="40"></circle>
                <g id="logo" transform="translate(18.000000, 18.000000)">
                    <g id="Group" transform="translate(0.450000, 2.700000)">
                        <path d="M11.9635714,1.30530682 C8.19682347,3.85363125 5.28657245,5.85814193 5.28657245,19.741367 C5.28657245,32.1279239 7.56006429,35.3638739 11.9635714,38.0470909 L11.9635714,39.3235036 C1.43467347,33.6335942 0.170081633,23.88969 0.170081633,20.1548536 C0.170081633,6.85594227 9.46588776,1.21097864 11.9635714,0.0738490909 L11.9635714,1.30530682 Z" id="Shape" fill="#EB172B"></path>
                        <path d="M31.8416327,0.0737386364 C34.3438255,1.21082216 43.6396224,6.8558042 43.6396224,20.1547432 C43.6396224,23.8851061 42.3705949,33.6290011 31.8416327,39.3233932 L31.8416327,38.0469805 C36.2496214,35.3638186 38.5186316,32.1278502 38.5186316,19.7457668 C38.5186316,5.85804068 35.6128622,3.85356682 31.8416327,1.30068614 L31.8416327,0.0737386364 Z" id="Shape" fill="#EB172B"></path>
                        <path d="M19.3986735,16.8158864 L20.3582939,16.8158864 C22.1161041,16.8158864 25.3312898,16.645096 25.3312898,12.7888977 C25.3312898,11.6967508 24.8290531,8.96865239 21.6138765,8.96865239 C17.600501,8.96865239 17.600501,12.7888977 17.600501,13.8360989 L12.1521765,13.8360989 C12.1521765,8.25403909 15.2956102,4.27202386 21.9905541,4.27202386 C25.9590857,4.27202386 31.1787276,6.28551818 31.1787276,12.5776902 C31.1787276,15.5979317 29.2998398,17.4900733 27.6092816,18.2451406 L27.6092816,18.3260485 C28.658599,18.6226742 32.0890224,20.1777361 32.0890224,25.2339494 C32.0890224,30.8339765 27.9456061,34.8160653 21.9591551,34.8160653 C19.1520367,34.8160653 11.6185224,34.1913436 11.6185224,24.9013892 L17.3538367,24.9013892 L17.3089286,24.9418892 C17.3089286,26.5284123 17.7304408,30.1239378 21.663101,30.1239378 C24.0083357,30.1239378 26.0621173,28.5374148 26.0621173,25.2340231 C26.0621173,21.1845569 22.1249755,21.0182676 19.3985724,21.0182676 L19.3986735,16.8158864 Z" id="Shape" fill="#FFFFFF"></path>
                    </g>
                    <rect id="Rectangle-261" x="0" y="0" width="45" height="45"></rect>
                </g>
            </g>
        </g>
    </g>
</svg>