<?xml version="1.0" encoding="UTF-8"?>
<svg width="200px" height="200px" viewBox="0 0 200 200" version="1.1" xmlns="http://www.w3.org/2000/svg" xmlns:xlink="http://www.w3.org/1999/xlink">
    <!-- Generator: Sketch 48.1 (47250) - http://www.bohemiancoding.com/sketch -->
    <title>assets/img_ucc_filings</title>
    <desc>Created with Sketch.</desc>
    <defs></defs>
    <g id="Circular-Icons" stroke="none" stroke-width="1" fill="none" fill-rule="evenodd" transform="translate(-1000.000000, -1000.000000)">
        <g id="assets/img_ucc_filings" transform="translate(1000.000000, 1000.000000)">
            <circle id="background" fill="#353167" cx="100" cy="100" r="100"></circle>
            <g id="Group" transform="translate(45.000000, 40.000000)">
                <path d="M0,7.2001875 C0,3.2233125 3.223125,0.0001875 7.2,0.0001875 L60,0.0001875 L90,25.2001875 L90,112.800188 C90,116.777062 86.776875,120.000187 82.8,120.000187 L7.2,120.000187 C3.223125,120.000187 0,116.777062 0,112.800188 L0,7.2001875 Z" id="Fill-2763" fill="#FFFFFF"></path>
                <path d="M60,0 L60,18 C60,21.976875 63.223125,25.2 67.2,25.2 L90,25.2 L60,0 Z" id="Fill-2764" fill="#EBEAF4"></path>
                <path d="M52.5,33.75 C52.5,34.785 51.66,35.625 50.625,35.625 L16.875,35.625 C15.84,35.625 15,34.785 15,33.75 C15,32.715 15.84,31.875 16.875,31.875 L50.625,31.875 C51.66,31.875 52.5,32.715 52.5,33.75" id="Fill-2765" fill="#EBEAF4"></path>
                <path d="M75,48.75 C75,49.785 74.16,50.625 73.125,50.625 L16.875,50.625 C15.84,50.625 15,49.785 15,48.75 C15,47.715 15.84,46.875 16.875,46.875 L73.125,46.875 C74.16,46.875 75,47.715 75,48.75" id="Fill-2766" fill="#EBEAF4"></path>
                <path d="M75,63.75 C75,64.785 74.16,65.625 73.125,65.625 L16.875,65.625 C15.84,65.625 15,64.785 15,63.75 C15,62.715 15.84,61.875 16.875,61.875 L73.125,61.875 C74.16,61.875 75,62.715 75,63.75" id="Fill-2767" fill="#EBEAF4"></path>
                <path d="M75,78.75 C75,79.785 74.16,80.625 73.125,80.625 L16.875,80.625 C15.84,80.625 15,79.785 15,78.75 C15,77.715 15.84,76.875 16.875,76.875 L73.125,76.875 C74.16,76.875 75,77.715 75,78.75" id="Fill-2768" fill="#EBEAF4"></path>
                <path d="M90,69.375 L90,58.9125 C90,55.28625 91.494375,51.894375 93.864375,49.149375 C96.6075,45.973125 98.038125,41.63625 97.3125,36.969375 C96.290625,30.4125 90.804375,25.198125 84.21,24.470625 C75.159375,23.469375 67.5,30.526875 67.5,39.375 C67.5,43.14375 68.893125,46.5825 71.191875,49.215 C73.55625,51.9225 75,55.310625 75,58.906875 L75,69.3825 C75,74.743125 71.3175,80.338125 65.95875,80.41125 C50.625,80.625 45,91.875 45,106.875 L120,106.875 C120,91.875 114.375,80.625 99.06,80.4075 C93.695625,80.330625 90,74.739375 90,69.375" id="Fill-2769" fill="#DC0015"></path>
                <path d="M116.25,110.625 C116.25,112.695 114.571875,114.375 112.5,114.375 L52.5,114.375 C50.428125,114.375 48.75,112.695 48.75,110.625 L48.75,106.875 L116.25,106.875 L116.25,110.625 Z" id="Fill-2770" fill="#F2DA3E"></path>
                <path d="M90,58.9123125 C90,55.2841875 91.494375,51.8960625 93.864375,49.1491875 C96.605625,45.9729375 98.04,41.6379375 97.3125,36.9673125 C96.2925,30.4123125 90.804375,25.1998125 84.21,24.4704375 C75.159375,23.4691875 67.5,30.5266875 67.5,39.3748125 C67.5,43.1435625 68.893125,46.5823125 71.191875,49.2148125 C73.558125,51.9223125 75,55.3104375 75,58.9066875 L75,69.3823125 C75,74.7410625 71.3175,80.3379375 65.95875,80.4129375 C50.625,80.6248125 45,91.8748125 45,106.874812 L54.725625,106.874812 L90.17625,71.4223125 C90.061875,70.7454375 90,70.0573125 90,69.3748125 L90,58.9123125 Z" id="Fill-2771" fill="#E7114C"></path>
            </g>
        </g>
    </g>
</svg>