<svg width="73" height="29" xmlns="http://www.w3.org/2000/svg">
    <g fill-rule="nonzero" fill="none">
        <path d="M9.359 6.327C4.254 6.327 0 8.493 0 15.027c0 5.176 2.86 8.436 9.49 8.436 7.805 0 8.305-5.14 8.305-5.14h-3.781s-.811 2.767-4.754 2.767c-3.211 0-5.521-2.169-5.521-5.21H18.19v-1.908c0-3.008-1.91-7.645-8.831-7.645zm-.132 2.439c3.057 0 5.14 1.872 5.14 4.68H3.824c0-2.98 2.72-4.68 5.404-4.68z" fill="#E53238"/>
        <path d="M18.188 0v20.182c0 1.145-.082 2.754-.082 2.754h3.607s.13-1.155.13-2.211c0 0 1.781 2.788 6.626 2.788 5.103 0 8.568-3.543 8.568-8.618 0-4.721-3.183-8.518-8.56-8.518-5.034 0-6.598 2.718-6.598 2.718V0h-3.691zm9.359 8.873c3.465 0 5.668 2.571 5.668 6.022 0 3.7-2.545 6.121-5.644 6.121-3.698 0-5.692-2.887-5.692-6.088 0-2.982 1.79-6.055 5.668-6.055z" fill="#0064D2"/>
        <path d="M46 6.327c-7.68 0-8.172 4.205-8.172 4.877h3.823s.2-2.455 4.086-2.455c2.525 0 4.482 1.156 4.482 3.378v.79h-4.482c-5.95 0-9.095 1.741-9.095 5.273 0 3.477 2.906 5.368 6.834 5.368 5.352 0 7.077-2.958 7.077-2.958 0 1.177.09 2.336.09 2.336h3.399s-.132-1.437-.132-2.356v-7.946c0-5.21-4.203-6.307-7.91-6.307zm4.219 8.964v1.054c0 1.375-.849 4.795-5.845 4.795-2.736 0-3.91-1.366-3.91-2.95 0-2.88 3.951-2.9 9.755-2.9z" fill="#F5AF02"/>
        <path fill="#86B817" d="M51.851 6.987h4.3l6.173 12.365L68.48 6.987h3.896L61.16 29h-4.087l3.237-6.136z"/>
    </g>
</svg>
