<?xml version="1.0" encoding="UTF-8"?>
<svg width="61px" height="60px" viewBox="0 0 61 60" version="1.1" xmlns="http://www.w3.org/2000/svg" xmlns:xlink="http://www.w3.org/1999/xlink">
    <!-- Generator: sketchtool 63.1 (101010) - https://sketch.com -->
    <title>6B1A8CE5-7E4F-4A00-9F8D-49915CA741C6</title>
    <desc>Created with sketchtool.</desc>
    <defs>
        <polygon id="path-1" points="0 0.146800678 48.7239722 0.146800678 48.7239722 48.8611058 0 48.8611058"></polygon>
    </defs>
    <g id="property-final" stroke="none" stroke-width="1" fill="none" fill-rule="evenodd">
        <g id="Property-report-update_768" transform="translate(-353.000000, -7599.000000)">
            <g id="neightborhood-saftey_dark" transform="translate(354.000000, 7599.000000)">
                <g id="Group-26" transform="translate(2.400000, 1.200000)">
                    <path d="M46.0314305,30.1010156 C46.0314305,29.7183173 46.2417153,29.5269681 46.6632814,29.5269681 L51.5456746,29.5269681 L51.5456746,34.4093614 C51.5456746,34.8309275 51.3533288,35.0412122 50.9716271,35.0412122 C50.5490644,35.0412122 50.3397763,34.8309275 50.3397763,34.4093614 L50.3397763,30.7338631 L46.6632814,30.7338631 C46.2417153,30.7338631 46.0314305,30.5235783 46.0314305,30.1010156 M52.8093763,46.2251715 L52.8093763,58.4585614 L44.1936814,58.4585614 L44.1936814,49.9006698 L39.3112881,49.9006698 L39.3112881,58.4585614 L30.7524,58.4585614 L30.7524,45.5923241 C30.7524,45.1717546 30.9437492,44.9604732 31.3274441,44.9604732 C31.7480136,44.9604732 31.9592949,45.1717546 31.9592949,45.5923241 L31.9592949,57.2526631 L38.1053898,57.2526631 L38.1053898,48.6369681 L45.4573831,48.6369681 L45.4573831,57.2526631 L51.5456746,57.2526631 L51.5456746,46.2251715 C51.5456746,45.8036054 51.7559593,45.5923241 52.1775254,45.5923241 C52.5980949,45.5923241 52.8093763,45.8036054 52.8093763,46.2251715" id="Fill-1" fill="#FFFFFF"></path>
                    <path d="M46.663082,29.7759214 C46.3411769,29.7759214 46.2803837,29.8895349 46.2803837,30.1008163 C46.2803837,30.3838536 46.3810414,30.4845112 46.663082,30.4845112 L50.5877329,30.4845112 L50.5877329,34.409162 C50.5877329,34.6921993 50.6883905,34.7918603 50.9714278,34.7918603 C51.1817125,34.7918603 51.2963227,34.7310671 51.2963227,34.409162 L51.2963227,29.7759214 L46.663082,29.7759214 Z M50.9714278,35.2901654 C50.4113329,35.2901654 50.0894278,34.9692569 50.0894278,34.409162 L50.0894278,30.9828163 L46.663082,30.9828163 C46.1029871,30.9828163 45.7820786,30.6619078 45.7820786,30.1008163 C45.7820786,29.5775959 46.1029871,29.2776163 46.663082,29.2776163 L51.7946278,29.2776163 L51.7946278,34.409162 C51.7946278,34.9692569 51.4946481,35.2901654 50.9714278,35.2901654 L50.9714278,35.2901654 Z M44.4426346,58.2092095 L52.5600244,58.2092095 L52.5600244,46.2249722 C52.5600244,45.9419349 52.4593668,45.8412773 52.1773261,45.8412773 C51.8952854,45.8412773 51.7946278,45.9419349 51.7946278,46.2249722 L51.7946278,57.5016163 L45.2080312,57.5016163 L45.2080312,48.8859214 L38.3543431,48.8859214 L38.3543431,57.5016163 L31.7099431,57.5016163 L31.7099431,45.5921247 C31.7099431,45.3100841 31.610282,45.2094264 31.3272447,45.2094264 C31.1159634,45.2094264 31.0023498,45.2712163 31.0023498,45.5921247 L31.0023498,58.2092095 L39.0619363,58.2092095 L39.0619363,49.651318 L44.4426346,49.651318 L44.4426346,58.2092095 Z M53.0583295,58.7075146 L43.9443295,58.7075146 L43.9443295,50.1496231 L39.5602414,50.1496231 L39.5602414,58.7075146 L30.5040447,58.7075146 L30.5040447,45.5921247 C30.5040447,45.0330264 30.8040244,44.7111214 31.3272447,44.7111214 C31.8873397,44.7111214 32.2082481,45.0330264 32.2082481,45.5921247 L32.2082481,57.0033112 L37.856038,57.0033112 L37.856038,48.3876163 L45.7063363,48.3876163 L45.7063363,57.0033112 L51.2963227,57.0033112 L51.2963227,46.2249722 C51.2963227,45.6638807 51.6172312,45.3429722 52.1773261,45.3429722 C52.737421,45.3429722 53.0583295,45.6638807 53.0583295,46.2249722 L53.0583295,58.7075146 Z" id="Fill-3" fill="#FFFFFF"></path>
                    <path d="M56.3128597,44.4234 C56.1593817,44.5380102 56.0059037,44.5958136 55.8534224,44.5958136 C55.6999444,44.5958136 55.5464664,44.5380102 55.3939851,44.4234 L41.7812868,30.7528983 L28.1107851,44.4234 C27.8426969,44.6924847 27.5556732,44.6924847 27.2487173,44.4234 C26.942758,44.1553119 26.942758,43.8682881 27.2487173,43.5623288 L41.3218495,29.4323898 C41.588941,29.1254339 41.8759647,29.1254339 42.1829207,29.4323898 L56.3128597,43.5623288 C56.618819,43.8682881 56.618819,44.1553119 56.3128597,44.4234" id="Fill-5" fill="#8B88AA"></path>
                    <path d="M27.695398,44.8730705 C27.4920895,44.8730705 27.283798,44.7853688 27.0844759,44.6099654 C26.8841573,44.4355586 26.7785166,44.2392264 26.7705437,44.0289417 C26.7635675,43.8106841 26.8652217,43.5944197 27.0725166,43.3861281 L41.1446522,29.2561892 C41.3100895,29.0668332 41.5054251,28.9611925 41.7147132,28.9532197 C41.9349641,28.9382705 42.1502319,29.046901 42.35952,29.2561892 L56.489459,43.3861281 C56.6967539,43.5944197 56.7984081,43.8106841 56.7914319,44.0289417 C56.783459,44.2392264 56.6788149,44.4355586 56.4765031,44.610962 L56.4625505,44.6229214 C56.0678929,44.9169214 55.6353641,44.9159247 55.2436963,44.6229214 L41.7804895,31.1058976 L28.2863878,44.5999993 C28.1050047,44.7813824 27.9026929,44.8730705 27.695398,44.8730705" id="Fill-7" fill="#8B88AA"></path>
                    <path d="M41.7374359,29.4518237 L41.7324529,29.4518237 C41.6497342,29.4548136 41.5650224,29.5315525 41.5092122,29.5963322 L27.4261139,43.7382305 C27.3523647,43.8109831 27.2656597,43.9186169 27.2685743,44.0122983 C27.2716393,44.0950169 27.3483783,44.1797288 27.413158,44.235539 C27.6513478,44.4458237 27.7848936,44.3979864 27.9343851,44.2474983 L41.7812868,30.4005966 L41.9576868,30.5769966 L55.5703851,44.2474983 C55.7318359,44.3641017 55.9401275,44.3890169 56.1553953,44.2295593 C56.2181817,44.1727525 56.2909342,44.0920271 56.2930027,44.0122983 C56.2959173,43.9186169 56.2092122,43.8109831 56.1364597,43.7382305 L42.0075173,29.6082915 C41.9347647,29.5365356 41.8301207,29.4518237 41.7374359,29.4518237" id="Fill-9" fill="#8B88AA"></path>
                    <g id="Group-13" transform="translate(0.000000, 1.901034)">
                        <mask id="mask-2" fill="white">
                            <use xlink:href="#path-1"></use>
                        </mask>
                        <g id="Clip-12"></g>
                        <path d="M24.3668197,48.8611058 C10.931518,48.8611058 -0.000298983051,37.9342719 -0.000298983051,24.5039532 C-0.000298983051,11.0736346 10.931518,0.146800678 24.3668197,0.146800678 C37.7971383,0.146800678 48.7239722,11.0736346 48.7239722,24.5039532 C48.7239722,25.054082 48.2774908,25.5005634 47.727362,25.5005634 C47.1772332,25.5005634 46.7307519,25.054082 46.7307519,24.5039532 C46.7307519,12.1728956 36.6988739,2.14002102 24.3668197,2.14002102 C12.0297824,2.14002102 1.99292136,12.1728956 1.99292136,24.5039532 C1.99292136,36.8360075 12.0297824,46.8678854 24.3668197,46.8678854 C24.9169485,46.8678854 25.3634298,47.3133702 25.3634298,47.8644956 C25.3634298,48.415621 24.9169485,48.8611058 24.3668197,48.8611058" id="Fill-11" fill="#FFFFFF" mask="url(#mask-2)"></path>
                    </g>
                    <path d="M24.3668197,42.4496136 C15.5139315,42.4496136 8.31142983,35.2510983 8.31142983,26.4041898 C8.31142983,17.5572814 15.5139315,10.3597627 24.3668197,10.3597627 C33.2137281,10.3597627 40.4122434,17.5572814 40.4122434,26.4041898 C40.4122434,26.9553153 39.965762,27.4008 39.4156332,27.4008 C38.8655044,27.4008 38.4190231,26.9553153 38.4190231,26.4041898 C38.4190231,18.6565424 32.1154637,12.3529831 24.3668197,12.3529831 C16.6131925,12.3529831 10.3046502,18.6565424 10.3046502,26.4041898 C10.3046502,34.1528339 16.6131925,40.4563932 24.3668197,40.4563932 C24.9169485,40.4563932 25.3634298,40.901878 25.3634298,41.4530034 C25.3634298,42.0041288 24.9169485,42.4496136 24.3668197,42.4496136" id="Fill-14" fill="#FFFFFF"></path>
                    <path d="M24.3668197,35.045099 C19.6020264,35.045099 15.7262095,31.1682854 15.7262095,26.4044888 C15.7262095,21.6406922 19.6020264,17.7638786 24.3668197,17.7638786 C29.1256332,17.7638786 32.9974637,21.6406922 32.9974637,26.4044888 C32.9974637,26.9556142 32.5509824,27.401099 32.0008536,27.401099 C31.4507247,27.401099 31.0042434,26.9556142 31.0042434,26.4044888 C31.0042434,22.7389566 28.0263722,19.757099 24.3668197,19.757099 C20.7012875,19.757099 17.7194298,22.7389566 17.7194298,26.4044888 C17.7194298,30.070021 20.7012875,33.0518786 24.3668197,33.0518786 C24.9169485,33.0518786 25.3634298,33.4973634 25.3634298,34.0484888 C25.3634298,34.5996142 24.9169485,35.045099 24.3668197,35.045099" id="Fill-16" fill="#FFFFFF"></path>
                    <path d="M25.5143166,18.7606881 C25.5143166,20.4419695 24.1509539,21.8053322 22.4696725,21.8053322 C20.7893878,21.8053322 19.4260251,20.4419695 19.4260251,18.7606881 C19.4260251,17.0794068 20.7893878,15.7160441 22.4696725,15.7160441 C24.1509539,15.7160441 25.5143166,17.0794068 25.5143166,18.7606881" id="Fill-18" fill="#8B88AA"></path>
                    <path d="M19.7672644,49.2506807 C19.7672644,50.931962 18.4039017,52.2953247 16.7226203,52.2953247 C15.041339,52.2953247 13.6789729,50.931962 13.6789729,49.2506807 C13.6789729,47.5693993 15.041339,46.2060366 16.7226203,46.2060366 C18.4039017,46.2060366 19.7672644,47.5693993 19.7672644,49.2506807" id="Fill-20" fill="#8B88AA"></path>
                    <path d="M13.4625092,28.9516251 C13.4625092,30.6329064 12.0991464,31.9962692 10.4178651,31.9962692 C8.73658373,31.9962692 7.37421763,30.6329064 7.37421763,28.9516251 C7.37421763,27.2703437 8.73658373,25.9079776 10.4178651,25.9079776 C12.0991464,25.9079776 13.4625092,27.2703437 13.4625092,28.9516251" id="Fill-22" fill="#8B88AA"></path>
                    <path d="M33.7061532,3.04464407 C33.7061532,4.72592542 32.3427905,6.08829153 30.6615092,6.08829153 C28.9802278,6.08829153 27.6178617,4.72592542 27.6178617,3.04464407 C27.6178617,1.36336271 28.9802278,0 30.6615092,0 C32.3427905,0 33.7061532,1.36336271 33.7061532,3.04464407" id="Fill-24" fill="#8B88AA"></path>
                </g>
            </g>
        </g>
    </g>
</svg>