<?xml version="1.0" encoding="UTF-8"?>
<svg width="80px" height="80px" viewBox="0 0 80 80" version="1.1" xmlns="http://www.w3.org/2000/svg" xmlns:xlink="http://www.w3.org/1999/xlink">
    <!-- Generator: Sketch 49.1 (51147) - http://www.bohemiancoding.com/sketch -->
    <title>assets/img_domain_centurylink</title>
    <desc>Created with Sketch.</desc>
    <defs></defs>
    <g id="Freshness" stroke="none" stroke-width="1" fill="none" fill-rule="evenodd">
        <g id="Freeform-Icons" transform="translate(-240.000000, -1300.000000)">
            <g id="assets/img_domain_centurylink" transform="translate(240.000000, 1300.000000)">
                <circle id="Oval-11" fill="#353167" cx="40" cy="40" r="40"></circle>
                <g id="logo" transform="translate(18.000000, 18.000000)">
                    <g id="Pathways" transform="translate(0.111940, 0.268657)">
                        <path d="M3.97505597,35.1055584 C5.44723881,37.188806 7.27164179,39.0126608 9.3573694,40.4847144 L16.711791,27.7582604 L3.97505597,35.1055584" id="Shape" fill="#8DC643"></path>
                        <path d="M9.3573694,4.09840453 C7.27164179,5.56721565 5.44561567,7.39269171 3.97505597,9.47431806 L16.711791,16.8167524 L9.3573694,4.09840453" id="Shape" fill="#8DC643"></path>
                        <path d="M31.5504851,2.09459599 C29.2748507,1.03757077 26.8028172,0.361528564 24.1944403,0.129696346 L24.1944403,14.8161863 L31.5504851,2.09459599" id="Shape" fill="#8DC643"></path>
                        <path d="M12.8276306,42.4852805 C15.1048881,43.5406845 17.5785448,44.2215903 20.1836754,44.456665 L20.1836754,29.7636902 L12.8276306,42.4852805" id="Shape" fill="#8DC643"></path>
                        <path d="M40.406306,9.47431806 C38.9325,7.39269171 37.1097201,5.56559444 35.0223694,4.09840453 L27.6695709,16.8183736 L40.406306,9.47431806" id="Shape" fill="#8DC643"></path>
                        <path d="M35.0207463,40.4863356 C37.1097201,39.014282 38.9325,37.1904272 40.406306,35.1071796 L27.6679478,27.7615028 L35.0207463,40.4863356" id="Shape" fill="#8DC643"></path>
                        <path d="M44.3797388,20.2877509 C44.1443843,17.6840968 43.464291,15.2068966 42.4141231,12.9404529 L29.6725187,20.2877509 L44.3797388,20.2877509" id="Shape" fill="#118745"></path>
                        <path d="M0,24.2921256 C0.236977612,26.9006433 0.913824627,29.3713587 1.96399254,31.63456 L14.7072201,24.2921256 L0,24.2921256" id="Shape" fill="#118745"></path>
                        <path d="M1.96399254,12.9404529 C0.913824627,15.2068966 0.233731343,17.6840968 0,20.2877509 L14.7072201,20.2877509 L1.96399254,12.9404529" id="Shape" fill="#118745"></path>
                        <path d="M29.6725187,24.2921256 L42.4141231,31.63456 C43.4659142,29.3713587 44.1476306,26.9006433 44.3797388,24.2921256 L29.6725187,24.2921256" id="Shape" fill="#118745"></path>
                        <path d="M20.1836754,0.129696346 C17.5785448,0.35990736 15.1048881,1.03757077 12.8276306,2.09459599 L20.1836754,14.8161863 L20.1836754,0.129696346" id="Shape" fill="#118745"></path>
                        <path d="M24.1944403,44.456665 C26.801194,44.2215903 29.2732276,43.5423057 31.5504851,42.4852805 L24.1944403,29.7636902 L24.1944403,44.456665" id="Shape" fill="#118745"></path>
                    </g>
                </g>
            </g>
        </g>
    </g>
</svg>