<?xml version="1.0" encoding="UTF-8" standalone="no"?>
<svg width="150px" height="150px" viewBox="0 0 150 150" version="1.1" xmlns="http://www.w3.org/2000/svg" xmlns:xlink="http://www.w3.org/1999/xlink">
    <!-- Generator: Sketch 39.1 (31720) - http://www.bohemiancoding.com/sketch -->
    <title>assets/img_property_no_bg</title>
    <desc>Created with Sketch.</desc>
    <defs></defs>
    <g id="Freshness" stroke="none" stroke-width="1" fill="none" fill-rule="evenodd">
        <g id="assets/img_property_no_bg">
            <polygon id="Fill-1437" fill="#FFFFFF" points="38.5630252 44.53125 38.5630252 103.717969 132.470588 103.717969 132.470588 44.53125 85.5168067 9.375"></polygon>
            <path d="M132.400821,46.2827217 L139.584749,46.2827217 C140.58956,46.2827217 141.48403,45.642878 141.805663,44.6936592 C142.129644,43.7444405 141.812706,42.6920967 141.014492,42.080378 L86.8509571,0.485846738 C86.0198751,-0.151653262 84.8648121,-0.163372012 84.0219917,0.460065488 L27.7760568,42.0545967 C26.9614087,42.6569405 26.6256892,43.7139717 26.9426272,44.6725655 C27.2595652,45.633503 28.1587302,46.2827217 29.1729318,46.2827217 L38.4932575,46.2827217 L85.447039,11.1264717 L132.400821,46.2827217 Z" id="Fill-1438" fill="#DF2C2C"></path>
            <path d="M104.298319,91.40625 C104.298319,81.0515625 95.8888971,72.65625 85.5168067,72.65625 C75.1447164,72.65625 66.7352941,81.0515625 66.7352941,91.40625 L66.7352941,103.717969 L104.298319,103.717969 L104.298319,91.40625 Z" id="Fill-1439" fill="#84462D"></path>
            <polygon id="Fill-1440" fill="#40C9E7" points="73.7783613 65.625 54.9968487 65.625 54.9968487 46.875 73.7783613 46.875"></polygon>
            <polygon id="Fill-1441" fill="#40C9E7" points="116.036765 65.625 97.2552521 65.625 97.2552521 46.875 116.036765 46.875"></polygon>
            <path d="M149.331691,95.1457699 C148.049853,91.9442074 144.582316,90.1957699 141.239207,91.0676449 L96.3936502,103.180145 C94.4568067,103.684051 92.4659664,103.937176 90.468083,103.937176 L51.219417,103.937176 L77.7694328,95.1035824 C79.9480882,94.3793636 81.7041597,92.7457699 82.5821954,90.6270199 C83.4625788,88.5082699 83.378062,86.1129574 82.3497742,84.0621761 C80.6383088,80.6426449 76.7200158,78.9340511 73.0435347,80.0051449 L31.5035242,92.1012386 C26.1460977,93.6621761 21.7606145,97.5176449 19.5373529,102.624676 L5.69537815,134.405926 L48.1862027,134.405926 C50.8085714,131.499676 54.5578309,129.718426 58.6357668,129.718426 L83.800646,129.718426 C87.0874107,129.718426 90.3342647,129.031707 93.3346113,127.700457 L145.753813,103.937176 C149.120399,102.444207 150.700394,98.5606136 149.331691,95.1457699" id="Fill-1442" fill="#F8B4B4"></path>
            <path d="M1,138.28125 C1,136.9875 2.05176471,135.9375 3.34768908,135.9375 L52.9567069,135.9375 C53.8230042,135.9375 54.6188708,136.413281 55.0273687,137.175 C55.4358666,137.936719 55.3912605,138.8625 54.9099842,139.582031 L48.6510452,148.957031 C48.214375,149.608594 47.481896,150 46.6977679,150 L3.34768908,150 C2.05176471,150 1,148.95 1,147.65625 L1,138.28125 Z" id="Fill-1443" fill="#FFFFFF"></path>
            <path d="M38.5630252,141.796875 C38.5630252,143.7375 40.1383246,145.3125 42.0845588,145.3125 C44.0307931,145.3125 45.6060924,143.7375 45.6060924,141.796875 C45.6060924,139.85625 44.0307931,138.28125 42.0845588,138.28125 C40.1383246,138.28125 38.5630252,139.85625 38.5630252,141.796875" id="Fill-1444" fill="#FACB1B"></path>
            <path d="M76.9547847,79.8772577 C75.6940756,79.6006952 74.3558929,79.6147577 73.0458824,79.996789 L31.5035242,92.0928827 C26.1484454,93.6538202 21.7629622,97.509289 19.5373529,102.61632 L5.69537815,134.39757 L22.3428414,134.39757 L52.8627994,103.92882 L51.2217647,103.92882 L53.6821429,103.110851 L76.9547847,79.8772577 Z" id="Fill-1445" fill="#FBC8C8"></path>
        </g>
    </g>
</svg>