<?xml version="1.0" encoding="UTF-8"?>
<svg width="80px" height="80px" viewBox="0 0 80 80" version="1.1" xmlns="http://www.w3.org/2000/svg" xmlns:xlink="http://www.w3.org/1999/xlink">
    <!-- Generator: Sketch 49.1 (51147) - http://www.bohemiancoding.com/sketch -->
    <title>assets/img_domain_other</title>
    <desc>Created with Sketch.</desc>
    <defs></defs>
    <g id="Freshness" stroke="none" stroke-width="1" fill="none" fill-rule="evenodd">
        <g id="Freeform-Icons" transform="translate(-560.000000, -1300.000000)">
            <g id="assets/img_domain_other" transform="translate(560.000000, 1300.000000)">
                <circle id="Oval-7" fill="#353167" cx="40" cy="40" r="40"></circle>
                <g id="Group" transform="translate(18.000000, 18.000000)">
                    <path d="M39.375,0 C42.4828125,0 45,2.5171875 45,5.625 L45,39.375 C45,42.4828125 42.4828125,45 39.375,45 L5.625,45 C2.5171875,45 0,42.4828125 0,39.375 L0,5.625 C0,2.5171875 2.5171875,0 5.625,0 L39.375,0 Z" id="Fill-6259" fill="#FFFFFF"></path>
                    <path d="M39.375,0 L5.625,0 C2.51859375,0 0,2.51789063 0,5.625 L0,8.4375 L45,8.4375 L45,5.625 C45,2.51789063 42.4814063,0 39.375,0" id="Fill-6260" fill="#8B88AA"></path>
                    <polygon id="Fill-6261" fill="#8B88AA" points="15.46875 22.5 5.625 22.5 5.625 12.65625 15.46875 12.65625"></polygon>
                    <polygon id="Fill-6262" fill="#8B88AA" points="15.46875 26.71875 5.625 26.71875 5.625 25.3125 15.46875 25.3125"></polygon>
                    <polygon id="Fill-6263" fill="#8B88AA" points="15.46875 30.234375 5.625 30.234375 5.625 28.828125 15.46875 28.828125"></polygon>
                    <polygon id="Fill-6264" fill="#8B88AA" points="15.46875 33.75 5.625 33.75 5.625 32.34375 15.46875 32.34375"></polygon>
                    <polygon id="Fill-6265" fill="#8B88AA" points="11.953125 37.265625 5.625 37.265625 5.625 35.859375 11.953125 35.859375"></polygon>
                    <path d="M13.359375,16.875 C13.359375,18.4282031 12.1000781,19.6875 10.546875,19.6875 C8.99367188,19.6875 7.734375,18.4282031 7.734375,16.875 C7.734375,15.3217969 8.99367188,14.0625 10.546875,14.0625 C12.1000781,14.0625 13.359375,15.3217969 13.359375,16.875" id="Fill-6266" fill="#EBEAF4"></path>
                    <path d="M15.46875,22.5 L15.46875,21.2695312 C14.765625,20.4785156 13.359375,19.6875 10.546875,19.6875 C7.734375,19.6875 6.328125,20.4785156 5.625,21.2695312 L5.625,22.5 L15.46875,22.5 Z" id="Fill-6267" fill="#EBEAF4"></path>
                    <polygon id="Fill-6269" fill="#EBEAF4" points="39.375 22.5 19.6875 22.5 19.6875 12.65625 39.375 12.65625"></polygon>
                    <polygon id="Fill-6270" fill="#EBEAF4" points="39.375 30.9375 19.6875 30.9375 19.6875 26.015625 39.375 26.015625"></polygon>
                    <polygon id="Fill-6271" fill="#EBEAF4" points="39.375 40.078125 19.6875 40.078125 19.6875 33.75 39.375 33.75"></polygon>
                </g>
            </g>
        </g>
    </g>
</svg>