<?xml version="1.0" encoding="UTF-8"?>
<svg width="200px" height="200px" viewBox="0 0 200 200" version="1.1" xmlns="http://www.w3.org/2000/svg" xmlns:xlink="http://www.w3.org/1999/xlink">
    <!-- Generator: Sketch 48.1 (47250) - http://www.bohemiancoding.com/sketch -->
    <title>assets/img_liens</title>
    <desc>Created with Sketch.</desc>
    <defs></defs>
    <g id="Circular-Icons" stroke="none" stroke-width="1" fill="none" fill-rule="evenodd" transform="translate(0.000000, -750.000000)">
        <g id="assets/img_liens" transform="translate(0.000000, 750.000000)">
            <circle id="background" fill="#353167" cx="100" cy="100" r="100"></circle>
            <g id="Group" transform="translate(40.000000, 45.000000)">
                <g id="House" transform="translate(0.000000, 0.958333)">
                    <polygon id="Fill-2263" fill="#FFFFFF" points="107.82927 100.736806 7.18861802 100.736806 7.18861802 43.1729167 107.82927 43.1729167"></polygon>
                    <path d="M100.640652,10.7932292 C100.640652,8.80547613 99.0304019,7.19548611 97.0463433,7.19548611 L89.8577253,7.19548611 C87.8736667,7.19548611 86.2634163,8.80547613 86.2634163,10.7932292 L86.2634163,32.3796875 C86.2634163,34.3674405 87.8736667,35.9774306 89.8577253,35.9774306 L97.0463433,35.9774306 C99.0304019,35.9774306 100.640652,34.3674405 100.640652,32.3796875 L100.640652,10.7932292 Z" id="Fill-2264" fill="#EBEAF4"></path>
                    <path d="M59.7158499,0.757864575 C58.4183044,-0.253101224 56.6013811,-0.253101224 55.3020384,0.757864575 L1.38740328,36.7352951 C0.176121142,37.6797027 -0.303719111,39.2896927 0.194092687,40.7431809 C0.693701639,42.1966691 2.05774191,43.1734563 3.59430901,43.1734563 L111.423579,43.1734563 C112.958349,43.1734563 114.324187,42.1966691 114.823796,40.7431809 C115.321607,39.2896927 114.841767,37.6797027 113.630485,36.7352951 L59.7158499,0.757864575 Z" id="Fill-2265" fill="#DC0015"></path>
                    <polygon id="Fill-2266" fill="#40C9E7" points="100.640652 84.7718207 62.9004077 84.7718207 62.9004077 57.5638889 100.640652 57.5638889"></polygon>
                    <path d="M46.7260171,71.9548611 C46.7260171,64.0074467 40.2886097,57.5638889 32.3487811,57.5638889 C24.4089525,57.5638889 17.9715451,64.0074467 17.9715451,71.9548611 L17.9715451,100.736806 L46.7260171,100.736806 L46.7260171,71.9548611 Z" id="Fill-2267" fill="#84462D"></path>
                </g>
                <g id="Chain+Lock" transform="translate(21.120000, 5.750000)">
                    <path d="M1.52164979,16.0881167 C1.52164979,11.9068098 4.90220745,8.5171908 9.09910246,8.5171908 L20.6361767,8.5171908 C24.8210882,8.5171908 28.2136293,11.9014287 28.2136293,16.0881167 L28.2136293,16.1103296 C28.2136293,20.2916365 24.8330717,23.6812555 20.6361767,23.6812555 L9.09910246,23.6812555 C4.91419091,23.6812555 1.52164979,20.2970176 1.52164979,16.1103296 L1.52164979,16.0881167 Z M5.33478973,16.0992231 C5.33478973,18.1886833 7.03143531,19.8902393 9.1243537,19.8902393 L20.6109254,19.8902393 C22.7085357,19.8902393 24.4004894,18.1929436 24.4004894,16.0992231 C24.4004894,14.009763 22.7038438,12.308207 20.6109254,12.308207 L9.1243537,12.308207 C7.02674339,12.308207 5.33478973,14.0055027 5.33478973,16.0992231 Z" id="Combined-Shape" fill="#D8D8D8" transform="translate(14.867640, 16.099223) rotate(52.000000) translate(-14.867640, -16.099223) "></path>
                    <path d="M21.7000171,40.0387558 C21.7000171,35.8574489 25.0805748,32.4678299 29.2774698,32.4678299 L40.814544,32.4678299 C44.9994555,32.4678299 48.3919967,35.8520678 48.3919967,40.0387558 L48.3919967,40.0609688 C48.3919967,44.2422756 45.011439,47.6318946 40.814544,47.6318946 L29.2774698,47.6318946 C25.0925582,47.6318946 21.7000171,44.2476567 21.7000171,40.0609688 L21.7000171,40.0387558 Z M25.513157,40.0498623 C25.513157,42.1393224 27.2098026,43.8408784 29.302721,43.8408784 L40.7892927,43.8408784 C42.8869031,43.8408784 44.5788567,42.1435827 44.5788567,40.0498623 C44.5788567,37.9604021 42.8822111,36.2588461 40.7892927,36.2588461 L29.302721,36.2588461 C27.2051107,36.2588461 25.513157,37.9561418 25.513157,40.0498623 Z" id="Combined-Shape" fill="#D8D8D8" transform="translate(35.046007, 40.049862) rotate(44.000000) translate(-35.046007, -40.049862) "></path>
                    <path d="M44.8977027,60.5050105 C44.8977027,56.3237036 48.2782603,52.9340846 52.4751554,52.9340846 L64.0122296,52.9340846 C68.1971411,52.9340846 71.5896822,56.3183225 71.5896822,60.5050105 L71.5896822,60.5272234 C71.5896822,64.7085303 68.2091246,68.0981493 64.0122296,68.0981493 L52.4751554,68.0981493 C48.2902438,68.0981493 44.8977027,64.7139114 44.8977027,60.5272234 L44.8977027,60.5050105 Z M48.7108426,60.5161169 C48.7108426,62.6055771 50.4074882,64.3071331 52.5004066,64.3071331 L63.9869783,64.3071331 C66.0845886,64.3071331 67.7765423,62.6098374 67.7765423,60.5161169 C67.7765423,58.4266568 66.0798967,56.7251008 63.9869783,56.7251008 L52.5004066,56.7251008 C50.4027963,56.7251008 48.7108426,58.4223965 48.7108426,60.5161169 Z" id="Combined-Shape" fill="#D8D8D8" transform="translate(58.243692, 60.516117) rotate(41.000000) translate(-58.243692, -60.516117) "></path>
                    <g id="Group" transform="translate(46.515081, 78.807113) rotate(20.000000) translate(-46.515081, -78.807113) translate(27.015081, 53.807113)">
                        <path d="M12.7104665,21.5614045 L12.7104665,12.3208026 C12.7104665,8.92411131 15.561583,6.16040128 19.0656997,6.16040128 C22.5698164,6.16040128 25.4209329,8.92411131 25.4209329,12.3208026 L25.4209329,21.5614045 L12.7104665,21.5614045 Z M34.9537828,21.5614045 L31.7761661,21.5614045 L31.7761661,12.3208026 C31.7761661,5.52742005 26.0739331,-4.26325641e-14 19.0656997,-4.26325641e-14 C12.0574662,-4.26325641e-14 6.35523323,5.52742005 6.35523323,12.3208026 L6.35523323,21.5614045 L3.17761661,21.5614045 C1.42277784,21.5614045 -1.84741111e-13,22.9405643 -1.84741111e-13,24.6416051 L-1.84741111e-13,46.2030096 C-1.84741111e-13,47.9002002 1.46090924,49.2832103 3.17761661,49.2832103 L34.9537828,49.2832103 C36.7086215,49.2832103 38.1313994,47.9040504 38.1313994,46.2030096 L38.1313994,24.6416051 C38.1313994,22.9405643 36.7086215,21.5614045 34.9537828,21.5614045 L34.9537828,21.5614045 Z" id="Fill-6769" fill="#E1C618"></path>
                        <path d="M19.0656997,21.5614045 L3.17761661,21.5614045 C1.42277784,21.5614045 -2.13162821e-13,22.9405643 -2.13162821e-13,24.6416051 L-2.13162821e-13,46.2030096 C-2.13162821e-13,47.9002002 1.46090924,49.2832103 3.17761661,49.2832103 L19.0656997,49.2832103 L19.0656997,21.5614045 Z" id="Fill-6770" fill="#F2DA3E"></path>
                        <path d="M22.2433163,33.1121569 C22.2433163,31.4111161 20.8205385,30.0319563 19.0656997,30.0319563 C17.3108609,30.0319563 15.8880831,31.4111161 15.8880831,33.1121569 C15.8880831,34.296494 16.5855699,35.3129603 17.5968464,35.8281238 L15.8880831,44.6629093 L22.2433163,44.6629093 L20.534553,35.8281238 C21.5458295,35.3129603 22.2433163,34.296494 22.2433163,33.1121569" id="Fill-6777" fill="#353167"></path>
                    </g>
                    <path d="M62.4076958,54.0895384 L59.9205654,56.9506547 L56.39631,53.8870662 C54.8132234,52.51091 52.4227635,52.6818539 51.0491594,54.2620047 C49.6783502,55.8389403 49.8425036,58.2362206 51.4220492,59.6092986 L54.9463046,62.6728871 L52.4591742,65.5340033 L48.9158615,62.4538485 C45.7574686,59.7082995 45.4173452,54.9284755 48.1640596,51.768742 L48.1786326,51.7519777 C50.9218168,48.5963053 55.6969461,48.2559728 58.864383,51.0093836 L62.4076958,54.0895384 Z" id="Combined-Shape" fill="#D8D8D8"></path>
                    <path d="M69.9459134,77.6641404 C69.9459134,73.4828335 73.326471,70.0932146 77.523366,70.0932146 L89.0604402,70.0932146 C93.2453518,70.0932146 96.6378929,73.4774525 96.6378929,77.6641404 L96.6378929,77.6863534 C96.6378929,81.8676603 93.2573353,85.2572793 89.0604402,85.2572793 L77.523366,85.2572793 C73.3384545,85.2572793 69.9459134,81.8730413 69.9459134,77.6863534 L69.9459134,77.6641404 Z M73.7590533,77.6752469 C73.7590533,79.764707 75.4556989,81.4662631 77.5486173,81.4662631 L89.035189,81.4662631 C91.1327993,81.4662631 92.824753,79.7689673 92.824753,77.6752469 C92.824753,75.5857868 91.1281074,73.8842307 89.035189,73.8842307 L77.5486173,73.8842307 C75.451007,73.8842307 73.7590533,75.5815265 73.7590533,77.6752469 Z" id="Combined-Shape" fill="#D8D8D8" transform="translate(83.291903, 77.675247) rotate(26.000000) translate(-83.291903, -77.675247) "></path>
                    <rect id="Rectangle-233" fill="#D8D8D8" transform="translate(23.550897, 28.394563) rotate(51.000000) translate(-23.550897, -28.394563) " x="18.3078297" y="26.4990551" width="10.4861348" height="3.79101617"></rect>
                    <rect id="Rectangle-233" fill="#D8D8D8" transform="translate(46.429737, 50.775738) rotate(39.000000) translate(-46.429737, -50.775738) " x="41.1866693" y="48.88023" width="10.4861348" height="3.79101617"></rect>
                    <rect id="Rectangle-233" fill="#D8D8D8" transform="translate(69.329972, 69.730819) rotate(33.000000) translate(-69.329972, -69.730819) " x="64.5635467" y="67.8353108" width="9.53284984" height="3.79101617"></rect>
                    <rect id="Rectangle-233" fill="#D8D8D8" x="86.6880029" y="78.9628713" width="11.9525275" height="3.79101617"></rect>
                    <rect id="Rectangle-233" fill="#D8D8D8" transform="translate(7.931892, 7.225667) rotate(55.000000) translate(-7.931892, -7.225667) " x="2.65189151" y="5.33015938" width="10.56" height="3.79101617"></rect>
                </g>
            </g>
        </g>
    </g>
</svg>