<?xml version="1.0" encoding="UTF-8"?>
<svg width="60px" height="60px" viewBox="0 0 60 60" version="1.1" xmlns="http://www.w3.org/2000/svg" xmlns:xlink="http://www.w3.org/1999/xlink">
    <title>pintrest_no circle</title>
    <g id="pintrest_no-circle" stroke="none" stroke-width="1" fill="none" fill-rule="evenodd">
        <path d="M30.3300399,60.25 C14.1099293,60.25 5.5,49.7135161 5.5,38.2278684 C5.5,32.8949455 8.43180347,26.2507987 13.1267845,24.1366129 C13.8414323,23.8145861 14.2191149,23.955889 14.3811144,24.6207247 C14.5068241,25.1278384 15.1431999,27.5952051 15.4264025,28.747291 C15.5198151,29.1150537 15.4736425,29.4309568 15.1635585,29.7945478 C13.6182778,31.6107039 12.3733564,34.9686388 12.3733564,38.0939904 C12.3733564,46.116721 18.6489591,53.8799626 29.338633,53.8799626 C38.5759249,53.8799626 45.0353484,47.7926841 45.0353484,39.0810442 C45.0353484,29.2369141 39.9089222,22.4201573 33.2253559,22.4201573 C29.5348667,22.4201573 26.7726527,25.3687653 27.6577598,28.9977095 C28.7212323,33.3198494 30.7720795,37.9918022 30.7720795,41.10682 C30.7720795,43.9057051 29.2223318,46.2353665 26.0156668,46.2353665 C22.2458381,46.2353665 19.214297,42.4574649 19.214297,37.3958957 C19.214297,34.1740969 20.3410988,31.9975264 20.3410988,31.9975264 C20.3410988,31.9975264 16.6183519,16.7477552 15.9380964,13.9094492 C14.7774558,9.09244281 16.0898968,1.28786673 16.2057236,0.606229321 C16.2646254,0.240341976 16.6844484,0.116721043 16.9216365,0.424380249 C17.2876969,0.897086797 21.7772729,7.41566072 23.0470201,12.1293307 C23.4976775,13.8301711 25.3821373,20.7785861 25.3821373,20.7785861 C26.6139343,18.5155193 30.1875689,16.6018825 33.9960197,16.6018825 C45.3292641,16.6018825 53.5,26.6974645 53.5,39.2325506 C53.5,51.2551648 43.3689041,60.2496402 30.3302771,60.2496402" id="pinterest-icon" fill="#BD081C" fill-rule="nonzero" transform="translate(29.500000, 30.250000) scale(1, -1) translate(-29.500000, -30.250000) "></path>
    </g>
</svg>