<?xml version="1.0" encoding="UTF-8"?>
<svg width="60px" height="60px" viewBox="0 0 60 60" version="1.1" xmlns="http://www.w3.org/2000/svg" xmlns:xlink="http://www.w3.org/1999/xlink">
    <!-- Generator: Sketch 49.3 (51167) - http://www.bohemiancoding.com/sketch -->
    <title>assets/img_active_subscription</title>
    <desc>Created with Sketch.</desc>
    <defs></defs>
    <g id="Freshness" stroke="none" stroke-width="1" fill="none" fill-rule="evenodd">
        <g id="Freeform-Icons" transform="translate(-950.000000, -1500.000000)">
            <g id="assets/img_active_subscription" transform="translate(950.000000, 1500.000000)">
                <g id="Group-6">
                    <circle id="Oval-15" fill="#81B44C" cx="30" cy="30" r="30"></circle>
                    <path d="M50,30 C50,41.0416667 41.0416667,50 30,50 C18.9583333,50 10,41.0416667 10,30 C10,18.9583333 18.9583333,10 30,10 C41.0416667,10 50,18.9583333 50,30 Z" id="Combined-Shape" fill="#C3DBA9"></path>
                </g>
                <g id="Group-7" transform="translate(11.000000, 11.000000)">
                    <path d="M0.433739523,42.5662605 L42.5662605,0.433739523 C46.5955063,5.5410658 49,11.9897331 49,19 C49,35.5685425 35.5685425,49 19,49 C11.9897331,49 5.5410658,46.5955063 0.433739523,42.5662605 Z" id="Combined-Shape" fill="#638A3A"></path>
                    <path d="M7.58069369,35.4193063 L35.4193063,7.58069369 C37.6762651,10.818943 39,14.7555488 39,19 C39,30.0416667 30.0416667,39 19,39 C14.7555488,39 10.818943,37.6762651 7.58069369,35.4193063 Z" id="Combined-Shape" fill="#A1C779"></path>
                </g>
                <path d="M43.4375,25.78125 C43.4375,25.3385417 43.28125,24.8958333 42.96875,24.5833333 L40.5989583,22.2395833 C40.2864583,21.9270833 39.8697917,21.7447917 39.4270833,21.7447917 C38.984375,21.7447917 38.5677083,21.9270833 38.2552083,22.2395833 L27.6302083,32.8385417 L21.7447917,26.953125 C21.4322917,26.640625 21.015625,26.4583333 20.5729167,26.4583333 C20.1302083,26.4583333 19.7135417,26.640625 19.4010417,26.953125 L17.03125,29.296875 C16.71875,29.609375 16.5625,30.0520833 16.5625,30.4947917 C16.5625,30.9375 16.71875,31.3541667 17.03125,31.6666667 L26.4583333,41.09375 C26.7708333,41.40625 27.2135417,41.5885417 27.6302083,41.5885417 C28.0729167,41.5885417 28.515625,41.40625 28.828125,41.09375 L42.96875,26.953125 C43.28125,26.640625 43.4375,26.2239583 43.4375,25.78125 Z" id="Path" fill="#638A3A"></path>
            </g>
        </g>
    </g>
</svg>