<?xml version="1.0" encoding="UTF-8" standalone="no"?>
<svg width="400px" height="55px" viewBox="0 0 400 55" version="1.1" xmlns="http://www.w3.org/2000/svg" xmlns:xlink="http://www.w3.org/1999/xlink">
    <!-- Generator: Sketch 39.1 (31720) - http://www.bohemiancoding.com/sketch -->
    <title>assets/img_bv_logo_black</title>
    <desc>Created with Sketch.</desc>
    <defs></defs>
    <g id="Freshness" stroke="none" stroke-width="1" fill="none" fill-rule="evenodd">
        <g id="Freeform-Icons" transform="translate(-650.000000, -820.000000)">
            <g id="assets/img_bv_logo_black" transform="translate(650.000000, 820.000000)">
                <path d="M29.3425064,0 C13.1535374,0 0,13.0515873 0,29.1150794 C0,40.1150794 6.15884693,49.6746032 15.2211503,54.6071429 L13.9013973,36.9285714 C13.9013973,34.1785714 16.2329608,31.9960317 19.0484337,31.9960317 L39.6365792,31.9960317 C42.4960438,31.9960317 44.7836155,34.2222222 44.7836155,36.9285714 L43.4638626,54.6071429 C52.5261659,49.6309524 58.6850129,40.0714286 58.6850129,29.1150794 C58.6850129,13.0515873 45.5314755,0 29.3425064,0 L29.3425064,0 Z M29.3425064,29.9007937 C22.4797913,29.9007937 16.936829,24.4007937 16.936829,17.5912698 C16.936829,10.7380952 22.4797913,5.23809524 29.3425064,5.23809524 C36.2052216,5.23809524 41.7481838,10.7380952 41.7481838,17.547619 C41.7481838,24.3571429 36.2052216,29.9007937 29.3425064,29.9007937 L29.3425064,29.9007937 Z" id="Shape" fill="#5CB85C"></path>
                <path d="M66.9114727,11.3492063 C66.9114727,9.6468254 67.7473162,8.33730159 69.6829538,8.33730159 L78.8772324,8.33730159 C86.3558323,8.33730159 90.2710992,13.8809524 90.2710992,18.9444444 C90.2710992,23.8333333 87.8515522,27.5436508 84.3762029,28.6785714 L84.3762029,28.8095238 C89.4792475,29.3769841 93.5264898,33.9166667 93.5264898,39.8095238 C93.5264898,46.7936508 88.5994122,52.7738095 79.7130759,52.7738095 L69.6829538,52.7738095 C67.7033244,52.7738095 66.9114727,51.4642857 66.9114727,49.7619048 L66.9114727,11.3492063 L66.9114727,11.3492063 Z M72.1025008,27.1507937 L78.0413889,27.1507937 C82.4845571,27.1507937 85.0360794,24.0515873 85.0360794,19.9920635 C85.0360794,15.9761905 82.8364912,13.1388889 78.217356,13.1388889 L72.1025008,13.1388889 L72.1025008,27.1507937 L72.1025008,27.1507937 Z M72.1025008,48.0595238 L79.4491254,48.0595238 C84.55217,48.0595238 88.2914699,44.7420635 88.2914699,39.8095238 C88.2914699,35.2698413 85.1680546,31.6468254 79.6690842,31.6468254 L72.058509,31.6468254 L72.058509,48.0595238 L72.1025008,48.0595238 Z" id="Shape" fill="#303030"></path>
                <path d="M100.433197,38.3253968 C100.433197,44 103.864554,48.452381 109.759451,48.452381 C116.710149,48.452381 118.46982,43.9563492 120.449449,43.9563492 C121.417268,43.9563492 122.341095,44.8293651 122.341095,46.4007937 C122.341095,49.0634921 115.874306,53.2103175 109.715459,53.2103175 C99.6413449,53.2103175 95.2421685,45.047619 95.2421685,36.2301587 C95.2421685,27.2380952 100.565172,19.25 109.407516,19.25 C118.029902,19.25 123.000971,27.4126984 123.000971,35.4007937 C123.000971,37.3214286 122.341095,38.3253968 120.097515,38.3253968 L100.433197,38.3253968 L100.433197,38.3253968 Z M117.765952,34.2222222 C117.765952,29.4642857 115.170438,23.9642857 109.407516,23.9642857 C102.940727,23.702381 100.609164,29.1587302 100.433197,34.2222222 L117.765952,34.2222222 L117.765952,34.2222222 Z" id="Shape" fill="#303030"></path>
                <path d="M129.643728,38.3253968 C129.643728,44 133.075085,48.452381 138.969982,48.452381 C145.92068,48.452381 147.680351,43.9563492 149.65998,43.9563492 C150.627799,43.9563492 151.551626,44.8293651 151.551626,46.4007937 C151.551626,49.0634921 145.084837,53.2103175 138.92599,53.2103175 C128.851876,53.2103175 124.4527,45.047619 124.4527,36.2301587 C124.408708,27.2380952 129.775703,19.2063492 138.574056,19.2063492 C147.196442,19.2063492 152.167511,27.3690476 152.167511,35.3571429 C152.167511,37.2777778 151.507634,38.281746 149.264054,38.281746 L129.643728,38.281746 L129.643728,38.3253968 Z M146.976483,34.2222222 C146.976483,29.4642857 144.380969,23.9642857 138.618048,23.9642857 C132.151258,23.702381 129.819695,29.1587302 129.643728,34.2222222 L146.976483,34.2222222 L146.976483,34.2222222 Z" id="Shape" fill="#303030"></path>
                <path d="M154.675041,22.1746032 C154.675041,20.3849206 155.686852,19.25 157.270555,19.25 C158.854259,19.25 159.86607,20.3849206 159.86607,22.1746032 L159.86607,23.484127 L159.998045,23.6150794 C162.329608,20.4722222 165.584999,19.25 168.708414,19.25 C173.5915,19.25 179.706355,22.4801587 179.706355,31.8650794 L179.706355,50.2857143 C179.706355,52.0753968 178.694544,53.2103175 177.110841,53.2103175 C175.527137,53.2103175 174.515327,52.0753968 174.515327,50.2857143 L174.515327,32.1269841 C174.515327,26.3214286 170.644052,23.9642857 167.212694,23.9642857 C163.781336,23.9642857 159.910061,26.3214286 159.910061,32.1269841 L159.910061,50.2420635 C159.910061,52.031746 158.898251,53.1666667 157.314547,53.1666667 C155.730844,53.1666667 154.719033,52.031746 154.719033,50.2420635 L154.719033,22.1746032 L154.675041,22.1746032 Z" id="Shape" fill="#303030"></path>
                <path d="M180.058289,14.797619 C179.750347,13.968254 179.662363,13.3571429 179.662363,12.484127 C179.662363,9.86507937 181.861951,7.98809524 184.237507,7.98809524 C186.261128,7.98809524 187.492897,9.34126984 188.284749,11.0436508 L197.479028,37.015873 L206.673306,11.0436508 C207.465158,9.34126984 208.696927,7.98809524 210.720548,7.98809524 C213.096104,7.98809524 215.295692,9.86507937 215.295692,12.484127 C215.295692,13.3571429 215.163717,13.968254 214.899766,14.797619 L201.922196,49.5873016 C201.130344,51.5952381 200.162525,53.2103175 197.523019,53.2103175 C194.927505,53.2103175 193.915695,51.5952381 193.123843,49.5873016 L180.058289,14.797619 L180.058289,14.797619 Z" id="Shape" fill="#5CB85C"></path>
                <path d="M219.386926,39.1984127 C219.958819,43.6507937 223.47816,45.702381 227.437419,45.702381 C231.836595,45.702381 234.872027,42.0793651 237.115607,42.0793651 C238.963261,42.0793651 240.634948,44 240.634948,45.9642857 C240.634948,49.8492063 233.024373,53.5595238 226.689559,53.5595238 C217.099354,53.5595238 210.676557,46.1825397 210.676557,36.2738095 C210.676557,27.1507937 216.967379,18.8571429 225.98569,18.8571429 C235.223961,18.8571429 241.338816,27.718254 241.338816,35.2261905 C241.338816,37.8888889 240.19503,39.2420635 237.599516,39.2420635 L219.386926,39.2420635 L219.386926,39.1984127 Z M232.804414,33.218254 C232.320504,29.2896825 229.944949,26.3650794 225.98569,26.3650794 C222.202399,26.3650794 219.650876,29.4206349 219.210959,33.218254 L232.804414,33.218254 L232.804414,33.218254 Z" id="Shape" fill="#5CB85C"></path>
                <path d="M244.242272,23.702381 C244.242272,20.6904762 246.485852,19.2063492 248.641449,19.2063492 C250.885029,19.2063492 252.776675,20.0793651 252.776675,22.9603175 L252.90865,22.9603175 C254.492353,20.4722222 256.252024,19.2063492 258.89153,19.2063492 C260.959143,19.2063492 263.026756,20.7777778 263.026756,24.0079365 C263.026756,26.9325397 260.475233,27.1071429 257.923711,28.3730159 C255.372189,29.6388889 252.776675,30.8174603 252.776675,34.3531746 L252.776675,48.1468254 C252.776675,51.1587302 251.017004,53.1230159 248.509474,53.1230159 C246.001943,53.1230159 244.242272,51.1150794 244.242272,48.1468254 L244.242272,23.702381 L244.242272,23.702381 Z" id="Shape" fill="#5CB85C"></path>
                <path d="M273.100869,10.6944444 C273.100869,13.4880952 270.945273,15.8888889 268.305767,15.8888889 C265.754245,15.8888889 263.510665,13.4444444 263.510665,10.6944444 C263.510665,8.11904762 265.754245,5.76190476 268.305767,5.76190476 C270.857289,5.76190476 273.100869,8.03174603 273.100869,10.6944444 L273.100869,10.6944444 Z M263.994574,24.2261905 C263.994574,21.2142857 265.754245,19.25 268.261775,19.25 C270.769306,19.25 272.528977,21.2579365 272.528977,24.2261905 L272.528977,48.1904762 C272.528977,51.202381 270.769306,53.1666667 268.261775,53.1666667 C265.754245,53.1666667 263.994574,51.1587302 263.994574,48.1904762 L263.994574,24.2261905 L263.994574,24.2261905 Z" id="Shape" fill="#5CB85C"></path>
                <path d="M279.259716,27.4563492 L277.368071,27.4563492 C275.036507,27.4563492 273.628771,25.9722222 273.628771,23.5277778 C273.628771,21.3015873 275.212474,19.5992063 277.368071,19.5992063 L279.259716,19.5992063 L279.259716,14.9722222 C279.259716,8.33730159 282.999016,4.71428571 288.234036,4.71428571 C291.269468,4.71428571 294.172924,5.63095238 294.172924,8.77380952 C294.172924,11.3928571 293.029138,12.5714286 290.653583,12.5714286 C289.245847,12.5714286 287.794119,12.5714286 287.794119,15.8888889 L287.794119,19.5555556 L290.477616,19.5555556 C293.029138,19.5555556 294.788809,20.6031746 294.788809,23.484127 C294.788809,26.2777778 292.941155,27.4126984 290.477616,27.4126984 L287.794119,27.4126984 L287.794119,48.1468254 C287.794119,51.1587302 286.034448,53.1230159 283.526917,53.1230159 C281.019387,53.1230159 279.259716,51.1150794 279.259716,48.1468254 L279.259716,27.4563492 L279.259716,27.4563492 Z" id="Shape" fill="#5CB85C"></path>
                <path d="M305.478808,10.6944444 C305.478808,13.4880952 303.323211,15.8888889 300.683705,15.8888889 C298.132183,15.8888889 295.888603,13.4444444 295.888603,10.6944444 C295.888603,8.11904762 298.132183,5.76190476 300.683705,5.76190476 C303.235228,5.76190476 305.478808,8.03174603 305.478808,10.6944444 L305.478808,10.6944444 Z M296.416504,24.2261905 C296.416504,21.2142857 298.176175,19.25 300.683705,19.25 C303.191236,19.25 304.950906,21.2579365 304.950906,24.2261905 L304.950906,48.1904762 C304.950906,51.202381 303.191236,53.1666667 300.683705,53.1666667 C298.176175,53.1666667 296.416504,51.1587302 296.416504,48.1904762 L296.416504,24.2261905 L296.416504,24.2261905 Z" id="Shape" fill="#5CB85C"></path>
                <path d="M316.564732,39.1984127 C317.136625,43.6507937 320.655966,45.702381 324.615225,45.702381 C329.014401,45.702381 332.049833,42.0793651 334.293413,42.0793651 C336.141067,42.0793651 337.812754,44 337.812754,45.9642857 C337.812754,49.8492063 330.202179,53.5595238 323.867365,53.5595238 C314.27716,53.5595238 307.854363,46.1825397 307.854363,36.2738095 C307.854363,27.1507937 314.145185,18.8571429 323.163497,18.8571429 C332.401767,18.8571429 338.516622,27.718254 338.516622,35.2261905 C338.516622,37.8888889 337.372836,39.2420635 334.777322,39.2420635 L316.564732,39.2420635 L316.564732,39.1984127 Z M329.98222,33.218254 C329.498311,29.2896825 327.122755,26.3650794 323.163497,26.3650794 C319.380205,26.3650794 316.828683,29.4206349 316.388765,33.218254 L329.98222,33.218254 L329.98222,33.218254 Z" id="Shape" fill="#5CB85C"></path>
                <path d="M383.080279,52.3809524 C383.080279,51.5952381 383.740155,50.9404762 384.532007,50.9404762 C385.323859,50.9404762 385.983735,51.5952381 385.983735,52.3809524 C385.983735,53.1666667 385.323859,53.8214286 384.532007,53.8214286 C383.740155,53.8214286 383.080279,53.1666667 383.080279,52.3809524 L383.080279,52.3809524 Z" id="Shape" fill="#303030"></path>
                <path d="M378.637111,42.5595238 C378.637111,43.2142857 378.10921,43.8253968 378.10921,44.6547619 C378.10921,46.1825397 379.472954,46.8809524 380.836699,46.8809524 C382.156452,46.8809524 383.520196,46.0952381 383.520196,44.6547619 C383.520196,44 382.948304,42.9960317 382.948304,42.6904762 C382.948304,42.0793651 383.476205,41.5555556 384.136081,41.5555556 C385.499826,41.5555556 385.983735,43.8253968 385.983735,44.7857143 C385.983735,47.6230159 383.60818,49.5436508 380.836699,49.5436508 C378.10921,49.5436508 375.645671,47.5793651 375.645671,44.7857143 C375.645671,43.7380952 376.041597,41.5555556 377.317358,41.5555556 C377.933242,41.5555556 378.637111,41.9484127 378.637111,42.5595238 L378.637111,42.5595238 Z" id="Shape" fill="#303030"></path>
                <path d="M380.836699,31.515873 C383.60818,31.515873 385.983735,33.3928571 385.983735,36.2738095 C385.983735,39.1111111 383.60818,41.031746 380.836699,41.031746 C378.10921,41.031746 375.645671,39.0674603 375.645671,36.2738095 C375.689663,33.4801587 378.153201,31.515873 380.836699,31.515873 L380.836699,31.515873 Z M380.836699,38.3690476 C382.11246,38.3690476 383.520196,37.7142857 383.520196,36.2738095 C383.520196,34.8333333 382.11246,34.1785714 380.836699,34.1785714 C379.560938,34.1785714 378.10921,34.8333333 378.10921,36.2738095 C378.10921,37.7142857 379.560938,38.3690476 380.836699,38.3690476 L380.836699,38.3690476 Z" id="Shape" fill="#303030"></path>
                <path d="M377.273366,30.4246032 C376.393531,30.4246032 375.777646,29.8571429 375.777646,29.1150794 C375.777646,28.4166667 376.12958,27.9801587 376.789457,27.8928571 C376.085588,27.2380952 375.689663,26.4087302 375.689663,25.4484127 C375.689663,24.3571429 376.173572,23.3968254 377.053407,22.6984127 C376.217564,21.9563492 375.689663,20.8214286 375.689663,19.9047619 C375.689663,17.765873 376.965424,16.281746 379.296987,16.281746 L384.400032,16.281746 C385.279867,16.281746 385.895752,16.8492063 385.895752,17.5912698 C385.895752,18.3769841 385.323859,18.9007937 384.400032,18.9007937 L379.736905,18.9007937 C378.681102,18.9007937 377.889251,19.468254 377.889251,20.4285714 C377.889251,21.3888889 378.637111,22 379.736905,22 L384.400032,22 C385.279867,22 385.895752,22.5674603 385.895752,23.3095238 C385.895752,24.0952381 385.323859,24.6190476 384.400032,24.6190476 L379.736905,24.6190476 C378.681102,24.6190476 377.889251,25.1865079 377.889251,26.1468254 C377.889251,27.2380952 378.637111,27.718254 379.736905,27.718254 L384.400032,27.718254 C385.279867,27.718254 385.895752,28.2857143 385.895752,29.0277778 C385.895752,29.8134921 385.323859,30.3373016 384.400032,30.3373016 L377.273366,30.3373016 L377.273366,30.4246032 Z" id="Shape" fill="#303030"></path>
                <polygon id="Shape" fill="#5CB85C" points="36.6451392 46.6626984 41.8361673 42.952381 35.2374028 42.952381 33.2577734 37.7142857 31.278144 42.952381 24.6353877 42.952381 29.8704076 46.6626984 27.3188853 53.3849206 33.2577734 49.1071429 39.1966615 53.3849206"></polygon>
                <path d="M366.451392,4.75793651 C363.943862,4.75793651 362.184191,6.76587302 362.184191,9.73412698 L362.184191,21.9563492 C359.940611,19.9047619 357.037155,18.8134921 354.045715,18.8134921 C344.851436,18.8134921 340.276293,27.8492063 340.276293,36.6230159 C340.276293,45.1349206 345.731271,53.5595238 354.353657,53.5595238 C357.257114,53.5595238 360.600488,52.2063492 362.184191,49.4563492 C362.712092,51.8134921 364.075837,53.2103175 366.451392,53.2103175 C368.958923,53.2103175 370.718593,51.202381 370.718593,48.234127 L370.718593,9.73412698 C370.718593,6.72222222 368.958923,4.75793651 366.451392,4.75793651 L366.451392,4.75793651 Z M359.236743,36.5357143 L362.008224,43.8690476 L355.497443,39.1984127 L348.986662,43.8690476 L351.758143,36.5357143 L346.039214,32.4325397 L353.297855,32.4325397 L355.453451,26.7142857 L357.609048,32.4325397 L364.867689,32.4325397 L359.236743,36.5357143 L359.236743,36.5357143 Z" id="Shape" fill="#5CB85C"></path>
                <g id="Group" transform="translate(389.767027, 5.674603)" fill="#303030">
                    <polygon id="Shape" points="4.13522579 0.0873015873 4.13522579 1.00396825 2.59551406 1.00396825 2.59551406 5.15079365 1.53971173 5.15079365 1.53971173 1.00396825 0 1.00396825 0 0.0873015873 4.13522579 0.0873015873"></polygon>
                    <path d="M8.1384763,0.0873015873 L9.67818803,0.0873015873 L9.67818803,5.15079365 L8.66637746,5.15079365 L8.66637746,1.74603175 L8.66637746,1.3531746 L8.66637746,0.96031746 L7.69855866,5.19444444 L6.64275633,5.19444444 L5.71892929,0.873015873 L5.71892929,1.26587302 L5.71892929,1.65873016 L5.71892929,5.06349206 L4.70711872,5.06349206 L4.70711872,0.0873015873 L6.24683045,0.0873015873 L7.17065749,4.05952381 L8.1384763,0.0873015873 L8.1384763,0.0873015873 Z" id="Shape"></path>
                </g>
            </g>
        </g>
    </g>
</svg>