<?xml version="1.0" encoding="UTF-8" standalone="no"?>
<svg width="60px" height="60px" viewBox="0 0 60 60" version="1.1" xmlns="http://www.w3.org/2000/svg" xmlns:xlink="http://www.w3.org/1999/xlink">
    <!-- Generator: Sketch 39.1 (31720) - http://www.bohemiancoding.com/sketch -->
    <title>assets/img_owned_no_bg</title>
    <desc>Created with Sketch.</desc>
    <defs></defs>
    <g id="Freshness" stroke="none" stroke-width="1" fill="none" fill-rule="evenodd">
        <g id="Freeform-Icons" transform="translate(-340.000000, -150.000000)">
            <g id="assets/img_owned_no_bg" transform="translate(340.000000, 150.000000)">
                <polygon id="Fill-1437" fill="#F0F0F0" points="15 17.8125 15 41.4871875 52.5 41.4871875 52.5 17.8125 33.75 3.75"></polygon>
                <path d="M52.4721397,18.5130887 L55.3408897,18.5130887 C55.7421397,18.5130887 56.0993272,18.2571512 56.2277647,17.8774637 C56.3571397,17.4977762 56.2305772,17.0768387 55.9118272,16.8321512 L34.2827647,0.194338695 C33.9508897,-0.060661305 33.4896397,-0.065348805 33.1530772,0.184026195 L10.6924522,16.8218387 C10.3671397,17.0627762 10.2330772,17.4855887 10.3596397,17.8690262 C10.4862022,18.2534012 10.8452647,18.5130887 11.2502647,18.5130887 L14.9721397,18.5130887 L33.7221397,4.4505887 L52.4721397,18.5130887 Z" id="Fill-1438" fill="#DF2C2C"></path>
                <path d="M41.25,36.5625 C41.25,32.420625 37.891875,29.0625 33.75,29.0625 C29.608125,29.0625 26.25,32.420625 26.25,36.5625 L26.25,41.4871875 L41.25,41.4871875 L41.25,36.5625 Z" id="Fill-1439" fill="#84462D"></path>
                <polygon id="Fill-1440" fill="#40C9E7" points="29.0625 26.25 21.5625 26.25 21.5625 18.75 29.0625 18.75"></polygon>
                <polygon id="Fill-1441" fill="#40C9E7" points="45.9375 26.25 38.4375 26.25 38.4375 18.75 45.9375 18.75"></polygon>
                <path d="M59.233125,38.058308 C58.72125,36.777683 57.3365625,36.078308 56.0015625,36.427058 L38.0934375,41.272058 C37.32,41.4736205 36.525,41.5748705 35.7271875,41.5748705 L20.0540625,41.5748705 L30.65625,38.041433 C31.52625,37.7517455 32.2275,37.098308 32.578125,36.250808 C32.9296875,35.403308 32.8959375,34.445183 32.4853125,33.6248705 C31.801875,32.257058 30.2371875,31.5736205 28.7690625,32.002058 L12.1809375,36.8404955 C10.0415625,37.4648705 8.2903125,39.007058 7.4025,41.0498705 L1.875,53.7623705 L18.8428125,53.7623705 C19.89,52.5998705 21.3871875,51.8873705 23.015625,51.8873705 L33.0646875,51.8873705 C34.3771875,51.8873705 35.67375,51.612683 36.871875,51.080183 L57.804375,41.5748705 C59.14875,40.977683 59.7796875,39.4242455 59.233125,38.058308" id="Fill-1442" fill="#F8B4B4"></path>
                <path d="M0,55.3125 C0,54.795 0.42,54.375 0.9375,54.375 L20.7478125,54.375 C21.09375,54.375 21.4115625,54.5653125 21.5746875,54.87 C21.7378125,55.1746875 21.72,55.545 21.5278125,55.8328125 L19.0284375,59.5828125 C18.8540625,59.8434375 18.5615625,60 18.2484375,60 L0.9375,60 C0.42,60 0,59.58 0,59.0625 L0,55.3125 Z" id="Fill-1443" fill="#666666"></path>
                <path d="M15,56.71875 C15,57.495 15.6290625,58.125 16.40625,58.125 C17.1834375,58.125 17.8125,57.495 17.8125,56.71875 C17.8125,55.9425 17.1834375,55.3125 16.40625,55.3125 C15.6290625,55.3125 15,55.9425 15,56.71875" id="Fill-1444" fill="#FACB1B"></path>
                <path d="M30.3309375,31.9509031 C29.8275,31.8402781 29.293125,31.8459031 28.77,31.9987156 L12.1809375,36.8371531 C10.0425,37.4615281 8.29125,39.0037156 7.4025,41.0465281 L1.875,53.7590281 L8.5228125,53.7590281 L20.7103125,41.5715281 L20.055,41.5715281 L21.0375,41.2443406 L30.3309375,31.9509031 Z" id="Fill-1445" fill="#FBC8C8"></path>
            </g>
        </g>
    </g>
</svg>