<?xml version="1.0" encoding="UTF-8"?>
<svg width="93px" height="12px" viewBox="0 0 93 12" version="1.1" xmlns="http://www.w3.org/2000/svg" xmlns:xlink="http://www.w3.org/1999/xlink">
    <!-- Generator: Sketch 48.2 (47327) - http://www.bohemiancoding.com/sketch -->
    <title>stars</title>
    <desc>Created with Sketch.</desc>
    <defs></defs>
    <g id="Footer-OPT1" stroke="none" stroke-width="1" fill="none" fill-rule="evenodd" transform="translate(-50.000000, -82.000000)">
        <g id="Footer-Tablet" transform="translate(48.000000, 49.000000)" fill="#F2DA3E">
            <g id="stars" transform="translate(2.000000, 32.000000)">
                <path d="M6.5,11.25 L3.43671472,12.8604644 C3.07008128,13.053215 2.61661092,12.9122551 2.42386031,12.5456217 C2.34710601,12.3996263 2.32062,12.2324002 2.34850263,12.069832 L2.93353806,8.65881373 L0.455288216,6.24311717 C0.158675533,5.95399126 0.152606303,5.47915631 0.441732212,5.18254363 C0.556863665,5.0644309 0.707720473,4.98756552 0.870948247,4.96384713 L4.2958053,4.46618627 L5.82744794,1.36273931 C6.01076466,0.991299068 6.46048404,0.838794819 6.83192428,1.02211154 C6.97983374,1.09510922 7.09955438,1.21482986 7.17255206,1.36273931 L8.7041947,4.46618627 L12.1290518,4.96384713 C12.5389604,5.02341034 12.8229715,5.40399248 12.7634083,5.81390113 C12.7396899,5.9771289 12.6628245,6.12798571 12.5447118,6.24311717 L10.0664619,8.65881373 L10.6514974,12.069832 C10.7215181,12.4780843 10.4473273,12.8658013 10.0390749,12.9358221 C9.8765067,12.9637047 9.70928064,12.9372187 9.56328528,12.8604644 L6.5,11.25 Z" id="Star"></path>
                <path d="M26.5,11.25 L23.4367147,12.8604644 C23.0700813,13.053215 22.6166109,12.9122551 22.4238603,12.5456217 C22.347106,12.3996263 22.32062,12.2324002 22.3485026,12.069832 L22.9335381,8.65881373 L20.4552882,6.24311717 C20.1586755,5.95399126 20.1526063,5.47915631 20.4417322,5.18254363 C20.5568637,5.0644309 20.7077205,4.98756552 20.8709482,4.96384713 L24.2958053,4.46618627 L25.8274479,1.36273931 C26.0107647,0.991299068 26.460484,0.838794819 26.8319243,1.02211154 C26.9798337,1.09510922 27.0995544,1.21482986 27.1725521,1.36273931 L28.7041947,4.46618627 L32.1290518,4.96384713 C32.5389604,5.02341034 32.8229715,5.40399248 32.7634083,5.81390113 C32.7396899,5.9771289 32.6628245,6.12798571 32.5447118,6.24311717 L30.0664619,8.65881373 L30.6514974,12.069832 C30.7215181,12.4780843 30.4473273,12.8658013 30.0390749,12.9358221 C29.8765067,12.9637047 29.7092806,12.9372187 29.5632853,12.8604644 L26.5,11.25 Z" id="Star-Copy"></path>
                <path d="M46.5,11.25 L43.4367147,12.8604644 C43.0700813,13.053215 42.6166109,12.9122551 42.4238603,12.5456217 C42.347106,12.3996263 42.32062,12.2324002 42.3485026,12.069832 L42.9335381,8.65881373 L40.4552882,6.24311717 C40.1586755,5.95399126 40.1526063,5.47915631 40.4417322,5.18254363 C40.5568637,5.0644309 40.7077205,4.98756552 40.8709482,4.96384713 L44.2958053,4.46618627 L45.8274479,1.36273931 C46.0107647,0.991299068 46.460484,0.838794819 46.8319243,1.02211154 C46.9798337,1.09510922 47.0995544,1.21482986 47.1725521,1.36273931 L48.7041947,4.46618627 L52.1290518,4.96384713 C52.5389604,5.02341034 52.8229715,5.40399248 52.7634083,5.81390113 C52.7396899,5.9771289 52.6628245,6.12798571 52.5447118,6.24311717 L50.0664619,8.65881373 L50.6514974,12.069832 C50.7215181,12.4780843 50.4473273,12.8658013 50.0390749,12.9358221 C49.8765067,12.9637047 49.7092806,12.9372187 49.5632853,12.8604644 L46.5,11.25 Z" id="Star-Copy-2"></path>
                <path d="M66.5,11.25 L63.4367147,12.8604644 C63.0700813,13.053215 62.6166109,12.9122551 62.4238603,12.5456217 C62.347106,12.3996263 62.32062,12.2324002 62.3485026,12.069832 L62.9335381,8.65881373 L60.4552882,6.24311717 C60.1586755,5.95399126 60.1526063,5.47915631 60.4417322,5.18254363 C60.5568637,5.0644309 60.7077205,4.98756552 60.8709482,4.96384713 L64.2958053,4.46618627 L65.8274479,1.36273931 C66.0107647,0.991299068 66.460484,0.838794819 66.8319243,1.02211154 C66.9798337,1.09510922 67.0995544,1.21482986 67.1725521,1.36273931 L68.7041947,4.46618627 L72.1290518,4.96384713 C72.5389604,5.02341034 72.8229715,5.40399248 72.7634083,5.81390113 C72.7396899,5.9771289 72.6628245,6.12798571 72.5447118,6.24311717 L70.0664619,8.65881373 L70.6514974,12.069832 C70.7215181,12.4780843 70.4473273,12.8658013 70.0390749,12.9358221 C69.8765067,12.9637047 69.7092806,12.9372187 69.5632853,12.8604644 L66.5,11.25 Z" id="Star-Copy-3"></path>
                <path d="M86.5,11.25 L83.4367147,12.8604644 C83.0700813,13.053215 82.6166109,12.9122551 82.4238603,12.5456217 C82.347106,12.3996263 82.32062,12.2324002 82.3485026,12.069832 L82.9335381,8.65881373 L80.4552882,6.24311717 C80.1586755,5.95399126 80.1526063,5.47915631 80.4417322,5.18254363 C80.5568637,5.0644309 80.7077205,4.98756552 80.8709482,4.96384713 L84.2958053,4.46618627 L85.8274479,1.36273931 C86.0107647,0.991299068 86.460484,0.838794819 86.8319243,1.02211154 C86.9798337,1.09510922 87.0995544,1.21482986 87.1725521,1.36273931 L88.7041947,4.46618627 L92.1290518,4.96384713 C92.5389604,5.02341034 92.8229715,5.40399248 92.7634083,5.81390113 C92.7396899,5.9771289 92.6628245,6.12798571 92.5447118,6.24311717 L90.0664619,8.65881373 L90.6514974,12.069832 C90.7215181,12.4780843 90.4473273,12.8658013 90.0390749,12.9358221 C89.8765067,12.9637047 89.7092806,12.9372187 89.5632853,12.8604644 L86.5,11.25 Z" id="Star-Copy-4"></path>
            </g>
        </g>
    </g>
</svg>