<?xml version="1.0" encoding="UTF-8"?>
<svg width="36px" height="50px" viewBox="0 0 36 50" version="1.1" xmlns="http://www.w3.org/2000/svg" xmlns:xlink="http://www.w3.org/1999/xlink">
    <!-- Generator: Sketch 49.1 (51147) - http://www.bohemiancoding.com/sketch -->
    <title>assets/img_house_pin_outlined_purple</title>
    <desc>Created with Sketch.</desc>
    <defs></defs>
    <g id="Freshness" stroke="none" stroke-width="1" fill="none" fill-rule="evenodd">
        <g id="Freeform-Icons" transform="translate(-500.000000, -250.000000)">
            <g id="assets/img_house_pin_outlined_purple" transform="translate(500.000000, 250.000000)">
                <path d="M18,0 C8.05875,0 0,8.40892178 0,18.7812703 C0,27.5517273 12.87,44.4300957 16.845,49.4334849 C17.13,49.7925991 17.55375,50.0008047 18.00075,49.9999977 C18.44775,49.9999977 18.87075,49.7917921 19.1565,49.4326779 C23.1315,44.4276747 36,27.5509203 36,18.7812703 C36,8.40892178 27.94125,0 18,0" id="outer-pin" fill="#FFFFFF"></path>
                <path d="M18,2 C9.16333333,2 2,9.5680296 2,18.9031433 C2,26.7965546 13.44,41.9870862 16.9733333,46.4901364 C17.2266667,46.8133392 17.6033333,47.0007242 18.0006667,46.9999979 C18.398,46.9999979 18.774,46.8126129 19.028,46.4894101 C22.5613333,41.9849073 34,26.7958283 34,18.9031433 C34,9.5680296 26.8366667,2 18,2" id="inner-pin" fill="#3B2469"></path>
                <path d="M24.7237349,18.6402442 L24.7237349,26 L19.470817,26 L19.470817,20.8516262 L16.4941635,20.8516262 L16.4941635,26 L11.2762651,26 L11.2762651,18.2601629 C11.2762651,18.0067741 11.3929955,17.8800816 11.6264596,17.8800816 C11.8832702,17.8800816 12.0116736,18.0067741 12.0116736,18.2601629 L12.0116736,25.2743903 L15.758755,25.2743903 L15.758755,20.0914637 L20.241245,20.0914637 L20.241245,25.2743903 L23.9533069,25.2743903 L23.9533069,18.6402442 C23.9533069,18.3868554 24.0817103,18.2601629 24.3385209,18.2601629 C24.5953315,18.2601629 24.7237349,18.3868554 24.7237349,18.6402442 Z M26.8599215,17.6382117 C27.0466928,17.8224945 27.0466928,17.995257 26.8599215,18.1565044 C26.7665358,18.2256104 26.6731515,18.2601629 26.5797659,18.2601629 C26.4863802,18.2601629 26.3929959,18.2256104 26.2996102,18.1565044 L18,9.93292748 L9.6653703,18.1565044 C9.50194537,18.3177518 9.32684986,18.3177518 9.14007851,18.1565044 C8.95330716,17.995257 8.95330716,17.8224945 9.14007851,17.6382117 L17.7198444,9.13821207 C17.8832693,8.95392931 18.0583648,8.95392931 18.2451362,9.13821207 L26.8599215,17.6382117 Z M20.9766535,10.5203258 C20.7198429,10.5203258 20.5914395,10.3936333 20.5914395,10.1402445 C20.5914395,9.9098911 20.7198429,9.79471611 20.9766535,9.79471611 L23.9533069,9.79471611 L23.9533069,12.7317079 C23.9533069,12.9850966 23.8365766,13.1117891 23.6031124,13.1117891 C23.3463018,13.1117891 23.2178984,12.9850966 23.2178984,12.7317079 L23.2178984,10.5203258 L20.9766535,10.5203258 Z" id="î¾" fill="#FFFFFF"></path>
            </g>
        </g>
    </g>
</svg>