<?xml version="1.0" encoding="UTF-8"?>
<svg width="73px" height="73px" viewBox="0 0 73 73" version="1.1" xmlns="http://www.w3.org/2000/svg" xmlns:xlink="http://www.w3.org/1999/xlink">
    <title>rate report_no circle</title>
    <g id="rate-report_no-circle" stroke="none" stroke-width="1" fill="none" fill-rule="evenodd">
        <g id="Group-2">
            <g id="Group" fill="#FF4722">
                <polygon id="Fill-5349" points="36.6583896 0.240346154 38.4818414 5.87803846 44.3853671 5.87803846 39.6090035 9.36265385 41.4336043 15.0003462 36.6583896 11.5157308 31.883175 15.0003462 33.7066268 9.36265385 28.9314122 5.87803846 34.8337889 5.87803846"></polygon>
                <polygon id="Fill-5350" points="56.3921134 6.00957692 58.2155652 11.6472692 64.1190909 11.6472692 59.3438763 15.1318846 61.1673281 20.7695769 56.3921134 17.2849615 51.6168988 20.7695769 53.4403506 15.1318846 48.665136 11.6472692 54.5686617 11.6472692"></polygon>
                <polygon id="Fill-5351" points="65.0667803 24.4711154 66.891381 30.1088077 72.7937577 30.1088077 68.0185431 33.5934231 69.8431439 39.2311154 65.0667803 35.7465 60.2915656 39.2311154 62.1161664 33.5934231 57.3398028 30.1088077 63.2433285 30.1088077"></polygon>
                <polygon id="star-white" points="16.8090772 6.00957692 14.9856254 11.6472692 9.08209972 11.6472692 13.8584633 15.1318846 12.0338626 20.7695769 16.8090772 17.2849615 21.5854408 20.7695769 19.76084 15.1318846 24.5360546 11.6472692 18.633678 11.6472692"></polygon>
                <polygon id="star" points="8.24942454 24.4711154 6.42597276 30.1088077 0.522447086 30.1088077 5.2976617 33.5934231 3.47420992 39.2311154 8.24942454 35.7465 13.0246392 39.2311154 11.2011874 33.5934231 15.976402 30.1088077 10.0728763 30.1088077"></polygon>
            </g>
            <g id="Group" transform="translate(7.000000, 23.000000)">
                <g id="magnifying-glass">
                    <circle id="Oval" fill="#FFFFFF" cx="30.3009146" cy="19.0375443" r="18.0581208"></circle>
                    <path d="M14.9950661,28.6398275 L1.0928706,42.5420229 C-0.364441138,43.9993347 -0.364441138,46.3683153 1.0928706,47.8248723 L1.14569909,47.8784555 C2.60301083,49.3357672 4.97199142,49.3350125 6.42930316,47.8784555 L20.3314986,33.97626 C18.2002463,32.5906441 16.3799273,30.7703252 14.9950661,28.6398275" id="Fill-7472" fill="#8736C1"></path>
                    <path d="M1.08894619,42.5419475 C-0.34647945,43.9773731 -0.36006392,46.2950346 1.03309893,47.7568745 L13.8341977,34.9557758 L11.2546578,32.3762359 L1.08894619,42.5419475 Z" id="Fill-7473" fill="#B076DA"></path>
                    <path d="M14.9914436,28.6398275 L11.2549597,32.3763114 L13.8344995,34.9558512 L17.289483,31.5001131 C16.4306427,30.6291976 15.660856,29.6699831 14.9914436,28.6398275" id="Fill-7474" fill="#FACB1B"></path>
                    <path d="M30.1877107,0.335419008 C19.9990113,0.335419008 11.7396653,8.594765 11.7396653,18.7834644 C11.7396653,28.9721639 19.9990113,37.2315099 30.1877107,37.2315099 C40.3764102,37.2315099 48.6357562,28.9721639 48.6357562,18.7834644 C48.6357562,8.594765 40.3764102,0.335419008 30.1877107,0.335419008 Z M30.1877107,1.00625702 C40.0059166,1.00625702 47.9649181,8.96525861 47.9649181,18.7834644 C47.9649181,28.6016703 40.0059166,36.5606719 30.1877107,36.5606719 C20.3695049,36.5606719 12.4105033,28.6016703 12.4105033,18.7834644 C12.4105033,8.96525861 20.3695049,1.00625702 30.1877107,1.00625702 Z" id="Fill-7476" fill="#8736C1" fill-rule="nonzero"></path>
                    <path d="M15.8485481,18.7834644 C15.8485481,10.8644732 22.2687195,4.44430186 30.1877107,4.44430186 C38.1067019,4.44430186 44.5268733,10.8644732 44.5268733,18.7834644 C44.5268733,26.7024557 38.1067019,33.122627 30.1877107,33.122627 C22.2687195,33.122627 15.8485481,26.7024557 15.8485481,18.7834644 Z" id="Fill-7477" fill="#E5C8FA"></path>
                    <path d="M30.1877107,4.44430186 C22.2687195,4.44430186 15.8485481,10.8644732 15.8485481,18.7834644 C15.8485481,22.9176714 17.6084917,26.6315145 20.4068924,29.2487891 L40.6530353,9.00264617 C38.0357608,6.20424539 34.3219177,4.44430186 30.1877107,4.44430186" id="Fill-7478" fill="#DBA9FF"></path>
                </g>
                <path d="M14.9950661,28.6398275 L11.2585822,32.3763114 L16.5950147,37.7127439 L20.3314986,33.97626 C18.2002463,32.5906441 16.3799273,30.7703252 14.9950661,28.6398275" id="Fill-7475" fill="#FFFFFF"></path>
                <path d="M14.757889,28.4026504 L14.9945713,28.6394166 L15.2762937,28.4570245 C16.5640506,30.438135 18.2354891,32.1460657 20.1865738,33.4767742 L20.5143261,33.6950483 L20.8614105,33.9207023 L16.5950147,38.187098 L10.7842281,32.3763114 L14.757889,28.4026504 Z M14.9429168,29.1660244 L11.7329569,32.3759843 L16.5951908,37.2382183 L19.8044799,34.0282584 L19.5071294,33.8209656 C17.8223652,32.6222116 16.3484136,31.1482594 15.1501413,29.4639713 L14.9429168,29.1660244 Z" id="Fill-7475" fill="#8736C1" fill-rule="nonzero"></path>
            </g>
        </g>
    </g>
</svg>