<?xml version="1.0" encoding="UTF-8"?>
<svg width="200px" height="200px" viewBox="0 0 200 200" version="1.1" xmlns="http://www.w3.org/2000/svg" xmlns:xlink="http://www.w3.org/1999/xlink">
    <!-- Generator: Sketch 48.2 (47327) - http://www.bohemiancoding.com/sketch -->
    <title>assets/img_courtrunner</title>
    <desc>Created with Sketch.</desc>
    <defs></defs>
    <g id="Circular-Icons" stroke="none" stroke-width="1" fill="none" fill-rule="evenodd" transform="translate(-500.000000, -3750.000000)">
        <g id="assets/img_courtrunner" transform="translate(500.000000, 3750.000000)">
            <circle id="background" fill="#0F2D8F" cx="100" cy="100" r="100"></circle>
            <g id="Mercury-shoe" transform="translate(41.000000, 42.000000)">
                <g id="Wings">
                    <path d="M65.95651,28.5190201 C40.4036364,26.6444458 14.8507628,9.77327709 5.55880881,2.27497989 C-3.73314521,-5.2233173 0.912831797,7.89870279 3.2358203,11.6478514 C-3.73314521,15.397 3.2358203,21.0207229 5.55880881,24.7698715 C-1.41015671,28.5190201 5.55880881,37.8918916 10.2047858,41.6410402 C0.912831797,47.264763 31.1116824,69.7596546 31.1116824,69.7596546 C31.1116824,69.7596546 45.0191643,79.7437073 51.6561204,73.8463582 C54.4726739,71.343675 46.6223824,62.055867 48.3315161,53.4253675 C50.0406498,44.794868 60.9163912,44.2047284 65.8302533,40.1035292 C75.2285344,32.2595518 67.8590398,28.5190201 65.95651,28.5190201 Z" id="Fill-4857" fill="#E1C618"></path>
                    <path d="M3.01765059,11.4776761 C-3.95131493,15.2268247 3.01765059,20.8505476 5.34063909,24.5996962 C-1.07345642,28.050337 4.31925674,36.2648284 8.84090483,40.4740662 C9.23206316,40.8381985 9.61670277,41.1723571 9.98661611,41.4708648 C0.694662082,47.0945877 30.8935127,69.5894793 30.8935127,69.5894793 C30.8935127,69.5894793 44.8009945,79.573532 51.4379507,73.6761829 C54.2545041,71.1734996 41.2908663,60.2185726 43,51.5880731 C44.7091337,42.9575737 51.7018733,36.1850457 37.5638285,30.6763981 C19.2821215,23.5532431 3.01765059,11.4776761 3.01765059,11.4776761 Z" id="Fill-4857" fill="#F2DA3E"></path>
                    <path d="M5.34063909,24.5996962 C-1.07345642,28.050337 4.31925674,36.2648284 8.84090483,40.4740662 C9.23206316,40.8381985 9.61670277,41.1723571 9.98661611,41.4708648 C0.694662082,47.0945877 30.8935127,69.5894793 30.8935127,69.5894793 C30.8935127,69.5894793 44.6933948,79.97042 51.330351,74.0730708 C54.1469044,71.5703876 34.1241997,58.7002474 35.8333333,50.069748 C37.542467,41.4392485 5.34063909,24.5996962 5.34063909,24.5996962 Z" id="Fill-4857" fill="#E1C618"></path>
                    <path d="M9.98661611,41.4708648 C0.694662082,47.0945877 30.8935127,69.5894793 30.8935127,69.5894793 C30.8935127,69.5894793 44.6933948,79.97042 51.330351,74.0730708 C54.1469044,71.5703876 30.8935127,61.675559 28.6666667,53.2084383 C26.4398207,44.7413177 9.98661611,41.4708648 9.98661611,41.4708648 Z" id="Fill-4857" fill="#F2DA3E"></path>
                </g>
                <g id="Shoe" transform="translate(83.370907, 81.825914) scale(-1, 1) rotate(-15.000000) translate(-83.370907, -81.825914) translate(44.870907, 52.825914)">
                    <path d="M76.4449222,48.9240741 C52.1638566,49.4873886 31.8683053,49.478027 15.5582682,48.8959894 C7.44158254,48.6063385 2.45877791,46.4603403 0.609854275,42.4579948 C1.77559893,38.8135198 4.54862633,35.7940198 8.36158889,35.7940198 L16.3452556,35.7940198 C27.6148389,36.6922376 42.9658389,19.5643168 48.3480056,6.56273267 C49.6786167,5.01817822 51.8513111,4.48708911 53.7504778,5.24273267 L73.4408944,13.2126337 C75.2552556,13.9350099 76.4449222,15.6815446 76.4449222,17.6253069 L76.4449222,19.1603564 L76.4449222,47.6752079 L76.4449222,48.9240741 Z M76.441184,52.6174055 C76.3410486,55.1540229 74.2417944,57.1801584 71.6671444,57.1801584 L33.4449222,57.1801584 C33.4449222,57.1801584 13.2134222,57.3286733 7.27345,55.3207525 C1.35736667,53.3211485 0.000477777779,50.5742178 0.000477777779,46.4870891 L0.000477777779,46.3207525 C0.000477777779,46.2592125 0.000952232503,46.1976214 0.0018987167,46.1359895 C0.714844847,50.0963036 5.86944438,52.2476859 15.4656973,52.5901365 C31.4816772,53.1616804 51.8068394,53.1707701 76.441184,52.6174055 Z" id="Combined-Shape" fill="#E7114C"></path>
                    <path d="M25.4898028,32.0905347 C24.5724694,32.8509307 24.3610528,34.1685545 24.9929139,35.1748911 L28.5571361,40.8469703 C28.8987472,41.3923168 29.4481917,41.7760792 30.0800528,41.9115248 C30.7119139,42.0457822 31.3700528,41.9210297 31.9087472,41.5645941 L45.3534139,32.6489505 C45.9482472,32.254495 46.3352472,31.614099 46.4057194,30.9059802 C46.4761917,30.1978614 46.2229694,29.4956832 45.7177194,28.9919208 L39.7646083,23.0703366 C38.8914694,22.2018218 37.4951639,22.1388515 36.5455806,22.9253861 L25.4898028,32.0905347 Z" id="Fill-1776" fill="#F2DA3E"></path>
                    <path d="M53.75,5.2449901 L60.8820278,8.13330693 C60.6670278,3.10994059 59.3734444,0.11350495 57.3333333,0.11350495 C56.1699444,0.11350495 52.7526389,4.71033663 52.5722778,4.95390099 C52.9700278,5.00380198 53.3665833,5.09172277 53.75,5.2449901" id="Fill-1780" fill="#E1C618"></path>
                    <path d="M57.5345972,25.0208713 C55.8157917,27.428 52.4605972,27.9947327 50.0406528,26.2850297 L40.7884861,19.7491881 C39.7134861,18.9899802 39.4602639,17.5060198 40.2235139,16.4367129 L43.6814306,11.5927525 C44.445875,10.5222574 45.9365417,10.2715644 47.0127361,11.0307723 L56.2649028,17.5654257 C58.6848472,19.2763168 59.2534028,22.6137426 57.5345972,25.0208713" id="Fill-1783" fill="#F2DA3E"></path>
                </g>
            </g>
        </g>
    </g>
</svg>