<svg width="28" height="28" xmlns="http://www.w3.org/2000/svg">
    <g fill="none" fill-rule="evenodd">
        <path d="M19.327 14.43a2.662 2.662 0 0 1 2.654 2.445l.009.218v3.294H20.81v-3.294c0-.766-.578-1.395-1.322-1.475l-.162-.01h-2.045V14.43h2.045z" fill="#C33F72" fill-rule="nonzero"/>
        <path d="m21.997 1.057 4.87 4.87c.56.56.903 1.299.973 2.081l.013.296v11.78c0 1.856-1.367 3.458-3.177 3.631a3.52 3.52 0 0 1-3.857-3.266l-.008-.238h1.179a2.342 2.342 0 0 0 2.574 2.33c1.118-.106 2-1.07 2.1-2.235l.01-.221V8.304c0-.506-.177-.994-.495-1.383l-.145-.16-4.87-4.87.833-.834z" fill="#C33F72" fill-rule="nonzero"/>
        <path d="M25.312 5.7a2.275 2.275 0 1 0 .002 4.55 2.275 2.275 0 0 0-.002-4.55zm0 1.179a1.096 1.096 0 1 1 0 2.191 1.096 1.096 0 0 1 0-2.191zM15.632 1.08a2.24 2.24 0 0 1 2.23 2.035l.01.204v23.552h-1.18V3.32c0-.536-.399-.98-.916-1.05l-.144-.01H3.328c-.536 0-.98.4-1.05.916l-.01.144v23.552H1.09V3.32a2.24 2.24 0 0 1 2.036-2.23l.203-.009h12.304z" fill="#C33F72" fill-rule="nonzero"/>
        <path d="M18.224 25.787a.59.59 0 0 1 .119 1.167l-.12.012H.738a.59.59 0 0 1-.119-1.167l.119-.012h17.487z" fill="#C33F72" fill-rule="nonzero"/>
        <path d="m10.871 1.62 5.95.355.461 24.401-15.25.148V2.399l1.659-.779h7.18zm3.005 2.034H5.19c-.828 0-1.498.67-1.498 1.498v4.944c0 .827.67 1.498 1.498 1.498h8.687a1.5 1.5 0 0 0 1.499-1.498V5.152a1.5 1.5 0 0 0-1.499-1.498zm0 1.178a.32.32 0 0 1 .32.32v4.944a.32.32 0 0 1-.32.32H5.19a.32.32 0 0 1-.32-.32V5.152a.32.32 0 0 1 .32-.32h8.687z" fill="#C33F72"/>
        <path fill="#FFF" d="m6.837 3.997-2.19.638-.197 3.412.197 2.909H14l.72-.336V9.018l-.15-3.184v-1.2l-1.073-.384z"/>
    </g>
</svg>
