<?xml version="1.0" encoding="UTF-8"?>
<svg width="80px" height="80px" viewBox="0 0 80 80" version="1.1" xmlns="http://www.w3.org/2000/svg" xmlns:xlink="http://www.w3.org/1999/xlink">
    <!-- Generator: Sketch 49.1 (51147) - http://www.bohemiancoding.com/sketch -->
    <title>assets/img_domain_klout</title>
    <desc>Created with Sketch.</desc>
    <defs></defs>
    <g id="Freshness" stroke="none" stroke-width="1" fill="none" fill-rule="evenodd">
        <g id="Freeform-Icons" transform="translate(-640.000000, -1380.000000)">
            <g id="assets/img_domain_klout" transform="translate(640.000000, 1380.000000)">
                <circle id="Oval-7" fill="#353167" cx="40" cy="40" r="40"></circle>
                <g id="Klout_logo" transform="translate(18.000000, 23.000000)">
                    <path d="M0.501188837,0.617540218 L0.501188837,13.9772396 L0.501188837,27.3404863 L15.5403679,27.3404863 L30.5830688,27.3404863 L37.6715121,30.8560089 C41.5696688,32.7903287 44.7892326,34.4051283 44.8268274,34.4424872 C44.8644222,34.4798347 44.9063194,34.5098831 44.9183366,34.5098831 C44.9304215,34.5098831 44.9394541,26.8843864 44.9394541,17.5637122 L44.9394541,0.617540218 L22.7203204,0.617540218 L0.501188837,0.617540218 Z" id="path3092-path" fill="#D23B0F"></path>
                    <path d="M20.0032011,4.47361345 L22.576023,4.48780893 L25.1523589,4.50199874 L25.1629458,8.09556629 C25.1733075,10.892138 25.1903479,11.6996831 25.2403767,11.7317033 C25.3185058,11.7817172 28.5821203,11.7817183 28.7071584,11.7317033 C28.7559033,11.7122053 29.8471378,10.1480112 31.1321522,8.25520158 C32.4171666,6.36239086 33.5231439,4.73732697 33.5923418,4.64389676 L33.7190468,4.47361913 L36.8338791,4.48780893 C39.2105278,4.498071 39.9487114,4.51819214 39.9487114,4.56585285 C39.9487114,4.60019785 38.457821,6.72179813 36.6367824,9.28041483 C34.815755,11.8390327 33.318321,13.9672102 33.310775,14.0127141 C33.3032515,14.0582179 34.9294573,16.2877549 36.9218687,18.9685027 C38.9142802,21.6492516 40.5356092,23.870042 40.5259233,23.8994592 C40.5141651,23.9350438 39.4411085,23.9543794 37.3195818,23.9633133 L34.1308382,23.9775031 L32.6138973,21.8312954 C31.780775,20.6508173 30.5757087,18.9452087 29.9354934,18.0390706 L28.7740305,16.389506 L26.9860816,16.389506 L25.2016556,16.389506 L25.1770242,20.1710885 L25.1523814,23.9526709 L22.6112414,23.9633076 C21.2149068,23.9707431 20.0576674,23.9614118 20.0384307,23.9420229 C20.0192054,23.9226362 20.0032349,19.5342013 20.0032349,14.1900809 L20.0032011,4.47361345 Z" id="path3092-path" fill="#FFFFFF"></path>
                    <path d="M8.2618671,4.4771609 C10.5642836,4.47659331 11.2602828,4.49061851 11.3274309,4.54101502 C11.3752071,4.57686413 12.5069478,6.21264076 13.8404142,8.17715198 L16.2618884,11.7494348 L17.3248029,11.7636246 C18.1387336,11.7744089 18.4032824,11.7950148 18.4475447,11.8487635 C18.4885521,11.8985731 18.499353,12.5512404 18.4897798,14.1013947 L18.4757014,16.2866243 L17.377591,16.3114564 C16.637735,16.3289712 16.2619897,16.3568161 16.2372457,16.3965953 C16.2169954,16.4291626 15.0148968,18.1385389 13.5658866,20.1923675 L10.9332374,23.9242856 L7.75857214,23.9242856 C6.0136466,23.9242856 4.58742085,23.9079799 4.58742085,23.8852637 C4.58742085,23.8625475 6.21730947,21.6505026 8.20907896,18.9720445 C10.2008372,16.2935864 11.8307258,14.0695448 11.8307258,14.0304456 C11.8307258,13.9786949 5.57038168,5.1276646 5.18927543,4.64034364 C5.15032912,4.59054537 5.15691778,4.55738891 5.21039294,4.52327776 C5.25267301,4.49631827 6.56724065,4.47761498 8.2618671,4.4771609 Z" id="path3092-path" fill="#E89D7C"></path>
                </g>
            </g>
        </g>
    </g>
</svg>