<?xml version="1.0" encoding="UTF-8"?>
<svg width="42px" height="26px" viewBox="0 0 42 26" version="1.1" xmlns="http://www.w3.org/2000/svg" xmlns:xlink="http://www.w3.org/1999/xlink">
    <title>Group 7</title>
    <g id="Subscribe_and_DownSell" stroke="none" stroke-width="1" fill="none" fill-rule="evenodd">
        <g id="Group-7" transform="translate(0.500000, 0.500000)">
            <path d="M39.5,0 L1.5,0 C0.671572875,0 0,0.671572875 0,1.5 L0,23.5 C0,24.3284271 0.671572875,25 1.5,25 L39.5,25 C40.3284271,25 41,24.3284271 41,23.5 L41,1.5 C41,0.671572875 40.3284271,0 39.5,0 Z M1.5,1 L39.5,1 C39.7761424,1 40,1.22385763 40,1.5 L40,23.5 C40,23.7761424 39.7761424,24 39.5,24 L1.5,24 C1.22385763,24 1,23.7761424 1,23.5 L1,1.5 C1,1.22385763 1.22385763,1 1.5,1 Z" id="Rectangle" fill="#979797" fill-rule="nonzero"></path>
            <circle id="Oval" fill="#9C9B9B" cx="3.5" cy="3.5" r="1"></circle>
            <circle id="Oval-Copy-3" fill="#9C9B9B" cx="3.5" cy="21.5" r="1"></circle>
            <circle id="Oval-Copy-2" fill="#9C9B9B" cx="37.5" cy="3.5" r="1"></circle>
            <circle id="Oval-Copy-4" fill="#9C9B9B" cx="37.5" cy="21.5" r="1"></circle>
            <path d="M6.076,15.5 L6.076,9.9 L5.22,9.9 C5.108,10.316 4.868,10.652 4.316,10.708 L4.316,11.332 L5.076,11.332 L5.076,15.5 L6.076,15.5 Z M11.428,15.5 L11.428,14.524 L9.348,14.524 C9.388,13.924 9.732,13.548 10.492,12.98 C11.028,12.58 11.412,12.1 11.412,11.324 C11.412,10.348 10.764,9.812 9.796,9.812 C9.108,9.812 8.612,10.116 8.236,10.588 L8.86,11.316 C9.124,11.012 9.404,10.812 9.756,10.812 C10.172,10.812 10.396,11.028 10.396,11.468 C10.396,11.804 10.252,12.036 9.868,12.316 C8.812,13.076 8.276,13.788 8.22,15.5 L11.428,15.5 Z M14.94,15.588 C16.068,15.588 16.732,14.916 16.732,13.82 C16.732,13.036 16.276,12.636 15.788,12.5 C16.252,12.332 16.572,11.972 16.572,11.34 C16.572,10.412 15.94,9.812 14.972,9.812 C14.22,9.812 13.828,10.084 13.42,10.54 L14.1,11.22 C14.388,10.932 14.604,10.804 14.908,10.804 C15.388,10.804 15.564,11.092 15.564,11.46 C15.564,11.86 15.3,12.068 14.836,12.068 L14.444,12.068 L14.444,13.036 L14.828,13.036 C15.348,13.036 15.724,13.276 15.724,13.844 C15.724,14.3 15.452,14.604 14.972,14.604 C14.596,14.604 14.316,14.444 14.012,14.004 L13.22,14.564 C13.66,15.268 14.188,15.588 14.94,15.588 Z M20.748,13.084 L20.748,12.108 L18.708,12.108 L18.708,13.084 L20.748,13.084 Z M23.148,15.5 L23.412,14.332 L24.668,14.332 L24.932,15.5 L25.964,15.5 L24.532,9.9 L23.556,9.9 L22.124,15.5 L23.148,15.5 Z M24.452,13.396 L23.628,13.396 L23.78,12.716 C23.884,12.26 23.996,11.66 24.036,11.372 C24.076,11.652 24.204,12.3 24.3,12.732 L24.452,13.396 Z M29.364,15.5 C30.564,15.5 31.22,14.916 31.22,13.764 C31.22,13.076 30.844,12.668 30.396,12.492 C30.844,12.3 31.084,11.868 31.084,11.396 C31.084,10.468 30.444,9.9 29.42,9.9 L27.908,9.9 L27.908,15.5 L29.364,15.5 Z M29.452,12.044 L28.884,12.044 L28.884,10.82 L29.428,10.82 C29.916,10.82 30.092,11.052 30.092,11.436 C30.092,11.756 29.94,12.044 29.452,12.044 Z M29.42,14.58 L28.884,14.58 L28.884,12.94 L29.388,12.94 C29.972,12.94 30.228,13.204 30.228,13.788 C30.228,14.252 29.988,14.58 29.42,14.58 Z M34.796,15.588 C35.652,15.588 36.14,15.076 36.404,14.156 L35.54,13.788 C35.332,14.396 35.156,14.588 34.812,14.588 C34.268,14.588 34.004,13.884 34.004,12.692 C34.004,11.5 34.26,10.812 34.796,10.812 C35.164,10.812 35.316,11.02 35.46,11.532 L36.396,11.228 C36.18,10.42 35.764,9.812 34.812,9.812 C33.572,9.812 32.98,11.092 32.98,12.708 C32.98,14.316 33.556,15.588 34.796,15.588 Z" id="123-ABC" fill="#9C9B9B" fill-rule="nonzero"></path>
        </g>
    </g>
</svg>