<svg width="28" height="28" xmlns="http://www.w3.org/2000/svg" xmlns:xlink="http://www.w3.org/1999/xlink">
    <defs>
        <path id="a" d="M0 0h24.614v13.558H0z"/>
    </defs>
    <g fill="none" fill-rule="evenodd">
        <path d="M26.698 17.774h-2.54v-.911h2.54a.175.175 0 0 0 .176-.176v-5.08a.175.175 0 0 0-.176-.174h-2.54v-.912h2.54c.6 0 1.088.487 1.088 1.087v5.08c0 .599-.489 1.086-1.088 1.086" fill="#008B5C"/>
        <g transform="translate(0 7.368)">
            <mask id="b" fill="#fff">
                <use xlink:href="#a"/>
            </mask>
            <path d="M2.122.912c-.668 0-1.21.543-1.21 1.21v9.313c0 .668.542 1.211 1.21 1.211H22.49c.667 0 1.21-.543 1.21-1.21V2.122c0-.668-.543-1.211-1.21-1.211H2.12zM22.49 13.558H2.12A2.125 2.125 0 0 1 0 11.435V2.123C0 .952.952 0 2.122 0H22.49c1.17 0 2.123.952 2.123 2.123v9.312c0 1.171-.952 2.123-2.123 2.123z" fill="#008B5C" mask="url(#b)"/>
        </g>
        <path d="M21.607 19.078H3.005a1.136 1.136 0 0 1-1.136-1.137v-7.587c0-.628.51-1.137 1.136-1.137h18.602c.63 0 1.137.51 1.137 1.137v7.587c0 .628-.508 1.137-1.137 1.137" fill="#008B5C"/>
        <path d="M11.038 18.383a.24.24 0 0 1-.111-.027.236.236 0 0 1-.113-.282l.986-2.985H9.953a.237.237 0 0 1-.193-.37l3.26-4.706a.239.239 0 0 1 .286-.083c.104.045.16.157.138.268l-.663 3.008h1.879a.236.236 0 0 1 .187.38l-3.623 4.705a.23.23 0 0 1-.186.092" fill="#FFF"/>
    </g>
</svg>
