<svg xmlns="http://www.w3.org/2000/svg" width="134" height="61" viewBox="0 0 134 61">
    <g fill="none" fill-rule="evenodd">
        <g>
            <g>
                <g>
                    <path fill="#8736C1" d="M43.312 39.935c-.685.925-1.3 1.887-1.857 2.89-.148.268-.297.535-.436.813-.05.08-.1.17-.13.258-.148.28-.287.567-.426.855-.01.01-.01.019-.01.03-.278.575-.526 1.161-.755 1.766-.208.506-.387 1.032-.556 1.568-.07.19-.119.378-.178.567-.11.368-.219.735-.308 1.112-.13.466-.238.932-.328 1.41 0 .009-.01.019-.01.03-.089.445-.168.892-.238 1.339-.06.368-.109.744-.149 1.131-.04.27-.06.527-.08.795-.039.348-.059.705-.079 1.052v.03c-.03.497-.04.993-.04 1.5h-9.708c0-.478.01-.944.03-1.42 0-.11 0-.22.01-.338.02-.476.05-.943.089-1.42.04-.476.08-.943.139-1.41.01-.119.03-.248.05-.367.05-.447.109-.883.188-1.33.07-.457.16-.922.248-1.38.02-.079.03-.158.05-.247.1-.468.199-.934.318-1.391.09-.357.178-.725.288-1.081.02-.09.04-.179.07-.27l.148-.505c.1-.338.208-.675.318-1.012.03-.1.06-.199.099-.299.129-.387.268-.773.417-1.161 0-.03.01-.05.03-.08.168-.456.347-.902.536-1.349.218-.517.437-1.032.675-1.529.178-.377.367-.744.556-1.112.923-1.807 1.985-3.534 3.166-5.163l7.863 5.718zM57.42 29.478c-.497.169-.993.357-1.47.556-.248.1-.486.198-.714.308-.278.109-.546.228-.804.357-.16.07-.308.149-.457.228-.218.1-.427.209-.625.318-.21.1-.407.209-.606.328-1.231.685-2.412 1.449-3.524 2.313-.209.149-.417.307-.616.476l-.536.447c-.923.774-1.787 1.608-2.61 2.502-.239.268-.487.536-.716.814-.01 0-.02.01-.03.03-.188.218-.376.456-.565.684l-.328.417c-.168.219-.337.447-.506.675l.288-.397-7.852-5.708h-.01c.516-.685 1.042-1.349 1.598-1.995.328-.387.664-.765 1.013-1.142.337-.367.695-.734 1.052-1.092.357-.357.715-.705 1.092-1.052.367-.348.744-.685 1.132-1.013.764-.655 1.558-1.29 2.382-1.886.377-.278.764-.546 1.162-.814.04-.03.089-.06.139-.09.377-.257.774-.506 1.161-.754.09-.05.179-.109.278-.168.367-.219.735-.437 1.112-.646.883-.496 1.797-.963 2.73-1.4.466-.208.933-.416 1.41-.615.416-.179.853-.346 1.28-.506.09-.04.179-.07.258-.1.298-.099.586-.208.883-.307l2.999 9.232z" transform="translate(-933 -334) translate(933 334)"/>
                    <path fill="#D7D7D7" d="M35.749 33.826l7.852 5.708-.288.397-7.862-5.717.06-.09c.079-.1.148-.198.228-.298h.01z" transform="translate(-933 -334) translate(933 334)"/>
                    <path fill="#8736C1" d="M78.465 19.948l-3.007 9.223c-.031-.011-.071-.02-.11-.03-.378-.12-.754-.219-1.141-.319-.468-.128-.943-.238-1.42-.327-.418-.089-.835-.17-1.25-.228-.438-.07-.874-.129-1.322-.18-.188-.028-.386-.049-.585-.058-.398-.04-.805-.07-1.222-.09-.495-.03-.991-.039-1.499-.039-.505 0-1.001.01-1.498.04-.417.019-.824.05-1.22.089-.2.009-.398.03-.588.059-.445.05-.882.11-1.319.18-.418.058-.835.138-1.252.227-.476.089-.953.2-1.418.327-.387.1-.766.2-1.143.319-.04.01-.08.019-.108.03l-2.999-9.234c.794-.248 1.598-.465 2.413-.665.426-.108.863-.197 1.29-.288.109-.018.208-.04.317-.058.457-.09.904-.179 1.371-.248.497-.08 1.002-.15 1.51-.209.465-.06.941-.11 1.409-.15.088 0 .169-.009.248-.019.426-.03.853-.05 1.28-.07.09-.009.178-.009.258-.009.487-.02.964-.03 1.45-.03.487 0 .963.01 1.449.03.079 0 .168 0 .258.01.428.02.853.04 1.28.07.08.01.16.018.248.018.468.04.944.09 1.41.15.507.059 1.014.13 1.51.209.466.07.912.158 1.369.248.11.019.208.04.319.058.426.09.863.18 1.29.288.814.2 1.627.417 2.422.676" transform="translate(-933 -334) translate(933 334)"/>
                    <path fill="#D7D7D7" d="M55.364 19.938l2.998 9.233-.943.307-2.998-9.232c.16-.05.318-.11.477-.16.159-.048.308-.098.466-.148M105.794 57.075h-9.708c0-.506-.01-1.002-.04-1.499v-.03c-.02-.347-.039-.704-.079-1.052-.02-.268-.04-.526-.08-.793-.04-.377-.088-.755-.149-1.133-.07-.446-.148-.892-.238-1.34 0-.009 0-.02-.01-.03-.09-.475-.199-.943-.328-1.41-.09-.376-.198-.744-.308-1.111-.06-.188-.109-.377-.178-.565-.169-.536-.358-1.063-.556-1.568-.228-.607-.487-1.193-.755-1.768 0-.01-.009-.02-.009-.03-.14-.288-.278-.576-.427-.853-.03-.09-.08-.18-.13-.26-.137-.276-.287-.545-.435-.812-.488-.855-1.004-1.689-1.569-2.482l-.408-.576c-.139-.168-.257-.348-.387-.507l-.327-.417c-.19-.228-.378-.466-.566-.685-.01-.02-.02-.03-.03-.03-.227-.278-.476-.546-.715-.814-.824-.893-1.687-1.726-2.61-2.501-.18-.15-.358-.297-.536-.447-.2-.169-.408-.328-.616-.476-1.112-.863-2.293-1.629-3.523-2.313-.2-.12-.398-.229-.607-.328-.199-.11-.407-.219-.625-.318-.15-.08-.297-.159-.457-.227-.257-.13-.526-.248-.804-.359-.228-.109-.467-.208-.715-.307-.475-.198-.972-.387-1.468-.556l-.209-.07c-.09-.028-.17-.06-.259-.089h-.01l-.466-.148 3.009-9.222c.158.04.306.088.456.138h.01c.16.05.317.099.466.159.298.099.596.208.883.307 1.053.388 2.085.814 3.098 1.29.417.19.824.398 1.23.596.935.488 1.857 1.003 2.74 1.55.398.247.785.495 1.162.755.05.018.09.058.139.089.397.257.785.536 1.161.813.824.596 1.619 1.23 2.383 1.886.387.328.764.665 1.142 1.013.358.338.714.685 1.072 1.032l.03.03c.328.337.656.675.972 1.013.1.099.189.209.288.307.258.298.526.596.785.904.546.646 1.082 1.31 1.589 1.995.108.129.197.258.298.388.098.13.187.267.288.406.167.238.327.477.496.716 1.4 2.065 2.6 4.268 3.583 6.6.129.288.248.586.357.885.12.288.228.585.338.882.119.298.229.596.317.904.09.248.169.496.248.744.219.696.427 1.41.606 2.125.06.218.11.446.159.665.03.119.06.228.08.348.108.446.198.893.277 1.34.07.318.12.646.169.962.09.517.159 1.033.218 1.549.07.516.12 1.033.16 1.559.039.476.069.943.089 1.42.01.12.01.228.01.337.01.307.02.615.02.923.01.169.01.328.01.496" transform="translate(-933 -334) translate(933 334)"/>
                    <path fill="#FFF" d="M28.024 57.577L37.733 57.577 37.733 56.584 28.024 56.584zM96.086 57.577L105.793 57.577 105.793 56.584 96.086 56.584zM90.798 40.337L90.214 39.534 98.148 33.762 98.748 34.553 98.668 34.613zM79.428 20.157L79.398 20.246 76.4 29.478 76.192 29.408 75.924 29.319 75.457 29.171 78.465 19.948 78.495 19.848zM58.362 29.171L57.419 29.478 54.421 20.246 55.335 19.848 55.364 19.928 55.364 19.938zM43.601 39.534L43.313 39.931 43.015 40.339 35.173 34.62 35.073 34.551 35.669 33.766 35.738 33.826 35.748 33.826z" transform="translate(-933 -334) translate(933 334)"/>
                    <path fill="#000" d="M4.971 59.164L0 59.164 0 52.219 4.822 52.219 4.822 53.578 1.389 53.578 1.389 54.78 3.383 54.78 3.383 56.129 1.389 56.129 1.389 57.805 4.971 57.805zM8.943 57.637v-.655c-.238-.15-.467-.218-.952-.218-.516 0-.794.237-.794.654 0 .368.208.694.794.694.446 0 .803-.227.952-.475zm1.369 1.527h-1.37v-.347c-.247.258-.683.457-1.17.457-.972 0-1.944-.595-1.944-1.856 0-1.15.932-1.726 2.113-1.726.476 0 .783.1 1.002.208v-.258c0-.367-.248-.665-.745-.665-.624 0-.952.09-1.428.349l-.526-.953c.605-.348 1.112-.526 1.954-.526 1.261 0 2.114.655 2.114 1.825v3.492zM15.713 57.646c0 1.2-.953 1.628-2.124 1.628-.823 0-1.627-.239-2.183-.606l.457-1.042c.556.308 1.14.477 1.806.477.536 0 .694-.13.694-.396 0-.24-.188-.359-.764-.527-1.25-.377-2.054-.684-2.054-1.786 0-1.08.864-1.547 2.084-1.547.655 0 1.369.198 1.925.506l-.437 1.08c-.516-.276-1.081-.415-1.518-.415-.555 0-.704.109-.704.336 0 .219.158.309 1.081.607.932.306 1.737.644 1.737 1.685M21.609 53.956L18.929 61H17.58l.695-1.836-2.024-5.208h1.508l.853 2.51c.14.397.278.894.337 1.14.06-.257.199-.734.338-1.14l.854-2.51h1.468zM117.877 59.164L116.489 59.164 116.489 56.248 113.641 56.248 113.641 59.164 112.252 59.164 112.252 52.219 113.641 52.219 113.641 54.879 116.489 54.879 116.489 52.219 117.877 52.219zM122.307 57.637v-.655c-.238-.15-.467-.218-.953-.218-.515 0-.794.237-.794.654 0 .368.208.694.794.694.447 0 .804-.227.953-.475zm1.369 1.527h-1.37v-.347c-.247.258-.683.457-1.17.457-.972 0-1.945-.595-1.945-1.856 0-1.15.933-1.726 2.113-1.726.477 0 .784.1 1.003.208v-.258c0-.367-.248-.665-.745-.665-.625 0-.952.09-1.428.349l-.526-.953c.605-.348 1.11-.526 1.954-.526 1.261 0 2.114.655 2.114 1.825v3.492zM128.362 54.213l-.357 1.34c-.219-.199-.487-.337-.794-.337-.536 0-.883.227-.883 1.13v2.818h-1.37v-5.209h1.37v.348c.237-.247.586-.456 1.071-.456.447 0 .784.179.963.366M131.916 57.547v-1.964c-.208-.288-.525-.447-.923-.447-.525 0-.813.457-.813 1.33 0 1.072.356 1.517.892 1.517.427 0 .645-.177.844-.436zm1.369 1.618h-1.369v-.328c-.258.228-.605.437-1.1.437-1.113 0-2.025-.834-2.025-2.779 0-1.557.734-2.648 2.024-2.648.457 0 .853.178 1.101.407v-1.637l1.369-.685v7.233zM32.701 18.425c-2.13-2.462-2.817-2.77-3.382-2.283l-.228.198 5.247 6.066.205-.177c.54-.467.361-1.257-1.842-3.804m1.371-1.207c2.495 2.883 3.004 4.858 1.48 6.177l-1.538 1.33-7.274-8.41 1.67-1.443c1.633-1.413 3.408-.26 5.662 2.346M40.202 19.791l-1.389.98-4.803-6.816 1.39-.979 4.802 6.815zm-5.94-8.675c.32.454.226 1.064-.228 1.384-.455.321-1.061.204-1.382-.25-.33-.467-.235-1.078.22-1.398.454-.32 1.06-.204 1.39.264zM39.004 8.903c-.169.027-.362.107-.554.222-.3.178-.356.454-.136.822l.514.858.777-.465.809 1.35-.778.466 3.479 5.807-1.432.857-3.478-5.807-.532.318-.808-1.35.532-.318-.638-1.063c-.677-1.132-.349-2.069.455-2.55.478-.286.69-.395.998-.469l.792 1.322zM43.15 6.822c-.17.014-.37.076-.57.175-.313.155-.393.425-.202.808l.442.898.812-.402.696 1.41-.811.4 2.994 6.066-1.496.739-2.994-6.066-.555.274-.696-1.41.556-.273-.55-1.111c-.583-1.182-.18-2.089.66-2.504.498-.246.72-.337 1.031-.386l.682 1.382zM49.897 14.721l-1.575.637-3.125-7.73 1.575-.636 3.125 7.73zm-3.808-9.8c.209.514-.023 1.088-.538 1.296-.515.209-1.079-.042-1.287-.558-.215-.53.015-1.103.53-1.312.516-.208 1.08.044 1.295.574zM54.713 10.687c.204 1.665-.182 2.693-1.339 3.042-1.384.418-2.596-.411-3.504-3.422-.918-3.042-.526-4.438 1.04-4.91 1.308-.395 2.156.544 2.731 1.846l-1.367.861c-.366-.884-.605-1.293-.956-1.188-.547.165-.386 1.03.17 2.87.569 1.885.886 2.603 1.447 2.433.305-.091.345-.453.196-1.553l1.582.021zM60.75 11.928l-1.657.296-.072-.406c-.27.386-.586.7-1.194.809-.986.176-1.549-.272-1.823-1.804l-1.126-6.315 1.657-.295 1.082 6.064c.093.515.248.762.561.707.266-.048.437-.175.626-.386l-1.175-6.58 1.658-.297 1.463 8.207zM63.843 11.675L62.149 11.815 61.261 1.019 62.893.136zM68.39 9.886l-.134 1.575c-.346.18-.678.28-1.139.289-1.047.017-1.565-.595-1.586-1.849l-.081-5.063-.62.01-.026-1.572.62-.01-.041-2.493L67.053 0l.053 3.238 1.096-.018.025 1.572-1.096.019.077 4.666c.007.444.153.665.438.66.302-.005.476-.087.744-.25M74.788 3.725l-3.41 11.007-1.66-.156.975-2.749-.933-8.575 1.74.163.107 2.26c.05 1.17.092 2.929.063 4.074.171-1.132.573-2.865.854-3.987l.541-2.2 1.723.163zM84.108 14.64l-1.516-.472.862-2.775c.4-1.288.827-2.502 1.197-3.584-.41.786-1.25 2.255-1.842 3.252l-1.757 2.98.256-3.447c.078-1.107.242-2.868.34-3.718-.295 1.004-.658 2.39-1.045 3.632l-.861 2.775-1.517-.472 3.298-10.613 1.667.518-.305 3.446c-.085 1.021-.209 2.33-.387 3.222.36-.836 1.019-1.994 1.528-2.884l1.712-2.993 1.667.519-3.297 10.614zM90.023 11.905c.567-1.277.7-2.005.311-2.187-.387-.184-.79.223-1.503 1.625l1.192.562zm.896 1.897l-2.67-1.259c-.717 1.592-.753 2.19-.322 2.394.315.148.546-.041 1.126-.716l1.112 1.068c-.901.98-1.718 1.56-2.94.984-1.507-.71-1.335-2.526-.24-4.852 1.206-2.557 2.45-3.707 4.002-2.975 1.364.643 1.36 2.325.148 4.896l-.216.46zM93.893 17.857l-.948 1.264c-.39-.03-.725-.122-1.119-.36-.898-.541-1.013-1.335-.364-2.41l2.618-4.339-.53-.32.814-1.346.53.32 1.288-2.136 1.828.232-1.675 2.775.938.565-.812 1.348-.938-.567-2.414 4c-.23.38-.223.645.022.792.259.156.45.178.762.182M99.061 17.504c.813-1.137 1.09-1.823.747-2.08-.344-.257-.82.06-1.8 1.29l1.053.79zm.497 2.04l-2.364-1.772c-1.022 1.417-1.178 1.995-.798 2.28.28.21.544.071 1.249-.473l.874 1.27c-1.08.78-1.998 1.183-3.078.373-1.334-1-.801-2.745.743-4.804 1.696-2.261 3.146-3.139 4.52-2.11 1.207.905.864 2.555-.841 4.83l-.305.406zM106.463 19.446l-1.404 1.19c-.046-.324-.146-.546-.413-.794-.222-.204-.472-.285-.752-.262l-4.423 4.782-1.236-1.142 5.663-6.125 1.236 1.143-.28.304c.447-.063.866 0 1.192.303.291.269.364.423.417.601M70.2 58.326c-.582 1.816-2.526 2.817-4.342 2.236-1.817-.581-2.818-2.526-2.236-4.342l14.243-35.588c.369-.79 1.562-.408 1.404.45L70.2 58.325z" transform="translate(-933 -334) translate(933 334)"/>
                </g>
            </g>
        </g>
    </g>
</svg>
