<?xml version="1.0" encoding="UTF-8"?>
<svg width="80px" height="80px" viewBox="0 0 80 80" version="1.1" xmlns="http://www.w3.org/2000/svg" xmlns:xlink="http://www.w3.org/1999/xlink">
    <!-- Generator: Sketch 49.1 (51147) - http://www.bohemiancoding.com/sketch -->
    <title>assets/img_domain_tumblr</title>
    <desc>Created with Sketch.</desc>
    <defs></defs>
    <g id="Freshness" stroke="none" stroke-width="1" fill="none" fill-rule="evenodd">
        <g id="Freeform-Icons" transform="translate(-560.000000, -1380.000000)">
            <g id="assets/img_domain_tumblr" transform="translate(560.000000, 1380.000000)">
                <circle id="Oval-7" fill="#353167" cx="40" cy="40" r="40"></circle>
                <g id="tumblr" transform="translate(27.000000, 18.000000)" fill="#FFFFFF" fill-rule="nonzero">
                    <path d="M26.7769565,42.1673252 C25.2432737,43.7895137 21.6890793,44.8905775 18.5063939,44.9425532 L18.1569821,44.9425532 C7.46470588,44.9425532 5.14242967,37.1571429 5.14242967,32.61269 L5.14242967,19.987386 L0.930153453,19.987386 C0.695915063,19.987386 0.471270468,19.8952308 0.305638914,19.7311935 C0.14000736,19.5671561 0.0469565217,19.3446738 0.0469565217,19.11269 L0.0469565217,13.1505319 C0.0473738703,12.5216648 0.447603112,11.9612036 1.04616368,11.7512918 C6.53524297,9.83639818 8.25675192,5.09224924 8.5115601,1.48609422 C8.58061381,0.522492401 9.08953964,0.0553951368 9.9340665,0.0553951368 L16.2124297,0.0553951368 C16.7002059,0.0553951368 17.0956266,0.447009897 17.0956266,0.930091185 L17.0956266,11.0277356 L24.4450128,11.0277356 C24.9319818,11.0273561 25.3273774,11.4174164 25.3289003,11.899696 L25.3289003,19.0648176 C25.3287172,19.2968015 25.2354907,19.5192118 25.0697297,19.6831209 C24.9039686,19.84703 24.6792512,19.9390112 24.4450128,19.9388298 L17.0617903,19.9388298 L17.0617903,31.6148936 C17.0617903,34.5467325 19.0125575,35.3557751 20.2175448,35.3557751 C21.3735038,35.3284195 22.511509,34.9796353 23.0818926,34.7525836 C23.5051918,34.5843465 23.8773913,34.4728723 24.2102302,34.5556231 C24.5202813,34.6322188 24.7239898,34.849696 24.8614066,35.2463526 L26.8094118,40.8816109 C26.9675448,41.3329787 27.1035806,41.8219605 26.7769565,42.1673252 Z" id="Shape"></path>
                </g>
            </g>
        </g>
    </g>
</svg>