<?xml version="1.0" encoding="UTF-8"?>
<svg width="200px" height="200px" viewBox="0 0 200 200" version="1.1" xmlns="http://www.w3.org/2000/svg" xmlns:xlink="http://www.w3.org/1999/xlink">
    <!-- Generator: Sketch 49.2 (51160) - http://www.bohemiancoding.com/sketch -->
    <title>assets/img_photos</title>
    <desc>Created with Sketch.</desc>
    <defs></defs>
    <g id="Freshness" stroke="none" stroke-width="1" fill="none" fill-rule="evenodd">
        <g id="Circular-Icons" transform="translate(-500.000000, -1250.000000)">
            <g id="assets/img_photos" transform="translate(500.000000, 1250.000000)">
                <circle id="background" fill="#353167" cx="100" cy="100" r="100"></circle>
                <g id="Group" transform="translate(45.000000, 45.000000)">
                    <path d="M110,106.5625 C110,108.46 108.46,110 106.5625,110 L30.9375,110 C29.04,110 27.5,108.46 27.5,106.5625 L27.5,30.9375 C27.5,29.04 29.04,27.5 30.9375,27.5 L106.5625,27.5 C108.46,27.5 110,29.04 110,30.9375 L110,106.5625 Z" id="Fill-1673" fill="#F0F1F1"></path>
                    <polygon id="Fill-1674" fill="#8B88AA" points="103.125 34.375 34.375 34.375 34.375 89.375 103.125 89.375"></polygon>
                    <path d="M82.5,79.0625 C82.5,80.96 80.96,82.5 79.0625,82.5 L3.4375,82.5 C1.54,82.5 0,80.96 0,79.0625 L0,3.4375 C0,1.54 1.54,0 3.4375,0 L79.0625,0 C80.96,0 82.5,1.54 82.5,3.4375 L82.5,79.0625 Z" id="Fill-1675" fill="#FFFFFF"></path>
                    <polygon id="Fill-1676" fill="#40C9E7" points="75.625 6.875 6.875 6.875 6.875 61.875 75.625 61.875"></polygon>
                    <g transform="translate(6.875000, 6.875000)">
                        <polygon id="Fill-7817" fill="#8B88AA" points="68.75 55 0 55 0 0 68.75 0"></polygon>
                        <polygon id="Fill-7818" fill="#638A3A" points="68.75 55 0 55 0 26.640625 68.75 26.640625"></polygon>
                        <path d="M14.3229167,26.640625 C12.2933594,27.7041016 5.48997396,30.8945312 11.4583333,35.1484375 C8.59375,37.984375 2.86458333,46.4921875 17.1875,49.328125 C18.6197917,45.0742188 17.1875,43.65625 17.1875,43.65625 C17.1875,43.65625 12.890625,43.65625 12.890625,39.4023438 C12.890625,36.5664062 17.1875,35.1484375 17.1875,33.7304688 C17.1875,32.3125 8.11679688,32.3125 16.7105469,26.640625 L14.3229167,26.640625 Z" id="Fill-7819" fill="#8B88AA"></path>
                        <path d="M11.4583333,35.1484375 C5.48997396,30.8945312 12.2933594,27.7041016 14.3229167,26.640625 L0,26.640625 L0,55 L0.233463542,55 L9.41875,45.9065664 C5.82369792,42.2127578 9.38723958,37.1988203 11.4583333,35.1484375" id="Fill-7820" fill="#81B44C"></path>
                        <path d="M68.75,9.625 L68.75,26.640625 L45.8333333,26.640625 C45.8333333,17.2394922 59.2539062,9.625 68.75,9.625" id="Fill-7821" fill="#EBEAF4"></path>
                        <path d="M50.122474,42.2396992 C50.1253385,42.2396992 50.1267708,42.2396992 50.1296354,42.2382812 C59.8133594,-9.79691797 10.9521615,-6.31155078 22.8530729,37.4327852 C22.759974,37.5462227 22.2414844,38.1573672 22.0853646,38.3530469 C17.2313281,43.9823828 11.4577604,49.2430469 11.4577604,55 L34.3744271,55 L57.2910938,55 C57.2910938,50.5844453 53.8951302,46.4609922 50.122474,42.2396992" id="Fill-7822" fill="#FFFFFF"></path>
                        <path d="M40.111901,25.543968 C41.6773958,23.4269406 42.9521354,20.2067336 42.9521354,15.2963078 C40.4083854,14.0314797 36.42375,11.6691438 34.3583854,9.62443281 C31.4938021,12.4603703 25.7646354,15.2963078 25.7646354,15.2963078 C25.7646354,20.2067336 27.0408073,23.4269406 28.6063021,25.543968 C28.7910677,25.7949484 28.9801302,26.0317492 29.1720573,26.2529523 C28.7280469,30.3877492 25.6099479,34.1609641 22.570625,37.7725305 C24.5758333,39.8002258 29.0732292,43.6556828 34.3583854,43.6556828 C39.6435417,43.6556828 44.1409375,39.8002258 46.1461458,37.7725305 C42.930651,33.9511047 40.239375,29.9651945 40.111901,25.543968" id="Fill-7823" fill="#F7B4B4"></path>
                        <path d="M0,9.625 C0,9.625 12.890625,8.20703125 12.890625,18.1328125 C15.2510417,18.1328125 19.5479167,19.1041211 20.9902344,23.4076562 C21.5688802,3.98432031 37.4358073,-1.55851953 46.018099,9.67179297 L56.0646725,4.77048956e-17 L0,4.77048956e-17 L0,9.625 Z" id="Fill-7826" fill="#EBEAF4"></path>
                        <path d="M57.2916667,55 L34.375,55 C40.1614583,55 45.0026042,42.975625 46.6640625,38.3530469 C51.5195312,43.9823828 57.2916667,49.2430469 57.2916667,55" id="Fill-7827" fill="#353167"></path>
                        <path d="M34.375,55 L11.4583333,55 C11.4583333,49.2430469 17.2304687,43.9823828 22.0859375,38.3530469 C23.7473958,42.975625 28.5885417,55 34.375,55" id="Fill-7828" fill="#353167"></path>
                        <path d="M0,9.625 C0,9.625 12.890625,8.20703125 12.890625,18.1328125 C15.7552083,18.1328125 21.484375,19.5507813 21.484375,26.640625 L0,26.640625 L0,9.625 Z" id="Fill-7829" fill="#8B88AA"></path>
                        <path d="M16.7098307,26.640625 C8.11608073,32.3125 17.1867839,32.3125 17.1867839,33.7304688 C17.1867839,35.1484375 12.8899089,36.5664062 12.8899089,39.4023438 C12.8899089,40.4459687 13.1505859,41.2315234 13.5416016,41.8242344 L21.9248047,33.5262813 C21.4335286,31.085957 21.1470703,28.7931016 21.032487,26.640625 L16.7098307,26.640625 Z" id="Fill-7830" fill="#81B44C"></path>
                        <path d="M12.890625,39.4023438 C12.890625,36.5664062 17.1875,35.1484375 17.1875,33.7304688 C17.1875,32.3125 8.11679688,32.3125 16.7105469,26.640625 L14.3229167,26.640625 C12.2933594,27.7041016 5.48997396,30.8945312 11.4583333,35.1484375 C9.38723958,37.1988203 5.82369792,42.2127578 9.41875,45.9065664 L13.5408854,41.8242344 C13.1513021,41.2315234 12.890625,40.4459687 12.890625,39.4023438" id="Fill-7831" fill="#EBEAF4"></path>
                        <path d="M44.8297266,42.9645648 C44.8311589,42.9603109 44.8325911,42.957475 44.8340234,42.9532211 C44.8325911,42.957475 44.8311589,42.9617289 44.8297266,42.9645648 L44.8297266,42.9645648 Z" id="Fill-7832" fill="#3E3E3F"></path>
                        <path d="M46.6642057,38.3527633 C47.7957161,39.6643844 48.9759245,40.9561539 50.1231901,42.2394156 C50.1246224,42.2394156 50.127487,42.2394156 50.1303516,42.2379977 C59.8112109,-9.79152969 10.974362,-6.30474453 22.8609505,37.4254117 C25.8057422,33.920193 28.7419401,30.2561617 29.1716276,26.2532359 C28.9797005,26.0320328 28.790638,25.795232 28.6058724,25.5442516 C27.0403776,23.4272242 25.765638,20.2070172 25.765638,15.2965914 C25.765638,15.2965914 31.4948047,12.4606539 34.359388,9.62471641 C36.4233203,11.6694273 40.4079557,14.0317633 42.953138,15.2965914 C42.953138,20.2070172 41.6783984,23.4272242 40.1114714,25.5442516 C40.2489714,30.288775 43.5002734,34.8007516 46.6642057,38.3527633" id="Fill-7833" fill="#353167"></path>
                        <path d="M34.375,9.625 C31.5104167,12.4609375 25.78125,15.296875 25.78125,15.296875 C25.78125,19.2175586 26.6105469,23.3310859 29.2244792,26.2988945 L41.2557292,14.387957 C39.335026,13.3258984 36.2470052,11.4782852 34.375,9.625" id="Fill-7834" fill="#FBC8C8"></path>
                        <path d="M21.0319141,26.640625 C21.1479297,28.7931016 21.434388,31.085957 21.9242318,33.5262813 L29.2246224,26.2988945 C29.0198047,26.0663477 28.8192839,25.8111133 28.6216276,25.5445352 C27.0561328,23.4260898 25.7813932,20.2073008 25.7813932,15.296875 C25.7813932,15.296875 31.5105599,12.4609375 34.3751432,9.625 C36.2471484,11.4782852 39.3351693,13.3258984 41.2558724,14.387957 L46.0182422,9.67179297 C36.971888,-2.16399219 19.8474089,4.63658594 21.0319141,26.640625" id="Fill-7835" fill="#8B88AA"></path>
                    </g>
                </g>
            </g>
        </g>
    </g>
</svg>