<?xml version="1.0" encoding="UTF-8"?>
<svg width="60px" height="60px" viewBox="0 0 60 60" version="1.1" xmlns="http://www.w3.org/2000/svg" xmlns:xlink="http://www.w3.org/1999/xlink">
    <title>github_no circle</title>
    <g id="github_no-circle" stroke="none" stroke-width="1" fill="none" fill-rule="evenodd">
        <path d="M0,31.0766013 C0,44.3645878 8.59510728,55.6363895 20.5162835,59.6133692 C22.0172504,59.8903177 22.5642285,58.9616172 22.5642285,58.1640057 C22.5642285,57.4494787 22.538445,55.558844 22.5237116,53.049691 C14.1790724,54.8664728 12.418429,49.0173217 12.418429,49.0173217 C11.0537463,45.5425418 9.08683508,44.617534 9.08683508,44.617534 C6.36299457,42.7527478 9.29310292,42.7896743 9.29310292,42.7896743 C12.3042451,43.0020014 13.8880874,45.8896505 13.8880874,45.8896505 C16.5640443,50.4851484 20.9104024,49.1576422 22.6194788,48.3877255 C22.892047,46.4453937 23.6673931,45.1197338 24.523773,44.3682804 C17.8624267,43.6094417 10.8585285,41.0282821 10.8585285,29.5035341 C10.8585285,26.2207719 12.0279935,23.5343719 13.9470211,21.4332564 C13.6376193,20.6725713 12.6081218,17.6132141 14.2416894,13.473758 C14.2416894,13.473758 16.7592621,12.6650686 22.4905614,16.5571174 C24.8829,15.8887485 27.450198,15.5564103 30.0009208,15.5434861 C32.549802,15.5564103 35.1152583,15.8887485 37.5112803,16.5571174 C43.2388962,12.6650686 45.7527855,13.473758 45.7527855,13.473758 C47.3900365,17.6132141 46.360539,20.6725713 46.0529789,21.4332564 C47.9756899,23.5343719 49.1359465,26.2207719 49.1359465,29.5035341 C49.1359465,41.0578233 42.1209982,43.60021 35.4393935,44.3442782 C36.5149329,45.2729787 37.4744467,47.1082237 37.4744467,49.9127883 C37.4744467,53.9340797 37.4376132,57.1780692 37.4376132,58.1640057 C37.4376132,58.9690025 37.9790663,59.9050882 39.5002916,59.6115229 C51.4122594,55.6253116 60,44.3608951 60,31.0766013 C60,14.4652335 46.5668068,1 29.9972375,1 C13.4331932,1 0,14.4652335 0,31.0766013 Z" id="Fill-51" fill="#000"></path>
    </g>
</svg>