<?xml version="1.0" encoding="UTF-8" standalone="no"?>
<svg width="128px" height="120px" viewBox="0 0 128 120" version="1.1" xmlns="http://www.w3.org/2000/svg" xmlns:xlink="http://www.w3.org/1999/xlink">
    <!-- Generator: Sketch 40 (33762) - http://www.bohemiancoding.com/sketch -->
    <title>assets/img_none_returned</title>
    <desc>Created with Sketch.</desc>
    <defs></defs>
    <g id="Freshness" stroke="none" stroke-width="1" fill="none" fill-rule="evenodd">
        <g id="Freeform-Icons" transform="translate(-750.000000, -980.000000)">
            <g id="assets/img_none_returned" transform="translate(750.000000, 980.000000)">
                <path d="M12,120 C7.84,120 3.978,117.846 1.792,114.308 C-0.394,110.77 -0.594,106.354 1.266,102.634 L53.266,6.634 C55.3,2.568 59.454,0 64,0 C68.546,0 72.7,2.568 74.734,6.634 L126.734,102.634 C128.594,106.354 128.394,110.77 126.208,114.308 C124.022,117.846 120.16,120 116,120 L12,120 Z" id="Fill-2510" fill="#DB3262"></path>
                <path d="M64,0 C59.454,0 55.3,2.568 53.266,6.634 L1.266,102.634 C-0.592,106.354 -0.394,110.772 1.792,114.308 C3.978,117.846 7.84,120 12,120 L64,120 L64,0 Z" id="Fill-2511" fill="#F0386B"></path>
                <path d="M63.9462,85.8842 C68.4102,85.8842 71.6782,89.1522 71.6782,93.3982 L71.6782,94.4862 C71.6782,98.7342 68.4102,102.0002 63.9462,102.0002 C59.5902,102.0002 56.2162,98.7342 56.2162,94.4862 L56.2162,93.3982 C56.2162,89.1522 59.5902,85.8842 63.9462,85.8842 L63.9462,85.8842 Z M56.2162,37.5902 C55.9982,34.9762 57.5222,32.9062 60.0262,32.9062 L67.8662,32.9062 C70.3702,32.9062 72.0042,34.9762 71.7862,37.5902 L71.0982,74.0162 C70.8802,76.4102 66.1242,77.9362 63.9462,77.9362 C61.7682,77.9362 57.3142,76.4102 57.0982,74.0162 L56.2162,37.5902 Z" id="Fill-2512" fill="#FFFFFF"></path>
            </g>
        </g>
    </g>
</svg>