<svg xmlns="http://www.w3.org/2000/svg" width="61" height="60" viewBox="0 0 61 60">
    <g fill="none" fill-rule="evenodd">
        <path fill="#DFD1E9" d="M22.425 45L13.847 31.426 31.003 31.426z" transform="translate(8 7.5)"/>
        <path fill="#F7B4B4" d="M24.323 31.427h-3.796c-.611 0-1.194-.261-1.6-.718l-3.65-2.854v3.214s0 5.357 7.148 5.357 7.148-5.357 7.148-5.357v-3.214l-3.649 2.854c-.407.457-.99.718-1.601.718" transform="translate(8 7.5)"/>
        <path fill="#FBC8C8" d="M18.926 30.71l-3.65-2.855v3.214s0 5.357 7.149 5.357v-5h-1.898c-.611 0-1.194-.26-1.6-.717" transform="translate(8 7.5)"/>
        <path fill="#FFF" d="M13.847 31.426L15.277 30.712 22.414 34.27 18.136 38.569zM31.003 31.426L29.573 30.712 22.436 34.27 26.714 38.569z" transform="translate(8 7.5)"/>
        <path fill="#C33F72" d="M25.284 45L23.284 37.714 24.57 36.43 22.411 34.27 20.268 36.411 21.568 37.709 19.566 45z" transform="translate(8 7.5)"/>
        <path fill="#D46791" d="M22.425 45L22.425 34.284 22.411 34.27 20.268 36.411 21.568 37.709 19.566 45z" transform="translate(8 7.5)"/>
        <path fill="#AD7DCF" d="M0 45l2.41-7.857c.439-.952 1.213-1.71 2.175-2.13l9.262-3.584L22.425 45H0zM45 45l-2.56-7.857c-.439-.952-1.213-1.71-2.175-2.13l-9.262-3.584L22.425 45H45z" transform="translate(8 7.5)"/>
        <path fill="#FFF" d="M38.866 44.286c0 .393-.321.714-.714.714h-7.864c-.393 0-.715-.321-.715-.714v-5c0-.393.322-.715.715-.715h7.864c.393 0 .714.322.714.715v5z" transform="translate(8 7.5)"/>
        <path fill="#8B88AA" d="M33.148 44.286L30.288 44.286 30.288 40.714 33.148 40.714z" transform="translate(8 7.5)"/>
        <path fill="#DFD1E9" d="M38.152 38.571h-2.86v-.357c0-.589-.482-1.071-1.072-1.071-.59 0-1.072.482-1.072 1.071v.357h-2.86c-.393 0-.715.322-.715.715V40h9.293v-.714c0-.393-.321-.715-.714-.715" transform="translate(8 7.5)"/>
        <path fill="#FBC8C8" d="M33.65 15.127l-1.367 2.73-.811-7.774-11.643 4.654 1.552-5.43s-3.774 2.695-7.216 5.274l-.468 3.99-1.28-2.132v4.273l2.86 7.143 3.65 2.854c.406.456.989.718 1.6.718h3.796c.612 0 1.194-.262 1.6-.718l3.65-2.854 2.293-5.726c2.026-.146 2.711-3.218 2.711-5.542 0-.604-.414-1.205-.928-1.46" transform="translate(8 7.5)"/>
        <path fill="#FBD7D7" d="M19.83 14.737l1.551-5.43s-3.774 2.695-7.216 5.274l-.468 3.99-2.133-3.552c-.665.093-1.292.826-1.292 1.568 0 2.324.685 5.396 2.713 5.542l2.291 5.726 3.65 2.854c.407.456.99.718 1.602.718h1.897V13.699l-2.596 1.038z" transform="translate(8 7.5)"/>
        <path fill="#84462D" d="M22.934 0C16.504 0 11.29 5.209 11.29 11.634c0 1.028.262 3.366.262 3.366l2.144 3.571.469-3.99c3.44-2.579 7.215-5.274 7.215-5.274l-1.552 5.43 11.643-4.654.811 7.774L33.713 15s.715-1.429.864-3.366C34.577 5.21 29.365 0 22.934 0" transform="translate(8 7.5)"/>
        <path fill="#000" d="M20.28 16.426c0-.788-.64-1.428-1.43-1.428h-.004c.001.016.005.03.005.045 0 .787-.638 1.425-1.426 1.428.025.767.652 1.384 1.426 1.384.789 0 1.43-.64 1.43-1.429M27.424 16.426c0-.788-.64-1.428-1.43-1.428h-.004c.001.016.005.03.005.045 0 .787-.638 1.425-1.426 1.428.024.767.652 1.384 1.426 1.384.789 0 1.43-.64 1.43-1.429" transform="translate(8 7.5)"/>
        <path fill="#F79392" d="M18.85 23.57H26s0 2.142-3.575 2.142c-3.574 0-3.574-2.143-3.574-2.143" transform="translate(8 7.5)"/>
        <path fill="#8736C1" d="M25.155 25h-5.46c-.549 0-1.03.285-1.307.714h-.967c-1.484 0-4.289-.895-4.289-4.285V15h-1.668c-1.842 0-3.336 1.492-3.336 3.334 0 1.84 1.494 3.332 3.336 3.332h.25c.13 4.008 3.453 5.477 5.707 5.477h.83c.232.57.79.974 1.444.974h5.46c.86 0 1.56-.698 1.56-1.558 0-.861-.7-1.559-1.56-1.559" transform="translate(8 7.5)"/>
    </g>
</svg>
