<svg xmlns="http://www.w3.org/2000/svg" width="36" height="36" viewBox="0 0 36 36">
    <g fill="none" fill-rule="evenodd">
        <g fill-rule="nonzero">
            <g>
                <g>
                    <path fill="#FF4722" d="M13.923 1.565c3.62 0 6.574 2.848 6.744 6.425l.008.327v.573c0 .432-.35.783-.783.783-.384 0-.703-.277-.77-.642l-.012-.14v-.574c0-2.864-2.322-5.187-5.187-5.187-2.766 0-5.026 2.165-5.18 4.836l-.01.288.337 4.166c.035.431-.286.808-.717.843-.383.031-.723-.22-.819-.578l-.024-.139-.339-4.229c0-3.729 3.023-6.752 6.752-6.752z" transform="translate(-380 -5372) translate(380 5372) translate(3.79) rotate(-15 13.923 7.416)"/>
                    <path fill="#FF4722" d="M12.944 18.653c.465 0 .852.277.932.642l.015.14v7.827c0 .432-.424.782-.947.782-.465 0-.852-.276-.932-.642l-.015-.14v-7.826c0-.433.424-.783.947-.783z" transform="translate(-380 -5372) translate(380 5372) translate(3.79)"/>
                    <path fill="#8736C1" d="M20.888 12.986H4.67c-2.58 0-4.67 2.09-4.67 4.67v12.277c0 2.58 2.09 4.67 4.67 4.67h16.218c2.579 0 4.67-2.09 4.67-4.67V17.656c0-2.58-2.09-4.67-4.67-4.67zM4.67 14.55h16.218c1.715 0 3.105 1.39 3.105 3.105v12.277c0 1.715-1.39 3.105-3.105 3.105H4.67c-1.715 0-3.105-1.39-3.105-3.105V17.656c0-1.715 1.39-3.105 3.105-3.105z" transform="translate(-380 -5372) translate(380 5372) translate(3.79)"/>
                </g>
            </g>
        </g>
    </g>
</svg>
