<?xml version="1.0" encoding="UTF-8"?>
<svg width="80px" height="80px" viewBox="0 0 80 80" version="1.1" xmlns="http://www.w3.org/2000/svg" xmlns:xlink="http://www.w3.org/1999/xlink">
    <!-- Generator: Sketch 49.1 (51147) - http://www.bohemiancoding.com/sketch -->
    <title>assets/img_domain_tmobile</title>
    <desc>Created with Sketch.</desc>
    <defs></defs>
    <g id="Freshness" stroke="none" stroke-width="1" fill="none" fill-rule="evenodd">
        <g id="Freeform-Icons" transform="translate(-80.000000, -1380.000000)">
            <g id="assets/img_domain_tmobile" transform="translate(80.000000, 1380.000000)">
                <circle id="Oval-11" fill="#353167" cx="40" cy="40" r="40"></circle>
                <g id="logo" transform="translate(22.000000, 18.000000)">
                    <g id="Group-2">
                        <polygon id="path18" fill="#FFFFFF" points="0 20.3911111 9.02968182 20.3911111 9.02968182 29.5227778 0 29.5227778"></polygon>
                        <path d="M21.6859242,2.16388889 L22.7572424,2.16388889 C29.676803,2.16388889 32.9019697,5.83222222 34.2496667,15.615 L36.392303,15.5211111 L36.1063939,0 L0.895848485,0 L0.548833333,15.5211111 L2.61074242,15.615 C2.96784848,11.9466667 3.39615152,9.97111111 4.32563636,7.99555556 C5.96877273,4.32666667 9.398,2.16388889 13.6126364,2.16388889 L15.1128182,2.16388889 L15.1128182,35.9327778 C15.1128182,39.5072222 14.8986667,40.6361111 14.0420606,41.4827778 C13.3272879,42.1411111 11.898303,42.4233333 10.2546061,42.4233333 L8.6114697,42.4233333 L8.6114697,44.6805556 L28.1872727,44.6805556 L28.1872727,42.4233333 L26.5340455,42.4233333 C24.901,42.4233333 23.4619242,42.1405556 22.757803,41.4827778 C21.9006364,40.6361111 21.6864848,39.5066667 21.6864848,35.9327778 L21.6864848,2.16388889" id="path20" fill="#ED008C"></path>
                        <polygon id="path22" fill="#FFFFFF" points="27.623303 20.3911111 36.6529848 20.3911111 36.6529848 29.5227778 27.623303 29.5227778"></polygon>
                    </g>
                </g>
            </g>
        </g>
    </g>
</svg>