<?xml version="1.0" encoding="UTF-8" standalone="no"?>
<svg width="300px" height="299px" viewBox="0 0 300 299" version="1.1" xmlns="http://www.w3.org/2000/svg" xmlns:xlink="http://www.w3.org/1999/xlink">
    <!-- Generator: Sketch 39.1 (31720) - http://www.bohemiancoding.com/sketch -->
    <title>assets/img_no_sex_offenders</title>
    <desc>Created with Sketch.</desc>
    <defs></defs>
    <g id="Freshness" stroke="none" stroke-width="1" fill="none" fill-rule="evenodd">
        <g id="Characters" transform="translate(0.000000, -701.000000)">
            <g id="assets/img_no_sex_offenders" transform="translate(0.000000, 700.000000)">
                <g id="Ex-Con" transform="translate(38.000000, 43.000000)">
                    <path d="M121.833281,133.323158 L112.499297,133.323158 L103.165313,133.323158 C100.155938,133.323158 97.2942188,132.042456 95.2938281,129.800351 L77.3430469,115.779298 L77.3430469,131.568772 C77.3430469,131.568772 77.3430469,157.884561 112.499297,157.884561 C147.655547,157.884561 147.655547,131.568772 147.655547,131.568772 L147.655547,115.779298 L129.708281,129.800351 C127.707891,132.042456 124.842656,133.323158 121.833281,133.323158" id="Fill-1703" fill="#F8B4B4"></path>
                    <path d="M95.2927734,129.798947 L77.3455078,115.777895 L77.3455078,131.567368 C77.3455078,131.567368 77.3455078,157.883158 112.501758,157.883158 L112.501758,133.321754 L103.167773,133.321754 C100.158398,133.321754 97.2931641,132.041053 95.2927734,129.798947" id="Fill-1704" fill="#FBC8C8"></path>
                    <path d="M172.265625,60.4491228 C172.265625,56.5508772 168.75,52.6526316 165.234375,52.6526316 C163.754297,52.6526316 162.643359,53.0070175 161.71875,53.4982456 C161.71875,21.4280702 158.516016,0.0105263158 112.5,0.0105263158 C66.88125,0.0105263158 63.3445313,21.0631579 63.28125,52.6421053 L63.28125,80.7017544 L77.34375,115.789474 L95.2910156,129.810526 C97.2914062,132.049123 100.156641,133.333333 103.166016,133.333333 L112.5,133.333333 L121.833984,133.333333 C124.843359,133.333333 127.708594,132.049123 129.708984,129.810526 L147.65625,115.789474 L158.927344,87.6736842 C168.897656,86.9578947 172.265625,71.8666667 172.265625,60.4491228" id="Fill-1705" fill="#FBC8C8"></path>
                    <path d="M63.28125,53.4985965 C62.3566406,53.0073684 61.2457031,52.6529825 59.765625,52.6529825 C56.25,52.6529825 52.734375,56.5512281 52.734375,60.4494737 C52.734375,71.8670175 56.1023438,86.9582456 66.0726563,87.6740351 L77.34375,115.789825 L95.2910156,129.810877 C97.2914062,132.052982 100.156641,133.333684 103.166016,133.333684 L112.5,133.333684 L112.5,0.010877193 C66.4980469,0.010877193 63.28125,21.414386 63.28125,53.4985965" id="Fill-1706" fill="#FBD7D7"></path>
                    <path d="M154.6875,133.333333 L147.65625,129.824561 C147.65625,129.824561 137.109375,157.905263 112.5,157.905263 C87.890625,157.905263 77.34375,129.824561 77.34375,129.824561 L70.3125,133.333333 L112.5,200.010526 L154.6875,133.333333 Z" id="Fill-1707" fill="#FFFFFF"></path>
                    <path d="M24.7605469,150.937895 C20.0320313,153.004561 16.2246094,156.727368 14.0625,161.404561 L9.09494702e-13,200.001053 L112.5,200.001053 L70.3125,133.334386 L24.7605469,150.937895 Z" id="Fill-1708" fill="#F37A10"></path>
                    <path d="M210.9375,161.403509 C208.775391,156.726316 204.967969,153.003509 200.239453,150.936842 L154.6875,133.333333 L112.5,200 L225,200 L210.9375,161.403509 Z" id="Fill-1709" fill="#F37A10"></path>
                    <path d="M101.930977,59.7768421 C101.930977,55.9031579 98.7809766,52.7592982 94.8997266,52.7592982 C94.8926953,52.7592982 94.8856641,52.762807 94.8786328,52.762807 C94.8821484,52.8364912 94.8997266,52.9066667 94.8997266,52.9803509 C94.8997266,56.8470175 91.7637891,59.9838596 87.8895703,59.994386 C88.0091016,63.7663158 91.0923047,66.794386 94.8997266,66.794386 C98.7809766,66.794386 101.930977,63.6540351 101.930977,59.7768421" id="Fill-1710" fill="#3E3E3F"></path>
                    <path d="M137.064727,59.7768421 C137.064727,55.9031579 133.914727,52.7592982 130.033477,52.7592982 C130.026445,52.7592982 130.019414,52.762807 130.012383,52.762807 C130.015898,52.8364912 130.033477,52.9066667 130.033477,52.9803509 C130.033477,56.8470175 126.897539,59.9838596 123.02332,59.994386 C123.142852,63.7663158 126.226055,66.794386 130.033477,66.794386 C133.914727,66.794386 137.064727,63.6540351 137.064727,59.7768421" id="Fill-1711" fill="#3E3E3F"></path>
                    <rect id="Rectangle-228" fill="#F37A10" x="30" y="196" width="165" height="33"></rect>
                    <polygon id="Fill-1712" fill="#F99134" points="77.34375 129.834737 70.3125 133.332982 112.5 199.999649 112.5 214.33328 77.34375 164.922456 45.703125 171.94 63.28125 122.817193 77.34375 121.08386"></polygon>
                    <polygon id="Fill-1713" fill="#F99134" points="147.65625 129.834737 154.6875 133.332982 112.5 199.999649 112.5 214.410373 147.65625 164.922456 179.296875 171.94 161.71875 122.817193 147.65625 119.308421"></polygon>
                    <path d="M119.53125,108.782105 L116.015625,105.273333 L112.5,105.273333 L108.984375,105.273333 L105.46875,108.782105 L98.4375,108.782105 L94.2785156,101.866316 C92.9777344,99.6978947 92.9425781,96.9996491 94.190625,94.7996491 C95.4386719,92.5996491 97.7765625,91.2382456 100.307812,91.2382456 L112.5,91.2382456 L124.692188,91.2382456 C127.223438,91.2382456 129.561328,92.5996491 130.809375,94.7996491 C132.057422,96.9996491 132.022266,99.6978947 130.721484,101.866316 L126.5625,108.782105 L119.53125,108.782105 Z M112.5,80.7119298 C112.5,80.7119298 91.40625,80.7119298 80.859375,87.7294737 C80.859375,112.290877 98.4375,129.834737 98.4375,129.834737 L112.5,136.852281 L126.5625,129.834737 C126.5625,129.834737 144.140625,112.290877 144.140625,87.7294737 C133.59375,80.7119298 112.5,80.7119298 112.5,80.7119298 L112.5,80.7119298 Z" id="Fill-1714" fill="#3E3E3F"></path>
                    <path d="M170.224453,185.937544 L166.508437,185.937544 L170.284219,180.569123 L170.224453,185.937544 Z M174.917812,185.877895 L174.917812,173.74807 L170.551406,173.74807 L161.948672,185.428772 C161.505703,184.688421 160.904531,184.004211 159.990469,183.534035 C162.127969,182.200702 162.307266,179.204211 161.474062,177.127018 C160.345547,174.341053 157.729922,173.449825 155.145937,173.449825 C152.769375,173.449825 150.241641,174.727018 148.518984,176.860351 L151.609219,179.590175 C152.917031,178.105965 155.501016,177.72 156.45375,179.204211 C157.047891,180.095439 156.573281,181.783158 155.205703,181.783158 L152.055703,181.783158 L152.055703,186.025263 L155.321719,186.025263 C156.840469,186.025263 157.613906,186.97614 157.613906,188.046316 C157.613906,189.169123 156.393984,189.853333 154.966641,189.853333 C153.718594,189.853333 152.354531,189.32 151.577578,188.070877 L148.132266,191.246316 C149.707266,193.888421 152.470547,195.042807 155.174063,195.042807 C158.457656,195.042807 161.653359,193.232281 162.546328,190.179649 L169.837734,190.179649 L169.837734,194.74807 L174.917812,194.74807 L174.917812,190.179649 L176.883047,190.179649 L176.883047,185.877895 L174.917812,185.877895 Z" id="Fill-1715" fill="#FFFFFF"></path>
                    <path d="M72.0703125,21.062807 L72.0703125,81.0031579 L65.0390625,81.0031579 C65.0390625,74.0698246 64.9652344,69.4978947 65.0390625,63.3891228 C65.1128906,57.1329825 63.5414063,52.6417544 60.2050781,52.6417544 C56.25,52.6417544 51.2121094,21.062807 72.0703125,21.062807" id="Fill-1716" fill="#3E3E3F"></path>
                    <path d="M153.325898,21.062807 L153.325898,81.0031579 L160.357148,81.0031579 C160.357148,74.0698246 160.430977,69.4978947 160.357148,63.3891228 C160.28332,57.1329825 161.854805,52.6417544 165.191133,52.6417544 C169.146211,52.6417544 174.184102,21.062807 153.325898,21.062807" id="Fill-1717" fill="#3E3E3F"></path>
                </g>
                <g id="Crossout">
                    <path d="M243.605625,213.402344 L87.59625,57.3929687 C105.455625,45.4632812 126.910313,38.4976562 150.000937,38.4976562 C212.13375,38.4976562 262.500937,88.8695313 262.500937,150.997656 C262.500937,174.088281 255.535313,195.542969 243.605625,213.402344 M37.5009375,150.997656 C37.5009375,125.502344 45.9946875,101.989844 60.29625,83.1226562 L217.875937,240.707031 C199.00875,255.003906 175.500937,263.502344 150.000937,263.502344 C87.868125,263.502344 37.5009375,213.130469 37.5009375,150.997656 M150.000937,0.99765625 C67.15875,0.99765625 0.0009375,68.1554688 0.0009375,150.997656 C0.0009375,233.844531 67.15875,300.997656 150.000937,300.997656 C232.843125,300.997656 300.000937,233.844531 300.000937,150.997656 C300.000937,68.1554688 232.843125,0.99765625 150.000937,0.99765625" id="Fill-2507" fill="#DF2C2C"></path>
                    <path d="M0,151 C0,192.348437 16.734375,229.792188 43.8,256.923438 L70.3125,230.40625 C50.0390625,210.0625 37.5,181.99375 37.5,151 C37.5,125.5 45.9984375,101.992188 60.2953125,83.125 L138.946875,161.776562 L165.464062,135.259375 L87.5953125,57.3953125 C105.454688,45.465625 126.914063,38.5 150,38.5 C180.99375,38.5 209.0625,51.0390625 229.40625,71.3125 L255.923437,44.8 C228.792187,17.734375 191.353125,1 150,1 C67.1578125,1 0,68.1578125 0,151" id="Fill-2509" fill="#FA5655"></path>
                </g>
            </g>
        </g>
    </g>
</svg>