<?xml version="1.0" encoding="UTF-8"?>
<svg width="240px" height="220px" viewBox="0 0 240 220" version="1.1" xmlns="http://www.w3.org/2000/svg" xmlns:xlink="http://www.w3.org/1999/xlink">
    <!-- Generator: Sketch 42 (36781) - http://www.bohemiancoding.com/sketch -->
    <title>assets/img_property_search_locked</title>
    <desc>Created with Sketch.</desc>
    <defs></defs>
    <g id="Freshness" stroke="none" stroke-width="1" fill="none" fill-rule="evenodd">
        <path d="M120,220 C175.228475,220 220,175.228475 220,120 C220,64.771525 175.228475,20 120,20 C64.771525,20 20,64.771525 20,120 C20,175.228475 64.771525,220 120,220 Z" id="background" fill="#3B2469"></path>
        <g id="assets/img_property_search_locked">
            <g id="property" transform="translate(60.000000, 56.000000)">
                <polygon id="Fill-2263" fill="#FFFFFF" points="111.386139 111.5625 7.42574257 111.5625 7.42574257 44.625 111.386139 44.625"></polygon>
                <path d="M103.960396,11.15625 C103.960396,9.10164062 102.29703,7.4375 100.247525,7.4375 L92.8217822,7.4375 C90.7722772,7.4375 89.1089109,9.10164062 89.1089109,11.15625 L89.1089109,33.46875 C89.1089109,35.5233594 90.7722772,37.1875 92.8217822,37.1875 L100.247525,37.1875 C102.29703,37.1875 103.960396,35.5233594 103.960396,33.46875 L103.960396,11.15625 Z" id="Fill-2264" fill="#E2E4E5"></path>
                <path d="M61.6856436,0.783354687 C60.345297,-0.261614063 58.4684406,-0.261614063 57.1262376,0.783354687 L1.43316832,37.9708547 C0.181930693,38.9470266 -0.313737624,40.6111672 0.20049505,42.1135422 C0.716584158,43.6159172 2.12561881,44.6255578 3.71287129,44.6255578 L115.09901,44.6255578 C116.684406,44.6255578 118.095297,43.6159172 118.611386,42.1135422 C119.125619,40.6111672 118.62995,38.9470266 117.378713,37.9708547 L61.6856436,0.783354687 Z" id="Fill-2265" fill="#DF2C2C"></path>
                <polygon id="Fill-2266" fill="#40C9E7" points="103.960396 87.6230469 64.9752475 87.6230469 64.9752475 59.5 103.960396 59.5"></polygon>
                <path d="M48.2673267,74.375 C48.2673267,66.1602812 41.6175743,59.5 33.4158416,59.5 C25.2141089,59.5 18.5643564,66.1602812 18.5643564,74.375 L18.5643564,104.125 L48.2673267,104.125 L48.2673267,74.375 Z" id="Fill-2267" fill="#84462D"></path>
                <path d="M44.5544554,85.53125 C44.5544554,87.5858594 42.8910891,89.25 40.8415842,89.25 C38.7920792,89.25 37.1287129,87.5858594 37.1287129,85.53125 C37.1287129,83.4766406 38.7920792,81.8125 40.8415842,81.8125 C42.8910891,81.8125 44.5544554,83.4766406 44.5544554,85.53125" id="Fill-2268" fill="#FACB1B"></path>
                <polygon id="Fill-2269" fill="#0D9681" points="118.811881 119 0 119 0 111.5625 118.811881 111.5625"></polygon>
                <path d="M0,111.5625 L5.79393564,105.759391 C6.83910891,104.712562 8.25556931,104.125 9.73329208,104.125 L109.078589,104.125 C110.556312,104.125 111.972772,104.712562 113.017946,105.759391 L118.811881,111.5625 L0,111.5625 Z" id="Fill-2270" fill="#17B198"></path>
            </g>
            <g id="lock" transform="translate(180.000000, 0.000000)">
                <path d="M20,35 L20,20 C20,14.48625 24.48625,10 30,10 C35.51375,10 40,14.48625 40,20 L40,35 L20,35 Z M55,35 L50,35 L50,20 C50,8.9725 41.0275,0 30,0 C18.9725,0 10,8.9725 10,20 L10,35 L5,35 C2.23875,35 0,37.23875 0,40 L0,75 C0,77.755 2.29875,80 5,80 L55,80 C57.76125,80 60,77.76125 60,75 L60,40 C60,37.23875 57.76125,35 55,35 L55,35 Z" id="Fill-6769" fill="#FACB1B"></path>
                <path d="M30,35 L5,35 C2.23875,35 0,37.23875 0,40 L0,75 C0,77.755 2.29875,80 5,80 L30,80 L30,35 Z" id="Fill-6770" fill="#FBE158"></path>
                <polygon id="Fill-6771" fill="#E9AE03" points="0 47.5 60 47.5 60 42.5 0 42.5"></polygon>
                <polygon id="Fill-6772" fill="#E8AD04" points="0 60 60 60 60 55 0 55"></polygon>
                <polygon id="Fill-6773" fill="#E8AD04" points="0 72.5 60 72.5 60 67.5 0 67.5"></polygon>
                <polygon id="Fill-6774" fill="#FACB1B" points="30 42.5 0 42.5 0 47.5 30 47.5"></polygon>
                <polygon id="Fill-6775" fill="#FACB1B" points="30 55 0 55 0 60 30 60"></polygon>
                <polygon id="Fill-6776" fill="#FACB1B" points="30 67.5 0 67.5 0 72.5 30 72.5"></polygon>
                <path d="M35,53.75 C35,50.98875 32.76125,48.75 30,48.75 C27.23875,48.75 25,50.98875 25,53.75 C25,55.6725 26.0975,57.3225 27.68875,58.15875 L25,72.5 L35,72.5 L32.31125,58.15875 C33.9025,57.3225 35,55.6725 35,53.75" id="Fill-6777" fill="#9C6144"></path>
            </g>
        </g>
    </g>
</svg>