<svg xmlns="http://www.w3.org/2000/svg" xmlns:xlink="http://www.w3.org/1999/xlink" width="28" height="28" viewBox="0 0 28 28">
    <defs>
        <path id="e8e068leya" d="M0 0.072L8.168 0.072 8.168 1.079 0 1.079z"/>
        <path id="u0z7iu1ioc" d="M0 0L21.533 0 21.533 12.932 0 12.932z"/>
        <path id="dfpzhcpvwe" d="M0 0L5.452 0 5.452 7.01 0 7.01z"/>
    </defs>
    <g fill="none" fill-rule="evenodd">
        <g>
            <g>
                <g>
                    <g>
                        <path fill="#8736C1" d="M9.254 3.335c-.239 0-.432-.194-.432-.432V.575c0-.238.193-.432.432-.432.238 0 .431.194.431.432v2.328c0 .238-.193.432-.431.432" transform="translate(-59.000000, -1848.000000) translate(39.000000, 336.000000) translate(16.964211, 1510.776842) translate(17.673112, 14.856555) rotate(31.000000) translate(-17.673112, -14.856555) translate(1.703833, 7.119712)"/>
                        <g transform="translate(-59.000000, -1848.000000) translate(39.000000, 336.000000) translate(16.964211, 1510.776842) translate(17.673112, 14.856555) rotate(31.000000) translate(-17.673112, -14.856555) translate(1.703833, 7.119712) translate(5.169903, 0.000000)">
                            <mask id="knjexfomjb" fill="#fff">
                                <use xlink:href="#e8e068leya"/>
                            </mask>
                            <path fill="#8736C1" d="M7.737.935H.432C.193.935 0 .742 0 .504 0 .265.193.072.432.072h7.305c.238 0 .431.193.431.432 0 .238-.193.431-.431.431" mask="url(#knjexfomjb)"/>
                        </g>
                        <path fill="#8736C1" d="M4.314 10.251c-.059 0-.118-.011-.173-.037L.578 8.651C.227 8.498 0 8.127 0 7.708V3.84c0-.363.168-.69.45-.874.244-.16.539-.187.806-.07l3.23 1.419c.22.095.32.35.224.568-.098.219-.356.316-.569.222L.91 3.686c0 .007-.046.058-.046.154v3.868c0 .09.043.146.061.153l3.562 1.564c.22.095.32.35.224.568-.073.163-.23.258-.396.258" transform="translate(-59.000000, -1848.000000) translate(39.000000, 336.000000) translate(16.964211, 1510.776842) translate(17.673112, 14.856555) rotate(31.000000) translate(-17.673112, -14.856555) translate(1.703833, 7.119712)"/>
                        <path fill="#FF4722" d="M20.052 11.874H4.525c-.238 0-.431-.193-.431-.431 0-.239.193-.432.431-.432h15.527c.238 0 .431.193.431.432 0 .238-.193.431-.431.431" transform="translate(-59.000000, -1848.000000) translate(39.000000, 336.000000) translate(16.964211, 1510.776842) translate(17.673112, 14.856555) rotate(31.000000) translate(-17.673112, -14.856555) translate(1.703833, 7.119712)"/>
                        <g transform="translate(-59.000000, -1848.000000) translate(39.000000, 336.000000) translate(16.964211, 1510.776842) translate(17.673112, 14.856555) rotate(31.000000) translate(-17.673112, -14.856555) translate(1.703833, 7.119712) translate(4.093084, 2.541964)">
                            <mask id="is27rqntld" fill="#fff">
                                <use xlink:href="#u0z7iu1ioc"/>
                            </mask>
                            <path fill="#8736C1" d="M.928.863L.863.927v11.078l12.103.064 7.69-9.743-.21-.506.139.408-6.59 2.253c-.336.111-.714.024-.962-.228L9.728.883l-8.8-.02zm12.038 12.069H.928c-.511 0-.928-.416-.928-.927V.927C0 .415.417 0 .928 0H9.68c.25 0 .486.098.662.277l3.306 3.37 6.657-2.236c.394-.135.816.004 1.055.34.24.338.228.783-.027 1.11l-7.639 9.718c-.178.224-.444.353-.729.353z" mask="url(#is27rqntld)"/>
                        </g>
                        <g transform="translate(-59.000000, -1848.000000) translate(39.000000, 336.000000) translate(16.964211, 1510.776842) translate(17.673112, 14.856555) rotate(31.000000) translate(-17.673112, -14.856555) translate(1.703833, 7.119712) translate(26.486993, 5.850514)">
                            <mask id="8vj7umglpf" fill="#fff">
                                <use xlink:href="#dfpzhcpvwe"/>
                            </mask>
                            <path fill="#FF4722" d="M1.002.915L.867 4.168c-.02.34.048.662.203.964.247.486.697.838 1.232.965.544.129 1.087.017 1.538-.314.687-.501.944-1.5.586-2.275-.154-.337-.387-.604-.69-.797l-.006-.004L1.002.915zm1.73 6.095c-.211 0-.422-.025-.63-.074-.781-.185-1.437-.7-1.801-1.411-.223-.435-.326-.919-.296-1.4L.143.768C.156.48.322.22.578.088c.258-.131.56-.115.802.045l2.821 1.85c.439.28.788.683 1.009 1.164.531 1.153.162 2.586-.861 3.332-.476.349-1.042.53-1.617.53z" mask="url(#8vj7umglpf)"/>
                        </g>
                    </g>
                </g>
            </g>
        </g>
    </g>
</svg>
