<?xml version="1.0" encoding="UTF-8"?>
<svg width="120px" height="120px" viewBox="0 0 120 120" version="1.1" xmlns="http://www.w3.org/2000/svg" xmlns:xlink="http://www.w3.org/1999/xlink">
    <!-- Generator: Sketch 41.2 (35397) - http://www.bohemiancoding.com/sketch -->
    <title>assets/img_ie_unsupported</title>
    <desc>Created with Sketch.</desc>
    <defs></defs>
    <g id="Freshness" stroke="none" stroke-width="1" fill="none" fill-rule="evenodd">
        <g id="Freeform-Icons" transform="translate(-150.000000, -1130.000000)">
            <g id="assets/img_ie_unsupported" transform="translate(150.000000, 1130.000000)">
                <path d="M109.310599,56.4490141 C109.310599,47.8455211 107.086774,39.7627606 103.187097,32.7392113 C119.809263,-4.88991549 85.3762212,0.621633803 83.4590783,0.99684507 C76.1641014,2.42467606 69.4150691,4.71701408 63.1896774,7.62287324 C62.271659,7.57115493 61.3480645,7.54276056 60.4173733,7.54276056 C37.1840553,7.54276056 17.7363594,23.7518873 12.7589862,45.4811831 C25.00447,31.739831 33.5743318,26.1953239 38.7063134,23.976507 C37.8871429,24.7086761 37.0852074,25.4489577 36.2964516,26.1948169 C36.033871,26.4427606 35.7809217,26.6942535 35.5218894,26.9437183 C35.0017972,27.444169 34.4827189,27.9451268 33.9758065,28.4506479 C33.6741935,28.7513239 33.3806912,29.0545352 33.0836406,29.3572394 C32.6340092,29.8150986 32.1853917,30.2724507 31.7464055,30.7328451 C31.4346544,31.0598873 31.1305069,31.3879437 30.8243318,31.715493 C30.4142396,32.1545915 30.006682,32.5941972 29.6067281,33.0353239 C29.2959908,33.3780845 28.9903226,33.7208451 28.6851613,34.0646197 C28.3059908,34.4915493 27.9303687,34.9184789 27.5598157,35.3464225 C27.2526267,35.7013521 26.9479724,36.0562817 26.6468664,36.4117183 C26.295576,36.8264789 25.9488479,37.2412394 25.6056682,37.656 C25.3020276,38.0230986 24.9994009,38.3896901 24.7023502,38.7562817 C24.3809677,39.1527887 24.066682,39.5487887 23.7529032,39.9442817 C23.4487558,40.3276056 23.1446083,40.7104225 22.8475576,41.0932394 C22.5647005,41.4578028 22.2899539,41.8208451 22.0131797,42.1843944 C21.7009217,42.5950986 21.386129,43.0058028 21.0819816,43.4144789 C20.8645161,43.7070423 20.6556682,43.9965634 20.4422581,44.2881127 C18.5104147,46.9247324 16.7453456,49.5106479 15.151106,51.9946479 C15.1470507,52.0007324 15.1429954,52.0068169 15.139447,52.0129014 C14.7197235,52.6669859 14.3147005,53.3114366 13.917788,53.9503099 C13.8964977,53.9847887 13.8741935,54.0197746 13.8529032,54.0547606 C13.4554839,54.696169 13.0717512,55.3264225 12.6976498,55.9500845 C12.68447,55.9718873 12.6707834,55.9941972 12.6576037,56.016 C11.6518894,57.6948169 10.7191705,59.3132958 9.87921659,60.8359437 C5.4756682,68.8183099 3.33193548,74.3952676 3.23917051,74.7263662 C-10.6664516,124.453014 32.7333641,103.453859 38.789447,100.319324 C45.3103687,103.541577 52.6514747,105.355268 60.4173733,105.355268 C81.6772811,105.355268 99.7654378,91.7812394 106.498249,72.8254648 L80.8079263,72.8254648 C77.0065899,79.2491831 69.6882949,83.6001127 61.2806452,83.6001127 C48.9621659,83.6001127 38.9764977,74.2644507 38.9764977,62.748 L108.910138,62.748 C109.175253,60.6853521 109.312627,58.5831549 109.312627,56.4490141 L109.310599,56.4490141 Z M100.177051,8.32259155 C104.387465,11.1650704 107.764516,15.6290704 101.964931,30.6623662 C96.4025806,21.7145915 88.0339631,14.6956056 78.0873272,10.8375211 C82.6120276,8.65166197 93.8173272,4.0284507 100.177051,8.32259155 L100.177051,8.32259155 Z M10.6968664,100.21893 C7.26760369,96.7010704 6.66133641,88.1330704 14.2285253,72.5202254 C18.0476037,83.5032676 25.6685253,92.7060845 35.5188479,98.5467042 C30.6200461,101.243662 17.6147005,107.316 10.6968664,100.21893 Z M38.8664977,49.3727324 C39.2573272,38.1797746 48.996129,29.2178028 60.9617972,29.2178028 C72.9269585,29.2178028 82.6662673,38.1797746 83.0570968,49.3727324 L38.8664977,49.3727324 L38.8664977,49.3727324 Z" id="svg" fill="#1EBBEE"></path>
                <path d="M81,120 C79.6133333,120 78.326,119.282 77.5973333,118.102667 C76.8686667,116.923333 76.802,115.451333 77.422,114.211333 L94.7553333,82.2113333 C95.4333333,80.856 96.818,80 98.3333333,80 C99.8486667,80 101.233333,80.856 101.911333,82.2113333 L119.244667,114.211333 C119.864667,115.451333 119.798,116.923333 119.069333,118.102667 C118.340667,119.282 117.053333,120 115.666667,120 L81,120 Z" id="Fill-2510" fill="#DB3262"></path>
                <path d="M98.3333333,80 C96.818,80 95.4333333,80.856 94.7553333,82.2113333 L77.422,114.211333 C76.8026667,115.451333 76.8686667,116.924 77.5973333,118.102667 C78.326,119.282 79.6133333,120 81,120 L98.3333333,120 L98.3333333,80 Z" id="Fill-2511" fill="#F0386B"></path>
                <path d="M98.3154,108.628067 C99.8034,108.628067 100.892733,109.7174 100.892733,111.132733 L100.892733,111.4954 C100.892733,112.9114 99.8034,114.000067 98.3154,114.000067 C96.8634,114.000067 95.7387333,112.9114 95.7387333,111.4954 L95.7387333,111.132733 C95.7387333,109.7174 96.8634,108.628067 98.3154,108.628067 L98.3154,108.628067 Z M95.7387333,92.5300667 C95.6660667,91.6587333 96.1740667,90.9687333 97.0087333,90.9687333 L99.6220667,90.9687333 C100.456733,90.9687333 101.0014,91.6587333 100.928733,92.5300667 L100.6994,104.672067 C100.626733,105.470067 99.0414,105.978733 98.3154,105.978733 C97.5894,105.978733 96.1047333,105.470067 96.0327333,104.672067 L95.7387333,92.5300667 Z" id="Fill-2512" fill="#FFFFFF"></path>
            </g>
        </g>
    </g>
</svg>