<svg xmlns="http://www.w3.org/2000/svg" xmlns:xlink="http://www.w3.org/1999/xlink" viewBox="0 0 218 214"><defs><mask id="a" x="18" y="0" width="200" height="200" maskUnits="userSpaceOnUse"><circle cx="118" cy="100" r="100" fill="#fff"/></mask><mask id="b" x="0" y="0" width="218" height="214" maskUnits="userSpaceOnUse"><circle cx="118" cy="100" r="100" fill="#fff"/></mask></defs><title>Asset 1</title><circle cx="118" cy="100" r="100" fill="#ebeaf4"/><g mask="url(#a)"><path d="M175,47.13A15,15,0,0,1,190,62.2V130a15,15,0,0,1-15,15.06H85A15,15,0,0,1,70,130V62.2A15,15,0,0,1,85,47.13Z" fill="#fff" fill-rule="evenodd"/><path d="M86,83.92a1,1,0,0,1,1,1A1,1,0,1,1,85,85a1,1,0,0,1,1-1m2.11,1c0-3.2-.77-4.51-2.11-4.51S83.9,81.75,83.9,85s.8,4.53,2.11,4.53,2.11-1.3,2.11-4.53m-5.73,0c0-3.63,1.24-5.67,3.62-5.67s3.62,2,3.62,5.67-1.24,5.7-3.62,5.7-3.62-2-3.62-5.7" fill="#353167" fill-rule="evenodd"/><polygon points="95.5 81.08 92.88 82.67 92.18 81.65 95.67 79.47 96.96 79.47 96.96 89.28 99.2 89.28 99.2 90.45 92.82 90.45 92.82 89.28 95.5 89.28 95.5 81.08" fill="#353167" fill-rule="evenodd"/><path d="M105.08,83.92a1,1,0,0,1,1,1,1,1,0,1,1-2.08,0,1,1,0,0,1,1-1m2.11,1c0-3.2-.77-4.51-2.11-4.51S103,81.75,103,85s.79,4.53,2.11,4.53,2.11-1.3,2.11-4.53m-5.73,0c0-3.63,1.24-5.67,3.62-5.67s3.62,2,3.62,5.67-1.24,5.7-3.62,5.7-3.62-2-3.62-5.7" fill="#353167" fill-rule="evenodd"/><polygon points="114.57 81.08 111.95 82.67 111.25 81.65 114.75 79.47 116.03 79.47 116.03 89.28 118.27 89.28 118.27 90.45 111.89 90.45 111.89 89.28 114.57 89.28 114.57 81.08" fill="#353167" fill-rule="evenodd"/><polygon points="124.11 81.08 121.49 82.67 120.79 81.65 124.28 79.47 125.57 79.47 125.57 89.28 127.8 89.28 127.8 90.45 121.42 90.45 121.42 89.28 124.11 89.28 124.11 81.08" fill="#353167" fill-rule="evenodd"/><path d="M133.69,83.92a1,1,0,0,1,1.05,1A1,1,0,0,1,133.69,86a1,1,0,0,1-1-1.06,1,1,0,0,1,1-1m2.11,1c0-3.2-.78-4.51-2.11-4.51s-2.11,1.31-2.11,4.51.79,4.53,2.11,4.53,2.11-1.3,2.11-4.53m-5.73,0c0-3.63,1.24-5.67,3.62-5.67s3.62,2,3.62,5.67-1.24,5.7-3.62,5.7-3.62-2-3.62-5.7" fill="#353167" fill-rule="evenodd"/><polygon points="143.17 81.08 140.56 82.67 139.86 81.65 143.35 79.47 144.63 79.47 144.63 89.28 146.87 89.28 146.87 90.45 140.49 90.45 140.49 89.28 143.17 89.28 143.17 81.08" fill="#353167" fill-rule="evenodd"/><path d="M152.76,83.92a1,1,0,0,1,1.05,1A1,1,0,0,1,152.76,86a1,1,0,0,1-1-1.06,1,1,0,0,1,1-1m2.11,1c0-3.2-.78-4.51-2.11-4.51s-2.11,1.31-2.11,4.51.79,4.53,2.11,4.53,2.11-1.3,2.11-4.53m-5.73,0c0-3.63,1.24-5.67,3.62-5.67s3.62,2,3.62,5.67-1.24,5.7-3.62,5.7-3.62-2-3.62-5.7" fill="#353167" fill-rule="evenodd"/><polygon points="162.24 81.08 159.63 82.67 158.93 81.65 162.42 79.47 163.71 79.47 163.71 89.28 165.94 89.28 165.94 90.45 159.56 90.45 159.56 89.28 162.24 89.28 162.24 81.08" fill="#353167" fill-rule="evenodd"/><path d="M86,103.07a1,1,0,1,1-1,1,1,1,0,0,1,1-1m2.11,1c0-3.21-.77-4.52-2.11-4.52s-2.11,1.31-2.11,4.52.8,4.53,2.11,4.53,2.11-1.31,2.11-4.53m-5.73,0c0-3.64,1.24-5.68,3.62-5.68s3.62,2,3.62,5.68S88.39,109.8,86,109.8s-3.62-2-3.62-5.69" fill="#353167" fill-rule="evenodd"/><polygon points="95.5 100.23 92.88 101.83 92.18 100.81 95.67 98.62 96.96 98.62 96.96 108.43 99.2 108.43 99.2 109.61 92.82 109.61 92.82 108.43 95.5 108.43 95.5 100.23" fill="#353167" fill-rule="evenodd"/><path d="M105.08,103.07a1,1,0,1,1-1,1,1,1,0,0,1,1-1m2.11,1c0-3.21-.77-4.52-2.11-4.52S103,100.9,103,104.11s.79,4.53,2.11,4.53,2.11-1.31,2.11-4.53m-5.73,0c0-3.64,1.24-5.68,3.62-5.68s3.62,2,3.62,5.68-1.24,5.69-3.62,5.69-3.62-2-3.62-5.69" fill="#353167" fill-rule="evenodd"/><polygon points="114.57 100.23 111.95 101.83 111.25 100.81 114.75 98.62 116.03 98.62 116.03 108.43 118.27 108.43 118.27 109.61 111.89 109.61 111.89 108.43 114.57 108.43 114.57 100.23" fill="#353167" fill-rule="evenodd"/><path d="M124.15,103.07a1,1,0,1,1-1,1,1,1,0,0,1,1-1m2.11,1c0-3.21-.77-4.52-2.11-4.52S122,100.9,122,104.11s.79,4.53,2.11,4.53,2.11-1.31,2.11-4.53m-5.73,0c0-3.64,1.24-5.68,3.62-5.68s3.62,2,3.62,5.68-1.24,5.69-3.62,5.69-3.62-2-3.62-5.69" fill="#353167" fill-rule="evenodd"/><path d="M133.69,103.07a1,1,0,1,1-1,1,1,1,0,0,1,1-1m2.11,1c0-3.21-.78-4.52-2.11-4.52s-2.11,1.31-2.11,4.52.79,4.53,2.11,4.53,2.11-1.31,2.11-4.53m-5.73,0c0-3.64,1.24-5.68,3.62-5.68s3.62,2,3.62,5.68-1.24,5.69-3.62,5.69-3.62-2-3.62-5.69" fill="#353167" fill-rule="evenodd"/><polygon points="143.17 100.23 140.56 101.83 139.86 100.81 143.35 98.62 144.63 98.62 144.63 108.43 146.87 108.43 146.87 109.61 140.49 109.61 140.49 108.43 143.17 108.43 143.17 100.23" fill="#353167" fill-rule="evenodd"/><polygon points="85.97 119.39 83.35 120.98 82.65 119.96 86.14 117.78 87.43 117.78 87.43 127.59 89.67 127.59 89.67 128.77 83.28 128.77 83.28 127.59 85.97 127.59 85.97 119.39" fill="#353167" fill-rule="evenodd"/><path d="M95.55,122.23a1,1,0,0,1,1,1,1,1,0,0,1-1,1.06,1,1,0,0,1-1-1.06,1,1,0,0,1,1-1m2.11,1c0-3.2-.78-4.51-2.11-4.51s-2.11,1.31-2.11,4.51.79,4.53,2.11,4.53,2.11-1.31,2.11-4.53m-5.73,0c0-3.63,1.24-5.67,3.62-5.67s3.62,2,3.62,5.67-1.24,5.7-3.62,5.7-3.62-2-3.62-5.7" fill="#353167" fill-rule="evenodd"/><polygon points="105.03 119.39 102.42 120.98 101.72 119.96 105.21 117.78 106.5 117.78 106.5 127.59 108.73 127.59 108.73 128.77 102.35 128.77 102.35 127.59 105.03 127.59 105.03 119.39" fill="#353167" fill-rule="evenodd"/><path d="M114.62,122.23a1,1,0,0,1,1,1,1,1,0,0,1-1,1.06,1,1,0,0,1-1-1.06,1,1,0,0,1,1-1m2.11,1c0-3.2-.78-4.51-2.11-4.51s-2.11,1.31-2.11,4.51.79,4.53,2.11,4.53,2.11-1.31,2.11-4.53m-5.73,0c0-3.63,1.24-5.67,3.62-5.67s3.62,2,3.62,5.67S117,129,114.62,129s-3.62-2-3.62-5.7" fill="#353167" fill-rule="evenodd"/><path d="M124.15,122.23a1,1,0,0,1,1,1,1,1,0,1,1-2.08,0,1,1,0,0,1,1-1m2.11,1c0-3.2-.77-4.51-2.11-4.51s-2.11,1.31-2.11,4.51.79,4.53,2.11,4.53,2.11-1.31,2.11-4.53m-5.73,0c0-3.63,1.24-5.67,3.62-5.67s3.62,2,3.62,5.67-1.24,5.7-3.62,5.7-3.62-2-3.62-5.7" fill="#353167" fill-rule="evenodd"/><polygon points="133.64 119.39 131.02 120.98 130.32 119.96 133.81 117.78 135.1 117.78 135.1 127.59 137.34 127.59 137.34 128.77 130.96 128.77 130.96 127.59 133.64 127.59 133.64 119.39" fill="#353167" fill-rule="evenodd"/><path d="M175,47H85A15,15,0,0,0,70,62.07V69.6H190V62.07A15,15,0,0,0,175,47" fill="#353167" fill-rule="evenodd"/><path d="M86.62,58.43a3.75,3.75,0,1,1-3.74-3.77,3.76,3.76,0,0,1,3.74,3.77" fill="#e7114c" fill-rule="evenodd"/><path d="M97.62,58.43a3.75,3.75,0,1,1-3.74-3.77,3.76,3.76,0,0,1,3.74,3.77" fill="#f2da3e" fill-rule="evenodd"/><path d="M108.62,58.43a3.75,3.75,0,1,1-3.74-3.77,3.76,3.76,0,0,1,3.74,3.77" fill="#81b44c" fill-rule="evenodd"/><path d="M160,114.5V107a5,5,0,0,1,10,0v7.5Zm17.5,0H175V107a10,10,0,0,0-20,0v7.5h-2.5A2.5,2.5,0,0,0,150,117v17.5a2.52,2.52,0,0,0,2.5,2.5h25a2.5,2.5,0,0,0,2.5-2.5V117a2.5,2.5,0,0,0-2.5-2.5Z" fill="#e1c618" fill-rule="evenodd"/><path d="M165,114.5H152.5A2.5,2.5,0,0,0,150,117v17.5a2.52,2.52,0,0,0,2.5,2.5H165Z" fill="#f2da3e" fill-rule="evenodd"/></g><g mask="url(#b)"><path d="M42,144c0-42,28-70,28-70v56l19.43-13a6.18,6.18,0,0,1,3.46-1,5.11,5.11,0,0,1,3.88,8.43C85.24,140.79,77,158,59.5,172L49,214H0Z" fill-rule="evenodd"/></g></svg>