<?xml version="1.0" encoding="UTF-8"?>
<svg width="200px" height="200px" viewBox="0 0 200 200" version="1.1" xmlns="http://www.w3.org/2000/svg" xmlns:xlink="http://www.w3.org/1999/xlink">
    <!-- Generator: Sketch 48.1 (47250) - http://www.bohemiancoding.com/sketch -->
    <title>assets/img_relatives</title>
    <desc>Created with Sketch.</desc>
    <defs>
        <circle id="path-1" cx="80" cy="80" r="80"></circle>
    </defs>
    <g id="Circular-Icons" stroke="none" stroke-width="1" fill="none" fill-rule="evenodd" transform="translate(-1000.000000, -2250.000000)">
        <g id="assets/img_relatives" transform="translate(1000.000000, 2250.000000)">
            <circle id="background" fill="#353167" cx="100" cy="100" r="100"></circle>
            <g id="Group-6" transform="translate(20.000000, 20.000000)">
                <mask id="mask-2" fill="white">
                    <use xlink:href="#path-1"></use>
                </mask>
                <g id="Mask"></g>
                <g mask="url(#mask-2)" id="Group">
                    <g transform="translate(-17.117647, 32.941176)">
                        <g transform="translate(99.500372, 5.941176)">
                            <path d="M70.2345495,47.4335863 L70.2345495,24.4354839 C70.2345495,10.9399099 59.3252606,0 45.8674609,0 C32.4096612,0 21.5003723,10.9399099 21.5003723,24.4354839 L21.5003723,47.4335863 C21.5003723,61.8074004 8.60014892,58.9326376 8.60014892,58.9326376 C8.60014892,58.9326376 10.0335071,70.4316888 28.6671631,70.4316888 L45.8416605,70.4316888 L45.8674609,70.4316888 L63.0677587,70.4316888 C81.7014147,70.4316888 83.1347729,58.9326376 83.1347729,58.9326376 C83.1347729,58.9326376 70.2345495,61.8074004 70.2345495,47.4335863" id="Fill-1779" fill="#84462D"></path>
                            <path d="M21.5003723,24.4354839 L21.5003723,47.4335863 C21.5003723,61.8074004 8.60014892,58.9326376 8.60014892,58.9326376 C8.60014892,58.9326376 10.0335071,70.4316888 28.6671631,70.4316888 L45.8416605,70.4316888 L45.8674609,70.4316888 L45.8674609,0 C32.4096612,0 21.5003723,10.9399099 21.5003723,24.4354839" id="Fill-1780" fill="#9C6144"></path>
                            <path d="M67.3678332,28.7476281 L65.9344751,28.7476281 L65.9344751,28.7174431 C65.9287416,25.984981 65.8585071,23.3215133 65.5790022,20.8147201 C64.6688198,23.7369165 61.9812733,25.8728653 58.7676843,25.8728653 C55.9138682,25.8728653 53.4699926,24.1882543 52.3175726,21.767704 C51.1651526,24.1882543 48.721277,25.8728653 45.8674609,25.8728653 C43.0136448,25.8728653 40.5697692,24.1882543 39.4173492,21.767704 C38.2649293,24.1882543 35.8210536,25.8728653 32.9672375,25.8728653 C29.7536485,25.8728653 27.066102,23.7369165 26.1559196,20.8147201 C25.8764147,23.3215133 25.8061802,25.984981 25.8004468,28.7174431 L25.8004468,28.7476281 L24.3670886,28.7476281 C22.9337305,28.7476281 21.5003723,30.3445588 21.5003723,31.9414896 C21.5003723,36.3844355 22.7387937,42.1914564 27.4889427,43.0136385 C30.9892033,56.0966841 39.26828,61.0384013 45.8674609,63.2447818 C52.4666418,61.0384013 60.7457185,56.0966841 64.2459792,43.0136385 C68.9961281,42.1914564 70.2345495,36.3844355 70.2345495,31.9414896 C70.2345495,30.3445588 68.8011914,28.7476281 67.3678332,28.7476281" id="Fill-1781" fill="#FBC8C8"></path>
                            <path d="M39.4173492,21.767129 C38.2649293,24.1876793 35.8210536,25.8722903 32.9672375,25.8722903 C29.7536485,25.8722903 27.066102,23.7377789 26.1559196,20.8141452 C25.8764147,23.3209383 25.8061802,25.9858435 25.8004468,28.7168681 L25.8004468,28.7470531 L24.3670886,28.7470531 C22.9337305,28.7470531 21.5003723,30.3454213 21.5003723,31.942352 C21.5003723,36.3838605 22.7387937,42.1908814 27.4889427,43.0145009 C30.9892033,56.0961091 39.26828,61.0392638 45.8674609,63.2442068 L45.8674609,25.8722903 C43.0136448,25.8722903 40.5697692,24.1876793 39.4173492,21.767129" id="Fill-1782" fill="#FBD7D7"></path>
                            <path d="M86.5873027,75.6969606 C85.3130473,72.3751722 82.5781999,69.8324445 79.1797077,68.8104663 L60.2006124,64.6823069 L45.8670309,64.6823069 L31.5334494,64.6823069 L12.5557874,68.8104663 C9.15586188,69.8324445 6.42101452,72.3751722 5.14819248,75.6969606 L-0.000430007446,89.1177908 L45.8670309,89.1177908 L91.7344918,89.1177908 L86.5873027,75.6969606 Z" id="Fill-1783" fill="#DC0015"></path>
                            <path d="M60.2010424,64.6821632 L60.2010424,60.370019 C63.9306404,61.3043169 67.278965,63.3798956 69.780175,66.3078416 L74.534624,71.8690702 L64.5011169,71.8690702 L64.701787,72.2700996 C68.2120812,79.3103937 63.6841028,89.1176471 48.7341772,89.1176471 L60.2010424,64.6821632 Z" id="Fill-1784" fill="#DC0015"></path>
                            <path d="M31.5338794,64.6821632 L31.5338794,60.370019 C27.8042815,61.3043169 24.4559568,63.3798956 21.9547468,66.3078416 L17.2002978,71.8690702 L27.2338049,71.8690702 L27.0331348,72.2700996 C23.5228407,79.3103937 28.0508191,89.1176471 43.0007446,89.1176471 L31.5338794,64.6821632 Z" id="Fill-1785" fill="#DC0015"></path>
                            <path d="M38.7006701,47.4335863 L53.0342517,47.4335863 C53.0342517,47.4335863 53.0342517,51.7457306 45.8674609,51.7457306 C38.7006701,51.7457306 38.7006701,47.4335863 38.7006701,47.4335863" id="Fill-1786" fill="#F79392"></path>
                            <path d="M41.5764166,31.6223909 C41.5764166,30.0355218 40.2921277,28.7476281 38.7097003,28.7476281 L38.7011001,28.7476281 C38.7025335,28.7778131 38.7097003,28.8079981 38.7097003,28.8381831 C38.7097003,30.4221774 37.4311448,31.7071964 35.8515841,31.7115085 C35.9003183,33.2566935 37.1573734,34.4971537 38.7097003,34.4971537 C40.2921277,34.4971537 41.5764166,33.20926 41.5764166,31.6223909" id="Fill-1787" fill="#3E3E3F"></path>
                            <path d="M55.900968,31.6223909 C55.900968,30.0355218 54.6166791,28.7476281 53.0342517,28.7476281 L53.0256515,28.7476281 C53.0270849,28.7778131 53.0342517,28.8079981 53.0342517,28.8381831 C53.0342517,30.4221774 51.7556962,31.7071964 50.1761355,31.7115085 C50.2248697,33.2566935 51.4819248,34.4971537 53.0342517,34.4971537 C54.6166791,34.4971537 55.900968,33.20926 55.900968,31.6223909" id="Fill-1788" fill="#3E3E3F"></path>
                            <path d="M45.8674609,63.2447818 L45.8674609,89.1176471 L48.7341772,89.1176471 L60.2010424,64.6821632 L60.2010424,52.3681167 C56.1288719,58.6868454 50.5746091,61.6708491 45.8674609,63.2447818" id="Fill-1789" fill="#F7B4B4"></path>
                            <path d="M31.5338794,52.3675417 L31.5338794,64.6815882 L43.0007446,89.1170721 L45.8674609,89.1170721 L45.8674609,63.2442068 C41.1603127,61.6717116 35.6060499,58.6862704 31.5338794,52.3675417" id="Fill-1790" fill="#FBC8C8"></path>
                        </g>
                        <g transform="translate(0.617275, 0.000000)">
                            <polygon id="Fill-749" fill="#F1F1F2" points="51.824274 95.0588235 32.3901713 64.4418265 71.2583768 64.4418265"></polygon>
                            <path d="M58.3014985,64.4962839 L51.8234643,64.4962839 L45.34543,64.4962839 L35.6283786,58.4511872 L35.6283786,63.635921 C35.6283786,63.635921 35.6283786,75.7196698 51.8234643,75.7196698 C68.0185499,75.7196698 68.0185499,63.635921 68.0185499,63.635921 L68.0185499,58.4511872 L58.3014985,64.4962839 Z" id="Fill-750" fill="#F7B4B4"></path>
                            <path d="M79.3559196,30.9701647 C79.3559196,29.1801587 77.736411,27.3901527 76.1169025,27.3901527 C74.4973939,27.3901527 74.4973939,29.1801587 74.4973939,29.1801587 L74.4973939,27.3901527 C74.4682427,12.8896542 72.8390171,3.22265523 51.824274,3.22265523 C30.8095309,3.22265523 29.1803053,12.8896542 29.1511541,27.3901527 L29.1511541,40.2746512 L35.6291884,56.3863163 L43.8967796,62.8245376 C44.81828,63.854073 46.1381794,64.4421488 47.5244788,64.4421488 L51.824274,64.4421488 L56.1240692,64.4421488 C57.5103686,64.4421488 58.8302681,63.854073 59.7517684,62.8245376 L68.0193596,56.3863163 L73.2131236,43.4695944 C77.8044304,43.1409165 79.3559196,36.2112893 79.3559196,30.9701647" id="Fill-751" fill="#FBC8C8"></path>
                            <path d="M29.1511541,27.3898305 L29.1511541,29.1798365 C29.1511541,29.1798365 29.1511541,27.3898305 27.5316456,27.3898305 C25.912137,27.3898305 24.2926284,29.1798365 24.2926284,30.9698425 C24.2926284,36.2125783 25.8441176,43.1405942 30.4354244,43.4692722 L35.6291884,56.385994 L43.8967796,62.8242154 C44.81828,63.8537507 46.1381794,64.4418265 47.5244788,64.4418265 L51.824274,64.4418265 L51.824274,3.222333 C30.8095309,3.222333 29.1803053,12.889332 29.1511541,27.3898305" id="Fill-752" fill="#FBD7D7"></path>
                            <polygon id="Fill-753" fill="#FBC8C8" points="40.4869043 51.6069519 40.5047189 51.5521723 38.8398641 51.5521723 38.8673958 51.6069519"></polygon>
                            <path d="M51.8234643,64.4962839 L45.34543,64.4962839 L35.6283786,58.4511872 L35.6283786,63.635921 C35.6283786,63.635921 35.6283786,75.7196698 51.8234643,75.7196698 L51.8234643,64.4962839 L51.8234643,64.4962839 Z" id="Fill-754" fill="#FBC8C8"></path>
                            <path d="M64.7795328,51.6069519 L63.1600242,51.6069519 L59.9210071,41.9399529 L51.8234643,41.9399529 L43.7259214,41.9399529 L40.4869043,51.6069519 L38.8673958,51.6069519 L34.0088701,41.9399529 L34.0088701,15.5861025 C39.4164092,19.2047825 45.0409624,19.4077894 51.8234643,19.3787884 L51.8234643,19.3739549 C56.0406646,19.3546209 64.6030063,19.4239011 69.6380585,14.8852451 L69.6380585,41.9399529 L64.7795328,51.6069519 Z M72.5645104,10.1081364 C72.7232223,9.43627996 72.8009587,8.75475653 72.8009587,8.07484427 C72.8009587,3.49752024 71.3304449,0.370246062 51.8234643,0.0641244267 L51.8234643,0.0254564307 C50.7983153,0.0109559322 49.7375372,-0.0003222333 48.6103593,-0.0003222333 C28.3470681,-0.0003222333 27.4871091,12.8583976 27.5324553,15.5941583 C27.5389334,15.9212251 27.556748,16.1129539 27.556748,16.1129539 L27.556748,27.4168981 L27.556748,27.4394544 L30.7957651,33.8841204 L30.7957651,45.1622859 L32.3893615,56.4356179 L45.34543,64.4962839 L51.8234643,64.4962839 L58.3014985,64.4962839 L71.257567,56.4356179 L72.8511634,45.1622859 L72.8511634,33.8841204 L72.9029877,33.8841204 L76.1420048,27.4394544 L76.1420048,19.3336758 C76.1420048,16.1483996 74.941949,12.9776239 72.5645104,10.1081364 L72.5645104,10.1081364 Z" id="Fill-755" fill="#692E19"></path>
                            <path d="M51.824274,19.3787884 L51.824274,0.0254564307 C50.7991251,0.0109559322 49.738347,-0.000322233301 48.611169,-0.000322233301 C25.9380491,-0.000322233301 27.5575577,16.1113428 27.5575577,16.1113428 L27.5575577,27.4394544 L30.7965748,33.8841204 L30.7965748,45.1622859 L32.3901713,56.4356179 L45.3462398,64.4962839 L51.824274,64.4962839 L51.824274,41.9399529 L43.7267312,41.9399529 L40.4877141,51.6069519 L38.8682055,51.6069519 L34.0096798,41.9399529 L34.0096798,15.571602 C37.5547841,17.9432391 40.3840655,19.4222899 51.824274,19.3787884" id="Fill-756" fill="#84462D"></path>
                            <path d="M46.9657483,30.6071689 C46.9657483,28.8284411 45.5146687,27.3848359 43.7267312,27.3848359 C43.7234922,27.3848359 43.7202532,27.3864471 43.7170141,27.3864471 C43.7186337,27.4202816 43.7267312,27.4525049 43.7267312,27.4863394 C43.7267312,29.2618449 42.2821296,30.7022277 40.4974311,30.7070612 C40.5524944,32.4390652 41.9728034,33.8295019 43.7267312,33.8295019 C45.5146687,33.8295019 46.9657483,32.3858967 46.9657483,30.6071689" id="Fill-757" fill="#3E3E3F"></path>
                            <path d="M63.150631,30.6071689 C63.150631,28.8284411 61.6995514,27.3848359 59.9116139,27.3848359 C59.9083749,27.3848359 59.9051359,27.3864471 59.9018969,27.3864471 C59.9035164,27.4202816 59.9116139,27.4525049 59.9116139,27.4863394 C59.9116139,29.2618449 58.4670123,30.7022277 56.6823138,30.7070612 C56.7373771,32.4390652 58.1576862,33.8295019 59.9116139,33.8295019 C61.6995514,33.8295019 63.150631,32.3858967 63.150631,30.6071689" id="Fill-758" fill="#3E3E3F"></path>
                            <polygon id="Fill-759" fill="#FFFFFF" points="32.3901713 64.4416654 35.6291884 62.8304989 51.7999814 70.8557192 42.1072226 80.5533304"></polygon>
                            <polygon id="Fill-760" fill="#FFFFFF" points="71.2583768 64.4416654 68.0193596 62.8304989 51.8485666 70.8557192 61.5413254 80.5533304"></polygon>
                            <polygon id="Fill-761" fill="#DC0015" points="58.3023083 95.0588235 53.7693038 78.6249252 56.6827997 75.7280479 51.7935034 70.8558804 46.9382167 75.6861575 49.8824832 78.6136471 45.3462398 95.0588235"></polygon>
                            <polygon id="Fill-762" fill="#E7114C" points="51.824274 95.0588235 51.824274 70.8864925 51.7935034 70.8558804 46.9382167 75.6861575 49.8824832 78.6136471 45.3462398 95.0588235"></polygon>
                            <path d="M0,95.0588235 L6.47803425,77.335992 C7.47403202,75.1883071 9.22795979,73.4788594 11.4061988,72.5298824 L32.3901713,64.44666 L51.824274,95.0588235 L0,95.0588235 Z" id="Fill-763" fill="#8B88AA"></path>
                            <path d="M103.648548,95.0588235 L97.1705138,77.335992 C96.174516,75.1883071 94.4205882,73.4788594 92.2423492,72.5298824 L71.2583768,64.44666 L51.824274,95.0588235 L103.648548,95.0588235 Z" id="Fill-764" fill="#8B88AA"></path>
                            <path d="M45.3462398,46.7188339 L58.3023083,46.7188339 C58.3023083,46.7188339 58.3023083,53.1683334 51.824274,53.1683334 C45.3462398,53.1683334 45.3462398,46.7188339 45.3462398,46.7188339" id="Fill-766" fill="#FBC8C8"></path>
                        </g>
                        <g transform="translate(60.185406, 22.576471)">
                            <path d="M55.9940432,22.6193659 L53.6113179,23.8076012 L50.0372301,11.9252482 L29.7840655,17.8664247 C29.7840655,17.8664247 31.5711095,15.3628129 33.3581534,11.9252482 C24.7207744,11.9252482 22.6358898,23.8076012 22.6358898,23.8076012 L21.4445272,23.2134835 L21.4445272,32.0824718 L26.2099777,43.9648247 L32.2930752,48.7118247 C32.9697692,49.4711071 33.9407297,49.9060012 34.9605361,49.9060012 L38.1236039,49.9060012 L41.2866716,49.9060012 C42.306478,49.9060012 43.2774386,49.4711071 43.9553239,48.7118247 L50.0372301,43.9648247 L53.8412509,34.4803306 C57.231869,34.2533776 58.3767684,29.1320835 58.3767684,25.2596247 C58.3767684,23.9394953 57.1854058,22.6193659 55.9940432,22.6193659" id="Fill-2029" fill="#FBC8C8"></path>
                            <path d="M71.4817573,59.4117647 C70.7490692,57.8278471 69.4588235,56.5659412 67.8564408,55.8672588 L53.6113179,51.0941176 L38.1236039,51.0941176 L22.6358898,51.0941176 L8.39076694,55.8672588 C6.78838421,56.5659412 5.4981385,57.8278471 4.76545048,59.4117647 L0,72.4823529 L76.2472077,72.4823529 L71.4817573,59.4117647 Z" id="Fill-2030" fill="#059BBF"></path>
                            <polygon id="Fill-2031" fill="#F2DA3E" points="1.28381236 68.9605424 74.9636337 68.9605424 73.663857 65.3958365 2.58358898 65.3958365"></polygon>
                            <path d="M4.76545048,59.4117647 L4.31630678,60.6427765 L71.930901,60.6427765 L71.4817573,59.4117647 C71.063589,58.5087059 70.4488459,57.7280353 69.7137751,57.0780706 L6.53343261,57.0780706 C5.79836188,57.7280353 5.18361876,58.5087059 4.76545048,59.4117647" id="Fill-2032" fill="#F2DA3E"></path>
                            <path d="M38.1236039,63.06238 C42.7186895,63.06238 53.6113179,61.8741447 53.6113179,54.7447329 L53.6113179,51.0944741 L50.0372301,51.0944741 L50.0372301,54.7447329 C50.0372301,54.7447329 47.6545048,59.4976741 38.1236039,59.4976741 C28.5927029,59.4976741 26.2099777,54.7447329 26.2099777,54.7447329 L26.2099777,51.0944741 L22.6358898,51.0944741 L22.6358898,54.7447329 C22.6358898,61.8741447 33.5285182,63.06238 38.1236039,63.06238" id="Fill-2033" fill="#FFFFFF"></path>
                            <path d="M41.2864334,49.9058824 L38.1233656,49.9058824 L34.9602978,49.9058824 C33.9416828,49.9058824 32.9707223,49.4709882 32.2928369,48.7117059 L26.2097394,43.9647059 L26.2097394,54.7016 C26.2097394,54.7016 28.5924646,59.4545412 38.1233656,59.4545412 C47.6542666,59.4545412 50.0369918,54.7016 50.0369918,54.7016 L50.0369918,43.9647059 L43.9550856,48.7117059 C43.2772003,49.4709882 42.3062398,49.9058824 41.2864334,49.9058824" id="Fill-2034" fill="#F7B4B4"></path>
                            <path d="M32.2924795,48.7118247 L26.209382,43.9648247 L26.209382,54.7017188 C26.209382,54.7017188 28.5921072,59.45466 38.1230082,59.45466 L38.1230082,49.9060012 L34.9611318,49.9060012 C33.9413254,49.9060012 32.9703649,49.4722953 32.2924795,48.7118247" id="Fill-2035" fill="#FBC8C8"></path>
                            <path d="M33.3581534,11.9252482 C24.7207744,11.9252482 22.6358898,23.8076012 22.6358898,23.8076012 L20.2531646,22.6193659 C19.0618019,22.6193659 17.8704393,23.9394953 17.8704393,25.2596247 C17.8704393,29.1320835 19.0153388,34.2533776 22.4059568,34.4803306 L26.2099777,43.9648247 L32.2930752,48.7118247 C32.9697692,49.4722953 33.9407297,49.9060012 34.9605361,49.9060012 L38.1236039,49.9060012 L38.1236039,15.4198482 L29.7840655,17.8664247 C29.7840655,17.8664247 31.5711095,15.3628129 33.3581534,11.9252482" id="Fill-2036" fill="#FBD7D7"></path>
                            <path d="M34.549516,24.9958365 C34.549516,23.6840247 33.4820551,22.6193659 32.1667908,22.6193659 L32.1596426,22.6193659 C32.160834,22.6443188 32.1667908,22.6692718 32.1667908,22.6942247 C32.1667908,24.00366 31.1040953,25.0659424 29.7912137,25.0695071 C29.83172,26.34686 30.876545,27.3723071 32.1667908,27.3723071 C33.4820551,27.3723071 34.549516,26.3076482 34.549516,24.9958365" id="Fill-2037" fill="#3E3E3F"></path>
                            <path d="M46.4556366,24.9958365 C46.4556366,23.6840247 45.3881757,22.6193659 44.0729114,22.6193659 L44.0657632,22.6193659 C44.0669546,22.6443188 44.0729114,22.6692718 44.0729114,22.6942247 C44.0729114,24.00366 43.0102159,25.0659424 41.6973343,25.0695071 C41.7366493,26.34686 42.7826657,27.3723071 44.0729114,27.3723071 C45.3881757,27.3723071 46.4556366,26.3076482 46.4556366,24.9958365" id="Fill-2038" fill="#3E3E3F"></path>
                            <path d="M32.1667908,38.0664247 L44.080417,38.0664247 C44.080417,38.0664247 44.080417,41.6311306 38.1236039,41.6311306 C32.1667908,41.6311306 32.1667908,38.0664247 32.1667908,38.0664247" id="Fill-2039" fill="#F79392"></path>
                            <path d="M38.1236039,0.509752941 C28.2543559,0.509752941 20.2531646,8.13822353 20.2531646,18.3332824 L20.2531646,22.6192471 L22.6358898,23.8074824 C22.6358898,23.8074824 24.7207744,11.9251294 33.3581534,11.9251294 C31.5711095,15.3626941 29.7840655,17.8663059 29.7840655,17.8663059 L50.0372301,11.9251294 L53.6113179,23.8074824 L55.9940432,22.6192471 L55.9940432,18.3332824 C55.9940432,8.13822353 47.9928518,0.509752941 38.1236039,0.509752941" id="Fill-2040" fill="#84462D"></path>
                            <path d="M20.2531646,18.3329259 L20.2531646,22.6188906 L22.6358898,23.8071259 C22.6358898,23.8071259 24.7207744,11.9247729 33.3581534,11.9247729 C31.5711095,15.3623376 29.7840655,17.8659494 29.7840655,17.8659494 L38.1236039,15.4193729 L38.1236039,0.509396471 C28.2543559,0.509396471 20.2531646,8.13786706 20.2531646,18.3329259" id="Fill-2041" fill="#9C6144"></path>
                        </g>
                    </g>
                </g>
            </g>
        </g>
    </g>
</svg>