<?xml version="1.0" encoding="UTF-8"?>
<svg width="50px" height="82px" viewBox="0 0 50 82" version="1.1" xmlns="http://www.w3.org/2000/svg" xmlns:xlink="http://www.w3.org/1999/xlink">
    <title>Group 49</title>
    <g id="Symbols" stroke="none" stroke-width="1" fill="none" fill-rule="evenodd">
        <g id="Group-49" transform="translate(0.500000, 0.500000)">
            <g id="Group-46" transform="translate(-0.000000, 0.000000)">
                <path d="M41.41254,1.13686838e-13 C45.5144861,1.13686838e-13 48.8662754,3.27125943 48.996141,7.34215702 L49.0000469,7.58735067 L49.0000469,73.4125712 C49.0000469,77.5143895 45.7286124,80.8663016 41.6577323,80.9961721 L41.41254,81.0000781 L7.58750692,81.0000781 C3.48563784,81.0000781 0.13377453,77.7285938 0.00390594549,73.6577606 L-9.09494702e-13,73.4125712 L-9.09494702e-13,7.58735067 C-9.09494702e-13,3.4854562 3.271359,0.133767467 7.34231012,0.00390573834 L7.58750692,1.13686838e-13 L41.41254,1.13686838e-13 Z M41.41254,1 L7.58750692,1 C4.0330702,1 1.1260847,3.83127301 1.00399225,7.35648374 L1,7.58735067 L1,73.4125712 C1,76.966877 3.83144423,79.8739879 7.35664115,79.9960857 L7.58750692,80.0000781 L41.41254,80.0000781 C44.9668898,80.0000781 47.8739585,77.1685908 47.9960545,73.6434342 L48.0000469,73.4125712 L48.0000469,7.58735067 C48.0000469,4.03297883 45.1686877,1.12608088 41.6434111,1.00399213 L41.41254,1 Z M7.69552664,4.67071484 L7.86563219,4.68750458 L11.0421973,4.68750458 L11.0421973,5.18750458 C11.0421973,5.77255628 11.2739932,6.31998202 11.6801835,6.7260413 C12.0411891,7.08716339 12.5137168,7.31041185 13.0252505,7.35556432 L13.2187624,7.36406969 L35.7812845,7.36406969 C36.3664557,7.36406969 36.9137321,7.13230365 37.3199775,6.72592726 C37.6809341,6.36508705 37.9041878,5.89245977 37.9493434,5.3809858 L37.9578496,5.18750458 L37.9578496,4.68750458 L41.0722808,4.69138022 C42.7849009,4.47689407 44.2142998,5.68141008 44.3076902,7.37469644 L44.3125423,7.55156939 L44.3125423,73.1358522 C44.3125423,74.8300289 42.9864036,76.2141064 41.3147931,76.3075455 L41.1344147,76.3125735 L7.86563219,76.3125735 C6.17059593,76.3125735 4.78600775,74.986916 4.69253441,73.3161398 L4.68750458,73.1358522 L4.68750458,7.55156939 C4.68750458,5.82568082 6.05981617,4.55648566 7.69552664,4.67071484 Z M5.69278481,7.39919883 L5.68750458,7.55156939 L5.68750458,73.1358522 C5.68750458,74.2858946 6.57934356,75.2274119 7.71002873,75.307109 L7.86563219,75.3125735 L41.1344147,75.3125735 C42.285464,75.3125735 43.2273486,74.4210581 43.3070757,73.2913223 L43.3125423,73.1358522 L43.3125423,7.55156939 C43.3125423,6.41699303 42.4480111,5.60639185 41.2874274,5.67370091 L41.1344147,5.68750458 L38.916,5.687 L38.8956158,5.81512696 C38.7861811,6.35993826 38.5356466,6.86405875 38.1696817,7.28090055 L38.0270842,7.43303405 C37.4846661,7.97562708 36.7665995,8.30579478 35.9934257,8.35705472 L35.7812845,8.36406969 L13.2187624,8.36406969 C12.3654566,8.36406969 11.5646915,8.02495372 10.9730767,7.4331481 C10.529267,6.98948159 10.2275522,6.42804681 10.1044329,5.81512874 L10.083,5.686 L7.80349827,5.68362893 C6.73099034,5.54930954 5.85298041,6.23051346 5.70839273,7.25113778 L5.69278481,7.39919883 Z" id="Fill-1" fill="#8736C1" fill-rule="nonzero"></path>
                <path d="M36.7651508,69.6472535 C36.720979,70.1481369 36.5026402,70.6110298 36.1504629,70.9613416 C35.7989977,71.3128067 35.335061,71.5316994 34.8356851,71.5760032 L34.6469083,71.5843512 L14.3531385,71.5843512 C13.1785578,71.5843512 12.2265744,70.6323678 12.2265744,69.4577871 C12.2265744,68.8849911 12.4533227,68.3486049 12.849584,67.9542326 C13.2010491,67.6027674 13.6649859,67.3838747 14.1643618,67.339571 L14.3531385,67.331223 L34.6469083,67.331223 C35.7704204,67.331223 36.6902705,68.2022247 36.7681336,69.3059032 L36.7734724,69.4577871 L36.7651508,69.6472535 Z M35.7668633,69.335016 C35.7100801,68.8108193 35.2938761,68.3946154 34.7696794,68.3378321 L34.6469083,68.331223 L14.3531385,68.331223 C14.0507666,68.331223 13.7664752,68.4515549 13.555846,68.6621821 C13.3457876,68.8712403 13.2265744,69.1532459 13.2265744,69.4577871 C13.2265744,70.0385967 13.665848,70.5165908 14.2303675,70.577742 L14.3531385,70.5843512 L34.6469083,70.5843512 C34.9492803,70.5843512 35.2335717,70.4640192 35.4442951,70.2532982 C35.6242387,70.0743067 35.7375521,69.8414758 35.7662551,69.5867983 L35.7734724,69.4577871 L35.7668633,69.335016 Z" id="Fill-4" fill="#FF4722" fill-rule="nonzero"></path>
                <g id="Group-43" transform="translate(8.362444, 33.086964)">
                    <path d="M20.5912582,0.00131844263 C17.454915,-0.0453054678 14.4267215,1.14626004 12.1633962,3.31781293 C15.8295701,4.60203608 18.2852927,8.0610581 18.2882436,11.9457446 L18.2882436,13.9241624 L30.4733141,13.9241624 C31.5077452,13.9241624 32.3505166,13.0934895 32.3654186,12.059206 C32.3410738,5.52344849 27.1323273,0.0877792385 20.5912582,0.00131844263" id="Fill-6" fill="#FF4722"></path>
                    <path d="M12.1633815,3.31775391 C11.1398686,2.95892686 10.0608792,2.78512 8.97657819,2.80430072 C3.98959031,2.88810573 0.0270005557,7.05607676 -1.55996309e-13,12.0483762 C0.00900018524,13.0870861 0.853394613,13.9242509 1.89210452,13.9242509 L8.48732222,13.9242509 L8.48732222,11.9458331 C8.48171555,8.68806116 9.81005437,5.57045602 12.1633815,3.31775391" id="Fill-8" fill="#8736C1"></path>
                    <path d="M12.1633815,3.31775391 C9.81005437,5.57045602 8.48171555,8.68806116 8.48730455,11.9458331 L8.48730455,13.9242509 L18.293688,13.9242509 L18.293688,11.9458331 C18.2897043,8.05981873 15.8316209,4.60005899 12.1633815,3.31775391" id="Fill-10" fill="#C33F72"></path>
                    <path d="M25.0889754,12.0726915 C24.0301995,12.074462 23.1593947,12.9072005 23.1104101,13.964796 L27.0701965,13.9512219 C27.0129494,12.8986429 26.143325,12.0740194 25.0889754,12.0726915" id="Fill-12" fill="#FFFFFF"></path>
                    <path d="M7.36287449,12.0726915 C6.29465578,12.0750522 5.41942465,12.9215122 5.38165339,13.9891408 L9.34424314,13.9891408 C9.30779977,12.9209221 8.43168337,12.0735767 7.36287449,12.0726915" id="Fill-14" fill="#FFFFFF"></path>
                    <path d="M22.8400799,9.11835854 C21.0236655,9.23742657 17.6044804,9.24819728 13.9771106,9.24819728 C13.8277961,9.24819728 13.70681,9.12721119 13.70681,8.97789664 L13.70681,6.30720233 C13.70681,6.15803532 13.8277961,6.03690168 13.9771106,6.03690168 C17.1043061,6.10447684 20.8994334,7.27494356 22.9806894,8.48318154 C23.1068395,8.55931425 23.1702834,8.70744845 23.1384139,8.85115632 C23.106692,8.99501174 22.9865911,9.10271888 22.8400799,9.11835854 L22.8400799,9.11835854 Z M12.882334,9.04266846 C12.882334,9.15612981 12.7904141,9.24819728 12.6769527,9.24819728 L7.00063917,9.24819728 C6.66025511,9.24819728 6.38449446,8.97228996 6.38449446,8.63175837 L6.38449446,7.67508294 C6.38405271,7.41142177 6.55136762,7.17667924 6.80071702,7.09125125 C8.70211681,6.46182846 10.6834855,6.10683755 12.6850676,6.03690168 C12.7406917,6.03483606 12.7948404,6.05549223 12.8346773,6.09444385 C12.8745142,6.13324793 12.8966458,6.18680641 12.8959259,6.2424305 L12.882334,9.04266846 Z M29.570448,10.123871 C28.9920754,9.51023546 26.3728739,8.57510146 24.7051839,8.31822732 C24.5148521,8.28916115 24.3314549,8.22483196 24.1645826,8.12907589 C17.0746498,4.08814026 10.4577431,4.59642941 3.97879009,7.27494356 C3.73401456,7.37409314 3.47241901,7.42455319 3.20846276,7.42366793 C2.92473561,7.42086459 2.659599,7.5636872 2.50571059,7.8019708 C1.9379612,8.71025178 1.64066,13.8973094 2.77601123,13.9513105 C3.04631188,13.9513105 3.68414468,13.9756552 4.5680809,13.9809668 C4.57324494,12.432935 5.83238561,11.1822043 7.38041747,11.1875159 C8.92844934,11.1928275 10.17918,12.4519681 10.174016,14 C14.0041112,14 18.6073371,14 22.2968228,13.978311 C22.3384303,12.4645094 23.5748491,11.2574518 25.089241,11.2524353 C26.6036328,11.2474188 27.8481666,12.4459188 27.8999546,13.9594254 L28.927156,13.9594254 C29.5947927,13.9080801 30.5759604,13.6566651 30.6191908,12.7349576 C30.6759953,11.3943726 30.1165084,10.7022436 29.570448,10.123871 L29.570448,10.123871 Z" id="Fill-16" fill="#FFFFFF"></path>
                </g>
            </g>
        </g>
    </g>
</svg>