<svg xmlns="http://www.w3.org/2000/svg" xmlns:xlink="http://www.w3.org/1999/xlink" width="99" height="48" viewBox="0 0 99 48">
    <defs>
        <path id="3uwxcbvbaa" d="M0 48L98.329 48 98.329 0 0 0z"/>
    </defs>
    <g fill="none" fill-rule="evenodd">
        <g>
            <g>
                <g>
                    <path fill="#FFF" d="M0 48L98.329 48 98.329 0 0 0z" transform="translate(-413.000000, -532.000000) translate(330.000000, 532.000000) translate(83.000000, 0.000000)"/>
                    <g transform="translate(-413.000000, -532.000000) translate(330.000000, 532.000000) translate(83.000000, 0.000000)">
                        <path fill="#7A858C" d="M42.573 14.986v4.925h.775c.622 0 1.1-.194 1.433-.583.333-.39.502-.949.509-1.678v-.38c0-.74-.161-1.307-.483-1.698-.322-.391-.79-.586-1.403-.586h-.83zm-1.186 5.873v-6.83h2.017c.603 0 1.14.134 1.607.403.467.27.83.65 1.086 1.145.256.494.384 1.06.384 1.698v.343c0 .647-.129 1.216-.387 1.707-.258.491-.625.87-1.102 1.136-.477.265-1.023.398-1.64.398h-1.965zM50.019 16.825c-.15-.025-.305-.038-.465-.038-.522 0-.874.2-1.055.6v3.472h-1.14v-5.076h1.088l.028.568c.276-.441.657-.662 1.145-.662.163 0 .297.022.404.066l-.005 1.07z"/>
                        <mask id="bswk605rnb" fill="#fff">
                            <use xlink:href="#3uwxcbvbaa"/>
                        </mask>
                        <path fill="#7A858C" d="M50.823 20.86h1.326v-5.077h-1.326v5.076zm-.081-6.395c0-.175.064-.32.193-.437.129-.115.314-.173.553-.173.24 0 .426.058.557.173.13.116.197.262.197.437 0 .172-.066.315-.197.43-.131.114-.316.17-.557.17-.24 0-.424-.056-.553-.17-.13-.115-.193-.258-.193-.43zM54.79 19.414L55.865 15.783 57.042 15.783 55.283 20.859 54.293 20.859 52.52 15.783 53.702 15.783zM59.468 16.604c-.313 0-.566.11-.758.329-.192.219-.315.523-.368.914h2.172v-.084c-.025-.382-.127-.67-.305-.865-.178-.196-.425-.294-.741-.294m.136 4.349c-.723 0-1.309-.227-1.757-.682-.449-.456-.673-1.062-.673-1.818v-.141c0-.507.097-.96.293-1.358.195-.399.47-.71.823-.932.354-.221.747-.333 1.183-.333.69 0 1.224.22 1.601.662.377.44.565 1.065.565 1.872v.46h-3.316c.035.418.174.75.42.994.245.244.554.366.926.366.523 0 .948-.211 1.276-.634l.615.587c-.203.303-.475.539-.814.706-.34.167-.72.251-1.142.251M63.582 15.783l.033.587c.375-.454.868-.68 1.478-.68 1.056 0 1.594.605 1.613 1.815v3.354h-1.14v-3.288c0-.323-.07-.56-.208-.716-.14-.155-.367-.232-.683-.232-.46 0-.802.208-1.028.624v3.612h-1.14v-5.076h1.075zM73.574 18.274c0-.55-.096-.963-.29-1.238-.194-.275-.476-.413-.845-.413-.494 0-.841.216-1.041.647v2.093c.203.44.553.661 1.05.661.357 0 .632-.133.826-.398.194-.266.294-.668.3-1.206v-.146zm1.14.1c0 .787-.175 1.414-.528 1.88-.351.466-.835.699-1.451.699-.595 0-1.058-.214-1.389-.643l-.056.55h-1.032v-7.207h1.14v2.618c.328-.388.77-.582 1.327-.582.62 0 1.106.23 1.46.69.353.46.53 1.103.53 1.928v.066zM77.252 19.226l1.032-3.443H79.5l-2.018 5.845c-.309.854-.835 1.282-1.576 1.282-.166 0-.348-.029-.549-.085v-.887l.216.014c.288 0 .504-.052.65-.157.145-.104.26-.28.345-.527l.164-.436-1.783-5.049h1.23l1.073 3.443zM46.322 26.515L44.192 26.515 44.192 32.389 43.014 32.389 43.014 26.515 40.903 26.515 40.903 25.558 46.322 25.558zM48.054 28.134c-.313 0-.565.11-.758.328-.192.219-.315.524-.368.915H49.1v-.084c-.025-.382-.126-.67-.305-.866-.178-.195-.425-.293-.741-.293m.136 4.349c-.722 0-1.308-.228-1.757-.683-.449-.455-.673-1.061-.673-1.818v-.14c0-.507.098-.96.293-1.359.196-.398.47-.709.823-.931.354-.222.748-.333 1.183-.333.69 0 1.225.22 1.602.661.377.441.565 1.065.565 1.872v.46h-3.317c.035.42.175.75.42.995.246.243.555.366.927.366.522 0 .947-.212 1.276-.634l.614.587c-.203.303-.475.538-.814.706-.34.167-.72.25-1.142.25M53.196 31.573c.284 0 .52-.083.708-.25.188-.165.288-.37.3-.614h1.075c-.013.316-.111.611-.296.885-.184.273-.434.49-.75.65-.316.159-.657.239-1.023.239-.71 0-1.273-.23-1.689-.69-.416-.46-.624-1.095-.624-1.905v-.117c0-.772.207-1.39.62-1.855.412-.465.975-.697 1.688-.697.604 0 1.096.176 1.476.528.38.352.579.814.598 1.386h-1.075c-.012-.29-.112-.53-.297-.718-.186-.188-.423-.281-.711-.281-.369 0-.654.133-.854.4-.2.268-.302.674-.305 1.218v.184c0 .55.1.96.298 1.23.199.271.486.407.86.407M57.263 27.866c.372-.431.843-.647 1.412-.647 1.082 0 1.631.618 1.647 1.853v3.317h-1.14v-3.275c0-.35-.076-.598-.228-.743-.151-.146-.374-.218-.668-.218-.457 0-.798.203-1.023.61v3.626h-1.14v-7.206h1.14v2.683zM62.34 27.313l.032.586c.376-.453.868-.68 1.478-.68 1.057 0 1.595.605 1.614 1.815v3.355h-1.14V29.1c0-.322-.07-.56-.209-.715-.14-.155-.367-.233-.682-.233-.46 0-.803.208-1.028.625v3.612h-1.14v-5.076h1.075zM67.551 29.902c0 .523.108.931.324 1.227.216.296.516.444.9.444.385 0 .685-.15.9-.45.213-.3.32-.74.32-1.32 0-.512-.11-.918-.33-1.219-.22-.3-.52-.45-.899-.45-.372 0-.667.147-.886.443-.22.296-.329.738-.329 1.325zm-1.14-.098c0-.497.099-.945.296-1.344.197-.4.474-.705.83-.92.357-.214.766-.321 1.23-.321.684 0 1.24.22 1.667.661.427.441.658 1.026.692 1.755l.005.267c0 .501-.096.948-.289 1.342-.192.394-.468.7-.826.915-.358.216-.771.324-1.24.324-.717 0-1.29-.239-1.72-.716-.43-.477-.645-1.112-.645-1.907v-.056zM71.976 32.389L73.116 32.389 73.116 25.183 71.976 25.183zM75.09 29.902c0 .523.108.931.324 1.227.216.296.516.444.901.444s.684-.15.899-.45c.214-.3.321-.74.321-1.32 0-.512-.11-.918-.33-1.219-.222-.3-.521-.45-.9-.45-.372 0-.667.147-.886.443-.219.296-.328.738-.328 1.325zm-1.14-.098c0-.497.1-.945.296-1.344.197-.4.474-.705.83-.92.357-.214.767-.321 1.23-.321.685 0 1.24.22 1.667.661.427.441.658 1.026.692 1.755l.005.267c0 .501-.096.948-.289 1.342-.192.394-.467.7-.825.915-.358.216-.772.324-1.24.324-.717 0-1.29-.239-1.72-.716-.43-.477-.645-1.112-.645-1.907v-.056zM80.378 29.912c0 .51.104.91.312 1.203.208.293.497.439.866.439.46 0 .8-.197 1.023-.591V28.73c-.216-.385-.554-.578-1.014-.578-.375 0-.667.149-.875.446-.208.297-.312.735-.312 1.314m-1.135-.099c0-.788.185-1.417.556-1.888.37-.47.862-.706 1.475-.706.579 0 1.034.202 1.365.605l.052-.511h1.027v4.921c0 .666-.207 1.191-.621 1.576-.415.385-.974.577-1.677.577-.373 0-.736-.077-1.091-.232-.355-.155-.625-.357-.81-.608l.54-.684c.35.416.782.624 1.295.624.378 0 .677-.103.896-.308.219-.204.329-.506.329-.903v-.342c-.33.366-.767.549-1.314.549-.595 0-1.08-.237-1.457-.709s-.565-1.126-.565-1.96M86.664 30.756l1.032-3.443h1.216l-2.018 5.845c-.31.854-.835 1.281-1.576 1.281-.166 0-.349-.029-.549-.085v-.886l.216.014c.288 0 .504-.053.65-.157.145-.105.26-.28.344-.527l.165-.437-1.783-5.048h1.23l1.073 3.443z" mask="url(#bswk605rnb)"/>
                        <path fill="#FFF" d="M35.653 9.251l-9.109-1.099c-.972-.75-2.189-1.198-3.511-1.198-1.321 0-2.537.447-3.508 1.195l-9.134 1.102S5.797 36.384 23.02 41.147C40.247 36.384 35.653 9.25 35.653 9.25" mask="url(#bswk605rnb)"/>
                        <path fill="#FFF" d="M35.653 9.251l-9.109-1.099c-.972-.75-2.189-1.198-3.511-1.198-1.321 0-2.537.447-3.508 1.195l-9.134 1.102S5.797 36.384 23.02 41.147C40.247 36.384 35.653 9.25 35.653 9.25" mask="url(#bswk605rnb)"/>
                        <path fill="#00AE41" d="M23.033 6.598c-1.327 0-2.586.417-3.646 1.209l-9.039 1.09-.264.032-.045.263c-.011.068-1.146 6.922-.145 14.27.59 4.333 1.796 7.994 3.584 10.88 2.252 3.632 5.43 6.038 9.449 7.149l.094.026.095-.026c4.018-1.111 7.197-3.516 9.449-7.15 1.789-2.885 2.995-6.546 3.585-10.88 1-7.347-.134-14.2-.146-14.27l-.044-.262-.265-.032-9.012-1.087c-1.062-.794-2.322-1.212-3.65-1.212m0 .356c1.322 0 2.54.448 3.511 1.198l9.109 1.1s4.594 27.132-12.632 31.895C5.797 36.384 10.391 9.252 10.391 9.252l9.134-1.103c.971-.748 2.187-1.195 3.508-1.195" mask="url(#bswk605rnb)"/>
                        <path fill="#00AE41" d="M23.677 32.67c-.043-.046-.094-.069-.151-.069h-1.227c-.057 0-.107.023-.151.068-.044.046-.069.1-.073.161l-.158 2.29v.029c-.005.057.013.104.052.142.04.039.086.058.139.058h1.609c.053 0 .099-.02.139-.058.04-.038.056-.085.052-.142v-.03l-.158-2.289c-.005-.061-.029-.115-.073-.16" mask="url(#bswk605rnb)"/>
                        <path fill="#00AE41" d="M19.833 30.19c.035-.09.092-.169.172-.236.079-.067.162-.1.25-.1h2.235c-.057 0-.108.023-.151.068-.044.045-.068.099-.073.16l-.099 1.374c-.004.068.014.122.053.165.04.043.088.065.145.065h1.095c.057 0 .105-.022.145-.065.04-.043.057-.097.053-.165l-.1-1.374c-.004-.061-.028-.115-.072-.16s-.094-.068-.152-.068h2.236c.088 0 .171.033.25.1.08.067.137.146.172.236 0 0-.16 4.848 3.058 6.263 8.75-8.226 5.697-26.261 5.697-26.261l-7.089-.856c.688.95 1.095 2.116 1.095 3.378 0 3.182-2.576 5.76-5.755 5.76-3.178 0-5.755-2.578-5.755-5.76 0-1.26.406-2.423 1.09-3.371l-7.036.849S8.29 27.949 16.792 36.26c3.057-1.243 3.04-6.07 3.04-6.07M23.961 36.791c-.044-.046-.095-.068-.152-.068h-1.793c-.057 0-.108.022-.152.068-.044.045-.068.099-.072.16l-.529 2.248c.557.23 1.143.43 1.758.6.535-.147 1.047-.32 1.538-.512-.211-.678-.526-2.335-.526-2.335-.004-.062-.028-.116-.072-.161" mask="url(#bswk605rnb)"/>
                        <path fill="#00AE41" d="M20.604 14.17c-.262-.435-.4-.934-.4-1.456 0-1.555 1.264-2.82 2.818-2.82.52 0 1.02.138 1.453.4l-3.87 3.875zm6.448-1.576h-1.06c-.076 0-.137.061-.137.137 0 1.546-1.27 2.804-2.833 2.804-.521 0-1.02-.138-1.454-.401l4.746-4.766c.048-.049.053-.126.01-.18-.805-1.03-2.046-1.644-3.318-1.644-2.328 0-4.151 1.839-4.151 4.187 0 2.329 1.823 4.154 4.15 4.154 1.13 0 2.185-.43 2.969-1.21.78-.778 1.212-1.82 1.214-2.934v-.01c0-.076-.06-.137-.136-.137z" mask="url(#bswk605rnb)"/>
                        <path fill="#FFF" d="M14.35 21.958h-1.506c-.054-.259-.081-.497-.081-.713 0-.198.027-.43.08-.695h4.606c.024.133.042.256.055.37.012.115.017.223.017.325 0 .199-.024.436-.072.713h-1.505v5.051c-.318.054-.582.082-.793.082-.222 0-.49-.028-.802-.082v-5.051zM19.712 22.255l-.604 2.319c.102.03.198.054.288.072.09.018.184.027.28.027.102 0 .202-.007.301-.023.1-.014.203-.037.311-.067l-.576-2.328zm-1.262 4.763c-.138.024-.265.043-.379.055-.114.012-.225.018-.333.018-.108 0-.233-.008-.374-.023s-.3-.037-.473-.067l2.018-6.442c.157-.018.302-.033.438-.045.135-.012.271-.018.41-.018.114 0 .238.006.374.018.135.012.29.027.464.045l1.992 6.45c-.343.055-.643.082-.902.082-.12 0-.24-.006-.36-.018-.12-.012-.25-.03-.388-.055l-.342-1.253c-.169.048-.33.084-.482.108-.154.024-.305.036-.456.036-.138 0-.28-.01-.423-.032-.144-.02-.295-.052-.45-.094l-.334 1.235zM26.318 23.527c.162-.024.306-.042.432-.054.127-.012.244-.018.352-.018.102 0 .225.006.37.018.144.012.285.03.423.054v3.284c-.354.132-.704.22-1.05.262-.345.042-.641.063-.887.063-.53 0-.992-.083-1.389-.248-.396-.166-.728-.396-.996-.69-.267-.295-.467-.647-.599-1.056-.132-.409-.198-.854-.198-1.335s.07-.927.207-1.34c.138-.411.338-.768.6-1.068.26-.301.584-.536.969-.704.384-.169.82-.253 1.306-.253.289 0 .564.021.825.063.261.042.548.13.86.262-.011.247-.057.487-.134.722-.079.234-.16.433-.244.595-.12-.042-.23-.078-.329-.108s-.194-.054-.284-.073c-.09-.017-.18-.031-.27-.04-.09-.009-.186-.013-.288-.013-.487 0-.863.163-1.127.491-.264.328-.397.817-.397 1.466 0 .643.13 1.123.388 1.439.258.316.643.473 1.154.473.114 0 .216-.009.306-.027v-2.165zM31.41 23.076c.252.102.48.206.68.312.202.105.375.23.518.379.145.147.256.324.334.532.078.207.117.458.117.753 0 .319-.055.606-.166.861-.112.256-.275.476-.491.659-.217.183-.483.325-.798.424-.316.1-.678.15-1.086.15-.373 0-.702-.031-.987-.091-.285-.06-.593-.154-.924-.28.024-.21.066-.435.126-.672.06-.238.132-.48.217-.726.552.24 1.033.36 1.441.36.307 0 .546-.046.717-.14.171-.093.257-.253.257-.482 0-.096-.018-.179-.054-.248-.036-.07-.084-.128-.144-.176-.06-.048-.128-.088-.203-.122-.075-.033-.152-.064-.23-.094l-.505-.19c-.216-.078-.413-.171-.59-.28-.177-.108-.329-.236-.455-.383-.126-.147-.224-.317-.293-.51-.069-.192-.104-.418-.104-.676 0-.319.054-.601.163-.848.108-.247.26-.456.455-.627.195-.171.43-.3.707-.388.276-.087.586-.13.929-.13.306 0 .602.03.887.09.286.06.59.147.915.26-.024.194-.067.406-.13.637-.064.232-.143.45-.24.654-.156-.066-.339-.135-.55-.208-.21-.072-.471-.108-.783-.108-.096 0-.188.01-.275.027-.087.018-.166.047-.234.086-.07.04-.125.094-.167.162-.042.07-.063.156-.063.257 0 .175.057.304.171.389.114.084.25.156.405.216l.433.171z" mask="url(#bswk605rnb)"/>
                    </g>
                </g>
            </g>
        </g>
    </g>
</svg>
