<?xml version="1.0" encoding="UTF-8" standalone="no"?>
<svg width="200px" height="132px" viewBox="0 0 200 132" version="1.1" xmlns="http://www.w3.org/2000/svg" xmlns:xlink="http://www.w3.org/1999/xlink">
    <!-- Generator: Sketch 39.1 (31720) - http://www.bohemiancoding.com/sketch -->
    <title>assets/img_credit_card_front</title>
    <desc>Created with Sketch.</desc>
    <defs>
        <linearGradient x1="0%" y1="0%" x2="100%" y2="100%" id="linearGradient-1">
            <stop stop-color="#666666" offset="0%"></stop>
            <stop stop-color="#999999" offset="100%"></stop>
        </linearGradient>
    </defs>
    <g id="Freshness" stroke="none" stroke-width="1" fill="none" fill-rule="evenodd">
        <g id="Freeform-Icons" transform="translate(-650.000000, 0.000000)">
            <g id="assets/img_credit_card_front" transform="translate(650.000000, 0.000000)">
                <path d="M200,126 C200,129.312 197.2,132 193.75,132 L6.25,132 C2.8,132 0,129.312 0,126 L0,6 C0,2.688 2.8,0 6.25,0 L193.75,0 C197.2,0 200,2.688 200,6 L200,126 Z" id="Fill-3938" fill="url(#linearGradient-1)"></path>
                <g id="Fill-3940-+-Fill-3960" transform="translate(15.000000, 26.000000)">
                    <path d="M35,24.1666667 C35,26.8346667 32.9093333,29 30.3333333,29 L4.66666667,29 C2.09066667,29 0,26.8346667 0,24.1666667 L0,4.83333333 C0,2.16533333 2.09066667,0 4.66666667,0 L30.3333333,0 C32.9093333,0 35,2.16533333 35,4.83333333 L35,24.1666667 Z" id="Fill-3940" fill="#F0F0F0"></path>
                    <path d="M35,11.6 L35,6.8 L25.6666667,6.8 C25.6666667,4.1504 23.576,2 21,2 L14,2 C11.424,2 9.33333333,4.1504 9.33333333,6.8 L0,6.8 L0,11.6 L9.33333333,11.6 L9.33333333,16.4 L0,16.4 L0,21.2 L9.33333333,21.2 C9.33333333,23.8496 11.424,26 14,26 L21,26 C23.576,26 25.6666667,23.8496 25.6666667,21.2 L35,21.2 L35,16.4 L25.6666667,16.4 L25.6666667,11.6 L35,11.6 Z" id="Fill-3960" fill="#CFD9DE"></path>
                </g>
                <path d="M22.7859685,90.7153002 L22.7859685,88.1200775 C22.7859685,87.7456423 22.9445857,87.4777276 23.3929842,87.4777276 C23.8444331,87.4777276 24,87.7456423 24,88.1200775 L24,91.3576501 C24,91.8224661 23.7102186,92 23.3929842,92 L18.6070158,92 C18.2928317,92 18,91.8224661 18,91.3576501 C18,90.896062 18.2928317,90.7153002 18.6070158,90.7153002 L20.3914591,90.7153002 L20.3914591,83.2846998 L18.6070158,83.2846998 C18.2928317,83.2846998 18,83.1071659 18,82.6423499 C18,82.1807618 18.2928317,82 18.6070158,82 L21.6085409,82 L21.6085409,90.7153002 L22.7859685,90.7153002 Z" id="Fill-3944" fill="#CFD9DE"></path>
                <path d="M27.2140315,90.7153002 L31.3929842,90.7153002 C31.7102186,90.7153002 32,90.896062 32,91.3576501 C32,91.8224661 31.7102186,92 31.3929842,92 L26,92 L26,87.8102001 C26,86.8450613 26.4605999,86.3576501 27.3726487,86.3576501 L30.7859685,86.3576501 L30.7859685,83.2846998 L26.6070158,83.2846998 C26.2897814,83.2846998 26,83.1071659 26,82.6423499 C26,82.1807618 26.2897814,82 26.6070158,82 L30.6395526,82 C31.0421962,82 31.3197763,82.0645578 31.6248094,82.3615236 C31.9664464,82.6939961 32,83.0426081 32,83.5041963 L32,86.1413815 C32,86.6029697 31.9664464,86.9483538 31.6248094,87.2840542 C31.3197763,87.5777921 31.0421962,87.6423499 30.6395526,87.6423499 L27.2140315,87.6423499 L27.2140315,90.7153002 Z" id="Fill-3945" fill="#CFD9DE"></path>
                <path d="M34.6070158,83.2846998 C34.2897814,83.2846998 34,83.103938 34,82.6423499 C34,82.1807618 34.2897814,82 34.6070158,82 L38.7859685,82 C39.4783935,82 40,82.551969 40,83.2846998 L40,85.7540349 C40,86.2672692 39.9023894,86.6417043 39.5241484,87 C39.9023894,87.3615236 40,87.7327308 40,88.2459651 L40,90.7153002 C40,91.448031 39.4783935,92 38.7859685,92 L34.6070158,92 C34.2897814,92 34,91.8224661 34,91.3576501 C34,90.896062 34.2897814,90.7153002 34.6070158,90.7153002 L38.7859685,90.7153002 L38.7859685,88.5816656 C38.7859685,87.8618464 38.5175394,87.6423499 38.1789527,87.6423499 L35.7966446,87.6423499 C35.4794103,87.6423499 35.1896289,87.4615881 35.1896289,87 C35.1896289,86.5384119 35.4794103,86.3576501 35.7966446,86.3576501 L38.1789527,86.3576501 C38.5175394,86.3576501 38.7859685,86.1381536 38.7859685,85.4183344 L38.7859685,83.2846998 L34.6070158,83.2846998 Z" id="Fill-3946" fill="#CFD9DE"></path>
                <path d="M47.9739819,87.4501452 L47.9739819,83.7360439 C47.9739819,83.416586 48.1368778,83.0939013 48.6493213,83.0939013 C49.1617647,83.0939013 49.3246606,83.416586 49.3246606,83.7360439 L49.3246606,87.4501452 C49.6742081,87.4501452 50,87.6308487 50,88.0922878 C50,88.553727 49.6742081,88.7344305 49.3246606,88.7344305 L49.3246606,91.3546305 C49.3246606,91.767667 49.1346154,92 48.6493213,92 C48.1640271,92 47.9739819,91.767667 47.9739819,91.3546305 L47.9739819,88.7344305 L44,88.7344305 L44,82.6421426 C44,82.3226847 44.1628959,82 44.6753394,82 C45.1877828,82 45.3506787,82.3226847 45.3506787,82.6421426 L45.3506787,87.4501452 L47.9739819,87.4501452 Z" id="Fill-3947" fill="#CFD9DE"></path>
                <path d="M64.4158617,86.3562439 L66.6517539,86.3562439 C67.0391459,86.3562439 67.3319776,86.4207809 67.6248094,86.7176509 C67.963396,87.0500161 68,87.3597935 68,87.8083253 L68,90.5608261 C68,90.9577283 67.963396,91.2416909 67.7071683,91.5611488 C67.4021352,91.9451436 67.0879512,92 66.6517539,92 L63.9552618,92 C63.6380275,92 63.458058,91.9096483 63.1530249,91.767667 L62.692425,91.5482414 C62.3629893,91.3965795 62,91.2771862 62,90.8286544 C62,90.4962891 62.2653787,90.1865118 62.5795628,90.1865118 C62.7259786,90.1865118 62.8357905,90.2252339 62.9700051,90.2897709 L63.3360447,90.457567 C63.5038129,90.5317844 63.7844433,90.7124879 63.9766141,90.7124879 L66.7829181,90.7124879 L66.7829181,87.6405292 L63.2018302,87.6405292 L63.2018302,82 L67.3929842,82 C67.7071683,82 68,82.1807035 68,82.6421426 C68,83.1068086 67.7071683,83.2842853 67.3929842,83.2842853 L64.4158617,83.2842853 L64.4158617,86.3562439 Z" id="Fill-3948" fill="#CFD9DE"></path>
                <path d="M71.2140315,90.7157147 L74.7859685,90.7157147 L74.7859685,88.7376573 L71.2140315,88.7376573 L71.2140315,90.7157147 Z M71.2140315,87.4501452 L75.270971,87.4501452 C75.8779868,87.4501452 76,87.7212004 76,88.3117135 L76,91.1900613 C76,91.7934818 75.7559736,92 75.2099644,92 L70.7869853,92 C70.2165735,92 70,91.7805744 70,91.1900613 L70,82.6453695 C70,82.3484995 70.0976106,82 70.5216065,82 L71.2506355,82 C71.5648195,82 71.8210473,82.3097773 71.8210473,82.6453695 C71.8210473,83.0293643 71.5648195,83.2875121 71.2140315,83.2875121 L71.2140315,87.4501452 Z" id="Fill-3949" fill="#CFD9DE"></path>
                <path d="M81.2140205,83.2846998 C81.2140205,83.5655261 80.9943987,83.9270497 80.6070103,83.9270497 C80.2165715,83.9270497 80,83.5655261 80,83.2846998 L80,82.6423499 C80,82.3582957 80.2165715,82 80.6070103,82 L85.9999458,82 L85.9999458,85.7282117 C85.9999458,86.1768883 86.012147,86.2285345 85.6705131,86.5384119 L83.9714944,88.0942544 C83.6542629,88.3879923 83.6298604,88.4138154 83.6298604,88.8657198 L83.6298604,91.3576501 C83.6298604,91.767592 83.4620938,92 83.0228502,92 C82.5866568,92 82.4158399,91.767592 82.4158399,91.3576501 L82.4158399,88.2621046 C82.4158399,87.8360232 82.4280411,87.7972886 82.7330714,87.5132343 L84.4076877,85.983215 C84.8103276,85.6120077 84.7828749,85.6249193 84.7828749,85.0600387 L84.7828749,83.2846998 L81.2140205,83.2846998 Z" id="Fill-3950" fill="#CFD9DE"></path>
                <path d="M91.570122,83.2875121 L90.429878,83.2875121 L90.429878,86.3594708 L91.570122,86.3594708 L91.570122,83.2875121 Z M92.7835366,87.6437561 L89.2134146,87.6437561 L89.2134146,90.7157147 L92.7835366,90.7157147 L92.7835366,87.6437561 Z M92.1768293,82 C92.5884146,82 92.7835366,82.3097773 92.7835366,82.6453695 L92.7835366,86.3562439 C93.1585366,86.3562439 93.4512195,86.4982252 93.6707317,86.7176509 C93.8902439,86.9370765 94,87.2565344 94,87.6566634 L94,90.7157147 C94,91.4998387 93.5365854,92 92.7835366,92 L89.2134146,92 C88.4603659,92 88,91.4998387 88,90.7157147 L88,87.6566634 C88,87.2565344 88.1097561,86.9370765 88.3262195,86.7176509 C88.5457317,86.4982252 88.8384146,86.3562439 89.2134146,86.3562439 L89.2134146,82.6453695 C89.2134146,82.3097773 89.4085366,82 89.8231707,82 L92.1768293,82 Z" id="Fill-3951" fill="#CFD9DE"></path>
                <path d="M110.786585,83.2875121 L107.216463,83.2875121 L107.216463,85.2913843 L110.786585,85.2913843 L110.786585,83.2875121 Z M110.786585,86.5756696 L106.609756,86.5756696 C106.268293,86.5756696 106,86.2691191 106,85.9335269 L106,82.6453695 C106,82.3097773 106.268293,82 106.609756,82 L111.393293,82 C111.731707,82 112,82.3097773 112,82.6453695 L112,91.3578574 C112,91.70313 111.756098,92 111.393293,92 L110.786585,92 C110.42378,92 110.179878,91.70313 110.179878,91.3578574 C110.179878,90.9706357 110.435976,90.7157147 110.786585,90.7157147 L110.786585,86.5756696 Z" id="Fill-3952" fill="#CFD9DE"></path>
                <path d="M119.571937,83.2875121 L118.428063,83.2875121 L118.428063,86.3594708 L119.571937,86.3594708 L119.571937,83.2875121 Z M120.782918,87.6437561 L117.214032,87.6437561 L117.214032,90.7157147 L120.782918,90.7157147 L120.782918,87.6437561 Z M120.178953,82 C120.590747,82 120.782918,82.3097773 120.782918,82.6453695 L120.782918,86.3562439 C121.161159,86.3562439 121.453991,86.4982252 121.670564,86.7176509 C121.890188,86.9370765 122,87.2565344 122,87.6566634 L122,90.7157147 C122,91.4998387 121.5394,92 120.782918,92 L117.214032,92 C116.4606,92 116,91.4998387 116,90.7157147 L116,87.6566634 C116,87.2565344 116.106762,86.9370765 116.326385,86.7176509 C116.542959,86.4982252 116.835791,86.3562439 117.214032,86.3562439 L117.214032,82.6453695 C117.214032,82.3097773 117.409253,82 117.821047,82 L120.178953,82 Z" id="Fill-3953" fill="#CFD9DE"></path>
                <path d="M125.21402,83.2846998 C125.21402,83.5655261 124.997449,83.9270497 124.60701,83.9270497 C124.219622,83.9270497 124,83.5655261 124,83.2846998 L124,82.6423499 C124,82.3582957 124.219622,82 124.60701,82 L129.999945,82 L129.999945,85.7282117 C129.999945,86.1768883 130.012146,86.2285345 129.673562,86.5384119 L127.971494,88.0942544 C127.657313,88.3879923 127.63291,88.4138154 127.63291,88.8657198 L127.63291,91.3576501 C127.63291,91.767592 127.462093,92 127.0259,92 C126.586656,92 126.41889,91.767592 126.41889,91.3576501 L126.41889,88.2621046 C126.41889,87.8360232 126.428041,87.7972886 126.733071,87.5132343 L128.410737,85.983215 C128.810327,85.6120077 128.785924,85.6249193 128.785924,85.0600387 L128.785924,83.2846998 L125.21402,83.2846998 Z" id="Fill-3954" fill="#CFD9DE"></path>
                <path d="M135.217082,90.7157147 L138.785968,90.7157147 L138.785968,88.7376573 L135.217082,88.7376573 L135.217082,90.7157147 Z M135.217082,87.4501452 L139.274021,87.4501452 C139.881037,87.4501452 140,87.7212004 140,88.3117135 L140,91.1900613 C140,91.7934818 139.759024,92 139.209964,92 L134.790036,92 C134.216573,92 134,91.7805744 134,91.1900613 L134,82.6453695 C134,82.3484995 134.097611,82 134.521607,82 L135.250635,82 C135.56787,82 135.821047,82.3097773 135.821047,82.6453695 C135.821047,83.0293643 135.56787,83.2875121 135.217082,83.2875121 L135.217082,87.4501452 Z" id="Fill-3955" fill="#CFD9DE"></path>
                <path d="M154.417683,86.3562439 L156.64939,86.3562439 C157.039634,86.3562439 157.329268,86.4207809 157.621951,86.7176509 C157.963415,87.0500161 158,87.3597935 158,87.8083253 L158,90.5608261 C158,90.9577283 157.963415,91.2416909 157.707317,91.5611488 C157.402439,91.9451436 157.088415,92 156.64939,92 L153.957317,92 C153.640244,92 153.457317,91.9096483 153.152439,91.767667 L152.692073,91.5482414 C152.365854,91.3965795 152,91.2771862 152,90.8286544 C152,90.4962891 152.268293,90.1865118 152.582317,90.1865118 C152.728659,90.1865118 152.838415,90.2252339 152.969512,90.2897709 L153.338415,90.457567 C153.506098,90.5317844 153.783537,90.7124879 153.978659,90.7124879 L156.783537,90.7124879 L156.783537,87.6405292 L153.204268,87.6405292 L153.204268,82 L157.393293,82 C157.707317,82 158,82.1807035 158,82.6421426 C158,83.1068086 157.707317,83.2842853 157.393293,83.2842853 L154.417683,83.2842853 L154.417683,86.3562439 Z" id="Fill-3956" fill="#CFD9DE"></path>
                <path d="M163.973982,87.4501452 L163.973982,83.7360439 C163.973982,83.416586 164.136878,83.0939013 164.649321,83.0939013 C165.161765,83.0939013 165.324661,83.416586 165.324661,83.7360439 L165.324661,87.4501452 C165.674208,87.4501452 166,87.6308487 166,88.0922878 C166,88.553727 165.674208,88.7344305 165.324661,88.7344305 L165.324661,91.3546305 C165.324661,91.767667 165.134615,92 164.649321,92 C164.164027,92 163.973982,91.767667 163.973982,91.3546305 L163.973982,88.7344305 L160,88.7344305 L160,82.6421426 C160,82.3226847 160.162896,82 160.675339,82 C161.187783,82 161.350679,82.3226847 161.350679,82.6421426 L161.350679,87.4501452 L163.973982,87.4501452 Z" id="Fill-3957" fill="#CFD9DE"></path>
                <path d="M170.606707,83.2846998 C170.289634,83.2846998 170,83.103938 170,82.6423499 C170,82.1807618 170.289634,82 170.606707,82 L174.783537,82 C175.47561,82 176,82.551969 176,83.2846998 L176,85.7540349 C176,86.2672692 175.89939,86.6417043 175.52439,87 C175.89939,87.3615236 176,87.7327308 176,88.2459651 L176,90.7153002 C176,91.448031 175.47561,92 174.783537,92 L170.606707,92 C170.289634,92 170,91.8224661 170,91.3576501 C170,90.896062 170.289634,90.7153002 170.606707,90.7153002 L174.783537,90.7153002 L174.783537,88.5816656 C174.783537,87.8618464 174.515244,87.6423499 174.176829,87.6423499 L171.79878,87.6423499 C171.481707,87.6423499 171.189024,87.4615881 171.189024,87 C171.189024,86.5384119 171.481707,86.3576501 171.79878,86.3576501 L174.176829,86.3576501 C174.515244,86.3576501 174.783537,86.1381536 174.783537,85.4183344 L174.783537,83.2846998 L170.606707,83.2846998 Z" id="Fill-3958" fill="#CFD9DE"></path>
                <path d="M179.214032,90.7153002 L183.392984,90.7153002 C183.707168,90.7153002 184,90.896062 184,91.3576501 C184,91.8224661 183.707168,92 183.392984,92 L178,92 L178,87.8102001 C178,86.8450613 178.4606,86.3576501 179.372649,86.3576501 L182.782918,86.3576501 L182.782918,83.2846998 L178.607016,83.2846998 C178.289781,83.2846998 178,83.1071659 178,82.6423499 C178,82.1807618 178.289781,82 178.607016,82 L182.639553,82 C183.039146,82 183.319776,82.0645578 183.624809,82.3615236 C183.963396,82.6939961 184,83.0426081 184,83.5041963 L184,86.1413815 C184,86.6029697 183.963396,86.9483538 183.624809,87.2840542 C183.319776,87.5777921 183.039146,87.6423499 182.639553,87.6423499 L179.214032,87.6423499 L179.214032,90.7153002 Z" id="Fill-3959" fill="#CFD9DE"></path>
                <text id="1234" font-family="Lato-Regular, Lato" font-size="10" font-weight="normal" line-spacing="10" fill="#FFFFFF">
                    <tspan x="160.795709" y="62">1234</tspan>
                </text>
                <circle id="Oval-6" stroke="#FACB1B" stroke-width="6" cx="173" cy="58" r="20"></circle>
            </g>
        </g>
    </g>
</svg>