<?xml version="1.0" encoding="UTF-8"?>
<svg width="90px" height="84px" viewBox="0 0 90 84" version="1.1" xmlns="http://www.w3.org/2000/svg" xmlns:xlink="http://www.w3.org/1999/xlink">
    <!-- Generator: Sketch 63.1 (92452) - https://sketch.com -->
    <title>Report stack@2x</title>
    <desc>Created with Sketch.</desc>
    <defs>
        <filter x="-32.8%" y="-34.7%" width="165.6%" height="170.6%" filterUnits="objectBoundingBox" id="filter-1">
            <feOffset dx="0" dy="-5" in="SourceAlpha" result="shadowOffsetOuter1"></feOffset>
            <feGaussianBlur stdDeviation="5" in="shadowOffsetOuter1" result="shadowBlurOuter1"></feGaussianBlur>
            <feColorMatrix values="0 0 0 0 0.611764706   0 0 0 0 0.607843137   0 0 0 0 0.607843137  0 0 0 0.27895542 0" type="matrix" in="shadowBlurOuter1" result="shadowMatrixOuter1"></feColorMatrix>
            <feMerge>
                <feMergeNode in="shadowMatrixOuter1"></feMergeNode>
                <feMergeNode in="SourceGraphic"></feMergeNode>
            </feMerge>
        </filter>
    </defs>
    <g id="Report-stack" stroke="none" stroke-width="1" fill="none" fill-rule="evenodd">
        <g id="assets/img_multi_stack" filter="url(#filter-1)" transform="translate(0.000000, -1.000000)">
            <g id="assets/img_high_stack" transform="translate(20.000000, 0.000000)">
                <g id="sides-of-stack" transform="translate(0.000000, 11.000000)">
                    <polygon id="Fill-2785" fill="#F0F0F0" points="18.4745093 14.9784884 0 4.375 0 27.375 18.4745093 38"></polygon>
                    <polygon id="Fill-2786" fill="#E1E1E1" points="18.4437561 14.9938827 50.0000194 0.445600044 50.0000194 23.5270663 18.4437561 38"></polygon>
                </g>
                <g id="report">
                    <polyline id="Shape" fill="#FFFFFF" fill-rule="nonzero" points="31.5428571 1.02840909 0.0857142857 15.4318182 18.4571429 25.9715909 45.2 13.7272727 26.8285714 3.1875 30.2 1.65340909 31.5428571 1.02840909"></polyline>
                    <polyline id="Path" fill="#D7D7D7" points="31.2 5.6875 27.7142857 3.67045455 20.5142857 6.96590909 24 8.98295455 31.2 5.6875"></polyline>
                    <polyline id="Path" fill="#736F9C" points="21.7714286 6.76704545 22.2285714 6.56818182 25.0285714 8.1875 24.5714286 8.38636364 21.7714286 6.76704545"></polyline>
                    <polyline id="Path" fill="#736F9C" points="22.8857143 6.25568182 23.3428571 6.05681818 26.1428571 7.67613636 25.6857143 7.875 22.8857143 6.25568182"></polyline>
                    <polyline id="Path" fill="#736F9C" points="24 5.74431818 24.4571429 5.54545455 27.2571429 7.16477273 26.8 7.36363636 24 5.74431818"></polyline>
                    <polyline id="Path" fill="#736F9C" points="25.1428571 5.23295455 25.6 5.03409091 28.4 6.65340909 27.9428571 6.85227273 25.1428571 5.23295455"></polyline>
                    <polyline id="Path" fill="#736F9C" points="26.2571429 4.72159091 26.7142857 4.52272727 29.5142857 6.14204545 29.0571429 6.34090909 26.2571429 4.72159091"></polyline>
                    <polyline id="Shape" fill="#9C9B9B" fill-rule="nonzero" points="33.3428571 8.32954545 30.7142857 6.82386364 26.6857143 8.67045455 29.3142857 10.1761364 33.3428571 8.32954545"></polyline>
                    <polyline id="Shape" fill="#9C9B9B" fill-rule="nonzero" points="36.5142857 10.1193182 33.8857143 8.61363636 29.8285714 10.4602273 32.4571429 11.9659091 36.5142857 10.1193182"></polyline>
                    <polyline id="Shape" fill="#9C9B9B" fill-rule="nonzero" points="39.6571429 11.9375 37.0285714 10.4318182 32.9714286 12.2784091 35.6 13.7840909 39.6571429 11.9375"></polyline>
                    <polyline id="Shape" fill="#9C9B9B" fill-rule="nonzero" points="42.8 13.7556818 40.1714286 12.25 36.1428571 14.0965909 38.7428571 15.6022727 42.8 13.7556818"></polyline>
                    <polyline id="Shape" fill="#FFFFFF" fill-rule="nonzero" points="49.9142857 11.5681818 31.5428571 1.02840909 30.2 1.625 48.5714286 12.1931818 49.9142857 11.5681818"></polyline>
                    <path d="M31.5677385,0.985039519 L49.939167,11.5248122 L49.914,11.568 L49.9353838,11.6135125 L48.5464968,12.2365224 L30.1796997,1.57930646 L31.5677385,0.985039519 Z M31.5631574,1.07410263 L30.2249317,1.58165939 L48.5503305,12.1478511 L49.805,11.563 L31.5631574,1.07410263 Z" id="Shape" fill="#5F5563" fill-rule="nonzero"></path>
                    <path d="M51.567818,30.9852061 L69.9392466,41.569829 L69.914,41.613 L69.9354575,41.6584491 L68.5464173,42.2841071 L50.1796277,31.5819981 L51.567818,30.9852061 Z M51.5632295,31.0741914 L50.2250113,31.5843648 L68.5502568,42.1955161 L69.806,41.608 L51.5632295,31.0741914 Z" id="Shape" fill="#5F5563" fill-rule="nonzero"></path>
                    <polygon id="Path" fill="#D7D7D7" points="30.2 1.65340909 26.8285714 3.1875 45.2 13.7272727 48.5714286 12.1931818"></polygon>
                    <polyline id="Path" fill="#736F9C" points="30.6571429 4.69318182 31.3428571 4.38068182 34.4857143 6.19886364 33.8 6.51136364 30.6571429 4.69318182"></polyline>
                    <polyline id="Path" fill="#736F9C" points="40.4857143 11.0284091 42.5142857 10.0909091 46.2 12.1931818 44.1714286 13.1306818 40.4857143 11.0284091"></polyline>
                    <path d="M29.3428571,3.92613636 C28.9142857,3.67045455 29,3.27272727 29.5714286,3.01704545 C30.1428571,2.76136364 30.9428571,2.76136364 31.3714286,3.01704545 C31.8,3.27272727 31.7142857,3.67045455 31.1428571,3.92613636 C30.5714286,4.18181818 29.7714286,4.18181818 29.3428571,3.92613636" id="Path" fill="#736F9C"></path>
                    <polyline id="Path" fill="#736F9C" points="32 4.06818182 32.6857143 3.75568182 39.5142857 7.67613636 38.8285714 7.98863636 32 4.06818182"></polyline>
                    <path d="M31.3714286,2.98863636 C30.9428571,2.73295455 30.1428571,2.73295455 29.5714286,2.98863636 C29,3.24431818 28.9142857,3.64204545 29.3428571,3.89772727 C29.7714286,4.15340909 30.5714286,4.15340909 31.1428571,3.89772727 C31.6857143,3.67045455 31.8,3.24431818 31.3714286,2.98863636" id="Shape" fill="#9C9B9B" fill-rule="nonzero"></path>
                    <polyline id="Shape" fill="#FFFFFF" fill-rule="nonzero" points="46.1714286 12.1931818 42.4857143 10.0909091 40.4857143 11.0284091 44.1428571 13.1306818 46.1714286 12.1931818"></polyline>
                    <polyline id="Shape" fill="#9C9B9B" fill-rule="nonzero" points="39.4857143 7.67613636 32.6857143 3.75568182 32 4.06818182 38.8285714 7.98863636 39.4857143 7.67613636"></polyline>
                    <polygon id="Shape" fill="#D7D7D7" fill-rule="nonzero" points="25.3428571 9.29545455 24.6571429 9.57954545 36.7428571 16.5113636 37.4 16.2272727"></polygon>
                    <polyline id="Shape" fill="#9C9B9B" fill-rule="nonzero" points="25.2571429 16.9090909 17.9142857 12.6761364 17.2285714 12.9886364 24.6 17.2215909 25.2571429 16.9090909"></polyline>
                    <polyline id="Shape" fill="#9C9B9B" fill-rule="nonzero" points="19.8857143 19.3806818 12.5142857 15.1477273 11.8571429 15.4602273 19.2 19.6931818 19.8857143 19.3806818"></polyline>
                    <polyline id="Shape" fill="#FFFFFF" fill-rule="nonzero" points="29.5142857 6.11363636 26.7142857 4.49431818 26.2571429 4.72159091 29.0571429 6.3125 29.5142857 6.11363636"></polyline>
                    <polyline id="Shape" fill="#FFFFFF" fill-rule="nonzero" points="28.3714286 6.625 25.5714286 5.00568182 25.1428571 5.23295455 27.9428571 6.82386364 28.3714286 6.625"></polyline>
                    <polyline id="Shape" fill="#FFFFFF" fill-rule="nonzero" points="27.2571429 7.13636364 24.4571429 5.54545455 24 5.74431818 26.8 7.33522727 27.2571429 7.13636364"></polyline>
                    <polyline id="Shape" fill="#FFFFFF" fill-rule="nonzero" points="26.1428571 7.64772727 23.3428571 6.05681818 22.8857143 6.25568182 25.6857143 7.84659091 26.1428571 7.64772727"></polyline>
                    <polyline id="Shape" fill="#FFFFFF" fill-rule="nonzero" points="25 8.15909091 22.2 6.56818182 21.7714286 6.76704545 24.5714286 8.38636364 25 8.15909091"></polyline>
                    <polyline id="Shape" fill="#D7D7D7" fill-rule="nonzero" points="36.0571429 16.8238636 23.9714286 9.89204545 23.3142857 10.2045455 35.3714286 17.1363636 36.0571429 16.8238636"></polyline>
                    <polyline id="Shape" fill="#D7D7D7" fill-rule="nonzero" points="28.6285714 20.2329545 16.5714286 13.3011364 15.8857143 13.6136364 27.9714286 20.5454545 28.6285714 20.2329545"></polyline>
                    <polyline id="Shape" fill="#D7D7D7" fill-rule="nonzero" points="23.2571429 22.7045455 11.1714286 15.7727273 10.5142857 16.0852273 22.5714286 23.0170455 23.2571429 22.7045455"></polyline>
                    <polyline id="Shape" fill="#D7D7D7" fill-rule="nonzero" points="21.8857143 23.3295455 9.82857143 16.3977273 9.14285714 16.6818182 21.2285714 23.6136364 21.8857143 23.3295455"></polyline>
                    <polyline id="Shape" fill="#D7D7D7" fill-rule="nonzero" points="20.5428571 23.9261364 8.48571429 16.9943182 7.8 17.3068182 19.8857143 24.2386364 20.5428571 23.9261364"></polyline>
                    <polyline id="Shape" fill="#D7D7D7" fill-rule="nonzero" points="34.7142857 17.4488636 22.6285714 10.5170455 21.9714286 10.8295455 34.0285714 17.7613636 34.7142857 17.4488636"></polyline>
                    <polyline id="Shape" fill="#D7D7D7" fill-rule="nonzero" points="27.2857143 20.8579545 15.2285714 13.9261364 14.5428571 14.2102273 26.6285714 21.1420455 27.2857143 20.8579545"></polyline>
                    <polyline id="Shape" fill="#FF4722" fill-rule="nonzero" points="33.3714286 18.0738636 21.2857143 11.1420455 19.9428571 11.7670455 32 18.6988636 33.3714286 18.0738636"></polyline>
                    <polyline id="Shape" fill="#9C9B9B" fill-rule="nonzero" points="34.4857143 6.17045455 31.3142857 4.38068182 30.6571429 4.69318182 33.8 6.48295455 34.4857143 6.17045455"></polyline>
                </g>
                <polygon id="Rectangle-11" fill="#999999" points="18.4437561 30.3774112 25 27.5593672 18.4437561 31.0560417"></polygon>
                <polygon id="Rectangle-11" fill="#CCCCCC" transform="translate(16.093750, 29.903028) scale(-1, 1) translate(-16.093750, -29.903028) " points="13.75 30.3774112 18.4375 28.7500153 13.75 31.0560417"></polygon>
                <polygon id="Rectangle-11" fill="#999999" points="18.4437561 39.2870921 22.2499752 37.7295317 18.4437561 39.6748809"></polygon>
                <polygon id="Rectangle-11" fill="#CCCCCC" transform="translate(17.031250, 38.899940) scale(-1, 1) translate(-17.031250, -38.899940) " points="15.625 39.2870921 18.4375 38.125 15.625 39.6748809"></polygon>
                <polygon id="Rectangle-11" fill="#999999" transform="translate(46.721878, 22.748337) scale(-1, -1) translate(-46.721878, -22.748337) " points="43.4437561 23.818044 50 21 43.4437561 24.4966744"></polygon>
                <polygon id="Rectangle-11" fill="#999999" transform="translate(48.360939, 31.374169) scale(-1, -1) translate(-48.360939, -31.374169) " points="46.7218781 31.5697068 50 30.5 46.7218781 32.2483372"></polygon>
                <polygon id="Rectangle-11" fill="#CCCCCC" transform="translate(2.343750, 28.403013) scale(1, -1) translate(-2.343750, -28.403013) " points="0 28.8773959 4.6875 27.25 0 29.5560264"></polygon>
                <polygon id="Rectangle-11" fill="#CCCCCC" transform="translate(1.171875, 18.500000) scale(1, -1) translate(-1.171875, -18.500000) " points="0 18.6467858 2.34375 17.875 0 19.125"></polygon>
                <polygon id="Rectangle-11" fill="#CCCCCC" transform="translate(1.171875, 36.000000) scale(1, -1) translate(-1.171875, -36.000000) " points="0 36.1467858 2.34375 35.375 0 36.625"></polygon>
            </g>
            <g id="assets/img_low_stack" transform="translate(40.000000, 30.000000)">
                <polygon id="Fill-2785" fill="#D9D9D9" points="18.4745093 26.0847798 0 15.4361702 0 19.8297872 18.4745093 30.5"></polygon>
                <polygon id="Fill-2786" fill="#D0CFCF" points="18.4437561 26.1002396 50.0000194 11.4900494 50.0000194 15.9654794 18.4437561 30.5"></polygon>
                <g id="report">
                    <polyline id="Shape" fill="#FFFFFF" fill-rule="nonzero" points="31.5428571 1.02852998 0.0857142857 15.4932302 18.4571429 26.077853 45.2 13.7814313 26.8285714 3.19680851 30.2 1.65618956 31.5428571 1.02852998"></polyline>
                    <polyline id="Path" fill="#D7D7D7" points="31.2 5.70744681 27.7142857 3.68181818 20.5142857 6.99129594 24 9.01692456 31.2 5.70744681"></polyline>
                    <polyline id="Path" fill="#736F9C" points="21.7714286 6.79158607 22.2285714 6.59187621 25.0285714 8.21808511 24.5714286 8.41779497 21.7714286 6.79158607"></polyline>
                    <polyline id="Path" fill="#736F9C" points="22.8857143 6.27804642 23.3428571 6.07833656 26.1428571 7.70454545 25.6857143 7.90425532 22.8857143 6.27804642"></polyline>
                    <polyline id="Path" fill="#736F9C" points="24 5.76450677 24.4571429 5.56479691 27.2571429 7.1910058 26.8 7.39071567 24 5.76450677"></polyline>
                    <polyline id="Path" fill="#736F9C" points="25.1428571 5.25096712 25.6 5.05125725 28.4 6.67746615 27.9428571 6.87717602 25.1428571 5.25096712"></polyline>
                    <polyline id="Path" fill="#736F9C" points="26.2571429 4.73742747 26.7142857 4.5377176 29.5142857 6.1639265 29.0571429 6.36363636 26.2571429 4.73742747"></polyline>
                    <polyline id="Shape" fill="#9C9B9B" fill-rule="nonzero" points="33.3428571 8.36073501 30.7142857 6.84864603 26.6857143 8.70309478 29.3142857 10.2151838 33.3428571 8.36073501"></polyline>
                    <polyline id="Shape" fill="#9C9B9B" fill-rule="nonzero" points="36.5142857 10.1581238 33.8857143 8.64603482 29.8285714 10.5004836 32.4571429 12.0125725 36.5142857 10.1581238"></polyline>
                    <polyline id="Shape" fill="#9C9B9B" fill-rule="nonzero" points="39.6571429 11.9840426 37.0285714 10.4719536 32.9714286 12.3264023 35.6 13.8384913 39.6571429 11.9840426"></polyline>
                    <polyline id="Shape" fill="#9C9B9B" fill-rule="nonzero" points="42.8 13.8099613 40.1714286 12.2978723 36.1428571 14.1523211 38.7428571 15.6644101 42.8 13.8099613"></polyline>
                    <polyline id="Shape" fill="#FFFFFF" fill-rule="nonzero" points="49.9142857 11.6131528 31.5428571 1.02852998 30.2 1.62765957 48.5714286 12.2408124 49.9142857 11.6131528"></polyline>
                    <path d="M31.567818,0.985206134 L49.9392466,11.569829 L49.914,11.613 L49.9354575,11.6584491 L48.5464173,12.2841071 L30.1796277,1.58199812 L31.567818,0.985206134 Z M31.5632295,1.07419143 L30.2250113,1.58436484 L48.5502568,12.1955161 L49.806,11.608 L31.5632295,1.07419143 Z" id="Shape" fill="#5F5563" fill-rule="nonzero"></path>
                    <polyline id="Path" fill="#D7D7D7" points="48.5714286 12.2408124 30.2 1.65618956 26.8285714 3.19680851 45.2 13.7814313 48.5714286 12.2408124"></polyline>
                    <polyline id="Path" fill="#736F9C" points="30.6571429 4.70889749 31.3428571 4.3950677 34.4857143 6.22098646 33.8 6.53481625 30.6571429 4.70889749"></polyline>
                    <polyline id="Path" fill="#736F9C" points="40.4857143 11.0710832 42.5142857 10.1295938 46.2 12.2408124 44.1714286 13.1823017 40.4857143 11.0710832"></polyline>
                    <path d="M29.3428571,3.93858801 C28.9142857,3.68181818 29,3.28239845 29.5714286,3.02562863 C30.1428571,2.7688588 30.9428571,2.7688588 31.3714286,3.02562863 C31.8,3.28239845 31.7142857,3.68181818 31.1428571,3.93858801 C30.5714286,4.19535783 29.7714286,4.19535783 29.3428571,3.93858801" id="Path" fill="#736F9C"></path>
                    <polyline id="Path" fill="#736F9C" points="32 4.08123791 32.6857143 3.76740812 39.5142857 7.70454545 38.8285714 8.01837524 32 4.08123791"></polyline>
                    <path d="M31.3714286,2.99709865 C30.9428571,2.74032882 30.1428571,2.74032882 29.5714286,2.99709865 C29,3.25386847 28.9142857,3.6532882 29.3428571,3.91005803 C29.7714286,4.16682785 30.5714286,4.16682785 31.1428571,3.91005803 C31.6857143,3.68181818 31.8,3.25386847 31.3714286,2.99709865" id="Shape" fill="#9C9B9B" fill-rule="nonzero"></path>
                    <polyline id="Shape" fill="#FFFFFF" fill-rule="nonzero" points="46.1714286 12.2408124 42.4857143 10.1295938 40.4857143 11.0710832 44.1428571 13.1823017 46.1714286 12.2408124"></polyline>
                    <polyline id="Shape" fill="#9C9B9B" fill-rule="nonzero" points="39.4857143 7.70454545 32.6857143 3.76740812 32 4.08123791 38.8285714 8.01837524 39.4857143 7.70454545"></polyline>
                    <polyline id="Shape" fill="#D7D7D7" fill-rule="nonzero" points="37.4 16.2920696 25.3428571 9.33075435 24.6571429 9.61605416 36.7428571 16.5773694 37.4 16.2920696"></polyline>
                    <polyline id="Shape" fill="#9C9B9B" fill-rule="nonzero" points="25.2571429 16.9767892 17.9142857 12.7258221 17.2285714 13.0396518 24.6 17.290619 25.2571429 16.9767892"></polyline>
                    <polyline id="Shape" fill="#9C9B9B" fill-rule="nonzero" points="19.8857143 19.4588975 12.5142857 15.2079304 11.8571429 15.5217602 19.2 19.7727273 19.8857143 19.4588975"></polyline>
                    <polyline id="Shape" fill="#FFFFFF" fill-rule="nonzero" points="29.5142857 6.13539652 26.7142857 4.50918762 26.2571429 4.73742747 29.0571429 6.33510638 29.5142857 6.13539652"></polyline>
                    <polyline id="Shape" fill="#FFFFFF" fill-rule="nonzero" points="28.3714286 6.64893617 25.5714286 5.02272727 25.1428571 5.25096712 27.9428571 6.84864603 28.3714286 6.64893617"></polyline>
                    <polyline id="Shape" fill="#FFFFFF" fill-rule="nonzero" points="27.2571429 7.16247582 24.4571429 5.56479691 24 5.76450677 26.8 7.36218569 27.2571429 7.16247582"></polyline>
                    <polyline id="Shape" fill="#FFFFFF" fill-rule="nonzero" points="26.1428571 7.67601547 23.3428571 6.07833656 22.8857143 6.27804642 25.6857143 7.87572534 26.1428571 7.67601547"></polyline>
                    <polyline id="Shape" fill="#FFFFFF" fill-rule="nonzero" points="25 8.18955513 22.2 6.59187621 21.7714286 6.79158607 24.5714286 8.41779497 25 8.18955513"></polyline>
                    <polyline id="Shape" fill="#D7D7D7" fill-rule="nonzero" points="36.0571429 16.8911992 23.9714286 9.92988395 23.3142857 10.2437137 35.3714286 17.205029 36.0571429 16.8911992"></polyline>
                    <polyline id="Shape" fill="#D7D7D7" fill-rule="nonzero" points="28.6285714 20.3147969 16.5714286 13.3534816 15.8857143 13.6673114 27.9714286 20.6286267 28.6285714 20.3147969"></polyline>
                    <polyline id="Shape" fill="#D7D7D7" fill-rule="nonzero" points="23.2571429 22.7969052 11.1714286 15.8355899 10.5142857 16.1494197 22.5714286 23.110735 23.2571429 22.7969052"></polyline>
                    <polyline id="Shape" fill="#D7D7D7" fill-rule="nonzero" points="21.8857143 23.4245648 9.82857143 16.4632495 9.14285714 16.7485493 21.2285714 23.7098646 21.8857143 23.4245648"></polyline>
                    <polyline id="Shape" fill="#D7D7D7" fill-rule="nonzero" points="20.5428571 24.0236944 8.48571429 17.0623791 7.8 17.3762089 19.8857143 24.3375242 20.5428571 24.0236944"></polyline>
                    <polyline id="Shape" fill="#D7D7D7" fill-rule="nonzero" points="34.7142857 17.5188588 22.6285714 10.5575435 21.9714286 10.8713733 34.0285714 17.8326886 34.7142857 17.5188588"></polyline>
                    <polyline id="Shape" fill="#D7D7D7" fill-rule="nonzero" points="27.2857143 20.9424565 15.2285714 13.9811412 14.5428571 14.266441 26.6285714 21.2277563 27.2857143 20.9424565"></polyline>
                    <polyline id="Shape" fill="#FF4722" fill-rule="nonzero" points="33.3714286 18.1465184 21.2857143 11.1852031 19.9428571 11.8128627 32 18.7741779 33.3714286 18.1465184"></polyline>
                    <polyline id="Shape" fill="#9C9B9B" fill-rule="nonzero" points="34.4857143 6.19245648 31.3142857 4.3950677 30.6571429 4.70889749 33.8 6.50628627 34.4857143 6.19245648"></polyline>
                </g>
                <g id="Group-5" transform="translate(16.250000, 26.106383)">
                    <polygon id="Rectangle-11" fill="#999999" points="2.1937561 2.24337095 7.92696112 0.0554189397 2.1937561 2.7301697"></polygon>
                    <polygon id="Rectangle-11" fill="#CCCCCC" transform="translate(1.331918, 2.111779) scale(-1, 1) translate(-1.331918, -2.111779) " points="0.476335858 2.24337095 2.1875 1.4933893 0.476335858 2.7301697"></polygon>
                </g>
                <polygon id="Rectangle-11" fill="#CCCCCC" transform="translate(0.718288, 18.574468) scale(1, -1) translate(-0.718288, -18.574468) " points="0 18.7218786 1.43657677 17.9468085 0 19.2021277"></polygon>
            </g>
            <g id="assets/img_high_stack" transform="translate(0.000000, 24.000000)">
                <g id="sides-of-stack" transform="translate(0.000000, 11.000000)">
                    <polygon id="Fill-2785" fill="#F0F0F0" points="18.4745093 14.9784884 0 4.375 0 27.375 18.4745093 38"></polygon>
                    <polygon id="Fill-2786" fill="#E1E1E1" points="18.4437561 14.9938827 50.0000194 0.445600044 50.0000194 23.5270663 18.4437561 38"></polygon>
                </g>
                <g id="report">
                    <polyline id="Shape" fill="#FFFFFF" fill-rule="nonzero" points="31.5428571 1.02840909 0.0857142857 15.4318182 18.4571429 25.9715909 45.2 13.7272727 26.8285714 3.1875 30.2 1.65340909 31.5428571 1.02840909"></polyline>
                    <polyline id="Path" fill="#D7D7D7" points="31.2 5.6875 27.7142857 3.67045455 20.5142857 6.96590909 24 8.98295455 31.2 5.6875"></polyline>
                    <polyline id="Path" fill="#736F9C" points="21.7714286 6.76704545 22.2285714 6.56818182 25.0285714 8.1875 24.5714286 8.38636364 21.7714286 6.76704545"></polyline>
                    <polyline id="Path" fill="#736F9C" points="22.8857143 6.25568182 23.3428571 6.05681818 26.1428571 7.67613636 25.6857143 7.875 22.8857143 6.25568182"></polyline>
                    <polyline id="Path" fill="#736F9C" points="24 5.74431818 24.4571429 5.54545455 27.2571429 7.16477273 26.8 7.36363636 24 5.74431818"></polyline>
                    <polyline id="Path" fill="#736F9C" points="25.1428571 5.23295455 25.6 5.03409091 28.4 6.65340909 27.9428571 6.85227273 25.1428571 5.23295455"></polyline>
                    <polyline id="Path" fill="#736F9C" points="26.2571429 4.72159091 26.7142857 4.52272727 29.5142857 6.14204545 29.0571429 6.34090909 26.2571429 4.72159091"></polyline>
                    <polyline id="Shape" fill="#9C9B9B" fill-rule="nonzero" points="33.3428571 8.32954545 30.7142857 6.82386364 26.6857143 8.67045455 29.3142857 10.1761364 33.3428571 8.32954545"></polyline>
                    <polyline id="Shape" fill="#9C9B9B" fill-rule="nonzero" points="36.5142857 10.1193182 33.8857143 8.61363636 29.8285714 10.4602273 32.4571429 11.9659091 36.5142857 10.1193182"></polyline>
                    <polyline id="Shape" fill="#9C9B9B" fill-rule="nonzero" points="39.6571429 11.9375 37.0285714 10.4318182 32.9714286 12.2784091 35.6 13.7840909 39.6571429 11.9375"></polyline>
                    <polyline id="Shape" fill="#9C9B9B" fill-rule="nonzero" points="42.8 13.7556818 40.1714286 12.25 36.1428571 14.0965909 38.7428571 15.6022727 42.8 13.7556818"></polyline>
                    <polyline id="Shape" fill="#FFFFFF" fill-rule="nonzero" points="49.9142857 11.5681818 31.5428571 1.02840909 30.2 1.625 48.5714286 12.1931818 49.9142857 11.5681818"></polyline>
                    <path d="M31.5677385,0.985039519 L49.939167,11.5248122 L49.914,11.568 L49.9353838,11.6135125 L48.5464968,12.2365224 L30.1796997,1.57930646 L31.5677385,0.985039519 Z M31.5631574,1.07410263 L30.2249317,1.58165939 L48.5503305,12.1478511 L49.805,11.563 L31.5631574,1.07410263 Z" id="Shape" fill="#5F5563" fill-rule="nonzero"></path>
                    <polyline id="Path" fill="#D7D7D7" points="48.5714286 12.1931818 30.2 1.65340909 26.8285714 3.1875 45.2 13.7272727 48.5714286 12.1931818"></polyline>
                    <polyline id="Path" fill="#736F9C" points="30.6571429 4.69318182 31.3428571 4.38068182 34.4857143 6.19886364 33.8 6.51136364 30.6571429 4.69318182"></polyline>
                    <polyline id="Path" fill="#736F9C" points="40.4857143 11.0284091 42.5142857 10.0909091 46.2 12.1931818 44.1714286 13.1306818 40.4857143 11.0284091"></polyline>
                    <path d="M29.3428571,3.92613636 C28.9142857,3.67045455 29,3.27272727 29.5714286,3.01704545 C30.1428571,2.76136364 30.9428571,2.76136364 31.3714286,3.01704545 C31.8,3.27272727 31.7142857,3.67045455 31.1428571,3.92613636 C30.5714286,4.18181818 29.7714286,4.18181818 29.3428571,3.92613636" id="Path" fill="#736F9C"></path>
                    <polyline id="Path" fill="#736F9C" points="32 4.06818182 32.6857143 3.75568182 39.5142857 7.67613636 38.8285714 7.98863636 32 4.06818182"></polyline>
                    <path d="M31.3714286,2.98863636 C30.9428571,2.73295455 30.1428571,2.73295455 29.5714286,2.98863636 C29,3.24431818 28.9142857,3.64204545 29.3428571,3.89772727 C29.7714286,4.15340909 30.5714286,4.15340909 31.1428571,3.89772727 C31.6857143,3.67045455 31.8,3.24431818 31.3714286,2.98863636" id="Shape" fill="#9C9B9B" fill-rule="nonzero"></path>
                    <polyline id="Shape" fill="#FFFFFF" fill-rule="nonzero" points="46.1714286 12.1931818 42.4857143 10.0909091 40.4857143 11.0284091 44.1428571 13.1306818 46.1714286 12.1931818"></polyline>
                    <polyline id="Shape" fill="#9C9B9B" fill-rule="nonzero" points="39.4857143 7.67613636 32.6857143 3.75568182 32 4.06818182 38.8285714 7.98863636 39.4857143 7.67613636"></polyline>
                    <polyline id="Shape" fill="#D7D7D7" fill-rule="nonzero" points="37.4 16.2272727 25.3428571 9.29545455 24.6571429 9.57954545 36.7428571 16.5113636 37.4 16.2272727"></polyline>
                    <polyline id="Shape" fill="#9C9B9B" fill-rule="nonzero" points="25.2571429 16.9090909 17.9142857 12.6761364 17.2285714 12.9886364 24.6 17.2215909 25.2571429 16.9090909"></polyline>
                    <polyline id="Shape" fill="#9C9B9B" fill-rule="nonzero" points="19.8857143 19.3806818 12.5142857 15.1477273 11.8571429 15.4602273 19.2 19.6931818 19.8857143 19.3806818"></polyline>
                    <polyline id="Shape" fill="#FFFFFF" fill-rule="nonzero" points="29.5142857 6.11363636 26.7142857 4.49431818 26.2571429 4.72159091 29.0571429 6.3125 29.5142857 6.11363636"></polyline>
                    <polyline id="Shape" fill="#FFFFFF" fill-rule="nonzero" points="28.3714286 6.625 25.5714286 5.00568182 25.1428571 5.23295455 27.9428571 6.82386364 28.3714286 6.625"></polyline>
                    <polyline id="Shape" fill="#FFFFFF" fill-rule="nonzero" points="27.2571429 7.13636364 24.4571429 5.54545455 24 5.74431818 26.8 7.33522727 27.2571429 7.13636364"></polyline>
                    <polyline id="Shape" fill="#FFFFFF" fill-rule="nonzero" points="26.1428571 7.64772727 23.3428571 6.05681818 22.8857143 6.25568182 25.6857143 7.84659091 26.1428571 7.64772727"></polyline>
                    <polyline id="Shape" fill="#FFFFFF" fill-rule="nonzero" points="25 8.15909091 22.2 6.56818182 21.7714286 6.76704545 24.5714286 8.38636364 25 8.15909091"></polyline>
                    <polyline id="Shape" fill="#D7D7D7" fill-rule="nonzero" points="36.0571429 16.8238636 23.9714286 9.89204545 23.3142857 10.2045455 35.3714286 17.1363636 36.0571429 16.8238636"></polyline>
                    <polyline id="Shape" fill="#D7D7D7" fill-rule="nonzero" points="28.6285714 20.2329545 16.5714286 13.3011364 15.8857143 13.6136364 27.9714286 20.5454545 28.6285714 20.2329545"></polyline>
                    <polyline id="Shape" fill="#D7D7D7" fill-rule="nonzero" points="23.2571429 22.7045455 11.1714286 15.7727273 10.5142857 16.0852273 22.5714286 23.0170455 23.2571429 22.7045455"></polyline>
                    <polyline id="Shape" fill="#D7D7D7" fill-rule="nonzero" points="21.8857143 23.3295455 9.82857143 16.3977273 9.14285714 16.6818182 21.2285714 23.6136364 21.8857143 23.3295455"></polyline>
                    <polyline id="Shape" fill="#D7D7D7" fill-rule="nonzero" points="20.5428571 23.9261364 8.48571429 16.9943182 7.8 17.3068182 19.8857143 24.2386364 20.5428571 23.9261364"></polyline>
                    <polyline id="Shape" fill="#D7D7D7" fill-rule="nonzero" points="34.7142857 17.4488636 22.6285714 10.5170455 21.9714286 10.8295455 34.0285714 17.7613636 34.7142857 17.4488636"></polyline>
                    <polyline id="Shape" fill="#D7D7D7" fill-rule="nonzero" points="27.2857143 20.8579545 15.2285714 13.9261364 14.5428571 14.2102273 26.6285714 21.1420455 27.2857143 20.8579545"></polyline>
                    <polyline id="Shape" fill="#FF4722" fill-rule="nonzero" points="33.3714286 18.0738636 21.2857143 11.1420455 19.9428571 11.7670455 32 18.6988636 33.3714286 18.0738636"></polyline>
                    <polyline id="Shape" fill="#9C9B9B" fill-rule="nonzero" points="34.4857143 6.17045455 31.3142857 4.38068182 30.6571429 4.69318182 33.8 6.48295455 34.4857143 6.17045455"></polyline>
                </g>
                <polygon id="Rectangle-11" fill="#999999" points="18.4437561 30.3774112 25 27.5593672 18.4437561 31.0560417"></polygon>
                <polygon id="Rectangle-11" fill="#CCCCCC" transform="translate(16.093750, 29.903028) scale(-1, 1) translate(-16.093750, -29.903028) " points="13.75 30.3774112 18.4375 28.7500153 13.75 31.0560417"></polygon>
                <polygon id="Rectangle-11" fill="#999999" points="18.4437561 39.2870921 22.2499752 37.7295317 18.4437561 39.6748809"></polygon>
                <polygon id="Rectangle-11" fill="#CCCCCC" transform="translate(17.031250, 38.899940) scale(-1, 1) translate(-17.031250, -38.899940) " points="15.625 39.2870921 18.4375 38.125 15.625 39.6748809"></polygon>
                <polygon id="Rectangle-11" fill="#999999" transform="translate(46.721878, 22.748337) scale(-1, -1) translate(-46.721878, -22.748337) " points="43.4437561 23.818044 50 21 43.4437561 24.4966744"></polygon>
                <polygon id="Rectangle-11" fill="#999999" transform="translate(48.360939, 31.374169) scale(-1, -1) translate(-48.360939, -31.374169) " points="46.7218781 31.5697068 50 30.5 46.7218781 32.2483372"></polygon>
                <polygon id="Rectangle-11" fill="#CCCCCC" transform="translate(2.343750, 28.403013) scale(1, -1) translate(-2.343750, -28.403013) " points="0 28.8773959 4.6875 27.25 0 29.5560264"></polygon>
                <polygon id="Rectangle-11" fill="#CCCCCC" transform="translate(1.171875, 18.500000) scale(1, -1) translate(-1.171875, -18.500000) " points="0 18.6467858 2.34375 17.875 0 19.125"></polygon>
                <polygon id="Rectangle-11" fill="#CCCCCC" transform="translate(1.171875, 36.000000) scale(1, -1) translate(-1.171875, -36.000000) " points="0 36.1467858 2.34375 35.375 0 36.625"></polygon>
            </g>
            <g id="assets/img_mid_stack" transform="translate(21.000000, 48.000000)">
                <polygon id="Fill-2785" fill="#F0F0F0" points="18.4745093 25.9784884 0 15.375 0 26.375 18.4745093 37"></polygon>
                <polygon id="Fill-2786" fill="#D9D9D9" points="18.4437561 25.9938827 50.0000194 11.4456 50.0000194 22.5270663 18.4437561 37"></polygon>
                <g id="report">
                    <polyline id="Shape" fill="#FFFFFF" fill-rule="nonzero" points="31.5428571 1.02840909 0.0857142857 15.4318182 18.4571429 25.9715909 45.2 13.7272727 26.8285714 3.1875 30.2 1.65340909 31.5428571 1.02840909"></polyline>
                    <polyline id="Path" fill="#D7D7D7" points="31.2 5.6875 27.7142857 3.67045455 20.5142857 6.96590909 24 8.98295455 31.2 5.6875"></polyline>
                    <polyline id="Path" fill="#736F9C" points="21.7714286 6.76704545 22.2285714 6.56818182 25.0285714 8.1875 24.5714286 8.38636364 21.7714286 6.76704545"></polyline>
                    <polyline id="Path" fill="#736F9C" points="22.8857143 6.25568182 23.3428571 6.05681818 26.1428571 7.67613636 25.6857143 7.875 22.8857143 6.25568182"></polyline>
                    <polyline id="Path" fill="#736F9C" points="24 5.74431818 24.4571429 5.54545455 27.2571429 7.16477273 26.8 7.36363636 24 5.74431818"></polyline>
                    <polyline id="Path" fill="#736F9C" points="25.1428571 5.23295455 25.6 5.03409091 28.4 6.65340909 27.9428571 6.85227273 25.1428571 5.23295455"></polyline>
                    <polyline id="Path" fill="#736F9C" points="26.2571429 4.72159091 26.7142857 4.52272727 29.5142857 6.14204545 29.0571429 6.34090909 26.2571429 4.72159091"></polyline>
                    <polyline id="Shape" fill="#9C9B9B" fill-rule="nonzero" points="33.3428571 8.32954545 30.7142857 6.82386364 26.6857143 8.67045455 29.3142857 10.1761364 33.3428571 8.32954545"></polyline>
                    <polyline id="Shape" fill="#9C9B9B" fill-rule="nonzero" points="36.5142857 10.1193182 33.8857143 8.61363636 29.8285714 10.4602273 32.4571429 11.9659091 36.5142857 10.1193182"></polyline>
                    <polyline id="Shape" fill="#9C9B9B" fill-rule="nonzero" points="39.6571429 11.9375 37.0285714 10.4318182 32.9714286 12.2784091 35.6 13.7840909 39.6571429 11.9375"></polyline>
                    <polyline id="Shape" fill="#9C9B9B" fill-rule="nonzero" points="42.8 13.7556818 40.1714286 12.25 36.1428571 14.0965909 38.7428571 15.6022727 42.8 13.7556818"></polyline>
                    <polyline id="Shape" fill="#FFFFFF" fill-rule="nonzero" points="49.9142857 11.5681818 31.5428571 1.02840909 30.2 1.625 48.5714286 12.1931818 49.9142857 11.5681818"></polyline>
                    <path d="M31.5677385,0.985039519 L49.939167,11.5248122 L49.914,11.568 L49.9353838,11.6135125 L48.5464968,12.2365224 L30.1796997,1.57930646 L31.5677385,0.985039519 Z M31.5631574,1.07410263 L30.2249317,1.58165939 L48.5503305,12.1478511 L49.805,11.563 L31.5631574,1.07410263 Z" id="Shape" fill="#5F5563" fill-rule="nonzero"></path>
                    <polyline id="Path" fill="#D7D7D7" points="48.5714286 12.1931818 30.2 1.65340909 26.8285714 3.1875 45.2 13.7272727 48.5714286 12.1931818"></polyline>
                    <polyline id="Path" fill="#736F9C" points="30.6571429 4.69318182 31.3428571 4.38068182 34.4857143 6.19886364 33.8 6.51136364 30.6571429 4.69318182"></polyline>
                    <polyline id="Path" fill="#736F9C" points="40.4857143 11.0284091 42.5142857 10.0909091 46.2 12.1931818 44.1714286 13.1306818 40.4857143 11.0284091"></polyline>
                    <path d="M29.3428571,3.92613636 C28.9142857,3.67045455 29,3.27272727 29.5714286,3.01704545 C30.1428571,2.76136364 30.9428571,2.76136364 31.3714286,3.01704545 C31.8,3.27272727 31.7142857,3.67045455 31.1428571,3.92613636 C30.5714286,4.18181818 29.7714286,4.18181818 29.3428571,3.92613636" id="Path" fill="#736F9C"></path>
                    <polyline id="Path" fill="#736F9C" points="32 4.06818182 32.6857143 3.75568182 39.5142857 7.67613636 38.8285714 7.98863636 32 4.06818182"></polyline>
                    <path d="M31.3714286,2.98863636 C30.9428571,2.73295455 30.1428571,2.73295455 29.5714286,2.98863636 C29,3.24431818 28.9142857,3.64204545 29.3428571,3.89772727 C29.7714286,4.15340909 30.5714286,4.15340909 31.1428571,3.89772727 C31.6857143,3.67045455 31.8,3.24431818 31.3714286,2.98863636" id="Shape" fill="#9C9B9B" fill-rule="nonzero"></path>
                    <polyline id="Shape" fill="#FFFFFF" fill-rule="nonzero" points="46.1714286 12.1931818 42.4857143 10.0909091 40.4857143 11.0284091 44.1428571 13.1306818 46.1714286 12.1931818"></polyline>
                    <polyline id="Shape" fill="#9C9B9B" fill-rule="nonzero" points="39.4857143 7.67613636 32.6857143 3.75568182 32 4.06818182 38.8285714 7.98863636 39.4857143 7.67613636"></polyline>
                    <polyline id="Shape" fill="#D7D7D7" fill-rule="nonzero" points="37.4 16.2272727 25.3428571 9.29545455 24.6571429 9.57954545 36.7428571 16.5113636 37.4 16.2272727"></polyline>
                    <polyline id="Shape" fill="#9C9B9B" fill-rule="nonzero" points="25.2571429 16.9090909 17.9142857 12.6761364 17.2285714 12.9886364 24.6 17.2215909 25.2571429 16.9090909"></polyline>
                    <polyline id="Shape" fill="#9C9B9B" fill-rule="nonzero" points="19.8857143 19.3806818 12.5142857 15.1477273 11.8571429 15.4602273 19.2 19.6931818 19.8857143 19.3806818"></polyline>
                    <polyline id="Shape" fill="#FFFFFF" fill-rule="nonzero" points="29.5142857 6.11363636 26.7142857 4.49431818 26.2571429 4.72159091 29.0571429 6.3125 29.5142857 6.11363636"></polyline>
                    <polyline id="Shape" fill="#FFFFFF" fill-rule="nonzero" points="28.3714286 6.625 25.5714286 5.00568182 25.1428571 5.23295455 27.9428571 6.82386364 28.3714286 6.625"></polyline>
                    <polyline id="Shape" fill="#FFFFFF" fill-rule="nonzero" points="27.2571429 7.13636364 24.4571429 5.54545455 24 5.74431818 26.8 7.33522727 27.2571429 7.13636364"></polyline>
                    <polyline id="Shape" fill="#FFFFFF" fill-rule="nonzero" points="26.1428571 7.64772727 23.3428571 6.05681818 22.8857143 6.25568182 25.6857143 7.84659091 26.1428571 7.64772727"></polyline>
                    <polyline id="Shape" fill="#FFFFFF" fill-rule="nonzero" points="25 8.15909091 22.2 6.56818182 21.7714286 6.76704545 24.5714286 8.38636364 25 8.15909091"></polyline>
                    <polyline id="Shape" fill="#D7D7D7" fill-rule="nonzero" points="36.0571429 16.8238636 23.9714286 9.89204545 23.3142857 10.2045455 35.3714286 17.1363636 36.0571429 16.8238636"></polyline>
                    <polyline id="Shape" fill="#D7D7D7" fill-rule="nonzero" points="28.6285714 20.2329545 16.5714286 13.3011364 15.8857143 13.6136364 27.9714286 20.5454545 28.6285714 20.2329545"></polyline>
                    <polyline id="Shape" fill="#D7D7D7" fill-rule="nonzero" points="23.2571429 22.7045455 11.1714286 15.7727273 10.5142857 16.0852273 22.5714286 23.0170455 23.2571429 22.7045455"></polyline>
                    <polyline id="Shape" fill="#D7D7D7" fill-rule="nonzero" points="21.8857143 23.3295455 9.82857143 16.3977273 9.14285714 16.6818182 21.2285714 23.6136364 21.8857143 23.3295455"></polyline>
                    <polyline id="Shape" fill="#D7D7D7" fill-rule="nonzero" points="20.5428571 23.9261364 8.48571429 16.9943182 7.8 17.3068182 19.8857143 24.2386364 20.5428571 23.9261364"></polyline>
                    <polyline id="Shape" fill="#D7D7D7" fill-rule="nonzero" points="34.7142857 17.4488636 22.6285714 10.5170455 21.9714286 10.8295455 34.0285714 17.7613636 34.7142857 17.4488636"></polyline>
                    <polyline id="Shape" fill="#D7D7D7" fill-rule="nonzero" points="27.2857143 20.8579545 15.2285714 13.9261364 14.5428571 14.2102273 26.6285714 21.1420455 27.2857143 20.8579545"></polyline>
                    <polyline id="Shape" fill="#FF4722" fill-rule="nonzero" points="33.3714286 18.0738636 21.2857143 11.1420455 19.9428571 11.7670455 32 18.6988636 33.3714286 18.0738636"></polyline>
                    <polyline id="Shape" fill="#9C9B9B" fill-rule="nonzero" points="34.4857143 6.17045455 31.3142857 4.38068182 30.6571429 4.69318182 33.8 6.48295455 34.4857143 6.17045455"></polyline>
                </g>
                <polygon id="Rectangle-11" fill="#999999" points="18.4437561 31.3774112 25 28.5593672 18.4437561 32.0560417"></polygon>
                <polygon id="Rectangle-11" fill="#CCCCCC" transform="translate(16.093750, 30.653028) scale(-1, 1) translate(-16.093750, -30.653028) " points="13.75 31.3774112 18.4375 29.2500153 13.75 32.0560417"></polygon>
                <polygon id="Rectangle-11" fill="#999999" transform="translate(46.721878, 19.248337) scale(-1, -1) translate(-46.721878, -19.248337) " points="43.4437561 20.318044 50 17.5 43.4437561 20.9966744"></polygon>
                <polygon id="Rectangle-11" fill="#CCCCCC" transform="translate(2.343750, 25.153013) scale(1, -1) translate(-2.343750, -25.153013) " points="0 25.8773959 4.6875 23.75 0 26.5560264"></polygon>
                <polygon id="Rectangle-11" fill="#CCCCCC" transform="translate(1.171875, 18.500000) scale(1, -1) translate(-1.171875, -18.500000) " points="0 18.6467858 2.34375 17.875 0 19.125"></polygon>
            </g>
        </g>
    </g>
</svg>