<?xml version="1.0" encoding="UTF-8"?>
<svg width="150px" height="150px" viewBox="0 0 150 150" version="1.1" xmlns="http://www.w3.org/2000/svg" xmlns:xlink="http://www.w3.org/1999/xlink">
    <!-- Generator: Sketch 51.3 (57544) - http://www.bohemiancoding.com/sketch -->
    <title>assets/img_automobile_no_bg</title>
    <desc>Created with Sketch.</desc>
    <defs></defs>
    <g id="assets/img_automobile_no_bg" stroke="none" stroke-width="1" fill="none" fill-rule="evenodd">
        <g id="Group" transform="translate(0.000000, 9.000000)">
            <path d="M131.267109,47.1506958 C135.563203,51.0724705 149.625703,47.1506958 149.625703,39.3094988 C149.625703,30.748408 133.074141,30.4566863 129.521016,40.1423172 L122.210859,10.7913502 C120.645234,4.50757075 115.020234,0.0988089623 108.567891,0.0988089623 L41.4663281,0.0988089623 C35.0116406,0.0988089623 29.3866406,4.50757075 27.8233594,10.7913502 L20.5132031,40.1423172 C16.9741406,30.4966804 0.408515625,30.7060613 0.408515625,39.3094988 C0.408515625,47.1506958 14.4710156,51.0724705 18.7671094,47.1506958 C-1.68914062,63.5765094 -4.66335938,85.3309493 6.41554687,107.786462 C7.99757812,110.990696 11.2624219,113.023337 14.8249219,113.023337 L135.239766,113.023337 C138.797578,113.023337 142.097578,111.023632 143.639766,107.805283 C155.290547,83.5170991 149.724141,61.0709965 131.267109,47.1506958" id="Fill-4661" fill="#638A3A"></path>
            <path d="M41.4653906,0.0988089623 C35.0130469,0.0988089623 29.3880469,4.50757075 27.8224219,10.7913502 L20.5122656,40.1423172 C16.9755469,30.4966804 0.407578125,30.7060613 0.407578125,39.3094988 C0.407578125,47.1506958 14.4700781,51.0724705 18.7661719,47.1506958 C4.39195312,58.6948762 -1.31742188,72.8763149 0.384140625,88.0764269 L88.0310156,0.0988089623 L41.4653906,0.0988089623 Z" id="Fill-4662" fill="#81B44C"></path>
            <path d="M34.145625,47.1506958 C32.701875,47.1506958 31.3401562,46.482559 30.451875,45.3415507 C29.56125,44.1981899 29.2471875,42.7089976 29.59875,41.3044988 L35.7417187,16.6375472 C36.7846875,12.4475767 40.5346875,9.50918632 44.8378125,9.50918632 L105.196406,9.50918632 C109.499531,9.50918632 113.249531,12.4475767 114.2925,16.6375472 L120.435469,41.3044988 C120.784688,42.7089976 120.472969,44.1981899 119.582344,45.3415507 C118.694062,46.482559 117.332344,47.1506958 115.888594,47.1506958 L34.145625,47.1506958 Z" id="Fill-4663" fill="#40C9E7"></path>
            <polygon id="Fill-4664" fill="#FFFFFF" points="53.9233594 47.1506958 46.8921094 65.9714505 70.3296094 65.9714505 72.6733594 47.1506958"></polygon>
            <polygon id="Fill-4665" fill="#FFFFFF" points="96.1108594 47.1506958 103.142109 65.9714505 79.7046094 65.9714505 77.3608594 47.1506958"></polygon>
            <path d="M35.7421875,16.6370767 L29.5992187,41.3040283 C29.2476563,42.7108797 29.5617188,44.2000719 30.45,45.3410802 C31.340625,46.484441 32.7023438,47.1502252 34.1460938,47.1502252 L41.15625,47.1502252 L78.65625,9.5087158 L44.8359375,9.5087158 C40.5351562,9.5087158 36.7851562,12.4471061 35.7421875,16.6370767" id="Fill-4666" fill="#6FDAF1"></path>
            <path d="M28.1421094,127.138903 C28.1421094,129.736167 26.0421094,131.844092 23.4546094,131.844092 L14.0796094,131.844092 C11.4921094,131.844092 9.39210938,129.736167 9.39210938,127.138903 L9.39210938,110.670743 L28.1421094,110.670743 L28.1421094,127.138903 Z" id="Fill-4667" fill="#666666"></path>
            <path d="M140.642109,127.138903 C140.642109,129.736167 138.542109,131.844092 135.954609,131.844092 L126.579609,131.844092 C123.992109,131.844092 121.892109,129.736167 121.892109,127.138903 L121.892109,110.670743 L140.642109,110.670743 L140.642109,127.138903 Z" id="Fill-4668" fill="#666666"></path>
            <path d="M14.8258594,113.023337 C11.2633594,113.023337 8.04773438,110.96717 6.41648438,107.786462 C2.01257813,99.1947877 -1.62023437,86.9236557 0.746953125,76.7886792 C2.23289063,70.4249116 7.91179688,65.9714505 14.4250781,65.9714505 L135.599297,65.9714505 C142.086797,65.9714505 147.742266,70.4272642 149.268047,76.7533903 C151.543828,86.1872936 148.004766,99.0089328 143.640703,107.805283 C142.053984,111.002459 138.798516,113.023337 135.240703,113.023337 L14.8258594,113.023337 Z" id="Fill-4669" fill="#C3DBA9"></path>
            <path d="M9.39210938,84.7922052 C9.39210938,89.9890861 13.5897656,94.2025825 18.7671094,94.2025825 L131.267109,94.2025825 C136.444453,94.2025825 140.642109,89.9890861 140.642109,84.7922052 C140.642109,79.5953243 136.444453,75.3818278 131.267109,75.3818278 L18.7671094,75.3818278 C13.5897656,75.3818278 9.39210938,79.5953243 9.39210938,84.7922052" id="Fill-4670" fill="#333333"></path>
            <path d="M28.1421094,84.7922052 C28.1421094,88.690454 24.9944531,91.8499882 21.1108594,91.8499882 C17.2272656,91.8499882 14.0796094,88.690454 14.0796094,84.7922052 C14.0796094,80.8939564 17.2272656,77.7344222 21.1108594,77.7344222 C24.9944531,77.7344222 28.1421094,80.8939564 28.1421094,84.7922052" id="Fill-4671" fill="#E1C618"></path>
            <path d="M44.5483594,84.7922052 C44.5483594,88.690454 41.4007031,91.8499882 37.5171094,91.8499882 C33.6335156,91.8499882 30.4858594,88.690454 30.4858594,84.7922052 C30.4858594,80.8939564 33.6335156,77.7344222 37.5171094,77.7344222 C41.4007031,77.7344222 44.5483594,80.8939564 44.5483594,84.7922052" id="Fill-4672" fill="#E1C618"></path>
            <path d="M119.548359,84.7922052 C119.548359,88.690454 116.400703,91.8499882 112.517109,91.8499882 C108.633516,91.8499882 105.485859,88.690454 105.485859,84.7922052 C105.485859,80.8939564 108.633516,77.7344222 112.517109,77.7344222 C116.400703,77.7344222 119.548359,80.8939564 119.548359,84.7922052" id="Fill-4673" fill="#E1C618"></path>
            <path d="M135.954609,84.7922052 C135.954609,88.690454 132.806953,91.8499882 128.923359,91.8499882 C125.039766,91.8499882 121.892109,88.690454 121.892109,84.7922052 C121.892109,80.8939564 125.039766,77.7344222 128.923359,77.7344222 C132.806953,77.7344222 135.954609,80.8939564 135.954609,84.7922052" id="Fill-4674" fill="#E1C618"></path>
            <path d="M23.4546094,103.61296 C23.4546094,106.210224 21.3546094,108.318149 18.7671094,108.318149 C16.1796094,108.318149 14.0796094,106.210224 14.0796094,103.61296 C14.0796094,101.015696 16.1796094,98.9077712 18.7671094,98.9077712 C21.3546094,98.9077712 23.4546094,101.015696 23.4546094,103.61296" id="Fill-4675" fill="#FFFFFF"></path>
            <path d="M135.954609,103.61296 C135.954609,106.210224 133.854609,108.318149 131.267109,108.318149 C128.679609,108.318149 126.579609,106.210224 126.579609,103.61296 C126.579609,101.015696 128.679609,98.9077712 131.267109,98.9077712 C133.854609,98.9077712 135.954609,101.015696 135.954609,103.61296" id="Fill-4676" fill="#FFFFFF"></path>
            <polygon id="Fill-4677" fill="#81B44C" points="28.1421094 113.023337 37.5171094 103.61296 112.517109 103.61296 121.892109 113.023337"></polygon>
            <path d="M21.1108594,77.7344222 C17.2272656,77.7344222 14.0796094,80.8939564 14.0796094,84.7922052 C14.0796094,86.8083785 14.9327344,88.615171 16.2827344,89.9020401 L26.2014844,79.9458608 C24.9194531,78.5907665 23.1194531,77.7344222 21.1108594,77.7344222" id="Fill-4678" fill="#F2DA3E"></path>
            <path d="M37.5171094,77.7344222 C33.6335156,77.7344222 30.4858594,80.8939564 30.4858594,84.7922052 C30.4858594,86.8083785 31.3389844,88.615171 32.6889844,89.9020401 L42.6077344,79.9458608 C41.3257031,78.5907665 39.5257031,77.7344222 37.5171094,77.7344222" id="Fill-4679" fill="#F2DA3E"></path>
            <path d="M112.517109,77.7344222 C108.633516,77.7344222 105.485859,80.8939564 105.485859,84.7922052 C105.485859,86.8083785 106.338984,88.615171 107.688984,89.9020401 L117.607734,79.9458608 C116.325703,78.5907665 114.525703,77.7344222 112.517109,77.7344222" id="Fill-4680" fill="#F2DA3E"></path>
            <path d="M128.923359,77.7344222 C125.039766,77.7344222 121.892109,80.8939564 121.892109,84.7922052 C121.892109,86.8083785 122.745234,88.615171 124.095234,89.9020401 L134.013984,79.9458608 C132.731953,78.5907665 130.931953,77.7344222 128.923359,77.7344222" id="Fill-4681" fill="#F2DA3E"></path>
            <path d="M98.4271875,79.9882075 C98.4271875,81.2868396 97.3771875,82.3408019 96.0834375,82.3408019 L53.8959375,82.3408019 C52.6021875,82.3408019 51.5521875,81.2868396 51.5521875,79.9882075 C51.5521875,78.6895755 52.6021875,77.6356132 53.8959375,77.6356132 L96.0834375,77.6356132 C97.3771875,77.6356132 98.4271875,78.6895755 98.4271875,79.9882075" id="Fill-4682" fill="#999999"></path>
            <path d="M98.4271875,89.3985849 C98.4271875,90.697217 97.3771875,91.7511792 96.0834375,91.7511792 L53.8959375,91.7511792 C52.6021875,91.7511792 51.5521875,90.697217 51.5521875,89.3985849 C51.5521875,88.0999528 52.6021875,87.0459906 53.8959375,87.0459906 L96.0834375,87.0459906 C97.3771875,87.0459906 98.4271875,88.0999528 98.4271875,89.3985849" id="Fill-4683" fill="#999999"></path>
        </g>
    </g>
</svg>
