<?xml version="1.0" encoding="UTF-8"?>
<svg width="200px" height="200px" viewBox="0 0 200 200" version="1.1" xmlns="http://www.w3.org/2000/svg" xmlns:xlink="http://www.w3.org/1999/xlink">
    <!-- Generator: Sketch 48.1 (47250) - http://www.bohemiancoding.com/sketch -->
    <title>assets/img_marriage</title>
    <desc>Created with Sketch.</desc>
    <defs></defs>
    <g id="Circular-Icons" stroke="none" stroke-width="1" fill="none" fill-rule="evenodd" transform="translate(-1000.000000, -2500.000000)">
        <g id="assets/img_marriage" transform="translate(1000.000000, 2500.000000)">
            <circle id="background" fill="#353167" cx="100" cy="100" r="100"></circle>
            <g id="Group" transform="translate(45.000000, 45.000000)">
                <path d="M32.65625,24.0625 C33.8954688,24.0625 42.5442188,27.9451563 48.125,30.9375 C50.359375,32.13375 51.7532812,34.4660937 51.7532812,37.00125 L49.84375,68.75 L42.96875,68.75 L39.53125,110 L12.03125,110 L8.59375,68.75 L1.71875,68.75 L0,38.5945312 C0,36.14875 1.299375,33.886875 3.41,32.65625 L18.90625,24.0625 L32.65625,24.0625 Z" id="Fill-6984" fill="#333333"></path>
                <path d="M25.5664062,24.0625 L18.90625,24.0625 L3.41,32.65625 C1.299375,33.886875 0,36.14875 0,38.5945312 L1.71875,68.75 L8.59375,68.75 L12.03125,110 L25.5664062,110 L25.5664062,24.0625 Z" id="Fill-6985" fill="#5B5C5F"></path>
                <path d="M32.65625,24.0625 L18.90625,24.0625 L14.4460937,26.6629687 L25.78125,55 L37.3639062,26.0425 C34.9765625,24.8771875 33.1375,24.0625 32.65625,24.0625" id="Fill-6986" fill="#FFFFFF"></path>
                <path d="M39.53125,13.75 C39.53125,21.3434375 33.3746875,27.5 25.78125,27.5 C18.1878125,27.5 12.03125,21.3434375 12.03125,13.75 C12.03125,6.1565625 18.1878125,0 25.78125,0 C33.3746875,0 39.53125,6.1565625 39.53125,13.75" id="Fill-6987" fill="#FBC8C8"></path>
                <path d="M25.5664062,0.010828125 C18.0726562,0.125984375 12.03125,6.22926562 12.03125,13.7505156 C12.03125,21.2717656 18.0726562,27.3733281 25.5664062,27.4884844 L25.5664062,0.010828125 Z" id="Fill-6988" fill="#FBD7D7"></path>
                <path d="M51.5625,34.375 L106.5625,34.375 L106.5625,27.5 C106.5625,12.3114063 94.2510937,0 79.0625,0 C63.8739063,0 51.5625,12.3114063 51.5625,27.5 L51.5625,34.375 Z" id="Fill-6989" fill="#FFFFFF"></path>
                <path d="M1.71875,68.7491406 L1.71875,71.2378906 C1.71875,73.4963281 3.54921875,75.3267969 5.8059375,75.3267969 C8.064375,75.3267969 9.89484375,73.4963281 9.89484375,71.2378906 L9.89484375,68.7491406 L1.71875,68.7491406 Z" id="Fill-6990" fill="#FBD7D7"></path>
                <path d="M41.25,68.7491406 L41.25,71.2378906 C41.25,73.4963281 43.0804688,75.3267969 45.3371875,75.3267969 C47.595625,75.3267969 49.4260937,73.4963281 49.4260937,71.2378906 L49.4260937,68.7491406 L41.25,68.7491406 Z" id="Fill-6991" fill="#FBC8C8"></path>
                <polygon id="Fill-6992" fill="#E1C618" points="24.0625 32.65625 21.4173438 44.0928125 25.78125 55 30.1451563 44.0928125 27.5 32.65625"></polygon>
                <path d="M25.78125,27.5 C24.3753125,27.5 23.0209375,27.286875 21.7439062,26.895 L24.0625,32.65625 L27.5,32.65625 L29.8185937,26.895 C28.5415625,27.286875 27.1871875,27.5 25.78125,27.5" id="Fill-6993" fill="#F2DA3E"></path>
                <path d="M102.989047,39.8677812 C102.989047,37.5165313 101.787641,35.3285625 99.8059219,34.067 L86.1951406,25.4062187 C90.0829531,22.977625 92.6765469,18.6721563 92.6765469,13.7496563 C92.6765469,6.15621875 86.5217031,-0.00034375 78.9265469,-0.00034375 C71.3331094,-0.00034375 65.1765469,6.15621875 65.1765469,13.7496563 C65.1765469,18.6721563 67.7718594,22.977625 71.6579531,25.4062187 L58.0471719,34.067 C56.0654531,35.3285625 54.8640469,37.5165313 54.8640469,39.8677812 L51.5623281,70.4684063 C51.5623281,72.3659062 53.1023281,73.9059063 54.9998281,73.9059063 C56.8990469,73.9059063 58.4373281,72.3659062 58.4373281,70.4684063 L61.7390469,48.1246563 L96.1140469,48.1246563 L99.5515469,70.4684063 C99.5515469,72.3659062 101.091547,73.9059063 102.989047,73.9059063 C104.886547,73.9059063 106.426547,72.3659062 106.426547,70.4684063 L102.989047,39.8677812 Z" id="Fill-6994" fill="#FBC8C8"></path>
                <path d="M89.2995469,63.59375 C89.2995469,56.71875 96.1745469,53.28125 96.1745469,48.125 C96.1745469,42.96875 94.0106406,39.53125 89.2651719,39.53125 C84.8290781,39.53125 81.3279844,40.9045312 78.9698594,42.233125 C76.6100156,40.9045312 73.1106406,39.53125 68.6745469,39.53125 C63.9290781,39.53125 61.7651719,42.96875 61.7651719,48.125 C61.7651719,53.28125 68.6745469,56.71875 68.6745469,63.59375 C68.6745469,70.46875 35.8068906,110 53.2057969,110 L108.205797,110 C116.799547,110 89.2995469,70.46875 89.2995469,63.59375" id="Fill-6995" fill="#F0F1F1"></path>
                <path d="M85.9266719,15.4653125 C85.9266719,14.5165625 85.1583906,13.7482813 84.2096406,13.7482813 C84.2096406,13.7482813 84.2079219,13.75 84.2044844,13.75 C84.2062031,13.7671875 84.2096406,13.784375 84.2096406,13.8032812 C84.2096406,14.7485938 83.4447969,15.5151562 82.4994844,15.5185937 C82.5287031,16.4415625 83.2815156,17.180625 84.2096406,17.180625 C85.1583906,17.180625 85.9266719,16.4123437 85.9266719,15.4653125" id="Fill-6996" fill="#84462D"></path>
                <path d="M22.3545781,12.0274688 C22.3545781,11.0804375 21.5862969,10.3121563 20.6392656,10.3121563 L20.6341094,10.3121563 C20.6341094,10.3293438 20.6392656,10.3465313 20.6392656,10.3654375 C20.6392656,11.31075 19.8727031,12.0773125 18.9273906,12.08075 C18.9566094,13.0037188 19.7094219,13.7445 20.6392656,13.7445 C21.5862969,13.7445 22.3545781,12.9762188 22.3545781,12.0274688" id="Fill-6997" fill="#84462D"></path>
                <path d="M32.65625,12.0274688 C32.65625,11.0804375 31.8879687,10.3121563 30.9409375,10.3121563 L30.9340625,10.3121563 C30.9357812,10.3293438 30.9409375,10.3465313 30.9409375,10.3654375 C30.9409375,11.31075 30.174375,12.0773125 29.2290625,12.08075 C29.2582812,13.0037188 30.0110937,13.7445 30.9409375,13.7445 C31.8879687,13.7445 32.65625,12.9762188 32.65625,12.0274688" id="Fill-6998" fill="#84462D"></path>
                <path d="M20.6358281,17.1866406 L30.9483281,17.1866406 C30.9483281,17.1866406 30.9483281,21.5178906 25.7920781,21.5178906 C20.6358281,21.5178906 20.6358281,17.1866406 20.6358281,17.1866406" id="Fill-6999" fill="#F79392"></path>
                <path d="M37.7260469,6.95646875 C35.3593281,2.80396875 30.9008906,0.0006875 25.7807344,0.0006875 C21.4065156,0.0006875 17.5169844,2.05115625 14.9990156,5.23428125 C21.2587031,9.30428125 30.4780781,9.35240625 37.7260469,6.95646875" id="Fill-7000" fill="#84462D"></path>
                <path d="M78.9265469,27.5 C76.2538906,27.5 73.7685781,26.7248437 71.6579531,25.4065625 L58.0471719,34.0673437 C56.0654531,35.3289062 54.8640469,37.516875 54.8640469,39.868125 L51.5623281,70.46875 C51.5623281,72.36625 53.1023281,73.90625 54.9998281,73.90625 C56.8990469,73.90625 58.4373281,72.36625 58.4373281,70.46875 L61.7390469,48.125 L78.9265469,48.125 L78.9265469,27.5 Z" id="Fill-7001" fill="#FBD7D7"></path>
                <path d="M79.0625,42.2243594 C79.0573438,42.2260781 79.0504688,42.2295156 79.0453125,42.2329531 C76.6871875,40.9043594 73.1860938,39.5310781 68.75,39.5310781 C64.0045313,39.5310781 61.8389063,42.9685781 61.8389063,48.1248281 C61.8389063,53.2810781 68.75,56.7185781 68.75,63.5935781 C68.75,70.4685781 35.8823438,109.999828 53.28125,109.999828 L75.5889063,109.999828 L79.0625,109.999828 L79.0625,42.2243594 Z" id="Fill-7002" fill="#FFFFFF"></path>
                <path d="M65.1782656,13.75 C65.1782656,21.3434375 71.3348281,27.5 78.9282656,27.5 L78.9282656,0 C71.3348281,0 65.1782656,6.1565625 65.1782656,13.75" id="Fill-7003" fill="#FBD7D7"></path>
                <path d="M79.0625,6.79404687 C81.0390625,9.93592187 84.528125,12.0310781 88.515625,12.0310781 C92.2951562,12.0310781 95.6295312,10.1490469 97.6525,7.27701562 C92.7540625,2.77217187 86.24,-0.000171875 79.0625,-0.000171875 C71.885,-0.000171875 65.3709375,2.77217187 60.4725,7.27701562 C62.4954687,10.1490469 65.8298437,12.0310781 69.609375,12.0310781 C73.596875,12.0310781 77.0859375,9.93592187 79.0625,6.79404687" id="Fill-7004" fill="#AF7653"></path>
                <path d="M75.625,15.4653125 C75.625,14.5165625 74.8567187,13.7482813 73.9096875,13.7482813 C73.9079687,13.7482813 73.90625,13.75 73.9028125,13.75 C73.9045312,13.7671875 73.9096875,13.784375 73.9096875,13.8032812 C73.9096875,14.7485938 73.143125,15.5151562 72.1978125,15.5185937 C72.2270312,16.4415625 72.9798437,17.180625 73.9096875,17.180625 C74.8567187,17.180625 75.625,16.4123437 75.625,15.4653125" id="Fill-7005" fill="#84462D"></path>
                <path d="M73.90625,20.6241406 L84.21875,20.6241406 C84.21875,20.6241406 84.21875,24.9553906 79.0625,24.9553906 C73.90625,24.9553906 73.90625,20.6241406 73.90625,20.6241406" id="Fill-7006" fill="#F79392"></path>
            </g>
        </g>
    </g>
</svg>