<?xml version="1.0" encoding="UTF-8"?>
<svg width="200px" height="200px" viewBox="0 0 200 200" version="1.1" xmlns="http://www.w3.org/2000/svg" xmlns:xlink="http://www.w3.org/1999/xlink">
    <!-- Generator: Sketch 48.1 (47250) - http://www.bohemiancoding.com/sketch -->
    <title>assets/img_voting</title>
    <desc>Created with Sketch.</desc>
    <defs></defs>
    <g id="Circular-Icons" stroke="none" stroke-width="1" fill="none" fill-rule="evenodd" transform="translate(-750.000000, -1000.000000)">
        <g id="assets/img_voting" transform="translate(750.000000, 1000.000000)">
            <circle id="background" fill="#353167" cx="100" cy="100" r="100"></circle>
            <g id="Pen-+-Form" transform="translate(48.000000, 58.000000)">
                <g id="Form">
                    <g id="Checkbox">
                        <path d="M8.13559322,51.7241379 L48.8135593,51.7241379 L48.8135593,14.4827586 L8.13559322,14.4827586 L8.13559322,51.7241379 Z M50.8474576,60 L6.10169492,60 C2.73661017,60 0,57.2162069 0,53.7931034 L0,12.4137931 C0,8.99068966 2.73661017,6.20689655 6.10169492,6.20689655 L50.8474576,6.20689655 C54.2125424,6.20689655 56.9491525,8.99068966 56.9491525,12.4137931 L56.9491525,53.7931034 C56.9491525,57.2162069 54.2125424,60 50.8474576,60 L50.8474576,60 Z" id="Fill-4810" fill="#FFFFFF"></path>
                        <path d="M29.4910169,47.5862069 C28.010339,47.5862069 26.5988136,46.9293103 25.630678,45.78 L13.4272881,31.2972414 C11.5998305,29.127931 11.8469492,25.8631034 13.9794915,24.0041379 C16.1110169,22.1431034 19.3205085,22.3944828 21.1489831,24.5648276 L29.1269492,34.0334483 L54.3411864,3.10344828 C58.2442373,-2.45896552 62.330339,0.620689655 58.4089831,6.20689655 L33.6289831,45.42 C32.7208475,46.7141379 31.2777966,47.5106897 29.7157627,47.5810345 C29.6405085,47.5841379 29.5662712,47.5862069 29.4910169,47.5862069" id="Fill-4811" fill="#81B44C"></path>
                    </g>
                </g>
                <g id="Pen" transform="translate(26.000000, 5.000000)">
                    <path d="M85.0003376,4.5321016 C80.4732928,0.0200695187 73.1335099,0.0200695187 68.605016,4.5321016 L66.6371137,2.57135294 C63.1969075,-0.856347594 57.6192521,-0.856347594 54.1790459,2.57135294 L31.716267,24.9510321 C30.0367392,26.6258984 30.0367392,29.3403369 31.716267,31.0152032 L31.7785791,31.0772888 C33.459556,32.7507112 36.183898,32.7507112 37.8648749,31.0772888 L58.3568532,10.6598021 C59.4900635,9.53071123 61.3246469,9.53071123 62.4578573,10.6583583 L48.3434475,24.720016 L9.1737867,63.7472888 L25.5691083,80.0830107 L85.0003376,20.8663797 C89.5288315,16.3557914 89.5288315,9.04268984 85.0003376,4.5321016" id="Fill-2482" fill="#8B88AA"></path>
                    <path d="M84.9777313,4.51174332 C80.4492374,0.0228128342 73.1253948,0.0285882353 68.6055957,4.53195722 L9.17436635,63.7471444 L17.3502904,71.8933476 L84.9777313,4.51174332 Z" id="Fill-2483" fill="#B6B4CC"></path>
                    <polygon id="Fill-2484" fill="#F0F1F1" points="25.5692532 80.0825775 9.17393161 63.7468556 3.02677286 78.0409733 11.2229845 86.2088342"></polygon>
                    <path d="M3.02619322,78.0405401 L11.223854,86.2084011 L4.39850801,88.571984 C2.05528412,89.4715027 -0.248813569,87.1757807 0.653986974,84.8410749 L3.02619322,78.0405401 Z" id="Fill-2485" fill="#638A3A"></path>
                    <polygon id="Fill-2486" fill="#E1C618" points="64.7381894 41.0560267 48.3428678 24.7203048 45.4026073 27.6513209 61.7979289 43.9870428"></polygon>
                    <polygon id="Fill-2487" fill="#F2DA3E" points="45.4021726 27.6513209 53.5780966 35.7975241 56.5183571 32.866508 48.3438822 24.7203048"></polygon>
                </g>
            </g>
        </g>
    </g>
</svg>