<?xml version="1.0" encoding="UTF-8"?>
<svg width="60px" height="60px" viewBox="0 0 60 60" version="1.1" xmlns="http://www.w3.org/2000/svg" xmlns:xlink="http://www.w3.org/1999/xlink">
    <title>Propery report_no circle</title>
    <g id="Propery-report_no-circle" stroke="none" stroke-width="1" fill="none" fill-rule="evenodd">
        <g id="house-copy" transform="translate(1.000000, 0.000000)">
            <polygon id="Fill-2263" fill="#FFFFFF" points="56.1610783 56.25 3.74407189 56.25 3.74407189 22.5 56.1610783 22.5"></polygon>
            <path d="M52.4170064,5.625 C52.4170064,4.5890625 51.5783343,3.75 50.5449705,3.75 L46.8008986,3.75 C45.7675347,3.75 44.9288626,4.5890625 44.9288626,5.625 L44.9288626,16.875 C44.9288626,17.9109375 45.7675347,18.75 46.8008986,18.75 L50.5449705,18.75 C51.5783343,18.75 52.4170064,17.9109375 52.4170064,16.875 L52.4170064,5.625 Z" id="Fill-2264" fill="#E2E4E5"></path>
            <path d="M31.1020052,0.39496875 C30.4262002,-0.13190625 29.479886,-0.13190625 28.803145,0.39496875 L0.722605874,19.1449687 C0.0917297612,19.6371562 -0.158187037,20.4762187 0.101089941,21.2337187 C0.361302937,21.9912187 1.07174058,22.5002812 1.87203594,22.5002812 L58.0331142,22.5002812 C58.8324736,22.5002812 59.5438472,21.9912187 59.8040602,21.2337187 C60.0633372,20.4762187 59.8134204,19.6371562 59.1825443,19.1449687 L31.1020052,0.39496875 Z" id="Fill-2265" fill="#DF2C2C"></path>
            <polygon id="Fill-2266" fill="#40C9E7" points="52.4170064 44.1796875 32.760629 44.1796875 32.760629 30 52.4170064 30"></polygon>
            <path d="M24.3364673,37.5 C24.3364673,33.358125 20.9836509,30 16.8483235,30 C12.7129961,30 9.36017972,33.358125 9.36017972,37.5 L9.36017972,52.5 L24.3364673,52.5 L24.3364673,37.5 Z" id="Fill-2267" fill="#84462D"></path>
            <path d="M22.4644313,43.125 C22.4644313,44.1609375 21.6257592,45 20.5923954,45 C19.5590315,45 18.7203594,44.1609375 18.7203594,43.125 C18.7203594,42.0890625 19.5590315,41.25 20.5923954,41.25 C21.6257592,41.25 22.4644313,42.0890625 22.4644313,43.125" id="Fill-2268" fill="#FACB1B"></path>
            <polygon id="Fill-2269" fill="#0D9681" points="59.9051502 60 0 60 0 56.25 59.9051502 56.25"></polygon>
            <path d="M0,56.25 L2.92131209,53.3240625 C3.44829021,52.79625 4.16247192,52.5 4.90754222,52.5 L54.997608,52.5 C55.7426783,52.5 56.45686,52.79625 56.9838381,53.3240625 L59.9051502,56.25 L0,56.25 Z" id="Fill-2270" fill="#17B198"></path>
        </g>
    </g>
</svg>