<?xml version="1.0" encoding="UTF-8"?>
<svg width="60px" height="60px" viewBox="0 0 60 60" version="1.1" xmlns="http://www.w3.org/2000/svg" xmlns:xlink="http://www.w3.org/1999/xlink">
    <title>instagram_no circle</title>
    <defs>
        <radialGradient cx="26.5626266%" cy="107.702106%" fx="26.5626266%" fy="107.702106%" r="49.9906001%" gradientTransform="translate(0.265626,1.077021),scale(1.000000,0.992637),translate(-0.265626,-1.077021)" id="radialGradient-1">
            <stop stop-color="#FFDD55" offset="0%"></stop>
            <stop stop-color="#FFDD55" offset="10%"></stop>
            <stop stop-color="#FF543E" offset="50%"></stop>
            <stop stop-color="#C837AB" offset="100%"></stop>
        </radialGradient>
        <radialGradient cx="-16.7505274%" cy="7.20383154%" fx="-16.7505274%" fy="7.20383154%" r="49.9906001%" gradientTransform="translate(-0.167505,0.072038),scale(1.000000,0.992637),translate(0.167505,-0.072038)" id="radialGradient-2">
            <stop stop-color="#3771C8" offset="0%"></stop>
            <stop stop-color="#3771C8" offset="12.8%"></stop>
            <stop stop-color="#6600FF" stop-opacity="0" offset="100%"></stop>
        </radialGradient>
    </defs>
    <g id="instagram_no-circle" stroke="none" stroke-width="1" fill="none" fill-rule="evenodd">
        <g id="instagram-icon" transform="translate(-0.500000, -0.500000)" fill-rule="nonzero">
            <path d="M29.7865649,0 C17.3551145,0 13.7193893,0.0129230769 13.0126718,0.072 C10.4615267,0.285692308 8.8740458,0.690461538 7.14458015,1.55815385 C5.81175573,2.22507692 4.76061069,2.99815385 3.72320611,4.08184615 C1.83389313,6.05815385 0.688854962,8.48953846 0.274351145,11.3796923 C0.0728244275,12.7827692 0.0141984733,13.0689231 0.00229007634,20.2356923 C-0.00229007634,22.6246154 0.00229007634,25.7686154 0.00229007634,29.9856923 C0.00229007634,42.5026154 0.0160305344,46.1626154 0.0755725191,46.8733846 C0.281679389,49.3749231 0.670992366,50.9487692 1.49541985,52.6703077 C3.07099237,55.9656923 6.08015267,58.4395385 9.62519084,59.3626154 C10.8526718,59.6810769 12.2083969,59.8564615 13.948855,59.9395385 C14.6862595,59.9718462 22.2022901,59.9949231 29.7229008,59.9949231 C37.2435115,59.9949231 44.7641221,59.9856923 45.4832061,59.9487692 C47.4984733,59.8532308 48.6687023,59.6949231 49.9625954,59.358 C53.5305344,58.4303077 56.4847328,55.9933846 58.0923664,52.6518462 C58.9007634,50.9718462 59.310687,49.338 59.4961832,46.9670769 C59.5364885,46.4501538 59.5534351,38.2084615 59.5534351,29.9778462 C59.5534351,21.7458462 59.5351145,13.5193846 59.4948092,13.0024615 C59.3070229,10.5932308 58.8970992,8.97323077 58.0625954,7.26092308 C57.3778626,5.85923077 56.6175573,4.81246154 55.5137405,3.74215385 C53.5438168,1.84615385 51.1346565,0.692307692 48.2638168,0.275076923 C46.8728244,0.0724615385 46.5957252,0.0124615385 39.4781679,0 L29.7865649,0 Z" id="Shape" fill="url(#radialGradient-1)"></path>
            <path d="M29.7865649,0 C17.3551145,0 13.7193893,0.0129230769 13.0126718,0.072 C10.4615267,0.285692308 8.8740458,0.690461538 7.14458015,1.55815385 C5.81175573,2.22507692 4.76061069,2.99815385 3.72320611,4.08184615 C1.83389313,6.05815385 0.688854962,8.48953846 0.274351145,11.3796923 C0.0728244275,12.7827692 0.0141984733,13.0689231 0.00229007634,20.2356923 C-0.00229007634,22.6246154 0.00229007634,25.7686154 0.00229007634,29.9856923 C0.00229007634,42.5026154 0.0160305344,46.1626154 0.0755725191,46.8733846 C0.281679389,49.3749231 0.670992366,50.9487692 1.49541985,52.6703077 C3.07099237,55.9656923 6.08015267,58.4395385 9.62519084,59.3626154 C10.8526718,59.6810769 12.2083969,59.8564615 13.948855,59.9395385 C14.6862595,59.9718462 22.2022901,59.9949231 29.7229008,59.9949231 C37.2435115,59.9949231 44.7641221,59.9856923 45.4832061,59.9487692 C47.4984733,59.8532308 48.6687023,59.6949231 49.9625954,59.358 C53.5305344,58.4303077 56.4847328,55.9933846 58.0923664,52.6518462 C58.9007634,50.9718462 59.310687,49.338 59.4961832,46.9670769 C59.5364885,46.4501538 59.5534351,38.2084615 59.5534351,29.9778462 C59.5534351,21.7458462 59.5351145,13.5193846 59.4948092,13.0024615 C59.3070229,10.5932308 58.8970992,8.97323077 58.0625954,7.26092308 C57.3778626,5.85923077 56.6175573,4.81246154 55.5137405,3.74215385 C53.5438168,1.84615385 51.1346565,0.692307692 48.2638168,0.275076923 C46.8728244,0.0724615385 46.5957252,0.0124615385 39.4781679,0 L29.7865649,0 Z" id="Shape" fill="url(#radialGradient-2)"></path>
            <path d="M29.7728244,7.84615385 C23.8021374,7.84615385 23.0528244,7.87246154 20.7077863,7.98 C18.3673282,8.088 16.769771,8.46138462 15.3719084,9.00923077 C13.9259542,9.57507692 12.6993893,10.332 11.4774046,11.5638462 C10.2545038,12.7952308 9.50335878,14.0312308 8.94,15.4878462 C8.39496183,16.8969231 8.02396947,18.5072308 7.91862595,20.8647692 C7.81374046,23.2278462 7.78625954,23.9833846 7.78625954,30 C7.78625954,36.0166154 7.81282443,36.7693846 7.91908397,39.1324615 C8.02671756,41.4909231 8.39725191,43.1007692 8.94045802,44.5093846 C9.50244275,45.9664615 10.2535878,47.2024615 11.4760305,48.4338462 C12.6975573,49.6661538 13.9241221,50.4249231 15.3691603,50.9907692 C16.7679389,51.5386154 18.3659542,51.912 20.7059542,52.02 C23.0509924,52.1275385 23.7998473,52.1538462 29.7700763,52.1538462 C35.7412214,52.1538462 36.4882443,52.1275385 38.8332824,52.02 C41.1737405,51.912 42.7731298,51.5386154 44.1719084,50.9907692 C45.6174046,50.4249231 46.8421374,49.6661538 48.0636641,48.4338462 C49.2865649,47.2024615 50.0377099,45.9664615 50.6010687,44.5098462 C51.1415267,43.1007692 51.5125191,41.4904615 51.6224427,39.1329231 C51.7277863,36.7698462 51.7552672,36.0166154 51.7552672,30 C51.7552672,23.9833846 51.7277863,23.2283077 51.6224427,20.8652308 C51.5125191,18.5067692 51.1415267,16.8969231 50.6010687,15.4883077 C50.0377099,14.0312308 49.2865649,12.7952308 48.0636641,11.5638462 C46.8407634,10.3315385 45.6178626,9.57461538 44.1705344,9.00923077 C42.7690076,8.46138462 41.1705344,8.088 38.8300763,7.98 C36.4850382,7.87246154 35.7384733,7.84615385 29.7659542,7.84615385 L29.7728244,7.84615385 Z M27.8006107,11.8384615 C28.3859542,11.8375385 29.039084,11.8384615 29.7728244,11.8384615 C35.6427481,11.8384615 36.3384733,11.8596923 38.6564885,11.9658462 C40.8,12.0646154 41.9633588,12.4255385 42.7383206,12.7287692 C43.7642748,13.1303077 44.4957252,13.6103077 45.2647328,14.3856923 C46.0341985,15.1610769 46.5105344,15.8995385 46.9099237,16.9333846 C47.2108397,17.7133846 47.5694656,18.8856923 47.6670229,21.0456923 C47.7723664,23.3810769 47.7952672,24.0826154 47.7952672,29.9949231 C47.7952672,35.9072308 47.7723664,36.6087692 47.6670229,38.9441538 C47.5690076,41.1041538 47.2108397,42.2764615 46.9099237,43.0564615 C46.5114504,44.0903077 46.0341985,44.8264615 45.2647328,45.6013846 C44.4952672,46.3767692 43.7647328,46.8567692 42.7383206,47.2583077 C41.9642748,47.5629231 40.8,47.9229231 38.6564885,48.0216923 C36.3389313,48.1278462 35.6427481,48.1509231 29.7728244,48.1509231 C23.9024427,48.1509231 23.2067176,48.1278462 20.8891603,48.0216923 C18.7456489,47.922 17.5822901,47.5610769 16.8068702,47.2578462 C15.780916,46.8563077 15.0480916,46.3763077 14.278626,45.6009231 C13.5091603,44.8255385 13.0328244,44.0889231 12.6334351,43.0546154 C12.3325191,42.2746154 11.9738931,41.1023077 11.8763359,38.9423077 C11.7709924,36.6069231 11.7499237,35.9053846 11.7499237,29.9893846 C11.7499237,24.0733846 11.7709924,23.3755385 11.8763359,21.0401538 C11.9743511,18.8801538 12.3325191,17.7078462 12.6334351,16.9269231 C13.0319084,15.8930769 13.5091603,15.1546154 14.278626,14.3792308 C15.0480916,13.6038462 15.780916,13.1238462 16.8068702,12.7213846 C17.5818321,12.4167692 18.7456489,12.0567692 20.8891603,11.9575385 C22.9172519,11.8652308 23.7032061,11.8375385 27.8006107,11.8329231 L27.8006107,11.8384615 Z M41.5080916,15.5169231 C40.0516031,15.5169231 38.8699237,16.7063077 38.8699237,18.1744615 C38.8699237,19.6421538 40.0516031,20.8329231 41.5080916,20.8329231 C42.9645802,20.8329231 44.1462595,19.6421538 44.1462595,18.1744615 C44.1462595,16.7067692 42.9645802,15.516 41.5080916,15.516 L41.5080916,15.5169231 Z M29.7728244,18.6230769 C23.5378626,18.6230769 18.4827481,23.7170769 18.4827481,30 C18.4827481,36.2829231 23.5378626,41.3746154 29.7728244,41.3746154 C36.0077863,41.3746154 41.0610687,36.2829231 41.0610687,30 C41.0610687,23.7170769 36.0073282,18.6230769 29.7723664,18.6230769 L29.7728244,18.6230769 Z M29.7728244,22.6153846 C33.8198473,22.6153846 37.1010687,25.9213846 37.1010687,30 C37.1010687,34.0781538 33.8198473,37.3846154 29.7728244,37.3846154 C25.7253435,37.3846154 22.4445802,34.0781538 22.4445802,30 C22.4445802,25.9213846 25.7253435,22.6153846 29.7728244,22.6153846 L29.7728244,22.6153846 Z" id="Shape" fill="#FFFFFF"></path>
        </g>
    </g>
</svg>