<?xml version="1.0" encoding="UTF-8"?>
<svg width="196px" height="159px" viewBox="0 0 196 159" version="1.1" xmlns="http://www.w3.org/2000/svg" xmlns:xlink="http://www.w3.org/1999/xlink">
    <title>Group 14</title>
    <defs>
        <rect id="path-1" x="0" y="0" width="188" height="151" rx="4"></rect>
        <filter x="-3.7%" y="-3.3%" width="107.4%" height="109.3%" filterUnits="objectBoundingBox" id="filter-2">
            <feOffset dx="0" dy="2" in="SourceAlpha" result="shadowOffsetOuter1"></feOffset>
            <feGaussianBlur stdDeviation="2" in="shadowOffsetOuter1" result="shadowBlurOuter1"></feGaussianBlur>
            <feColorMatrix values="0 0 0 0 0   0 0 0 0 0   0 0 0 0 0  0 0 0 0.5 0" type="matrix" in="shadowBlurOuter1"></feColorMatrix>
        </filter>
    </defs>
    <g id="Monitoring" stroke="none" stroke-width="1" fill="none" fill-rule="evenodd">
        <g id="Group-14" transform="translate(4.000000, 2.000000)">
            <path d="M4,0 L184,0 C186.209139,-4.05812251e-16 188,1.790861 188,4 L188,8 L188,8 L0,8 L0,4 C-2.705415e-16,1.790861 1.790861,4.05812251e-16 4,0 Z" id="Rectangle" fill="#FF4722"></path>
            <g id="Rectangle-Copy-3">
                <use fill="black" fill-opacity="1" filter="url(#filter-2)" xlink:href="#path-1"></use>
                <use fill="#FFFFFF" fill-rule="evenodd" xlink:href="#path-1"></use>
            </g>
            <path d="M17.888,67.256 L20.16,62.28 C20.448,61.64 20.784,60.84 20.944,60.424 C20.944,60.856 20.912,62.28 20.912,62.888 L20.912,67 L23.152,67 L23.152,55.8 L20.944,55.8 L18.688,60.872 C18.4,61.512 18.08,62.328 17.936,62.744 C17.792,62.344 17.456,61.496 17.168,60.872 L14.832,55.8 L12.672,55.8 L12.672,67 L14.864,67 L14.864,62.888 C14.864,62.28 14.832,60.856 14.832,60.424 C14.992,60.84 15.328,61.64 15.616,62.28 L17.888,67.256 Z M29.024,67.176 C31.216,67.176 32.832,65.384 32.832,62.808 C32.832,60.232 31.216,58.424 29.024,58.424 C26.832,58.424 25.232,60.232 25.232,62.808 C25.232,65.384 26.832,67.176 29.024,67.176 Z M29.024,65.048 C27.968,65.048 27.472,64.104 27.472,62.808 C27.472,61.512 27.968,60.552 29.024,60.552 C30.08,60.552 30.592,61.528 30.592,62.808 C30.592,63.976 30.08,65.048 29.024,65.048 Z M36.752,67 L36.752,62.408 C36.752,60.952 37.28,60.504 38.192,60.504 C39.104,60.504 39.616,60.952 39.616,62.456 L39.616,67 L41.824,67 L41.824,62.264 C41.824,59.896 40.864,58.424 38.72,58.424 C37.84,58.424 37.136,58.76 36.752,59.16 L36.752,58.6 L34.544,58.6 L34.544,67 L36.752,67 Z M45.072,57.912 C45.76,57.912 46.336,57.336 46.336,56.648 C46.336,55.96 45.76,55.384 45.072,55.384 C44.384,55.384 43.808,55.96 43.808,56.648 C43.808,57.336 44.384,57.912 45.072,57.912 Z M46.176,67 L46.176,58.6 L43.968,58.6 L43.968,67 L46.176,67 Z M51.376,67.176 C52.064,67.176 52.72,66.952 53.088,66.664 L53.408,64.424 C52.864,64.888 52.56,65.064 52.16,65.064 C51.632,65.064 51.344,64.856 51.344,64.056 L51.344,60.68 L53.36,60.68 L53.36,58.6 L51.344,58.6 L51.344,55.336 L49.136,56.44 L49.136,58.6 L47.728,58.6 L47.728,60.68 L49.136,60.68 L49.136,64.648 C49.136,66.12 50.016,67.176 51.376,67.176 Z M58.832,67.176 C61.024,67.176 62.64,65.384 62.64,62.808 C62.64,60.232 61.024,58.424 58.832,58.424 C56.64,58.424 55.04,60.232 55.04,62.808 C55.04,65.384 56.64,67.176 58.832,67.176 Z M58.832,65.048 C57.776,65.048 57.28,64.104 57.28,62.808 C57.28,61.512 57.776,60.552 58.832,60.552 C59.888,60.552 60.4,61.528 60.4,62.808 C60.4,63.976 59.888,65.048 58.832,65.048 Z M66.56,67 L66.56,62.456 C66.56,61 67.12,60.632 67.984,60.632 C68.48,60.632 68.912,60.856 69.264,61.176 L69.84,59.016 C69.552,58.712 69.008,58.424 68.288,58.424 C67.504,58.424 66.944,58.76 66.56,59.16 L66.56,58.6 L64.352,58.6 L64.352,67 L66.56,67 Z M78.816,67.176 C79.504,67.176 80.16,66.952 80.528,66.664 L80.848,64.424 C80.304,64.888 80,65.064 79.6,65.064 C79.072,65.064 78.784,64.856 78.784,64.056 L78.784,60.68 L80.8,60.68 L80.8,58.6 L78.784,58.6 L78.784,55.336 L76.576,56.44 L76.576,58.6 L75.168,58.6 L75.168,60.68 L76.576,60.68 L76.576,64.648 C76.576,66.12 77.456,67.176 78.816,67.176 Z M85.12,67 L85.12,62.408 C85.12,60.952 85.648,60.504 86.56,60.504 C87.472,60.504 87.984,60.952 87.984,62.456 L87.984,67 L90.192,67 L90.192,62.264 C90.192,59.896 89.232,58.424 87.088,58.424 C86.208,58.424 85.504,58.76 85.12,59.16 L85.12,55.336 L82.912,56.44 L82.912,67 L85.12,67 Z M93.44,57.912 C94.128,57.912 94.704,57.336 94.704,56.648 C94.704,55.96 94.128,55.384 93.44,55.384 C92.752,55.384 92.176,55.96 92.176,56.648 C92.176,57.336 92.752,57.912 93.44,57.912 Z M94.544,67 L94.544,58.6 L92.336,58.6 L92.336,67 L94.544,67 Z M99.984,67.176 C101.872,67.176 103.408,66.488 103.408,64.552 C103.408,62.872 102.112,62.328 100.608,61.832 C99.12,61.352 98.864,61.208 98.864,60.856 C98.864,60.488 99.104,60.312 100,60.312 C100.704,60.312 101.616,60.536 102.448,60.984 L103.152,59.24 C102.256,58.744 101.104,58.424 100.048,58.424 C98.08,58.424 96.688,59.176 96.688,60.92 C96.688,62.696 97.984,63.192 100,63.8 C100.928,64.072 101.232,64.264 101.232,64.648 C101.232,65.08 100.976,65.288 100.112,65.288 C99.04,65.288 98.096,65.016 97.2,64.52 L96.464,66.2 C97.36,66.792 98.656,67.176 99.984,67.176 Z M112.208,67 L112.208,62.456 C112.208,61 112.768,60.632 113.632,60.632 C114.128,60.632 114.56,60.856 114.912,61.176 L115.488,59.016 C115.2,58.712 114.656,58.424 113.936,58.424 C113.152,58.424 112.592,58.76 112.208,59.16 L112.208,58.6 L110,58.6 L110,67 L112.208,67 Z M120.368,67.176 C121.488,67.176 122.704,66.68 123.376,65.816 L121.808,64.504 C121.488,64.872 120.976,65.096 120.368,65.096 C119.568,65.096 118.72,64.664 118.64,63.512 L123.664,63.512 C123.68,63.352 123.696,63.128 123.696,62.808 C123.696,60.408 122.4,58.424 120.16,58.424 C118.032,58.424 116.416,60.232 116.416,62.808 C116.416,65.464 117.952,67.176 120.368,67.176 Z M121.552,61.848 L118.672,61.848 C118.752,61 119.248,60.344 120.048,60.344 C121.04,60.344 121.488,61.096 121.552,61.848 Z M125.456,70.088 L127.664,68.984 L127.664,66.52 C128.064,66.888 128.704,67.176 129.44,67.176 C131.52,67.176 132.704,65.416 132.704,62.904 C132.704,59.768 131.232,58.424 129.44,58.424 C128.64,58.424 128.08,58.76 127.664,59.128 L127.664,58.6 L125.456,58.6 L125.456,70.088 Z M129.152,65.096 C128.512,65.096 128,64.84 127.664,64.376 L127.664,61.208 C127.984,60.792 128.336,60.504 129.024,60.504 C129.888,60.504 130.464,61.224 130.464,62.952 C130.464,64.36 130,65.096 129.152,65.096 Z M137.808,67.176 C140,67.176 141.616,65.384 141.616,62.808 C141.616,60.232 140,58.424 137.808,58.424 C135.616,58.424 134.016,60.232 134.016,62.808 C134.016,65.384 135.616,67.176 137.808,67.176 Z M137.808,65.048 C136.752,65.048 136.256,64.104 136.256,62.808 C136.256,61.512 136.752,60.552 137.808,60.552 C138.864,60.552 139.376,61.528 139.376,62.808 C139.376,63.976 138.864,65.048 137.808,65.048 Z M145.536,67 L145.536,62.456 C145.536,61 146.096,60.632 146.96,60.632 C147.456,60.632 147.888,60.856 148.24,61.176 L148.816,59.016 C148.528,58.712 147.984,58.424 147.264,58.424 C146.48,58.424 145.92,58.76 145.536,59.16 L145.536,58.6 L143.328,58.6 L143.328,67 L145.536,67 Z M153.152,67.176 C153.84,67.176 154.496,66.952 154.864,66.664 L155.184,64.424 C154.64,64.888 154.336,65.064 153.936,65.064 C153.408,65.064 153.12,64.856 153.12,64.056 L153.12,60.68 L155.136,60.68 L155.136,58.6 L153.12,58.6 L153.12,55.336 L150.912,56.44 L150.912,58.6 L149.504,58.6 L149.504,60.68 L150.912,60.68 L150.912,64.648 C150.912,66.12 151.792,67.176 153.152,67.176 Z M164.864,67.176 C165.552,67.176 166.208,66.952 166.576,66.664 L166.896,64.424 C166.352,64.888 166.048,65.064 165.648,65.064 C165.12,65.064 164.832,64.856 164.832,64.056 L164.832,60.68 L166.848,60.68 L166.848,58.6 L164.832,58.6 L164.832,55.336 L162.624,56.44 L162.624,58.6 L161.216,58.6 L161.216,60.68 L162.624,60.68 L162.624,64.648 C162.624,66.12 163.504,67.176 164.864,67.176 Z M172.32,67.176 C174.512,67.176 176.128,65.384 176.128,62.808 C176.128,60.232 174.512,58.424 172.32,58.424 C170.128,58.424 168.528,60.232 168.528,62.808 C168.528,65.384 170.128,67.176 172.32,67.176 Z M172.32,65.048 C171.264,65.048 170.768,64.104 170.768,62.808 C170.768,61.512 171.264,60.552 172.32,60.552 C173.376,60.552 173.888,61.528 173.888,62.808 C173.888,63.976 173.376,65.048 172.32,65.048 Z M37.264,86 L37.264,81.456 C37.264,80 37.824,79.632 38.688,79.632 C39.184,79.632 39.616,79.856 39.968,80.176 L40.544,78.016 C40.256,77.712 39.712,77.424 38.992,77.424 C38.208,77.424 37.648,77.76 37.264,78.16 L37.264,77.6 L35.056,77.6 L35.056,86 L37.264,86 Z M45.424,86.176 C46.544,86.176 47.76,85.68 48.432,84.816 L46.864,83.504 C46.544,83.872 46.032,84.096 45.424,84.096 C44.624,84.096 43.776,83.664 43.696,82.512 L48.72,82.512 C48.736,82.352 48.752,82.128 48.752,81.808 C48.752,79.408 47.456,77.424 45.216,77.424 C43.088,77.424 41.472,79.232 41.472,81.808 C41.472,84.464 43.008,86.176 45.424,86.176 Z M46.608,80.848 L43.728,80.848 C43.808,80 44.304,79.344 45.104,79.344 C46.096,79.344 46.544,80.096 46.608,80.848 Z M54.016,86.176 C55.68,86.176 56.64,85.392 57.456,84.304 L56.048,82.976 C55.472,83.664 54.928,84.048 54.064,84.048 C53.008,84.048 52.32,83.152 52.32,81.808 C52.32,80.432 53.008,79.552 54.064,79.552 C54.96,79.552 55.488,80.048 55.984,80.752 L57.44,79.28 C56.736,78.208 55.712,77.424 54.112,77.424 C51.776,77.424 50.08,79.232 50.08,81.808 C50.08,84.384 51.824,86.176 54.016,86.176 Z M62.624,86.176 C63.744,86.176 64.96,85.68 65.632,84.816 L64.064,83.504 C63.744,83.872 63.232,84.096 62.624,84.096 C61.824,84.096 60.976,83.664 60.896,82.512 L65.92,82.512 C65.936,82.352 65.952,82.128 65.952,81.808 C65.952,79.408 64.656,77.424 62.416,77.424 C60.288,77.424 58.672,79.232 58.672,81.808 C58.672,84.464 60.208,86.176 62.624,86.176 Z M63.808,80.848 L60.928,80.848 C61.008,80 61.504,79.344 62.304,79.344 C63.296,79.344 63.744,80.096 63.808,80.848 Z M68.896,76.912 C69.584,76.912 70.16,76.336 70.16,75.648 C70.16,74.96 69.584,74.384 68.896,74.384 C68.208,74.384 67.632,74.96 67.632,75.648 C67.632,76.336 68.208,76.912 68.896,76.912 Z M70,86 L70,77.6 L67.792,77.6 L67.792,86 L70,86 Z M76.848,86 L79.872,77.6 L77.504,77.6 L76.272,81.488 C76.064,82.144 75.84,82.912 75.744,83.328 C75.648,82.928 75.424,82.128 75.216,81.488 L73.984,77.6 L71.552,77.6 L74.576,86 L76.848,86 Z M84.864,86.176 C85.984,86.176 87.2,85.68 87.872,84.816 L86.304,83.504 C85.984,83.872 85.472,84.096 84.864,84.096 C84.064,84.096 83.216,83.664 83.136,82.512 L88.16,82.512 C88.176,82.352 88.192,82.128 88.192,81.808 C88.192,79.408 86.896,77.424 84.656,77.424 C82.528,77.424 80.912,79.232 80.912,81.808 C80.912,84.464 82.448,86.176 84.864,86.176 Z M86.048,80.848 L83.168,80.848 C83.248,80 83.744,79.344 84.544,79.344 C85.536,79.344 85.984,80.096 86.048,80.848 Z M97.616,86.176 C98.496,86.176 99.2,85.84 99.584,85.44 L99.584,86 L101.792,86 L101.792,77.6 L99.584,77.6 L99.584,82.192 C99.584,83.648 99.056,84.096 98.144,84.096 C97.232,84.096 96.72,83.648 96.72,82.144 L96.72,77.6 L94.512,77.6 L94.512,82.336 C94.512,84.704 95.472,86.176 97.616,86.176 Z M103.936,89.088 L106.144,87.984 L106.144,85.52 C106.544,85.888 107.184,86.176 107.92,86.176 C110,86.176 111.184,84.416 111.184,81.904 C111.184,78.768 109.712,77.424 107.92,77.424 C107.12,77.424 106.56,77.76 106.144,78.128 L106.144,77.6 L103.936,77.6 L103.936,89.088 Z M107.632,84.096 C106.992,84.096 106.48,83.84 106.144,83.376 L106.144,80.208 C106.464,79.792 106.816,79.504 107.504,79.504 C108.368,79.504 108.944,80.224 108.944,81.952 C108.944,83.36 108.48,84.096 107.632,84.096 Z M115.76,86.176 C116.56,86.176 117.12,85.84 117.536,85.472 L117.536,86 L119.744,86 L119.744,74.336 L117.536,75.44 L117.536,78.08 C117.136,77.712 116.496,77.424 115.76,77.424 C113.68,77.424 112.496,79.184 112.496,81.696 C112.496,84.832 113.968,86.176 115.76,86.176 Z M116.176,84.096 C115.312,84.096 114.736,83.376 114.736,81.648 C114.736,80.24 115.2,79.504 116.048,79.504 C116.688,79.504 117.2,79.76 117.536,80.224 L117.536,83.392 C117.216,83.808 116.864,84.096 116.176,84.096 Z M124.656,86.176 C125.44,86.176 126.144,85.856 126.544,85.44 L126.544,86 L128.752,86 L128.752,80.368 C128.752,78.48 127.376,77.424 125.344,77.424 C123.984,77.424 123.168,77.712 122.192,78.272 L123.04,79.808 C123.808,79.392 124.336,79.248 125.344,79.248 C126.144,79.248 126.544,79.728 126.544,80.32 L126.544,80.736 C126.192,80.56 125.696,80.4 124.928,80.4 C123.024,80.4 121.52,81.328 121.52,83.184 C121.52,85.216 123.088,86.176 124.656,86.176 Z M125.008,84.304 C124.064,84.304 123.728,83.776 123.728,83.184 C123.728,82.512 124.176,82.128 125.008,82.128 C125.792,82.128 126.16,82.24 126.544,82.48 L126.544,83.536 C126.304,83.936 125.728,84.304 125.008,84.304 Z M133.792,86.176 C134.48,86.176 135.136,85.952 135.504,85.664 L135.824,83.424 C135.28,83.888 134.976,84.064 134.576,84.064 C134.048,84.064 133.76,83.856 133.76,83.056 L133.76,79.68 L135.776,79.68 L135.776,77.6 L133.76,77.6 L133.76,74.336 L131.552,75.44 L131.552,77.6 L130.144,77.6 L130.144,79.68 L131.552,79.68 L131.552,83.648 C131.552,85.12 132.432,86.176 133.792,86.176 Z M141.408,86.176 C142.528,86.176 143.744,85.68 144.416,84.816 L142.848,83.504 C142.528,83.872 142.016,84.096 141.408,84.096 C140.608,84.096 139.76,83.664 139.68,82.512 L144.704,82.512 C144.72,82.352 144.736,82.128 144.736,81.808 C144.736,79.408 143.44,77.424 141.2,77.424 C139.072,77.424 137.456,79.232 137.456,81.808 C137.456,84.464 138.992,86.176 141.408,86.176 Z M142.592,80.848 L139.712,80.848 C139.792,80 140.288,79.344 141.088,79.344 C142.08,79.344 142.528,80.096 142.592,80.848 Z M149.712,86.176 C151.6,86.176 153.136,85.488 153.136,83.552 C153.136,81.872 151.84,81.328 150.336,80.832 C148.848,80.352 148.592,80.208 148.592,79.856 C148.592,79.488 148.832,79.312 149.728,79.312 C150.432,79.312 151.344,79.536 152.176,79.984 L152.88,78.24 C151.984,77.744 150.832,77.424 149.776,77.424 C147.808,77.424 146.416,78.176 146.416,79.92 C146.416,81.696 147.712,82.192 149.728,82.8 C150.656,83.072 150.96,83.264 150.96,83.648 C150.96,84.08 150.704,84.288 149.84,84.288 C148.768,84.288 147.824,84.016 146.928,83.52 L146.192,85.2 C147.088,85.792 148.384,86.176 149.712,86.176 Z" id="Monitorthisreporttoreceiveupdates" fill="#000000" fill-rule="nonzero"></path>
            <g id="Group" transform="translate(80.000000, 16.000000)">
                <g id="bell" transform="translate(0.933333, 0.000000)">
                    <path d="M22.6938895,20.8695652 C21.1956522,19.6521739 19.3889542,17.5869565 19.3889542,8.69565217 C19.3889542,8.69565217 19.3889542,7.91304348 18.9791422,6.95652174 C18.3357814,5.43913043 16.6612808,3.47826087 12.3384254,3.47826087 C8.01556992,3.47826087 6.34106933,5.43913043 5.69770858,6.95652174 C5.28789659,7.91304348 5.28789659,8.69565217 5.28789659,8.69565217 C5.28789659,17.5869565 3.48119859,19.6521739 1.98296122,20.8695652 C0.912162162,21.7391304 0,22.1782609 0,24.3478261 L12.3384254,24.3478261 L24.6768508,24.3478261 C24.6768508,22.1782609 23.7646886,21.7391304 22.6938895,20.8695652" id="Fill-2619" fill="#F2DA3E"></path>
                    <path d="M12.3384254,24.3478261 L0,24.3478261 C0,22.1782609 0.912162162,21.7391304 1.98296122,20.8695652 C3.48119859,19.6521739 5.28789659,17.5869565 5.28789659,8.69565217 C5.28789659,8.69565217 5.28789659,7.91304348 5.69770858,6.95652174 C6.34106933,5.43913043 8.01556992,3.47826087 12.3384254,3.47826087 L12.3384254,24.3478261 Z" id="Fill-2620" fill="#FBEC9A"></path>
                    <path d="M10.5757932,1.73913043 C10.5757932,2.69956522 11.3650118,3.47826087 12.3384254,3.47826087 C13.311839,3.47826087 14.1010576,2.69956522 14.1010576,1.73913043 C14.1010576,0.778695652 13.311839,0 12.3384254,0 C11.3650118,0 10.5757932,0.778695652 10.5757932,1.73913043" id="Fill-2621" fill="#FBEC9A"></path>
                    <path d="M5.2943302,8.55852174 C5.32561692,8.12373913 5.45472973,7.52330435 5.69753231,6.95634783 L12.3382491,6.95634783 L12.3382491,8.69547826 L5.28772033,8.69547826 C5.28772033,8.69547826 5.28772033,8.64678261 5.2943302,8.55852174" id="Fill-2622" fill="#F2DA3E"></path>
                    <path d="M19.3825206,8.55852174 C19.3512338,8.12373913 19.222121,7.52330435 18.9793184,6.95634783 L12.3386016,6.95634783 L12.3386016,8.69547826 L19.3891304,8.69547826 C19.3891304,8.69547826 19.3891304,8.64678261 19.3825206,8.55852174" id="Fill-2623" fill="#E1C618"></path>
                    <path d="M22.6938895,20.8695652 L12.3384254,20.8695652 L12.3384254,24.3478261 L24.6768508,24.3478261 C24.6768508,22.1782609 23.7646886,21.7391304 22.6938895,20.8695652" id="Fill-2624" fill="#E1C618"></path>
                    <path d="M1.98296122,20.8695652 L12.3384254,20.8695652 L12.3384254,24.3478261 L0,24.3478261 C0,22.1782609 0.912162162,21.7391304 1.98296122,20.8695652" id="Fill-2625" fill="#F2DA3E"></path>
                    <path d="M12.3384254,27.826087 C14.2856933,27.826087 15.8636898,26.2686957 15.8636898,24.3478261 L8.81316099,24.3478261 C8.81316099,26.2686957 10.3911575,27.826087 12.3384254,27.826087" id="Fill-2626" fill="#FBEC9A"></path>
                </g>
            </g>
            <rect id="Rectangle-6-Copy-2" fill="#282426" x="7" y="101" width="173" height="42" rx="6"></rect>
            <g id="Group-3" transform="translate(19.833333, 112.500000)" fill="#FFFFFF" font-family="Interstate-Bold, Interstate" font-size="16" font-weight="bold">
                <text id="Learn-more">
                    <tspan x="0.850666667" y="15.5833333">Turn monitoring on</tspan>
                </text>
            </g>
            <path d="M4,0 L184,0 C186.209139,-4.05812251e-16 188,1.790861 188,4 L188,8 L188,8 L0,8 L0,4 C-2.705415e-16,1.790861 1.790861,4.05812251e-16 4,0 Z" id="Rectangle" fill="#FF4722"></path>
        </g>
    </g>
</svg>