<svg xmlns="http://www.w3.org/2000/svg" width="19" height="19" viewBox="0 0 19 19">
    <g fill="none" fill-rule="evenodd">
        <g fill-rule="nonzero">
            <g>
                <g>
                    <path fill="#8736C1" d="M12.262 0H6.738c-.408 0-.787.21-1.003.557l-.649 1.045c-.091.148-.251.237-.424.237H1.288C.577 1.839 0 2.415 0 3.126v11.501c0 .71.577 1.287 1.288 1.287h16.425c.71 0 1.287-.577 1.287-1.287V3.126c0-.71-.577-1.287-1.287-1.287h-3.375c-.173 0-.333-.09-.425-.237L13.266.558C13.049.211 12.67 0 12.262 0zM6.738 1.043h5.524c.048 0 .092.025.118.066l.647 1.043c.282.454.777.73 1.311.73h3.375c.134 0 .244.11.244.244v11.501c0 .134-.11.244-.244.244H1.288c-.135 0-.245-.11-.245-.244V3.126c0-.135.11-.244.245-.244h3.374c.534 0 1.029-.276 1.31-.73l.648-1.044c.026-.04.07-.065.118-.065z" transform="translate(-380 -901) translate(380 901) translate(0 2)"/>
                    <path fill="#FF4722" d="M9.5 5C7.567 5 6 6.567 6 8.5S7.567 12 9.5 12c1.932 0 3.5-1.567 3.5-3.5S11.432 5 9.5 5zm0 1C10.88 6 12 7.12 12 8.5S10.88 11 9.5 11 7 9.88 7 8.5 8.12 6 9.5 6z" transform="translate(-380 -901) translate(380 901) translate(0 2)"/>
                </g>
            </g>
        </g>
    </g>
</svg>
