<?xml version="1.0" encoding="UTF-8"?>
<svg width="60px" height="60px" viewBox="0 0 60 60" version="1.1" xmlns="http://www.w3.org/2000/svg" xmlns:xlink="http://www.w3.org/1999/xlink">
    <title>google_no circle</title>
    <defs>
        <path d="M57.1657602,24.6471893 L53.8550599,24.6471893 L42.9959628,24.6471893 L30.0180174,24.6471893 L30.0180174,35.8722447 L45.644523,35.8722447 C44.1878149,43.0034564 38.0961263,47.0973001 30.0180174,47.0973001 C20.4832004,47.0973001 12.8023756,39.4378505 12.8023756,29.9295683 C12.8023756,20.421286 20.4832004,12.7618364 30.0180174,12.7618364 C34.1232858,12.7618364 37.8312702,14.2144907 40.7446865,16.5915612 L49.2200794,8.13975479 C44.0553869,3.64973262 37.4339862,0.876483631 30.0180174,0.876483631 C13.8617997,0.876483631 0.883854393,13.8183122 0.883854393,29.9295683 C0.883854393,46.0408243 13.8617997,58.9826529 30.0180174,58.9826529 C44.5850989,58.9826529 57.8279003,48.4178949 57.8279003,29.9295683 C57.8279003,28.2127951 57.5630443,26.3639624 57.1657602,24.6471893 L57.1657602,24.6471893 Z" id="path-1"></path>
        <path d="M57.1657602,24.6471893 L53.8550599,24.6471893 L42.9959628,24.6471893 L30.0180174,24.6471893 L30.0180174,35.8722447 L45.644523,35.8722447 C44.1878149,43.0034564 38.0961263,47.0973001 30.0180174,47.0973001 C20.4832004,47.0973001 12.8023756,39.4378505 12.8023756,29.9295683 C12.8023756,20.421286 20.4832004,12.7618364 30.0180174,12.7618364 C34.1232858,12.7618364 37.8312702,14.2144907 40.7446865,16.5915612 L49.2200794,8.13975479 C44.0553869,3.64973262 37.4339862,0.876483631 30.0180174,0.876483631 C13.8617997,0.876483631 0.883854393,13.8183122 0.883854393,29.9295683 C0.883854393,46.0408243 13.8617997,58.9826529 30.0180174,58.9826529 C44.5850989,58.9826529 57.8279003,48.4178949 57.8279003,29.9295683 C57.8279003,28.2127951 57.5630443,26.3639624 57.1657602,24.6471893 L57.1657602,24.6471893 Z" id="path-3"></path>
        <path d="M57.1657602,24.6471893 L53.8550599,24.6471893 L42.9959628,24.6471893 L30.0180174,24.6471893 L30.0180174,35.8722447 L45.644523,35.8722447 C44.1878149,43.0034564 38.0961263,47.0973001 30.0180174,47.0973001 C20.4832004,47.0973001 12.8023756,39.4378505 12.8023756,29.9295683 C12.8023756,20.421286 20.4832004,12.7618364 30.0180174,12.7618364 C34.1232858,12.7618364 37.8312702,14.2144907 40.7446865,16.5915612 L49.2200794,8.13975479 C44.0553869,3.64973262 37.4339862,0.876483631 30.0180174,0.876483631 C13.8617997,0.876483631 0.883854393,13.8183122 0.883854393,29.9295683 C0.883854393,46.0408243 13.8617997,58.9826529 30.0180174,58.9826529 C44.5850989,58.9826529 57.8279003,48.4178949 57.8279003,29.9295683 C57.8279003,28.2127951 57.5630443,26.3639624 57.1657602,24.6471893 L57.1657602,24.6471893 Z" id="path-5"></path>
        <path d="M57.1657602,24.6471893 L53.8550599,24.6471893 L42.9959628,24.6471893 L30.0180174,24.6471893 L30.0180174,35.8722447 L45.644523,35.8722447 C44.1878149,43.0034564 38.0961263,47.0973001 30.0180174,47.0973001 C20.4832004,47.0973001 12.8023756,39.4378505 12.8023756,29.9295683 C12.8023756,20.421286 20.4832004,12.7618364 30.0180174,12.7618364 C34.1232858,12.7618364 37.8312702,14.2144907 40.7446865,16.5915612 L49.2200794,8.13975479 C44.0553869,3.64973262 37.4339862,0.876483631 30.0180174,0.876483631 C13.8617997,0.876483631 0.883854393,13.8183122 0.883854393,29.9295683 C0.883854393,46.0408243 13.8617997,58.9826529 30.0180174,58.9826529 C44.5850989,58.9826529 57.8279003,48.4178949 57.8279003,29.9295683 C57.8279003,28.2127951 57.5630443,26.3639624 57.1657602,24.6471893 L57.1657602,24.6471893 Z" id="path-7"></path>
    </defs>
    <g id="google_no-circle" stroke="none" stroke-width="1" fill="none" fill-rule="evenodd">
        <g id="Group-2" transform="translate(0.730856, 0.405765)">
            <mask id="mask-2" fill="white">
                <use xlink:href="#path-1"></use>
            </mask>
            <g id="SVGID_1_"></g>
            <polygon id="Shape" fill="#FBBC05" mask="url(#mask-2)" points="-1.76470588 47.0973001 -1.76470588 12.7618364 20.7480565 29.9295683"></polygon>
            <mask id="mask-4" fill="white">
                <use xlink:href="#path-3"></use>
            </mask>
            <g id="SVGID_1_"></g>
            <polygon id="Shape" fill="#EA4335" mask="url(#mask-4)" points="-1.76470588 12.7618364 20.7480565 29.9295683 30.0180174 21.8739403 61.8007407 16.7236207 61.8007407 -1.76470588 -1.76470588 -1.76470588"></polygon>
            <mask id="mask-6" fill="white">
                <use xlink:href="#path-5"></use>
            </mask>
            <g id="SVGID_1_"></g>
            <polygon id="Shape" fill="#34A853" mask="url(#mask-6)" points="-1.76470588 47.0973001 37.9636982 16.7236207 48.4255113 18.0442155 61.8007407 -1.76470588 61.8007407 61.6238424 -1.76470588 61.6238424"></polygon>
            <mask id="mask-8" fill="white">
                <use xlink:href="#path-7"></use>
            </mask>
            <g id="SVGID_1_"></g>
            <polygon id="Shape" fill="#4285F4" mask="url(#mask-8)" points="61.8007407 61.6238424 20.7480565 29.9295683 15.4509359 25.967784 61.8007407 12.7618364"></polygon>
            <rect id="Rectangle-261" mask="url(#mask-8)" x="0.3027927" y="0.876483631" width="58.1061693" height="58.1061693"></rect>
            <g id="Group" mask="url(#mask-8)">
                <g transform="translate(0.883854, 0.876484)" id="Clipped">
                    <g></g>
                    <g></g>
                    <g></g>
                    <g></g>
                </g>
            </g>
        </g>
    </g>
</svg>