<?xml version="1.0" encoding="UTF-8"?>
<svg width="25px" height="16px" viewBox="0 0 25 16" version="1.1" xmlns="http://www.w3.org/2000/svg" xmlns:xlink="http://www.w3.org/1999/xlink">
    <!-- Generator: Sketch 48.2 (47327) - http://www.bohemiancoding.com/sketch -->
    <title>GooglePlus-color</title>
    <desc>Created with Sketch.</desc>
    <defs></defs>
    <g id="Footer-OPT1" stroke="none" stroke-width="1" fill="none" fill-rule="evenodd" transform="translate(-287.000000, -471.000000)">
        <g id="Footer-Tablet" transform="translate(48.000000, 49.000000)" fill="#F93F2D">
            <g id="SocialMedia" transform="translate(1.000000, 421.000000)">
                <path d="M260.248428,7.57425743 L260.248428,4.8019802 L258.283019,4.8019802 L258.283019,7.57425743 L255.45283,7.57425743 L255.45283,9.55445545 L258.283019,9.55445545 L258.283019,12.4059406 L260.248428,12.4059406 L260.248428,9.55445545 L263,9.55445545 L263,7.57425743 L260.248428,7.57425743 L260.248428,7.57425743 Z M245.940252,7.41584158 L245.940252,10.5841584 C245.940252,10.5841584 248.990881,10.5800396 250.233019,10.5800396 C249.560377,12.6339802 248.514465,13.7524752 245.940252,13.7524752 C243.335142,13.7524752 241.301887,11.6247129 241.301887,9 C241.301887,6.37528713 243.335142,4.24752475 245.940252,4.24752475 C247.31761,4.24752475 248.207154,4.73528713 249.023113,5.41512871 C249.676258,4.75706931 249.621698,4.66328713 251.283412,3.08221782 C249.872799,1.78859406 247.997956,1 245.940252,1 C241.554953,1 238,4.58170297 238,9 C238,13.4182178 241.554953,17 245.940252,17 C252.495047,17 254.09717,11.249505 253.566038,7.41584158 L245.940252,7.41584158 L245.940252,7.41584158 Z" id="GooglePlus"></path>
            </g>
        </g>
    </g>
</svg>