<svg xmlns="http://www.w3.org/2000/svg" xmlns:xlink="http://www.w3.org/1999/xlink" width="28" height="28" viewBox="0 0 28 28">
    <defs>
        <path id="qo9nrfku4a" d="M0 13.557L27.783 13.557 27.783 0 0 0z"/>
    </defs>
    <g fill="none" fill-rule="evenodd">
        <g>
            <g>
                <g>
                    <g transform="translate(-59.000000, -1610.000000) translate(39.000000, 336.000000) translate(20.000000, 1274.000000) translate(0.000000, 7.368421)">
                        <path fill="#FF4722" d="M26.696 10.405h-2.54v-.912h2.54c.097 0 .176-.077.176-.175v-5.08c0-.096-.08-.174-.176-.174h-2.54v-.912h2.54c.6 0 1.087.488 1.087 1.087v5.08c0 .599-.487 1.086-1.087 1.086"/>
                        <mask id="v6hhol3wpb" fill="#fff">
                            <use xlink:href="#qo9nrfku4a"/>
                        </mask>
                        <path fill="#FF4722" d="M3.962 13.101L4.874 13.101 4.874.456 3.962.456zM19.739 13.101L20.651 13.101 20.651.456 19.739.456z" mask="url(#v6hhol3wpb)"/>
                        <path fill="#8736C1" d="M2.122.912c-.668 0-1.21.543-1.21 1.21v9.312c0 .668.542 1.211 1.21 1.211H22.49c.668 0 1.21-.543 1.21-1.21V2.122c0-.668-.542-1.211-1.21-1.211H2.122zM22.49 13.557H2.122C.952 13.557 0 12.605 0 11.434V2.123C0 .952.952 0 2.122 0H22.49c1.17 0 2.122.952 2.122 2.123v9.311c0 1.17-.952 2.123-2.122 2.123z" mask="url(#v6hhol3wpb)"/>
                    </g>
                </g>
            </g>
        </g>
    </g>
</svg>
