<?xml version="1.0" encoding="UTF-8"?>
<svg width="25px" height="25px" viewBox="0 0 25 25" version="1.1" xmlns="http://www.w3.org/2000/svg" xmlns:xlink="http://www.w3.org/1999/xlink">
    <title>icon/salvage</title>
    <g id="icon/salvage" stroke="none" stroke-width="1" fill="none" fill-rule="evenodd">
        <g id="Group-15" transform="translate(0.000000, 3.000000)">
            <path d="M0.778100334,17.331786 L0.778100334,11.6933913 L3.78224749,12.1522542 L5.13917057,10.1913177 C5.9950903,9.33539799 7.15723077,8.8540602 8.36806689,8.8540602 L11.310408,8.8540602 C12.5212441,8.8540602 13.6824482,9.33539799 14.5383679,10.1913177 L16.4768294,12.1288428 L19.0436522,11.3749967 L20.115893,12.4481739 L22.4776321,12.9501137 L22.6714783,14.6254314 L24.1894716,15.2725217 L24.1894716,17.2877726 C24.1894716,17.2877726 0.690073579,17.331786 0.778100334,17.331786 Z" id="Stroke-1" stroke="#9327C7" stroke-width="1.661" stroke-linecap="round" stroke-linejoin="round"></path>
            <path d="M18.9419264,0.777538462 C18.9419264,0.777538462 16.6635318,3.31907692 17.4520268,4.45874247 C18.2414582,5.59653512 20.3878127,8.48830769 20.3878127,8.48830769" id="Stroke-3" stroke="#FF4722" stroke-width="1.661" stroke-linecap="round" stroke-linejoin="round"></path>
            <polyline id="Stroke-5" stroke="#FF4722" stroke-width="1.661" stroke-linecap="round" stroke-linejoin="round" points="23.2354783 2.57459532 21.3073177 5.20322408 23.323505 8.70837458 22.753204 9.84710368"></polyline>
            <path d="M8.30274247,17.1083612 C8.30274247,15.9677592 7.37939799,15.0434783 6.23879599,15.0434783 C5.09819398,15.0434783 4.17391304,15.9677592 4.17391304,17.1083612 C4.17391304,18.2489632 5.09819398,19.1732441 6.23879599,19.1732441 C7.37939799,19.1732441 8.30274247,18.2489632 8.30274247,17.1083612" id="Fill-7" fill="#9327C7"></path>
            <path d="M8.53785953,16.9410217 C8.53785953,15.7399212 7.56554007,14.7666156 6.36443955,14.7666156 C5.16333904,14.7666156 4.19003344,15.7399212 4.19003344,16.9410217 C4.19003344,18.1421222 5.16333904,19.1154278 6.36443955,19.1154278 C7.56554007,19.1154278 8.53785953,18.1421222 8.53785953,16.9410217 Z" id="Stroke-9" stroke="#9327C7" stroke-linecap="round" stroke-linejoin="round"></path>
            <path d="M19.8367893,16.7454181 C19.8367893,15.6619398 18.9583946,14.7826087 17.8739799,14.7826087 C16.7905017,14.7826087 15.9130435,15.6619398 15.9130435,16.7454181 C15.9130435,17.8288963 16.7905017,18.7082274 17.8739799,18.7082274 C18.9583946,18.7082274 19.8367893,17.8288963 19.8367893,16.7454181" id="Fill-11" fill="#9327C7"></path>
            <path d="M20.2321605,16.7172441 C20.2321605,15.5172358 19.2588286,14.5433311 18.0572098,14.5433311 C16.8566287,14.5433311 15.8843344,15.5172358 15.8843344,16.7172441 C15.8843344,17.9172524 16.8566287,18.8911572 18.0572098,18.8911572 C19.2588286,18.8911572 20.2321605,17.9172524 20.2321605,16.7172441 Z" id="Stroke-13" stroke="#9327C7" stroke-linecap="round" stroke-linejoin="round"></path>
        </g>
    </g>
</svg>