<?xml version="1.0" encoding="UTF-8"?>
<svg width="80px" height="80px" viewBox="0 0 80 80" version="1.1" xmlns="http://www.w3.org/2000/svg" xmlns:xlink="http://www.w3.org/1999/xlink">
    <!-- Generator: Sketch 49.1 (51147) - http://www.bohemiancoding.com/sketch -->
    <title>assets/img_domain_foursquare</title>
    <desc>Created with Sketch.</desc>
    <defs></defs>
    <g id="Freshness" stroke="none" stroke-width="1" fill="none" fill-rule="evenodd">
        <g id="Freeform-Icons" transform="translate(-80.000000, -1460.000000)">
            <g id="assets/img_domain_foursquare" transform="translate(80.000000, 1460.000000)">
                <circle id="Oval-7" fill="#353167" cx="40" cy="40" r="40"></circle>
                <path d="M51.6619383,24.4980754 L50.5917917,29.702695 C50.4694892,30.2570332 49.9497037,30.7497783 49.3076158,30.7497783 L40.0126281,30.7497783 C38.9730571,30.7497783 38.1169398,31.6120821 38.1169398,32.6591653 L38.1169398,33.7986383 C38.1169398,34.8457215 38.9730571,35.7080254 40.0126281,35.7080254 L47.8705618,35.7080254 C48.6043766,35.7080254 49.2158889,36.4163464 49.0630108,37.1862605 C48.9101328,37.9869712 48.0845911,42.0521179 47.9928642,42.4832698 C47.931713,42.9452183 47.4425031,43.5303531 46.7086883,43.5303531 L40.2878087,43.5303531 C38.9424815,43.5611496 38.6673009,43.5919462 37.8723349,44.5774363 C37.0773688,45.5629264 30.0449769,54.4323374 30.0449769,54.4323374 C29.9838256,54.5247271 29.9226744,54.4939305 29.9226744,54.4015408 L29.9226744,24.2517029 C29.9226744,23.5433818 30.5036111,22.9582471 31.2068503,22.9582471 L50.5000649,22.9582471 C51.1727284,22.9582471 51.845392,23.6357715 51.6619383,24.4980754 M53.0684167,18 L29.2500108,18 C25.9784198,18 25,20.4945218 25,22.0651467 L25,60.1912952 C25,62.0698857 25.9478441,62.6242239 26.4676296,62.8397998 C26.9874151,63.0553758 28.3633179,63.2093586 29.3417377,62.2238685 C29.3417377,62.2238685 40.6547161,48.9505487 40.8381698,48.7349727 C41.0216235,48.5193967 41.1133503,48.5193967 41.2356528,48.5193967 L48.3903473,48.5193967 C51.447909,48.5193967 52.0288457,46.3944337 52.3651775,45.1009779 C52.6403581,44.0230981 55.7896467,28.6248152 56.7680664,23.7589578 C57.5018812,20.0017768 56.5540371,18 53.0684167,18" id="Shape" fill="#FA4778" fill-rule="nonzero"></path>
            </g>
        </g>
    </g>
</svg>