<?xml version="1.0" encoding="UTF-8"?>
<svg width="60px" height="60px" viewBox="0 0 60 60" version="1.1" xmlns="http://www.w3.org/2000/svg" xmlns:xlink="http://www.w3.org/1999/xlink">
    <title>linkedin_no circle</title>
    <g id="linkedin_no-circle" stroke="none" stroke-width="1" fill="none" fill-rule="evenodd">
        <g id="linkedin" fill-rule="nonzero">
            <path d="M54.857305,-5.48064198e-16 L4.37673759,-5.48064198e-16 C3.22902411,-0.0131664665 2.12309542,0.430172369 1.30228153,1.23247166 C0.48146764,2.03477095 0.0130171304,3.130299 0,4.27801418 L0,54.9560284 C0.0130171304,56.1037436 0.48146764,57.1992716 1.30228153,58.0015709 C2.12309542,58.8038702 3.22902411,59.247209 4.37673759,59.2340426 L54.857305,59.2340426 C56.0050184,59.247209 57.1109471,58.8038702 57.931761,58.0015709 C58.7525749,57.1992716 59.2210254,56.1037436 59.2340426,54.9560284 L59.2340426,4.27801418 C59.2210254,3.130299 58.7525749,2.03477095 57.931761,1.23247166 C57.1109471,0.430172369 56.0050184,-0.0131664665 54.857305,-1.02847418e-15 L54.857305,-5.48064198e-16 Z" id="Shape" fill="#0065A1"></path>
            <path d="M8.76992908,22.212766 L17.5563121,22.212766 L17.5563121,50.4805674 L8.76992908,50.4805674 L8.76992908,22.212766 Z M13.1631206,8.22695035 C15.9801645,8.22695035 18.2638298,10.5106157 18.2638298,13.3276596 C18.2638298,16.1447035 15.9801645,18.4283688 13.1631206,18.4283688 C10.3460767,18.4283688 8.06241135,16.1447035 8.06241135,13.3276596 C8.06241135,10.5106157 10.3460767,8.22695035 13.1631206,8.22695035 L13.1631206,8.22695035 Z" id="Shape" fill="#FFFFFF"></path>
            <path d="M23.035461,22.212766 L31.4598582,22.212766 L31.4598582,26.0794326 L31.5750355,26.0794326 C33.2939489,23.1457709 36.4864789,21.3946208 39.8842553,21.5217021 C48.7858156,21.5217021 50.4312057,27.3792908 50.4312057,34.9809929 L50.4312057,50.4805674 L41.6941844,50.4805674 L41.6941844,36.7251064 C41.6941844,33.4343262 41.6941844,29.2221277 37.1364539,29.2221277 C32.5787234,29.2221277 31.8712057,32.7926241 31.8712057,36.4782979 L31.8712057,50.4641135 L23.035461,50.4641135 L23.035461,22.212766 Z" id="Shape" fill="#FFFFFF"></path>
        </g>
    </g>
</svg>