<?xml version="1.0" encoding="UTF-8"?>
<svg width="25px" height="25px" viewBox="0 0 25 25" version="1.1" xmlns="http://www.w3.org/2000/svg" xmlns:xlink="http://www.w3.org/1999/xlink">
    <title>icon/recall</title>
    <g id="icon/recall" stroke="none" stroke-width="1" fill="none" fill-rule="evenodd">
        <g id="Group-14" transform="translate(1.000000, 3.000000)">
            <path d="M23.0798387,10.1538462 C23.3107537,10.1538462 23.5095971,10.0778617 23.6763691,9.92589256 C23.8431412,9.77392339 23.94577,9.58891768 23.9842558,9.3708751 C24.0227416,9.15283253 23.99067,8.93809374 23.8880412,8.72665842 L19.269741,0.480684834 C19.1542835,0.269249513 18.9907187,0.127191676 18.7790466,0.0545107183 C18.5673745,-0.0181702394 18.3557024,-0.0181702394 18.1440303,0.0545107183 C17.9323582,0.127191676 17.7687934,0.269249513 17.6533359,0.480684834 C15.9312928,3.55539224 14.6397605,5.86142279 13.778739,7.3987765 C13.5308379,7.8414038 14.8885827,10.1538462 15.4112549,10.1538462 C17.1153846,10.1538462 19.6715792,10.1538462 23.0798387,10.1538462 Z M18.7804196,6.46153846 L17.7734266,6.46153846 C17.7034966,6.46153846 17.6440558,6.43461527 17.5951049,6.38076923 C17.546154,6.32692319 17.5216783,6.26923077 17.5216783,6.20769231 L17.3538462,3.06923077 C17.3538462,2.97692308 17.3783218,2.90384604 17.4272727,2.85 C17.4762237,2.79615396 17.5356644,2.76923077 17.6055944,2.76923077 L18.9482517,2.76923077 C19.0181817,2.76923077 19.0776225,2.79615396 19.1265734,2.85 C19.1755244,2.90384604 19.2,2.97692308 19.2,3.06923077 L19.0321678,6.20769231 C19.0321678,6.26923077 19.0076922,6.32692319 18.9587413,6.38076923 C18.9097903,6.43461527 18.8503495,6.46153846 18.7804196,6.46153846 Z M18.2769231,9.23076923 C18.0227424,9.23076923 17.8053512,9.14046823 17.6247492,8.95986622 C17.4441472,8.77926421 17.3538462,8.56187301 17.3538462,8.30769231 C17.3538462,8.0535116 17.4441472,7.8361204 17.6247492,7.65551839 C17.8053512,7.47491639 18.0227424,7.38461538 18.2769231,7.38461538 C18.5311038,7.38461538 18.748495,7.47491639 18.929097,7.65551839 C19.109699,7.8361204 19.2,8.0535116 19.2,8.30769231 C19.2,8.56187301 19.109699,8.77926421 18.929097,8.95986622 C18.748495,9.14046823 18.5311038,9.23076923 18.2769231,9.23076923 Z" id="e" fill="#FF4722" fill-rule="nonzero"></path>
            <path d="M17.7743331,19.3846154 C18.1784344,19.3846154 18.5264103,19.2533695 18.8182614,18.9908774 C19.1101124,18.7283852 19.2897128,18.4088298 19.3570631,18.0322108 C19.4244133,17.6555919 19.3682879,17.2846794 19.1886875,16.9194729 L11.1066621,2.67642765 C10.9046115,2.31122119 10.6183731,2.06584856 10.2479469,1.94030872 C9.87752077,1.81476889 9.50709461,1.81476889 9.13666845,1.94030872 C8.76624228,2.06584856 8.48000388,2.31122119 8.27795325,2.67642765 L0.19592786,16.9194729 C0.0163274675,17.2846794 -0.0397978801,17.6555919 0.0275523315,18.0322108 C0.0949025431,18.4088298 0.274502936,18.7283852 0.566354024,18.9908774 C0.858205112,19.2533695 1.20618103,19.3846154 1.6102823,19.3846154 L17.7743331,19.3846154 Z" id="e" stroke="#9428C9" stroke-width="2" fill-rule="nonzero"></path>
            <path d="M10.4475524,12.9230769 L8.93706294,12.9230769 C8.83216799,12.9230769 8.74300683,12.8826921 8.66958042,12.8019231 C8.59615401,12.721154 8.55944056,12.6346156 8.55944056,12.5423077 L8.30769231,7.83461538 C8.30769231,7.69615385 8.34440575,7.58653829 8.41783217,7.50576923 C8.49125858,7.42500018 8.58041974,7.38461538 8.68531469,7.38461538 L10.6993007,7.38461538 C10.8041956,7.38461538 10.8933568,7.42500018 10.9667832,7.50576923 C11.0402096,7.58653829 11.0769231,7.69615385 11.0769231,7.83461538 L10.8251748,12.5423077 C10.8251748,12.6346156 10.7884614,12.721154 10.715035,12.8019231 C10.6416086,12.8826921 10.5524474,12.9230769 10.4475524,12.9230769 Z" id="Path" fill="#9428C9"></path>
            <path d="M9.69230769,17.5384615 C9.31103664,17.5384615 8.98494983,17.40301 8.71404682,17.132107 C8.44314381,16.861204 8.30769231,16.5351172 8.30769231,16.1538462 C8.30769231,15.7725751 8.44314381,15.4464883 8.71404682,15.1755853 C8.98494983,14.9046823 9.31103664,14.7692308 9.69230769,14.7692308 C10.0735787,14.7692308 10.3996656,14.9046823 10.6705686,15.1755853 C10.9414716,15.4464883 11.0769231,15.7725751 11.0769231,16.1538462 C11.0769231,16.5351172 10.9414716,16.861204 10.6705686,17.132107 C10.3996656,17.40301 10.0735787,17.5384615 9.69230769,17.5384615 Z" id="Path" fill="#9428C9"></path>
        </g>
    </g>
</svg>