<svg xmlns="http://www.w3.org/2000/svg" xmlns:xlink="http://www.w3.org/1999/xlink" width="19" height="19" viewBox="0 0 19 19">
    <defs>
        <path id="skda82keia" d="M0.727 0.138L1.677 0.138 1.677 0.95 0.727 0.95z"/>
        <path id="zlnvtfjo8c" d="M0.836 0.138L1.786 0.138 1.786 0.95 0.836 0.95z"/>
    </defs>
    <g fill="none" fill-rule="evenodd">
        <g>
            <g>
                <g>
                    <g>
                        <g transform="translate(-380 -345) translate(380 345) translate(14.25 16.748)">
                            <mask id="wo42aubagb" fill="#fff">
                                <use xlink:href="#skda82keia"/>
                            </mask>
                            <path stroke="#77449A" stroke-width=".7" d="M1.13.618c.048 0 .096 0 .142-.01" mask="url(#wo42aubagb)"/>
                        </g>
                        <path fill="#8736C1" fill-rule="nonzero" d="M12.967 0v14.355c0 1.376 1.052 2.519 2.405 2.658l.164.011-.027.665-.129-.01v.02l-12.114-.002-.07-.006C1.474 17.617.098 16.245.005 14.539L0 14.355V0h12.968zm-.665 14.355V.665H.664v13.69c0 1.378 1.045 2.52 2.442 2.663l.224.016h10.325l-.102-.078c-.718-.577-1.193-1.443-1.246-2.418l-.005-.183z" transform="translate(-380 -345) translate(380 345)"/>
                        <g transform="translate(-380 -345) translate(380 345) translate(1.9 16.748)">
                            <mask id="bns6v4pubd" fill="#fff">
                                <use xlink:href="#zlnvtfjo8c"/>
                            </mask>
                            <path stroke="#77449A" stroke-width=".7" d="M1.31.608c.048.01.097.01.143.01H1.17c.047 0 .094 0 .142-.01z" mask="url(#bns6v4pubd)"/>
                        </g>
                        <path fill="#FF4722" fill-rule="nonzero" d="M6.56 3.667c.183 0 .332.157.332.35 0 .169-.114.31-.265.343l-.067.007H2.685c-.184 0-.333-.157-.333-.35 0-.17.114-.31.266-.343l.067-.007H6.56zM10.435 6.092c.184 0 .332.157.332.35 0 .169-.114.31-.265.343l-.067.007h-7.75c-.184 0-.333-.157-.333-.35 0-.17.114-.31.266-.343l.067-.007h7.75zM10.435 8.517c.184 0 .332.156.332.35 0 .169-.114.31-.265.342l-.067.008h-7.75c-.184 0-.333-.157-.333-.35 0-.17.114-.31.266-.343l.067-.007h7.75zM10.435 10.942c.184 0 .332.156.332.35 0 .169-.114.31-.265.343l-.067.007h-7.75c-.184 0-.333-.157-.333-.35 0-.17.114-.31.266-.343l.067-.007h7.75zM10.435 13.367c.184 0 .332.156.332.35 0 .169-.114.31-.265.343l-.067.007h-7.75c-.184 0-.333-.157-.333-.35 0-.17.114-.31.266-.343l.067-.007h7.75z" transform="translate(-380 -345) translate(380 345)"/>
                        <path fill="#8736C1" fill-rule="nonzero" d="M12.967 14.355c0 1.432 1.138 2.61 2.542 2.67 1.375-.057 2.473-1.147 2.555-2.506l.005-.164h.665c0 1.79-1.411 3.26-3.225 3.334-1.726-.072-3.108-1.445-3.201-3.15l-.005-.184h.664z" transform="translate(-380 -345) translate(380 345)"/>
                        <path fill="#8736C1" fill-rule="nonzero" d="M18.734 9.899L18.734 14.355 18.069 14.355 18.068 10.564 12.967 10.564 12.967 14.355 12.302 14.355 12.302 9.899z" transform="translate(-380 -345) translate(380 345)"/>
                    </g>
                </g>
            </g>
        </g>
    </g>
</svg>
