<svg xmlns="http://www.w3.org/2000/svg" width="40" height="36" viewBox="0 0 40 36">
    <g fill="none" fill-rule="evenodd">
        <g fill="gray" fill-rule="nonzero">
            <g>
                <g>
                    <path d="M28.273 5.545H11.727c-.875 0-1.624.312-2.247.935-.623.623-.935 1.372-.935 2.247v16.546c0 .875.312 1.624.935 2.247.623.623 1.372.935 2.247.935h16.546c.875 0 1.624-.312 2.247-.935.623-.623.935-1.372.935-2.247V8.727c0-.875-.312-1.624-.935-2.247-.623-.623-1.372-.935-2.247-.935zM34 8.727v16.546c0 1.577-.56 2.926-1.68 4.047C31.2 30.44 29.85 31 28.273 31H11.727c-1.577 0-2.926-.56-4.047-1.68C6.56 28.2 6 26.85 6 25.273V8.727c0-1.577.56-2.926 1.68-4.047C8.8 3.56 10.15 3 11.727 3h16.546c1.577 0 2.926.56 4.047 1.68C33.44 5.8 34 7.15 34 8.727z" transform="translate(-40 -1414) translate(39 681) translate(1 733)"/>
                </g>
            </g>
        </g>
    </g>
</svg>
