<svg xmlns="http://www.w3.org/2000/svg" width="60" height="60" viewBox="0 0 60 60">
    <g fill="none" fill-rule="evenodd">
        <g>
            <g transform="translate(-731 -7880) translate(731 7880)">
                <circle cx="30" cy="30" r="30" fill="#282426"/>
                <g>
                    <path fill="#4AC3AF" d="M18.427.403c-.294-.425-.877-.53-1.302-.237L8.27 6.296c-.426.295-.532.878-.237 1.303L21.36 26.847c.294.425.877.53 1.303.237l8.853-6.13c.426-.295.532-.878.237-1.303L18.427.403z" transform="translate(14 14)"/>
                    <path fill="#0D9681" d="M28.317 19.855c-.01.529.158 1.023.445 1.418l-4.846 3.358c-.41-.627-1.113-1.047-1.918-1.063-.505-.01-.982.144-1.37.409L10.417 9.225c.598-.41.99-1.095 1.006-1.872.01-.506-.14-.978-.414-1.362l4.855-3.362c.41.598 1.096.995 1.877 1.01.51.01.987-.144 1.376-.418l10.219 14.752c-.603.405-1.005 1.095-1.02 1.882" transform="translate(14 14)"/>
                    <path fill="#8CE3D4" d="M7.68 3.38c-.493-.251-1.096-.055-1.347.437L1.11 14.072c-.25.493-.055 1.095.438 1.346L23.84 26.774c.492.251 1.095.055 1.346-.437l5.224-10.255c.25-.493.055-1.095-.438-1.346L7.68 3.38z" transform="translate(14 14)"/>
                    <path fill="#17B198" d="M26.842 16.67c.259.502.668.883 1.138 1.108l-2.858 5.615c-.702-.381-1.578-.421-2.343-.028-.481.247-.85.634-1.083 1.08L4.614 15.74c.355-.689.377-1.533-.003-2.271-.247-.481-.627-.848-1.08-1.072l2.865-5.624c.689.355 1.535.382 2.279 0 .485-.25.854-.637 1.082-1.091l17.091 8.701c-.361.687-.39 1.54-.006 2.287" transform="translate(14 14)"/>
                    <path fill="#8CE3D4" d="M32 31c0 .552-.448 1-1 1H1c-.552 0-1-.448-1-1V15c0-.552.448-1 1-1h30c.552 0 1 .448 1 1v16z" transform="translate(14 14)"/>
                    <path fill="#0D9681" d="M30 19.5v7c-1.935 0-3.5 1.565-3.5 3.5h-21c0-1.935-1.565-3.5-3.5-3.5v-7c1.935 0 3.5-1.565 3.5-3.5h21c0 1.935 1.565 3.5 3.5 3.5" transform="translate(14 14)"/>
                    <path fill="#C2F8F0" d="M27.5 23c0 .828-.672 1.5-1.5 1.5s-1.5-.672-1.5-1.5.672-1.5 1.5-1.5 1.5.672 1.5 1.5" transform="translate(14 14)"/>
                    <path fill="#0D9681" d="M7.5 23c0 .828-.671 1.5-1.5 1.5s-1.5-.672-1.5-1.5.671-1.5 1.5-1.5 1.5.672 1.5 1.5" transform="translate(14 14)"/>
                    <path fill="#C2F8F0" d="M5.5 30c0-1.935-1.565-3.5-3.5-3.5v-7c1.935 0 3.5-1.565 3.5-3.5h17.698l2-2H1c-.552 0-1 .448-1 1v16c0 .552.448 1 1 1h6.199l2-2H5.5z" transform="translate(14 14)"/>
                    <path fill="#17B198" d="M7.5 23c0 .828-.671 1.5-1.5 1.5s-1.5-.672-1.5-1.5.671-1.5 1.5-1.5 1.5.672 1.5 1.5M2 19.5v7c1.935 0 3.5 1.565 3.5 3.5h3.698l3.37-3.37C11.606 25.718 11 24.432 11 23c0-2.762 2.239-5 5-5 1.431 0 2.718.605 3.63 1.569L23.199 16H5.5c0 1.935-1.565 3.5-3.5 3.5" transform="translate(14 14)"/>
                    <path fill="#C2F8F0" d="M21 23c0 2.762-2.238 5-5 5-2.761 0-5-2.238-5-5s2.239-5 5-5c2.762 0 5 2.238 5 5" transform="translate(14 14)"/>
                    <path fill="#17B198" d="M16.275 23.41v.834c.282-.042.426-.174.426-.39 0-.198-.102-.33-.426-.445m-.564-1.05v-.81c-.288.042-.415.186-.415.378 0 .186.085.312.415.432m.282-1.945c.174 0 .312.138.312.312v.084c.324.048.613.144.87.288.115.066.217.18.217.36 0 .228-.18.403-.408.403-.073 0-.145-.018-.21-.054-.169-.09-.337-.163-.499-.205v.913c.913.246 1.303.618 1.303 1.29 0 .673-.516 1.105-1.273 1.19v.317c0 .174-.138.313-.312.313s-.312-.139-.312-.313v-.324c-.426-.054-.828-.204-1.183-.42-.126-.078-.204-.198-.204-.36 0-.234.18-.408.414-.408.078 0 .162.03.234.078.253.162.493.276.77.336v-.955c-.865-.234-1.292-.564-1.292-1.278 0-.661.505-1.105 1.26-1.183v-.072c0-.174.139-.312.313-.312" transform="translate(14 14)"/>
                    <path fill="#FFF" d="M14.498 24.568c-.126-.078-.204-.198-.204-.36 0-.233.18-.407.413-.407.079 0 .163.03.234.078.082.052.163.091.244.134l.524-.524v-.228c-.864-.234-1.29-.564-1.29-1.277 0-.66.505-1.104 1.26-1.182v-.072c0-.174.138-.312.312-.312s.312.138.312.312v.084c.323.048.611.144.87.288.113.066.215.18.215.36 0 .228-.18.402-.408.402-.072 0-.144-.018-.21-.054-.168-.09-.335-.162-.497-.204v.911c.111.03.215.063.311.097l3.046-3.046C18.718 18.605 17.43 18 16 18c-2.762 0-5 2.238-5 5 0 1.431.604 2.718 1.568 3.63l2.015-2.015c-.028-.016-.058-.03-.085-.047M4.5 23c0 .828.671 1.5 1.5 1.5s1.5-.672 1.5-1.5-.671-1.5-1.5-1.5-1.5.672-1.5 1.5" transform="translate(14 14)"/>
                    <path fill="#FFF" d="M15.709 21.555v.806c-.33-.117-.413-.248-.413-.434s.123-.331.413-.372" transform="translate(14 14)"/>
                </g>
            </g>
        </g>
    </g>
</svg>
