<?xml version="1.0" encoding="UTF-8" standalone="no"?>
<svg width="200px" height="200px" viewBox="0 0 200 200" version="1.1" xmlns="http://www.w3.org/2000/svg" xmlns:xlink="http://www.w3.org/1999/xlink">
    <!-- Generator: Sketch 39.1 (31720) - http://www.bohemiancoding.com/sketch -->
    <title>assets/img_current_address</title>
    <desc>Created with Sketch.</desc>
    <defs></defs>
    <g id="Freshness" stroke="none" stroke-width="1" fill="none" fill-rule="evenodd">
        <g id="Circular-Icons" transform="translate(-750.000000, -1750.000000)">
            <g id="assets/img_current_address" transform="translate(750.000000, 1750.000000)">
                <path d="M100,200 C155.228475,200 200,155.228475 200,100 C200,44.771525 155.228475,0 100,0 C44.771525,0 0,44.771525 0,100 C0,155.228475 44.771525,200 100,200 Z" id="background" fill="#353167"></path>
                <g id="house" transform="translate(40.000000, 36.000000)">
                    <polygon id="Fill-2263" fill="#FFFFFF" points="111.386139 111.5625 7.42574257 111.5625 7.42574257 44.625 111.386139 44.625"></polygon>
                    <path d="M103.960396,11.15625 C103.960396,9.10164062 102.29703,7.4375 100.247525,7.4375 L92.8217822,7.4375 C90.7722772,7.4375 89.1089109,9.10164062 89.1089109,11.15625 L89.1089109,33.46875 C89.1089109,35.5233594 90.7722772,37.1875 92.8217822,37.1875 L100.247525,37.1875 C102.29703,37.1875 103.960396,35.5233594 103.960396,33.46875 L103.960396,11.15625 Z" id="Fill-2264" fill="#E2E4E5"></path>
                    <path d="M61.6856436,0.783354687 C60.345297,-0.261614063 58.4684406,-0.261614063 57.1262376,0.783354687 L1.43316832,37.9708547 C0.181930693,38.9470266 -0.313737624,40.6111672 0.20049505,42.1135422 C0.716584158,43.6159172 2.12561881,44.6255578 3.71287129,44.6255578 L115.09901,44.6255578 C116.684406,44.6255578 118.095297,43.6159172 118.611386,42.1135422 C119.125619,40.6111672 118.62995,38.9470266 117.378713,37.9708547 L61.6856436,0.783354687 Z" id="Fill-2265" fill="#DF2C2C"></path>
                    <polygon id="Fill-2266" fill="#40C9E7" points="103.960396 87.6230469 64.9752475 87.6230469 64.9752475 59.5 103.960396 59.5"></polygon>
                    <path d="M48.2673267,74.375 C48.2673267,66.1602812 41.6175743,59.5 33.4158416,59.5 C25.2141089,59.5 18.5643564,66.1602812 18.5643564,74.375 L18.5643564,104.125 L48.2673267,104.125 L48.2673267,74.375 Z" id="Fill-2267" fill="#84462D"></path>
                    <path d="M44.5544554,85.53125 C44.5544554,87.5858594 42.8910891,89.25 40.8415842,89.25 C38.7920792,89.25 37.1287129,87.5858594 37.1287129,85.53125 C37.1287129,83.4766406 38.7920792,81.8125 40.8415842,81.8125 C42.8910891,81.8125 44.5544554,83.4766406 44.5544554,85.53125" id="Fill-2268" fill="#FACB1B"></path>
                    <polygon id="Fill-2269" fill="#0D9681" points="118.811881 119 0 119 0 111.5625 118.811881 111.5625"></polygon>
                    <path d="M0,111.5625 L5.79393564,105.759391 C6.83910891,104.712562 8.25556931,104.125 9.73329208,104.125 L109.078589,104.125 C110.556312,104.125 111.972772,104.712562 113.017946,105.759391 L118.811881,111.5625 L0,111.5625 Z" id="Fill-2270" fill="#17B198"></path>
                </g>
            </g>
        </g>
    </g>
</svg>