<svg xmlns="http://www.w3.org/2000/svg" width="60" height="60" viewBox="0 0 60 60">
    <g fill="none" fill-rule="evenodd">
        <g>
            <g>
                <g>
                    <g transform="translate(-540 -3930) translate(540 3930)">
                        <circle cx="36.823" cy="23.135" r="21.945" fill="#FFF"/>
                        <path fill="#8736C1" d="M18.223 34.805L1.328 51.699c-1.77 1.771-1.77 4.65 0 6.42l.064.065c1.771 1.771 4.65 1.77 6.421 0L24.708 41.29c-2.59-1.684-4.802-3.896-6.485-6.485"/>
                        <path fill="#B076DA" d="M1.323 51.7c-1.744 1.743-1.76 4.56-.068 6.337L16.812 42.48l-3.135-3.135L1.323 51.7z"/>
                        <path fill="#FACB1B" d="M18.218 34.805l-4.54 4.54 3.134 3.135 4.199-4.2c-1.044-1.058-1.98-2.224-2.793-3.475"/>
                        <path fill="#8736C1" fill-rule="nonzero" d="M36.686.408c-12.382 0-22.42 10.037-22.42 22.419 0 12.381 10.038 22.419 22.42 22.419 12.381 0 22.419-10.038 22.419-22.42 0-12.381-10.038-22.418-22.42-22.418zm0 .815c11.931 0 21.603 9.672 21.603 21.604 0 11.931-9.672 21.603-21.603 21.603-11.932 0-21.604-9.672-21.604-21.603 0-11.932 9.672-21.604 21.604-21.604z"/>
                        <path fill="#E5C8FA" d="M19.26 22.827c0-9.624 7.802-17.426 17.426-17.426 9.623 0 17.425 7.802 17.425 17.426 0 9.623-7.802 17.425-17.425 17.425-9.624 0-17.426-7.802-17.426-17.425z"/>
                        <path fill="#DBA9FF" d="M36.686 5.4c-9.624 0-17.426 7.803-17.426 17.427 0 5.024 2.139 9.537 5.54 12.718L49.403 10.94C46.223 7.54 41.71 5.4 36.686 5.4"/>
                    </g>
                    <path fill="#FFF" d="M18.223 34.805l-4.541 4.54 6.485 6.485 4.54-4.54c-2.59-1.684-4.801-3.896-6.484-6.485" transform="translate(-540 -3930) translate(540 3930)"/>
                    <path fill="#8736C1" fill-rule="nonzero" d="M17.935 34.516l.287.288.343-.222c1.564 2.408 3.596 4.483 5.967 6.1l.398.266.422.274-5.185 5.185-7.061-7.062 4.829-4.829zm.224.928l-3.9 3.9 5.908 5.91 3.9-3.901-.361-.252c-2.047-1.457-3.839-3.248-5.295-5.295l-.252-.362z" transform="translate(-540 -3930) translate(540 3930)"/>
                </g>
            </g>
        </g>
    </g>
</svg>
