<svg xmlns="http://www.w3.org/2000/svg" xmlns:xlink="http://www.w3.org/1999/xlink" width="134" height="61" viewBox="0 0 134 61">
    <defs>
        <path id="u7xswe8fra" d="M0 61L133.107 61 133.107 0 0 0z"/>
    </defs>
    <g fill="none" fill-rule="evenodd">
        <g>
            <g transform="translate(-933 -212) translate(933 212)">
                <path fill="#8736C1" d="M43.254 39.936c-.684.923-1.299 1.886-1.854 2.888-.148.268-.297.536-.436.814-.05.08-.1.17-.129.259-.149.278-.287.566-.426.854-.01.01-.01.02-.01.03-.278.575-.525 1.16-.754 1.766-.208.506-.386 1.033-.555 1.569-.07.188-.119.377-.178.566-.11.367-.218.734-.307 1.111-.13.467-.238.933-.328 1.411 0 .009-.01.019-.01.029-.089.446-.168.893-.237 1.34-.06.368-.11.744-.15 1.132-.039.269-.059.526-.078.794-.04.348-.06.705-.08 1.052v.03c-.03.496-.04.993-.04 1.5h-9.695c0-.478.01-.944.03-1.42 0-.11 0-.22.01-.338.02-.476.049-.943.089-1.42.04-.476.079-.943.138-1.41.01-.119.03-.248.05-.367.05-.447.11-.882.188-1.33.07-.457.159-.923.248-1.38.02-.08.03-.158.05-.248.099-.467.198-.933.317-1.39.09-.357.178-.725.288-1.081.02-.09.04-.18.069-.269l.149-.506c.099-.338.208-.674.317-1.013.03-.1.06-.197.099-.298.129-.387.268-.774.416-1.161 0-.03.01-.05.03-.08.169-.456.347-.903.535-1.349.219-.517.437-1.032.675-1.529.178-.378.366-.744.555-1.112.922-1.807 1.983-3.534 3.162-5.163l7.852 5.719z"/>
                <path fill="#D7D7D7" d="M105.652 57.08h-9.695c0-.507-.01-1.003-.04-1.5v-.028c-.02-.349-.04-.705-.079-1.054-.02-.267-.04-.525-.08-.793-.04-.377-.088-.754-.149-1.131-.07-.447-.148-.894-.238-1.342 0-.009 0-.018-.01-.028-.089-.477-.198-.944-.327-1.411-.089-.377-.198-.745-.307-1.11-.06-.19-.11-.38-.179-.567-.168-.536-.356-1.063-.555-1.568-.228-.607-.486-1.193-.753-1.768 0-.01-.01-.02-.01-.03-.139-.287-.278-.575-.426-.853-.03-.09-.08-.179-.13-.258-.137-.278-.287-.547-.435-.814-.566-1.003-1.18-1.967-1.853-2.89-.169-.227-.338-.456-.507-.674l-.327-.417c-.189-.23-.377-.467-.565-.686-.01-.019-.02-.03-.03-.03-.227-.277-.475-.546-.714-.813-.823-.894-1.685-1.727-2.606-2.502-.18-.148-.358-.297-.536-.446-.199-.17-.407-.328-.615-.477-1.11-.863-2.29-1.628-3.519-2.313-.199-.12-.397-.228-.605-.328-.199-.108-.407-.218-.625-.318-.149-.078-.296-.158-.456-.227-.257-.13-.525-.248-.803-.359-.228-.108-.466-.208-.714-.306-.545-.23-1.11-.438-1.674-.626-.09-.03-.17-.06-.259-.09h-.01c-.187-.06-.377-.118-.575-.179-.377-.119-.753-.217-1.139-.316-.467-.13-.943-.239-1.419-.328-.416-.09-.832-.169-1.249-.23-.436-.069-.872-.127-1.318-.177-.188-.03-.386-.05-.585-.06-.397-.04-.803-.07-1.22-.09-.495-.029-.991-.04-1.497-.04-.505 0-1.001.011-1.497.04-.416.02-.823.05-1.22.09-.197.01-.396.03-.584.06-.446.05-.882.108-1.319.178-.416.06-.832.14-1.249.229-.476.09-.951.198-1.417.328-.387.099-.764.197-1.14.316-.199.06-.387.12-.575.18-.09.029-.179.06-.268.09-.565.187-1.13.395-1.676.625-.247.098-.485.198-.713.306-.278.11-.546.23-.803.359-.16.07-.308.149-.456.227-.219.1-.427.21-.625.318-.208.1-.407.208-.605.328-1.23.685-2.409 1.45-3.52 2.313-.207.15-.416.307-.614.477l-.535.446c-.922.775-1.785 1.608-2.608 2.502-.238.267-.485.536-.713.813-.01 0-.02.011-.03.03-.188.219-.377.457-.565.686l-.327.417c-.169.218-.337.447-.506.674l-7.852-5.717.06-.09c.585-.784 1.19-1.549 1.824-2.293.327-.387.664-.764 1.011-1.141.337-.367.694-.735 1.051-1.093.357-.356.714-.705 1.09-1.051.367-.349.744-.686 1.13-1.014.764-.654 1.557-1.29 2.38-1.885.377-.278.763-.546 1.16-.814.04-.031.09-.06.139-.09.376-.258.773-.506 1.16-.754.089-.05.178-.11.277-.169.367-.22.734-.437 1.11-.645.883-.496 1.795-.963 2.727-1.4.466-.21.932-.417 1.408-.616.416-.178.852-.347 1.279-.506.089-.04.178-.07.257-.099.456-.159.902-.318 1.359-.467.941-.307 1.903-.576 2.875-.813.426-.11.862-.199 1.288-.288l.318-.06c.456-.09.902-.179 1.368-.25.495-.079 1.001-.147 1.507-.208.466-.058.941-.108 1.407-.147.09 0 .169-.011.248-.021.427-.03.853-.049 1.28-.069.088-.01.178-.01.257-.01.486-.02.962-.03 1.447-.03.486 0 .962.01 1.448.03.079 0 .168 0 .257.01.427.02.853.039 1.28.069.079.01.158.02.247.02.467.04.942.09 1.408.148.507.061 1.011.13 1.507.209.466.07.912.159 1.368.248l.317.06c.427.09.864.18 1.29.289.97.237 1.932.506 2.875.813h.009c.456.15.903.308 1.348.467 1.051.387 2.082.813 3.093 1.29.417.188.823.397 1.23.595.933.488 1.854 1.004 2.736 1.55.397.248.783.496 1.16.754.05.02.09.059.139.09.396.257.784.536 1.16.814.822.594 1.616 1.23 2.379 1.885.387.328.763.665 1.14 1.014.358.337.714.684 1.07 1.032l.031.03c.328.337.655.675.971 1.012.1.099.188.209.288.307.257.299.525.597.783.904.654.765 1.289 1.568 1.884 2.383.267.367.525.745.784 1.122 1.397 2.065 2.597 4.268 3.577 6.601.13.288.248.586.357.884.12.288.228.585.337.883.12.298.23.596.318.903.089.248.168.496.248.744.218.696.426 1.41.604 2.126.06.218.11.446.159.665.03.12.06.227.08.347.108.447.197.894.277 1.34.07.318.119.646.168.964.09.515.159 1.032.218 1.547.07.517.12 1.034.16 1.56.039.475.068.943.088 1.418.011.12.011.23.011.338.019.477.029.944.029 1.42"/>
                <mask id="g1mcspp4mb" fill="#fff">
                    <use xlink:href="#u7xswe8fra"/>
                </mask>
                <path fill="#FFF" d="M27.987 57.577L37.683 57.577 37.683 56.584 27.987 56.584zM95.957 57.577L105.652 57.577 105.652 56.584 95.957 56.584zM90.677 40.337L90.094 39.534 98.017 33.762 98.616 34.553 98.536 34.613zM76.302 29.477L75.36 29.17 78.386 19.844 79.325 20.159 79.295 20.249zM57.347 29.477L54.353 20.244 55.264 19.844 55.293 19.933 58.289 29.17zM42.963 40.337L35.024 34.553 35.622 33.762 35.702 33.823 43.546 39.534z" mask="url(#g1mcspp4mb)"/>
                <path fill="#000" d="M69.112 54.067c1.55 1.108 1.91 3.264.804 4.817-1.107 1.553-3.26 1.912-4.811.804L35.603 35.262c-.64-.593.088-1.613.856-1.2l32.653 20.005zM4.964 59.165L0 59.165 0 52.22 4.815 52.22 4.815 53.579 1.387 53.579 1.387 54.78 3.379 54.78 3.379 56.129 1.387 56.129 1.387 57.806 4.964 57.806zM8.931 57.637v-.654c-.238-.15-.466-.219-.95-.219-.516 0-.794.238-.794.655 0 .367.209.693.793.693.446 0 .803-.227.951-.475zm1.367 1.528H8.931v-.348c-.248.258-.683.457-1.169.457-.971 0-1.942-.595-1.942-1.855 0-1.151.931-1.727 2.11-1.727.476 0 .783.1 1.001.209v-.258c0-.368-.248-.666-.743-.666-.624 0-.951.09-1.427.349l-.525-.953c.604-.348 1.11-.525 1.952-.525 1.259 0 2.11.654 2.11 1.824v3.493zM15.692 57.647c0 1.2-.951 1.628-2.12 1.628-.823 0-1.626-.24-2.18-.607l.455-1.041c.555.308 1.14.476 1.804.476.535 0 .693-.129.693-.396 0-.239-.188-.358-.763-.527-1.248-.377-2.051-.684-2.051-1.786 0-1.08.862-1.546 2.08-1.546.655 0 1.368.197 1.923.506l-.436 1.08c-.516-.277-1.08-.416-1.516-.416-.554 0-.703.11-.703.336 0 .219.158.31 1.08.607.93.307 1.734.644 1.734 1.686M21.58 53.956L18.904 61h-1.347l.694-1.835-2.021-5.21h1.506l.851 2.51c.14.399.278.895.337 1.142.06-.258.198-.734.337-1.141l.853-2.51h1.466zM117.72 59.165L116.333 59.165 116.333 56.248 113.489 56.248 113.489 59.165 112.102 59.165 112.102 52.22 113.489 52.22 113.489 54.879 116.333 54.879 116.333 52.22 117.72 52.22zM122.143 57.637v-.654c-.237-.15-.465-.219-.951-.219-.515 0-.793.238-.793.655 0 .367.208.693.793.693.446 0 .803-.227.951-.475zm1.368 1.528h-1.368v-.348c-.247.258-.683.457-1.17.457-.97 0-1.941-.595-1.941-1.855 0-1.151.931-1.727 2.11-1.727.476 0 .783.1 1.001.209v-.258c0-.368-.247-.666-.743-.666-.625 0-.95.09-1.427.349l-.525-.953c.605-.348 1.11-.525 1.952-.525 1.259 0 2.11.654 2.11 1.824v3.493zM128.19 54.214l-.356 1.34c-.218-.2-.486-.338-.792-.338-.536 0-.883.228-.883 1.131v2.818h-1.368v-5.21h1.368v.348c.237-.247.585-.455 1.07-.455.446 0 .783.178.962.366M131.74 57.548v-1.965c-.208-.288-.525-.447-.922-.447-.525 0-.812.457-.812 1.33 0 1.072.356 1.518.891 1.518.426 0 .645-.178.843-.436zm1.367 1.617h-1.367v-.328c-.258.229-.604.437-1.1.437-1.11 0-2.021-.834-2.021-2.778 0-1.558.733-2.65 2.021-2.65.456 0 .852.18 1.1.408v-1.637l1.367-.685v7.233zM32.658 18.425c-2.128-2.462-2.814-2.77-3.378-2.283l-.228.198 5.24 6.066.205-.177c.54-.467.36-1.257-1.84-3.804m1.37-1.207c2.491 2.883 3 4.858 1.477 6.177l-1.536 1.33-7.264-8.41 1.668-1.443c1.63-1.413 3.403-.26 5.655 2.346M40.148 19.791l-1.387.98-4.796-6.816 1.387-.979 4.796 6.815zm-5.931-8.675c.32.454.225 1.064-.228 1.384-.454.321-1.06.204-1.38-.25-.33-.467-.235-1.079.219-1.398.454-.32 1.06-.204 1.389.264zM38.952 8.903c-.168.027-.362.106-.553.222-.3.178-.356.454-.136.822l.514.858.775-.465.808 1.35-.776.465 3.473 5.808-1.43.857-3.473-5.807-.531.318-.807-1.35.531-.318-.636-1.063c-.677-1.132-.35-2.069.454-2.55.476-.286.689-.396.996-.47l.791 1.323zM43.092 6.822c-.17.014-.369.076-.568.175-.313.154-.393.424-.202.808l.44.898.812-.402.695 1.41-.81.4 2.99 6.066-1.494.739-2.99-6.066-.554.274-.695-1.41.555-.273-.548-1.111c-.583-1.183-.18-2.089.658-2.504.497-.246.719-.337 1.03-.386l.68 1.382zM49.83 14.72l-1.573.638-3.12-7.73 1.573-.636 3.12 7.729zm-3.802-9.8c.208.515-.023 1.089-.537 1.297-.515.209-1.078-.042-1.286-.559-.214-.53.016-1.103.53-1.311.515-.209 1.079.044 1.293.574zM54.64 10.687c.204 1.665-.182 2.693-1.337 3.042-1.382.418-2.592-.411-3.5-3.422-.916-3.042-.525-4.439 1.039-4.91 1.306-.395 2.153.544 2.728 1.846l-1.365.861c-.366-.885-.605-1.294-.955-1.188-.546.165-.386 1.03.169 2.87.569 1.885.885 2.603 1.446 2.433.304-.091.344-.453.195-1.553l1.58.021zM60.67 11.928l-1.655.296-.073-.406c-.27.386-.585.7-1.192.809-.985.176-1.547-.272-1.82-1.804l-1.125-6.316 1.655-.294 1.08 6.064c.093.515.248.762.56.707.266-.048.437-.175.625-.386l-1.173-6.581 1.656-.296 1.461 8.207zM63.758 11.675L62.066 11.815 61.179 1.019 62.809.136zM68.299 9.886l-.134 1.575c-.346.18-.677.28-1.137.289-1.046.016-1.564-.595-1.584-1.849l-.082-5.064-.618.01-.026-1.571.618-.01-.04-2.493L66.964 0l.053 3.238 1.094-.018.025 1.572-1.094.018.076 4.667c.007.444.153.664.438.66.302-.006.475-.087.743-.25M74.689 3.724l-3.406 11.008-1.657-.156.973-2.749-.932-8.575 1.737.163.107 2.26c.05 1.17.092 2.929.064 4.074.17-1.132.572-2.865.852-3.988l.54-2.198 1.722.161zM83.995 14.64l-1.513-.472.861-2.775c.4-1.288.826-2.502 1.195-3.584-.41.786-1.247 2.255-1.84 3.252l-1.754 2.979.256-3.446c.077-1.107.242-2.868.339-3.719-.295 1.005-.658 2.39-1.043 3.633l-.86 2.774-1.516-.471 3.294-10.613 1.665.518-.305 3.446c-.084 1.021-.208 2.33-.386 3.222.36-.836 1.018-1.994 1.526-2.884l1.71-2.993 1.665.518-3.294 10.615zM89.903 11.905c.566-1.277.698-2.006.31-2.187-.386-.184-.788.223-1.5 1.625l1.19.562zm.894 1.897l-2.667-1.259c-.715 1.592-.751 2.19-.32 2.393.315.148.545-.04 1.124-.715l1.11 1.068c-.9.98-1.715 1.56-2.935.984-1.506-.71-1.334-2.526-.24-4.852 1.204-2.557 2.447-3.708 3.997-2.975 1.362.642 1.358 2.325.147 4.896l-.216.46zM93.768 17.857l-.947 1.264c-.39-.03-.725-.122-1.117-.36-.897-.542-1.012-1.335-.364-2.41l2.614-4.339-.53-.32.814-1.346.53.32 1.286-2.137 1.825.233-1.672 2.774.937.566-.811 1.347-.937-.566-2.411 4c-.23.38-.223.645.022.791.258.157.449.18.76.183M98.93 17.504c.811-1.137 1.088-1.823.745-2.08-.343-.258-.818.06-1.799 1.29l1.053.79zm.495 2.04l-2.36-1.772c-1.022 1.417-1.177 1.995-.798 2.28.28.21.544.071 1.247-.473l.874 1.27c-1.079.779-1.996 1.183-3.074.373-1.333-1-.8-2.745.741-4.804 1.694-2.261 3.143-3.139 4.514-2.11 1.205.905.863 2.555-.84 4.83l-.304.406zM106.32 19.446l-1.4 1.19c-.047-.324-.147-.546-.413-.794-.222-.204-.472-.285-.752-.262l-4.416 4.782-1.235-1.143 5.655-6.124 1.234 1.143-.28.304c.447-.063.865 0 1.192.303.29.269.363.422.416.601" mask="url(#g1mcspp4mb)"/>
            </g>
        </g>
    </g>
</svg>
