<?xml version="1.0" encoding="UTF-8"?>
<svg width="60px" height="60px" viewBox="0 0 60 60" version="1.1" xmlns="http://www.w3.org/2000/svg" xmlns:xlink="http://www.w3.org/1999/xlink">
    <!-- Generator: Sketch 49 (51002) - http://www.bohemiancoding.com/sketch -->
    <title>assets/img_onboard_person</title>
    <desc>Created with Sketch.</desc>
    <defs></defs>
    <g id="assets/img_onboard_person" stroke="none" stroke-width="1" fill="none" fill-rule="evenodd">
        <path d="M30,50 C41.045695,50 50,41.045695 50,30 C50,18.954305 41.045695,10 30,10 C18.954305,10 10,18.954305 10,30 C10,41.045695 18.954305,50 30,50 Z" id="background" fill="#FFFFFF"></path>
        <g id="assets/img_generic_person" opacity="0.24" transform="translate(10.000000, 10.000000)">
            <path d="M20,40 C31.045695,40 40,31.045695 40,20 C40,8.954305 31.045695,-2.27373675e-13 20,-2.27373675e-13 C8.954305,-2.27373675e-13 0,8.954305 0,20 C0,31.045695 8.954305,40 20,40 Z" id="background" fill="#353167"></path>
            <g id="person-active" transform="translate(8.000000, 9.000000)" fill="#FFFFFF">
                <path d="M17.232,8.018988 C17.4457143,7.841148 17.6422857,7.485468 17.8205714,6.950808 C18.0354286,5.882628 17.8571429,5.098308 17.2857143,4.600128 C17.2857143,1.506168 14.7154286,0.000228 12.2,0.000228 C9.68457143,0.000228 7.11428571,1.506168 7.11428571,4.600128 C6.54285714,5.098308 6.36457143,5.882628 6.57942857,6.950808 C6.75771429,7.485468 6.95428571,7.841148 7.168,8.018988 C7.27542857,9.336828 8.04342857,13.604988 12.2,13.604988 C16.3565714,13.604988 17.1245714,9.336828 17.232,8.018988 Z" id="Fill-1"></path>
                <path d="M23.1688,17.266326 C22.8248,16.611966 22.1448,16.035126 21.1299429,15.535806 C20.2910857,15.124266 17.3070857,13.675326 16.3939429,13.231866 C15.3573714,14.150706 13.9813714,14.744646 12.2030857,14.744646 L12.2008,14.744646 L12.1996571,14.744646 L12.1996571,14.744646 C10.4225143,14.744646 9.0488,14.152986 8.01222857,13.236426 C7.28994286,13.608066 5.32194286,14.614686 4.76994286,14.834706 C4.06708571,15.115146 3.36422857,15.474246 2.66137143,15.910866 C1.95737143,16.346346 1.4808,16.798926 1.23165714,17.266326 C0.543657143,18.637746 0.199657143,20.055906 0.199657143,21.520806 C0.199657143,21.863946 0.372228571,22.036086 0.716228571,22.036086 L23.6842286,22.036086 C24.0282286,22.036086 24.1996571,21.863946 24.1996571,21.520806 C24.1996571,20.055906 23.8568,18.637746 23.1688,17.266326" id="Fill-3"></path>
            </g>
        </g>
        <g id="checkmark" transform="translate(35.000000, 5.000000)">
            <path d="M18.6588542,4.98697917 C19.5529559,6.51476458 20,8.18575482 20,10 C20,11.8142452 19.5529559,13.4874055 18.6588542,15.0195312 C17.7647525,16.551657 16.551657,17.7647525 15.0195313,18.6588542 C13.4874055,19.5529559 11.8142452,20 10,20 C8.18575482,20 6.51259447,19.5529559 4.98046875,18.6588542 C3.44834303,17.7647525 2.23524753,16.551657 1.34114583,15.0195312 C0.447044141,13.4874055 0,11.8142452 0,10 C0,8.18575482 0.447044141,6.51259447 1.34114583,4.98046875 C2.23524753,3.44834303 3.44834303,2.23524753 4.98046875,1.34114583 C6.51259447,0.447044141 8.18575482,0 10,0 C11.8142452,0 13.4874055,0.447044141 15.0195313,1.34114583 C16.551657,2.23524753 17.7647525,3.45051315 18.6588542,4.98697917 Z" id="Path" fill="#81B44C"></path>
            <path d="M16.71875,7.890625 C16.71875,7.64756823 16.6406258,7.44791745 16.484375,7.29166667 L15.2994792,6.11979167 C15.1345478,5.95486029 14.9392372,5.87239583 14.7135417,5.87239583 C14.4878461,5.87239583 14.2925355,5.95486029 14.1276042,6.11979167 L8.81510417,11.4192708 L5.87239583,8.4765625 C5.70746445,8.31163112 5.51215391,8.22916667 5.28645833,8.22916667 C5.06076276,8.22916667 4.86545221,8.31163112 4.70052083,8.4765625 L3.515625,9.6484375 C3.35937422,9.80468828 3.28125,10.0043391 3.28125,10.2473958 C3.28125,10.481772 3.35937422,10.6770826 3.515625,10.8333333 L8.22916667,15.546875 C8.39409805,15.7118064 8.58940859,15.7942708 8.81510417,15.7942708 C9.04948034,15.7942708 9.24913112,15.7118064 9.4140625,15.546875 L16.484375,8.4765625 C16.6406258,8.32031172 16.71875,8.12500117 16.71875,7.890625 Z" id="Path" fill="#FFFFFF"></path>
        </g>
    </g>
</svg>