<?xml version="1.0" encoding="UTF-8" standalone="no"?>
<svg width="200px" height="200px" viewBox="0 0 200 200" version="1.1" xmlns="http://www.w3.org/2000/svg" xmlns:xlink="http://www.w3.org/1999/xlink">
    <!-- Generator: Sketch 39.1 (31720) - http://www.bohemiancoding.com/sketch -->
    <title>assets/img_social</title>
    <desc>Created with Sketch.</desc>
    <defs>
        <linearGradient x1="32.3913574%" y1="100%" x2="78.3203125%" y2="13.496748%" id="linearGradient-1">
            <stop stop-color="#FBDA61" offset="0%"></stop>
            <stop stop-color="#F76B1C" offset="21.8146831%"></stop>
            <stop stop-color="#FA4BA4" offset="62.427747%"></stop>
            <stop stop-color="#BA4BFA" offset="100%"></stop>
        </linearGradient>
    </defs>
    <g id="Freshness" stroke="none" stroke-width="1" fill="none" fill-rule="evenodd">
        <g id="Circular-Icons" transform="translate(0.000000, -1500.000000)">
            <g id="assets/img_social" transform="translate(0.000000, 1500.000000)">
                <circle id="background" fill="#3B2469" cx="100" cy="100" r="100"></circle>
                <g id="Group" transform="translate(35.000000, 40.000000)">
                    <path d="M94.208125,69.8041287 C85.87,69.8041287 78.4975,73.8589559 73.885,80.0886279 L51.5725,68.9139073 C50.875,72.7377276 49.35625,76.2685637 47.2,79.3242394 L69.353125,90.4200797 C69.0625,91.956369 68.895625,93.5358547 68.895625,95.1585368 C68.895625,109.161683 80.228125,120.512945 94.208125,120.512945 C108.188125,120.512945 119.520625,109.161683 119.520625,95.1585368 C119.520625,81.1553911 108.188125,69.8041287 94.208125,69.8041287" id="Fill-5125" fill="#006EB9"></path>
                    <path d="M93.20875,0 C78.71125,0 66.95875,11.7719578 66.95875,26.2934603 C66.95875,27.9161424 67.125625,29.4975062 67.406875,31.0375517 L42.4,43.5626293 C45.368125,46.0135555 47.7625,49.1218181 49.425625,52.6432637 L71.779375,41.4478839 C76.5325,48.1790097 84.349375,52.5869205 93.20875,52.5869205 C107.70625,52.5869205 119.45875,40.8149627 119.45875,26.2934603 C119.45875,11.7719578 107.70625,0 93.20875,0" id="Fill-5126" fill="#FFFFFF"></path>
                    <path d="M52.5,63.9557119 C52.5,78.4772144 40.7475,90.2491722 26.25,90.2491722 C11.7525,90.2491722 0,78.4772144 0,63.9557119 C0,49.4342094 11.7525,37.6622517 26.25,37.6622517 C40.7475,37.6622517 52.5,49.4342094 52.5,63.9557119" id="Fill-5127" fill="#059BBF"></path>
                    <path d="M108.4,38.7646989 C108.4,40.1469837 107.280625,41.2682119 105.900625,41.2682119 L80.899375,41.2682119 C79.519375,41.2682119 78.4,40.1469837 78.4,38.7646989 L78.4,13.7239342 C78.4,12.3397713 79.519375,11.218543 80.899375,11.218543 L105.900625,11.218543 C107.280625,11.218543 108.4,12.3397713 108.4,13.7239342 L108.4,38.7646989 Z" id="Fill-5128" fill="url(#linearGradient-1)"></path>
                    <path d="M89.208125,92.3150869 L85.475,92.3150869 C83.765,92.3150869 82.4,90.9947796 82.4,89.2819485 C82.4,87.5728736 83.765,86.2018574 85.475,86.2018574 L89.208125,86.2018574 L89.208125,84.5397351 C89.208125,81.6549669 89.94125,79.5514901 91.308125,78.182352 C92.675,76.813214 94.6775,76.1258278 97.31375,76.1258278 C98.485625,76.1258278 99.51125,76.1765366 100.34,76.3230288 C101.609375,76.5202297 102.87875,77.6433361 102.87875,79.3073365 C102.87875,80.9694588 101.511875,82.3874276 99.8525,82.3874276 L99.216875,82.3874276 C97.50875,82.3874276 96.531875,83.2682585 96.531875,85.2233651 L96.531875,86.2506881 L99.755,86.2506881 C101.463125,86.2506881 102.83,87.5728736 102.83,89.2819485 C102.83,90.9947796 101.463125,92.3150869 99.755,92.3150869 L96.629375,92.3150869 L96.629375,108.7485 C96.629375,110.803146 94.97,112.465268 92.91875,112.465268 C90.8675,112.465268 89.208125,110.803146 89.208125,108.7485 L89.208125,92.3150869 Z" id="Fill-5129" fill="#FFFFFF"></path>
                    <path d="M105.900625,11.218543 L80.90125,11.218543 C79.52125,11.218543 78.4,12.3397713 78.4,13.7220561 L78.4,38.7646989 C78.4,39.3919857 78.653125,39.9479046 79.03375,40.387381 L107.5225,11.8533423 C107.081875,11.4720871 106.526875,11.218543 105.900625,11.218543" id="Fill-5130" fill="#FFFFFF" opacity="0.348938899"></path>
                    <path d="M26.25,37.6622517 C11.7525,37.6622517 0,49.4342094 0,63.9557119 C0,71.1544857 2.893125,77.6696296 7.57125,82.4193553 L44.683125,45.2460368 C39.943125,40.5601666 33.436875,37.6622517 26.25,37.6622517" id="Fill-5131" fill="#21B2D1"></path>
                    <path d="M34.480625,51.2847682 C40.761875,51.2847682 40.761875,57.5764176 40.761875,57.5764176 L44.950625,59.6742601 C44.950625,59.6742601 44.950625,61.7721026 38.669375,63.8699452 C40.761875,70.1615946 33.434375,78.5529646 25.056875,78.5529646 C16.68125,78.5529646 10.4,72.2594371 10.4,63.8699452 C10.4,63.8699452 15.635,68.0637521 21.91625,65.9677877 C22.116875,66.1030112 15.708125,61.9092043 17.729375,51.2847682 C17.729375,51.2847682 21.91625,57.5764176 28.199375,57.5764176 C28.199375,57.5764176 28.199375,51.2847682 34.480625,51.2847682" id="Fill-5132" fill="#FFFFFF"></path>
                    <path d="M102.299375,26.3942519 C102.299375,31.2341267 98.3825,35.1593647 93.54875,35.1593647 C88.716875,35.1593647 84.8,31.2341267 84.8,26.3942519 C84.8,21.5543771 88.716875,17.6291391 93.54875,17.6291391 C98.3825,17.6291391 102.299375,21.5543771 102.299375,26.3942519" id="Fill-5135" stroke="#FFFFFF" stroke-width="3.75"></path>
                </g>
            </g>
        </g>
    </g>
</svg>