<?xml version="1.0" encoding="UTF-8" standalone="no"?>
<svg width="200px" height="200px" viewBox="0 0 200 200" version="1.1" xmlns="http://www.w3.org/2000/svg" xmlns:xlink="http://www.w3.org/1999/xlink">
    <!-- Generator: Sketch 39.1 (31720) - http://www.bohemiancoding.com/sketch -->
    <title>assets/img_tax</title>
    <desc>Created with Sketch.</desc>
    <defs></defs>
    <g id="Freshness" stroke="none" stroke-width="1" fill="none" fill-rule="evenodd">
        <g id="Circular-Icons" transform="translate(-1000.000000, -2750.000000)">
            <g id="assets/img_tax" transform="translate(1000.000000, 2750.000000)">
                <path d="M100,200 C155.228475,200 200,155.228475 200,100 C200,44.771525 155.228475,0 100,0 C44.771525,0 0,44.771525 0,100 C0,155.228475 44.771525,200 100,200 Z" id="background" fill="#3B2469"></path>
                <g id="Group-9" transform="translate(39.000000, 39.000000)">
                    <g id="Group">
                        <path d="M63.6160714,40.2857143 L73.6607143,40.2857143 L73.6607143,87.2857143 L63.6160714,87.2857143 L63.6160714,40.2857143 Z M33.4821429,40.2857143 L43.5267857,40.2857143 L43.5267857,87.2857143 L33.4821429,87.2857143 L33.4821429,40.2857143 Z M107.142857,40.2857143 L107.142857,33.5714286 L53.5714286,0 L0,33.5714286 L0,40.2857143 L13.3928571,40.2857143 L13.3928571,87.2857143 L6.69642857,87.2857143 L6.69642857,94 L100.446429,94 L100.446429,87.2857143 L93.75,87.2857143 L93.75,40.2857143 L107.142857,40.2857143 Z" id="Fill-3762" fill="#FFFFFF"></path>
                        <polygon id="Fill-3763" fill="#CCCCCC" points="20.0892857 87.2857143 26.7857143 87.2857143 26.7857143 40.2857143 20.0892857 40.2857143"></polygon>
                        <polygon id="Fill-3764" fill="#D6D6D6" points="20.0892857 58.0693393 20.0892857 40.2865536 26.7857143 40.2865536 26.7857143 64.783625"></polygon>
                        <polygon id="Fill-3765" fill="#CCCCCC" points="50.2232143 87.2857143 56.9196429 87.2857143 56.9196429 40.2857143 50.2232143 40.2857143"></polygon>
                        <polygon id="Fill-3766" fill="#D6D6D6" points="50.2232143 58.0693393 50.2232143 40.2865536 56.9196429 40.2865536 56.9196429 64.783625"></polygon>
                        <polygon id="Fill-3767" fill="#CCCCCC" points="80.3571429 87.2857143 87.0535714 87.2857143 87.0535714 40.2857143 80.3571429 40.2857143"></polygon>
                        <polygon id="Fill-3768" fill="#D6D6D6" points="80.3571429 58.0693393 80.3571429 40.2865536 87.0535714 40.2865536 87.0535714 64.783625"></polygon>
                        <polygon id="Fill-3769" fill="#CCCCCC" points="107.142857 100.714286 0 100.714286 0 94 107.142857 94"></polygon>
                        <polygon id="Fill-3770" fill="#D6D6D6" points="53.5714286 10.0714286 21.7633929 30.2142857 53.5714286 30.2142857"></polygon>
                        <polygon id="Fill-3771" fill="#D6D6D6" points="53.5714286 10.0714286 85.3794643 30.2142857 53.5714286 30.2142857"></polygon>
                    </g>
                    <g id="Group" transform="translate(51.428571, 51.428571)">
                        <path d="M39.4869643,0.864535714 C38.8569643,-0.0461785714 37.6066071,-0.273321429 36.6958929,0.356678571 L17.7230357,13.4923929 C16.81125,14.1234643 16.5841071,15.3738214 17.2151786,16.2845357 L45.7708929,57.5291786 C46.4019643,58.4398929 47.65125,58.6670357 48.5630357,58.0370357 L67.5348214,44.9013214 C68.4466071,44.27025 68.67375,43.0198929 68.0426786,42.1091786 L39.4869643,0.864535714 Z" id="Fill-6520" fill="#4AC3AF"></path>
                        <path d="M60.6785357,42.5453571 C60.6571071,43.6789286 61.0171071,44.7396429 61.6331786,45.5839286 L51.2488929,52.7796429 C50.3713929,51.4382143 48.8638929,50.5360714 47.1388929,50.5028571 C46.0556786,50.4814286 45.0346071,50.8125 44.2010357,51.3792857 L22.3246071,19.7678571 C23.6049643,18.8892857 24.4471071,17.4203571 24.47925,15.7553571 C24.4996071,14.6721429 24.1781786,13.6617857 23.5921071,12.8378571 L33.99675,5.63357143 C34.8753214,6.915 36.34425,7.76571429 38.0188929,7.79892857 C39.1128214,7.81928571 40.1328214,7.48821429 40.9663929,6.90214286 L62.86425,38.5135714 C61.5721071,39.3814286 60.71175,40.86 60.6785357,42.5453571" id="Fill-6521" fill="#0D9681"></path>
                        <path d="M16.4554286,7.24210714 C15.4000714,6.70425 14.109,7.12425 13.5711429,8.17960714 L2.37685714,30.1546071 C1.839,31.2099643 2.259,32.5010357 3.31435714,33.0378214 L51.0850714,57.3731786 C52.1404286,57.9110357 53.4315,57.4910357 53.9693571,56.4356786 L65.1636429,34.46175 C65.7004286,33.4053214 65.2815,32.11425 64.2261429,31.5774643 L16.4554286,7.24210714 Z" id="Fill-6522" fill="#8CE3D4"></path>
                        <path d="M57.5186786,35.7197143 C58.0726071,36.7975714 58.9490357,37.6129286 59.9561786,38.0950714 L53.8329643,50.1282857 C52.3276071,49.3107857 50.4515357,49.2250714 48.8111786,50.0682857 C47.7815357,50.5975714 46.98975,51.4268571 46.4915357,52.3825714 L9.88617857,33.7268571 C10.6468929,32.2504286 10.6940357,30.4418571 9.88082143,28.8593571 C9.35153571,27.8286429 8.53725,27.0422143 7.56760714,26.5632857 L13.7058214,14.5118571 C15.18225,15.2725714 16.9951071,15.3293571 18.5883214,14.5097143 C19.6276071,13.9761429 20.4193929,13.1468571 20.9068929,12.1729286 L57.5315357,30.819 C56.7568929,32.2900714 56.69475,34.1179286 57.5186786,35.7197143" id="Fill-6523" fill="#17B198"></path>
                        <path d="M68.5714286,66.4285714 C68.5714286,67.6114286 67.6114286,68.5714286 66.4285714,68.5714286 L2.14285714,68.5714286 C0.96,68.5714286 0,67.6114286 0,66.4285714 L0,32.1428571 C0,30.96 0.96,30 2.14285714,30 L66.4285714,30 C67.6114286,30 68.5714286,30.96 68.5714286,32.1428571 L68.5714286,66.4285714 Z" id="Fill-6524" fill="#8CE3D4"></path>
                        <path d="M64.2857143,41.7857143 L64.2857143,56.7857143 C60.1392857,56.7857143 56.7857143,60.1392857 56.7857143,64.2857143 L11.7857143,64.2857143 C11.7857143,60.1392857 8.43214286,56.7857143 4.28571429,56.7857143 L4.28571429,41.7857143 C8.43214286,41.7857143 11.7857143,38.4321429 11.7857143,34.2857143 L56.7857143,34.2857143 C56.7857143,38.4321429 60.1392857,41.7857143 64.2857143,41.7857143" id="Fill-6525" fill="#0D9681"></path>
                        <path d="M58.9285714,49.2857143 C58.9285714,51.0610714 57.4896429,52.5 55.7142857,52.5 C53.9389286,52.5 52.5,51.0610714 52.5,49.2857143 C52.5,47.5103571 53.9389286,46.0714286 55.7142857,46.0714286 C57.4896429,46.0714286 58.9285714,47.5103571 58.9285714,49.2857143" id="Fill-6526" fill="#C2F9F0"></path>
                        <path d="M16.0714286,49.2857143 C16.0714286,51.0610714 14.6325,52.5 12.8571429,52.5 C11.0817857,52.5 9.64285714,51.0610714 9.64285714,49.2857143 C9.64285714,47.5103571 11.0817857,46.0714286 12.8571429,46.0714286 C14.6325,46.0714286 16.0714286,47.5103571 16.0714286,49.2857143" id="Fill-6527" fill="#0D9681"></path>
                        <path d="M11.7857143,64.2857143 C11.7857143,60.1392857 8.43214286,56.7857143 4.28571429,56.7857143 L4.28571429,41.7857143 C8.43214286,41.7857143 11.7857143,38.4321429 11.7857143,34.2857143 L49.7110714,34.2857143 L53.9967857,30 L2.14285714,30 C0.96,30 0,30.96 0,32.1428571 L0,66.4285714 C0,67.6114286 0.96,68.5714286 2.14285714,68.5714286 L15.4253571,68.5714286 L19.7110714,64.2857143 L11.7857143,64.2857143 Z" id="Fill-6528" fill="#C2F9F0"></path>
                        <path d="M16.0714286,49.2857143 C16.0714286,51.0610714 14.6325,52.5 12.8571429,52.5 C11.0817857,52.5 9.64285714,51.0610714 9.64285714,49.2857143 C9.64285714,47.5103571 11.0817857,46.0714286 12.8571429,46.0714286 C14.6325,46.0714286 16.0714286,47.5103571 16.0714286,49.2857143 M4.28571429,41.7857143 L4.28571429,56.7857143 C8.43214286,56.7857143 11.7857143,60.1392857 11.7857143,64.2857143 L19.7110714,64.2857143 L26.9325,57.0642857 C24.8667857,55.1110714 23.5714286,52.3532143 23.5714286,49.2857143 C23.5714286,43.3682143 28.3682143,38.5714286 34.2857143,38.5714286 C37.3521429,38.5714286 40.1110714,39.8667857 42.0642857,41.9325 L49.7110714,34.2857143 L11.7857143,34.2857143 C11.7857143,38.4321429 8.43214286,41.7857143 4.28571429,41.7857143" id="Fill-6529" fill="#17B198"></path>
                        <path d="M45,49.2857143 C45,55.2032143 40.2032143,60 34.2857143,60 C28.3682143,60 23.5714286,55.2032143 23.5714286,49.2857143 C23.5714286,43.3682143 28.3682143,38.5714286 34.2857143,38.5714286 C40.2032143,38.5714286 45,43.3682143 45,49.2857143" id="Fill-6530" fill="#C2F9F0"></path>
                        <path d="M34.8753214,50.16225 L34.8753214,51.9504643 C35.4796071,51.8604643 35.7881786,51.5776071 35.7881786,51.11475 C35.7881786,50.6904643 35.5696071,50.4065357 34.8753214,50.16225 M33.66675,47.9111786 L33.66675,46.1754643 C33.0485357,46.2654643 32.7774643,46.5740357 32.7774643,46.9854643 C32.7774643,47.3840357 32.9585357,47.6540357 33.66675,47.9111786 M34.2710357,43.7433214 C34.6438929,43.7433214 34.9396071,44.0401071 34.9396071,44.4129643 L34.9396071,44.5929643 C35.6338929,44.6958214 36.2521071,44.9015357 36.8049643,45.2101071 C37.04925,45.3515357 37.2678214,45.5958214 37.2678214,45.9815357 C37.2678214,46.4701071 36.8821071,46.8440357 36.3935357,46.8440357 C36.2381786,46.8440357 36.0838929,46.8054643 35.9435357,46.7283214 C35.5824643,46.5343929 35.2224643,46.3801071 34.8753214,46.2901071 L34.8753214,48.2465357 C36.8306786,48.7726071 37.6663929,49.5708214 37.6663929,51.0118929 C37.6663929,52.4529643 36.5606786,53.3786786 34.9396071,53.5586786 L34.9396071,54.2401071 C34.9396071,54.6129643 34.6438929,54.90975 34.2710357,54.90975 C33.8971071,54.90975 33.6013929,54.6129643 33.6013929,54.2401071 L33.6013929,53.5458214 C32.6885357,53.4301071 31.8271071,53.1086786 31.0674643,52.64475 C30.7974643,52.4776071 30.6303214,52.2204643 30.6303214,51.8733214 C30.6303214,51.3718929 31.0160357,50.9990357 31.5174643,50.9990357 C31.6846071,50.9990357 31.8646071,51.0633214 32.0188929,51.1661786 C32.5599643,51.5133214 33.07425,51.7576071 33.66675,51.8861786 L33.66675,49.8408214 C31.81425,49.3393929 30.9003214,48.63225 30.9003214,47.1011786 C30.9003214,45.6858214 31.9813929,44.7343929 33.6013929,44.56725 L33.6013929,44.4129643 C33.6013929,44.0401071 33.8971071,43.7433214 34.2710357,43.7433214" id="Fill-6531" fill="#17B198"></path>
                        <path d="M31.0667143,52.6464643 C30.7967143,52.4793214 30.6295714,52.2221786 30.6295714,51.8750357 C30.6295714,51.3746786 31.0152857,51.0018214 31.5156429,51.0018214 C31.6838571,51.0018214 31.8638571,51.0650357 32.0170714,51.1689643 C32.1927857,51.2814643 32.3663571,51.3650357 32.5399286,51.4561071 L33.6617143,50.3343214 L33.6617143,49.8446786 C31.8113571,49.34325 30.8995714,48.6371786 30.8995714,47.10825 C30.8995714,45.6939643 31.9795714,44.7436071 33.5985,44.5764643 L33.5985,44.4221786 C33.5985,44.0493214 33.8931429,43.7536071 34.266,43.7536071 C34.6388571,43.7536071 34.9345714,44.0493214 34.9345714,44.4221786 L34.9345714,44.6021786 C35.6277857,44.7050357 36.2449286,44.91075 36.7977857,45.21825 C37.0420714,45.3596786 37.2606429,45.6039643 37.2606429,45.9896786 C37.2606429,46.47825 36.8749286,46.8511071 36.3863571,46.8511071 C36.2320714,46.8511071 36.0777857,46.8125357 35.9363571,46.7353929 C35.5763571,46.5425357 35.2174286,46.38825 34.8702857,46.29825 L34.8702857,48.2514643 C35.1092143,48.31575 35.331,48.3853929 35.5377857,48.45825 L42.0638571,41.9321786 C40.1106429,39.8675357 37.3527857,38.5711071 34.2852857,38.5711071 C28.3677857,38.5711071 23.571,43.3678929 23.571,49.2853929 C23.571,52.3528929 24.8663571,55.11075 26.9320714,57.0639643 L31.2499286,52.7461071 C31.1899286,52.7118214 31.1256429,52.6828929 31.0667143,52.6464643" id="Fill-6532" fill="#FFFFFF"></path>
                        <path d="M9.64285714,49.2857143 C9.64285714,51.0610714 11.0817857,52.5 12.8571429,52.5 C14.6325,52.5 16.0714286,51.0610714 16.0714286,49.2857143 C16.0714286,47.5103571 14.6325,46.0714286 12.8571429,46.0714286 C11.0817857,46.0714286 9.64285714,47.5103571 9.64285714,49.2857143" id="Fill-6533" fill="#FFFFFF"></path>
                        <path d="M33.6621429,46.1891786 L33.6621429,47.9163214 C32.9539286,47.6656071 32.7760714,47.3848929 32.7760714,46.9863214 C32.7760714,46.58775 33.0417857,46.2770357 33.6621429,46.1891786" id="Fill-6534" fill="#FFFFFF"></path>
                    </g>
                </g>
            </g>
        </g>
    </g>
</svg>