<?xml version="1.0" encoding="UTF-8" standalone="no"?>
<svg width="150px" height="150px" viewBox="0 0 150 150" version="1.1" xmlns="http://www.w3.org/2000/svg" xmlns:xlink="http://www.w3.org/1999/xlink">
    <!-- Generator: Sketch 39.1 (31720) - http://www.bohemiancoding.com/sketch -->
    <title>assets/img_handshake_no_bg</title>
    <desc>Created with Sketch.</desc>
    <defs></defs>
    <g id="Freshness" stroke="none" stroke-width="1" fill="none" fill-rule="evenodd">
        <g id="assets/img_handshake_no_bg">
            <g id="Group" transform="translate(99.155140, 74.813965) scale(-1, 1) rotate(53.000000) translate(-99.155140, -74.813965) translate(42.779301, 45.788965)">
                <path d="M35.5008326,8.08680359 C35.5008326,6.73989565 35.8491627,5.41133081 36.5141565,4.23737213 C39.2189923,-0.537075867 67.1672033,0.0630056871 67.1672033,0.0630056871 L111.919702,0.0630056871 C115.297448,0.0630056871 106.127395,57.736346 102.749648,57.736346 L55.3266195,57.736346 C50.4605539,57.736346 45.7950419,55.8181814 42.3566019,52.4011231 L37.8203943,47.8965808 C36.3347137,46.4238916 35.5008326,44.4218727 35.5008326,42.3386202 L35.5008326,8.08680359 Z" id="Fill-3653" fill="#BF8662"></path>
                <path d="M36.5141565,4.23789622 C33.1843133,8.35927512 0.233722657,23.0062195 0.233722657,23.0062195 L20.7045677,54.3794178 C20.7045677,54.3794178 36.3347137,46.4217952 37.8203943,47.8971049 L40.4355087,50.4939644 L91.2204507,0.0635297758 L67.1672033,0.0635297758 C67.1672033,0.0635297758 40.1007021,-0.201205822 36.5141565,4.23789622 Z" id="Fill-3654" fill="#CC9978"></path>
            </g>
            <g id="Group" transform="translate(70.685248, 78.010220) rotate(36.000000) translate(-70.685248, -78.010220) translate(10.014107, 43.072720)">
                <path d="M34.8330077,20.1664089 C34.8330077,18.8195009 35.1813378,17.4909361 35.8463316,16.3169774 C38.5511674,11.5425294 47.0984486,-0.000524088695 66.4993784,-0.000524088695 L66.4993784,12.142611 L111.251877,12.142611 C114.629623,12.142611 117.366125,14.8600108 117.366125,18.211558 C117.366125,21.5657257 114.629623,24.2831255 111.251877,24.2831255 L82.2138148,24.2831255 C81.3693783,24.2831255 80.6859125,24.9644408 80.6859125,25.8003623 C80.6859125,26.6389042 81.3693783,27.3202195 82.2138148,27.3202195 L114.31032,27.3202195 C117.685428,27.3202195 120.424569,30.0376194 120.424569,33.3891666 C120.424569,36.7433342 117.685428,39.4607341 114.31032,39.4607341 L82.2138148,39.4607341 C81.3693783,39.4607341 80.6859125,40.1420494 80.6859125,40.9779709 C80.6859125,41.8165128 81.3693783,42.4952077 82.2138148,42.4952077 L111.251877,42.4952077 C114.629623,42.4952077 117.366125,45.215228 117.366125,48.5667752 C117.366125,51.9209428 114.629623,54.6383427 111.251877,54.6383427 L85.2696196,54.6383427 C84.4251831,54.6383427 83.7417172,55.3170376 83.7417172,56.1555795 C83.7417172,56.9941214 84.4251831,57.6728162 85.2696196,57.6728162 L102.081824,57.6728162 C105.45957,57.6728162 108.196072,60.3928366 108.196072,63.7443838 C108.196072,67.0985514 105.45957,69.8159513 102.081824,69.8159513 L54.6587946,69.8159513 C49.792729,69.8159513 45.1272171,67.8977867 41.688777,64.4807284 L37.1525694,59.976186 C35.6668888,58.5034968 34.8330077,56.501478 34.8330077,54.4182254 L34.8330077,20.1664089 Z" id="Fill-3653" fill="#FBC8C8"></path>
                <path d="M66.4993784,-4.04565467e-11 C47.0984486,-4.04565467e-11 38.5511674,11.5430535 35.8463316,16.3175015 C35.1813378,17.4888397 34.8330077,18.820025 34.8330077,20.1669329 L0.838506643,33.0821094 L10.6465755,65.20372 L39.7676838,62.5735696 L90.5526258,12.143135 L66.4993784,12.143135 L66.4993784,-4.04565467e-11 Z" id="Fill-3654" fill="#FBD7D7"></path>
            </g>
            <g id="Group" transform="translate(63.018595, 106.514859) scale(-1, 1) rotate(66.000000) translate(-63.018595, -106.514859) translate(46.374300, 76.952359)">
                <rect id="Rectangle-247" fill="#BF8662" x="12.1915527" y="46.5927632" width="20.8998046" height="12.0796053" rx="6.03980263"></rect>
                <path d="M19.5455528,48.3184211 L18.239315,48.3184211 C16.3194556,48.3184211 14.7560142,49.8794656 14.7560142,51.8051117 L14.7560142,52.9423222 C14.7560142,54.8652092 16.3155411,56.4290128 18.239315,56.4290128 L19.5455528,56.4290128 L19.5455528,48.3184211 Z" id="Combined-Shape" fill="#FFFFFF"></path>
                <rect id="Rectangle-247" fill="#BF8662" x="3.48330077" y="31.0618421" width="29.6080566" height="12.0796053" rx="6.03980263"></rect>
                <path d="M10.9243621,32.7875 L9.57011028,32.7875 C7.65025087,32.7875 6.0868095,34.3485446 6.0868095,36.2741906 L6.0868095,37.4114011 C6.0868095,39.3342881 7.64633638,40.8980918 9.57011028,40.8980918 L10.9243621,40.8980918 L10.9243621,32.7875 Z" id="Combined-Shape" fill="#FFFFFF"></path>
                <rect id="Rectangle-247" fill="#BF8662" x="-6.37104091e-13" y="15.5309211" width="33.0913573" height="12.0796053" rx="6.03980263"></rect>
                <path d="M7.26693883,17.2565789 L5.91268699,17.2565789 C3.99282758,17.2565789 2.42938621,18.8176235 2.42938621,20.7432696 L2.42938621,21.8804801 C2.42938621,23.803367 3.98891309,25.3671707 5.91268699,25.3671707 L7.26693883,25.3671707 L7.26693883,17.2565789 Z" id="Combined-Shape" fill="#FFFFFF"></path>
                <rect id="Rectangle-247" fill="#BF8662" x="3.48330077" y="5.50244295e-13" width="29.6080566" height="12.0796053" rx="6.03980263"></rect>
                <path d="M10.4018883,1.72565789 L9.04763642,1.72565789 C7.12777702,1.72565789 5.56433565,3.28670246 5.56433565,5.21234853 L5.56433565,6.34955904 C5.56433565,8.272446 7.12386253,9.83624967 9.04763642,9.83624967 L10.4018883,9.83624967 L10.4018883,1.72565789 Z" id="Combined-Shape" fill="#FFFFFF"></path>
            </g>
            <g id="Group" transform="translate(80.116915, 65.555772) rotate(-48.000000) translate(-80.116915, -65.555772) translate(55.418928, 49.430772)">
                <path d="M47.7684881,24.3636948 C49.3262751,19.4433609 41.8510067,8.1355096 41.8510067,8.1355096 L11.3339167,2.58443048 C7.60397764,1.13851791 3.37768251,2.9140581 1.89484481,6.5460287 C0.41200711,10.1800216 2.23544059,14.2953112 5.96537968,15.7392015 L35.0206244,29.7095519 C35.0206244,29.7095519 47.049481,26.6347084 47.7684881,24.3636948 Z" id="Fill-7241" fill="#CC9978" transform="translate(24.680543, 15.895300) rotate(4.000000) translate(-24.680543, -15.895300) "></path>
                <path d="M10.9589645,3.82333383 C8.8759306,3.10745544 6.5623715,3.94466915 5.46581925,5.81323309 C4.80747254,6.93356255 4.68286433,8.27836236 5.11899306,9.49576007 C5.5571986,10.7131578 6.51875863,11.6858626 7.75237991,12.1631149 L8.85516257,12.5898108 L12.4854151,4.34912022 L10.9589645,3.82333383 Z" id="Fill-7243" fill="#FFFFFF"></path>
            </g>
            <rect id="Rectangle-259" fill="#FFFFFF" transform="translate(138.011874, 53.937215) rotate(-4.000000) translate(-138.011874, -53.937215) " x="129.303622" y="31.5036621" width="17.4165039" height="44.8671053" rx="1.73011628"></rect>
            <rect id="Rectangle-259" fill="#FFFFFF" transform="translate(18.711071, 54.667352) rotate(30.000000) translate(-18.711071, -54.667352) " x="10.0028192" y="32.2337989" width="17.4165039" height="44.8671053" rx="1.73011628"></rect>
        </g>
    </g>
</svg>