<?xml version="1.0" encoding="UTF-8"?>
<svg width="80px" height="80px" viewBox="0 0 80 80" version="1.1" xmlns="http://www.w3.org/2000/svg" xmlns:xlink="http://www.w3.org/1999/xlink">
    <!-- Generator: Sketch 49.1 (51147) - http://www.bohemiancoding.com/sketch -->
    <title>assets/img_domain_sprint</title>
    <desc>Created with Sketch.</desc>
    <defs></defs>
    <g id="Freshness" stroke="none" stroke-width="1" fill="none" fill-rule="evenodd">
        <g id="Freeform-Icons" transform="translate(-80.000000, -1300.000000)">
            <g id="assets/img_domain_sprint" transform="translate(80.000000, 1300.000000)">
                <circle id="Oval-11" fill="#353167" cx="40" cy="40" r="40"></circle>
                <g id="logo" transform="translate(22.000000, 18.000000)">
                    <g id="Group" transform="translate(4.500000, 0.000000)" fill="#FFDD05">
                        <path d="M14.4496634,31.3302439 C18.7141188,25.8109756 22.0685569,19.3269512 22.0685569,14.6703659 C22.0685569,12.2367073 20.3347574,10.5380488 18.0740866,9.24731707 C18.1184777,14.307439 16.3752178,26.1728049 14.4496634,31.3302439" id="path15"></path>
                        <path d="M0.465378713,44.930122 C10.4602871,41.5682927 24.9496114,33.7357317 35.0267525,26.7380488 C35.8723663,26.1530488 36.5313193,25.6093902 36.5313193,24.6585366 C36.5313193,23.0052439 33.5200025,20.7892683 32.0587351,19.9068293 C24.1294678,28.1945122 8.34843564,40.6126829 0.465378713,44.930122" id="path17"></path>
                        <path d="M9.73693069,37.8903659 C15.9000149,33.6065854 24.853552,25.5464634 27.8837896,21.1609756 C28.5980495,20.1292683 29.1267401,19.5314634 29.1267401,18.4518293 C29.1267401,16.6814634 27.0734703,15.3852439 25.5961931,14.4826829 C22.0572772,22.8695122 14.1058144,33.3128049 9.73693069,37.8903659" id="path19"></path>
                        <path d="M15.3520396,26.007439 C16.1492599,20.7113415 15.6806064,14.3176829 14.6628861,10.307561 C14.1098168,8.12378049 12.1518787,5.65902439 10.3402129,4.88853659 C12.7147723,11.664878 14.7531238,21.3146341 15.3520396,26.007439" id="path21"></path>
                        <path d="M13.5967723,18.5776829 C11.7294356,13.5032927 7.07601238,2.92573171 0.230324257,0.305121951 C4.68653465,5.25036585 11.297896,15.0629268 13.5967723,18.5776829" id="path23"></path>
                    </g>
                    <rect id="Rectangle-261" x="0" y="0" width="45" height="45"></rect>
                </g>
            </g>
        </g>
    </g>
</svg>