<?xml version="1.0" encoding="UTF-8" standalone="no"?>
<svg width="200px" height="200px" viewBox="0 0 200 200" version="1.1" xmlns="http://www.w3.org/2000/svg" xmlns:xlink="http://www.w3.org/1999/xlink">
    <!-- Generator: Sketch 39.1 (31720) - http://www.bohemiancoding.com/sketch -->
    <title>assets/img_imposters</title>
    <desc>Created with Sketch.</desc>
    <defs></defs>
    <g id="Freshness" stroke="none" stroke-width="1" fill="none" fill-rule="evenodd">
        <g id="Circular-Icons" transform="translate(-750.000000, -1250.000000)">
            <g id="assets/img_imposters" transform="translate(750.000000, 1250.000000)">
                <circle id="background" fill="#3B2469" cx="100" cy="100" r="100"></circle>
                <g id="Group" transform="translate(40.000000, 45.000000)">
                    <path d="M112.5,90.3050847 C111.346875,87.7972373 109.31625,85.8011186 106.794375,84.6948814 L88.389375,79.7337458 C103.53,61.6031186 113.506875,39.4407458 88.029375,13.4516949 C78.654375,3.88876271 59.904375,0 59.904375,0 C59.904375,0 41.154375,3.88876271 31.779375,13.4516949 C6.5175,39.2243898 16.535625,61.4902373 31.640625,79.7262203 L13.205625,84.6948814 C10.68375,85.8011186 8.653125,87.7972373 7.5,90.3050847 L0,111 L60,111 L120,111 L112.5,90.3050847 Z" id="Fill-3202" fill="#666666"></path>
                    <path d="M80.52975,24.9279661 C74.90475,19.1898305 69.27975,21.1031695 59.90475,21.1031695 C50.52975,21.1031695 44.90475,19.1898305 39.27975,24.9279661 C30.2085,34.1823559 34.376625,56.081339 42.99225,74.0877966 C50.55225,81.944339 60.000375,84.6610169 60.000375,84.6610169 C60.000375,84.6610169 69.141,82.0346441 76.635375,74.4734746 C85.37475,56.3955254 89.666625,34.2482034 80.52975,24.9279661" id="Fill-3203" fill="#E2E4E5"></path>
                    <path d="M39.27975,24.9279661 C30.17475,34.2162203 34.406625,56.2487797 43.08975,74.2947458 C50.616,81.9970169 59.90475,84.6610169 59.90475,84.6610169 L59.90475,21.1031695 C50.52975,21.1031695 44.90475,19.1898305 39.27975,24.9279661" id="Fill-3204" fill="#FFFFFF"></path>
                    <polygon id="Fill-3205" fill="#3E3E3F" points="59.9053125 82.779661 56.1553125 69.6101695 63.6553125 69.6101695"></polygon>
                    <path d="M78.75,54.559322 L73.125,58.3220339 L63.75,54.559322 L61.875,54.559322 L58.125,54.559322 L56.25,54.559322 L46.875,58.3220339 L41.25,54.559322 L39.375,54.559322 L43.3125,59.8271186 C44.375625,61.2475424 46.0425,62.0847458 47.8125,62.0847458 L56.25,62.0847458 L60,57.0671695 L63.75,62.0847458 L72.1875,62.0847458 C73.9575,62.0847458 75.624375,61.2475424 76.6875,59.8271186 L80.625,54.559322 L78.75,54.559322 Z" id="Fill-3206" fill="#3E3E3F"></path>
                    <path d="M58.0303125,43.2711864 C52.4053125,31.9830508 39.2803125,43.2711864 39.2803125,43.2711864 L58.0303125,43.2711864 Z" id="Fill-3207" fill="#3E3E3F"></path>
                    <path d="M61.7803125,43.2711864 C67.4053125,31.9830508 80.5303125,43.2711864 80.5303125,43.2711864 L61.7803125,43.2711864 Z" id="Fill-3208" fill="#3E3E3F"></path>
                    <path d="M41.1553125,28.220339 C44.9053125,26.3389831 58.0303125,34.1259153 58.0303125,34.1259153 C58.0303125,34.1259153 46.7803125,18.8135593 41.1553125,28.220339" id="Fill-3209" fill="#3E3E3F"></path>
                    <path d="M78.6553125,28.220339 C74.9053125,26.3389831 61.7803125,34.1259153 61.7803125,34.1259153 C61.7803125,34.1259153 73.0303125,18.8135593 78.6553125,28.220339" id="Fill-3210" fill="#3E3E3F"></path>
                    <path d="M60,84.6610169 C60,84.6610169 50.701875,81.9932542 43.171875,74.2815763 C47.930625,84.1737458 54.024375,92.8693729 60,97.6103898 C65.9775,92.8693729 72.07125,84.1737458 76.828125,74.2815763 C69.298125,81.9932542 60,84.6610169 60,84.6610169" id="Fill-3211" fill="#F8B4B4"></path>
                    <path d="M43.172625,74.2813881 C47.931375,84.1735576 54.025125,92.8691847 60.00075,97.6102017 L60.00075,84.6608288 C60.00075,84.6608288 50.702625,81.9930661 43.172625,74.2813881" id="Fill-3212" fill="#FBC8C8"></path>
                </g>
            </g>
        </g>
    </g>
</svg>