<?xml version="1.0" encoding="UTF-8"?>
<svg width="200px" height="200px" viewBox="0 0 200 200" version="1.1" xmlns="http://www.w3.org/2000/svg" xmlns:xlink="http://www.w3.org/1999/xlink">
    <!-- Generator: Sketch 48.2 (47327) - http://www.bohemiancoding.com/sketch -->
    <title>assets/img_generic_person_inverted</title>
    <desc>Created with Sketch.</desc>
    <defs></defs>
    <g id="Circular-Icons" stroke="none" stroke-width="1" fill="none" fill-rule="evenodd" transform="translate(-250.000000, -4000.000000)">
        <g id="assets/img_generic_person_inverted" transform="translate(250.000000, 4000.000000)">
            <path d="M100,200 C155.228475,200 200,155.228475 200,100 C200,44.771525 155.228475,-2.27373675e-13 100,-2.27373675e-13 C44.771525,-2.27373675e-13 0,44.771525 0,100 C0,155.228475 44.771525,200 100,200 Z" id="background" fill="#8B88AA"></path>
            <g id="person-active" transform="translate(40.000000, 45.000000)" fill="#FFFFFF">
                <path d="M86.16,40.09494 C87.2285714,39.20574 88.2114286,37.42734 89.1028571,34.75404 C90.1771429,29.41314 89.2857143,25.49154 86.4285714,23.00064 C86.4285714,7.53084 73.5771429,0.00114 61,0.00114 C48.4228571,0.00114 35.5714286,7.53084 35.5714286,23.00064 C32.7142857,25.49154 31.8228571,29.41314 32.8971429,34.75404 C33.7885714,37.42734 34.7714286,39.20574 35.84,40.09494 C36.3771429,46.68414 40.2171429,68.02494 61,68.02494 C81.7828571,68.02494 85.6228571,46.68414 86.16,40.09494 Z" id="Fill-1"></path>
                <path d="M115.844,86.33163 C114.124,83.05983 110.724,80.17563 105.649714,77.67903 C101.455429,75.62133 86.5354286,68.37663 81.9697143,66.15933 C76.7868571,70.75353 69.9068571,73.72323 61.0154286,73.72323 L61.004,73.72323 L60.9982857,73.72323 L60.9982857,73.72323 C52.1125714,73.72323 45.244,70.76493 40.0611429,66.18213 C36.4497143,68.04033 26.6097143,73.07343 23.8497143,74.17353 C20.3354286,75.57573 16.8211429,77.37123 13.3068571,79.55433 C9.78685714,81.73173 7.404,83.99463 6.15828571,86.33163 C2.71828571,93.18873 0.998285714,100.27953 0.998285714,107.60403 C0.998285714,109.31973 1.86114286,110.18043 3.58114286,110.18043 L118.421143,110.18043 C120.141143,110.18043 120.998286,109.31973 120.998286,107.60403 C120.998286,100.27953 119.284,93.18873 115.844,86.33163" id="Fill-3"></path>
            </g>
        </g>
    </g>
</svg>