<?xml version="1.0" encoding="UTF-8"?>
<svg width="60px" height="60px" viewBox="0 0 60 60" version="1.1" xmlns="http://www.w3.org/2000/svg" xmlns:xlink="http://www.w3.org/1999/xlink">
    <!-- Generator: Sketch 63.1 (92452) - https://sketch.com -->
    <title>Free premium_no circle</title>
    <desc>Created with Sketch.</desc>
    <defs>
        <polygon id="path-1" points="0 56.9488 60 56.9488 60 -0.0002 0 -0.0002"></polygon>
    </defs>
    <g id="Free-premium_no-circle" stroke="none" stroke-width="1" fill="none" fill-rule="evenodd">
        <g id="Group-33" transform="translate(0.000000, 2.000000)">
            <path d="M9.3715,26.7969 L9.3715,53.1769 C9.3715,55.2579 11.0505,56.9449 13.1215,56.9449 L46.8715,56.9449 C48.9425,56.9449 50.6215,55.2579 50.6215,53.1769 L50.6215,26.7969 L9.3715,26.7969 Z" id="Fill-1" fill="#DC0015"></path>
            <mask id="mask-2" fill="white">
                <use xlink:href="#path-1"></use>
            </mask>
            <g id="Clip-4"></g>
            <polygon id="Fill-3" fill="#F2DA3E" mask="url(#mask-2)" points="26.25 56.9488 33.75 56.9488 33.75 26.7988 26.25 26.7988"></polygon>
            <path d="M56.2465,24.9122 C56.2465,25.9532 55.4075,26.7972 54.3715,26.7972 L5.6215,26.7972 C4.5855,26.7972 3.7465,25.9532 3.7465,24.9122 L3.7465,17.3752 C3.7465,16.3342 4.5855,15.4902 5.6215,15.4902 L54.3715,15.4902 C55.4075,15.4902 56.2465,16.3342 56.2465,17.3752 L56.2465,24.9122 Z" id="Fill-5" fill="#DF2C2C" mask="url(#mask-2)"></path>
            <path d="M47.809,0.4161 C47.809,4.2231 40.093,8.3871 30.062,8.8951 C34.609,4.1091 39.212,-1.5999 47.809,0.4161" id="Fill-6" fill="#E1C618" mask="url(#mask-2)"></path>
            <path d="M12.184,0.4161 C12.184,4.2231 19.9,8.3871 29.931,8.8951 C25.384,4.1091 20.781,-1.5999 12.184,0.4161" id="Fill-7" fill="#E1C618" mask="url(#mask-2)"></path>
            <path d="M59.9999,38.0987 L54.3699,36.2187 L50.6199,40.9287 C48.7299,35.0687 45.1699,29.6387 40.6799,24.8187 C40.4199,24.5287 40.1499,24.2487 39.8699,23.9687 C39.5999,23.6787 39.3299,23.3987 39.0499,23.1287 C38.7699,22.8487 38.4899,22.5787 38.1999,22.3087 C37.9199,22.0187 37.6299,21.7487 37.3399,21.4987 C36.7599,20.9387 36.1699,20.4097 35.5699,19.9097 C35.2799,19.6387 34.9799,19.3787 34.6699,19.1387 C34.3699,18.8697 34.0599,18.6087 33.7499,18.3587 L33.7499,15.2287 C34.0499,15.3087 34.3499,15.3887 34.6499,15.4787 C35.6499,15.7687 36.6199,16.0787 37.5599,16.4097 C38.5099,16.7387 39.4399,17.0987 40.3399,17.4787 C41.1999,17.8387 42.0399,18.2287 42.8499,18.6287 C42.9299,18.6687 43.0199,18.7187 43.0999,18.7587 C43.4599,18.9387 43.8099,19.1287 44.1599,19.3187 C44.4399,19.4687 44.7199,19.6287 44.9899,19.7887 C45.1399,19.8697 45.2899,19.9587 45.4299,20.0587 C52.3499,24.1887 57.2599,30.1597 59.9999,38.0987" id="Fill-8" fill="#F2DA3E" mask="url(#mask-2)"></path>
            <path d="M37.5599,16.4092 C38.5099,16.7382 39.4399,17.0892 40.3399,17.4782 C39.4399,17.0982 38.5099,16.7382 37.5599,16.4092" id="Fill-9" fill="#F2DA3E" mask="url(#mask-2)"></path>
            <path d="M44.9901,19.7891 C45.1401,19.8691 45.2901,19.9591 45.4401,20.0491 L45.4301,20.0591 C45.2901,19.9591 45.1401,19.8691 44.9901,19.7891" id="Fill-10" fill="#F2DA3E" mask="url(#mask-2)"></path>
            <path d="M47.8099,0.419 L47.8099,12.669 C47.0099,15.068 42.8099,15.429 34.6499,15.479 C34.3499,15.389 34.0499,15.309 33.7499,15.229 L33.7499,18.358 C34.0599,18.608 34.3699,18.869 34.6699,19.139 C34.3599,18.879 34.0599,18.629 33.7499,18.379 L33.7499,30.108 L26.2499,30.108 L26.2499,18.358 C18.5799,24.589 12.1599,32.289 9.3699,40.929 L5.6199,36.219 L-0.0001,38.099 C3.9899,26.499 12.6399,19.119 25.3999,15.479 C17.1999,15.429 12.9799,15.079 12.1799,12.669 L12.1799,0.419 C12.1799,4.219 19.8999,8.389 29.9299,8.898 C29.9899,8.988 29.9999,8.988 30.0599,8.898 C40.0899,8.389 47.8099,4.219 47.8099,0.419" id="Fill-11" fill="#F2DA3E" mask="url(#mask-2)"></path>
            <path d="M50.62,26.7989 L50.62,53.1789 C50.62,55.2589 48.94,56.9489 46.87,56.9489 L13.12,56.9489 C11.58,56.9489 10.26,56.0189 9.68,54.6789 L26.25,38.1089 L26.25,26.7989 L33.75,26.7989 L33.75,30.6089 L37.56,26.7989 L50.62,26.7989 Z" id="Fill-12" fill="#DC0015" mask="url(#mask-2)"></path>
            <polygon id="Fill-13" fill="#F2DA3E" mask="url(#mask-2)" points="26.25 56.9488 33.75 56.9488 33.75 26.7988 26.25 26.7988"></polygon>
            <path d="M26.2499,18.3585 L26.2499,26.7985 L17.5599,26.7985 C20.1299,23.7585 23.0899,20.9385 26.2499,18.3585" id="Fill-14" fill="#DF2C2C" mask="url(#mask-2)"></path>
            <path d="M42.4398,26.7989 L37.5598,26.7989 L40.1198,24.2379 C40.3198,24.4289 40.4998,24.6189 40.6798,24.8189 C41.2798,25.4689 41.8698,26.1289 42.4398,26.7989" id="Fill-15" fill="#DF2C2C" mask="url(#mask-2)"></path>
            <path d="M56.2499,17.379 L56.2499,24.909 C56.2499,25.949 55.4099,26.799 54.3699,26.799 L42.4399,26.799 C41.8699,26.129 41.2799,25.469 40.6799,24.818 C40.4999,24.619 40.3199,24.429 40.1199,24.238 C40.0499,24.149 39.9599,24.059 39.8699,23.969 C39.5999,23.679 39.3299,23.399 39.0499,23.129 C38.7699,22.849 38.4899,22.579 38.1999,22.309 C37.9199,22.019 37.6299,21.749 37.3399,21.499 C36.7599,20.939 36.1699,20.409 35.5699,19.909 C35.2799,19.639 34.9799,19.379 34.6699,19.139 C34.3699,18.869 34.0599,18.608 33.7499,18.358 L33.7499,15.488 L34.6799,15.488 C35.6699,15.778 36.6299,16.079 37.5599,16.409 C38.5099,16.738 39.4399,17.089 40.3399,17.479 C41.1999,17.839 42.0399,18.229 42.8499,18.629 C42.9299,18.669 43.0199,18.719 43.0999,18.759 C43.4599,18.939 43.8099,19.129 44.1599,19.318 C44.3499,19.419 44.5399,19.528 44.7199,19.639 L48.8699,15.488 L54.3699,15.488 C55.4099,15.488 56.2499,16.339 56.2499,17.379" id="Fill-16" fill="#DF2C2C" mask="url(#mask-2)"></path>
            <path d="M47.809,0.4161 C47.809,4.2231 40.093,8.3871 30.062,8.8951 C34.609,4.1091 39.212,-1.5999 47.809,0.4161" id="Fill-17" fill="#E1C618" mask="url(#mask-2)"></path>
            <path d="M12.184,0.4161 C12.184,4.2231 19.9,8.3871 29.931,8.8951 C25.384,4.1091 20.781,-1.5999 12.184,0.4161" id="Fill-18" fill="#E1C618" mask="url(#mask-2)"></path>
            <path d="M59.9999,38.0987 L54.3699,36.2187 L50.6199,40.9287 C48.9799,35.8587 46.0999,31.1087 42.4399,26.7987 C41.8699,26.1287 41.2799,25.4687 40.6799,24.8187 C40.4999,24.6197 40.3199,24.4287 40.1199,24.2387 L44.7199,19.6387 C44.8099,19.6887 44.8999,19.7387 44.9899,19.7887 C45.1399,19.8697 45.2899,19.9587 45.4299,20.0587 C48.5599,21.9187 51.2799,24.1687 53.5499,26.7987 C56.3499,29.9887 58.4999,33.7487 59.9999,38.0987" id="Fill-19" fill="#F3B607" mask="url(#mask-2)"></path>
            <path d="M40.3402,17.4786 C39.4402,17.0986 38.5102,16.7386 37.5602,16.4096 C38.5102,16.7386 39.4402,17.0886 40.3402,17.4786" id="Fill-20" fill="#F2DA3E" mask="url(#mask-2)"></path>
            <path d="M44.9901,19.7891 C45.1401,19.8691 45.2901,19.9591 45.4401,20.0491 L45.4301,20.0591 C45.2901,19.9591 45.1401,19.8691 44.9901,19.7891" id="Fill-21" fill="#F2DA3E" mask="url(#mask-2)"></path>
            <polygon id="Fill-22" fill="#F2DA3E" mask="url(#mask-2)" points="26.25 30.1088 33.75 30.1088 33.75 26.7988 26.25 26.7988"></polygon>
            <path d="M47.8099,0.419 L47.8099,12.669 C47.0099,15.068 42.8099,15.429 34.6499,15.479 C34.3499,15.389 34.0499,15.309 33.7499,15.229 L33.7499,15.488 L25.3699,15.488 C25.3799,15.488 25.3899,15.479 25.3999,15.479 C17.1999,15.429 12.9799,15.079 12.1799,12.669 L12.1799,0.419 C12.1799,4.219 19.8999,8.389 29.9299,8.898 C29.9899,8.988 29.9999,8.988 30.0599,8.898 C40.0899,8.389 47.8099,4.219 47.8099,0.419" id="Fill-23" fill="#F2DA3E" mask="url(#mask-2)"></path>
            <path d="M26.2499,26.7989 L26.2499,38.1089 L9.6799,54.6789 C9.4799,54.2189 9.3699,53.7089 9.3699,53.1789 L9.3699,40.9289 C11.0099,35.8589 13.8999,31.1089 17.5599,26.7989 L26.2499,26.7989 Z" id="Fill-24" fill="#DF2C2C" mask="url(#mask-2)"></path>
            <path d="M34.6703,19.1387 C34.3593,18.8787 34.0603,18.6287 33.7503,18.3787 L33.7503,26.7987 L26.2503,26.7987 L26.2503,18.3587 C23.0903,20.9387 20.1303,23.7587 17.5603,26.7987 C13.8993,31.1087 11.0103,35.8587 9.3703,40.9287 L5.6203,36.2187 L0.0003,38.0987 C1.5003,33.7487 3.6493,29.9987 6.4303,26.7987 C11.0503,21.4987 17.4103,17.7587 25.3703,15.4887 L33.7503,15.4887 L33.7503,18.3587 C34.0603,18.6087 34.3703,18.8687 34.6703,19.1387" id="Fill-25" fill="#FBE158" mask="url(#mask-2)"></path>
            <path d="M26.2499,18.3585 L26.2499,26.7985 L17.5599,26.7985 C20.1299,23.7585 23.0899,20.9385 26.2499,18.3585" id="Fill-26" fill="#FA5655" mask="url(#mask-2)"></path>
            <path d="M25.37,15.4883 C17.41,17.7593 11.05,21.4993 6.43,26.7993 L5.62,26.7993 C4.59,26.7993 3.75,25.9493 3.75,24.9093 L3.75,17.3793 C3.75,16.3393 4.59,15.4883 5.62,15.4883 L25.37,15.4883 Z" id="Fill-27" fill="#FA5655" mask="url(#mask-2)"></path>
            <path d="M40.12,24.2383 L37.56,26.7993 L33.75,26.7993 L33.75,18.3793 C34.06,18.6293 34.36,18.8793 34.67,19.1383 C34.98,19.3793 35.28,19.6383 35.57,19.9093 C36.17,20.4093 36.76,20.9383 37.34,21.4993 C37.63,21.7493 37.92,22.0183 38.2,22.3083 C38.49,22.5793 38.77,22.8483 39.05,23.1293 C39.33,23.3983 39.6,23.6783 39.87,23.9683 C39.96,24.0583 40.05,24.1483 40.12,24.2383" id="Fill-28" fill="#FA5655" mask="url(#mask-2)"></path>
            <polygon id="Fill-29" fill="#DF2C2C" mask="url(#mask-2)" points="37.5599 26.7989 33.7499 30.6089 33.7499 26.7989"></polygon>
            <polygon id="Fill-30" fill="#FBE158" mask="url(#mask-2)" points="33.7499 26.7989 33.7499 30.6089 26.2499 38.1089 26.2499 26.7989"></polygon>
            <path d="M48.87,15.4883 L44.72,19.6383 C44.54,19.5283 44.35,19.4193 44.16,19.3183 C43.81,19.1293 43.46,18.9383 43.1,18.7593 C43.02,18.7183 42.93,18.6693 42.85,18.6293 C42.04,18.2283 41.2,17.8393 40.34,17.4783 C39.44,17.0893 38.51,16.7383 37.56,16.4093 C36.63,16.0793 35.67,15.7783 34.68,15.4883 L48.87,15.4883 Z" id="Fill-31" fill="#FA5655" mask="url(#mask-2)"></path>
            <path d="M44.7201,19.6387 L40.1201,24.2387 C40.0501,24.1487 39.9601,24.0587 39.8701,23.9687 C39.6001,23.6787 39.3301,23.3987 39.0501,23.1287 C38.7701,22.8487 38.4901,22.5787 38.2001,22.3087 C38.0001,22.1087 37.8001,21.9187 37.6001,21.7387 C37.5201,21.6487 37.4301,21.5787 37.3401,21.4987 C36.7601,20.9387 36.1701,20.4097 35.5701,19.9097 C35.2801,19.6387 34.9801,19.3787 34.6701,19.1387 C34.3701,18.8687 34.0601,18.6087 33.7501,18.3587 L33.7501,15.2287 C34.0501,15.3087 34.3501,15.3887 34.6501,15.4787 C34.6601,15.4787 34.6701,15.4887 34.6801,15.4887 C35.6701,15.7787 36.6301,16.0787 37.5601,16.4097 C38.5101,16.7387 39.4401,17.0987 40.3401,17.4787 C40.9701,17.7387 41.5801,18.0187 42.1801,18.3087 C42.4101,18.4097 42.6301,18.5187 42.8501,18.6287 C42.9301,18.6687 43.0201,18.7187 43.1001,18.7587 C43.4601,18.9387 43.8101,19.1287 44.1601,19.3187 C44.3501,19.4187 44.5401,19.5287 44.7201,19.6387" id="Fill-32" fill="#FBE158" mask="url(#mask-2)"></path>
        </g>
    </g>
</svg>