<?xml version="1.0" encoding="UTF-8"?>
<svg width="143px" height="188px" viewBox="0 0 143 188" version="1.1" xmlns="http://www.w3.org/2000/svg" xmlns:xlink="http://www.w3.org/1999/xlink">
    <title>Tire pressure infographic Copy 4</title>
    <g id="Bumper-connect-on-My-Bumper-Copy" stroke="none" stroke-width="1" fill="none" fill-rule="evenodd">
        <g id="My-bumper-v2_992" transform="translate(-103.000000, -869.000000)">
            <g id="Tire-pressure-infographic-Copy-4" transform="translate(104.000000, 870.000000)">
                <path d="M73.9623647,29.2532638 L73.9623647,87.397037 C75.7785907,88.5260423 76.9812268,90.538617 76.9812268,92.8457148 C76.9812268,95.1528126 75.7785907,97.1653873 73.9623647,98.269849 L73.9623647,157.223561 C74.7993013,157.738976 75.4865219,158.426197 75.999483,159.260679 L108.448568,159.260679 L108.448568,166.083798 L75.999483,166.083798 C74.8729321,167.900024 72.8603574,169.127204 70.528716,169.127204 C68.2191638,169.127204 66.2090435,167.900024 65.0800382,166.083798 L32.6309531,166.083798 L32.6309531,159.260679 L65.0800382,159.260679 C65.5954537,158.426197 66.2826743,157.714433 67.1171565,157.199017 L67.1171565,98.2943926 C65.3009306,97.1653873 64.0958401,95.1528126 64.0958401,92.8457148 C64.0958401,90.5140734 65.3009306,88.5014987 67.1171565,87.3724934 L67.1171565,29.2778074 C66.2826743,28.7623919 65.5954537,28.0506277 65.0800382,27.2161455 L32.6309531,27.2161455 L32.6309531,20.3930265 L65.0800382,20.3930265 C66.2090435,18.5768006 68.2191638,17.3496209 70.528716,17.3496209 C72.8603574,17.3496209 74.8729321,18.5768006 75.999483,20.3930265 L108.448568,20.3930265 L108.448568,27.2161455 L75.999483,27.2161455 C75.4865219,28.0506277 74.7993013,28.7378483 73.9623647,29.2532638 Z" id="Stroke-1" stroke="#5F5563" stroke-width="0.75"></path>
                <path d="M26.1119292,171.325819 L23.0857041,171.325819 L23.0857041,153.973498 L26.1119292,153.973498 C27.4667356,153.973498 28.5638342,155.070597 28.5638342,156.425403 L28.5638342,168.873914 C28.5638342,170.22872 27.4667356,171.325819 26.1119292,171.325819 Z" id="Stroke-3" stroke="#5F5563" stroke-width="0.75"></path>
                <path d="M14.0389355,186.452281 L5.060889,186.452281 C2.26537369,186.452281 0,184.186907 0,181.391392 L0,143.908416 C0,141.115355 2.26537369,138.847527 5.060889,138.847527 L14.0389355,138.847527 C16.8344509,138.847527 19.0998245,141.115355 19.0998245,143.908416 L19.0998245,181.391392 C19.0998245,184.186907 16.8344509,186.452281 14.0389355,186.452281 Z" id="Stroke-5" stroke="#8736C1" stroke-width="0.75"></path>
                <path d="M26.1119292,32.4795192 L23.0857041,32.4795192 L23.0857041,15.1271985 L26.1119292,15.1271985 C27.4667356,15.1271985 28.5638342,16.2242971 28.5638342,17.5791035 L28.5638342,30.0276142 C28.5638342,31.3824205 27.4667356,32.4795192 26.1119292,32.4795192 Z" id="Stroke-7" stroke="#5F5563" stroke-width="0.75"></path>
                <path d="M14.0389355,47.6047541 L5.060889,47.6047541 C2.26537369,47.6047541 0,45.3393805 0,42.5438651 L0,5.06334336 C0,2.26782805 2.26537369,0 5.060889,0 L14.0389355,0 C16.8344509,0 19.0998245,2.26782805 19.0998245,5.06334336 L19.0998245,42.5438651 C19.0998245,45.3393805 16.8344509,47.6047541 14.0389355,47.6047541 Z" id="Stroke-9" stroke="#8736C1" stroke-width="0.75"></path>
                <path d="M114.885862,15.1274439 L117.914541,15.1274439 L117.914541,32.4797646 L114.885862,32.4797646 C113.53351,32.4797646 112.436411,31.382666 112.436411,30.0278596 L112.436411,17.5793489 C112.436411,16.2245425 113.53351,15.1274439 114.885862,15.1274439 Z" id="Stroke-11" stroke="#5F5563" stroke-width="0.75"></path>
                <path d="M126.961064,0.00122717968 L135.939111,0.00122717968 C138.734626,0.00122717968 141,2.26660087 141,5.06211618 L141,42.542638 C141,45.3381533 138.734626,47.6059813 135.939111,47.6059813 L126.961064,47.6059813 C124.165549,47.6059813 121.897721,45.3381533 121.897721,42.542638 L121.897721,5.06211618 C121.897721,2.26660087 124.165549,0.00122717968 126.961064,0.00122717968 Z" id="Stroke-13" stroke="#8736C1" stroke-width="0.75"></path>
                <path d="M114.885862,153.973744 L117.914541,153.973744 L117.914541,171.326064 L114.885862,171.326064 C113.53351,171.326064 112.436411,170.228966 112.436411,168.874159 L112.436411,156.425649 C112.436411,155.070842 113.53351,153.973744 114.885862,153.973744 Z" id="Stroke-15" stroke="#5F5563" stroke-width="0.75"></path>
                <path d="M126.961064,138.848509 L135.939111,138.848509 C138.734626,138.848509 141,141.113882 141,143.909398 L141,181.392374 C141,184.185435 138.734626,186.453263 135.939111,186.453263 L126.961064,186.453263 C124.165549,186.453263 121.897721,184.185435 121.897721,181.392374 L121.897721,143.909398 C121.897721,141.113882 124.165549,138.848509 126.961064,138.848509 Z" id="Stroke-17" stroke="#8736C1" stroke-width="0.75"></path>
                <polygon id="Fill-19" fill="#5F5563" points="63.7397126 7.669873 60.4729603 7.669873 60.4729603 9.94751849 62.3579083 9.94751849 62.3579083 10.6421022 60.4729603 10.6421022 60.4729603 13.8425868 59.7072002 13.8425868 59.7072002 6.97283494 63.7397126 6.97283494"></polygon>
                <path d="M67.1480814,8.7100305 L66.9615501,9.45615574 C66.7553839,9.33834649 66.5295829,9.25980699 66.1859726,9.25980699 C65.4692996,9.25980699 65.0667847,9.83658144 65.0667847,10.8183252 L65.0667847,13.8420959 L64.3329312,13.8420959 L64.3329312,8.69039562 L65.0667847,8.69039562 L65.0667847,9.32852906 C65.3024032,8.91619668 65.7932751,8.58240381 66.3430516,8.58240381 C66.7259316,8.58240381 66.9713675,8.631491 67.1480814,8.7100305" id="Fill-21" fill="#5F5563"></path>
                <path d="M71.5462934,11.251765 C71.5462934,9.89695868 70.9376123,9.2195555 70.0466798,9.2195555 C69.1508387,9.2195555 68.551975,9.89695868 68.551975,11.251765 C68.551975,12.6041171 69.1508387,13.3109726 70.0466798,13.3109726 C70.9376123,13.3109726 71.5462934,12.6041171 71.5462934,11.251765 M72.2826012,11.2321302 C72.2826012,12.9771797 71.2812226,13.949106 70.0245906,13.949106 C68.7679586,13.949106 67.8083041,13.0164494 67.8083041,11.2713999 C67.8083041,9.52389606 68.8096827,8.58142207 70.0638603,8.58142207 C71.3204923,8.58142207 72.2826012,9.48462631 72.2826012,11.2321302" id="Fill-23" fill="#5F5563"></path>
                <path d="M77.6031614,13.841605 L76.8668536,13.841605 L76.8668536,10.8276518 C76.8668536,9.72073568 76.4741561,9.22004637 75.6494914,9.22004637 C74.9328184,9.22004637 74.3756789,9.70110081 74.3756789,10.8276518 L74.3756789,13.841605 L73.6393711,13.841605 L73.6393711,8.68990475 L74.3756789,8.68990475 L74.3756789,9.31822075 C74.670202,8.8862535 75.1488021,8.58191294 75.7967529,8.58191294 C76.8864885,8.58191294 77.6031614,9.22004637 77.6031614,10.7024794 L77.6031614,13.841605 Z" id="Fill-25" fill="#5F5563"></path>
                <path d="M81.3733028,9.30791244 L80.097036,9.30791244 L80.097036,12.6630217 C80.097036,13.1244412 80.2246627,13.2815202 80.6173602,13.2815202 C80.9143376,13.2815202 81.108232,13.2324331 81.3438505,13.136713 L81.2947633,13.7723921 C81.0100577,13.8902014 80.7351694,13.949106 80.3424719,13.949106 C79.7043385,13.949106 79.3631825,13.634948 79.3631825,12.7832853 L79.3631825,9.30791244 L78.7250491,9.30791244 L78.7250491,8.69186824 L79.3631825,8.69186824 L79.3631825,7.10144337 L80.097036,6.689111 L80.097036,8.69186824 L81.3733028,8.69186824 L81.3733028,9.30791244 Z" id="Fill-27" fill="#5F5563"></path>
                <path d="M64.5452333,177.706171 C64.5452333,176.842237 63.9782763,176.351365 63.0824351,176.351365 L61.3766554,176.351365 L61.3766554,179.002073 L63.1241593,179.002073 C64.1525358,179.002073 64.5452333,178.491566 64.5452333,177.706171 M64.2212579,174.576863 C64.2212579,173.948547 63.8604671,173.526397 63.0922526,173.526397 L61.3766554,173.526397 L61.3766554,175.664144 L63.0358023,175.664144 C63.887465,175.664144 64.2212579,175.175727 64.2212579,174.576863 M65.3109934,177.666902 C65.3109934,179.021708 64.515781,179.699111 63.0726177,179.699111 L60.6108953,179.699111 L60.6108953,172.829359 L63.1241593,172.829359 C64.2114404,172.829359 64.987018,173.369318 64.987018,174.547411 C64.987018,175.303354 64.5746856,175.742684 63.9954568,175.94885 C64.6237728,176.118201 65.3109934,176.557531 65.3109934,177.666902" id="Fill-29" fill="#5F5563"></path>
                <path d="M69.5425544,178.432416 L69.5425544,177.391768 C69.2087615,177.205237 68.8455164,177.097245 68.2172004,177.097245 C67.4612577,177.097245 67.0121099,177.46049 67.0121099,178.108441 C67.0121099,178.874201 67.4342597,179.207994 68.0601214,179.207994 C68.7277071,179.207994 69.2283964,178.864384 69.5425544,178.432416 L69.5425544,178.432416 Z M70.2788622,179.698866 L69.5425544,179.698866 L69.5425544,179.07055 C69.1817636,179.460793 68.6712568,179.806858 67.934949,179.806858 C67.1299192,179.806858 66.2856195,179.404343 66.2856195,178.157528 C66.2856195,176.99907 67.237911,176.508199 68.2589245,176.508199 C68.7767943,176.508199 69.2382139,176.635825 69.5425544,176.802722 L69.5425544,176.194041 C69.5425544,175.42828 69.1817636,175.057672 68.4233665,175.057672 C67.8834075,175.057672 67.4440772,175.204934 67.0219274,175.45037 L66.7445847,174.851506 C67.1986412,174.60607 67.804868,174.439174 68.4724537,174.439174 C69.5818242,174.439174 70.2788622,174.910411 70.2788622,176.105684 L70.2788622,179.698866 Z" id="Fill-31" fill="#5F5563"></path>
                <path d="M75.4531426,175.046873 L75.0113579,175.59665 C74.6382953,175.262857 74.294685,175.076325 73.7743608,175.076325 C72.969331,175.076325 72.3508324,175.802816 72.3508324,177.0889 C72.3508324,178.352895 72.8907915,179.167742 73.8038131,179.167742 C74.3045024,179.167742 74.6382953,178.961576 74.9917231,178.617966 L75.4335077,179.089203 C75.0015405,179.530988 74.5008512,179.805876 73.7743608,179.805876 C72.6453555,179.805876 71.6071615,178.941941 71.6071615,177.14535 C71.6071615,175.243222 72.7435299,174.438192 73.823448,174.438192 C74.5204861,174.438192 75.0506277,174.693445 75.4531426,175.046873" id="Fill-33" fill="#5F5563"></path>
                <polygon id="Fill-35" fill="#5F5563" points="76.7402087 179.697884 76.7402087 172.955759 77.4765165 172.543426 77.4765165 177.253342 77.6826827 176.939184 79.3688275 174.546184 80.1934923 174.546184 78.8386859 176.372227 80.4683805 179.697884 79.6731681 179.697884 78.3674489 176.988271 77.4765165 178.215451 77.4765165 179.697884"></polygon>
            </g>
        </g>
    </g>
</svg>