<?xml version="1.0" encoding="UTF-8"?>
<svg width="200px" height="200px" viewBox="0 0 200 200" version="1.1" xmlns="http://www.w3.org/2000/svg" xmlns:xlink="http://www.w3.org/1999/xlink">
    <!-- Generator: Sketch 52.2 (67145) - http://www.bohemiancoding.com/sketch -->
    <title>assets/img_unclaimed_money</title>
    <desc>Created with Sketch.</desc>
    <g id="Freshness" stroke="none" stroke-width="1" fill="none" fill-rule="evenodd">
        <g id="Circular-Icons" transform="translate(-1000.000000, -4750.000000)">
            <g id="assets/img_unclaimed_money" transform="translate(1000.000000, 4750.000000)">
                <circle id="background" fill="#4A3B8F" cx="100" cy="100" r="100"></circle>
                <g id="Group" transform="translate(40.000000, 40.000000)">
                    <path d="M75,28.125 L75,58.125 C75,61.21875 85.06875,63.75 97.5,63.75 C109.93125,63.75 120,61.21875 120,58.125 L120,28.125 C120,31.231875 109.925625,33.75 97.5,33.75 C85.074375,33.75 75,31.231875 75,28.125 Z" id="Fill-3847" fill="#F2DA3E"></path>
                    <path d="M120,28.125 C120,31.231875 109.925625,33.75 97.5,33.75 C85.074375,33.75 75,31.231875 75,28.125 C75,25.018125 85.074375,22.5 97.5,22.5 C109.925625,22.5 120,25.018125 120,28.125" id="Fill-3848" fill="#FEF4B6"></path>
                    <path d="M75,40.223625 C80.101875,43.084875 90.969375,43.9455 97.5,43.9455 C104.030625,43.9455 114.898125,43.084875 120,40.223625 L120,36.56175 C120,37.9305 112.344375,41.133 97.5,41.133 C82.655625,41.133 75,37.9305 75,36.56175 L75,40.223625 Z" id="Fill-3849" fill="#E1C618"></path>
                    <path d="M75,51.473625 C80.101875,54.334875 90.969375,55.1955 97.5,55.1955 C104.030625,55.1955 114.898125,54.334875 120,51.473625 L120,47.81175 C120,49.1805 112.344375,52.383 97.5,52.383 C82.655625,52.383 75,49.1805 75,47.81175 L75,51.473625 Z" id="Fill-3850" fill="#E1C618"></path>
                    <path d="M75,59.133375 C75,60.1215 79.02375,62.065875 86.851875,63.069 L94.704375,55.2165 C88.194375,55.00275 79.42875,54.02775 75,51.54525 L75,59.133375 Z" id="Fill-3851" fill="#FBED91"></path>
                    <path d="M75,40.2946875 L75,47.8828125 C75,49.2496875 82.644375,52.4484375 97.468125,52.4540625 L106.35,43.5721875 C103.141875,43.8890625 100.003125,44.0165625 97.5,44.0165625 C90.969375,44.0165625 80.101875,43.1559375 75,40.2946875" id="Fill-3852" fill="#FBED91"></path>
                    <path d="M97.5,33.820875 C85.074375,33.820875 75,31.30275 75,28.195875 L75,36.633375 C75,38.00025 82.655625,41.204625 97.5,41.204625 C102.2625,41.204625 106.275,40.87275 109.54125,40.379625 L120,29.920875 L120,28.195875 C120,31.30275 109.925625,33.820875 97.5,33.820875" id="Fill-3853" fill="#FBED91"></path>
                    <path d="M75,36.633375 L75,40.29525 C80.101875,43.154625 90.969375,44.017125 97.5,44.017125 C100.003125,44.017125 103.141875,43.88775 106.35,43.570875 L109.54125,40.379625 C106.275,40.87275 102.2625,41.204625 97.5,41.204625 C82.655625,41.204625 75,38.00025 75,36.633375" id="Fill-3854" fill="#F2DA3E"></path>
                    <path d="M75,47.883375 L75,51.54525 C79.42875,54.02775 88.194375,55.00275 94.704375,55.2165 L97.468125,52.45275 C82.644375,52.449 75,49.25025 75,47.883375" id="Fill-3855" fill="#F2DA3E"></path>
                    <path d="M52.5,11.25 C40.074375,11.25 30,8.731875 30,5.625 L30,56.25 C30,59.34375 40.06875,61.875 52.5,61.875 C64.93125,61.875 75,59.34375 75,56.25 L75,5.625 C75,8.731875 64.925625,11.25 52.5,11.25" id="Fill-3856" fill="#F2DA3E"></path>
                    <path d="M75,5.625 C75,8.731875 64.925625,11.25 52.5,11.25 C40.074375,11.25 30,8.731875 30,5.625 C30,2.518125 40.074375,0 52.5,0 C64.925625,0 75,2.518125 75,5.625" id="Fill-3857" fill="#FEF4B6"></path>
                    <path d="M30,17.723625 C35.101875,20.584875 45.969375,21.4455 52.5,21.4455 C59.030625,21.4455 69.898125,20.584875 75,17.723625 L75,14.06175 C75,15.4305 67.344375,18.633 52.5,18.633 C37.655625,18.633 30,15.4305 30,14.06175 L30,17.723625 Z" id="Fill-3858" fill="#E1C618"></path>
                    <path d="M30,28.973625 C35.101875,31.834875 45.969375,32.6955 52.5,32.6955 C59.030625,32.6955 69.898125,31.834875 75,28.973625 L75,25.31175 C75,26.6805 67.344375,29.883 52.5,29.883 C37.655625,29.883 30,26.6805 30,25.31175 L30,28.973625 Z" id="Fill-3859" fill="#E1C618"></path>
                    <path d="M30,40.223625 C35.101875,43.084875 45.969375,43.9455 52.5,43.9455 C59.030625,43.9455 69.898125,43.084875 75,40.223625 L75,36.56175 C75,37.9305 67.344375,41.133 52.5,41.133 C37.655625,41.133 30,37.9305 30,36.56175 L30,40.223625 Z" id="Fill-3860" fill="#E1C618"></path>
                    <path d="M30,49.7158125 C35.101875,52.5770625 45.969375,53.4376875 52.5,53.4376875 C59.030625,53.4376875 69.898125,52.5770625 75,49.7158125 L75,46.0539375 C75,47.4226875 67.344375,50.6251875 52.5,50.6251875 C37.655625,50.6251875 30,47.4226875 30,46.0539375 L30,49.7158125 Z" id="Fill-3861" fill="#E1C618"></path>
                    <path d="M30,46.0280625 C30,46.5999375 31.35375,47.4905625 33.99,48.3343125 L39.39,42.9324375 C35.71125,42.3511875 32.28,41.4755625 30,40.1968125 L30,46.0280625 Z" id="Fill-3862" fill="#FBED91"></path>
                    <path d="M30,36.535875 C30,37.524 34.02375,39.468375 41.851875,40.4715 L49.704375,32.619 C43.194375,32.40525 34.42875,31.43025 30,28.94775 L30,36.535875 Z" id="Fill-3863" fill="#FBED91"></path>
                    <path d="M30,17.6971875 L30,25.2853125 C30,26.6521875 37.644375,29.8509375 52.468125,29.8565625 L61.35,20.9746875 C58.141875,21.2915625 55.003125,21.4190625 52.5,21.4190625 C45.969375,21.4190625 35.101875,20.5584375 30,17.6971875" id="Fill-3864" fill="#FBED91"></path>
                    <path d="M52.5,11.223375 C40.074375,11.223375 30,8.70525 30,5.598375 L30,14.035875 C30,15.40275 37.655625,18.607125 52.5,18.607125 C57.2625,18.607125 61.275,18.27525 64.54125,17.782125 L75,7.323375 L75,5.598375 C75,8.70525 64.925625,11.223375 52.5,11.223375" id="Fill-3865" fill="#FBED91"></path>
                    <path d="M30,49.8650625 L30,52.4994375 L31.801875,50.6975625 C31.149375,50.4406875 30.53625,50.1650625 30,49.8650625" id="Fill-3866" fill="#FBE158"></path>
                    <path d="M30,14.035875 L30,17.69775 C35.101875,20.557125 45.969375,21.419625 52.5,21.419625 C55.003125,21.419625 58.141875,21.29025 61.35,20.973375 L64.54125,17.782125 C61.275,18.27525 57.2625,18.607125 52.5,18.607125 C37.655625,18.607125 30,15.40275 30,14.035875" id="Fill-3867" fill="#F2DA3E"></path>
                    <path d="M30,25.285875 L30,28.94775 C34.42875,31.43025 43.194375,32.40525 49.704375,32.619 L52.468125,29.85525 C37.644375,29.8515 30,26.65275 30,25.285875" id="Fill-3868" fill="#F2DA3E"></path>
                    <path d="M30,36.535875 L30,40.19775 C32.28,41.474625 35.71125,42.352125 39.39,42.933375 L41.851875,40.4715 C34.02375,39.468375 30,37.524 30,36.535875" id="Fill-3869" fill="#F2DA3E"></path>
                    <path d="M30,46.2039375 L30,49.8658125 C30.53625,50.1658125 31.149375,50.4395625 31.801875,50.6983125 L33.99,48.5101875 C31.35375,47.6664375 30,46.7758125 30,46.2039375" id="Fill-3870" fill="#FACB1B"></path>
                    <path d="M13.125,39.375 L13.125,84.375 C58.125,106.875 58.125,84.375 103.125,106.875 L103.125,61.875 C58.125,39.375 58.125,61.875 13.125,39.375 M18.75,48.219375 C37.235625,56.25 47.833125,56.25 58.125,56.25 C68.469375,56.25 78.27,56.25 97.5,65.38875 L97.5,98.030625 C79.014375,90 68.416875,90 58.125,90 C47.780625,90 37.98,90 18.75,80.86125 L18.75,48.219375" id="Fill-3871" fill="#81B44C"></path>
                    <path d="M97.5,98.030625 L97.5,65.38875 C78.27,56.251875 68.469375,56.25 58.125,56.25 C47.833125,56.25 37.235625,56.25 18.75,48.219375 L18.75,80.86125 C37.98,90 47.780625,90 58.125,90 C68.416875,90 79.014375,90 97.5,98.030625" id="Fill-3872" fill="#638A3A"></path>
                    <path d="M69.375,73.125 C69.375,79.33875 64.336875,84.375 58.125,84.375 C51.913125,84.375 46.875,79.33875 46.875,73.125 C46.875,66.91125 51.913125,61.875 58.125,61.875 C64.336875,61.875 69.375,66.91125 69.375,73.125" id="Fill-3873" fill="#81B44C"></path>
                    <path d="M13.125,40.3010625 L13.125,84.3748125 C22.798125,89.2123125 30.384375,91.9610625 36.79125,93.5323125 L41.518125,88.8054375 C35.424375,87.6485625 28.2375,85.3685625 18.75,80.8610625 L18.75,48.2191875 C37.235625,56.2498125 47.833125,56.2498125 58.125,56.2498125 C62.9175,56.2498125 67.603125,56.2629375 73.153125,57.1704375 L77.953125,52.3723125 C55.854375,47.4448125 47.761875,56.5216875 13.749375,39.6766875 L13.125,40.3010625 Z" id="Fill-3874" fill="#C3DBA9"></path>
                    <path d="M73.1533125,57.171 C67.6033125,56.261625 62.9176875,56.250375 58.1251875,56.250375 C47.8333125,56.250375 37.2358125,56.250375 18.7501875,48.21975 L18.7501875,80.861625 C28.2358125,85.369125 35.4226875,87.64725 41.5183125,88.806 L73.1533125,57.171 Z" id="Fill-3875" fill="#81B44C"></path>
                    <path d="M58.125,61.875 C51.913125,61.875 46.875,66.91125 46.875,73.125 C46.875,75.995625 47.960625,78.6075 49.72875,80.595 L65.595,64.72875 C63.6075,62.95875 60.995625,61.875 58.125,61.875" id="Fill-3876" fill="#C3DBA9"></path>
                    <path d="M0,52.5 L0,97.5 C45,120 45,97.5 90,120 L90,75 C45,52.5 45,75 0,52.5 M5.625,61.344375 C24.110625,69.375 34.708125,69.375 45,69.375 C55.344375,69.375 65.145,69.375 84.375,78.51375 L84.375,111.155625 C65.889375,103.125 55.291875,103.125 45,103.125 C34.655625,103.125 24.855,103.125 5.625,93.98625 L5.625,61.344375" id="Fill-3877" fill="#81B44C"></path>
                    <path d="M84.375,111.155625 L84.375,78.51375 C65.145,69.376875 55.344375,69.375 45,69.375 C34.708125,69.375 24.110625,69.375 5.625,61.344375 L5.625,93.98625 C24.855,103.125 34.655625,103.125 45,103.125 C55.291875,103.125 65.889375,103.125 84.375,111.155625" id="Fill-3878" fill="#638A3A"></path>
                    <path d="M56.25,86.25 C56.25,92.46375 51.211875,97.5 45,97.5 C38.788125,97.5 33.75,92.46375 33.75,86.25 C33.75,80.03625 38.788125,75 45,75 C51.211875,75 56.25,80.03625 56.25,86.25" id="Fill-3879" fill="#81B44C"></path>
                    <path d="M0,53.4260625 L0,97.4998125 C9.673125,102.337312 17.259375,105.086063 23.66625,106.657312 L28.393125,101.930438 C22.299375,100.773562 15.1125,98.4935625 5.625,93.9860625 L5.625,61.3441875 C24.110625,69.3748125 34.708125,69.3748125 45,69.3748125 C49.7925,69.3748125 54.478125,69.3879375 60.028125,70.2954375 L64.828125,65.4973125 C42.729375,60.5698125 34.636875,69.6466875 0.624375,52.8016875 L0,53.4260625 Z" id="Fill-3880" fill="#C3DBA9"></path>
                    <path d="M60.0283125,70.296 C54.4783125,69.386625 49.7926875,69.375375 45.0001875,69.375375 C34.7083125,69.375375 24.1108125,69.375375 5.6251875,61.34475 L5.6251875,93.986625 C15.1108125,98.494125 22.2976875,100.77225 28.3933125,101.931 L60.0283125,70.296 Z" id="Fill-3881" fill="#81B44C"></path>
                    <path d="M45,75 C38.788125,75 33.75,80.03625 33.75,86.25 C33.75,89.120625 34.835625,91.7325 36.60375,93.72 L52.47,77.85375 C50.4825,76.08375 47.870625,75 45,75" id="Fill-3882" fill="#C3DBA9"></path>
                </g>
            </g>
        </g>
    </g>
</svg>