<?xml version="1.0" encoding="UTF-8"?>
<svg width="200px" height="200px" viewBox="0 0 200 200" version="1.1" xmlns="http://www.w3.org/2000/svg" xmlns:xlink="http://www.w3.org/1999/xlink">
    <!-- Generator: Sketch 48.1 (47250) - http://www.bohemiancoding.com/sketch -->
    <title>assets/img_judgments</title>
    <desc>Created with Sketch.</desc>
    <defs></defs>
    <g id="Circular-Icons" stroke="none" stroke-width="1" fill="none" fill-rule="evenodd" transform="translate(-250.000000, -750.000000)">
        <g id="assets/img_judgments" transform="translate(250.000000, 750.000000)">
            <circle id="background" fill="#353167" cx="100" cy="100" r="100"></circle>
            <g id="Group" transform="translate(40.000000, 30.000000)">
                <path d="M117.812813,103.4565 C117.507188,103.150875 73.3790625,58.4415 73.1259375,58.788375 C77.7965625,52.495875 80.9690625,44.905875 82.8121875,35.774625 L86.4271875,32.17275 L89.2565625,35.013375 C90.7171875,36.4815 93.0909375,36.48525 94.5590625,35.02275 L95.8865625,33.699 C97.3528125,32.238375 97.3584375,29.86275 95.8959375,28.3965 L69.4246875,1.810875 C67.9621875,0.344625 65.5884375,0.339 64.1221875,1.8015 L62.7928125,3.12525 C61.3265625,4.58775 61.3228125,6.9615 62.7834375,8.42775 L65.2603125,10.915875 L61.6378125,14.523375 C38.0596875,19.19775 23.8921875,33.31275 19.1353125,56.874 L15.7228125,60.27525 L13.3471875,57.888375 C11.8846875,56.422125 9.5090625,56.418375 8.0428125,57.879 L6.7153125,59.20275 C5.2471875,60.66525 5.2434375,63.039 6.7059375,64.507125 L33.1771875,91.09275 C34.6396875,92.559 37.0134375,92.56275 38.4796875,91.102125 L39.8071875,89.778375 C41.2753125,88.315875 41.2809375,85.942125 39.8184375,84.474 L28.7896875,73.40025 L36.8896875,81.534 L40.3115625,78.12525 C48.9646875,76.4115 56.3371875,73.4115 62.4553125,69.153375 L107.187188,114.04275 C110.110313,116.977125 114.859688,116.9865 117.794063,114.063375 C117.893438,113.964 117.964688,113.845875 118.056563,113.740875 C120.698438,110.800875 120.636563,106.289625 117.812813,103.4565" id="Fill-3825" fill="#8E6134"></path>
                <path d="M0,120 C0,115.858125 3.358125,112.5 7.5,112.5 L52.5,112.5 C56.641875,112.5 60,115.858125 60,120 L0,120 Z" id="Fill-3826" fill="#8E6134"></path>
                <path d="M52.5,110.625 C52.5,106.483125 49.141875,103.125 45,103.125 L15,103.125 C10.858125,103.125 7.5,106.483125 7.5,110.625 L7.5,112.5 L52.5,112.5 L52.5,110.625 Z" id="Fill-3827" fill="#F0F1F1"></path>
                <polygon id="Fill-3828" fill="#D4A263" points="82.8121875 35.7751875 61.6378125 14.5239375 65.3109375 10.8639375 86.4853125 32.1151875"></polygon>
                <polygon id="Fill-3829" fill="#D4A263" points="19.1355 56.874375 15.723 60.275625 36.889875 81.534375 40.309875 78.125625"></polygon>
                <path d="M30,103.125 L15,103.125 C10.858125,103.125 7.5,106.483125 7.5,110.625 L7.5,112.5 L30,112.5 L30,103.125 Z" id="Fill-3830" fill="#FFFFFF"></path>
                <polygon id="Fill-3831" fill="#84462D" points="29.90025 67.6775625 29.90025 67.6775625 19.135875 56.8738125"></polygon>
                <path d="M61.6378125,14.5239375 C38.0596875,19.1964375 23.8921875,33.3133125 19.1353125,56.8745625 L29.8996875,67.6783125 L72.3271875,25.2508125 L61.6378125,14.5239375 Z" id="Fill-3832" fill="#A97A45"></path>
                <polygon id="Fill-3833" fill="#F4D0A1" points="15.7224375 60.2750625 26.4905625 71.0881875 29.9011875 67.6775625 19.1349375 56.8738125"></polygon>
                <polygon id="Fill-3834" fill="#F4D0A1" points="61.6378125 14.5239375 72.3271875 25.2508125 75.9928125 21.5851875 65.3090625 10.8639375"></polygon>
                <path d="M64.121625,1.8013125 L62.794125,3.1250625 C61.326,4.5875625 61.32225,6.9613125 62.782875,8.4275625 L75.937875,21.6388125 L82.567875,15.0106875 L69.424125,1.8106875 C67.961625,0.3444375 65.587875,0.3388125 64.121625,1.8013125" id="Fill-3835" fill="#A97A45"></path>
                <path d="M13.346625,57.88875 C11.884125,56.4225 9.510375,56.41875 8.04225,57.879375 L6.71475,59.203125 C5.2485,60.66375 5.242875,63.039375 6.705375,64.505625 L19.860375,77.71875 L26.490375,71.08875 L13.346625,57.88875 Z" id="Fill-3836" fill="#A97A45"></path>
                <path d="M30,112.5 L7.5,112.5 C3.358125,112.5 0,115.858125 0,120 L30,120 L30,112.5 Z" id="Fill-3837" fill="#A97A45"></path>
            </g>
        </g>
    </g>
</svg>