<?xml version="1.0" encoding="UTF-8"?>
<svg width="80px" height="80px" viewBox="0 0 80 80" version="1.1" xmlns="http://www.w3.org/2000/svg" xmlns:xlink="http://www.w3.org/1999/xlink">
    <!-- Generator: Sketch 49.1 (51147) - http://www.bohemiancoding.com/sketch -->
    <title>assets/img_domain_google</title>
    <desc>Created with Sketch.</desc>
    <defs>
        <path d="M43.5872093,18.4090909 L41.0232558,18.4090909 L32.6134884,18.4090909 L22.5627907,18.4090909 L22.5627907,27.1022727 L34.6646512,27.1022727 C33.5365116,32.625 28.8188372,35.7954545 22.5627907,35.7954545 C15.1786047,35.7954545 9.23023256,29.8636364 9.23023256,22.5 C9.23023256,15.1363636 15.1786047,9.20454545 22.5627907,9.20454545 C25.742093,9.20454545 28.6137209,10.3295455 30.87,12.1704545 L37.4337209,5.625 C33.4339535,2.14772727 28.3060465,0 22.5627907,0 C10.0506977,0 0,10.0227273 0,22.5 C0,34.9772727 10.0506977,45 22.5627907,45 C33.844186,45 44.1,36.8181818 44.1,22.5 C44.1,21.1704545 43.8948837,19.7386364 43.5872093,18.4090909 L43.5872093,18.4090909 Z" id="path-1"></path>
        <path d="M43.5872093,18.4090909 L41.0232558,18.4090909 L32.6134884,18.4090909 L22.5627907,18.4090909 L22.5627907,27.1022727 L34.6646512,27.1022727 C33.5365116,32.625 28.8188372,35.7954545 22.5627907,35.7954545 C15.1786047,35.7954545 9.23023256,29.8636364 9.23023256,22.5 C9.23023256,15.1363636 15.1786047,9.20454545 22.5627907,9.20454545 C25.742093,9.20454545 28.6137209,10.3295455 30.87,12.1704545 L37.4337209,5.625 C33.4339535,2.14772727 28.3060465,0 22.5627907,0 C10.0506977,0 0,10.0227273 0,22.5 C0,34.9772727 10.0506977,45 22.5627907,45 C33.844186,45 44.1,36.8181818 44.1,22.5 C44.1,21.1704545 43.8948837,19.7386364 43.5872093,18.4090909 L43.5872093,18.4090909 Z" id="path-3"></path>
        <path d="M43.5872093,18.4090909 L41.0232558,18.4090909 L32.6134884,18.4090909 L22.5627907,18.4090909 L22.5627907,27.1022727 L34.6646512,27.1022727 C33.5365116,32.625 28.8188372,35.7954545 22.5627907,35.7954545 C15.1786047,35.7954545 9.23023256,29.8636364 9.23023256,22.5 C9.23023256,15.1363636 15.1786047,9.20454545 22.5627907,9.20454545 C25.742093,9.20454545 28.6137209,10.3295455 30.87,12.1704545 L37.4337209,5.625 C33.4339535,2.14772727 28.3060465,0 22.5627907,0 C10.0506977,0 0,10.0227273 0,22.5 C0,34.9772727 10.0506977,45 22.5627907,45 C33.844186,45 44.1,36.8181818 44.1,22.5 C44.1,21.1704545 43.8948837,19.7386364 43.5872093,18.4090909 L43.5872093,18.4090909 Z" id="path-5"></path>
        <path d="M43.5872093,18.4090909 L41.0232558,18.4090909 L32.6134884,18.4090909 L22.5627907,18.4090909 L22.5627907,27.1022727 L34.6646512,27.1022727 C33.5365116,32.625 28.8188372,35.7954545 22.5627907,35.7954545 C15.1786047,35.7954545 9.23023256,29.8636364 9.23023256,22.5 C9.23023256,15.1363636 15.1786047,9.20454545 22.5627907,9.20454545 C25.742093,9.20454545 28.6137209,10.3295455 30.87,12.1704545 L37.4337209,5.625 C33.4339535,2.14772727 28.3060465,0 22.5627907,0 C10.0506977,0 0,10.0227273 0,22.5 C0,34.9772727 10.0506977,45 22.5627907,45 C33.844186,45 44.1,36.8181818 44.1,22.5 C44.1,21.1704545 43.8948837,19.7386364 43.5872093,18.4090909 L43.5872093,18.4090909 Z" id="path-7"></path>
    </defs>
    <g id="Freshness" stroke="none" stroke-width="1" fill="none" fill-rule="evenodd">
        <g id="Freeform-Icons" transform="translate(0.000000, -1380.000000)">
            <g id="assets/img_domain_google" transform="translate(0.000000, 1380.000000)">
                <circle id="Oval-11" fill="#353167" cx="40" cy="40" r="40"></circle>
                <g id="assets/img_google" transform="translate(18.000000, 18.000000)">
                    <g id="Group" transform="translate(0.450000, 0.000000)">
                        <g id="Clipped">
                            <mask id="mask-2" fill="white">
                                <use xlink:href="#path-1"></use>
                            </mask>
                            <g id="SVGID_1_"></g>
                            <polygon id="Shape" fill="#FBBC05" mask="url(#mask-2)" points="-2.05116279 35.7954545 -2.05116279 9.20454545 15.3837209 22.5"></polygon>
                        </g>
                        <g id="Clipped">
                            <mask id="mask-4" fill="white">
                                <use xlink:href="#path-3"></use>
                            </mask>
                            <g id="SVGID_1_"></g>
                            <polygon id="Shape" fill="#EA4335" mask="url(#mask-4)" points="-2.05116279 9.20454545 15.3837209 22.5 22.5627907 16.2613636 47.1767442 12.2727273 47.1767442 -2.04545455 -2.05116279 -2.04545455"></polygon>
                        </g>
                        <g id="Clipped">
                            <mask id="mask-6" fill="white">
                                <use xlink:href="#path-5"></use>
                            </mask>
                            <g id="SVGID_1_"></g>
                            <polygon id="Shape" fill="#34A853" mask="url(#mask-6)" points="-2.05116279 35.7954545 28.7162791 12.2727273 36.8183721 13.2954545 47.1767442 -2.04545455 47.1767442 47.0454545 -2.05116279 47.0454545"></polygon>
                        </g>
                        <g id="Clipped">
                            <mask id="mask-8" fill="white">
                                <use xlink:href="#path-7"></use>
                            </mask>
                            <g id="SVGID_1_"></g>
                            <polygon id="Shape" fill="#4285F4" mask="url(#mask-8)" points="47.1767442 47.0454545 15.3837209 22.5 11.2813953 19.4318182 47.1767442 9.20454545"></polygon>
                        </g>
                    </g>
                    <rect id="Rectangle-261" x="0" y="0" width="45" height="45"></rect>
                </g>
            </g>
        </g>
    </g>
</svg>