<?xml version="1.0" encoding="UTF-8"?>
<svg width="80px" height="80px" viewBox="0 0 80 80" version="1.1" xmlns="http://www.w3.org/2000/svg" xmlns:xlink="http://www.w3.org/1999/xlink">
    <!-- Generator: Sketch 49.1 (51147) - http://www.bohemiancoding.com/sketch -->
    <title>assets/img_domain_instagram</title>
    <desc>Created with Sketch.</desc>
    <defs>
        <radialGradient cx="26.5626266%" cy="107.702106%" fx="26.5626266%" fy="107.702106%" r="49.9906001%" gradientTransform="translate(0.265626,1.077021),scale(1.000000,0.992637),translate(-0.265626,-1.077021)" id="radialGradient-1">
            <stop stop-color="#FFDD55" offset="0%"></stop>
            <stop stop-color="#FFDD55" offset="10%"></stop>
            <stop stop-color="#FF543E" offset="50%"></stop>
            <stop stop-color="#C837AB" offset="100%"></stop>
        </radialGradient>
        <radialGradient cx="-16.7505274%" cy="7.20383154%" fx="-16.7505274%" fy="7.20383154%" r="49.9906001%" gradientTransform="translate(-0.167505,0.072038),scale(1.000000,0.992637),translate(0.167505,-0.072038)" id="radialGradient-2">
            <stop stop-color="#3771C8" offset="0%"></stop>
            <stop stop-color="#3771C8" offset="12.8%"></stop>
            <stop stop-color="#6600FF" stop-opacity="0" offset="100%"></stop>
        </radialGradient>
    </defs>
    <g id="Freshness" stroke="none" stroke-width="1" fill="none" fill-rule="evenodd">
        <g id="Freeform-Icons" transform="translate(-320.000000, -1460.000000)">
            <g id="assets/img_domain_instagram" transform="translate(320.000000, 1460.000000)">
                <circle id="Oval-7" fill="#353167" cx="40" cy="40" r="40"></circle>
                <g id="instagram-icon" transform="translate(18.000000, 18.000000)" fill-rule="nonzero">
                    <path d="M22.3399237,0 C13.0163359,0 10.289542,0.00969230769 9.75950382,0.054 C7.84614504,0.214269231 6.65553435,0.517846154 5.35843511,1.16861538 C4.35881679,1.66880769 3.57045802,2.24861538 2.79240458,3.06138462 C1.37541985,4.54361538 0.516641221,6.36715385 0.205763359,8.53476923 C0.0546183206,9.58707692 0.010648855,9.80169231 0.00171755725,15.1767692 C-0.00171755725,16.9684615 0.00171755725,19.3264615 0.00171755725,22.4892692 C0.00171755725,31.8769615 0.0120229008,34.6219615 0.0566793893,35.1550385 C0.211259542,37.0311923 0.503244275,38.2115769 1.12156489,39.5027308 C2.30324427,41.9742692 4.5601145,43.8296538 7.21889313,44.5219615 C8.13950382,44.7608077 9.15629771,44.8923462 10.4616412,44.9546538 C11.0146947,44.9788846 16.6517176,44.9961923 22.2921756,44.9961923 C27.9326336,44.9961923 33.5730916,44.9892692 34.1124046,44.9615769 C35.623855,44.8899231 36.5015267,44.7711923 37.4719466,44.5185 C40.1479008,43.8227308 42.3635496,41.9950385 43.5692748,39.4888846 C44.1755725,38.2288846 44.4830153,37.0035 44.6221374,35.2253077 C44.6523664,34.8376154 44.6650763,28.6563462 44.6650763,22.4833846 C44.6650763,16.3093846 44.6513359,10.1395385 44.6211069,9.75184615 C44.4802672,7.94492308 44.1728244,6.72992308 43.5469466,5.44569231 C43.0333969,4.39442308 42.4631679,3.60934615 41.6353053,2.80661538 C40.1578626,1.38461538 38.3509924,0.519230769 36.1978626,0.206307692 C35.1546183,0.0543461538 34.9467939,0.00934615385 29.608626,0 L22.3399237,0 Z" id="Shape" fill="url(#radialGradient-1)"></path>
                    <path d="M22.3399237,0 C13.0163359,0 10.289542,0.00969230769 9.75950382,0.054 C7.84614504,0.214269231 6.65553435,0.517846154 5.35843511,1.16861538 C4.35881679,1.66880769 3.57045802,2.24861538 2.79240458,3.06138462 C1.37541985,4.54361538 0.516641221,6.36715385 0.205763359,8.53476923 C0.0546183206,9.58707692 0.010648855,9.80169231 0.00171755725,15.1767692 C-0.00171755725,16.9684615 0.00171755725,19.3264615 0.00171755725,22.4892692 C0.00171755725,31.8769615 0.0120229008,34.6219615 0.0566793893,35.1550385 C0.211259542,37.0311923 0.503244275,38.2115769 1.12156489,39.5027308 C2.30324427,41.9742692 4.5601145,43.8296538 7.21889313,44.5219615 C8.13950382,44.7608077 9.15629771,44.8923462 10.4616412,44.9546538 C11.0146947,44.9788846 16.6517176,44.9961923 22.2921756,44.9961923 C27.9326336,44.9961923 33.5730916,44.9892692 34.1124046,44.9615769 C35.623855,44.8899231 36.5015267,44.7711923 37.4719466,44.5185 C40.1479008,43.8227308 42.3635496,41.9950385 43.5692748,39.4888846 C44.1755725,38.2288846 44.4830153,37.0035 44.6221374,35.2253077 C44.6523664,34.8376154 44.6650763,28.6563462 44.6650763,22.4833846 C44.6650763,16.3093846 44.6513359,10.1395385 44.6211069,9.75184615 C44.4802672,7.94492308 44.1728244,6.72992308 43.5469466,5.44569231 C43.0333969,4.39442308 42.4631679,3.60934615 41.6353053,2.80661538 C40.1578626,1.38461538 38.3509924,0.519230769 36.1978626,0.206307692 C35.1546183,0.0543461538 34.9467939,0.00934615385 29.608626,0 L22.3399237,0 Z" id="Shape" fill="url(#radialGradient-2)"></path>
                    <path d="M22.3296183,5.88461538 C17.8516031,5.88461538 17.2896183,5.90434615 15.5308397,5.985 C13.7754962,6.066 12.5773282,6.34603846 11.5289313,6.75692308 C10.4444656,7.18130769 9.52454198,7.749 8.60805344,8.67288462 C7.69087786,9.59642308 7.12751908,10.5234231 6.705,11.6158846 C6.29622137,12.6726923 6.0179771,13.8804231 5.93896947,15.6485769 C5.86030534,17.4208846 5.83969466,17.9875385 5.83969466,22.5 C5.83969466,27.0124615 5.85961832,27.5770385 5.93931298,29.3493462 C6.02003817,31.1181923 6.29793893,32.3255769 6.70534351,33.3820385 C7.12683206,34.4748462 7.69019084,35.4018462 8.6070229,36.3253846 C9.52316794,37.2496154 10.4430916,37.8186923 11.5268702,38.2430769 C12.5759542,38.6539615 13.7744656,38.934 15.5294656,39.015 C17.2882443,39.0956538 17.8498855,39.1153846 22.3275573,39.1153846 C26.805916,39.1153846 27.3661832,39.0956538 29.1249618,39.015 C30.8803053,38.934 32.0798473,38.6539615 33.1289313,38.2430769 C34.2130534,37.8186923 35.1316031,37.2496154 36.0477481,36.3253846 C36.9649237,35.4018462 37.5282824,34.4748462 37.9508015,33.3823846 C38.356145,32.3255769 38.6343893,31.1178462 38.7168321,29.3496923 C38.7958397,27.5773846 38.8164504,27.0124615 38.8164504,22.5 C38.8164504,17.9875385 38.7958397,17.4212308 38.7168321,15.6489231 C38.6343893,13.8800769 38.356145,12.6726923 37.9508015,11.6162308 C37.5282824,10.5234231 36.9649237,9.59642308 36.0477481,8.67288462 C35.1305725,7.74865385 34.2133969,7.18096154 33.1279008,6.75692308 C32.0767557,6.34603846 30.8779008,6.066 29.1225573,5.985 C27.3637786,5.90434615 26.803855,5.88461538 22.3244656,5.88461538 L22.3296183,5.88461538 Z M20.850458,8.87884615 C21.2894656,8.87815385 21.779313,8.87884615 22.3296183,8.87884615 C26.7320611,8.87884615 27.253855,8.89476923 28.9923664,8.97438462 C30.6,9.04846154 31.4725191,9.31915385 32.0537405,9.54657692 C32.8232061,9.84773077 33.3717939,10.2077308 33.9485496,10.7892692 C34.5256489,11.3708077 34.8829008,11.9246538 35.1824427,12.7000385 C35.4081298,13.2850385 35.6770992,14.1642692 35.7502672,15.7842692 C35.8292748,17.5358077 35.8464504,18.0619615 35.8464504,22.4961923 C35.8464504,26.9304231 35.8292748,27.4565769 35.7502672,29.2081154 C35.6767557,30.8281154 35.4081298,31.7073462 35.1824427,32.2923462 C34.8835878,33.0677308 34.5256489,33.6198462 33.9485496,34.2010385 C33.3714504,34.7825769 32.8235496,35.1425769 32.0537405,35.4437308 C31.4732061,35.6721923 30.6,35.9421923 28.9923664,36.0162692 C27.2541985,36.0958846 26.7320611,36.1131923 22.3296183,36.1131923 C17.9268321,36.1131923 17.4050382,36.0958846 15.6668702,36.0162692 C14.0592366,35.9415 13.1867176,35.6708077 12.6051527,35.4433846 C11.835687,35.1422308 11.2860687,34.7822308 10.7089695,34.2006923 C10.1318702,33.6191538 9.77461832,33.0666923 9.47507634,32.2909615 C9.24938931,31.7059615 8.98041985,30.8267308 8.90725191,29.2067308 C8.82824427,27.4551923 8.81244275,26.9290385 8.81244275,22.4920385 C8.81244275,18.0550385 8.82824427,17.5316538 8.90725191,15.7801154 C8.98076336,14.1601154 9.24938931,13.2808846 9.47507634,12.6951923 C9.7739313,11.9198077 10.1318702,11.3659615 10.7089695,10.7844231 C11.2860687,10.2028846 11.835687,9.84288462 12.6051527,9.54103846 C13.186374,9.31257692 14.0592366,9.04257692 15.6668702,8.96815385 C17.1879389,8.89892308 17.7774046,8.87815385 20.850458,8.87469231 L20.850458,8.87884615 Z M31.1310687,11.6376923 C30.0387023,11.6376923 29.1524427,12.5297308 29.1524427,13.6308462 C29.1524427,14.7316154 30.0387023,15.6246923 31.1310687,15.6246923 C32.2234351,15.6246923 33.1096947,14.7316154 33.1096947,13.6308462 C33.1096947,12.5300769 32.2234351,11.637 31.1310687,11.637 L31.1310687,11.6376923 Z M22.3296183,13.9673077 C17.6533969,13.9673077 13.8620611,17.7878077 13.8620611,22.5 C13.8620611,27.2121923 17.6533969,31.0309615 22.3296183,31.0309615 C27.0058397,31.0309615 30.7958015,27.2121923 30.7958015,22.5 C30.7958015,17.7878077 27.0054962,13.9673077 22.3292748,13.9673077 L22.3296183,13.9673077 Z M22.3296183,16.9615385 C25.3648855,16.9615385 27.8258015,19.4410385 27.8258015,22.5 C27.8258015,25.5586154 25.3648855,28.0384615 22.3296183,28.0384615 C19.2940076,28.0384615 16.8334351,25.5586154 16.8334351,22.5 C16.8334351,19.4410385 19.2940076,16.9615385 22.3296183,16.9615385 L22.3296183,16.9615385 Z" id="Shape" fill="#FFFFFF"></path>
                </g>
            </g>
        </g>
    </g>
</svg>