<svg xmlns="http://www.w3.org/2000/svg" width="78" height="20" viewBox="0 0 78 20">
    <g fill="none" fill-rule="evenodd">
        <g fill="#141D2B" fill-rule="nonzero">
            <g>
                <path d="M31.811 10.792V0h2.908v10.792c0 3.08-2.383 5.575-5.323 5.575-2.94 0-5.323-2.496-5.323-5.575V9.175h2.908v1.617c0 1.397 1.081 2.53 2.415 2.53s2.415-1.133 2.415-2.53m10.493-4.167c1.401 0 2.285.711 2.65 2.133H39.68c.085-.332.21-.628.373-.889.164-.26.36-.483.59-.67.23-.185.483-.327.764-.426.28-.099.58-.148.898-.148m-2.8 4.315h8.146l.012-.629c0-1.904-.482-3.393-1.447-4.468-.973-1.083-2.296-1.624-3.968-1.624-1.658 0-2.989.557-3.993 1.67-.995 1.131-1.493 2.609-1.493 4.434 0 1.84.513 3.318 1.54 4.433 1.027 1.106 2.389 1.66 4.085 1.66.592 0 1.14-.064 1.646-.19.506-.127.977-.327 1.412-.6.436-.272.845-.62 1.226-1.042.381-.423.743-.93 1.085-1.523l-2.217-1.256c-.537.853-1.016 1.438-1.436 1.754-.428.315-.968.473-1.622.473-.84 0-1.53-.276-2.066-.829-.537-.56-.84-1.315-.91-2.264m30.157 8.986L77.206 4.54h-2.861l-3.132 6.637-3.357-6.637h-2.94l4.934 9.399-3.041 5.987h2.852zM54.82 7.258c.385 0 .759.031 1.12.094l.012-2.702c-.256-.11-.58-.166-.973-.166-1.177 0-2.103.557-2.767 1.671V4.721h-2.687v11.397h2.687V9.455c.437-1.012 1.349-2.197 2.608-2.197m8.18 0c.385 0 .759.031 1.12.094l.012-2.702c-.256-.11-.58-.166-.973-.166-1.177 0-2.103.557-2.767 1.671V4.721h-2.687v11.397h2.687V9.455c.437-1.012 1.348-2.197 2.608-2.197M0 11.142h2.98c0-3.607 2.797-6.532 6.247-6.532 3.45 0 6.247 2.925 6.247 6.532h2.98c0-5.328-4.13-9.648-9.227-9.648C4.131 1.494 0 5.814 0 11.142" transform="translate(-423 -583) translate(423.794 583)"/>
                <path d="M9.252 12.951c1.02 0 1.85-.865 1.85-1.934 0-1.068-.83-1.935-1.851-1.935S7.4 9.95 7.4 11.017c0 1.069.828 1.934 1.85 1.934" transform="translate(-423 -583) translate(423.794 583)"/>
            </g>
        </g>
    </g>
</svg>
