<?xml version="1.0" encoding="UTF-8"?>
<svg width="130px" height="180px" viewBox="0 0 130 180" version="1.1" xmlns="http://www.w3.org/2000/svg" xmlns:xlink="http://www.w3.org/1999/xlink">
    <!-- Generator: Sketch 45.2 (43514) - http://www.bohemiancoding.com/sketch -->
    <title>assets/img_own_report</title>
    <desc>Created with Sketch.</desc>
    <defs></defs>
    <g id="Freshness" stroke="none" stroke-width="1" fill="none" fill-rule="evenodd">
        <g id="Freeform-Icons-(Dark-Background)" transform="translate(-920.000000, -220.000000)">
            <g id="assets/img_own_report" transform="translate(920.000000, 220.000000)">
                <g id="report" transform="translate(25.000000, 0.000000)">
                    <rect id="Rectangle-5" fill="#FFFFFF" x="0" y="0" width="105" height="140"></rect>
                    <rect id="Rectangle-4" fill="#736F9C" x="5" y="21" width="20" height="32"></rect>
                    <rect id="Rectangle-7" fill="#3B2469" x="30" y="27" width="15" height="18"></rect>
                    <rect id="Rectangle-7" fill="#3B2469" x="48" y="27" width="15" height="18"></rect>
                    <rect id="Rectangle-7" fill="#3B2469" x="66" y="27" width="15" height="18"></rect>
                    <rect id="Rectangle-7" fill="#3B2469" x="84" y="27" width="15" height="18"></rect>
                    <rect id="Rectangle-5" fill="#3B2469" x="0" y="0" width="105" height="6"></rect>
                    <rect id="Rectangle-5" fill="#736F9C" x="0" y="6" width="105" height="15"></rect>
                    <circle id="Oval-10" fill="#3B2469" cx="10.5" cy="13.5" r="4.5"></circle>
                    <rect id="Rectangle-6" fill="#FFFFFF" x="78" y="12" width="21" height="9"></rect>
                    <rect id="Rectangle-6" fill="#3B2469" x="18" y="9" width="39" height="3"></rect>
                    <rect id="Rectangle-6" fill="#CFD9DE" x="30" y="51" width="69" height="3"></rect>
                    <rect id="Rectangle-6" fill="#3B2469" x="30" y="84" width="42" height="3"></rect>
                    <rect id="Rectangle-6" fill="#3B2469" x="30" y="108" width="42" height="3"></rect>
                    <rect id="Rectangle-6" fill="#FFFFFF" x="7" y="27" width="16" height="2"></rect>
                    <rect id="Rectangle-6" fill="#FFFFFF" x="7" y="32" width="16" height="2"></rect>
                    <rect id="Rectangle-6" fill="#FFFFFF" x="7" y="37" width="16" height="2"></rect>
                    <rect id="Rectangle-6" fill="#FFFFFF" x="7" y="42" width="16" height="2"></rect>
                    <rect id="Rectangle-6" fill="#FFFFFF" x="7" y="47" width="16" height="2"></rect>
                    <rect id="Rectangle-6" fill="#CFD9DE" x="30" y="57" width="69" height="3"></rect>
                    <rect id="Rectangle-6" fill="#CFD9DE" x="30" y="90" width="69" height="3"></rect>
                    <rect id="Rectangle-6" fill="#CFD9DE" x="30" y="114" width="69" height="3"></rect>
                    <rect id="Rectangle-6" fill="#CFD9DE" x="30" y="120" width="69" height="3"></rect>
                    <rect id="Rectangle-6" fill="#CFD9DE" x="30" y="126" width="69" height="3"></rect>
                    <rect id="Rectangle-6" fill="#CFD9DE" x="30" y="63" width="69" height="3"></rect>
                    <rect id="Rectangle-6" fill="#CFD9DE" x="30" y="96" width="69" height="3"></rect>
                    <rect id="Rectangle-6" fill="#F3B607" x="30" y="69" width="69" height="6"></rect>
                    <rect id="Rectangle-6" fill="#3B2469" x="18" y="15" width="18" height="3"></rect>
                </g>
                <g id="hand" transform="translate(0.000000, 80.000000)">
                    <path d="M15.9317139,100 L52.7999758,100 C55.0008283,88.9315789 57.4565882,74.2157895 52.34706,59.3984962 L55.8884524,36.5894737 C56.4710979,32.8270677 54.2338301,29.1954887 50.5900195,27.9909774 C46.5115008,26.6443609 42.0961401,28.7827068 40.6668377,32.8022556 L30.2839122,57.7270677 C29.8628597,58.7398496 28.8682656,59.3984962 27.7621495,59.3984962 C26.2577405,59.3984962 25.0355504,58.187218 25.0355504,56.6962406 L25.0355504,0.751879699 C25.0355504,0.751879699 0,36.8421053 0,45.8646617 C0,54.887218 15.9317139,90.9774436 15.9317139,90.9774436 L15.9317139,100 Z" id="Fill-7223" fill="#FBC8C8"></path>
                    <path d="M49.5499062,30.2490977 C52.5951395,31.0137594 54.4409424,34.0791729 53.6693922,37.0994737 L53.3894492,38.1934586 L42.3578754,35.4235338 L42.6378183,34.3318045 C43.4093685,31.3115038 46.5046729,29.4844361 49.5499062,30.2490977" id="Fill-7225" fill="#FFFFFF"></path>
                    <path d="M25.0355504,0.751879699 C25.0355504,0.751879699 0,36.8421053 0,45.8646617 C0,50.5112782 4.2264561,62.337594 8.32773445,72.7180451 L25.0355504,56.1571429 L25.0355504,0.751879699 Z" id="Fill-7226" fill="#F7B4B4"></path>
                </g>
            </g>
        </g>
    </g>
</svg>