<svg xmlns="http://www.w3.org/2000/svg" xmlns:xlink="http://www.w3.org/1999/xlink" width="67" height="52" viewBox="0 0 67 52">
    <defs>
        <path id="tesj9h7gja" d="M1.674.866C.889.866.249 1.509.249 2.294v7.438c0 .785.64 1.428 1.425 1.428H12.35c.782 0 1.423-.643 1.423-1.428V2.294c0-.785-.64-1.428-1.423-1.428H1.674zM3.096 8.3h7.831V3.726h-7.83V8.3z"/>
        <path id="3rc5gax1kc" d="M1.452.866C.67.866.028 1.509.028 2.294v7.438c0 .785.642 1.428 1.424 1.428H12.13c.783 0 1.425-.643 1.425-1.428V2.294c0-.785-.642-1.428-1.425-1.428H1.452zM2.876 8.3h7.831V3.726H2.876V8.3z"/>
        <path id="kmvr5eclne" d="M1.958.4C1.175.4.533 1.044.533 1.83c0 .787.642 1.431 1.425 1.431h13.753c.783 0 1.424-.644 1.424-1.431 0-.786-.641-1.43-1.424-1.43H1.958z"/>
        <path id="4ls10slsrg" d="M26.44 27.026c-.784 0-1.426.644-1.426 1.43 0 .787.642 1.43 1.425 1.43h13.753c.782 0 1.424-.643 1.424-1.43 0-.786-.642-1.43-1.424-1.43H26.44z"/>
        <path id="kjpjw4cili" d="M15.562 0c-2.478 0-4.699 1.558-5.567 3.889L4.968 17.517l-2.092 1.945C1.054 21.022 0 23.308 0 25.71v20.107c.014 3.287 2.676 5.948 5.95 5.948H9.71c3.275 0 5.937-2.661 5.952-5.948v-2.918H50.97v2.918c.014 3.287 2.676 5.948 5.951 5.948h3.759c3.274 0 5.937-2.661 5.951-5.948V25.182c-.014-2.246-.925-4.39-2.55-5.949l-1.45-1.544-5.098-13.8C56.664 1.559 54.442.014 51.965 0H15.562zm-2.891 4.862c.456-1.216 1.609-2.002 2.891-2.002h36.417c1.282 0 2.435.801 2.891 2.002l4.442 12.012H8.229l4.442-12.012zM2.848 36.978V25.71c0-1.572.698-3.073 1.894-4.09l.056-.056 1.937-1.83h53.914l1.369 1.473c.012.028.056.042.07.072 1.067 1.013 1.68 2.43 1.68 3.903v11.796h.015c-.014 1.702-1.41 3.076-3.104 3.062H5.924c-1.682 0-3.062-1.355-3.077-3.062zm50.968 8.839v-2.918h6.863c1.125 0 2.25-.27 3.104-.83v3.748c-.014 1.715-1.396 3.088-3.104 3.088H56.92c-1.71 0-3.09-1.388-3.104-3.088zm-50.969 0v-3.748c.855.56 1.978.83 3.103.83h6.864v2.918c-.014 1.715-1.396 3.088-3.105 3.088H5.95c-1.707 0-3.088-1.373-3.103-3.088z"/>
    </defs>
    <g fill="none" fill-rule="evenodd">
        <g transform="translate(6.442 24.588)">
            <mask id="x18f7g89vb" fill="#fff">
                <use xlink:href="#tesj9h7gja"/>
            </mask>
            <path fill="#FF4722" d="M-6.194 17.631L20.216 17.631 20.216 -5.605 -6.194 -5.605z" mask="url(#x18f7g89vb)"/>
        </g>
        <g transform="translate(46.385 24.588)">
            <mask id="rchwb1dfkd" fill="#fff">
                <use xlink:href="#3rc5gax1kc"/>
            </mask>
            <path fill="#FF4722" d="M-6.414 17.631L19.997 17.631 19.997 -5.605 -6.414 -5.605z" mask="url(#rchwb1dfkd)"/>
        </g>
        <g transform="translate(24.48 31.059)">
            <mask id="sraouf6o3f" fill="#fff">
                <use xlink:href="#kmvr5eclne"/>
            </mask>
            <path fill="#FF4722" d="M-5.908 9.732L23.578 9.732 23.578 -6.069 -5.908 -6.069z" mask="url(#sraouf6o3f)"/>
        </g>
        <mask id="m48r6h6zzh" fill="#fff">
            <use xlink:href="#4ls10slsrg"/>
        </mask>
        <path fill="#FF4722" d="M18.573 36.357L48.058 36.357 48.058 20.556 18.573 20.556z" mask="url(#m48r6h6zzh)"/>
        <mask id="20l33nfboj" fill="#fff">
            <use xlink:href="#kjpjw4cili"/>
        </mask>
        <use fill="#8736C1" xlink:href="#kjpjw4cili"/>
        <path fill="#8736C1" d="M55.995 16.874c-.784-5.363-5.752-9.066-11.091-8.265-4.257.629-7.602 3.988-8.23 8.265h2.877c.782-3.76 4.456-6.164 8.2-5.377 2.678.572 4.77 2.674 5.34 5.377h2.904z" mask="url(#20l33nfboj)"/>
    </g>
</svg>
