<?xml version="1.0" encoding="UTF-8"?>
<svg width="60px" height="60px" viewBox="0 0 60 60" version="1.1" xmlns="http://www.w3.org/2000/svg" xmlns:xlink="http://www.w3.org/1999/xlink">
    <title>social media report_no circle</title>
    <defs>
        <linearGradient x1="32.4495197%" y1="100%" x2="78.226769%" y2="13.496748%" id="linearGradient-1">
            <stop stop-color="#FAD961" offset="0%"></stop>
            <stop stop-color="#F76B1C" offset="21.8146831%"></stop>
            <stop stop-color="#F94BA3" offset="62.427747%"></stop>
            <stop stop-color="#B94BF9" offset="100%"></stop>
        </linearGradient>
    </defs>
    <g id="social-media-report_no-circle" stroke="none" stroke-width="1" fill="none" fill-rule="evenodd">
        <g id="Group" transform="translate(1.000000, 0.000000)">
            <path d="M45.1576136,33.4598303 C41.1608264,33.4598303 37.6269008,35.4034665 35.4159504,38.3895902 L24.7207025,33.0331126 C24.3863636,34.8660182 23.6583678,36.5584851 22.6247934,38.0231892 L33.2436467,43.3418564 C33.1043388,44.0782595 33.0243492,44.8353684 33.0243492,45.6131829 C33.0243492,52.3254346 38.4564566,57.7665356 45.1576136,57.7665356 C51.8587707,57.7665356 57.2908781,52.3254346 57.2908781,45.6131829 C57.2908781,38.9009313 51.8587707,33.4598303 45.1576136,33.4598303" id="Fill-5125" fill="#006EB9"></path>
            <path d="M44.6785744,0 C37.7293595,0 32.0959298,5.64275662 32.0959298,12.6034768 C32.0959298,13.3812914 32.1759194,14.1393005 32.3107335,14.8775041 L20.3239669,20.8812603 C21.7467045,22.0560844 22.8944215,23.5459954 23.6916219,25.2339611 L34.4066426,19.8675807 C36.685,23.0940708 40.4319318,25.2069536 44.6785744,25.2069536 C51.6277893,25.2069536 57.261219,19.564197 57.261219,12.6034768 C57.261219,5.64275662 51.6277893,0 44.6785744,0" id="Fill-5126" fill="#FFFFFF"></path>
            <path d="M25.1652893,30.656457 C25.1652893,37.6171772 19.5318595,43.2599338 12.5826446,43.2599338 C5.63342975,43.2599338 0,37.6171772 0,30.656457 C0,23.6957368 5.63342975,18.0529801 12.5826446,18.0529801 C19.5318595,18.0529801 25.1652893,23.6957368 25.1652893,30.656457" id="Fill-5127" fill="#059BBF"></path>
            <path d="M51.9603306,18.5814259 C51.9603306,19.2440087 51.4237707,19.781457 50.7622831,19.781457 L38.7782128,19.781457 C38.1167252,19.781457 37.5801653,19.2440087 37.5801653,18.5814259 L37.5801653,6.57841474 C37.5801653,5.91493171 38.1167252,5.37748344 38.7782128,5.37748344 L50.7622831,5.37748344 C51.4237707,5.37748344 51.9603306,5.91493171 51.9603306,6.57841474 L51.9603306,18.5814259 Z" id="Fill-5128" fill="url(#linearGradient-1)"></path>
            <path d="M42.7609194,44.250207 L40.9714876,44.250207 C40.1518182,44.250207 39.4975207,43.6173324 39.4975207,42.7963059 C39.4975207,41.9770799 40.1518182,41.3198986 40.9714876,41.3198986 L42.7609194,41.3198986 L42.7609194,40.5231788 C42.7609194,39.1403974 43.1123347,38.1321192 43.767531,37.4758382 C44.4227273,36.8195571 45.3826033,36.4900662 46.6462603,36.4900662 C47.2079855,36.4900662 47.6996074,36.5143729 48.0968595,36.5845923 C48.7053202,36.6791184 49.313781,37.2174669 49.313781,38.0150869 C49.313781,38.8118067 48.6585847,39.4914942 47.8631818,39.4914942 L47.5585021,39.4914942 C46.7397314,39.4914942 46.2714773,39.9137107 46.2714773,40.8508692 L46.2714773,41.343305 L47.8164463,41.343305 C48.6352169,41.343305 49.2904132,41.9770799 49.2904132,42.7963059 C49.2904132,43.6173324 48.6352169,44.250207 47.8164463,44.250207 L46.3182128,44.250207 L46.3182128,52.12738 C46.3182128,53.1122517 45.5228099,53.9089714 44.5395661,53.9089714 C43.5563223,53.9089714 42.7609194,53.1122517 42.7609194,52.12738 L42.7609194,44.250207 Z" id="Fill-5129" fill="#FFFFFF"></path>
            <path d="M50.7622831,5.37748344 L38.7791116,5.37748344 C38.117624,5.37748344 37.5801653,5.91493171 37.5801653,6.57751449 L37.5801653,18.5814259 C37.5801653,18.8821089 37.7014979,19.1485824 37.8839463,19.3592405 L51.5397107,5.68176738 C51.3285021,5.49901697 51.062469,5.37748344 50.7622831,5.37748344" id="Fill-5130" fill="#FFFFFF" opacity="0.348938899"></path>
            <path d="M12.5826446,18.0529801 C5.63342975,18.0529801 0,23.6957368 0,30.656457 C0,34.1071089 1.38678719,37.2300704 3.62919421,39.5067984 L21.4183574,21.6881829 C19.1462913,19.4420633 16.027593,18.0529801 12.5826446,18.0529801" id="Fill-5131" fill="#21B2D1"></path>
            <path d="M16.5279029,24.5827815 C19.53875,24.5827815 19.53875,27.5986134 19.53875,27.5986134 L21.5465806,28.6041908 C21.5465806,28.6041908 21.5465806,29.6097682 18.5357335,30.6153456 C19.53875,33.6311776 16.0263946,37.6534872 12.0107335,37.6534872 C7.99597107,37.6534872 4.98512397,34.636755 4.98512397,30.6153456 C4.98512397,30.6153456 7.49446281,32.6256002 10.5053099,31.620923 C10.6014773,31.6857409 7.52951446,29.6754863 8.4983781,24.5827815 C8.4983781,24.5827815 10.5053099,27.5986134 13.5170558,27.5986134 C13.5170558,27.5986134 13.5170558,24.5827815 16.5279029,24.5827815" id="Fill-5132" fill="#FFFFFF"></path>
            <path d="M49.932994,12.7898579 C49.8599319,15.5423206 47.6088562,17.7520095 44.8415496,17.7520095 C42.0288512,17.7520095 39.7491736,15.4678815 39.7491736,12.6517901 C39.7491736,9.83569879 42.0288512,7.5515708 44.8415496,7.5515708 C47.6088562,7.5515708 49.8599319,9.76125974 49.932994,12.5137224 L49.9348244,12.6517901 L49.932994,12.7898579 Z M48.1353923,12.5382355 C48.0756629,10.7665879 46.6235929,9.34909146 44.8415496,9.34909146 C43.02238,9.34909146 41.5466942,10.8276581 41.5466942,12.6517901 C41.5466942,14.4759222 43.02238,15.9544888 44.8415496,15.9544888 C46.6235929,15.9544888 48.0756629,14.5369924 48.1353923,12.7653448 L48.1373037,12.6517901 L48.1353923,12.5382355 Z" id="Fill-5135" fill="#FFFFFF" fill-rule="nonzero"></path>
        </g>
    </g>
</svg>