<?xml version="1.0" encoding="UTF-8"?>
<svg width="80px" height="80px" viewBox="0 0 80 80" version="1.1" xmlns="http://www.w3.org/2000/svg" xmlns:xlink="http://www.w3.org/1999/xlink">
    <!-- Generator: Sketch 49.1 (51147) - http://www.bohemiancoding.com/sketch -->
    <title>assets/img_domain_amazon</title>
    <desc>Created with Sketch.</desc>
    <defs></defs>
    <g id="Freshness" stroke="none" stroke-width="1" fill="none" fill-rule="evenodd">
        <g id="Freeform-Icons" transform="translate(-480.000000, -1460.000000)">
            <g id="assets/img_domain_amazon" transform="translate(480.000000, 1460.000000)">
                <circle id="Oval-7" fill="#353167" cx="40" cy="40" r="40"></circle>
                <g id="amazon" transform="translate(18.000000, 21.000000)" fill-rule="nonzero">
                    <path d="M34.4526837,24.3493616 C33.517995,23.0459736 32.5153861,21.9855505 32.5153861,19.5601845 L32.5153861,11.50894 C32.5153861,8.09663982 32.7580946,4.9640776 30.2633686,2.61648316 C28.2996762,0.712734993 25.0376526,0.0410556369 22.5429265,0.0410556369 C17.6637609,0.0410556369 12.2208344,1.87571157 11.0794147,7.95520059 C10.9585928,8.60095608 11.4238356,8.93899414 11.8455915,9.03401025 L16.8138045,9.57607028 C17.2790473,9.55225915 17.6150062,9.09122548 17.7050623,8.62687994 C18.1310772,6.53195754 19.8712267,5.52555198 21.8265131,5.52555198 C22.8810149,5.52555198 24.0785305,5.91429575 24.7027024,6.86782577 C25.4212453,7.92927672 25.3248007,9.38815081 25.3248007,10.6137672 L25.3248007,11.2886442 C22.3532877,11.6234275 18.4660834,11.8458931 15.6830884,13.0757921 C12.4730697,14.4773939 10.2189228,17.3293045 10.2189228,21.521205 C10.2189228,26.8933836 13.573132,29.578959 17.891675,29.578959 C21.5362267,29.578959 23.530741,28.7118228 26.3422603,25.8222255 C27.2749315,27.1849414 27.5801245,27.841489 29.2810461,29.2679868 C29.6625093,29.4732079 30.1543151,29.4536794 30.4922914,29.1449341 L30.4934682,29.1437921 L30.5050685,29.156754 C31.5288045,28.2389122 33.3876463,26.6105051 34.4357597,25.7250966 C34.8543213,25.3784363 34.7801245,24.8179898 34.4526837,24.3493616 Z M24.3657908,22.0276911 C23.5519801,23.4854802 22.2557783,24.3773982 20.8155542,24.3773982 C18.8518057,24.3773982 17.6987298,22.8655915 17.6987298,20.6292299 C17.6987298,16.2267408 21.6177646,15.4276691 25.323792,15.4276691 L25.323792,16.5431376 L25.3248568,16.5431376 C25.3248568,18.5570337 25.3726027,20.2339766 24.3657908,22.0276911 Z" id="path3673" fill="#FFFFFF"></path>
                    <g id="g3717" transform="translate(0.025667, 28.430839)" fill="#FF9201">
                        <path d="M40.5543919,4.70399732 C35.6468979,8.39341616 28.5299993,10.3564151 22.400794,10.3564151 C13.8139415,10.3564151 6.07918965,7.12238776 0.226446775,1.73834232 C-0.232641367,1.31497788 0.177119463,0.736855162 0.728667635,1.06554119 C7.04416952,4.81013065 14.8527977,7.06417807 22.9176984,7.06417807 C28.358845,7.06417807 34.3389212,5.91471207 39.8413254,3.53512809 C40.6714008,3.17745411 41.3670306,4.09384759 40.5543919,4.70399732 Z" id="path3719"></path>
                        <path d="M42.5965426,2.32745241 C41.9692827,1.50947772 38.4459361,1.93985537 36.8658561,2.13435521 C36.3852016,2.19116226 36.3113253,1.7661614 36.7431114,1.45430709 C39.5527033,-0.556381753 44.1566622,0.0254813492 44.6921503,0.697581156 C45.2317681,1.37903192 44.5512807,6.08139282 41.9176611,8.32468664 C41.5124888,8.67090571 41.1277358,8.48856211 41.3066907,8.03176802 C41.8990773,6.52229029 43.2260967,3.14682974 42.5965426,2.32745241 Z" id="path3721"></path>
                    </g>
                </g>
            </g>
        </g>
    </g>
</svg>