<?xml version="1.0" encoding="UTF-8" standalone="no"?>
<svg width="125px" height="76px" viewBox="0 0 125 76" version="1.1" xmlns="http://www.w3.org/2000/svg" xmlns:xlink="http://www.w3.org/1999/xlink">
    <!-- Generator: Sketch 39.1 (31720) - http://www.bohemiancoding.com/sketch -->
    <title>assets/img_courtrunner_checkout_arrow</title>
    <desc>Created with Sketch.</desc>
    <defs></defs>
    <g id="Freshness" stroke="none" stroke-width="1" fill="none" fill-rule="evenodd">
        <g id="Freeform-Icons-(Dark-Background)" transform="translate(-816.000000, -33.000000)">
            <g id="assets/img_courtrunner_checkout_arrow" transform="translate(870.710678, 70.710678) rotate(-315.000000) translate(-870.710678, -70.710678) translate(820.710678, 20.710678)">
                <path d="M84.4858621,64.4005172 C85.2944828,65.2091379 86.4806897,65.5108621 87.5772414,65.1867241 C88.6755172,64.8625862 89.5065517,63.9625862 89.7444828,62.8436207 L99.797931,3.7712069 C100.018621,2.73672414 99.7013793,1.66258621 98.9531034,0.914310345 C98.2048276,0.166034483 97.1306897,-0.151206897 96.0962069,0.0677586207 L37.6375862,10.7367241 C36.5186207,10.9746552 35.6186207,11.8056897 35.2944828,12.9039655 C34.9703448,14.0005172 35.272069,15.1867241 36.0806897,15.9953448 L46.7358621,26.6505172 L0.913448276,72.4712069 C-0.303793103,73.6901724 -0.303793103,75.6660345 0.913448276,76.885 L22.9824138,98.9522414 C24.2013793,100.171207 26.1772414,100.171207 27.3962069,98.9522414 L73.2168966,53.1315517 L84.4858621,64.4005172 Z" id="Fill-2565" fill="#F0F1F1"></path>
                <path d="M37.6368966,10.7358621 C36.517931,10.9737931 35.6196552,11.8065517 35.2955172,12.9031034 C34.9696552,13.9996552 35.2713793,15.1858621 36.08,15.9962069 L46.7351724,26.6496552 L0.914482759,72.472069 C-0.304482759,73.6893103 -0.304482759,75.6651724 0.914482759,76.8858621 L11.2524138,87.2237931 L98.13,0.344482759 C97.5058621,0.035862069 96.7955172,-0.0813793103 96.0955172,0.0686206897 L37.6368966,10.7358621 Z" id="Fill-2566" fill="#FFFFFF"></path>
            </g>
        </g>
    </g>
</svg>