<?xml version="1.0" encoding="UTF-8"?>
<svg width="150px" height="150px" viewBox="0 0 150 150" version="1.1" xmlns="http://www.w3.org/2000/svg" xmlns:xlink="http://www.w3.org/1999/xlink">
    <!-- Generator: Sketch 49.2 (51160) - http://www.bohemiancoding.com/sketch -->
    <title>assets/img_address_generic_no_bg</title>
    <desc>Created with Sketch.</desc>
    <defs></defs>
    <g id="assets/img_address_generic_no_bg" stroke="none" stroke-width="1" fill="none" fill-rule="evenodd">
        <g id="Group-11">
            <g id="Group-10" transform="translate(60.740718, 44.526902)">
                <path d="M22.5715316,7.01233306 C22.5715316,3.44202078 17.8140179,0.547304044 11.9461521,0.547304044 C6.07828628,0.547304044 1.32077262,3.44202078 1.32077262,7.01233306 L1.32077262,103.987768 L22.5715316,103.987768 L22.5715316,7.01233306 Z" id="Fill-1707" fill="#84462D"></path>
                <path d="M11.7995219,103.987768 L1.17414238,103.987768 L1.17414238,7.01233306 C1.17414238,3.44202078 5.93165604,0.547304044 11.7995219,0.547304044 L11.7995219,103.987768 Z" id="Fill-1708" fill="#9C6144"></path>
            </g>
            <path d="M11.5394023,1.03856272 L131.906031,31.588015 C136.013103,32.6304036 138.888889,36.3272518 138.888889,40.5645404 L138.888889,58.5607748 C138.888889,63.6755558 134.74254,67.821905 129.627759,67.821905 C128.859469,67.821905 128.094166,67.7263023 127.349487,67.5373002 L6.98285807,36.987848 C2.87578599,35.9454594 5.18918197e-16,32.2486112 0,28.0113225 L1.77635684e-15,10.0150881 C1.14997682e-15,4.90030717 4.14634922,0.753957946 9.26113019,0.753957946 C10.0294196,0.753957946 10.7947233,0.84956071 11.5394023,1.03856272 Z" id="Rectangle-14" fill="#17B198"></path>
            <polygon id="Rectangle-3" fill="#C2F8F0" points="16.3636364 13.7128942 123.030303 40.9090909 123.030303 53.4670686 16.3636364 26.270872"></polygon>
            <path d="M62.4388702,51.0009786 L81.5120396,48.2711849 C83.2709928,48.0194397 84.900986,49.2412732 85.1527312,51.0002264 C85.1743398,51.1512067 85.1851852,51.3035326 85.1851852,51.4560514 L85.1851852,51.9546152 C85.1851852,53.7977718 83.8301384,55.3605638 82.0055742,55.6216994 L62.9324048,58.3514931 C61.1734516,58.6032383 59.5434585,57.3814048 59.2917132,55.6224516 C59.2701046,55.4714713 59.2592593,55.3191454 59.2592593,55.1666266 L59.2592593,54.6680628 C59.2592593,52.8249063 60.6143061,51.2621142 62.4388702,51.0009786 Z" id="Rectangle-2" fill="#999999" transform="translate(72.222222, 53.311339) scale(1, -1) translate(-72.222222, -53.311339) "></path>
            <path d="M18.6698042,65.3767787 L139.036433,42.866656 C144.064052,41.926426 148.901949,45.2399093 149.842179,50.2675282 C149.947168,50.8289269 150,51.3988339 150,51.9699653 L150,70.2323424 C150,74.6905796 146.82357,78.5161115 142.441307,79.3356517 L22.0746784,101.845774 C17.0470595,102.786004 12.209162,99.4725211 11.268932,94.4449022 C11.1639432,93.8835035 11.1111111,93.3135965 11.1111111,92.7424651 L11.1111111,74.480088 C11.1111111,70.0218509 14.2875408,66.1963189 18.6698042,65.3767787 Z" id="Rectangle-14" fill="#0D9681"></path>
            <path d="M63.404589,46.9900364 L81.9216107,49.2095761 C83.7836678,49.4327712 85.1851852,51.0123136 85.1851852,52.8876995 L85.1851852,53.8099027 C85.1851852,55.6530593 83.8301384,57.2158514 82.0055742,57.476987 L63.4885524,60.1271836 C61.4632777,60.4170453 59.5864888,59.0102152 59.2966271,56.9849405 C59.2717467,56.8111003 59.2592593,56.6357109 59.2592593,56.4600993 L59.2592593,50.6681599 C59.2592593,48.6222475 60.9177989,46.9637078 62.9637113,46.9637078 C63.1110634,46.9637078 63.2582842,46.9724996 63.404589,46.9900364 Z" id="Rectangle-2" fill="#CFD9DE"></path>
            <path d="M62.4388702,89.9620175 L80.955892,87.3118209 C82.9811667,87.0219592 84.8579556,88.4287894 85.1478174,90.4540641 C85.1726978,90.6279043 85.1851852,90.8032936 85.1851852,90.9789052 L85.1851852,94.1337886 C85.1851852,96.179701 83.5266455,97.8382407 81.4807331,97.8382407 L62.9637113,97.8382407 C60.9177989,97.8382407 59.2592593,96.179701 59.2592593,94.1337886 L59.2592593,93.6291018 C59.2592593,91.7859452 60.6143061,90.2231531 62.4388702,89.9620175 Z" id="Rectangle-2" fill="#CFD9DE"></path>
            <path d="M98.3333333,62.3250522 L98.3333333,74.8830299 L66.3333333,81.0423527 L66.3333333,68.484375 L98.3333333,62.3250522 Z M104.333333,61.1701792 L131.666667,55.9090909 L131.666667,68.4670686 L104.333333,73.7281569 L104.333333,61.1701792 Z M60.3333333,69.639248 L60.3333333,82.1972258 L25,88.9981447 L25,76.440167 L60.3333333,69.639248 Z" id="Combined-Shape" fill-opacity="0.6" fill="#C2F8F0"></path>
        </g>
    </g>
</svg>