<svg xmlns="http://www.w3.org/2000/svg" width="18" height="24" viewBox="0 0 18 24">
    <g fill="none">
        <path fill="#D6D9DA" d="M4.537 20.182c0 .26.048.51.13.743.306.866 1.13 1.487 2.102 1.487h.744v.744c0 .41.333.743.743.743h1.487c.413 0 .744-.333.744-.743v-.744h.744c.97 0 1.794-.621 2.1-1.487.084-.233.131-.483.131-.743v-3.72H4.537v3.72z"/>
        <path fill="#EFBF0C" d="M4.537 16.463h8.925c2.462-1.59 4.463-4.29 4.463-7.438C17.925 4.096 13.929.1 9 .1S.075 4.096.075 9.025c0 3.148 1.86 5.95 4.462 7.438z"/>
        <path fill="#FFF" d="M4.537 19.066H9V20.180999999999997H4.537zM4.537 17.206H9V18.320999999999998H4.537zM6.769 22.412H9v-1.487H4.667c.306.866 1.13 1.487 2.102 1.487z"/>
        <path fill="#CACCCC" d="M7.513 22.412v.744c0 .41.333.743.743.743H9v-1.487H7.513z"/>
        <path fill="#ABAEB0" d="M10.487 22.412v.744c0 .41-.332.743-.744.743H9v-1.487h1.487zM4.537 16.463H13.462V17.463H4.537zM4.537 18.322H13.462V19.322H4.537zM9 20.182H4.537c0 .26.048.51.13.743h8.665c.084-.233.13-.483.13-.743H9z"/>
        <path fill="#CACCCC" d="M4.537 20.182c0 .26.048.51.13.743H9v-.743H4.537zM4.537 16.463H9V17.463H4.537zM4.537 18.322H9V19.322H4.537z"/>
        <path fill="#FFCB0B" d="M4.537 16.463H9V.1C4.071.1.075 4.096.075 9.025c0 3.148 1.86 5.95 4.462 7.438z"/>
    </g>
</svg>
