<?xml version="1.0" encoding="UTF-8"?>
<svg width="83px" height="84px" viewBox="0 0 83 84" version="1.1" xmlns="http://www.w3.org/2000/svg" xmlns:xlink="http://www.w3.org/1999/xlink">
    <!-- Generator: Sketch 63.1 (92452) - https://sketch.com -->
    <title>Sucess@2x</title>
    <desc>Created with Sketch.</desc>
    <g id="Sucess" stroke="none" stroke-width="1" fill="none" fill-rule="evenodd">
        <g id="assets/img_success">
            <path d="M0.178709375,77.8559292 C0.4471625,77.2547857 16.7670375,40.6513921 20.2984281,32.7311313 C19.386725,37.4817264 24.8686156,46.0759966 30.8355375,52.061408 C38.0863656,59.3362853 46.2242563,63.6028428 50.4391,62.5150593 C43.1325063,65.7966262 5.69302187,82.567489 5.12758438,82.8199172 C4.09138125,83.2974489 2.52994375,82.7990984 1.37183437,81.6241361 C0.20075625,80.4608844 -0.295946875,78.8955691 0.178709375,77.8559292" id="Fill-7044" fill="#8736C1"></path>
            <path d="M0.178709375,77.8559292 C0.4471625,77.2547857 16.7670375,40.6513921 20.2984281,32.7311313 C19.3880219,37.4765217 24.8595375,46.0590813 30.8186781,52.0444927 L1.354975,81.6059196 C0.196865625,80.4452702 -0.29465,78.8890633 0.178709375,77.8559292" id="Fill-7045" fill="#B154F4"></path>
            <path d="M27.234375,17.9410494 C27.234375,19.3788493 28.3950781,20.5434022 29.828125,20.5434022 C31.2611719,20.5434022 32.421875,19.3788493 32.421875,17.9410494 C32.421875,16.5045506 31.2611719,15.3386966 29.828125,15.3386966 C28.3950781,15.3386966 27.234375,16.5045506 27.234375,17.9410494" id="Fill-7046" fill="#C33F72"></path>
            <path d="M47.984375,23.145755 C47.984375,24.583555 49.1450781,25.7481079 50.578125,25.7481079 C52.0111719,25.7481079 53.171875,24.583555 53.171875,23.145755 C53.171875,21.7092563 52.0111719,20.5434022 50.578125,20.5434022 C49.1450781,20.5434022 47.984375,21.7092563 47.984375,23.145755" id="Fill-7047" fill="#FF4722"></path>
            <path d="M72.625,33.5551663 C72.625,34.9929662 73.7857031,36.1575191 75.21875,36.1575191 C76.6517969,36.1575191 77.8125,34.9929662 77.8125,33.5551663 C77.8125,32.1186676 76.6517969,30.9528135 75.21875,30.9528135 C73.7857031,30.9528135 72.625,32.1186676 72.625,33.5551663" id="Fill-7048" fill="#8736C1"></path>
            <path d="M73.921875,62.1810473 C73.921875,63.6188473 75.0825781,64.7834001 76.515625,64.7834001 C77.9486719,64.7834001 79.109375,63.6188473 79.109375,62.1810473 C79.109375,60.7445486 77.9486719,59.5786945 76.515625,59.5786945 C75.0825781,59.5786945 73.921875,60.7445486 73.921875,62.1810473" id="Fill-7049" fill="#C33F72"></path>
            <path d="M44.09375,4.92941542 C44.09375,6.36591418 45.2544531,7.53176824 46.6875,7.53176824 C48.1205469,7.53176824 49.28125,6.36591418 49.28125,4.92941542 C49.28125,3.49291667 48.1205469,2.3270626 46.6875,2.3270626 C45.2544531,2.3270626 44.09375,3.49291667 44.09375,4.92941542" id="Fill-7050" fill="#8736C1"></path>
            <polygon id="Fill-7051" fill="#FF4722" points="64.6844938 4.47673615 59.5579469 7.09730544 55.4909469 3.01551504 56.3909781 8.71727007 51.2644313 11.3378394 56.9473375 12.2408558 57.8473688 17.9413096 60.4579781 12.7977593 66.1408844 13.7007757 62.0725875 9.6202865"></polygon>
            <polygon id="Fill-7052" fill="#FF4722" points="63.5922656 47.8681068 62.3563438 51.6831561 58.359375 51.6831561 61.5937813 53.8379042 60.3578594 57.5514617 63.5922656 55.1429841 66.8266719 57.4746923 65.59075 53.850916 68.8251563 51.6831561 64.8281875 51.6831561"></polygon>
            <path d="M54.46875,34.8563427 C67.3869219,34.8563427 70.1025781,26.6159925 72.2839219,19.995607 C74.1008437,14.486426 75.5351875,10.1339909 81.703125,10.1339909 C82.419,10.1339909 83,9.55106391 83,8.83281453 C83,8.11456516 82.419,7.53163812 81.703125,7.53163812 C73.6612031,7.53163812 71.7094063,13.453292 69.8224531,19.1797693 C67.6060938,25.9029479 65.5129375,32.2539899 54.46875,32.2539899 C53.752875,32.2539899 53.171875,32.8369169 53.171875,33.5551663 C53.171875,34.2734157 53.752875,34.8563427 54.46875,34.8563427" id="Fill-7053" fill="#8736C1"></path>
            <path d="M37.1227875,27.4547301 C46.2112875,20.159034 42.9833656,15.2757189 39.8617875,10.5511473 C38.1161938,7.91236159 36.3122406,5.1811923 36.3122406,1.71615952 C36.3122406,0.997910145 35.7312406,0.414983114 35.0153656,0.414983114 C34.2994906,0.414983114 33.7184906,0.997910145 33.7184906,1.71615952 C33.7184906,5.96580168 35.8336938,9.16669564 37.6998969,11.9902485 C40.7345844,16.5807988 42.7395531,19.613841 35.5016938,25.4235937 C34.9427406,25.8724996 34.8519594,26.6909395 35.2993813,27.2517466 C35.7506938,27.8164571 36.5664281,27.9023348 37.1227875,27.4547301" id="Fill-7054" fill="#FF4722"></path>
            <path d="M81.703125,50.4704596 C82.419,50.4704596 83,49.8875326 83,49.1692832 C83,48.4510339 82.419,47.8681068 81.703125,47.8681068 C77.9966563,47.8681068 75.0384844,45.8890175 72.1775781,43.974987 C67.5581094,40.884693 62.7804219,37.6877026 56.1456094,44.3458223 C55.6385312,44.8532811 55.6385312,45.6782269 56.1456094,46.1856857 C56.6513906,46.6944457 57.4736094,46.6944457 57.9793906,46.1856857 C63.111125,41.0382318 66.1445156,43.068067 70.7380469,46.1401446 C73.7727344,48.1699797 77.21075,50.4704596 81.703125,50.4704596" id="Fill-7055" fill="#C33F72"></path>
            <path d="M21.0360906,75.6504352 C9.21248125,80.996969 23.4469812,74.5886752 11.6129969,79.9104867 C8.73134062,76.9099739 6.00271563,73.6960682 3.54384062,70.3065037 C4.92112187,67.2175109 6.600575,63.4519063 8.36302812,59.4989324 C11.767325,65.5259815 16.0962938,71.0078377 21.0360906,75.6504352" id="Fill-7056" fill="#C33F72"></path>
            <path d="M14.4386281,68.4788713 L7.54444063,75.3972262 C6.1503,73.7499369 4.81062813,72.0519017 3.54358125,70.3070241 C4.9208625,67.2180313 6.60031563,63.4524268 8.36276875,59.4981517 C10.1472688,62.657408 12.1911438,65.6618243 14.4386281,68.4788713" id="Fill-7057" fill="#F3508F"></path>
            <path d="M30.8354078,52.0617984 C39.2391578,60.4921203 48.8477047,64.9018072 52.1404703,61.5929156 C55.4072984,58.3152522 51.1457672,48.7490033 42.6382672,40.2015754 C34.1190953,31.6671593 24.5870641,27.4058066 21.3176422,30.6678559 C17.5165016,34.4803027 23.8595172,45.0627705 30.8354078,52.0617984" id="Fill-7058" fill="#9C9B9B"></path>
            <path d="M20.9157406,37.521152 C20.2841625,35.7125168 20.0416469,34.0743357 20.2984281,32.734124 L13.0216625,49.0808032 C14.8450688,53.032476 17.2066781,57.0036664 20.0364594,60.8499439 C22.9842563,64.8497601 26.3003656,68.5164753 29.83435,71.7459951 L39.6931938,67.3272 C35.7844125,64.3995531 32.0792406,60.6703815 28.9485844,56.4012217 C24.3135531,50.1074314 21.5084125,43.4597211 20.9157406,37.521152 Z" id="Fill-7059" fill="#C33F72"></path>
            <path d="M30.8191969,52.0443626 C23.8497906,45.0453347 17.5184469,34.4771799 21.3182906,30.6686366 C24.5864156,27.4065873 34.1132594,31.6640365 42.6298375,40.1945491 L30.8191969,52.0443626 Z" id="Fill-7060" fill="#C6C5C5"></path>
            <path d="M20.2979094,32.7338638 L13.0211437,49.080543 C14.84455,53.0322158 17.2061594,57.0034062 20.0372375,60.8496836 C20.3212531,61.2348318 20.623425,61.6017636 20.9152219,61.9817071 L27.9339094,54.9384392 C23.9110031,49.080543 21.4586125,42.9936398 20.9113312,37.5091812 C20.2836437,35.7057507 20.042425,34.0714731 20.2979094,32.7338638" id="Fill-7061" fill="#F3508F"></path>
        </g>
    </g>
</svg>