<svg xmlns="http://www.w3.org/2000/svg" width="28" height="28" viewBox="0 0 28 28">
    <g fill="none" fill-rule="evenodd">
        <g fill-rule="nonzero">
            <g>
                <g>
                    <path fill="#FF4722" d="M13.876 3.654H5.19c-.828 0-1.498.67-1.498 1.498v4.944c0 .827.67 1.498 1.498 1.498h8.687c.827 0 1.499-.672 1.499-1.498V5.152c0-.827-.672-1.498-1.499-1.498zM5.19 4.832h8.687c.176 0 .32.144.32.32v4.944c0 .175-.144.32-.32.32H5.19c-.176 0-.32-.144-.32-.32V5.152c0-.176.144-.32.32-.32zM19.327 14.43c1.398 0 2.543 1.075 2.654 2.445l.009.218v3.294H20.81v-3.294c0-.766-.578-1.395-1.322-1.475l-.162-.01h-2.045V14.43h2.045z" transform="translate(-59.000000, -1722.000000) translate(39.000000, 336.000000) translate(20.000000, 1386.000000)"/>
                    <path fill="#FF4722" d="M21.997 1.057l4.87 4.87c.56.56.903 1.299.973 2.081l.013.296v11.78c0 1.856-1.367 3.458-3.177 3.631-2.003.191-3.727-1.307-3.857-3.266l-.008-.238h1.179c0 1.38 1.185 2.463 2.574 2.33 1.118-.106 2-1.07 2.1-2.235l.01-.221V8.304c0-.506-.177-.994-.495-1.383l-.145-.16-4.87-4.87.833-.834z" transform="translate(-59.000000, -1722.000000) translate(39.000000, 336.000000) translate(20.000000, 1386.000000)"/>
                    <path fill="#FF4722" d="M25.312 5.7c-1.255 0-2.274 1.019-2.274 2.274 0 1.256 1.019 2.275 2.274 2.275 1.256 0 2.275-1.018 2.275-2.275 0-1.256-1.019-2.274-2.275-2.274zm0 1.179c.605 0 1.096.49 1.096 1.095s-.49 1.096-1.096 1.096c-.604 0-1.095-.491-1.095-1.096 0-.604.491-1.095 1.095-1.095z" transform="translate(-59.000000, -1722.000000) translate(39.000000, 336.000000) translate(20.000000, 1386.000000)"/>
                    <path fill="#8736C1" d="M15.632 1.08c1.168 0 2.127.895 2.23 2.035l.01.204v23.552h-1.18V3.32c0-.536-.399-.98-.916-1.05l-.144-.01H3.328c-.536 0-.98.4-1.05.916l-.01.144v23.552H1.09V3.32c0-1.167.894-2.127 2.036-2.23l.203-.009h12.304z" transform="translate(-59.000000, -1722.000000) translate(39.000000, 336.000000) translate(20.000000, 1386.000000)"/>
                    <path fill="#8736C1" d="M18.224 25.787c.325 0 .59.264.59.59 0 .284-.203.522-.471.577l-.12.012H.738c-.326 0-.59-.264-.59-.59 0-.285.202-.522.471-.577l.119-.012h17.487z" transform="translate(-59.000000, -1722.000000) translate(39.000000, 336.000000) translate(20.000000, 1386.000000)"/>
                </g>
            </g>
        </g>
    </g>
</svg>
