<?xml version="1.0" encoding="UTF-8"?>
<svg width="26px" height="40px" viewBox="0 0 26 40" version="1.1" xmlns="http://www.w3.org/2000/svg" xmlns:xlink="http://www.w3.org/1999/xlink">
    <!-- Generator: Sketch 52.6 (67491) - http://www.bohemiancoding.com/sketch -->
    <title>darkpin</title>
    <desc>Created with Sketch.</desc>
    <defs>
        <polygon id="path-1" points="0 0.227272727 25.9532598 0.227272727 25.9532598 39.6969091 0 39.6969091"></polygon>
    </defs>
    <g id="Symbols" stroke="none" stroke-width="1" fill="none" fill-rule="evenodd">
        <g id="dark_pin">
            <g id="darkpin">
                <path d="M2.29869885,20.8211515 C-0.0221747126,16.8235758 -0.173393103,11.9450909 1.89405517,7.77175758 C3.84943448,3.82539394 7.37138851,1.29842424 11.5567908,0.839939394 C12.0194115,0.784181818 12.5026529,0.757515152 13.0387908,0.757515152 C13.2659172,0.757515152 13.5091816,0.759939394 13.750354,0.777515152 C18.0508138,1.00448485 21.8533885,3.52327273 23.9304,7.51509091 C26.1759632,11.8302424 26.0322161,16.8735758 23.5460782,21.005697 L12.7886529,38.8884242 L2.29869885,20.8211515 Z" id="Fill-1" fill="#353167"></path>
                <g id="Group-5" transform="translate(0.000000, 0.075758)">
                    <mask id="mask-2" fill="white">
                        <use xlink:href="#path-1"></use>
                    </mask>
                    <g id="Clip-4"></g>
                    <path d="M13.038492,0.227212121 C12.524469,0.227212121 12.0134345,0.251454545 11.508377,0.312060606 C2.05274483,1.34842424 -3.0067954,12.5029697 1.91228506,20.975697 L12.7814805,39.6969091 L23.9286069,21.1669091 C29.1794115,12.4393333 23.6596414,0.769636364 13.7826299,0.248424242 C13.5345839,0.230242424 13.2865379,0.227212121 13.038492,0.227212121 M13.038492,1.13630303 C13.2578483,1.13630303 13.4921471,1.13872727 13.7180782,1.15539394 L13.7270437,1.15569697 L13.7360092,1.15630303 C17.8685149,1.37448485 21.5312276,3.80236364 23.5341241,7.65145455 C25.7049747,11.8235758 25.566308,16.6990303 23.1632506,20.6932727 L12.7952276,37.9284242 L2.68481379,20.5144848 C0.441641379,16.6505455 0.295503448,11.9350909 2.29451494,7.90024242 C4.18026207,4.09418182 7.57371034,1.65781818 11.6138713,1.21478788 C12.054377,1.16206061 12.5202851,1.13630303 13.038492,1.13630303" id="Fill-3" fill="#353167" mask="url(#mask-2)"></path>
                </g>
            </g>
        </g>
    </g>
</svg>