<svg xmlns="http://www.w3.org/2000/svg" xmlns:xlink="http://www.w3.org/1999/xlink" width="56" height="56" viewBox="0 0 56 56">
    <defs>
        <path id="ig29tyqina" d="M0 56L56 56 56 0 0 0z"/>
    </defs>
    <g fill="none" fill-rule="evenodd">
        <g>
            <g>
                <g transform="translate(-643.000000, -191.000000) translate(610.000000, 191.000000) translate(33.000000, 0.000000)">
                    <path fill="#FF4722" d="M33.582 18.191H22.418c-.396 0-.718-.32-.718-.716 0-.396.322-.716.718-.716h11.164c.395 0 .716.32.716.716 0 .396-.32.716-.716.716M33.582 24.563H22.418c-.396 0-.718-.32-.718-.716 0-.396.322-.716.718-.716h11.164c.395 0 .716.32.716.716 0 .396-.32.716-.716.716M33.582 30.935H22.418c-.396 0-.718-.32-.718-.716 0-.396.322-.716.718-.716h11.164c.395 0 .716.32.716.716 0 .396-.32.716-.716.716"/>
                    <path fill="#8736C1" d="M19.707 11.957c-.559 0-1.01.453-1.01 1.012v30.062c0 .559.451 1.012 1.01 1.012H36.86c.559 0 1.012-.453 1.012-1.012V12.969c0-.559-.453-1.012-1.012-1.012H19.707zM36.86 45.475H19.707c-1.349 0-2.444-1.096-2.444-2.444V12.969c0-1.346 1.095-2.444 2.444-2.444H36.86c1.349 0 2.444 1.098 2.444 2.444v30.062c0 1.348-1.095 2.444-2.444 2.444z"/>
                    <mask id="m8np148jhb" fill="#fff">
                        <use xlink:href="#ig29tyqina"/>
                    </mask>
                    <path fill="#8736C1" d="M17.752 37.323L38.361 37.323 38.361 35.89 17.752 35.89zM30.378 41.399h-4.756c-.395 0-.718-.32-.718-.717 0-.395.323-.716.718-.716h4.756c.396 0 .716.32.716.716 0 .396-.32.717-.716.717" mask="url(#m8np148jhb)"/>
                    <path fill="#FF4722" d="M17.979 50.061c-2.924 0-5.304-2.378-5.304-5.302 0-.395.323-.716.716-.716.396 0 .718.32.718.716 0 2.133 1.737 3.87 3.87 3.87.396 0 .716.32.716.716 0 .396-.32.716-.716.716M17.979 55.463c-5.902 0-10.706-4.803-10.706-10.704 0-.394.322-.715.718-.715.396 0 .716.32.716.715 0 5.112 4.16 9.271 9.272 9.271.396 0 .716.32.716.716 0 .396-.32.717-.716.717M43.173 11.957c-.396 0-.716-.32-.716-.716 0-2.132-1.736-3.87-3.87-3.87-.394 0-.716-.32-.716-.715 0-.396.322-.717.716-.717 2.924 0 5.302 2.378 5.302 5.302 0 .396-.32.716-.716.716M48.574 11.957c-.396 0-.716-.32-.716-.716 0-5.112-4.16-9.271-9.27-9.271-.396 0-.718-.32-.718-.717 0-.395.322-.716.718-.716C44.49.537 49.29 5.34 49.29 11.241c0 .396-.32.716-.716.716" mask="url(#m8np148jhb)"/>
                </g>
            </g>
        </g>
    </g>
</svg>
