<svg xmlns="http://www.w3.org/2000/svg" xmlns:xlink="http://www.w3.org/1999/xlink" width="60" height="60" viewBox="0 0 60 60">
    <defs>
        <path id="cw0e2q9z5a" d="M0.194 0.097L1.854 0.097 1.854 3.213 0.194 3.213z"/>
    </defs>
    <g fill="none" fill-rule="evenodd">
        <circle cx="30" cy="30" r="30" fill="#282426"/>
        <g transform="translate(6 27.45)">
            <mask id="fxag8ddz8b" fill="#fff">
                <use xlink:href="#cw0e2q9z5a"/>
            </mask>
            <path fill="#FFF" d="M1.058.097c0 .576-.356.744-.864.811v.66h.694v1.645h.932V.097h-.762z" mask="url(#fxag8ddz8b)"/>
        </g>
        <path fill="#FFF" d="M10.428 28.359L10.428 27.548 8.328 27.548 8.328 30.662 10.393 30.662 10.393 29.985 9.26 29.985 9.26 28.359zM10.936 27.547L10.936 28.358 11.749 28.358 11.749 30.663 12.697 30.663 12.697 28.358 13.51 28.358 13.51 27.547zM16.372 29.68c0 .373-.084.475-.321.475h-.22v-1.897h.22c.237 0 .321.102.321.472v.95zm-.152-2.133h-1.338v3.116h1.998c-.118-.051-.254-.085-.423-.119v-.017c.542-.135.847-.304.864-.846v-1c0-.677-.356-1.134-1.101-1.134zM19.945 28.359L19.945 27.548 17.845 27.548 17.845 30.662 19.895 30.662 19.895 29.985 18.794 29.985 18.794 28.359zM22.909 29.816v-1.033c0-.832-.322-1.304-1.202-1.304-.881 0-1.254.472-1.254 1.251v1.933h2.422c-.101-.559-.457-.662-.779-.662-.254 0-.525.135-.694.306v-1.676c0-.22.034-.407.288-.407s.288.186.288.407v1.185h.931zM23.4 27.547L23.4 28.291 25.06 28.291 24.45 30.663 25.433 30.663 26.008 28.326 26.008 27.547zM27.77 27.48c-.813 0-1.254.304-1.254 1.286v1.015h.932v-.947c.017-.256-.05-.611.322-.611.305 0 .237.423.254.863v.578c0 .373-.085.66-.576.625v.374h.779v-.017c.627-.135.745-.525.745-.914v-1.033c0-.695-.305-1.22-1.202-1.22M32.545 28.359L32.545 27.548 30.445 27.548 30.445 30.662 32.495 30.662 32.495 29.985 31.394 29.985 31.394 28.359zM33.968 27.547L33.968 28.358 34.78 28.358 34.78 30.663 35.729 30.663 35.729 28.358 36.543 28.358 36.543 27.547zM39.439 29.748c0 .237-.068.407-.407.407h-.17v-1.863h.22c.221 0 .357.068.357.322v1.134zm-.271-2.201h-1.254v3.116h2.083c-.152-.103-.355-.153-.541-.171v-.015c.795-.102.914-.492.914-.949v-.897c0-.815-.457-1.084-1.202-1.084zM43.485 29.816v-1.033c0-.832-.321-1.304-1.219-1.304-.88 0-1.236.472-1.236 1.251v1.933h2.422c-.102-.559-.475-.662-.796-.662-.254 0-.525.135-.695.306v-1.676c0-.22.034-.407.29-.407.27 0 .286.186.286.407v1.185h.948zM43.977 27.547L43.977 28.291 45.653 28.291 45.044 30.663 46.009 30.663 46.585 28.326 46.585 27.547zM48.6 29.781c0 .271-.102.375-.253.375-.237 0-.322-.068-.322-.409V28.63c.017-.22.068-.407.305-.407.203 0 .27.085.27.407v1.151zm.95-.22l-.018-.879c0-.914-.643-1.202-1.253-1.202-.491 0-1.187.235-1.187 1.202v.982c.019.473.135.88.764.915v.015c-.085.017-.153.053-.22.07h1.353c-.05-.036-.117-.053-.185-.07v-.015c.593-.036.745-.577.745-1.018zM51.717 29.9c-.254 0-.508.119-.695.271v-1.88h1.423v-.745h-2.37v3.116h2.387c-.05-.423-.237-.762-.745-.762M52.936 28.817v.982h.948v-1.1c0-.288.085-.476.322-.476.186 0 .254.137.254.476v.575c0 .424-.237.881-.508 1.39h1c.236-.509.44-1.086.44-1.745 0-.747-.187-1.44-1.084-1.44-.949 0-1.372.356-1.372 1.338zM6.194 26.497L13.508 26.497 13.508 25.499 6.194 25.499zM14.888 26.497L28.963 26.497 28.963 25.499 14.888 25.499zM30.45 26.497L55.396 26.497 55.396 25.499 30.45 25.499z"/>
        <path fill="#F0F0F0" d="M6.194 35.918L13.508 35.918 13.508 34.922 6.194 34.922zM14.888 35.918L28.963 35.918 28.963 34.922 14.888 34.922zM30.45 35.918L55.396 35.918 55.396 34.922 30.45 34.922zM6.888 33.847L7.819 33.847 7.819 30.663 6.888 30.663zM10.394 30.663L10.394 30.815 9.259 30.815 9.259 33.847 8.327 33.847 8.327 30.663zM11.748 33.847L12.697 33.847 12.697 30.663 11.748 30.663zM16.406 32.61c0 .39-.118.49-.39.49h-.186v-2.184h.187c.27 0 .39.103.39.491v1.203zm.474-1.946h-1.998v3.182h1.32c.797 0 1.136-.574 1.136-1.321v-1c0-.506-.153-.726-.458-.861zM19.963 33.033L19.963 33.846 17.846 33.846 17.846 30.664 19.895 30.664 19.895 30.814 18.794 30.814 18.794 33.033zM21.978 32.763c0 .185-.017.405-.271.405-.305 0-.305-.27-.305-.523v-1.406c0-.188.05-.372.271-.372.254 0 .305.135.305.372v1.524zm.898-2.1h-2.422v2.1c0 .76.406 1.167 1.22 1.167 1.05 0 1.235-.59 1.235-1.253v-1.675c0-.135-.017-.239-.033-.339zM25.433 30.663L24.637 33.847 23.638 33.847 24.451 30.663zM28.972 31.578v1.066c0 1.015-.508 1.288-1.236 1.288-1.016 0-1.22-.593-1.22-1.508v-.897h.932v.965c0 .627.152.676.254.676.186 0 .322-.032.322-.491v-1.135c0-.37-.153-.506-.44-.506h-.136v-.373h.779v.017c.694.235.745.508.745.898M32.563 33.033L32.563 33.846 30.446 33.846 30.446 30.664 32.495 30.664 32.495 30.814 31.394 30.814 31.394 33.033zM34.781 33.847L35.729 33.847 35.729 30.663 34.781 30.663zM40.489 33.847h-.932c-.17-.712-.118-1.66-.118-2.405 0-.373-.136-.525-.576-.508v2.913h-.95v-3.184h2.085c.186.101.32.288.338.592.068.847 0 1.728.153 2.592M42.538 32.763c0 .185 0 .405-.271.405-.305 0-.305-.27-.305-.523v-1.406c0-.188.05-.372.27-.372.255 0 .306.135.306.372v1.524zm.914-2.1h-2.421v2.1c0 .76.406 1.167 1.202 1.167 1.067 0 1.253-.59 1.253-1.253v-1.675c0-.135-.017-.239-.034-.339zM46.009 30.663L45.213 33.847 44.214 33.847 45.044 30.663zM48.6 32.712c0 .185 0 .457-.27.457-.188 0-.305-.152-.305-.457v-1.355c0-.154.05-.339.288-.339.237 0 .288.185.288.34v1.354zm.389-2.05h-1.353c-.476.204-.544.526-.544.932v1.186c0 .743.459 1.151 1.187 1.151.78 0 1.27-.408 1.27-1.034v-1.574c0-.203-.137-.49-.56-.66zM52.496 31.103v1.524c0 .728-.237 1.304-1.254 1.304-.626 0-1.202-.254-1.202-1.084v-1.32h.948v1.185c0 .237.017.457.322.457.237 0 .254-.22.254-.457v-1.575c0-.237-.05-.424-.288-.424-.152 0-.237.051-.27.187h-.932v-.238h2.388c.034.136.034.288.034.44M55.358 33.1v.746h-2.422v-.39c0-1.116.559-2.013 1.016-2.792h1c-.407.846-.95 1.573-.983 2.437h1.389z"/>
    </g>
</svg>
