<svg xmlns="http://www.w3.org/2000/svg" width="76" height="74" viewBox="0 0 76 74">
    <g fill="none" fill-rule="nonzero">
        <path fill="#0484AB" d="M60.522 31.635c0 16.091-12.844 29.135-28.687 29.135-15.844 0-28.688-13.044-28.688-29.135 0-16.092 12.844-29.136 28.688-29.136 15.843 0 28.687 13.044 28.687 29.136"/>
        <path fill="#059BBF" d="M31.834 2.499c-15.843 0-28.687 13.045-28.687 29.136a29.271 29.271 0 0 0 7.99 20.163l40.872-40.873c-5.182-5.209-12.308-8.426-20.175-8.426"/>
        <path fill="#6FDAF1" d="M45.222 39.89c0 1.072-.857 1.942-1.912 1.942-1.057 0-1.913-.87-1.913-1.942s.856-1.943 1.913-1.943c1.055 0 1.912.87 1.912 1.943"/>
        <path fill="#9CE5F4" d="M22.272 17.067c0 1.072-.857 1.942-1.912 1.942-1.057 0-1.913-.87-1.913-1.942 0-1.073.856-1.943 1.913-1.943 1.055 0 1.912.87 1.912 1.943"/>
        <path fill="#6FDAF1" d="M49.047 53c0 1.073-.856 1.943-1.912 1.943-1.057 0-1.913-.87-1.913-1.942s.856-1.943 1.913-1.943c1.056 0 1.912.87 1.912 1.943M31.834 31.1L53.357 9.576C47.823 4.009 40.224.557 31.834.557v30.542z"/>
        <path fill="#C9F2F8" d="M45.222 11.725c0 1.877-1.499 3.4-3.347 3.4-1.848 0-3.346-1.523-3.346-3.4s1.498-3.4 3.346-3.4 3.347 1.523 3.347 3.4"/>
        <path fill="#9CE5F4" d="M12.71 37.462c0 1.072-.857 1.942-1.913 1.942s-1.913-.87-1.913-1.942.857-1.943 1.913-1.943 1.912.87 1.912 1.943"/>
        <path fill="#21B2D1" d="M47.086 30.663c-.487-7.949-6.872-14.285-14.758-14.542v-5.84c11.053.26 20.025 9.217 20.52 20.382h-5.762zM32.328 52.988v-5.84c7.886-.257 14.27-6.593 14.758-14.542h5.762c-.495 11.166-9.467 20.122-20.52 20.382zm0-13.61c3.668-.238 6.638-3.11 7.09-6.772h5.756c-.483 6.878-6.014 12.346-12.846 12.6V39.38zm0-6.772h5.158c-.431 2.59-2.545 4.603-5.158 4.83v-4.83zm0-6.773c2.613.227 4.727 2.24 5.158 4.83h-5.158v-4.83zm0-7.77c6.832.255 12.363 5.722 12.846 12.6h-5.756c-.452-3.662-3.422-6.534-7.09-6.773v-5.827zm-1.913-1.895c-7.457.702-13.364 6.86-13.832 14.495h-5.761c.48-10.852 8.969-19.618 19.593-20.34v5.845zm0 7.837c-3.233.619-5.75 3.309-6.165 6.658h-5.754c.46-6.565 5.517-11.858 11.919-12.546v5.888zm0 6.658h-4.23c.377-2.275 2.054-4.103 4.23-4.668v4.668zm0 6.611c-2.176-.565-3.853-2.393-4.23-4.668h4.23v4.668zm0 7.879c-6.402-.689-11.46-5.982-11.919-12.547h5.754c.415 3.35 2.932 6.04 6.165 6.658v5.889zm0 7.793c-10.624-.722-19.113-9.488-19.593-20.34h5.76C17.052 40.24 22.959 46.4 30.416 47.1v5.845zm30.081-22.283h-5.735C54.263 18.426 44.436 8.6 32.328 8.34V2.51c-.165-.002-.328-.011-.493-.011-.476 0-.95.013-1.42.037v5.839C18.736 9.103 9.392 18.74 8.909 30.663H3.172c-.012.324-.025.646-.025.972 0 .325.013.647.025.97h5.737c.483 11.924 9.827 21.561 21.506 22.29v5.839c.47.023.944.036 1.42.036.165 0 .328-.01.493-.012V54.93c12.108-.262 21.935-10.088 22.433-22.325h5.74c.009-.324.022-.646.02-.971 0-.326-.014-.648-.025-.972z"/>
        <path fill="#40C9E7" d="M30.415 10.322v5.847c-7.458.7-13.364 6.859-13.833 14.494h-5.76c.48-10.852 8.968-19.617 19.593-20.34zm0 13.683c-3.234.62-5.75 3.31-6.164 6.658h-5.755c.46-6.565 5.516-11.858 11.92-12.547v5.889zm0 6.658h-4.231c.377-2.275 2.056-4.102 4.231-4.667v4.667zM15.24 47.694l1.362-1.36a21.436 21.436 0 0 1-5.78-13.728h5.761a15.609 15.609 0 0 0 4.11 9.636l1.36-1.36a13.66 13.66 0 0 1-3.556-8.276h5.755a7.77 7.77 0 0 0 1.892 4.185l1.361-1.362a5.834 5.834 0 0 1-1.32-2.823h4.144l2-2v-4.773c1.269.11 2.415.647 3.312 1.461l1.366-1.365a7.553 7.553 0 0 0-4.679-2.038v-5.827c3.398.126 6.47 1.543 8.764 3.779l1.361-1.362c-2.64-2.593-6.195-4.231-10.125-4.36v-5.84c5.528.13 10.535 2.435 14.223 6.104l1.36-1.362c-4.033-4.026-9.522-6.554-15.583-6.684V2.511c-.164-.003-.327-.013-.493-.013-.476 0-.949.014-1.419.037v5.84C18.735 9.103 9.393 18.74 8.91 30.663H3.171c-.01.324-.024.646-.024.971 0 .327.014.648.024.972H8.91a23.388 23.388 0 0 0 6.33 15.088z"/>
        <path fill="#F0F0F0" d="M31.835 2.499c-15.818 0-28.688 13.07-28.688 29.136 0 16.065 12.87 29.135 28.688 29.135 15.817 0 28.723-13.07 28.687-29.135-.035-16.1-12.894-29.16-28.687-29.136m0 60.214C14.96 62.713.278 48.77.278 31.635.278 14.498 14.961.556 31.835.556c16.873 0 30.6 13.942 30.6 31.079 0 17.136-13.727 31.078-30.6 31.078"/>
        <g>
            <path fill="#F0F0F0" d="M72.274 70.883h-45.51V41.582h45.51zM68.533 27.01c0-.905-.698-1.637-1.558-1.637h-3.117c-.86 0-1.559.732-1.559 1.636v9.82c0 .903.698 1.636 1.559 1.636h3.117c.86 0 1.558-.733 1.558-1.637V27.01z"/>
            <path fill="#DF2C2C" d="M50.512 22.595a1.622 1.622 0 0 0-1.986 0L24.271 38.7a1.608 1.608 0 0 0 .993 2.882h48.51a1.608 1.608 0 1 0 .993-2.882L50.512 22.595z"/>
            <path fill="#40C9E7" d="M68.533 60.285H51.701V47.816h16.832z"/>
            <path fill="#84462D" d="M44.843 54.882c0-3.558-2.93-6.442-6.546-6.442-3.615 0-6.546 2.884-6.546 6.442v12.884h13.092V54.882z"/>
            <path fill="#FACB1B" d="M42.973 59.35a1.559 1.559 0 1 1-3.117 0 1.559 1.559 0 0 1 3.117 0"/>
            <path fill="#0D9681" d="M75.391 74H23.647v-3.117H75.39z"/>
            <path fill="#17B198" d="M23.647 70.883l2.523-2.432a2.473 2.473 0 0 1 1.716-.685h43.266c.644 0 1.26.246 1.716.685l2.523 2.432H23.647z"/>
        </g>
    </g>
</svg>
