<?xml version="1.0" encoding="UTF-8"?>
<svg width="80px" height="80px" viewBox="0 0 80 80" version="1.1" xmlns="http://www.w3.org/2000/svg" xmlns:xlink="http://www.w3.org/1999/xlink">
    <!-- Generator: Sketch 49.1 (51147) - http://www.bohemiancoding.com/sketch -->
    <title>assets/img_domain_aol</title>
    <desc>Created with Sketch.</desc>
    <defs></defs>
    <g id="Freshness" stroke="none" stroke-width="1" fill="none" fill-rule="evenodd">
        <g id="Freeform-Icons" transform="translate(0.000000, -1300.000000)">
            <g id="assets/img_domain_aol" transform="translate(0.000000, 1300.000000)">
                <circle id="Oval-11" fill="#353167" cx="40" cy="40" r="40"></circle>
                <g id="aol" transform="translate(13.000000, 30.000000)" fill="#FFFFFF" fill-rule="nonzero">
                    <path d="M29.724701,5.30769231 C24.9229509,5.30769231 21.2903226,9.25897436 21.2903226,14.1538462 C21.2903226,19.3141026 25.0760502,23 29.724701,23 C34.3733518,23 38.1451613,19.3141026 38.1451613,14.1538462 C38.1451613,9.25897436 34.5264511,5.30769231 29.724701,5.30769231 Z M29.724701,9.98141026 C31.7985003,9.96666667 33.4965105,11.8391026 33.4965105,14.1538462 C33.4965105,16.4538462 31.7985003,18.3262821 29.724701,18.3262821 C27.6509017,18.3262821 25.9528915,16.4538462 25.9528915,14.1538462 C25.9528915,11.8391026 27.6509017,9.98141026 29.724701,9.98141026 Z" id="Shape"></path>
                    <path d="M55,19.0192308 C55,20.7294872 53.6102151,22.1153846 51.8951613,22.1153846 C50.1801075,22.1153846 48.7903226,20.7294872 48.7903226,19.0192308 C48.7903226,17.3089744 50.1801075,15.9230769 51.8951613,15.9230769 C53.6102151,15.9230769 55,17.3089744 55,19.0192308 Z" id="Shape"></path>
                    <polygon id="Shape" points="46.1290323 22.1153846 41.6935484 22.1153846 41.6935484 0 46.1290323 0"></polygon>
                    <path d="M0,22.1153846 L8.51612903,0 L12.916129,0 L21.2903226,22.1153846 L15.3290323,22.1153846 L14.3354839,18.9984512 L6.95483871,18.9984512 L5.96129032,22.1153846 L0,22.1153846 Z M12.916129,14.3972638 L10.716129,6.9759938 L8.51612903,14.3972638 L12.916129,14.3972638 Z" id="Shape"></path>
                </g>
            </g>
        </g>
    </g>
</svg>