<?xml version="1.0" encoding="UTF-8"?>
<svg width="52px" height="52px" viewBox="0 0 52 52" version="1.1" xmlns="http://www.w3.org/2000/svg" xmlns:xlink="http://www.w3.org/1999/xlink">
    <title>Group 5</title>
    <g id="symbols" stroke="none" stroke-width="1" fill="none" fill-rule="evenodd">
        <g id="Group-5">
            <path d="M41.6163731,0 L10.3836269,0 C4.6735118,0 0,4.67422992 0,10.3836269 L0,41.6163731 C0,47.3261291 4.6735118,52 10.3836269,52 L41.6163731,52 C47.3257701,52 52,47.3261291 52,41.6163731 L52,10.3836269 C52,4.67422992 47.3257701,0 41.6163731,0" id="Fill-1" fill="#001935"></path>
            <path d="M35,42 L29.394719,42 C24.3476891,42 20.5861056,39.447009 20.5861056,33.3384661 L20.5861056,23.5555519 L16,23.5555519 L16,18.2585199 C21.0470299,16.9695646 23.1581002,12.6985685 23.4012333,9 L28.6418147,9 L28.6418147,17.3993368 L34.756867,17.3993368 L34.756867,23.5555519 L28.6418147,23.5555519 L28.6418147,32.0740692 C28.6418147,34.6270602 29.9529701,35.5097183 32.039066,35.5097183 L35,35.5097183 L35,42 Z" id="Fill-3" fill="#FFFFFF"></path>
        </g>
    </g>
</svg>