<svg width="28" height="28" xmlns="http://www.w3.org/2000/svg" xmlns:xlink="http://www.w3.org/1999/xlink">
    <defs>
        <path id="a" d="M0 0h24.614v13.558H0z"/>
    </defs>
    <g fill="none" fill-rule="evenodd">
        <path d="M26.698 17.774h-2.54v-.911h2.54a.175.175 0 0 0 .176-.176v-5.08a.175.175 0 0 0-.176-.174h-2.54v-.912h2.54c.599 0 1.088.487 1.088 1.087v5.08c0 .599-.489 1.086-1.088 1.086" fill="#C33F72"/>
        <g transform="translate(0 7.368)">
            <mask id="b" fill="#fff">
                <use xlink:href="#a"/>
            </mask>
            <path d="M2.122.912c-.668 0-1.21.543-1.21 1.21v9.313c0 .668.542 1.211 1.21 1.211H22.49c.667 0 1.21-.543 1.21-1.21V2.122c0-.668-.543-1.211-1.21-1.211H2.12zM22.49 13.558H2.12A2.125 2.125 0 0 1 0 11.435V2.123C0 .952.952 0 2.122 0H22.49c1.17 0 2.123.952 2.123 2.123v9.312c0 1.171-.952 2.123-2.123 2.123z" fill="#C33F72" mask="url(#b)"/>
        </g>
        <path d="M21.383 9.58H3.23a.849.849 0 0 0-.848.849v7.437c0 .468.38.849.848.849h18.153c.47 0 .849-.38.849-.849V10.43c0-.47-.38-.849-.849-.849zm-.064.911v7.312H3.293V10.49h18.026z" fill="#C33F72" fill-rule="nonzero"/>
        <path d="M5.785 18.259h-2.58c-.203 0-.368-.176-.368-.393V10.43c0-.218.165-.393.368-.393h2.58v8.223z" fill="#C33F72"/>
    </g>
</svg>
