<?xml version="1.0" encoding="UTF-8"?>
<svg width="80px" height="80px" viewBox="0 0 80 80" version="1.1" xmlns="http://www.w3.org/2000/svg" xmlns:xlink="http://www.w3.org/1999/xlink">
    <!-- Generator: Sketch 49.1 (51147) - http://www.bohemiancoding.com/sketch -->
    <title>assets/img_domain_yahoo</title>
    <desc>Created with Sketch.</desc>
    <defs></defs>
    <g id="Freshness" stroke="none" stroke-width="1" fill="none" fill-rule="evenodd">
        <g id="Freeform-Icons" transform="translate(-400.000000, -1300.000000)">
            <g id="assets/img_domain_yahoo" transform="translate(400.000000, 1300.000000)">
                <circle id="Oval-11" fill="#353167" cx="40" cy="40" r="40"></circle>
                <g id="logo" transform="translate(22.000000, 18.000000)" fill-rule="nonzero">
                    <path d="M29.8643478,0.126077586 L31.1768609,3.08327586 L34.5178174,1.54547845 L35.8764848,0.125980603 C33.7272457,0.609303879 31.7887239,0.625364224 29.8642891,0.125980603 L29.8643478,0.126077586 Z" id="Shape" fill="#FFFFFF"></path>
                    <path d="M20.433913,25.9118534 L18.1668913,26.7398922 L16.73505,24.2557759 L30.9341152,1.78099138 L31.9492761,1.43627586 C33.3504978,1.12236207 34.8787761,0.785715517 35.8742543,0.124913793 C33.619363,3.14476293 25.4082326,17.2606034 20.4339717,25.9126293 L20.433913,25.9118534 Z" id="Shape" fill="#8B88AA"></path>
                    <path d="M17.3426087,25.5588362 L17.9392109,24.9673772 L31.9860587,1.43160129 L29.8712543,0.125301724 C28.1753022,3.25706897 21.9203413,13.3909914 17.9392109,19.8806897 L16.0300761,23.4294828 L17.3426087,25.5588362 Z" id="Shape" fill="#EBEAF4"></path>
                    <path d="M6.01434783,0.126077586 C9.12834783,5.59726293 13.9087174,13.2511422 17.9463913,19.8814655 L17.9463913,24.9680172 L16.9918239,25.9143556 L3.0312587,1.30982974 L6.01434783,0.126077586 Z" id="Shape" fill="#FFFFFF"></path>
                    <path d="M3.70565217,1.6137931 L6.00671739,0.125747845 C3.53758696,0.647786638 2.50473913,0.681012931 0.0406956522,0.125747845 L0.995263043,1.19036638 L3.70565217,1.6137931 Z" id="Shape" fill="#EBEAF4"></path>
                    <path d="M17.9295652,24.9672414 L16.8556891,26.5050388 L15.4238283,25.9135797 C12.7580674,21.3456918 4.92161087,7.4311875 0.0314804348,0.125864224 C1.02275217,0.837989224 2.36189348,1.22875216 3.90871957,1.47778448 L17.9295652,24.9672414 Z" id="Shape" fill="#8B88AA"></path>
                    <polygon id="Shape" fill="#FFFFFF" points="20.8056522 44.9573276 16.7488043 43.0646509 17.1067696 26.2672371 17.9420087 24.9660194 20.4477261 25.9123578"></polygon>
                    <polygon id="Shape" fill="#8B88AA" points="17.9295652 43.655819 15.0658043 44.9570366 15.42375 25.9121444 17.9294674 24.965806"></polygon>
                    <path d="M15.0730435,44.9573276 L17.942087,42.873556 L20.8003696,44.9573276 C20.8003696,44.9573276 19.2158413,44.6714806 17.9418913,44.6714806 C16.7924739,44.6714806 15.0728478,44.9573276 15.0728478,44.9573276 L15.0730435,44.9573276 Z" id="Shape" fill="#EBEAF4"></path>
                </g>
            </g>
        </g>
    </g>
</svg>