<?xml version="1.0" encoding="UTF-8"?>
<svg width="75px" height="75px" viewBox="0 0 75 75" version="1.1" xmlns="http://www.w3.org/2000/svg" xmlns:xlink="http://www.w3.org/1999/xlink">
    <!-- Generator: Sketch 52.5 (67469) - http://www.bohemiancoding.com/sketch -->
    <title>assets/img_next_steps copy</title>
    <desc>Created with Sketch.</desc>
    <g id="Page-1" stroke="none" stroke-width="1" fill="none" fill-rule="evenodd">
        <g id="00_notes" transform="translate(-700.000000, -1568.000000)">
            <g id="list_mobile" transform="translate(700.000000, 1568.000000)">
                <g id="assets/img_next_steps-copy">
                    <circle id="background" fill="#353167" cx="37.5" cy="37.5" r="37.5"></circle>
                    <g id="Group" transform="translate(20.689655, 14.870690)">
                        <path d="M33.6206897,7.77882543 C33.6206897,6.99740706 32.9931034,6.36449353 32.2198276,6.36449353 L1.40086207,6.36449353 C0.627586207,6.36449353 0,6.99740706 0,7.77882543 L0,43.8442888 C0,44.6257072 0.627586207,45.2586207 1.40086207,45.2586207 L32.2198276,45.2586207 C32.9931034,45.2586207 33.6206897,44.6257072 33.6206897,43.8442888 L33.6206897,7.77882543 Z" id="Fill-3460" fill="#8B88AA"></path>
                        <polygon id="Fill-3461" fill="#FFFFFF" points="30.8189655 9.19315733 2.80172414 9.19315733 2.80172414 42.4299569 30.8189655 42.4299569"></polygon>
                        <path d="M10.856681,22.9828933 C10.5877155,22.9828933 10.31875,22.8796471 10.1135237,22.6724475 L7.31179957,19.8437837 C6.90204741,19.4293844 6.90204741,18.7575768 7.31179957,18.3431775 C7.72225216,17.9294855 8.38766164,17.9294855 8.79811422,18.3431775 L10.856681,20.4222454 L15.0165409,16.2216797 C15.4269935,15.8079876 16.092403,15.8079876 16.5028556,16.2216797 C16.9126078,16.6360789 16.9126078,17.3078866 16.5028556,17.7222858 L11.5998384,22.6724475 C11.3946121,22.8796471 11.1256466,22.9828933 10.856681,22.9828933" id="Fill-3462" fill="#81B44C"></path>
                        <path d="M10.856681,34.2975485 C10.5877155,34.2975485 10.31875,34.1943023 10.1135237,33.9871026 L7.31179957,31.1584388 C6.90204741,30.7440396 6.90204741,30.072232 7.31179957,29.6578327 C7.72225216,29.2441406 8.38766164,29.2441406 8.79811422,29.6578327 L10.856681,31.7369006 L15.0165409,27.5363349 C15.4269935,27.1226428 16.092403,27.1226428 16.5028556,27.5363349 C16.9126078,27.9507341 16.9126078,28.6225418 16.5028556,29.036941 L11.5998384,33.9871026 C11.3946121,34.1943023 11.1256466,34.2975485 10.856681,34.2975485" id="Fill-3463" fill="#81B44C"></path>
                        <path d="M16.8103448,1.4143319 C17.5836207,1.4143319 18.2112069,2.04795259 18.2112069,2.82866379 C18.2112069,3.609375 17.5836207,4.24299569 16.8103448,4.24299569 C16.037069,4.24299569 15.4094828,3.609375 15.4094828,2.82866379 C15.4094828,2.04795259 16.037069,1.4143319 16.8103448,1.4143319 M23.8146552,4.24299569 L21.012931,4.24299569 C21.012931,1.9001549 19.1308728,0 16.8103448,0 C14.4898168,0 12.6077586,1.9001549 12.6077586,4.24299569 L9.80603448,4.24299569 C9.03275862,4.24299569 8.40517241,4.87661638 8.40517241,5.65732759 L8.40517241,11.3146552 C8.40517241,12.0953664 9.03275862,12.7289871 9.80603448,12.7289871 L23.8146552,12.7289871 C24.587931,12.7289871 25.2155172,12.0953664 25.2155172,11.3146552 L25.2155172,5.65732759 C25.2155172,4.87661638 24.587931,4.24299569 23.8146552,4.24299569" id="Fill-3467" fill="#E1C618"></path>
                        <path d="M16.8103448,4.24299569 C16.037069,4.24299569 15.4094828,3.609375 15.4094828,2.82866379 C15.4094828,2.04795259 16.037069,1.4143319 16.8103448,1.4143319 C17.5836207,1.4143319 18.2112069,2.04795259 18.2112069,2.82866379 C18.2112069,3.609375 17.5836207,4.24299569 16.8103448,4.24299569 M23.8146552,4.24299569 L21.012931,4.24299569 C21.012931,1.9001549 19.1308728,0 16.8103448,0 C14.4898168,0 12.6077586,1.9001549 12.6077586,4.24299569 L9.80603448,4.24299569 C9.03275862,4.24299569 8.40517241,4.87661638 8.40517241,5.65732759 L8.40517241,8.48599138 L25.2155172,8.48599138 L25.2155172,5.65732759 C25.2155172,4.87661638 24.587931,4.24299569 23.8146552,4.24299569" id="Fill-3468" fill="#F2DA3E"></path>
                    </g>
                </g>
            </g>
        </g>
    </g>
</svg>