<?xml version="1.0" encoding="UTF-8"?>
<svg width="25px" height="25px" viewBox="0 0 25 25" version="1.1" xmlns="http://www.w3.org/2000/svg" xmlns:xlink="http://www.w3.org/1999/xlink">
    <title>icon/other</title>
    <g id="icon/other" stroke="none" stroke-width="1" fill="none" fill-rule="evenodd" stroke-linecap="round" stroke-linejoin="round">
        <g id="Group-19" transform="translate(4.000000, 4.000000)" stroke-width="2">
            <g id="Group-11">
                <path d="M14,17 L3.34948262,17 C1.49913272,17 0,15.5195833 0,13.6944444 L0,0.944444444 C0,0.423111111 0.428255278,0 0.956995036,0 L3.8365931,0 L12.6165441,0 C13.1448053,0 12.98,0.423111111 12.98,0.944444444 L12.98,11.8055556" id="Stroke-1" stroke="#8736C1"></path>
                <path d="M13,8 L13,14.9173705 C13,16.0676707 14.1191733,17 15.5,17 C16.8808267,17 18,16.0676707 18,14.9173705 L18,8.9158441 C18,8.41029816 17.5074758,8 16.9006157,8 L13.153584,8" id="Stroke-3" stroke="#8736C1"></path>
                <line x1="3" y1="4.5" x2="6" y2="4.5" id="Stroke-5" stroke="#FF4722"></line>
                <line x1="3" y1="8.5" x2="10" y2="8.5" id="Stroke-7" stroke="#FF4722"></line>
                <line x1="3" y1="11.5" x2="10" y2="11.5" id="Stroke-9" stroke="#FF4722"></line>
            </g>
        </g>
    </g>
</svg>