<?xml version="1.0" encoding="utf-8"?>
<!-- Generator: Adobe Illustrator 23.1.1, SVG Export Plug-In . SVG Version: 6.00 Build 0)  -->
<svg version="1.1" id="Layer_1" xmlns="http://www.w3.org/2000/svg" xmlns:xlink="http://www.w3.org/1999/xlink" x="0px" y="0px"
	 viewBox="0 0 106 106" style="enable-background:new 0 0 106 106;" xml:space="preserve">
<style type="text/css">
	.st0{fill-rule:evenodd;clip-rule:evenodd;fill:#353167;}
	.st1{filter:url(#Adobe_OpacityMaskFilter);}
	.st2{fill-rule:evenodd;clip-rule:evenodd;fill:#FFFFFF;}
	.st3{mask:url(#mask-2_1_);}
	.st4{fill-rule:evenodd;clip-rule:evenodd;fill:#8B88AA;}
	.st5{fill-rule:evenodd;clip-rule:evenodd;fill:#E7114C;}
	.st6{fill-rule:evenodd;clip-rule:evenodd;fill:#F2DA3E;}
	.st7{fill-rule:evenodd;clip-rule:evenodd;fill:#81B44C;}
	.st8{fill-rule:evenodd;clip-rule:evenodd;fill:#E1C618;}
	.st9{filter:url(#Adobe_OpacityMaskFilter_1_);}
	.st10{mask:url(#mask-2_2_);fill-rule:evenodd;clip-rule:evenodd;}
</style>
<title>Group 2</title>
<desc>Created with Sketch.</desc>
<g id="Page-1">
	<g transform="translate(-163.000000, -293.000000)">
		<g id="Group-2" transform="translate(162.460000, 293.000000)">
			<g id="background">
				<circle class="st0" cx="53.5" cy="53" r="53"/>
			</g>
			<defs>
				<filter id="Adobe_OpacityMaskFilter" filterUnits="userSpaceOnUse" x="28.1" y="24.9" width="63.6" height="52">
					<feColorMatrix  type="matrix" values="1 0 0 0 0  0 1 0 0 0  0 0 1 0 0  0 0 0 1 0"/>
				</filter>
			</defs>
			<mask maskUnits="userSpaceOnUse" x="28.1" y="24.9" width="63.6" height="52" id="mask-2_1_">
				<g class="st1">
					<circle id="path-1_1_" class="st2" cx="53.5" cy="53" r="53"/>
				</g>
			</mask>
			<g class="st3">
				<g transform="translate(28.100000, 24.910000)">
					<path id="Fill-6281" class="st2" d="M55.7,0.1c4.4,0,7.9,3.6,7.9,8V44c0,4.4-3.6,8-7.9,8H7.9C3.6,52,0,48.4,0,44V8.1
						c0-4.4,3.6-8,7.9-8H55.7z"/>
					<path id="Fill-6282" class="st0" d="M8.5,19.6c0.3,0,0.6,0.2,0.6,0.5c0,0.3-0.2,0.6-0.6,0.6c-0.3,0-0.5-0.2-0.5-0.6
						C7.9,19.8,8.2,19.6,8.5,19.6L8.5,19.6z M9.6,20.1c0-1.7-0.4-2.4-1.1-2.4c-0.7,0-1.1,0.7-1.1,2.4c0,1.7,0.4,2.4,1.1,2.4
						C9.2,22.5,9.6,21.8,9.6,20.1L9.6,20.1z M6.6,20.1c0-1.9,0.7-3,1.9-3s1.9,1.1,1.9,3c0,1.9-0.7,3-1.9,3S6.6,22.1,6.6,20.1
						L6.6,20.1z"/>
					<polygon id="Fill-6283" class="st0" points="13.5,18.1 12.1,18.9 11.8,18.4 13.6,17.2 14.3,17.2 14.3,22.4 15.5,22.4 15.5,23 
						12.1,23 12.1,22.4 13.5,22.4 					"/>
					<path id="Fill-6284" class="st0" d="M18.6,19.6c0.3,0,0.6,0.2,0.6,0.5c0,0.3-0.2,0.6-0.6,0.6c-0.3,0-0.5-0.2-0.5-0.6
						C18,19.8,18.3,19.6,18.6,19.6L18.6,19.6z M19.7,20.1c0-1.7-0.4-2.4-1.1-2.4c-0.7,0-1.1,0.7-1.1,2.4c0,1.7,0.4,2.4,1.1,2.4
						C19.3,22.5,19.7,21.8,19.7,20.1L19.7,20.1z M16.7,20.1c0-1.9,0.7-3,1.9-3c1.3,0,1.9,1.1,1.9,3c0,1.9-0.7,3-1.9,3
						C17.3,23.1,16.7,22.1,16.7,20.1L16.7,20.1z"/>
					<polygon id="Fill-6285" class="st0" points="23.6,18.1 22.2,18.9 21.9,18.4 23.7,17.2 24.4,17.2 24.4,22.4 25.6,22.4 25.6,23 
						22.2,23 22.2,22.4 23.6,22.4 					"/>
					<polygon id="Fill-6286" class="st0" points="28.7,18.1 27.3,18.9 26.9,18.4 28.8,17.2 29.4,17.2 29.4,22.4 30.6,22.4 30.6,23 
						27.3,23 27.3,22.4 28.7,22.4 					"/>
					<path id="Fill-6287" class="st0" d="M33.8,19.6c0.3,0,0.6,0.2,0.6,0.5c0,0.3-0.2,0.6-0.6,0.6c-0.3,0-0.5-0.2-0.5-0.6
						C33.2,19.8,33.4,19.6,33.8,19.6L33.8,19.6z M34.9,20.1c0-1.7-0.4-2.4-1.1-2.4c-0.7,0-1.1,0.7-1.1,2.4c0,1.7,0.4,2.4,1.1,2.4
						C34.5,22.5,34.9,21.8,34.9,20.1L34.9,20.1z M31.8,20.1c0-1.9,0.7-3,1.9-3c1.3,0,1.9,1.1,1.9,3c0,1.9-0.7,3-1.9,3
						C32.5,23.1,31.8,22.1,31.8,20.1L31.8,20.1z"/>
					<polygon id="Fill-6288" class="st0" points="38.8,18.1 37.4,18.9 37,18.4 38.9,17.2 39.6,17.2 39.6,22.4 40.7,22.4 40.7,23 
						37.4,23 37.4,22.4 38.8,22.4 					"/>
					<path id="Fill-6289" class="st0" d="M43.9,19.6c0.3,0,0.6,0.2,0.6,0.5c0,0.3-0.2,0.6-0.6,0.6c-0.3,0-0.5-0.2-0.5-0.6
						C43.3,19.8,43.6,19.6,43.9,19.6L43.9,19.6z M45,20.1c0-1.7-0.4-2.4-1.1-2.4c-0.7,0-1.1,0.7-1.1,2.4c0,1.7,0.4,2.4,1.1,2.4
						C44.6,22.5,45,21.8,45,20.1L45,20.1z M41.9,20.1c0-1.9,0.7-3,1.9-3s1.9,1.1,1.9,3c0,1.9-0.7,3-1.9,3S41.9,22.1,41.9,20.1
						L41.9,20.1z"/>
					<polygon id="Fill-6290" class="st0" points="48.9,18.1 47.5,18.9 47.1,18.4 49,17.2 49.7,17.2 49.7,22.4 50.8,22.4 50.8,23 
						47.5,23 47.5,22.4 48.9,22.4 					"/>
					<path id="Fill-6291" class="st0" d="M8.5,29.7C8.8,29.7,9,30,9,30.3c0,0.3-0.2,0.6-0.6,0.6c-0.3,0-0.5-0.2-0.5-0.6
						C7.9,30,8.2,29.7,8.5,29.7L8.5,29.7z M9.6,30.3c0-1.7-0.4-2.4-1.1-2.4c-0.7,0-1.1,0.7-1.1,2.4c0,1.7,0.4,2.4,1.1,2.4
						C9.2,32.7,9.6,32,9.6,30.3L9.6,30.3z M6.6,30.3c0-1.9,0.7-3,1.9-3s1.9,1.1,1.9,3c0,1.9-0.7,3-1.9,3S6.6,32.2,6.6,30.3L6.6,30.3
						z"/>
					<polygon id="Fill-6292" class="st0" points="13.5,28.2 12.1,29.1 11.8,28.5 13.6,27.4 14.3,27.4 14.3,32.6 15.5,32.6 
						15.5,33.2 12.1,33.2 12.1,32.6 13.5,32.6 					"/>
					<path id="Fill-6293" class="st0" d="M18.6,29.7c0.3,0,0.6,0.2,0.6,0.5c0,0.3-0.2,0.6-0.6,0.6c-0.3,0-0.5-0.2-0.5-0.6
						C18,30,18.3,29.7,18.6,29.7L18.6,29.7z M19.7,30.3c0-1.7-0.4-2.4-1.1-2.4c-0.7,0-1.1,0.7-1.1,2.4c0,1.7,0.4,2.4,1.1,2.4
						C19.3,32.7,19.7,32,19.7,30.3L19.7,30.3z M16.7,30.3c0-1.9,0.7-3,1.9-3c1.3,0,1.9,1.1,1.9,3c0,1.9-0.7,3-1.9,3
						C17.3,33.3,16.7,32.2,16.7,30.3L16.7,30.3z"/>
					<polygon id="Fill-6294" class="st0" points="23.6,28.2 22.2,29.1 21.9,28.5 23.7,27.4 24.4,27.4 24.4,32.6 25.6,32.6 
						25.6,33.2 22.2,33.2 22.2,32.6 23.6,32.6 					"/>
					<path id="Fill-6295" class="st0" d="M28.7,29.7c0.3,0,0.6,0.2,0.6,0.5c0,0.3-0.2,0.6-0.6,0.6c-0.3,0-0.5-0.2-0.5-0.6
						C28.2,30,28.4,29.7,28.7,29.7L28.7,29.7z M29.8,30.3c0-1.7-0.4-2.4-1.1-2.4c-0.7,0-1.1,0.7-1.1,2.4c0,1.7,0.4,2.4,1.1,2.4
						C29.4,32.7,29.8,32,29.8,30.3L29.8,30.3z M26.8,30.3c0-1.9,0.7-3,1.9-3s1.9,1.1,1.9,3c0,1.9-0.7,3-1.9,3S26.8,32.2,26.8,30.3
						L26.8,30.3z"/>
					<path id="Fill-6296" class="st0" d="M33.8,29.7c0.3,0,0.6,0.2,0.6,0.5c0,0.3-0.2,0.6-0.6,0.6c-0.3,0-0.5-0.2-0.5-0.6
						C33.2,30,33.4,29.7,33.8,29.7L33.8,29.7z M34.9,30.3c0-1.7-0.4-2.4-1.1-2.4c-0.7,0-1.1,0.7-1.1,2.4c0,1.7,0.4,2.4,1.1,2.4
						C34.5,32.7,34.9,32,34.9,30.3L34.9,30.3z M31.8,30.3c0-1.9,0.7-3,1.9-3c1.3,0,1.9,1.1,1.9,3c0,1.9-0.7,3-1.9,3
						C32.5,33.3,31.8,32.2,31.8,30.3L31.8,30.3z"/>
					<polygon id="Fill-6297" class="st0" points="38.8,28.2 37.4,29.1 37,28.5 38.9,27.4 39.6,27.4 39.6,32.6 40.7,32.6 40.7,33.2 
						37.4,33.2 37.4,32.6 38.8,32.6 					"/>
					<polygon id="Fill-6299" class="st0" points="8.5,38.4 7.1,39.2 6.7,38.7 8.6,37.5 9.2,37.5 9.2,42.7 10.4,42.7 10.4,43.3 
						7,43.3 7,42.7 8.5,42.7 					"/>
					<path id="Fill-6300" class="st0" d="M13.5,39.9c0.3,0,0.6,0.2,0.6,0.5c0,0.3-0.2,0.6-0.6,0.6c-0.3,0-0.5-0.2-0.5-0.6
						C13,40.1,13.2,39.9,13.5,39.9L13.5,39.9z M14.7,40.4c0-1.7-0.4-2.4-1.1-2.4c-0.7,0-1.1,0.7-1.1,2.4c0,1.7,0.4,2.4,1.1,2.4
						C14.2,42.8,14.7,42.1,14.7,40.4L14.7,40.4z M11.6,40.4c0-1.9,0.7-3,1.9-3s1.9,1.1,1.9,3c0,1.9-0.7,3-1.9,3S11.6,42.4,11.6,40.4
						L11.6,40.4z"/>
					<polygon id="Fill-6301" class="st0" points="18.6,38.4 17.2,39.2 16.8,38.7 18.7,37.5 19.3,37.5 19.3,42.7 20.5,42.7 
						20.5,43.3 17.1,43.3 17.1,42.7 18.6,42.7 					"/>
					<path id="Fill-6302" class="st0" d="M23.6,39.9c0.3,0,0.6,0.2,0.6,0.5c0,0.3-0.2,0.6-0.6,0.6c-0.3,0-0.5-0.2-0.5-0.6
						C23.1,40.1,23.3,39.9,23.6,39.9L23.6,39.9z M24.8,40.4c0-1.7-0.4-2.4-1.1-2.4c-0.7,0-1.1,0.7-1.1,2.4c0,1.7,0.4,2.4,1.1,2.4
						C24.4,42.8,24.8,42.1,24.8,40.4L24.8,40.4z M21.7,40.4c0-1.9,0.7-3,1.9-3c1.3,0,1.9,1.1,1.9,3c0,1.9-0.7,3-1.9,3
						C22.4,43.4,21.7,42.4,21.7,40.4L21.7,40.4z"/>
					<path id="Fill-6303" class="st0" d="M28.7,39.9c0.3,0,0.6,0.2,0.6,0.5c0,0.3-0.2,0.6-0.6,0.6c-0.3,0-0.5-0.2-0.5-0.6
						C28.2,40.1,28.4,39.9,28.7,39.9L28.7,39.9z M29.8,40.4c0-1.7-0.4-2.4-1.1-2.4c-0.7,0-1.1,0.7-1.1,2.4c0,1.7,0.4,2.4,1.1,2.4
						C29.4,42.8,29.8,42.1,29.8,40.4L29.8,40.4z M26.8,40.4c0-1.9,0.7-3,1.9-3s1.9,1.1,1.9,3c0,1.9-0.7,3-1.9,3S26.8,42.4,26.8,40.4
						L26.8,40.4z"/>
					<polygon id="Fill-6304" class="st0" points="33.7,38.4 32.3,39.2 32,38.7 33.8,37.5 34.5,37.5 34.5,42.7 35.7,42.7 35.7,43.3 
						32.3,43.3 32.3,42.7 33.7,42.7 					"/>
					<path id="Fill-6305" class="st4" d="M55.7,0H7.9C3.6,0,0,3.6,0,8v4h63.6V8C63.6,3.6,60,0,55.7,0L55.7,0z"/>
					<path id="Fill-6306" class="st5" d="M8.8,6.1c0,1.1-0.9,2-2,2s-2-0.9-2-2s0.9-2,2-2S8.8,5,8.8,6.1L8.8,6.1z"/>
					<path id="Fill-6307" class="st6" d="M14.6,6.1c0,1.1-0.9,2-2,2s-2-0.9-2-2s0.9-2,2-2S14.6,5,14.6,6.1L14.6,6.1z"/>
					<path id="Fill-6308" class="st7" d="M20.5,6.1c0,1.1-0.9,2-2,2c-1.1,0-2-0.9-2-2s0.9-2,2-2C19.6,4.1,20.5,5,20.5,6.1L20.5,6.1z
						"/>
					<g id="Group" transform="translate(42.400000, 26.500000)">
						<path id="Fill-6769" class="st8" d="M5.3,9.3v-4c0-1.5,1.2-2.7,2.6-2.7s2.7,1.2,2.7,2.7v4H5.3z M14.6,9.3h-1.3v-4
							c0-2.9-2.4-5.3-5.3-5.3S2.6,2.4,2.6,5.3v4H1.3C0.6,9.3,0,9.9,0,10.6v9.3c0,0.7,0.6,1.3,1.3,1.3h13.2c0.7,0,1.3-0.6,1.3-1.3
							v-9.3C15.9,9.9,15.3,9.3,14.6,9.3L14.6,9.3z"/>
						<path id="Fill-6770" class="st6" d="M7.9,9.3H1.3C0.6,9.3,0,9.9,0,10.6v9.3c0,0.7,0.6,1.3,1.3,1.3h6.6V9.3z"/>
					</g>
				</g>
			</g>
			<defs>
				<filter id="Adobe_OpacityMaskFilter_1_" filterUnits="userSpaceOnUse" x="-9" y="39.2" width="51.9" height="74.2">
					<feColorMatrix  type="matrix" values="1 0 0 0 0  0 1 0 0 0  0 0 1 0 0  0 0 0 1 0"/>
				</filter>
			</defs>
			<mask maskUnits="userSpaceOnUse" x="-9" y="39.2" width="51.9" height="74.2" id="mask-2_2_">
				<g class="st9">
					<circle id="path-1_2_" class="st2" cx="53.5" cy="53" r="53"/>
				</g>
			</mask>
			<path id="Fill-2203" class="st10" d="M13.3,76.3c0-22.3,14.8-37.1,14.8-37.1v29.7L38.4,62c0.5-0.4,1.2-0.6,1.8-0.6
				c1.5,0,2.7,1.2,2.7,2.7c0,0.6-0.2,1.3-0.7,1.8c-6.1,8.7-10.5,17.8-19.8,25.2L17,113.4H-9L13.3,76.3z"/>
		</g>
	</g>
</g>
</svg>
