<?xml version="1.0" encoding="UTF-8"?>
<svg width="25px" height="25px" viewBox="0 0 25 25" version="1.1" xmlns="http://www.w3.org/2000/svg" xmlns:xlink="http://www.w3.org/1999/xlink">
    <title>icon/market value</title>
    <g id="icon/market-value" stroke="none" stroke-width="1" fill="none" fill-rule="evenodd" stroke-linecap="round" stroke-linejoin="round">
        <g id="Group-7" transform="translate(3.000000, 3.000000)" stroke-width="2">
            <g id="Group-4" transform="translate(6.071429, 14.500000)" fill="#9327C7" stroke="#9327C7">
                <path d="M4,2 C4,3.104 3.1,4 2,4 C0.896,4 0,3.104 0,2 C0,0.9 0.896,0 2,0 C3.1,0 4,0.9 4,2 Z" id="Stroke-1"></path>
                <path d="M12,2 C12,3.104 11.1,4 10,4 C8.896,4 8,3.104 8,2 C8,0.9 8.896,0 10,0 C11.1,0 12,0.9 12,2 Z" id="Stroke-3"></path>
            </g>
            <path d="M0.571428571,0.581671204 L2.55171768,0.581671204 C3.32320308,0.581671204 3.98670201,1.14781377 4.13390744,1.93174621 L5.48346964,9.14936941 C5.62960057,9.93330185 6.2930995,10.5 7.06565939,10.5 L16.7280304,10.5 C17.5000531,10.5 18.163552,9.93330185 18.3107574,9.14936941 L19.5415883,2.56455914 C19.7339224,1.53616868 18.9721074,0.581671204 17.9588613,0.581671204 L6.92597541,0.5" id="Stroke-5" stroke="#FF4722"></path>
        </g>
    </g>
</svg>