<?xml version="1.0" encoding="UTF-8"?>
<svg width="60px" height="60px" viewBox="0 0 60 60" version="1.1" xmlns="http://www.w3.org/2000/svg" xmlns:xlink="http://www.w3.org/1999/xlink">
    <!-- Generator: Sketch 63.1 (92452) - https://sketch.com -->
    <title>criminal and traffic_circle </title>
    <desc>Created with Sketch.</desc>
    <g id="criminal-and-traffic_circle-" stroke="none" stroke-width="1" fill="none" fill-rule="evenodd">
        <g id="assets/img_judgments">
            <g id="Group-22">
                <circle id="background" fill="#4A3B8F" cx="30" cy="30" r="30"></circle>
                <g id="Group" transform="translate(12.000000, 12.000000)">
                    <path d="M35.3438438,31.03695 C35.2521563,30.9452625 22.0137188,17.53245 21.9377813,17.6365125 C23.3389688,15.7487625 24.2907188,13.4717625 24.8436563,10.7323875 L25.9281563,9.651825 L26.7769688,10.5040125 C27.2151563,10.94445 27.9272813,10.945575 28.3677188,10.506825 L28.7659688,10.1097 C29.2058438,9.6715125 29.2075313,8.958825 28.7687813,8.51895 L20.8274063,0.5432625 C20.3886563,0.1033875 19.6765313,0.1017 19.2366563,0.54045 L18.8378438,0.937575 C18.3979688,1.376325 18.3968438,2.08845 18.8350313,2.528325 L19.5780938,3.2747625 L18.4913438,4.3570125 C11.4179063,5.759325 7.16765625,9.993825 5.74059375,17.0622 L4.71684375,18.082575 L4.00415625,17.3665125 C3.56540625,16.9266375 2.85271875,16.9255125 2.41284375,17.3637 L2.01459375,17.760825 C1.57415625,18.199575 1.57303125,18.9117 2.01178125,19.3521375 L9.95315625,27.327825 C10.3919063,27.7677 11.1040313,27.768825 11.5439063,27.3306375 L11.9421563,26.9335125 C12.3825938,26.4947625 12.3842813,25.7826375 11.9455313,25.3422 L8.63690625,22.020075 L11.0669063,24.4602 L12.0934688,23.437575 C14.6894063,22.92345 16.9011563,22.02345 18.7365938,20.7460125 L32.1561563,34.212825 C33.0330938,35.0931375 34.4579063,35.09595 35.3382188,34.2190125 C35.3680313,34.1892 35.3894063,34.1537625 35.4169688,34.1222625 C36.2095313,33.2402625 36.1909688,31.8868875 35.3438438,31.03695" id="Fill-3825" fill="#8E6134"></path>
                    <path d="M0,36 C0,34.7574375 1.0074375,33.75 2.25,33.75 L15.75,33.75 C16.9925625,33.75 18,34.7574375 18,36 L0,36 Z" id="Fill-3826" fill="#8E6134"></path>
                    <path d="M15.75,33.1875 C15.75,31.9449375 14.7425625,30.9375 13.5,30.9375 L4.5,30.9375 C3.2574375,30.9375 2.25,31.9449375 2.25,33.1875 L2.25,33.75 L15.75,33.75 L15.75,33.1875 Z" id="Fill-3827" fill="#F0F1F1"></path>
                    <polygon id="Fill-3828" fill="#D4A263" points="24.8436563 10.7325562 18.4913438 4.35718125 19.5932813 3.25918125 25.9455938 9.63455625"></polygon>
                    <polygon id="Fill-3829" fill="#D4A263" points="5.74065 17.0623125 4.7169 18.0826875 11.0669625 24.4603125 12.0929625 23.4376875"></polygon>
                    <path d="M9,30.9375 L4.5,30.9375 C3.2574375,30.9375 2.25,31.9449375 2.25,33.1875 L2.25,33.75 L9,33.75 L9,30.9375 Z" id="Fill-3830" fill="#FFFFFF"></path>
                    <polygon id="Fill-3831" fill="#84462D" points="8.970075 20.3032687 8.970075 20.3032687 5.7407625 17.0621437"></polygon>
                    <path d="M18.4913438,4.35718125 C11.4179063,5.75893125 7.16765625,9.99399375 5.74059375,17.0623687 L8.96990625,20.3034937 L21.6981563,7.57524375 L18.4913438,4.35718125 Z" id="Fill-3832" fill="#A97A45"></path>
                    <polygon id="Fill-3833" fill="#F4D0A1" points="4.71673125 18.0825187 7.94716875 21.3264562 8.97035625 20.3032687 5.74048125 17.0621438"></polygon>
                    <polygon id="Fill-3834" fill="#F4D0A1" points="18.4913438 4.35718125 21.6981563 7.57524375 22.7978438 6.47555625 19.5927188 3.25918125"></polygon>
                    <path d="M19.2364875,0.54039375 L18.8382375,0.93751875 C18.3978,1.37626875 18.396675,2.08839375 18.8348625,2.52826875 L22.7813625,6.49164375 L24.7703625,4.50320625 L20.8272375,0.54320625 C20.3884875,0.10333125 19.6763625,0.10164375 19.2364875,0.54039375" id="Fill-3835" fill="#A97A45"></path>
                    <path d="M4.0039875,17.366625 C3.5652375,16.92675 2.8531125,16.925625 2.412675,17.3638125 L2.014425,17.7609375 C1.57455,18.199125 1.5728625,18.9118125 2.0116125,19.3516875 L5.9581125,23.315625 L7.9471125,21.326625 L4.0039875,17.366625 Z" id="Fill-3836" fill="#A97A45"></path>
                    <path d="M9,33.75 L2.25,33.75 C1.0074375,33.75 0,34.7574375 0,36 L9,36 L9,33.75 Z" id="Fill-3837" fill="#A97A45"></path>
                </g>
            </g>
        </g>
    </g>
</svg>