<svg xmlns="http://www.w3.org/2000/svg" width="60" height="60" viewBox="0 0 60 60">
    <g fill="none" fill-rule="evenodd">
        <circle cx="30" cy="30" r="30" fill="#282426"/>
        <g transform="translate(11 11)">
            <circle cx="22.939" cy="14.412" r="13.671" fill="#FFF"/>
            <path fill="#8736C1" d="M11.352 21.682L.827 32.206c-1.103 1.103-1.103 2.897 0 4l.04.04c1.104 1.103 2.897 1.103 4 0L15.392 25.72c-1.614-1.049-2.992-2.427-4.04-4.04"/>
            <path fill="#B076DA" d="M.824 32.206c-1.086 1.087-1.097 2.841-.042 3.948l9.691-9.691L8.52 24.51.824 32.206z"/>
            <path fill="#FACB1B" d="M11.35 21.682L8.52 24.51l1.953 1.953 2.616-2.616c-.65-.66-1.233-1.386-1.74-2.165"/>
            <path fill="#8736C1" fill-rule="nonzero" d="M22.853.254C15.14.254 8.887 6.507 8.887 14.22c0 7.713 6.253 13.966 13.966 13.966 7.714 0 13.966-6.253 13.966-13.966C36.82 6.507 30.567.254 22.853.254zm0 .508c7.433 0 13.458 6.025 13.458 13.458s-6.025 13.458-13.458 13.458c-7.432 0-13.458-6.025-13.458-13.458S15.421.762 22.853.762z"/>
            <path fill="#E5C8FA" d="M11.998 14.22c0-5.995 4.86-10.855 10.855-10.855S33.71 8.225 33.71 14.22s-4.86 10.855-10.856 10.855c-5.995 0-10.855-4.86-10.855-10.855z"/>
            <path fill="#DBA9FF" d="M22.853 3.365c-5.995 0-10.855 4.86-10.855 10.855 0 3.13 1.332 5.941 3.45 7.923L30.777 6.815c-1.981-2.118-4.793-3.45-7.923-3.45"/>
            <path fill="#FFF" d="M11.352 21.682L8.523 24.51l4.04 4.04 2.829-2.829c-1.614-1.049-2.992-2.427-4.04-4.04"/>
            <path fill="#8736C1" fill-rule="nonzero" d="M11.172 21.502l.18.18.213-.139c.975 1.5 2.24 2.793 3.717 3.8l.248.166.263.17-3.23 3.23-4.399-4.399 3.008-3.008zm.14.578l-2.43 2.43 3.681 3.68 2.43-2.43-.225-.156c-1.276-.908-2.392-2.024-3.299-3.299l-.157-.225z"/>
        </g>
    </g>
</svg>
