<?xml version="1.0" encoding="UTF-8"?>
<svg width="60px" height="60px" viewBox="0 0 60 60" version="1.1" xmlns="http://www.w3.org/2000/svg" xmlns:xlink="http://www.w3.org/1999/xlink">
    <title>icon/nocircle/person report_no circle</title>
    <g id="icon/nocircle/person-report_no-circle" stroke="none" stroke-width="1" fill="none" fill-rule="evenodd">
        <g id="person-active" transform="translate(4.000000, 0.000000)" fill="#FFFFFF">
            <path d="M36.4971429,17.4325826 C36.955102,17.0459739 37.3763265,16.2727565 37.7583673,15.1104522 C38.2187755,12.7883217 37.8367347,11.0832783 36.6122449,10.0002783 C36.6122449,3.27427826 31.1044898,0.000495652174 25.7142857,0.000495652174 C20.3240816,0.000495652174 14.8163265,3.27427826 14.8163265,10.0002783 C13.5918367,11.0832783 13.2097959,12.7883217 13.6702041,15.1104522 C14.0522449,16.2727565 14.4734694,17.0459739 14.9314286,17.4325826 C15.1616327,20.2974522 16.8073469,29.5760609 25.7142857,29.5760609 C34.6212245,29.5760609 36.2669388,20.2974522 36.4971429,17.4325826 Z" id="Fill-1"></path>
            <path d="M44.8498776,33.7734913 C43.0523265,32.8788391 36.6580408,29.7289696 34.7013061,28.7649261 C32.4800816,30.7624043 29.5315102,32.0535783 25.720898,32.0535783 C21.9053878,32.0535783 18.9617143,30.7673609 16.7404898,28.7748391 C15.1927347,29.5827522 10.9755918,31.7710565 9.79273469,32.2493609 C8.28661224,32.859013 6.7804898,33.6396652 5.27436735,34.5888391 C3.76579592,35.5355348 2.74457143,36.5194043 2.21069388,37.5354913 C0.736408163,40.5168391 -0.000734693877,43.5997957 -0.000734693877,46.7843609 C-0.000734693877,47.5303174 8.47720958,59.7233139 25.2857143,59.7233139 C42.094219,59.7233139 51.4278367,47.5303174 51.4278367,46.7843609 C51.4278367,43.5997957 50.6931429,40.5168391 49.2188571,37.5354913 C48.4817143,36.1129696 47.0245714,34.8589696 44.8498776,33.7734913 Z" id="Fill-3"></path>
        </g>
    </g>
</svg>