<?xml version="1.0" encoding="UTF-8"?>
<svg width="11px" height="13px" viewBox="0 0 11 13" version="1.1" xmlns="http://www.w3.org/2000/svg" xmlns:xlink="http://www.w3.org/1999/xlink">
    <!-- Generator: Sketch 58 (84663) - https://sketch.com -->
    <title></title>
    <desc>Created with Sketch.</desc>
    <g id="03_tagged" stroke="none" stroke-width="1" fill="none" fill-rule="evenodd">
        <path d="M10.0957031,0 L0.904296875,0 C0.735025195,0.0338543359 0.641927168,0.126952363 0.625,0.279296875 L0.625,12.7207031 C0.641927168,12.8391933 0.69270791,12.9238279 0.77734375,12.9746094 C0.86197959,13.0084637 0.94661416,13 1.03125,12.9492188 L5.5,10.0800781 L9.96875,12.9492188 C10.0195315,12.9830731 10.0618488,13 10.0957031,13 C10.1634118,13 10.2057291,12.9915365 10.2226562,12.9746094 C10.3072921,12.9069007 10.3580728,12.8222661 10.375,12.7207031 L10.375,0.279296875 C10.3411457,0.110025195 10.2480476,0.016927168 10.0957031,0 Z M8.6484375,4.54492188 L7.15039062,5.7890625 L7.65820312,7.79492188 C7.67513029,7.91341205 7.64127646,8.00651008 7.55664062,8.07421875 C7.48893195,8.10807309 7.43815121,8.12500025 7.40429688,8.12500025 C7.3365882,8.12500025 7.277344,8.10807309 7.2265625,8.07421875 L5.5,6.83007812 L3.7734375,8.07421875 C3.65494732,8.14192742 3.54492238,8.14192742 3.44335938,8.07421875 C3.35872354,8.00651008 3.32486971,7.91341205 3.34179688,7.79492188 L3.84960938,5.7890625 L2.3515625,4.54492188 C2.26692666,4.46028604 2.24153629,4.35872455 2.27539062,4.24023438 C2.32617213,4.13867137 2.4108067,4.07942717 2.52929688,4.0625 L4.50976562,4.0625 L5.24609375,2.3359375 C5.31380242,2.23437449 5.39843699,2.17513029 5.5,2.15820312 C5.60156301,2.17513029 5.68619758,2.23437449 5.75390625,2.3359375 L6.49023438,4.0625 L8.47070312,4.0625 C8.60612047,4.07942717 8.69075504,4.13867137 8.72460938,4.24023438 C8.75846371,4.35872455 8.73307334,4.46028604 8.6484375,4.54492188 Z" id="" fill="#353167" fill-rule="nonzero"></path>
    </g>
</svg>