<?xml version="1.0" encoding="UTF-8"?>
<svg width="200px" height="200px" viewBox="0 0 200 200" version="1.1" xmlns="http://www.w3.org/2000/svg" xmlns:xlink="http://www.w3.org/1999/xlink">
    <!-- Generator: Sketch 48.2 (47327) - http://www.bohemiancoding.com/sketch -->
    <title>assets/img_generic_caller</title>
    <desc>Created with Sketch.</desc>
    <defs></defs>
    <g id="Circular-Icons" stroke="none" stroke-width="1" fill="none" fill-rule="evenodd">
        <g id="assets/img_generic_caller">
            <circle id="Oval-8" fill="#353167" cx="100" cy="100" r="100"></circle>
            <g id="Group-13" transform="translate(47.000000, 39.000000)">
                <path d="M72.4131069,111.41339 C67.8674155,115.93252 60.4859418,115.930842 55.9419384,111.41339 C33.8363406,89.4386388 20.3478073,69.1923328 5.09703798,84.3623789 C-1.94009069,91.3600661 -1.38812594,101.812966 4.8944821,108.058864 L20.1874506,123.262472 C21.1732225,124.242484 22.7751019,124.249196 23.7693137,123.262472 C24.7601495,122.277426 24.7567735,120.683228 23.7693137,119.703217 L8.47465718,104.499608 C4.16696892,100.215413 3.63019585,92.9408386 8.67890102,87.9216342 C13.2245924,83.4025043 20.6043781,83.4041824 25.1500695,87.9216342 L52.3600753,114.972646 C58.8638069,121.438374 69.4541032,121.475293 75.9983459,114.96929 C82.0395748,108.795551 82.518957,101.896871 79.5396977,96.0235128 C77.414549,96.0016975 75.3400393,95.8741617 73.3178565,95.649296 C77.1512264,100.353017 77.6761837,106.182745 72.4131069,111.41339 Z" id="Fill-3244" fill="#EBEAF4"></path>
                <g id="Group-12" transform="translate(56.595230, 49.537176) rotate(4.000000) translate(-56.595230, -49.537176) translate(11.095230, 4.037176)">
                    <path d="M90.8571429,71.6574279 C90.8571429,73.9772727 89.8246753,78.488082 88.856737,80.6146064 C87.5016234,83.7721729 83.887987,85.8342572 80.9841721,87.4452605 C77.1769481,89.5073448 73.3051948,90.7317073 68.981737,90.7317073 C62.9805195,90.7317073 57.5600649,88.2829823 52.0750812,86.2853381 C48.1387987,84.8676552 44.3315747,83.1277716 40.7824675,80.9368071 C29.8125,74.1705931 16.5840097,60.9603659 9.80844156,50.0055432 C7.61444805,46.4613359 5.87215909,42.6593681 4.45251623,38.72852 C2.45211039,33.2511086 0,27.8381375 0,21.8452051 C0,17.5277162 1.22605519,13.6613082 3.29099026,9.85934035 C4.90422078,6.95953437 6.96915584,3.35088692 10.1310877,1.99764412 C12.2605519,1.03104213 16.7775974,0 19.1006494,0 C19.5523539,0 20.0040584,0 20.455763,0.193320399 C21.8108766,0.64440133 23.2305195,3.80196785 23.8758117,5.09077051 C25.9407468,8.76385809 27.9411526,12.5013858 30.0706169,16.1100333 C31.1030844,17.7854767 33.038961,19.847561 33.038961,21.8452051 C33.038961,25.7760532 21.3591721,31.5112251 21.3591721,34.9909922 C21.3591721,36.7308758 22.9724026,38.9862805 23.8758117,40.5328437 C30.393263,52.2609479 38.5239448,60.3804047 50.268263,66.8888581 C51.8169643,67.79102 54.075487,69.4020233 55.817776,69.4020233 C59.3023539,69.4020233 65.0454545,57.7383592 68.981737,57.7383592 C70.9821429,57.7383592 73.0470779,59.6715632 74.7248377,60.7026053 C78.338474,62.8291297 82.0811688,64.8267738 85.7593344,66.8888581 C87.0499188,67.5332594 90.2118506,68.9509424 90.6635552,70.3041851 C90.8571429,70.7552661 90.8571429,71.206347 90.8571429,71.6574279 Z" id="" fill="#8B88AA"></path>
                    <path d="M88.8984623,80.5243902 L61.4113209,64.5974259 C64.029355,61.3829946 66.7927605,57.7389095 68.9919292,57.7389095 C70.991403,57.7389095 73.055376,59.672132 74.732354,60.7031839 C78.3443067,62.8297286 82.0852577,64.8273917 85.7617096,66.8894957 C87.0516927,67.5339031 90.2121513,68.9515996 90.6636454,70.3048553 C90.8571429,70.7559405 90.8571429,71.2070257 90.8571429,71.658111 C90.8571429,73.9454009 89.8539364,78.3625739 88.8984623,80.5243902 Z M10.2214294,1.97392098 C12.3709179,1.01424645 16.8311136,0 19.1340821,0 C19.5855762,0 20.0370703,0 20.4885644,0.193322242 C21.8430467,0.644407473 23.2620281,3.80200409 23.9070196,5.09081903 C25.9709926,8.76394163 27.9704664,12.501505 30.0989385,16.1101868 C31.130925,17.7856462 33.0658997,19.8477502 33.0658997,21.8454133 C33.0658997,24.1559748 29.0323553,27.0899449 25.7070744,29.8228392 L10.2214286,1.97391851 Z" id="Combined-Shape" fill="#EBEAF4"></path>
                </g>
            </g>
        </g>
    </g>
</svg>