<?xml version="1.0" encoding="UTF-8"?>
<svg width="75px" height="75px" viewBox="0 0 75 75" version="1.1" xmlns="http://www.w3.org/2000/svg" xmlns:xlink="http://www.w3.org/1999/xlink">
    <!-- Generator: Sketch 52.5 (67469) - http://www.bohemiancoding.com/sketch -->
    <title>Search_mobile</title>
    <desc>Created with Sketch.</desc>
    <defs>
        <path d="M13.359375,26.71875 C5.98148437,26.71875 0,20.7372656 0,13.359375 C0,5.98148438 5.98148437,0 13.359375,0 C20.7372656,0 26.71875,5.98148438 26.71875,13.359375 C26.71875,20.7372656 20.7372656,26.71875 13.359375,26.71875" id="path-1"></path>
    </defs>
    <g id="Search_mobile" stroke="none" stroke-width="1" fill="none" fill-rule="evenodd">
        <g id="assets/img_overview-copy">
            <circle id="background" fill="#353167" cx="37.5" cy="37.5" r="37.5"></circle>
            <g id="assets/img_magnifying_glass_w_person" transform="translate(15.000000, 15.000000)">
                <path d="M13.9704609,26.0578828 L1.01819531,39.0101484 C-0.339539062,40.3678828 -0.339539062,42.5749922 1.01819531,43.9320234 L1.06741406,43.9819453 C2.42514844,45.3396797 4.63225781,45.3389766 5.98999219,43.9819453 L18.9422578,31.0296797 C16.9566328,29.7387422 15.2606953,28.0428047 13.9704609,26.0578828" id="Fill-7472" fill="#8B88AA"></path>
                <path d="M1.01453906,39.0100781 C-0.322804688,40.3474219 -0.335460938,42.5067187 0.962507813,43.8686719 L12.8889141,31.9422656 L10.4856328,29.5389844 L1.01453906,39.0100781 Z" id="Fill-7473" fill="#EBEAF4"></path>
                <path d="M18.9389039,31.0330336 L15.4610859,34.5108516 L10.4892891,29.5390547 L13.9670772,26.0612666 C12.2484144,23.4178483 11.25,20.2630375 11.25,16.875 C11.25,7.55507812 18.8050781,0 28.125,0 C37.4449219,0 45,7.55507812 45,16.875 C45,26.1949219 37.4449219,33.75 28.125,33.75 C24.7370354,33.75 21.5822873,32.7516285 18.9389039,31.0330336 Z" id="Combined-Shape" fill="#FFFFFF"></path>
                <g id="Group" transform="translate(14.625000, 3.375000)">
                    <mask id="mask-2" fill="white">
                        <use xlink:href="#path-1"></use>
                    </mask>
                    <use id="Mask" fill="#40C9E7" xlink:href="#path-1"></use>
                    <path d="M14.483361,-2.8125 C5.86343825,-2.8125 -1.125,4.17593825 -1.125,12.795861 C-1.125,17.2959979 0.790720936,21.3385634 3.8368158,24.1875 L25.875,2.1493158 C23.0260634,-0.896779064 18.9834979,-2.8125 14.483361,-2.8125" id="Fill-7478" fill="#6FDAF1" mask="url(#mask-2)"></path>
                </g>
            </g>
        </g>
    </g>
</svg>