<?xml version="1.0" encoding="UTF-8"?>
<svg width="48px" height="80px" viewBox="0 0 48 80" version="1.1" xmlns="http://www.w3.org/2000/svg" xmlns:xlink="http://www.w3.org/1999/xlink">
    <title>Group 29</title>
    <defs>
        <polygon id="path-1" points="0 0 47.9999531 0 47.9999531 80 0 80"></polygon>
        <polygon id="path-3" points="0 0 24 0 24 79.9999688 0 79.9999688"></polygon>
    </defs>
    <g id="Symbols" stroke="none" stroke-width="1" fill="none" fill-rule="evenodd">
        <g id="Group-29">
            <g id="Group-3">
                <mask id="mask-2" fill="white">
                    <use xlink:href="#path-1"></use>
                </mask>
                <g id="Clip-2"></g>
                <path d="M43.3124531,72.6360156 C43.3124531,74.1141406 42.1140156,75.3125781 40.6343281,75.3125781 L23.9999531,75.3125781 L23.9999531,69.9577344 L29.0202656,69.9577344 C30.3141719,69.9577344 31.3640156,68.9092969 31.3640156,67.6139844 C31.3640156,66.3202344 30.3141719,65.2702344 29.0202656,65.2702344 L23.9999531,65.2702344 L23.9999531,7.36414063 L35.2813594,7.36414063 C36.0202656,7.36414063 36.6890156,7.06398438 37.1733906,6.57976563 C37.6579219,6.09539063 37.9577656,5.42648437 37.9577656,4.68742188 L40.6343281,4.68742188 C42.1077656,4.50320313 43.3124531,5.56726563 43.3124531,7.05164063 L43.3124531,72.6360156 Z M40.9126094,-7.8125e-05 L7.08745313,-7.8125e-05 C3.17964062,-7.8125e-05 -4.6875e-05,3.17960937 -4.6875e-05,7.08757813 L-4.6875e-05,72.9125781 C-4.6875e-05,76.8202344 3.17964062,80.0000781 7.08745313,80.0000781 L40.9126094,80.0000781 C44.8202656,80.0000781 47.9999531,76.8202344 47.9999531,72.9125781 L47.9999531,7.08757813 C47.9999531,3.17960937 44.8202656,-7.8125e-05 40.9126094,-7.8125e-05 L40.9126094,-7.8125e-05 Z" id="Fill-1" fill="#282426" mask="url(#mask-2)"></path>
            </g>
            <path d="M29.0203125,69.9577812 L24,69.9577812 L24,65.2702812 L29.0203125,65.2702812 C30.3140625,65.2702812 31.3640625,66.3202812 31.3640625,67.6140312 C31.3640625,68.9093437 30.3140625,69.9577812 29.0203125,69.9577812" id="Fill-4" fill="#01223C"></path>
            <g id="Group-8" transform="translate(23.999953, 0.000031)">
                <mask id="mask-4" fill="white">
                    <use xlink:href="#path-3"></use>
                </mask>
                <g id="Clip-7"></g>
                <path d="M24,7.0875 L24,72.9125 C24,76.8203125 20.8203125,80 16.9126563,80 L0,80 L0,75.3125 L16.634375,75.3125 C18.1140625,75.3125 19.3125,74.1140625 19.3125,72.6359375 L19.3125,7.0515625 C19.3125,5.5671875 18.1078125,4.503125 16.634375,4.6875 L13.9578125,4.6875 C13.9578125,5.4265625 13.6579687,6.0953125 13.1734375,6.5796875 C12.6890625,7.0640625 12.0203125,7.3640625 11.2814063,7.3640625 L0,7.3640625 L0,0 L16.9126563,0 C20.8203125,0 24,3.1796875 24,7.0875" id="Fill-6" fill="#000000" mask="url(#mask-4)"></path>
            </g>
            <path d="M31.3640625,67.6140313 C31.3640625,68.9093437 30.3140625,69.9577813 29.0203125,69.9577813 L24,69.9577813 L24,75.312625 L7.3640625,75.312625 C5.8859375,75.312625 4.6875,74.1141875 4.6875,72.6360625 L4.6875,7.36403125 C4.6875,5.88590625 5.8859375,4.68746875 7.3640625,4.68746875 L10.040625,4.68746875 C10.040625,6.16559375 11.2390625,7.36403125 12.71875,7.36403125 L24,7.36403125 L24,65.2702813 L29.0203125,65.2702813 C30.3140625,65.2702813 31.3640625,66.3202813 31.3640625,67.6140313" id="Fill-9" fill="#FFFFFF"></path>
            <path d="M43.3124531,7.05159375 L43.3124531,72.6359688 C43.3124531,74.1140938 42.1140156,75.3125313 40.6343281,75.3125313 L23.9999531,75.3125313 L23.9999531,71.5844063 L34.1468281,71.5844063 C34.5952656,71.5844063 35.0030781,71.4015938 35.2968281,71.1078438 C35.5921406,70.8140937 35.7733906,70.4076875 35.7733906,69.9578438 C35.7733906,69.0594063 35.0452656,68.331125 34.1468281,68.331125 L23.9999531,68.331125 L23.9999531,7.36409375 L35.2813594,7.36409375 C36.0202656,7.36409375 36.6890156,7.06409375 37.1733906,6.57971875 C37.6579219,6.09534375 37.9577656,5.42659375 37.9577656,4.68753125 L40.6343281,4.68753125 C42.1077656,4.50315625 43.3124531,5.56721875 43.3124531,7.05159375" id="Fill-11" fill="#F0F0F0"></path>
            <path d="M35.7733906,69.9577813 C35.7733906,70.4077812 35.5921406,70.8140312 35.2968281,71.1077813 C35.0030781,71.4015313 34.5952656,71.5843438 34.1468281,71.5843438 L23.9999531,71.5843438 L23.9999531,68.3312188 L34.1468281,68.3312188 C35.0452656,68.3312188 35.7733906,69.0593438 35.7733906,69.9577813" id="Fill-13" fill="#C9C9C9"></path>
            <path d="M24.0000156,68.3312031 L24.0000156,71.5843281 L13.8531406,71.5843281 C12.9547031,71.5843281 12.2265781,70.8562031 12.2265781,69.9577656 C12.2265781,69.5077656 12.4078281,69.1016719 12.7031406,68.8079219 C12.9968906,68.5140156 13.4047031,68.3312031 13.8531406,68.3312031 L24.0000156,68.3312031 Z" id="Fill-15" fill="#D7D7D7"></path>
            <path d="M28.6686719,32.5883281 C25.3474219,32.5389531 22.1403906,33.8009844 19.7435156,36.1006719 C23.6260156,37.4605156 26.2266406,41.1236406 26.2299219,45.2377031 L26.2299219,47.3328594 L39.1338281,47.3328594 C40.2294531,47.3328594 41.1219531,46.4531719 41.1374219,45.3577031 C41.1117969,38.4362969 35.5957031,32.6798906 28.6686719,32.5883281" id="Fill-17" fill="#FF4722"></path>
            <path d="M19.7435,36.1005937 C18.65975,35.7205937 17.5169375,35.5365312 16.3686563,35.5566875 C11.0874063,35.6454375 6.89115625,40.0593437 6.8625625,45.3462187 C6.8719375,46.4462187 7.76615625,47.3327812 8.86615625,47.3327812 L15.8505312,47.3327812 L15.8505312,45.237625 C15.8445937,41.7877812 17.2513125,38.4860625 19.7435,36.1005937" id="Fill-19" fill="#8736C1"></path>
            <path d="M19.7435,36.1005937 C17.2513125,38.4860625 15.8445938,41.7877812 15.8505125,45.237625 L15.8505125,47.3327812 L26.2355313,47.3327812 L26.2355313,45.237625 C26.2314688,41.1223125 23.6283438,37.4585625 19.7435,36.1005937" id="Fill-21" fill="#C33F72"></path>
            <path d="M33.4317813,45.3720625 C32.3105313,45.3739375 31.3885,46.2558125 31.3364688,47.3758125 L35.5300625,47.3614375 C35.4692812,46.24675 34.5483438,45.3734687 33.4317813,45.3720625" id="Fill-23" fill="#FFFFFF"></path>
            <path d="M14.6598125,45.3720625 C13.5285625,45.3745625 12.6016875,46.2709687 12.5616875,47.4015937 L16.7579375,47.4015937 C16.7195,46.2703437 15.7916875,45.373 14.6598125,45.3720625" id="Fill-25" fill="#FFFFFF"></path>
            <path d="M31.0501875,42.2434062 C29.1265937,42.3695 25.5056562,42.3809062 21.66425,42.3809062 C21.506125,42.3809062 21.378,42.2527812 21.378,42.0946562 L21.378,39.2665312 C21.378,39.1084062 21.506125,38.9802812 21.66425,38.9802812 C24.976125,39.0518437 28.9950312,40.2912187 31.1990937,41.57075 C31.3326875,41.651375 31.399875,41.80825 31.366125,41.9604375 C31.3325312,42.1129375 31.2053437,42.2268437 31.0501875,42.2434062 L31.0501875,42.2434062 Z M20.504875,42.16325 C20.504875,42.2834062 20.4075313,42.3809062 20.287375,42.3809062 L14.276125,42.3809062 C13.9158125,42.3809062 13.6236241,42.0887187 13.6236241,41.72825 L13.6236241,40.7149687 C13.6231563,40.43575 13.8003438,40.1871562 14.0644063,40.0965312 C16.078,39.430125 18.1762813,39.0541875 20.2959688,38.9802812 C20.354875,38.9779375 20.4122188,38.9998125 20.4544063,39.0409062 C20.4965938,39.0821562 20.5200313,39.138875 20.5192689,39.1977812 L20.504875,42.16325 Z M38.1776875,43.30825 C37.5651875,42.6584062 34.7914375,41.6680937 33.0253437,41.3960625 C32.8237813,41.3652812 32.6295625,41.2971562 32.4528437,41.19575 C24.9445625,36.916375 17.937375,37.4545 11.0759688,40.2912187 C10.8169063,40.3962187 10.5397188,40.4496562 10.2601875,40.4487187 C9.95971875,40.44575 9.6789375,40.597 9.51596875,40.8493437 C8.914875,41.8112187 8.599875,47.3043437 9.80221875,47.3615312 C10.0884688,47.3615312 10.7639375,47.3873125 11.7000313,47.3929375 C11.7055,45.7537187 13.0390938,44.4290312 14.6784688,44.4346562 C16.3176875,44.4402812 17.6422188,45.7737187 17.63675,47.4130937 C21.6928438,47.4130937 26.5676875,47.4130937 30.474875,47.390125 C30.5190938,45.7871562 31.8283125,44.508875 33.4320625,44.5034062 C35.0358125,44.4980937 36.3537812,45.7673125 36.4087813,47.370125 L37.4965938,47.370125 C38.2034688,47.31575 39.2426875,47.0495 39.2884687,46.0734062 C39.3484688,44.6537187 38.7559688,43.92075 38.1776875,43.30825 L38.1776875,43.30825 Z" id="Fill-27" fill="#FFFFFF"></path>
        </g>
    </g>
</svg>