<svg xmlns="http://www.w3.org/2000/svg" xmlns:xlink="http://www.w3.org/1999/xlink" width="28" height="28" viewBox="0 0 28 28">
    <defs>
        <path id="6j1zx8cd9a" d="M0 0L8.269 0 8.269 2.972 0 2.972z"/>
        <path id="kyorty9icc" d="M0 0L8.269 0 8.269 2.972 0 2.972z"/>
    </defs>
    <g fill="none" fill-rule="evenodd">
        <g>
            <g>
                <g>
                    <g>
                        <g transform="translate(-417.000000, -726.000000) translate(417.000000, 726.000000) translate(0.000000, 0.000000) translate(0.000000, 7.368421) translate(19.730750, 2.179897)">
                            <mask id="tg1c88745b" fill="#fff">
                                <use xlink:href="#6j1zx8cd9a"/>
                            </mask>
                            <path fill="#FF4722" d="M.906 2.066h6.27c.102 0 .187-.085.187-.189v-.783c0-.104-.085-.188-.187-.188H.906v1.16zm6.27.906H0V0h7.176c.603 0 1.093.49 1.093 1.094v.783c0 .604-.49 1.095-1.093 1.095z" mask="url(#tg1c88745b)"/>
                        </g>
                        <g transform="translate(-417.000000, -726.000000) translate(417.000000, 726.000000) translate(0.000000, 0.000000) translate(0.000000, 7.368421) translate(19.730750, 9.651326)">
                            <mask id="nt94gg7zhd" fill="#fff">
                                <use xlink:href="#kyorty9icc"/>
                            </mask>
                            <path fill="#FF4722" d="M.906 2.066h6.27c.102 0 .187-.085.187-.188v-.784c0-.104-.085-.188-.187-.188H.906v1.16zm6.27.906H0V0h7.176c.603 0 1.093.49 1.093 1.094v.784c0 .603-.49 1.094-1.093 1.094z" mask="url(#nt94gg7zhd)"/>
                        </g>
                        <path fill="#8736C1" d="M19.73.885L17.25.906l.02 13.013 2.461-.023V.885zm.023 13.917H17.25c-.49 0-.886-.396-.886-.883V.885c0-.487.396-.885.886-.885h2.504c.487 0 .884.398.884.885v13.034c0 .487-.397.883-.884.883z" transform="translate(-417.000000, -726.000000) translate(417.000000, 726.000000) translate(0.000000, 0.000000) translate(0.000000, 7.368421)"/>
                        <path fill="#FF4722" d="M6.78 7.855H.452c-.25 0-.453-.203-.453-.453s.203-.454.453-.454H6.78c.25 0 .453.204.453.454s-.203.453-.453.453" transform="translate(-417.000000, -726.000000) translate(417.000000, 726.000000) translate(0.000000, 0.000000) translate(0.000000, 7.368421)"/>
                        <path fill="#8736C1" d="M10.531 2.202c-1.819 0-3.298 1.48-3.298 3.299v3.8c0 1.82 1.48 3.3 3.298 3.3h5.832V2.201h-5.832zm6.739 11.305H10.53c-2.319 0-4.204-1.887-4.204-4.205V5.5c0-2.318 1.885-4.205 4.204-4.205h6.739v12.21z" transform="translate(-417.000000, -726.000000) translate(417.000000, 726.000000) translate(0.000000, 0.000000) translate(0.000000, 7.368421)"/>
                    </g>
                </g>
            </g>
        </g>
    </g>
</svg>
