<?xml version="1.0" encoding="UTF-8"?>
<svg width="80px" height="80px" viewBox="0 0 80 80" version="1.1" xmlns="http://www.w3.org/2000/svg" xmlns:xlink="http://www.w3.org/1999/xlink">
    <!-- Generator: Sketch 54.1 (76490) - https://sketchapp.com -->
    <title>assets/img_name_id</title>
    <desc>Created with Sketch.</desc>
    <g id="Miscellaneous" stroke="none" stroke-width="1" fill="none" fill-rule="evenodd">
        <g id="Horoscopes-(Mobile)" transform="translate(-36.000000, -985.000000)">
            <g id="assets/img_name_id" transform="translate(36.000000, 985.000000)">
                <circle id="Oval" fill="#353167" cx="40" cy="40" r="40"></circle>
                <g id="assets/img_onboarding_self" transform="translate(16.000000, 19.200000)">
                    <path d="M30,15.1948636 L18,15.1948636 C16.34325,15.1948636 15,13.841408 15,12.1720706 C15,10.5027332 16.34325,9.14927769 18,9.14927769 L30,9.14927769 C31.65675,9.14927769 33,10.5027332 33,12.1720706 C33,13.841408 31.65675,15.1948636 30,15.1948636 M45,6.12648475 L3,6.12648475 C1.34325,6.12648475 0,7.47994029 0,9.14927769 L0,39.3772071 C0,41.0465445 1.34325,42.4 3,42.4 L45,42.4 C46.65675,42.4 48,41.0465445 48,39.3772071 L48,9.14927769 C48,7.47994029 46.65675,6.12648475 45,6.12648475" id="Fill-522" fill="#FFFFFF"></path>
                    <polygon id="Fill-523" fill="#6FDAF1" points="21.75 18.9733547 3.75 18.9733547 3.75 38.6215088 21.75 38.6215088"></polygon>
                    <path d="M43.5,21.9961477 C43.5,22.4132931 43.164,22.7518459 42.75,22.7518459 L26.25,22.7518459 C25.836,22.7518459 25.5,22.4132931 25.5,21.9961477 C25.5,21.5790022 25.836,21.2404494 26.25,21.2404494 L42.75,21.2404494 C43.164,21.2404494 43.5,21.5790022 43.5,21.9961477" id="Fill-524" fill="#E2E4E5"></path>
                    <path d="M43.5,28.0417335 C43.5,28.458879 43.164,28.7974318 42.75,28.7974318 L26.25,28.7974318 C25.836,28.7974318 25.5,28.458879 25.5,28.0417335 C25.5,27.6245881 25.836,27.2860353 26.25,27.2860353 L42.75,27.2860353 C43.164,27.2860353 43.5,27.6245881 43.5,28.0417335" id="Fill-525" fill="#E2E4E5"></path>
                    <path d="M37.5,34.0873194 C37.5,34.5044648 37.164,34.8430177 36.75,34.8430177 L26.25,34.8430177 C25.836,34.8430177 25.5,34.5044648 25.5,34.0873194 C25.5,33.670174 25.836,33.3316212 26.25,33.3316212 L36.75,33.3316212 C37.164,33.3316212 37.5,33.670174 37.5,34.0873194" id="Fill-526" fill="#E2E4E5"></path>
                    <polygon id="Fill-527" fill="#9CE5F4" points="21.75 20.449309 21.75 18.9734303 3.75 18.9734303 3.75 38.5860666"></polygon>
                    <path d="M24.046875,4.66231942 C23.218875,4.66231942 22.546875,3.9852138 22.546875,3.15092295 C22.546875,2.3166321 23.218875,1.63952648 24.046875,1.63952648 C24.874875,1.63952648 25.546875,2.3166321 25.546875,3.15092295 C25.546875,3.9852138 24.874875,4.66231942 24.046875,4.66231942 M24.749625,0.0812767255 L23.250375,0.0812767255 C20.248125,0.0812767255 19.500375,3.07837592 19.500375,12.1724485 L28.499625,12.1724485 C28.499625,3.11011525 27.751875,0.0812767255 24.749625,0.0812767255" id="Fill-528" fill="#E1C618"></path>
                    <path d="M24.046875,1.63952648 C24.874875,1.63952648 25.546875,2.3166321 25.546875,3.15092295 C25.546875,3.9852138 24.874875,4.66231942 24.046875,4.66231942 C23.218875,4.66231942 22.546875,3.9852138 22.546875,3.15092295 C22.546875,2.3166321 23.218875,1.63952648 24.046875,1.63952648 L24.046875,1.63952648 Z M28.408125,7.63750337 C28.132875,2.07027448 27.181125,0.0805210273 24.749625,0.0805210273 L23.250375,0.0805210273 C20.817375,0.0805210273 19.864875,2.05138202 19.591125,7.63750337 L28.408125,7.63750337 Z" id="Fill-529" fill="#F2DA3E"></path>
                    <path d="M15.121575,32.7603889 C15.990825,31.7469976 16.500075,30.5303234 16.500075,27.2861109 C16.500075,25.6167735 15.000075,23.5076197 12.750075,23.5076197 C10.500075,23.5076197 9.000075,25.6167735 9.000075,27.2861109 C9.000075,30.5129423 9.699825,31.7205481 10.568325,32.7377179 C8.034825,33.0951632 5.708325,34.0564114 3.750075,35.4673 L3.750075,38.6215844 L21.750075,38.6215844 L21.750075,35.4673 C19.840575,34.0919292 17.582325,33.1389937 15.121575,32.7603889" id="Fill-530" fill="#0484AB"></path>
                    <path d="M12.75,23.5075441 C10.5,23.5075441 9,25.6166979 9,27.2860353 C9,29.9377804 9.47325,31.2247345 10.1235,32.1648231 L16.236,26.0058825 C15.71175,24.7030587 14.4435,23.5075441 12.75,23.5075441" id="Fill-531" fill="#059BBF"></path>
                    <path d="M3.75,38.5860666 L9.32175,32.9719844 C7.272,33.4344717 5.38125,34.2914335 3.75,35.4673 L3.75,38.5860666 Z" id="Fill-532" fill="#059BBF"></path>
                </g>
            </g>
        </g>
    </g>
</svg>