<svg xmlns="http://www.w3.org/2000/svg" xmlns:xlink="http://www.w3.org/1999/xlink" width="28" height="28" viewBox="0 0 28 28">
    <defs>
        <path id="8huy0xp6xa" d="M0 0L16.273 0 16.273 16.273 0 16.273z"/>
    </defs>
    <g fill="none" fill-rule="evenodd">
        <g>
            <g>
                <g>
                    <g transform="translate(-56.000000, -2768.000000) translate(39.000000, 336.000000) translate(17.000000, 2432.000000) translate(5.861328, 5.894737)">
                        <mask id="hg0ny707tb" fill="#fff">
                            <use xlink:href="#8huy0xp6xa"/>
                        </mask>
                        <path fill="#5F5563" d="M15.498 16.14L.132.774C-.044.596-.044.31.132.133c.177-.178.464-.178.642 0L16.141 15.5c.175.177.175.464 0 .64-.09.089-.205.133-.321.133-.116 0-.232-.044-.322-.132z" mask="url(#hg0ny707tb)"/>
                    </g>
                    <path fill="#5F5563" d="M20.634 10.876h6.267c.103 0 .189-.084.189-.188v-.783c0-.104-.086-.188-.189-.188h-6.267v1.16zm6.267.906h-7.173V8.811h7.173c.604 0 1.095.49 1.095 1.094v.783c0 .604-.49 1.094-1.095 1.094zM26.906 19.255h-5.723v-.906h5.723c.1 0 .188-.088.188-.187v-.786c0-.1-.087-.187-.188-.187h-6.73v-.906h6.73c.603 0 1.094.49 1.094 1.093v.786c0 .603-.49 1.093-1.094 1.093" transform="translate(-56.000000, -2768.000000) translate(39.000000, 336.000000) translate(17.000000, 2432.000000)"/>
                    <path fill="#5F5563" d="M20.63 17.195h-.907v-9.68l-2.484.019.031.852h-.906v-.87c0-.49.393-.889.875-.889h2.513c.485 0 .878.4.878.889v9.679zM18.763 21.43h-1.524c-.482 0-.875-.398-.875-.888v-1.746h.906v1.746l1.493-.018v.907zM6.778 14.485H.453c-.25 0-.453-.203-.453-.453s.203-.454.453-.454h6.325c.25 0 .453.203.453.454 0 .25-.203.453-.453.453" transform="translate(-56.000000, -2768.000000) translate(39.000000, 336.000000) translate(17.000000, 2432.000000)"/>
                    <path fill="#5F5563" d="M16.817 20.137h-6.284c-2.321 0-4.211-1.888-4.211-4.211v-3.794c0-.8.23-1.579.663-2.252l.763.491c-.34.527-.52 1.136-.52 1.76v3.795c0 1.822 1.483 3.305 3.305 3.305h6.284v.906zM17.27 14.94L16.364 14.94 16.364 8.839 10.533 8.839 10.533 7.932 17.27 7.932z" transform="translate(-56.000000, -2768.000000) translate(39.000000, 336.000000) translate(17.000000, 2432.000000)"/>
                </g>
            </g>
        </g>
    </g>
</svg>
