<?xml version="1.0" encoding="UTF-8" standalone="no"?>
<svg width="200px" height="200px" viewBox="0 0 200 200" version="1.1" xmlns="http://www.w3.org/2000/svg" xmlns:xlink="http://www.w3.org/1999/xlink">
    <!-- Generator: Sketch 39.1 (31720) - http://www.bohemiancoding.com/sketch -->
    <title>assets/img_placeholder_sex_offender</title>
    <desc>Created with Sketch.</desc>
    <defs></defs>
    <g id="Freshness" stroke="none" stroke-width="1" fill="none" fill-rule="evenodd">
        <g id="Freeform-Icons" transform="translate(-900.000000, -400.000000)">
            <g id="assets/img_placeholder_sex_offender" transform="translate(900.000000, 400.000000)">
                <rect id="Rectangle" fill="#CFD9DE" x="0" y="0" width="200" height="199.004975"></rect>
                <g id="person-active" transform="translate(31.000000, 35.000000)" fill="#FFFFFF">
                    <path d="M98.6892562,46.5968222 C99.9256198,45.5634276 101.06281,43.4966384 102.094215,40.3898303 C103.33719,34.1828384 102.305785,29.6253032 99,26.7304735 C99,8.7520573 84.1305785,0.00132486487 69.5785124,0.00132486487 C55.0264463,0.00132486487 40.1570248,8.7520573 40.1570248,26.7304735 C36.8512397,29.6253032 35.8198347,34.1828384 37.0628099,40.3898303 C38.0942149,43.4966384 39.231405,45.5634276 40.4677686,46.5968222 C41.0892562,54.2545411 45.5322314,79.0560114 69.5785124,79.0560114 C93.6247934,79.0560114 98.0677686,54.2545411 98.6892562,46.5968222 Z" id="Fill-1"></path>
                    <path d="M133.03438,100.331354 C131.044298,96.5289916 127.110413,93.1770835 121.239339,90.2756295 C116.386446,87.8842484 99.1236364,79.4647322 93.8409917,76.88787 C87.8442975,82.2270754 79.8839669,85.6783484 69.5963636,85.6783484 L69.5831405,85.6783484 L69.5765289,85.6783484 L69.5765289,85.6783484 C59.2955372,85.6783484 51.3484298,82.2403241 45.3517355,76.9143673 C41.1732231,79.073897 29.7880992,84.9231754 26.5947107,86.20167 C22.528595,87.8312538 18.4624793,89.9179159 14.3963636,92.4550322 C10.3236364,94.9855241 7.56661157,97.6153808 6.12528926,100.331354 C2.14512397,108.300416 0.155041322,116.541075 0.155041322,125.053332 C0.155041322,127.047254 1.15338843,128.047527 3.14347107,128.047527 L136.016198,128.047527 C138.006281,128.047527 138.998017,127.047254 138.998017,125.053332 C138.998017,116.541075 137.014545,108.300416 133.03438,100.331354" id="Fill-3"></path>
                </g>
            </g>
        </g>
    </g>
</svg>