<svg xmlns="http://www.w3.org/2000/svg" xmlns:xlink="http://www.w3.org/1999/xlink" width="69" height="60" viewBox="0 0 69 60">
    <defs>
        <path id="prefix__a" d="M0 0.017L68.68 0.017 68.68 59.88 0 59.88z"/>
    </defs>
    <g fill="none" fill-rule="evenodd">
        <g transform="translate(0 .102)">
            <mask id="prefix__b" fill="#fff">
                <use xlink:href="#prefix__a"/>
            </mask>
            <path fill="#493B8E" d="M3.919 57.012h60.843L34.34 4.32 3.92 57.012zm63.327 2.868H1.434c-.512 0-.986-.273-1.242-.717-.256-.443-.256-.99 0-1.434L33.098.734c.256-.443.73-.717 1.242-.717.513 0 .986.274 1.242.717L68.488 57.73c.256.444.256.99 0 1.434-.256.444-.73.717-1.242.717z" mask="url(#prefix__b)"/>
        </g>
        <path fill="#8B88AA" d="M34.34 42.701c-.792 0-1.434-.642-1.434-1.434V21.84c0-.793.642-1.435 1.434-1.435.792 0 1.434.642 1.434 1.435v19.426c0 .792-.642 1.434-1.434 1.434M34.34 50.587c-.792 0-1.434-.643-1.434-1.435v-2.03c0-.792.642-1.434 1.434-1.434.792 0 1.434.642 1.434 1.434v2.03c0 .792-.642 1.435-1.434 1.435"/>
    </g>
</svg>
