<?xml version="1.0" encoding="UTF-8"?>
<svg width="200px" height="200px" viewBox="0 0 200 200" version="1.1" xmlns="http://www.w3.org/2000/svg" xmlns:xlink="http://www.w3.org/1999/xlink">
    <!-- Generator: Sketch 48.1 (47250) - http://www.bohemiancoding.com/sketch -->
    <title>assets/img_pro_licenses</title>
    <desc>Created with Sketch.</desc>
    <defs></defs>
    <g id="Circular-Icons" stroke="none" stroke-width="1" fill="none" fill-rule="evenodd" transform="translate(-1000.000000, -750.000000)">
        <g id="assets/img_pro_licenses" transform="translate(1000.000000, 750.000000)">
            <circle id="background" fill="#353167" cx="100" cy="100" r="100"></circle>
            <g id="Group" transform="translate(40.000000, 53.000000)">
                <polygon id="Fill-6444" fill="#FFFFFF" points="0 0 120 0 120 97.3968254 0 97.3968254"></polygon>
                <path d="M120,0 L0,0 L0,97.3968254 L120,97.3968254 L120,0 Z M112.5,89.9047619 L7.5,89.9047619 L7.5,7.49206349 L112.5,7.49206349 L112.5,89.9047619 Z" id="Fill-6445" fill="#F2DA3E"></path>
                <path d="M63.75,73.047619 C63.75,72.0137143 62.91,71.1746032 61.875,71.1746032 L20.625,71.1746032 C19.59,71.1746032 18.75,72.0137143 18.75,73.047619 C18.75,74.0815238 19.59,74.9206349 20.625,74.9206349 L61.875,74.9206349 C62.91,74.9206349 63.75,74.0815238 63.75,73.047619" id="Fill-6446" fill="#353167"></path>
                <path d="M63.75,59.9365079 C63.75,58.9026032 62.91,58.0634921 61.875,58.0634921 L20.625,58.0634921 C19.59,58.0634921 18.75,58.9026032 18.75,59.9365079 C18.75,60.9704127 19.59,61.8095238 20.625,61.8095238 L61.875,61.8095238 C62.91,61.8095238 63.75,60.9704127 63.75,59.9365079" id="Fill-6447" fill="#353167"></path>
                <path d="M63.75,46.8253968 C63.75,45.7914921 62.91,44.952381 61.875,44.952381 L20.625,44.952381 C19.59,44.952381 18.75,45.7914921 18.75,46.8253968 C18.75,47.8593016 19.59,48.6984127 20.625,48.6984127 L61.875,48.6984127 C62.91,48.6984127 63.75,47.8593016 63.75,46.8253968" id="Fill-6448" fill="#353167"></path>
                <path d="M108.40875,61.361873 C109.41375,58.9793968 108.950625,56.1249206 107.008125,54.1844762 C105.065625,52.2421587 102.208125,51.7813968 99.823125,52.7834603 C98.844375,50.389746 96.49875,48.6984127 93.75,48.6984127 C91.00125,48.6984127 88.655625,50.389746 87.676875,52.7834603 C85.291875,51.7813968 82.434375,52.2421587 80.491875,54.1844762 C78.549375,56.1249206 78.08625,58.9793968 79.09125,61.361873 C76.693125,62.3395873 75,64.6827302 75,67.4285714 C75,70.1744127 76.693125,72.5175556 79.09125,73.4952698 C78.08625,75.877746 78.549375,78.7322222 80.491875,80.6726667 C81.4875,81.6691111 82.726875,82.2684762 84.016875,82.487619 L78.75,118 L93.75,105.357143 L108.75,118 L103.483125,82.487619 C104.773125,82.2684762 106.0125,81.6691111 107.008125,80.6726667 C108.950625,78.7322222 109.41375,75.877746 108.40875,73.4952698 C110.806875,72.5175556 112.5,70.1744127 112.5,67.4285714 C112.5,64.6827302 110.806875,62.3395873 108.40875,61.361873 Z" id="Fill-6449" fill="#81B44C"></path>
                <path d="M112.5,67.4285714 C112.5,64.6827302 110.806875,62.3395873 108.40875,61.361873 C109.41375,58.9793968 108.950625,56.1249206 107.008125,54.1844762 C105.065625,52.2421587 102.208125,51.7813968 99.823125,52.7834603 C98.844375,50.389746 96.49875,48.6984127 93.75,48.6984127 C91.00125,48.6984127 88.655625,50.389746 87.676875,52.7834603 C85.291875,51.7813968 82.434375,52.2421587 80.491875,54.1844762 C78.549375,56.1249206 78.08625,58.9793968 79.09125,61.361873 C76.693125,62.3395873 75,64.6827302 75,67.4285714 C75,70.1744127 76.693125,72.5175556 79.09125,73.4952698 C78.08625,75.877746 78.549375,78.7322222 80.491875,80.6726667 C82.434375,82.6149841 85.291875,83.075746 87.676875,82.0736825 C88.655625,84.4673968 91.00125,86.1587302 93.75,86.1587302 C96.49875,86.1587302 98.844375,84.4673968 99.823125,82.0736825 C102.208125,83.075746 105.065625,82.6149841 107.008125,80.6726667 C108.950625,78.7322222 109.41375,75.877746 108.40875,73.4952698 C110.806875,72.5175556 112.5,70.1744127 112.5,67.4285714" id="Fill-6450" fill="#DC0015"></path>
                <path d="M107.008688,54.1844762 C105.064313,52.2421587 102.208688,51.7813968 99.8218125,52.7834603 C98.8449375,50.389746 96.4993125,48.6984127 93.7505625,48.6984127 C91.0018125,48.6984127 88.6543125,50.389746 87.6774375,52.7834603 C85.2905625,51.7813968 82.4349375,52.2421587 80.4905625,54.1844762 C78.5480625,56.1249206 78.0868125,58.9793968 79.0899375,61.363746 C76.6936875,62.3395873 75.0005625,64.6827302 75.0005625,67.4285714 C75.0005625,70.1744127 76.6936875,72.5175556 79.0899375,73.4952698 C78.0868125,75.877746 78.5480625,78.7322222 80.4905625,80.6726667 C80.5711875,80.7532063 80.6611875,80.8150159 80.7455625,80.8899365 L107.226188,54.4373333 C107.151188,54.3549206 107.087438,54.2650159 107.008688,54.1844762" id="Fill-6451" fill="#E7114C"></path>
                <path d="M101.25,67.4285714 C101.25,71.5660635 97.891875,74.9206349 93.75,74.9206349 C89.608125,74.9206349 86.25,71.5660635 86.25,67.4285714 C86.25,63.2910794 89.608125,59.9365079 93.75,59.9365079 C97.891875,59.9365079 101.25,63.2910794 101.25,67.4285714" id="Fill-6452" fill="#E1C618"></path>
                <path d="M93.75,59.9365079 C89.608125,59.9365079 86.25,63.2910794 86.25,67.4285714 C86.25,69.618127 87.20625,71.5698095 88.704375,72.9389841 L99.26625,62.3882857 C97.895625,60.891746 95.941875,59.9365079 93.75,59.9365079" id="Fill-6453" fill="#F2DA3E"></path>
                <path d="M25,21.1812788 L28.2991076,21.1812788 L28.2991076,29.1938036 L33.448046,29.1938036 L33.448046,31.81147 L25,31.81147 L25,21.1812788 Z M35.0793928,21.1812788 L38.3857832,21.1812788 L38.3857832,31.81147 L35.0793928,31.81147 L35.0793928,21.1812788 Z M47.8607037,27.468029 L50.7519746,28.3381674 C50.5577656,29.1454666 50.2518912,29.8198171 49.834342,30.3612393 C49.4167928,30.9026615 48.8985055,31.311139 48.2794646,31.5866842 C47.6604236,31.8622295 46.8726755,32 45.9161965,32 C44.7557982,32 43.8078301,31.8320166 43.0722638,31.4960448 C42.3366975,31.160073 41.7018866,30.5691099 41.1678121,29.7231378 C40.6337375,28.8771656 40.3667043,27.7943375 40.3667043,26.474621 C40.3667043,24.7149989 40.8364401,23.3626723 41.7759257,22.4176005 C42.7154114,21.4725288 44.0445088,21 45.7632578,21 C47.1081546,21 48.1653635,21.270707 48.9349164,21.8121292 C49.7044693,22.3535514 50.2761632,23.1850087 50.6500154,24.306526 L47.7368961,24.9518787 C47.6349364,24.6279922 47.5281231,24.3911236 47.416453,24.2412657 C47.2319545,23.9898911 47.00619,23.7965289 46.7391527,23.6611734 C46.4721155,23.5258178 46.1735237,23.4581411 45.8433686,23.4581411 C45.0956642,23.4581411 44.5227565,23.7578524 44.1246282,24.3572841 C43.8236043,24.8020238 43.6730947,25.5005446 43.6730947,26.4528675 C43.6730947,27.6323944 43.8527352,28.4408899 44.2120217,28.8783784 C44.5713083,29.3158668 45.0762439,29.5346078 45.7268438,29.5346078 C46.3580228,29.5346078 46.8350413,29.3581648 47.1579136,29.0052736 C47.480786,28.6523823 47.715047,28.1399726 47.8607037,27.468029 L47.8607037,27.468029 Z M52.3469074,21.1812788 L61.1882244,21.1812788 L61.1882244,23.4508899 L55.6532978,23.4508899 L55.6532978,25.1404087 L60.7876705,25.1404087 L60.7876705,27.3085036 L55.6532978,27.3085036 L55.6532978,29.404087 L61.348446,29.404087 L61.348446,31.81147 L52.3469074,31.81147 L52.3469074,21.1812788 Z M63.1472972,21.1812788 L66.2279208,21.1812788 L70.2480254,27.0619644 L70.2480254,21.1812788 L73.3577803,21.1812788 L73.3577803,31.81147 L70.2480254,31.81147 L66.2497692,25.9742914 L66.2497692,31.81147 L63.1472972,31.81147 L63.1472972,21.1812788 Z M74.9745615,28.2946605 L78.1134475,28.0988794 C78.1814207,28.6064627 78.3197924,28.993187 78.528567,29.2590639 C78.8684326,29.6893012 79.3539477,29.9044166 79.9851267,29.9044166 C80.4560833,29.9044166 80.8190058,29.7944419 81.073905,29.5744891 C81.3288042,29.3545364 81.4562519,29.09954 81.4562519,28.8094924 C81.4562519,28.5339472 81.3348732,28.2874104 81.092112,28.0698748 C80.8493509,27.8523391 80.2861534,27.6468918 79.4025028,27.4535267 C77.9556463,27.1296402 76.9239269,26.6994094 76.3073136,26.1628214 C75.685845,25.6262333 75.3751154,24.9422147 75.3751154,24.1107449 C75.3751154,23.5644886 75.5341216,23.0484533 75.8521387,22.5626236 C76.1701558,22.0767939 76.6483881,21.6949036 77.2868499,21.4169413 C77.9253118,21.1389791 78.8004526,21 79.9122987,21 C81.2766164,21 82.3168323,21.2525793 83.0329777,21.7577456 C83.7491231,22.2629118 84.1751626,23.0665733 84.3111088,24.1687541 L81.201354,24.350033 C81.1188152,23.8714544 80.9452436,23.5234025 80.6806339,23.3058668 C80.4160243,23.0883311 80.0506742,22.9795649 79.5845728,22.9795649 C79.2010102,22.9795649 78.9121287,23.0605353 78.7179198,23.2224786 C78.5237109,23.3844218 78.4266079,23.5814095 78.4266079,23.8134476 C78.4266079,23.982642 78.5067178,24.1349147 78.6669402,24.2702703 C78.8223073,24.4104599 79.1912988,24.5409794 79.7739255,24.6618326 C81.2159268,24.9712167 82.24886,25.2842217 82.8727562,25.600857 C83.4966523,25.9174922 83.9506089,26.3102591 84.2346395,26.7791694 C84.51867,27.2480797 84.6606831,27.7725746 84.6606831,28.3526697 C84.6606831,29.0342816 84.4713323,29.6627086 84.0926249,30.2379697 C83.7139175,30.8132307 83.1847061,31.2495041 82.5049749,31.5468029 C81.8252436,31.8441017 80.9683096,31.9927488 79.9341471,31.9927488 C78.1182937,31.9927488 76.8608097,31.644697 76.1616576,30.9485827 C75.4625055,30.2524685 75.0668107,29.3678366 74.9745615,28.2946605 L74.9745615,28.2946605 Z M86.3138783,21.1812788 L95.1551954,21.1812788 L95.1551954,23.4508899 L89.6202687,23.4508899 L89.6202687,25.1404087 L94.7546415,25.1404087 L94.7546415,27.3085036 L89.6202687,27.3085036 L89.6202687,29.404087 L95.315417,29.404087 L95.315417,31.81147 L86.3138783,31.81147 L86.3138783,21.1812788 Z" id="LICENSE" fill="#E7114C"></path>
            </g>
        </g>
    </g>
</svg>