<?xml version="1.0" encoding="UTF-8"?>
<svg width="200px" height="200px" viewBox="0 0 200 200" version="1.1" xmlns="http://www.w3.org/2000/svg" xmlns:xlink="http://www.w3.org/1999/xlink">
    <!-- Generator: Sketch 63.1 (92452) - https://sketch.com -->
    <title>img_bankruptcy-610e185d79e3a9b8223a858a5dcdf687 2</title>
    <desc>Created with Sketch.</desc>
    <g id="Person-" stroke="none" stroke-width="1" fill="none" fill-rule="evenodd">
        <g id="img_bankruptcy-610e185d79e3a9b8223a858a5dcdf687-2" fill-rule="nonzero">
            <g id="img_bankruptcy-610e185d79e3a9b8223a858a5dcdf687">
                <circle id="background" fill="#493B8E" cx="100" cy="100" r="100"></circle>
                <g id="Group-2" transform="translate(20.000000, 45.000000)">
                    <g id="piggy-bank" transform="translate(44.140913, 50.310857) rotate(-20.000000) translate(-44.140913, -50.310857) translate(12.640913, 9.810857)">
                        <path d="M61.7411278,0.825973689 C46.2789756,-0.0745321668 30.7679321,6.27246402 26.8156425,13.3636364 C15.0837989,5.01136364 6.70391061,8.35227273 6.70391061,8.35227273 C6.70391061,15.0340909 10.0558659,23.3863636 13.3944134,26.3180114 C13.2268156,26.4767045 13.1296089,26.5685795 12.9636872,26.7272727 L4.38603352,26.7272727 C1.96424581,26.7272727 8.10018719e-13,28.6850455 8.10018719e-13,31.0988523 L8.10018719e-13,42.4011477 C8.10018719e-13,44.8149545 1.96424581,46.7727273 4.38603352,46.7727273 L4.26703911,46.7727273 C8.67821229,46.7727273 12.5932961,49.4588182 14.3078212,53.5096705 C16.5217877,58.7465455 20.5424581,63.2801591 25.5201117,66.7062614 L21.9502793,75.5997614 C21.5379888,76.6304318 21.6636872,77.7964091 22.2871508,78.7134886 C22.9106145,79.6322386 23.9513966,80.1818182 25.0625698,80.1818182 L31.9089385,80.1818182 C32.926257,80.1818182 33.8899441,79.7207727 34.5268156,78.9289773 L39.5195531,72.7065341 C41.9648045,73.2210341 44.4502793,73.5 46.9273743,73.5 L60.3351955,73.5 L62.5698324,71.2727273 L44.6927374,53.4545455 L62.5698324,35.6363636 L44.6927374,17.8181818 L61.7411278,0.825973689 Z" id="Combined-Shape" fill="#FBC8C8"></path>
                        <path d="M55.2201117,28.3108636 L20.7,62.7172159 C17.9664804,60.0144205 15.747486,56.9157273 14.3078212,53.5096705 C12.5932961,49.4588182 8.67821229,46.7727273 4.26703911,46.7727273 C5.94469274,46.7727273 -3.41060513e-13,47.315625 -3.41060513e-13,42.4011477 L-3.41060513e-13,31.0988523 C-3.41060513e-13,28.6850455 1.96424581,26.7272727 4.38603352,26.7272727 L12.9636872,26.7272727 C13.1296089,26.5685795 13.2268156,26.4767045 13.3944134,26.3180114 C10.0558659,23.3863636 6.70391061,15.0340909 6.70391061,8.35227273 C6.70391061,8.35227273 15.0837989,5.01136364 26.8156425,13.3636364 C30.7684815,6.27246032 46.2763918,-0.0707094583 61.7368361,0.830251212 L44.6927374,17.8181818 L55.2201117,28.3108636 Z" id="Combined-Shape" fill="#FBD7D7"></path>
                        <path d="M48.8294433,13.6951083 C45.9876024,14.2664167 43.1746373,15.1480378 40.3828492,16.3407205 C38.7588268,17.0356295 36.871676,16.3540841 36.0739106,14.7838568 C35.8577095,14.3612318 35.8241899,13.8684477 35.9817318,13.4207659 C36.1359218,12.9730841 36.4677654,12.6072545 36.9001676,12.4068 C42.635036,9.75077674 48.5291037,8.27957937 54.5531402,7.99027352 L48.8294433,13.6951083 Z" id="Combined-Shape" fill="#9C6144"></path>
                        <path d="M27.3811173,25.0568182 C25.6112849,25.0568182 24.104581,26.1543068 23.4911732,27.6994773 L23.8414525,27.9016023 L26.0637989,29.1811705 L23.8414525,30.4590682 L23.4643575,30.6762273 C24.0559777,32.2681705 25.5777654,33.4090909 27.3811173,33.4090909 C29.6939665,33.4090909 31.5710615,31.5398523 31.5710615,29.2329545 C31.5710615,26.9260568 29.6939665,25.0568182 27.3811173,25.0568182" id="Fill-4369" fill="#692E19"></path>
                    </g>
                    <g id="piggy-bank" transform="translate(116.818937, 49.795924) rotate(20.000000) translate(-116.818937, -49.795924) translate(85.318937, 9.295924)">
                        <path d="M17.0483903,0.825973689 C32.8816617,1.74809329 48.6636667,10.269796 51.9307263,33.3740114 C57.577095,33.0315682 57.9340782,30.0080455 59.2178771,27.96675 C59.8882682,26.8993295 62.5698324,27.1382045 62.5698324,28.3977273 C62.5698324,36.4509886 61.4067039,46.029375 51.9072626,46.7075795 C50.0402235,55.6912841 43.9664804,63.3954205 35.975419,68.2063295 L38.9435754,75.5997614 C39.3558659,76.6304318 39.2301676,77.7964091 38.6067039,78.7134886 C37.9832402,79.6322386 36.9424581,80.1818182 35.8312849,80.1818182 L28.9849162,80.1818182 C27.9675978,80.1818182 27.0039106,79.7207727 26.3670391,78.9289773 L21.7698324,73.2009886 C20.3,73.3914205 18.8134078,73.5 17.3184358,73.5 L15.6424581,73.5 L17.877095,71.2727273 L2.55795385e-13,53.4545455 L17.877095,35.6363636 L2.55795385e-13,17.8181818 L17.0483903,0.825973689 Z" id="Combined-Shape" fill="#FBC8C8"></path>
                        <path d="M10.5273743,28.3108636 L33.7178771,5.19678409 C28.567608,2.50944841 22.8091533,1.166211 17.0440987,0.830251212 L2.13162821e-13,17.8181818 L10.5273743,28.3108636 Z" id="Combined-Shape" fill="#FBD7D7"></path>
                        <path d="M33.9595531,13.4023909 C33.7886034,12.9664023 33.4500559,12.6189477 33.0176536,12.4351977 C31.4204469,11.7603341 29.8316201,11.1723341 28.2461453,10.6494818 L24.2321788,14.6502205 C26.017095,15.1530273 27.817095,15.7493795 29.6372067,16.467675 C31.2997765,17.1241636 33.1818994,16.3707886 33.9226816,14.7487773 C34.115419,14.3244818 34.1305028,13.8383795 33.9595531,13.4023909 Z" id="Combined-Shape" fill="#84462D"></path>
                        <path d="M4.13670586,13.6951083 C10.6524151,12.3852252 17.3199195,12.7066037 24.2320112,14.6502205 L28.2459777,10.6494818 C22.0074772,8.58906912 15.8692821,7.7016956 9.86040281,7.99027352 L4.13670586,13.6951083 Z" id="Combined-Shape" fill="#9C6144"></path>
                    </g>
                    <polygon id="Path-902" fill="#FBC8C8" points="54.1870713 95 47 100.996331 54.6471968 104.001112"></polygon>
                    <polygon id="Path-902" fill="#FBC8C8" transform="translate(84.756314, 96.128227) rotate(-86.000000) translate(-84.756314, -96.128227) " points="88.119787 91.6276714 80.9327156 97.6240028 88.5799124 100.628783"></polygon>
                    <polygon id="Path-902" fill="#FBC8C8" transform="translate(80.756314, 114.128227) rotate(-125.000000) translate(-80.756314, -114.128227) " points="84.1197872 109.627671 76.9327158 115.624002 84.5799126 118.628783"></polygon>
                    <polygon id="Path-902" fill="#F0F0F0" transform="translate(69.756314, 99.128227) rotate(56.000000) translate(-69.756314, -99.128227) " points="73.1197868 94.6276708 65.9327154 100.624002 73.5799122 103.628783"></polygon>
                    <polygon id="Path-902" fill="#F0F0F0" transform="translate(100.536887, 104.132288) rotate(70.000000) translate(-100.536887, -104.132288) " points="103.90036 99.6317318 96.7132888 105.628063 104.360485 108.632844"></polygon>
                </g>
            </g>
        </g>
    </g>
</svg>