<?xml version="1.0" encoding="UTF-8" standalone="no"?>
<svg width="100px" height="60px" viewBox="0 0 100 60" version="1.1" xmlns="http://www.w3.org/2000/svg" xmlns:xlink="http://www.w3.org/1999/xlink">
    <!-- Generator: Sketch 40 (33762) - http://www.bohemiancoding.com/sketch -->
    <title>assets/img_generic_credit_card</title>
    <desc>Created with Sketch.</desc>
    <defs></defs>
    <g id="Freshness" stroke="none" stroke-width="1" fill="none" fill-rule="evenodd">
        <g id="Freeform-Icons" transform="translate(-638.000000, -992.000000)">
            <g id="assets/img_generic_credit_card" transform="translate(638.000000, 992.000000)">
                <path d="M100,57.2727273 C100,58.7781818 98.6,60 96.875,60 L3.125,60 C1.4,60 0,58.7781818 0,57.2727273 L0,2.72727273 C0,1.22181818 1.4,0 3.125,0 L96.875,0 C98.6,0 100,1.22181818 100,2.72727273 L100,57.2727273 Z" id="Fill-3938" fill="#333333"></path>
                <path d="M3.125,0 C1.4,0 0,1.22181818 0,2.72727273 L0,57.2727273 C0,57.9968182 0.3296875,58.6513636 0.8578125,59.1409091 L68.6234375,0 L3.125,0 Z" id="Fill-3939" fill="#666666"></path>
                <path d="M88.84375,24.5454545 C88.84375,26.0509091 87.62575,27.2727273 86.125,27.2727273 L71.171875,27.2727273 C69.671125,27.2727273 68.453125,26.0509091 68.453125,24.5454545 L68.453125,13.6363636 C68.453125,12.1309091 69.671125,10.9090909 71.171875,10.9090909 L86.125,10.9090909 C87.62575,10.9090909 88.84375,12.1309091 88.84375,13.6363636 L88.84375,24.5454545 Z" id="Fill-3940" fill="#F0F0F0"></path>
                <path d="M88.84375,17.7272727 L88.84375,15 L83.40625,15 C83.40625,13.4945455 82.18825,12.2727273 80.6875,12.2727273 L76.609375,12.2727273 C75.108625,12.2727273 73.890625,13.4945455 73.890625,15 L68.453125,15 L68.453125,17.7272727 L73.890625,17.7272727 L73.890625,20.4545455 L68.453125,20.4545455 L68.453125,23.1818182 L73.890625,23.1818182 C73.890625,24.6872727 75.108625,25.9090909 76.609375,25.9090909 L80.6875,25.9090909 C82.18825,25.9090909 83.40625,24.6872727 83.40625,23.1818182 L88.84375,23.1818182 L88.84375,20.4545455 L83.40625,20.4545455 L83.40625,17.7272727 L88.84375,17.7272727 Z" id="Fill-3960" fill="#CFD9DE"></path>
                <path d="M10.9887824,44.42004 L10.9887824,44.37684 C10.9887824,40.26924 13.8555471,36.90324 17.9327235,36.90324 C20.0115471,36.90324 21.3761941,37.56204 22.5497235,38.53404 C22.8011941,38.73924 23.0124294,39.09204 23.0124294,39.54564 C23.0124294,40.24764 22.4927235,40.78404 21.8389,40.78404 C21.5136647,40.78404 21.2789588,40.66164 21.1247235,40.53564 C20.2026647,39.73284 19.2034882,39.23604 17.9126059,39.23604 C15.3576647,39.23604 13.4699588,41.50764 13.4699588,44.33724 L13.4699588,44.37684 C13.4699588,47.20644 15.3375471,49.49964 17.9126059,49.49964 C19.3376059,49.49964 20.2999,49.00284 21.2789588,48.11724 C21.4533118,47.95164 21.7047824,47.82924 21.9931353,47.82924 C22.5899588,47.82924 23.1096647,48.36564 23.1096647,49.00284 C23.1096647,49.39884 22.9353118,49.70844 22.7240765,49.91364 C21.4533118,51.11244 20.0115471,51.85404 17.8354882,51.85404 C13.9125471,51.85404 10.9887824,48.57084 10.9887824,44.42004" id="Fill-3967" fill="#FFFFFF"></path>
                <path d="M33.8159412,45.86472 L31.4487647,40.01832 L29.0815882,45.86472 L33.8159412,45.86472 Z M25.0077647,49.95432 L30.007,37.97712 C30.2752353,37.33632 30.7580588,36.94032 31.432,36.94032 L31.546,36.94032 C32.2199412,36.94032 32.6826471,37.33632 32.9508824,37.97712 L37.9501176,49.95432 C38.0473529,50.14152 38.0875882,50.32512 38.0875882,50.49072 C38.0875882,51.17472 37.6047647,51.71112 36.9710588,51.71112 C36.4111176,51.71112 36.0288824,51.35832 35.8176471,50.82192 L34.7212353,48.11472 L28.1796471,48.11472 L27.043,50.90472 C26.8518824,51.41952 26.4495294,51.71112 25.9465882,51.71112 C25.333,51.71112 24.8535294,51.19272 24.8535294,50.53392 C24.8535294,50.34672 24.9105294,50.15952 25.0077647,49.95432 L25.0077647,49.95432 Z" id="Fill-3968" fill="#FFFFFF"></path>
                <path d="M46.4649118,44.31636 C48.1581471,44.31636 49.2344412,43.36596 49.2344412,41.90076 L49.2344412,41.85756 C49.2344412,40.30956 48.1950294,39.46356 46.4447941,39.46356 L43.0013235,39.46356 L43.0013235,44.31636 L46.4649118,44.31636 Z M40.6341471,38.43036 C40.6341471,37.70676 41.1572059,37.14876 41.8277941,37.14876 L46.6359118,37.14876 C48.3291471,37.14876 49.6569118,37.68876 50.5219706,38.59596 C51.2361471,39.38076 51.6385,40.45356 51.6385,41.71356 L51.6385,41.75676 C51.6385,44.06796 50.3878529,45.47196 48.5806176,46.07316 L51.1590294,49.56516 C51.3903824,49.87116 51.5446176,50.14116 51.5446176,50.53356 C51.5446176,51.23556 50.9846765,51.71076 50.4079706,51.71076 C49.8681471,51.71076 49.5227941,51.44076 49.2545588,51.05196 L45.9820882,46.56636 L43.0013235,46.56636 L43.0013235,50.45076 C43.0013235,51.15276 42.4816176,51.71076 41.8277941,51.71076 C41.1572059,51.71076 40.6341471,51.15276 40.6341471,50.45076 L40.6341471,38.43036 Z" id="Fill-3969" fill="#FFFFFF"></path>
                <path d="M59.5574765,49.29444 C62.3873588,49.29444 64.2348294,47.24964 64.2348294,44.42004 L64.2348294,44.37684 C64.2348294,41.55084 62.3873588,39.46284 59.5574765,39.46284 L56.9019471,39.46284 L56.9019471,49.29444 L59.5574765,49.29444 Z M54.5381235,38.42964 C54.5381235,37.70604 55.0578294,37.14804 55.7284176,37.14804 L59.5574765,37.14804 C63.7888882,37.14804 66.7126529,40.26924 66.7126529,44.33724 L66.7126529,44.37684 C66.7126529,48.44844 63.7888882,51.60924 59.5574765,51.60924 L55.7284176,51.60924 C55.0578294,51.60924 54.5381235,51.05124 54.5381235,50.32764 L54.5381235,38.42964 Z" id="Fill-3970" fill="#FFFFFF"></path>
            </g>
        </g>
    </g>
</svg>