<?xml version="1.0" encoding="UTF-8" standalone="no"?>
<svg width="150px" height="150px" viewBox="0 0 150 150" version="1.1" xmlns="http://www.w3.org/2000/svg" xmlns:xlink="http://www.w3.org/1999/xlink">
    <!-- Generator: Sketch 39.1 (31720) - http://www.bohemiancoding.com/sketch -->
    <title>assets/img_monitoring_no_bg</title>
    <desc>Created with Sketch.</desc>
    <defs></defs>
    <g id="Freshness" stroke="none" stroke-width="1" fill="none" fill-rule="evenodd">
        <g id="assets/img_monitoring_no_bg">
            <g id="magnifying-glass">
                <path d="M40.4940897,75.5300951 L2.95129076,113.072894 C-0.984171196,117.008356 -0.984171196,123.405774 2.95129076,127.339198 L3.0939538,127.483899 C7.02941576,131.419361 13.4268342,131.417323 17.3622962,127.483899 L54.9050951,89.9411005 C49.1496603,86.1992527 44.2338995,81.2834918 40.4940897,75.5300951" id="Fill-7566" fill="#84462D"></path>
                <path d="M2.94069293,113.07269 C-0.935665761,116.949049 -0.972350543,123.20788 2.78987772,127.155571 L37.3591712,92.5862772 L30.3931386,85.6202446 L2.94069293,113.07269 Z" id="Fill-7567" fill="#9C6144"></path>
                <path d="M40.4843071,75.5300951 L30.3939538,85.6204484 L37.3599864,92.586481 L46.6901495,83.2542799 C44.370856,80.9023777 42.2920516,78.3120245 40.4843071,75.5300951" id="Fill-7568" fill="#FACB1B"></path>
                <path d="M40.4940897,75.5300951 L30.4037364,85.6204484 L44.8147418,100.031454 L54.9050951,89.9411005 C49.1496603,86.1992527 44.2338995,81.2834918 40.4940897,75.5300951" id="Fill-7569" fill="#F3B606"></path>
                <path d="M81.5217391,97.826087 C54.5074728,97.826087 32.6086957,75.9273098 32.6086957,48.9130435 C32.6086957,21.8987772 54.5074728,0 81.5217391,0 C108.536005,0 130.434783,21.8987772 130.434783,48.9130435 C130.434783,75.9273098 108.536005,97.826087 81.5217391,97.826087" id="Fill-7570" fill="#FFFFFF"></path>
                <path d="M81.5217391,87.6358696 C60.1365489,87.6358696 42.798913,70.2982337 42.798913,48.9130435 C42.798913,27.5278533 60.1365489,10.1902174 81.5217391,10.1902174 C102.906929,10.1902174 120.244565,27.5278533 120.244565,48.9130435 C120.244565,70.2982337 102.906929,87.6358696 81.5217391,87.6358696" id="Fill-7571" fill="#40C9E7"></path>
                <path d="M81.5217391,10.1902174 C60.1365489,10.1902174 42.798913,27.5278533 42.798913,48.9130435 C42.798913,60.0754076 47.5516304,70.1066576 55.1086957,77.1745924 L109.783288,22.5 C102.715353,14.9408967 92.6861413,10.1902174 81.5217391,10.1902174" id="Fill-7572" fill="#6FDAF1"></path>
            </g>
            <g id="bell" transform="translate(58.695652, 45.652174)">
                <path d="M83.9673913,78.2608696 C78.423913,73.6956522 71.7391304,65.951087 71.7391304,32.6086957 C71.7391304,32.6086957 71.7391304,29.673913 70.2228261,26.0869565 C67.8423913,20.3967391 61.6467391,13.0434783 45.6521739,13.0434783 C29.6576087,13.0434783 23.4619565,20.3967391 21.0815217,26.0869565 C19.5652174,29.673913 19.5652174,32.6086957 19.5652174,32.6086957 C19.5652174,65.951087 12.8804348,73.6956522 7.33695652,78.2608696 C3.375,81.5217391 0,83.1684783 0,91.3043478 L45.6521739,91.3043478 L91.3043478,91.3043478 C91.3043478,83.1684783 87.9293478,81.5217391 83.9673913,78.2608696" id="Fill-2619" fill="#FACB1B"></path>
                <path d="M45.6521739,91.3043478 L0,91.3043478 C0,83.1684783 3.375,81.5217391 7.33695652,78.2608696 C12.8804348,73.6956522 19.5652174,65.951087 19.5652174,32.6086957 C19.5652174,32.6086957 19.5652174,29.673913 21.0815217,26.0869565 C23.4619565,20.3967391 29.6576087,13.0434783 45.6521739,13.0434783 L45.6521739,91.3043478 Z" id="Fill-2620" fill="#FBED9A"></path>
                <path d="M39.1304348,6.52173913 C39.1304348,10.1233696 42.0505435,13.0434783 45.6521739,13.0434783 C49.2538043,13.0434783 52.173913,10.1233696 52.173913,6.52173913 C52.173913,2.9201087 49.2538043,0 45.6521739,0 C42.0505435,0 39.1304348,2.9201087 39.1304348,6.52173913" id="Fill-2621" fill="#FBE158"></path>
                <path d="M19.5890217,32.0944565 C19.7047826,30.4640217 20.1825,28.2123913 21.0808696,26.0863043 L45.6515217,26.0863043 L45.6515217,32.6080435 L19.5645652,32.6080435 C19.5645652,32.6080435 19.5645652,32.4254348 19.5890217,32.0944565" id="Fill-2622" fill="#FACB1B"></path>
                <path d="M71.7153261,32.0944565 C71.5995652,30.4640217 71.1218478,28.2123913 70.2234783,26.0863043 L45.6528261,26.0863043 L45.6528261,32.6080435 L71.7397826,32.6080435 C71.7397826,32.6080435 71.7397826,32.4254348 71.7153261,32.0944565" id="Fill-2623" fill="#F3B606"></path>
                <path d="M83.9673913,78.2608696 L45.6521739,78.2608696 L45.6521739,91.3043478 L91.3043478,91.3043478 C91.3043478,83.1684783 87.9293478,81.5217391 83.9673913,78.2608696" id="Fill-2624" fill="#F3B606"></path>
                <path d="M7.33695652,78.2608696 L45.6521739,78.2608696 L45.6521739,91.3043478 L0,91.3043478 C0,83.1684783 3.375,81.5217391 7.33695652,78.2608696" id="Fill-2625" fill="#FACB1B"></path>
                <path d="M45.6521739,104.347826 C52.8570652,104.347826 58.6956522,98.5076087 58.6956522,91.3043478 L32.6086957,91.3043478 C32.6086957,98.5076087 38.4472826,104.347826 45.6521739,104.347826" id="Fill-2626" fill="#FBE158"></path>
            </g>
        </g>
    </g>
</svg>