<svg xmlns="http://www.w3.org/2000/svg" width="134" height="61" viewBox="0 0 134 61">
    <g fill="none" fill-rule="evenodd">
        <g>
            <g>
                <g>
                    <path fill="#8736C1" d="M43.312 39.936c-.685.924-1.3 1.886-1.857 2.888-.148.27-.297.536-.436.814-.05.08-.1.17-.13.258-.148.28-.287.567-.426.855-.01.01-.01.02-.01.03-.278.575-.526 1.161-.755 1.766-.208.506-.387 1.032-.556 1.569-.069.19-.119.377-.178.566-.11.368-.219.735-.308 1.112-.129.466-.238.932-.328 1.41 0 .009-.01.019-.01.03-.089.445-.168.892-.238 1.339-.06.368-.109.744-.149 1.132-.04.269-.06.526-.08.794-.039.348-.059.706-.079 1.052v.03c-.03.497-.04.993-.04 1.5h-9.708c0-.478.01-.944.03-1.42 0-.11 0-.22.01-.338.02-.476.05-.942.09-1.42.039-.475.078-.943.138-1.41.01-.119.03-.248.05-.367.05-.447.109-.882.188-1.33.07-.457.16-.922.248-1.379.02-.08.03-.159.05-.248.1-.468.199-.934.318-1.391.09-.357.178-.725.288-1.081.02-.09.04-.179.07-.27l.148-.505c.1-.338.209-.674.318-1.012.03-.1.06-.199.099-.299.13-.387.268-.773.417-1.161 0-.029.01-.05.03-.08.168-.456.347-.902.536-1.349.218-.517.437-1.032.675-1.529.179-.377.367-.744.556-1.112.923-1.807 1.985-3.533 3.167-5.163l7.862 5.719zM57.42 29.478c-.497.169-.993.357-1.47.556-.248.1-.486.199-.714.308-.278.109-.546.228-.804.357-.16.07-.308.149-.457.228-.218.1-.427.209-.625.318-.21.1-.407.209-.606.328-1.23.685-2.412 1.449-3.524 2.313-.209.149-.417.307-.616.476l-.536.447c-.923.774-1.787 1.608-2.61 2.502-.239.268-.487.536-.716.814-.01 0-.02.01-.029.03-.189.218-.377.456-.566.684l-.327.417c-.17.219-.338.447-.507.675l.288-.397-7.852-5.708h-.01c.516-.685 1.042-1.349 1.598-1.995.328-.387.664-.765 1.013-1.142.337-.367.695-.734 1.052-1.092.357-.357.715-.705 1.092-1.052.367-.348.744-.685 1.132-1.013.764-.655 1.558-1.29 2.382-1.886.377-.278.765-.546 1.162-.814.04-.03.089-.06.139-.09.377-.257.774-.506 1.161-.754.09-.05.179-.109.278-.168.367-.219.735-.437 1.112-.646.883-.496 1.797-.963 2.73-1.4.466-.208.933-.416 1.41-.615.416-.179.853-.346 1.28-.506.09-.04.179-.07.258-.1.298-.099.586-.208.883-.307l2.999 9.232z" transform="translate(-933 -455) translate(933 455)"/>
                    <path fill="#D7D7D7" d="M35.749 33.826l7.852 5.708-.288.397-7.862-5.717.06-.09c.079-.1.148-.198.228-.298h.01z" transform="translate(-933 -455) translate(933 455)"/>
                    <path fill="#8736C1" d="M78.466 19.948l-3.008 9.223c-.031-.011-.07-.02-.11-.03-.378-.12-.754-.218-1.141-.319-.468-.128-.943-.238-1.42-.327-.418-.089-.835-.17-1.25-.228-.438-.07-.874-.129-1.322-.18-.188-.028-.386-.049-.585-.058-.398-.04-.805-.07-1.222-.09-.495-.029-.991-.039-1.499-.039-.505 0-1.001.01-1.498.04-.417.019-.824.05-1.22.09-.2.008-.398.029-.587.058-.446.05-.883.11-1.32.18-.418.058-.835.138-1.252.227-.476.089-.953.2-1.418.327-.387.1-.766.2-1.143.319-.04.01-.08.019-.108.03l-2.999-9.234c.794-.248 1.598-.465 2.413-.665.426-.108.863-.197 1.29-.288.11-.018.208-.04.318-.058.456-.09.903-.179 1.37-.248.497-.08 1.002-.15 1.51-.209.465-.06.942-.11 1.41-.15.087 0 .168-.009.247-.019.426-.03.853-.05 1.28-.069.09-.01.179-.01.258-.01.487-.02.964-.03 1.45-.03.487 0 .963.01 1.449.03.08 0 .168 0 .258.01.428.02.854.04 1.28.07.08.01.16.018.249.018.467.04.943.09 1.41.15.507.059 1.013.13 1.51.209.465.07.911.159 1.368.248.11.019.209.04.319.058.426.09.863.18 1.29.288.814.2 1.627.417 2.423.676" transform="translate(-933 -455) translate(933 455)"/>
                    <path fill="#D7D7D7" d="M55.365 19.938l2.998 9.233-.944.307-2.998-9.232c.16-.05.318-.11.477-.16.159-.048.308-.098.467-.148" transform="translate(-933 -455) translate(933 455)"/>
                    <path fill="#8736C1" d="M98.072 33.825l-7.853 5.708c-.08-.1-.15-.188-.219-.278l-.328-.417c-.187-.229-.377-.466-.564-.686-.01-.019-.021-.028-.031-.028-.228-.278-.476-.547-.714-.815-.824-.894-1.688-1.727-2.61-2.502-.18-.148-.36-.298-.537-.446-.198-.169-.407-.327-.615-.476-1.112-.865-2.295-1.628-3.525-2.314-.198-.12-.398-.228-.605-.328-.2-.108-.408-.217-.626-.317-.15-.08-.297-.159-.456-.228-.258-.13-.527-.248-.805-.358-.228-.109-.467-.209-.715-.307-.476-.2-.972-.387-1.468-.556l2.997-9.233c.298.1.595.208.883.308 1.054.388 2.086.813 3.098 1.291.416.189.823.397 1.23.595.935.487 1.858 1.003 2.74 1.55.398.247.785.496 1.162.754.05.02.09.06.14.088.396.258.784.536 1.161.815.824.595 1.618 1.231 2.382 1.886.388.327.765.665 1.141 1.013.359.337.715.685 1.074 1.032l.03.03c.327.338.655.675.971 1.013.1.099.19.207.288.307.258.298.527.596.784.903.546.646 1.082 1.311 1.59 1.996" transform="translate(-933 -455) translate(933 455)"/>
                    <path fill="#D7D7D7" d="M78.932 20.086c.159.05.317.1.466.158L76.4 29.477l-.208-.07-.268-.089-.467-.15 3.008-9.222c.158.04.308.09.457.14h.01zM105.794 57.074h-9.707c0-.506-.011-1.002-.04-1.499v-.03c-.021-.348-.04-.704-.08-1.053-.02-.267-.04-.525-.079-.793-.04-.377-.09-.754-.15-1.132-.07-.446-.148-.893-.238-1.34 0-.01 0-.02-.01-.03-.09-.476-.199-.943-.328-1.41-.089-.377-.198-.744-.307-1.111-.06-.189-.11-.377-.179-.566-.169-.536-.357-1.063-.556-1.568-.228-.607-.486-1.193-.754-1.768 0-.01-.01-.02-.01-.03-.14-.287-.278-.575-.427-.853-.03-.09-.08-.179-.13-.258-.137-.278-.287-.546-.435-.814-.488-.855-1.004-1.689-1.569-2.482l-.575-.804 7.852-5.708c.108.129.198.258.298.387.098.13.187.268.288.407.168.238.327.476.496.715 1.4 2.065 2.601 4.268 3.583 6.601.129.288.248.586.357.884.12.288.229.585.338.883.119.298.229.596.317.903.09.248.17.496.249.744.218.696.426 1.41.605 2.126.06.218.11.446.159.665.03.12.06.227.08.347.109.447.198.894.277 1.34.07.318.12.646.17.963.088.516.158 1.033.217 1.548.07.517.12 1.034.16 1.56.039.475.069.943.089 1.418.01.12.01.23.01.338.01.309.02.615.02.924v.01c.01.169.01.318.01.486" transform="translate(-933 -455) translate(933 455)"/>
                    <path fill="#FFF" d="M28.024 57.577L37.733 57.577 37.733 56.584 28.024 56.584zM96.086 57.577L105.794 57.577 105.794 56.584 96.086 56.584zM98.746 34.549L98.667 34.61 98.657 34.619 90.795 40.337 90.219 39.534 98.071 33.826 98.15 33.765zM79.428 20.155L79.398 20.244 76.4 29.477 76.192 29.407 75.924 29.318 75.457 29.169 78.465 19.946 78.495 19.847zM58.363 29.171L57.419 29.478 54.421 20.246 55.335 19.848 55.365 19.928 55.365 19.937zM43.601 39.534L43.313 39.931 43.015 40.339 35.173 34.62 35.073 34.551 35.669 33.766 35.738 33.826 35.748 33.826z" transform="translate(-933 -455) translate(933 455)"/>
                    <path fill="#000" d="M4.971 59.165L0 59.165 0 52.22 4.822 52.22 4.822 53.579 1.389 53.579 1.389 54.78 3.383 54.78 3.383 56.129 1.389 56.129 1.389 57.806 4.971 57.806zM8.943 57.637v-.655c-.238-.15-.467-.218-.952-.218-.516 0-.794.237-.794.654 0 .368.208.694.794.694.446 0 .803-.227.952-.475zm1.369 1.527h-1.37v-.347c-.247.258-.683.457-1.17.457-.972 0-1.944-.595-1.944-1.856 0-1.15.932-1.726 2.113-1.726.476 0 .783.1 1.002.208v-.258c0-.367-.248-.665-.745-.665-.624 0-.952.09-1.428.349l-.526-.953c.605-.348 1.112-.526 1.954-.526 1.261 0 2.114.655 2.114 1.825v3.492zM15.713 57.646c0 1.2-.952 1.628-2.124 1.628-.823 0-1.627-.239-2.183-.606l.457-1.041c.556.307 1.14.476 1.806.476.536 0 .694-.129.694-.396 0-.24-.188-.358-.764-.527-1.25-.377-2.054-.684-2.054-1.786 0-1.08.864-1.547 2.084-1.547.655 0 1.369.198 1.925.507l-.437 1.08c-.516-.277-1.081-.416-1.518-.416-.555 0-.704.109-.704.336 0 .219.158.309 1.081.607.932.307 1.737.644 1.737 1.685M21.609 53.956L18.929 61H17.58l.695-1.836-2.024-5.208h1.508l.853 2.51c.14.397.278.894.337 1.14.06-.257.199-.734.338-1.14l.854-2.51h1.468zM117.878 59.165L116.489 59.165 116.489 56.248 113.641 56.248 113.641 59.165 112.252 59.165 112.252 52.22 113.641 52.22 113.641 54.879 116.489 54.879 116.489 52.22 117.878 52.22zM122.307 57.637v-.655c-.238-.15-.467-.218-.953-.218-.515 0-.794.237-.794.654 0 .368.208.694.794.694.447 0 .804-.227.953-.475zm1.369 1.527h-1.369v-.347c-.248.258-.684.457-1.171.457-.972 0-1.945-.595-1.945-1.856 0-1.15.933-1.726 2.113-1.726.477 0 .785.1 1.003.208v-.258c0-.367-.248-.665-.744-.665-.626 0-.953.09-1.429.349l-.526-.953c.605-.348 1.11-.526 1.955-.526 1.26 0 2.113.655 2.113 1.825v3.492zM128.362 54.214l-.357 1.34c-.219-.2-.487-.338-.793-.338-.536 0-.884.228-.884 1.13v2.818h-1.37v-5.209h1.37v.348c.237-.247.586-.456 1.071-.456.447 0 .785.179.963.367M131.916 57.548v-1.965c-.208-.288-.525-.447-.923-.447-.525 0-.813.457-.813 1.33 0 1.072.356 1.517.892 1.517.427 0 .646-.177.844-.435zm1.37 1.617h-1.37v-.328c-.258.228-.604.437-1.1.437-1.113 0-2.025-.834-2.025-2.779 0-1.557.734-2.648 2.024-2.648.457 0 .853.178 1.101.407v-1.637l1.37-.685v7.233zM32.701 18.425c-2.13-2.462-2.817-2.77-3.382-2.283l-.228.198 5.247 6.066.205-.177c.54-.467.361-1.257-1.842-3.804m1.371-1.207c2.495 2.883 3.004 4.858 1.48 6.177l-1.538 1.33-7.274-8.41 1.67-1.443c1.633-1.413 3.408-.26 5.662 2.346M40.202 19.791l-1.389.98-4.803-6.816 1.39-.979 4.802 6.815zm-5.94-8.675c.32.454.226 1.064-.228 1.384-.455.321-1.061.204-1.382-.25-.33-.467-.235-1.078.22-1.398.454-.32 1.06-.204 1.39.264zM39.004 8.903c-.169.027-.362.107-.554.222-.3.178-.356.454-.136.822l.514.858.777-.465.809 1.35-.778.466 3.479 5.807-1.432.857-3.478-5.807-.532.318-.808-1.35.532-.318-.637-1.063c-.678-1.132-.35-2.069.454-2.55.478-.286.69-.395.998-.469l.792 1.322zM43.15 6.822c-.17.014-.37.076-.57.175-.313.155-.392.425-.202.808l.442.898.812-.402.696 1.41-.811.4 2.994 6.066-1.496.739-2.994-6.066-.555.274-.696-1.41.556-.273-.55-1.111c-.583-1.182-.18-2.089.66-2.504.498-.246.72-.337 1.031-.386l.682 1.382zM49.897 14.721l-1.575.637-3.125-7.73 1.575-.636 3.125 7.73zm-3.808-9.8c.209.514-.023 1.088-.538 1.296-.515.209-1.079-.042-1.287-.558-.215-.53.016-1.103.53-1.312.516-.208 1.08.044 1.295.574zM54.714 10.687c.203 1.665-.183 2.693-1.34 3.042-1.384.418-2.596-.411-3.504-3.422-.918-3.042-.526-4.438 1.04-4.91 1.308-.395 2.156.544 2.731 1.846l-1.367.861c-.366-.884-.605-1.293-.956-1.188-.547.165-.386 1.03.17 2.87.569 1.885.886 2.603 1.448 2.433.304-.091.344-.453.195-1.553l1.583.021zM60.75 11.928l-1.657.296-.072-.406c-.27.386-.586.7-1.194.809-.986.176-1.549-.272-1.823-1.804l-1.126-6.315 1.657-.295 1.082 6.064c.093.515.248.762.561.707.266-.048.437-.175.626-.386l-1.175-6.58 1.658-.297 1.463 8.207zM63.843 11.675L62.149 11.815 61.261 1.019 62.893.136zM68.39 9.886l-.134 1.575c-.346.18-.678.28-1.139.289-1.047.017-1.565-.595-1.586-1.849l-.081-5.063-.62.01-.026-1.572.62-.01-.04-2.493L67.053 0l.053 3.238 1.095-.018.025 1.572-1.096.019.077 4.666c.007.444.153.665.439.66.301-.005.475-.087.743-.25M74.788 3.725l-3.41 11.007-1.66-.156.975-2.749-.933-8.575 1.74.163.107 2.26c.05 1.17.092 2.929.063 4.074.171-1.132.573-2.865.854-3.987l.541-2.2 1.723.163zM84.108 14.64l-1.516-.472.863-2.775c.4-1.288.827-2.502 1.196-3.584-.41.786-1.249 2.255-1.842 3.252l-1.757 2.979.256-3.446c.078-1.107.243-2.868.34-3.718-.295 1.004-.658 2.389-1.045 3.632l-.861 2.775-1.517-.472 3.298-10.613 1.668.518-.306 3.446c-.085 1.021-.209 2.33-.386 3.222.359-.836 1.018-1.994 1.527-2.884l1.712-2.993 1.668.518-3.298 10.615zM90.023 11.905c.567-1.277.7-2.005.311-2.187-.387-.184-.79.223-1.503 1.625l1.192.562zm.896 1.897l-2.67-1.259c-.717 1.593-.753 2.19-.322 2.394.315.148.546-.041 1.126-.716l1.112 1.068c-.901.98-1.718 1.56-2.94.984-1.507-.71-1.335-2.526-.24-4.852 1.206-2.557 2.45-3.707 4.002-2.975 1.364.643 1.36 2.325.148 4.896l-.216.46zM93.893 17.857l-.948 1.264c-.39-.03-.725-.122-1.118-.36-.899-.541-1.014-1.335-.365-2.41l2.618-4.339-.53-.32.814-1.346.53.32 1.289-2.136 1.827.232-1.675 2.775.939.566-.812 1.347-.939-.567-2.414 4c-.23.38-.223.645.022.792.26.156.45.178.762.182M99.062 17.504c.813-1.137 1.09-1.823.746-2.08-.343-.257-.819.06-1.8 1.29l1.054.79zm.496 2.04l-2.364-1.772c-1.022 1.417-1.178 1.995-.798 2.28.281.21.544.071 1.249-.473l.875 1.27c-1.08.78-1.999 1.183-3.079.373-1.334-1-.801-2.745.743-4.804 1.696-2.261 3.147-3.139 4.52-2.11 1.207.905.864 2.555-.841 4.83l-.305.406zM106.463 19.446l-1.403 1.19c-.047-.324-.146-.546-.413-.794-.223-.204-.473-.285-.753-.262l-4.422 4.782-1.236-1.143 5.662-6.124 1.236 1.143-.28.304c.447-.063.866 0 1.192.303.291.269.365.422.417.601M68.517 59.883c-1.558 1.1-3.713.732-4.814-.825-1.1-1.557-.731-3.712.825-4.814l32.787-19.861c.77-.409 1.494.614.85 1.204L68.518 59.883z" transform="translate(-933 -455) translate(933 455)"/>
                </g>
            </g>
        </g>
    </g>
</svg>
