<?xml version="1.0" encoding="UTF-8"?>
<svg width="80px" height="80px" viewBox="0 0 80 80" version="1.1" xmlns="http://www.w3.org/2000/svg" xmlns:xlink="http://www.w3.org/1999/xlink">
    <!-- Generator: Sketch 49.1 (51147) - http://www.bohemiancoding.com/sketch -->
    <title>assets/img_domain_att</title>
    <desc>Created with Sketch.</desc>
    <defs></defs>
    <g id="Freshness" stroke="none" stroke-width="1" fill="none" fill-rule="evenodd">
        <g id="Freeform-Icons" transform="translate(-160.000000, -1380.000000)">
            <g id="assets/img_domain_att" transform="translate(160.000000, 1380.000000)">
                <circle id="Oval-11" fill="#353167" cx="40" cy="40" r="40"></circle>
                <g id="logo" transform="translate(18.000000, 18.000000)" fill="#00A8E0" fill-rule="nonzero">
                    <path d="M8.76988821,40.2648422 C12.5700713,43.2121238 17.3399504,44.9829612 22.5150413,44.9829612 C28.1783051,44.9829612 33.3411863,42.8763714 37.2814548,39.4183617 C37.3292037,39.3760922 37.3056563,39.3481311 37.2585614,39.3760922 C35.4904335,40.559199 30.4510673,43.141784 22.5152593,43.141784 C15.6186993,43.141784 11.2603551,41.6000971 8.79910445,40.223665 C8.75200961,40.2004005 8.73456708,40.2357888 8.76988821,40.2648422 M24.0365754,41.4123422 C29.5525588,41.4123422 35.6139485,39.9058252 39.2391612,36.9237015 C40.2312053,36.1111893 41.1761546,35.0297694 42.0224446,33.5764442 C42.5096364,32.7402306 42.9861446,31.7467354 43.374241,30.7701699 C43.3914655,30.7225485 43.3621402,30.6993932 43.326383,30.7529126 C39.9551772,35.7234466 30.1929178,38.82375 20.1128773,38.82375 C12.9879291,38.82375 5.32160819,36.540983 2.32018411,32.1822087 C2.29064082,32.1419053 2.26109752,32.1591626 2.27908514,32.2054733 C5.07512338,38.1596723 13.5576458,41.4123422 24.0365754,41.4123422 M18.0098527,31.5346238 C6.53767988,31.5346238 1.12831394,26.1813714 0.147062367,22.5281796 C0.134961609,22.4753155 0.100185556,22.4868932 0.100185556,22.5344053 C0.100185556,23.7642597 0.223046407,25.3513835 0.43442812,26.4048422 C0.535267771,26.9176456 0.951817293,27.7224029 1.56252402,28.3638714 C4.34046564,31.2649515 11.2662419,35.3300243 23.2606006,35.3300243 C39.602402,35.3300243 43.3389199,29.876068 44.1019217,28.0825121 C44.647546,26.7997937 44.9302241,24.4817476 44.9302241,22.5345146 C44.9302241,22.0633252 44.9184504,21.6869417 44.9006808,21.3174393 C44.9006808,21.2574757 44.8660137,21.2525607 44.854022,21.3109951 C44.0373843,25.6996966 30.0751807,31.5346238 18.0098527,31.5346238 M2.26109752,12.9039684 C1.60373201,14.2110437 0.875070142,16.4161529 0.658455669,17.5574272 C0.563502873,18.0464199 0.60394775,18.28125 0.775102617,18.646165 C2.1501194,21.5690898 9.10522093,26.2458131 25.3287401,26.2458131 C35.2262881,26.2458131 42.9149573,23.8095874 44.1605722,19.3638714 C44.3899416,18.5454612 44.4022604,17.6813956 44.1075905,16.5170752 C43.7783627,15.2160073 43.1617691,13.6987864 42.6399103,12.6334223 C42.6226858,12.5986893 42.5922704,12.6038228 42.5984843,12.6448908 C42.7923144,18.4758859 26.5623633,22.233932 18.3734205,22.233932 C9.50334677,22.233932 2.10324259,18.6931311 2.10324259,14.2221845 C2.10324259,13.7926092 2.19198148,13.3629248 2.30274157,12.9157646 C2.31386119,12.874915 2.27897612,12.8681432 2.26109752,12.9039684 M37.317757,5.74470874 C37.4119467,5.89259709 37.4589325,6.05042476 37.4589325,6.26286408 C37.4589325,8.75708738 29.8397065,13.1694903 17.7109313,13.1694903 C8.79910445,13.1694903 7.13061703,9.85718447 7.13061703,7.75070388 C7.13061703,6.99771845 7.41885491,6.22725728 8.05365414,5.44478155 C8.08832118,5.39825243 8.0588869,5.38033981 8.01887809,5.41496359 C6.86112988,6.3979733 5.79735332,7.50407767 4.86417773,8.6981068 C4.41830295,9.26279126 4.14151173,9.76303398 4.14151173,10.0627427 C4.14151173,14.4280704 15.0666431,17.5931432 25.2819723,17.5931432 C36.1665498,17.5931432 41.0242956,14.0331189 41.0242956,10.9045267 C41.0242956,9.78640777 40.5898674,9.13368932 39.47856,7.86822816 C38.7572022,7.04501214 38.074872,6.37470874 37.3526421,5.71489078 C37.317757,5.68605583 37.2934465,5.70953883 37.317757,5.74470874 M33.9808912,3.25103155 C30.6216771,1.23367718 26.7207634,0.0859587379 22.5152593,0.0859587379 C18.28043,0.0859587379 14.2619972,1.27376214 10.8906823,3.3445267 C9.87945142,3.96808252 9.31027972,4.46777913 9.31027972,5.11012136 C9.31027972,7.0036165 13.7270565,9.03953883 21.563006,9.03953883 C29.3176297,9.03953883 35.3322515,6.8095267 35.3322515,4.66296117 C35.3322515,4.15059466 34.8852866,3.79212379 33.9808912,3.25103155" id="path9"></path>
                </g>
            </g>
        </g>
    </g>
</svg>