<?xml version="1.0" encoding="UTF-8"?>
<svg width="150px" height="150px" viewBox="0 0 150 150" version="1.1" xmlns="http://www.w3.org/2000/svg" xmlns:xlink="http://www.w3.org/1999/xlink">
    <!-- Generator: Sketch 41.2 (35397) - http://www.bohemiancoding.com/sketch -->
    <title>assets/img_download_browser</title>
    <desc>Created with Sketch.</desc>
    <defs></defs>
    <g id="Freshness" stroke="none" stroke-width="1" fill="none" fill-rule="evenodd">
        <g id="assets/img_download_browser">
            <g transform="translate(32.000000, 101.000000)">
                <path d="M76.125,5.61016949 C76.125,2.61491525 73.6903594,0.186440678 70.6875,0.186440678 L16.3125,0.186440678 C13.3096406,0.186440678 10.875,2.61491525 10.875,5.61016949 L10.875,38.1525424 L76.125,38.1525424 L76.125,5.61016949 Z" id="Fill-6666" fill="#F0F0F0"></path>
                <path d="M0,38.1525424 L0,43.5762712 C3.48135938,47.0488136 8.20382812,49 13.1274844,49 L73.8725156,49 C78.7961719,49 83.5186406,47.0488136 87,43.5762712 L87,38.1525424 L0,38.1525424 Z" id="Fill-6667" fill="#FFFFFF"></path>
                <polygon id="Fill-6668" fill="#3E3E3F" points="70.6875 38.1525424 16.3125 38.1525424 16.3125 5.61016949 70.6875 5.61016949"></polygon>
                <polygon id="Fill-6669" fill="#5B5C5F" points="16.3125 38.1525424 16.3125 5.61016949 70.6875 5.61016949"></polygon>
                <polygon id="Fill-6670" fill="#CFD9DE" points="27.1875 38.1525424 32.625 43.5762712 54.375 43.5762712 59.8125 38.1525424"></polygon>
            </g>
            <path d="M64.8495464,81.6836364 C64.5435437,80.9610068 63.8220373,80.4880663 63.0225302,80.4880663 L57.908985,80.4880663 L57.908985,66.9358247 C57.908985,65.866568 57.0239772,65 55.9319675,65 L44.0683626,65 C42.976353,65 42.0913451,65.866568 42.0913451,66.9358247 L42.0913451,80.4880663 L36.9777999,80.4880663 C36.1782928,80.4880663 35.4567865,80.9610068 35.1507838,81.6836364 C34.844781,82.4077347 35.0127825,83.2390524 35.5797875,83.7942434 L48.5639024,95.4326917 C49.3364092,96.1891028 50.5874203,96.1891028 51.3599271,95.4326917 L64.4205426,83.7942434 C64.9860476,83.2390524 65.1555491,82.4077347 64.8495464,81.6836364" id="Fill-6672" fill="#736F9C" transform="translate(50.000000, 80.500000) rotate(-25.000000) translate(-50.000000, -80.500000) "></path>
            <path d="M114.849546,81.6836364 C114.543544,80.9610068 113.822037,80.4880663 113.02253,80.4880663 L107.908985,80.4880663 L107.908985,66.9358247 C107.908985,65.866568 107.023977,65 105.931968,65 L94.0683626,65 C92.976353,65 92.0913451,65.866568 92.0913451,66.9358247 L92.0913451,80.4880663 L86.9777999,80.4880663 C86.1782928,80.4880663 85.4567865,80.9610068 85.1507838,81.6836364 C84.844781,82.4077347 85.0127825,83.2390524 85.5797875,83.7942434 L98.5639024,95.4326917 C99.3364092,96.1891028 100.58742,96.1891028 101.359927,95.4326917 L114.420543,83.7942434 C114.986048,83.2390524 115.155549,82.4077347 114.849546,81.6836364" id="Fill-6672" fill="#736F9C" transform="translate(100.000000, 80.500000) rotate(25.000000) translate(-100.000000, -80.500000) "></path>
            <g id="Chrome">
                <path d="M29.4012277,0.56206089 C34.6691112,0.518149663 39.6186524,1.8354667 44.25,4.51405152 C49.3422874,7.4561037 53.205344,11.5397865 55.8392857,16.7652225 L31.4095982,15.4808255 C27.8976759,15.283225 24.6711457,16.1010593 21.7299107,17.934353 C18.7886758,19.7676468 16.7583761,22.2870156 15.6389509,25.4925351 L6.55189732,11.5288349 C9.36143518,8.03789238 12.7745335,5.34288128 16.7912946,3.44372073 C20.8080558,1.54456018 25.0113248,0.584016503 29.4012277,0.56206089 Z" id="" fill="#F90101"></path>
                <path d="M4.80691964,13.9000293 L15.9023438,35.7347775 C17.4827088,38.8744302 19.7983478,41.2565785 22.8493304,42.8812939 C25.9003129,44.5060093 29.1158685,45.0000032 32.4960938,44.3632904 L24.9235491,59.2161885 C20.270252,58.4916533 16.0450339,56.7626747 12.2477679,54.0292008 C8.45050185,51.295727 5.45992535,47.8267921 3.27594866,43.6222922 C1.09197197,39.4177922 0,34.9004925 0,30.0702576 C0,24.2081089 1.60229052,18.8180867 4.80691964,13.9000293 Z" id="Path" fill="#00933B"></path>
                <path d="M57.0245536,19.4657494 C58.2976254,22.7590914 58.9506137,26.1676492 58.9835379,29.6915252 C59.0164622,33.2154011 58.4841945,36.5745596 57.3867188,39.7691013 C56.289243,42.963643 54.6101304,45.9495616 52.3493304,48.7269467 C50.0885304,51.5043318 47.3887806,53.8041478 44.25,55.6264637 C39.2016117,58.5465603 33.7362645,59.8528997 27.8537946,59.5455211 L41.188058,39.028103 C43.1196153,36.1519177 44.0250192,32.9629127 43.9042969,29.4609924 C43.7835745,25.9590721 42.6147804,22.9127764 40.3978795,20.3220141 L57.0245536,19.4657494 Z" id="Path" fill="#F2B50F"></path>
                <path d="M29.5,20.1244145 C32.2436893,20.1244145 34.5867648,21.0959358 36.5292969,23.0390076 C38.4718289,24.9820794 39.4430804,27.3258059 39.4430804,30.0702576 C39.4430804,32.8147093 38.4718289,35.1584358 36.5292969,37.1015076 C34.5867648,39.0445794 32.2436893,40.0161007 29.5,40.0161007 C26.7563107,40.0161007 24.4132352,39.0445794 22.4707031,37.1015076 C20.5281711,35.1584358 19.5569196,32.8147093 19.5569196,30.0702576 C19.5569196,27.3258059 20.5281711,24.9820794 22.4707031,23.0390076 C24.4132352,21.0959358 26.7563107,20.1244145 29.5,20.1244145 Z" id="Path" fill="#0266C8"></path>
            </g>
            <path d="M119.734053,60 C113.311526,60 107.586939,58.2671446 102.56012,54.8013817 C97.5333011,51.3356188 93.7944478,46.747294 91.3434481,41.0362694 C90.0271705,38.0195589 89.2669181,34.553848 89.0626681,30.6390328 C88.8584181,26.7242176 89.1534414,22.8958161 89.9477469,19.1537133 C90.7420524,15.4116105 92.001575,11.8192458 93.7263526,8.37651123 C95.4511302,4.93377668 97.4822523,2.1416342 99.8197798,0 L99.4453234,9.70639033 C99.6949622,9.38399378 100.466562,9.20552694 101.760145,9.17098446 C103.053728,9.13644197 103.848022,9.31490881 104.143049,9.70639033 C105.096216,7.84109603 106.917418,6.25216546 109.606709,4.93955095 C112.296,3.62693644 114.956884,2.94761105 117.589439,2.9015544 C116.363939,3.93782902 115.007967,5.64765648 113.521481,8.03108808 C112.034995,10.4145197 111.371192,12.297057 111.530053,13.6787565 C112.097414,13.8629831 112.806605,14.0184219 113.657647,14.1450777 C114.508688,14.2717335 115.223552,14.3580884 115.802261,14.4041451 C116.380969,14.4502017 117.152568,14.4962577 118.117082,14.5423143 C119.081596,14.588371 119.654622,14.622913 119.836177,14.6459413 C120.176594,14.7610829 120.284391,15.2849694 120.159572,16.2176166 C120.034752,17.1502637 119.688667,18.0195699 119.121306,18.8255613 C119.007834,18.9867596 118.820608,19.1997684 118.559622,19.4645941 C118.298635,19.7294199 117.657527,20.1381665 116.636277,20.6908463 C115.615027,21.2435261 114.468975,21.6350017 113.198086,21.865285 L113.708709,28.3937824 L108.976941,26.0794473 C108.568441,27.0696653 108.483338,28.0080554 108.72163,28.8946459 C108.959922,29.7812364 109.368416,30.5469168 109.947124,31.1917098 C110.525832,31.8365029 111.269064,32.3143335 112.176842,32.6252159 C113.084619,32.9360983 114.00373,33.0109392 114.934203,32.8497409 C116.091619,32.642486 117.20363,32.2452534 118.270269,31.6580311 C119.336908,31.0708088 120.284386,30.5526793 121.112733,30.1036269 C121.941081,29.6545746 122.775089,29.4530798 123.614783,29.4991364 C124.999144,29.5912497 126.014705,29.9712114 126.661497,30.6390328 C127.308288,31.3068542 127.529556,32.0552636 127.325306,32.8842832 C127.302611,32.9303399 127.274244,32.9936668 127.240202,33.074266 C127.20616,33.1548651 127.109711,33.29879 126.950849,33.5060449 C126.791988,33.7132998 126.587741,33.8917667 126.338103,34.0414508 C126.088464,34.1911349 125.731032,34.3120318 125.265796,34.4041451 C124.80056,34.4962584 124.272922,34.5077724 123.682866,34.4386874 C122.3212,36.6263782 120.681551,38.1865238 118.76387,39.119171 C116.84619,40.0518181 114.468983,40.3914808 111.632178,40.1381693 C113.311566,41.5428971 115.155462,42.4928012 117.16392,42.9879102 C119.172378,43.4830192 121.084356,43.5521031 122.899912,43.1951641 C124.715467,42.838225 126.468587,42.2394976 128.159322,41.3989637 C129.850058,40.5584299 131.302481,39.5509558 132.516634,38.3765112 C133.730786,37.2020667 134.644224,36.0046117 135.256974,34.7841105 C136.232835,32.688533 136.67537,30.47209 136.584592,28.134715 C136.493814,25.7973401 136.0683,23.626953 135.308036,21.6234888 C134.547772,19.6200245 133.657029,18.1807758 132.635779,17.3056995 C134.610195,18.1807758 136.164741,19.096138 137.299463,20.0518135 C138.434185,21.0074889 139.307908,22.3028128 139.920658,23.9378238 C140.261075,20.0230086 139.608619,16.0737102 137.963272,12.08981 C136.317925,8.10590984 133.940718,4.83593679 130.83158,2.27979275 C136.845607,4.05297375 141.520592,7.27113385 144.856675,11.9343696 C148.192758,16.5976054 149.906162,22.556095 149.99694,29.8100173 C150.042329,32.7346145 149.582773,35.6706819 148.61826,38.6183074 C147.653746,41.565933 146.252385,44.3062625 144.414135,46.8393782 C142.575885,49.372494 140.431293,51.6292359 137.980293,53.6096718 C135.529293,55.5901078 132.720898,57.1502534 129.555024,58.2901554 C126.389149,59.4300575 123.115525,60 119.734053,60 Z" id="Firefox" fill="#E55B0A"></path>
        </g>
    </g>
</svg>