<?xml version="1.0" encoding="UTF-8" standalone="no"?>
<svg width="200px" height="200px" viewBox="0 0 200 200" version="1.1" xmlns="http://www.w3.org/2000/svg" xmlns:xlink="http://www.w3.org/1999/xlink">
    <!-- Generator: Sketch 39.1 (31720) - http://www.bohemiancoding.com/sketch -->
    <title>assets/img_address_history</title>
    <desc>Created with Sketch.</desc>
    <defs></defs>
    <g id="Freshness" stroke="none" stroke-width="1" fill="none" fill-rule="evenodd">
        <g id="Circular-Icons" transform="translate(-500.000000, -2250.000000)">
            <g id="assets/img_address_history" transform="translate(500.000000, 2250.000000)">
                <circle id="background" fill="#3B2469" cx="100" cy="100" r="100"></circle>
                <g id="Group-5" transform="translate(43.000000, 43.000000)">
                    <g id="House">
                        <polygon id="Fill-2263" fill="#FFFFFF" points="91.2661536 85.9572382 6.08441024 85.9572382 6.08441024 36.8388164 91.2661536 36.8388164"></polygon>
                        <path d="M85.1817433,9.2097041 C85.1817433,7.51358359 83.8188354,6.13980273 82.1395382,6.13980273 L76.055128,6.13980273 C74.3758307,6.13980273 73.0129229,7.51358359 73.0129229,9.2097041 L73.0129229,27.6291123 C73.0129229,29.3252328 74.3758307,30.6990137 76.055128,30.6990137 L82.1395382,30.6990137 C83.8188354,30.6990137 85.1817433,29.3252328 85.1817433,27.6291123 L85.1817433,9.2097041 Z" id="Fill-2264" fill="#E2E4E5"></path>
                        <path d="M50.5431958,0.646674723 C49.4449598,-0.215967561 47.9071251,-0.215967561 46.807368,0.646674723 L1.17429118,31.3456884 C0.149068051,32.1515375 -0.257066333,33.5253183 0.164279076,34.7655585 C0.587145588,36.0057986 1.74166243,36.8392769 3.04220512,36.8392769 L94.3083587,36.8392769 C95.6073803,36.8392769 96.7634182,36.0057986 97.1862847,34.7655585 C97.6076301,33.5253183 97.2014958,32.1515375 96.1762726,31.3456884 L50.5431958,0.646674723 Z" id="Fill-2265" fill="#17B198"></path>
                        <polygon id="Fill-2266" fill="#6FDAF1" points="85.1817433 72.3345509 53.2385896 72.3345509 53.2385896 49.1184218 85.1817433 49.1184218"></polygon>
                        <path d="M39.5486665,61.3980273 C39.5486665,54.6166152 34.1000772,49.1184218 27.3798461,49.1184218 C20.659615,49.1184218 15.2110256,54.6166152 15.2110256,61.3980273 L15.2110256,85.9572382 L39.5486665,85.9572382 L39.5486665,61.3980273 Z" id="Fill-2267" fill="#84462D"></path>
                    </g>
                    <g id="Group" transform="translate(54.545455, 54.545455)">
                        <path d="M65.4545455,32.7272727 C65.4545455,50.8026446 50.8026446,65.4545455 32.7272727,65.4545455 C14.6519008,65.4545455 0,50.8026446 0,32.7272727 C0,14.6519008 14.6519008,0 32.7272727,0 C50.8026446,0 65.4545455,14.6519008 65.4545455,32.7272727" id="Fill-3464" fill="#DF2C2C"></path>
                        <path d="M56.1036694,32.7272727 C56.1036694,45.637686 45.638876,56.1044628 32.7264793,56.1044628 C19.8160661,56.1044628 9.35127273,45.637686 9.35127273,32.7272727 C9.35127273,19.8168595 19.8160661,9.35008264 32.7264793,9.35008264 C45.638876,9.35008264 56.1036694,19.8168595 56.1036694,32.7272727" id="Fill-3465" fill="#FFFFFF"></path>
                        <path d="M42.0781488,41.3696529 L26.4226116,41.3696529 L26.4226116,21.0390744 C26.4226116,18.8493223 28.1978182,17.0721322 30.3895537,17.0721322 C32.5793058,17.0721322 34.3564959,18.8493223 34.3564959,21.0390744 L34.3564959,33.4357686 L42.0781488,33.4357686 C44.2679008,33.4357686 46.0450909,35.2129587 46.0450909,37.4027107 C46.0450909,39.5924628 44.2679008,41.3696529 42.0781488,41.3696529" id="Fill-3466" fill="#3E3E3F"></path>
                    </g>
                </g>
            </g>
        </g>
    </g>
</svg>