<svg xmlns="http://www.w3.org/2000/svg" width="32" height="32" viewBox="0 0 32 32">
    <g fill="none" fill-rule="evenodd">
        <g>
            <g>
                <path fill="#8736C1" fill-rule="nonzero" d="M16 0c8.837 0 16 7.163 16 16s-7.163 16-16 16S0 24.837 0 16 7.163 0 16 0zm0 1.684C8.094 1.684 1.684 8.094 1.684 16c0 7.906 6.41 14.316 14.316 14.316 7.906 0 14.316-6.41 14.316-14.316 0-7.906-6.41-14.316-14.316-14.316z" transform="translate(-794 -249) translate(794 249)"/>
                <path fill="#FF4722" d="M16.852 23.073v-5.85c2.178.897 2.862 1.67 2.862 3.032 0 1.58-1.068 2.562-2.862 2.818zm-1.836-8.668c-2.05-.85-2.477-1.538-2.477-2.733 0-1.196.726-2.136 2.477-2.387v5.12zm1.836-5.082c1.239.17 2.178.726 3.203 1.537l1.239-1.494c-1.282-1.025-2.563-1.708-4.442-1.837V5.95c0-.512-.427-.896-.94-.896-.512 0-.896.384-.896.896v1.58c-2.69.3-4.441 1.794-4.441 4.27 0 2.392 1.153 3.46 4.441 4.698v6.534c-1.366-.256-2.562-.982-3.63-2.003l-1.28 1.448c1.195 1.195 2.903 2.135 4.91 2.348v1.58c0 .513.384.897.897.897.512 0 .94-.384.94-.897v-1.58c3.031-.341 4.825-2.178 4.825-4.654 0-2.52-1.153-3.716-4.826-5.04V9.324z" transform="translate(-794 -249) translate(794 249)"/>
            </g>
        </g>
    </g>
</svg>
