<?xml version="1.0" encoding="UTF-8"?>
<svg width="60px" height="60px" viewBox="0 0 60 60" version="1.1" xmlns="http://www.w3.org/2000/svg" xmlns:xlink="http://www.w3.org/1999/xlink">
    <!-- Generator: Sketch 52.4 (67378) - http://www.bohemiancoding.com/sketch -->
    <title>assets/specialized_username</title>
    <desc>Created with Sketch.</desc>
    <defs>
        <linearGradient x1="32.3913574%" y1="100%" x2="78.3203125%" y2="13.496748%" id="linearGradient-1">
            <stop stop-color="#FAD961" offset="0%"></stop>
            <stop stop-color="#F76B1C" offset="21.8146831%"></stop>
            <stop stop-color="#F94BA3" offset="62.427747%"></stop>
            <stop stop-color="#B94BF9" offset="100%"></stop>
        </linearGradient>
    </defs>
    <g id="assets/specialized_username" stroke="none" stroke-width="1" fill="none" fill-rule="evenodd">
        <g id="Group" transform="translate(6.000000, 7.500000)">
            <path d="M35.3280469,25.9602132 C32.20125,25.9602132 29.4365625,27.4682067 27.706875,29.7850269 L19.3396875,25.6291391 C19.078125,27.051221 18.5085937,28.3643419 17.7,29.5007502 L26.0074219,33.6273024 C25.8984375,34.1986496 25.8358594,34.7860617 25.8358594,35.3895385 C25.8358594,40.59732 30.0855469,44.8188638 35.3280469,44.8188638 C40.5705469,44.8188638 44.8202344,40.59732 44.8202344,35.3895385 C44.8202344,30.181757 40.5705469,25.9602132 35.3280469,25.9602132" id="Fill-5125" fill="#006EB9"></path>
            <path d="M34.9532812,0 C29.5167187,0 25.1095312,4.37800083 25.1095312,9.7785596 C25.1095312,10.3820364 25.1721094,10.9701469 25.2775781,11.5428911 L15.9,16.2009779 C17.0130469,17.1124793 17.9109375,18.2684447 18.5346094,19.5780733 L26.9172656,15.4145023 C28.6996875,17.9178135 31.6310156,19.5571192 34.9532812,19.5571192 C40.3898437,19.5571192 44.7970312,15.1791184 44.7970312,9.7785596 C44.7970312,4.37800083 40.3898437,0 34.9532812,0" id="Fill-5126" fill="url(#linearGradient-1)"></path>
            <path d="M19.6875,23.7851821 C19.6875,29.1857409 15.2803125,33.5637417 9.84375,33.5637417 C4.4071875,33.5637417 0,29.1857409 0,23.7851821 C0,18.3846233 4.4071875,14.0066225 9.84375,14.0066225 C15.2803125,14.0066225 19.6875,18.3846233 19.6875,23.7851821" id="Fill-5127" fill="#059BBF"></path>
            <path d="M31.175,4.5 L38.875,4.5 C39.6481986,4.5 40.275,5.12680135 40.275,5.9 L40.275,13.6 C40.275,14.3731986 39.6481986,15 38.875,15 L31.175,15 C30.4018014,15 29.775,14.3731986 29.775,13.6 L29.775,5.9 C29.775,5.12680135 30.4018014,4.5 31.175,4.5 Z M35.025,13.25 C36.9579966,13.25 38.525,11.6829966 38.525,9.75 C38.525,7.81700338 36.9579966,6.25 35.025,6.25 C33.0920034,6.25 31.525,7.81700338 31.525,9.75 C31.525,11.6829966 33.0920034,13.25 35.025,13.25 Z M35.025,12.025 C33.7685522,12.025 32.75,11.0064478 32.75,9.75 C32.75,8.49355219 33.7685522,7.475 35.025,7.475 C36.2814478,7.475 37.3,8.49355219 37.3,9.75 C37.3,11.0064478 36.2814478,12.025 35.025,12.025 Z" id="Combined-Shape" fill="#FFFFFF" fill-rule="nonzero"></path>
            <path d="M33.4530469,34.3320571 L32.053125,34.3320571 C31.411875,34.3320571 30.9,33.8410337 30.9,33.2040304 C30.9,32.568424 31.411875,32.058542 32.053125,32.058542 L33.4530469,32.058542 L33.4530469,31.4403974 C33.4530469,30.3675497 33.7279688,29.5852649 34.2405469,29.0760813 C34.753125,28.5668978 35.5040625,28.3112583 36.4926563,28.3112583 C36.9321094,28.3112583 37.3167187,28.3301169 37.6275,28.3845975 C38.1035156,28.4579367 38.5795313,28.8756209 38.5795313,29.494464 C38.5795313,30.1126087 38.0669531,30.6399524 37.4446875,30.6399524 L37.2063281,30.6399524 C36.5657812,30.6399524 36.1994531,30.9675341 36.1994531,31.6946399 L36.1994531,32.0767022 L37.408125,32.0767022 C38.0486719,32.0767022 38.56125,32.568424 38.56125,33.2040304 C38.56125,33.8410337 38.0486719,34.3320571 37.408125,34.3320571 L36.2360156,34.3320571 L36.2360156,40.4436569 C36.2360156,41.2077815 35.61375,41.8259261 34.8445313,41.8259261 C34.0753125,41.8259261 33.4530469,41.2077815 33.4530469,40.4436569 L33.4530469,34.3320571 Z" id="Fill-5129" fill="#FFFFFF"></path>
            <path d="M9.84375,14.0066225 C4.4071875,14.0066225 0,18.3846233 0,23.7851821 C0,26.462412 1.08492187,28.8853994 2.83921875,30.6518264 L16.7561719,16.8270385 C14.9786719,15.0843595 12.5388281,14.0066225 9.84375,14.0066225" id="Fill-5131" fill="#21B2D1"></path>
            <path d="M12.9302344,19.0728477 C15.2857031,19.0728477 15.2857031,21.4127173 15.2857031,21.4127173 L16.8564844,22.1929067 C16.8564844,22.1929067 16.8564844,22.973096 14.5010156,23.7532854 C15.2857031,26.093155 12.5378906,29.2139125 9.39632813,29.2139125 C6.25546875,29.2139125 3.9,26.8733444 3.9,23.7532854 C3.9,23.7532854 5.863125,25.3129656 8.21859375,24.5334748 C8.29382813,24.5837645 5.89054688,23.0240842 6.64851563,19.0728477 C6.64851563,19.0728477 8.21859375,21.4127173 10.5747656,21.4127173 C10.5747656,21.4127173 10.5747656,19.0728477 12.9302344,19.0728477" id="Fill-5132" fill="#FFFFFF"></path>
        </g>
    </g>
</svg>
