<svg xmlns="http://www.w3.org/2000/svg" xmlns:xlink="http://www.w3.org/1999/xlink" width="60" height="60" viewBox="0 0 60 60">
    <defs>
        <path id="ajr2wpznva" d="M0 0.027L44.942 0.027 44.942 5.586 0 5.586z"/>
        <path id="qjcdeiwfhc" d="M0 0.003L44.942 0.003 44.942 5.561 0 5.561z"/>
        <path id="1eoh16r5be" d="M0 23.142L44.942 23.142 44.942 0.103 0 0.103z"/>
    </defs>
    <g fill="none" fill-rule="evenodd">
        <circle cx="30" cy="30" r="30" fill="#282426"/>
        <g transform="translate(7.5 18.75)">
            <path fill="#FFF" d="M1.547 23.142C.694 23.142 0 22.448 0 21.594V1.65C0 .797.694.103 1.547.103h41.848c.853 0 1.547.694 1.547 1.547v19.945c0 .853-.694 1.547-1.547 1.547H1.547z"/>
            <g transform="translate(0 .076)">
                <mask id="7qudwuamyb" fill="#fff">
                    <use xlink:href="#ajr2wpznva"/>
                </mask>
                <path fill="#249ED9" d="M43.394.027H1.547C.694.027 0 .722 0 1.575v4.01h44.942v-4.01c0-.853-.694-1.548-1.548-1.548" mask="url(#7qudwuamyb)"/>
            </g>
            <g transform="translate(0 17.581)">
                <mask id="ggtycwkz3d" fill="#fff">
                    <use xlink:href="#qjcdeiwfhc"/>
                </mask>
                <path fill="#249ED9" d="M0 .003v4.01c0 .853.694 1.548 1.547 1.548h41.848c.853 0 1.547-.694 1.547-1.548V.003H0z" mask="url(#ggtycwkz3d)"/>
            </g>
            <path fill="#464655" d="M8.973 1.983c.504 0 .913.41.913.914s-.409.913-.913.913-.913-.409-.913-.913c0-.505.409-.914.913-.914M8.973 19.453c.504 0 .913.41.913.914s-.409.913-.913.913-.913-.409-.913-.913c0-.505.409-.914.913-.914M35.97 1.983c.504 0 .913.41.913.914s-.41.913-.914.913-.913-.409-.913-.913c0-.505.409-.914.913-.914M35.97 19.453c.504 0 .913.41.913.914s-.41.913-.914.913-.913-.409-.913-.913c0-.505.409-.914.913-.914"/>
            <path fill="#000" d="M4.76 16.075l1.156-4.68-1.052-4.574h1.43c.26 1.209.532 2.417.65 3.652h.038c.065-.962.3-1.884.546-2.794l.221-.858h1.287l-1.118 4.224 1.144 5.03H7.645l-.494-2.236c-.156-.728-.286-1.82-.299-1.806-.039 1.364-.507 2.703-.805 4.042H4.76zM11.985 6.82l.455 2.015c.195.897.182 1.027.3 2.002h.025c.04-.728.091-1.339.234-1.937l.494-2.08h1.287l-1.417 5.733v3.522h-1.378v-3.457L10.57 6.82h1.416zM19.305 6.821L19.305 7.835 17.693 14.866 19.318 14.866 19.318 16.075 16.251 16.075 16.251 15.113 17.849 8.03 16.277 8.03 16.277 6.821z"/>
            <mask id="jv5z61ibmf" fill="#fff">
                <use xlink:href="#1eoh16r5be"/>
            </mask>
            <path fill="#000" d="M21.646 12.644L23.296 12.644 23.296 11.708 21.646 11.708zM25.624 8.03c.754-.117 1.274-.364 1.26-1.21h1.131v9.255h-1.377V8.99h-1.014V8.03zM33.436 14.97v1.105h-3.548v-.585c0-2.703 2.222-4.523 2.222-6.122v-.857c0-.494-.104-.69-.377-.69-.338 0-.468.274-.468.69v1.624h-1.377V8.68c0-1.43.61-1.962 2.001-1.962 1.326 0 1.599 1.04 1.599 2.131 0 2.574-2.028 4.082-2.093 6.122h2.04zM36.348 12.67v1.416c0 .91.221.988.377.988.26 0 .468-.065.468-.715v-1.676c0-.546-.234-.741-.637-.741h-.208v-1.105c.715.052.845-.351.845-.91v-.832c-.026-.662.078-1.273-.377-1.273-.533 0-.442.52-.468.883v1.404h-1.377V8.601c0-1.416.65-1.884 1.845-1.884 1.313 0 1.755.78 1.755 1.807v1.494c0 .572-.17 1.144-1.092 1.352v.052c1.027.338 1.092.74 1.092 1.326v1.56c0 1.48-.728 1.87-1.794 1.87-1.494 0-1.806-.87-1.806-2.196V12.67h1.377z" mask="url(#jv5z61ibmf)"/>
            <path fill="#FFF" d="M36.883 20.367c0 .504-.41.913-.914.913s-.913-.409-.913-.913c0-.505.409-.914.913-.914.505 0 .914.41.914.914M26.885 6.82h1.13v9.255h-1.377V8.99h-1.014v-.962c.754-.116 1.274-.363 1.26-1.209M33.487 8.848c0 2.573-2.027 4.082-2.092 6.122h2.041v1.105h-3.549v-.585c0-2.703 2.223-4.523 2.223-6.122V8.51c0-.493-.103-.689-.377-.689-.338 0-.468.273-.468.69v1.624h-1.378V8.679c0-1.43.611-1.963 2.002-1.963 1.326 0 1.598 1.04 1.598 2.132M38.571 8.523v1.495c0 .572-.169 1.144-1.092 1.352v.051c1.027.339 1.092.742 1.092 1.326v1.56c0 1.481-.728 1.872-1.794 1.872-1.495 0-1.807-.872-1.807-2.197V12.67h1.378v1.417c0 .91.221.988.377.988.26 0 .468-.065.468-.715v-1.676c0-.546-.233-.742-.637-.742h-.208v-1.104c.716.052.845-.35.845-.91v-.832c-.026-.663.078-1.274-.376-1.274-.534 0-.442.52-.469.885v1.403H34.97V8.602c0-1.417.651-1.886 1.847-1.886 1.313 0 1.754.78 1.754 1.807M22.471.103v23.039H1.548C.694 23.142 0 22.448 0 21.594V1.65C0 .797.694.103 1.548.103H22.47zM36.883 2.896c0 .504-.41.913-.914.913s-.913-.409-.913-.913.409-.912.913-.912c.505 0 .914.408.914.912" mask="url(#jv5z61ibmf)"/>
            <path fill="#AC5DE5" d="M1.548.103H22.47v5.558H0V1.65C0 .797.694.103 1.548.103" mask="url(#jv5z61ibmf)"/>
            <path fill="#249ED9" d="M36.883 2.896c0 .504-.41.913-.914.913s-.913-.409-.913-.913.409-.912.913-.912c.505 0 .914.408.914.912" mask="url(#jv5z61ibmf)"/>
            <path fill="#AC5DE5" d="M0 17.584h22.471v5.558H1.548C.694 23.142 0 22.448 0 21.594v-4.01z" mask="url(#jv5z61ibmf)"/>
            <path fill="#249ED9" d="M36.883 20.367c0 .504-.41.913-.914.913s-.913-.409-.913-.913c0-.505.409-.914.913-.914.505 0 .914.41.914.914" mask="url(#jv5z61ibmf)"/>
            <path fill="#5D565A" d="M8.973 1.983c.504 0 .913.409.913.913 0 .505-.409.914-.913.914s-.913-.41-.913-.914.409-.913.913-.913M8.973 19.453c.504 0 .913.409.913.913 0 .505-.409.914-.913.914s-.913-.41-.913-.914.409-.913.913-.913" mask="url(#jv5z61ibmf)"/>
            <path fill="#464655" d="M36.883 2.896c0 .504-.41.913-.914.913s-.913-.409-.913-.913.409-.912.913-.912c.505 0 .914.408.914.912M36.883 20.367c0 .504-.41.913-.914.913s-.913-.409-.913-.913c0-.505.409-.914.913-.914.505 0 .914.41.914.914" mask="url(#jv5z61ibmf)"/>
            <path fill="#5D565A" d="M4.76 16.075l1.156-4.68-1.052-4.574h1.43c.26 1.208.532 2.417.65 3.652h.038c.065-.962.3-1.885.546-2.794l.221-.858h1.287l-1.118 4.224 1.144 5.03H7.645l-.494-2.236c-.156-.728-.286-1.82-.299-1.806-.039 1.364-.507 2.703-.805 4.042H4.76zM11.985 6.82l.455 2.015c.195.897.182 1.027.3 2.002h.025c.04-.728.091-1.339.234-1.937l.494-2.08h1.287l-1.417 5.732v3.523h-1.378v-3.458L10.57 6.821h1.416zM19.305 6.821L19.305 7.835 17.693 14.866 19.318 14.866 19.318 16.075 16.251 16.075 16.251 15.113 17.849 8.029 16.277 8.029 16.277 6.821z" mask="url(#jv5z61ibmf)"/>
            <path fill="#666" d="M20.924 12.643L22.471 12.643 22.471 11.707 20.924 11.707z" mask="url(#jv5z61ibmf)"/>
            <path fill="#000" d="M26.885 6.82c.013.846-.507 1.093-1.26 1.21v.96h1.013v7.085h1.377V6.82h-1.13zM33.487 8.848c0-1.092-.272-2.132-1.598-2.132-1.39 0-2.002.534-2.002 1.963v1.456h1.378V8.51c0-.416.13-.689.468-.689.274 0 .377.196.377.69v.857c0 1.599-2.223 3.419-2.223 6.122v.585h3.549V14.97h-2.041c.065-2.04 2.092-3.549 2.092-6.122M38.571 10.018V8.523c0-1.026-.441-1.807-1.754-1.807-1.196 0-1.847.469-1.847 1.886v1.507h1.378V8.706c.027-.365-.065-.885.469-.885.454 0 .35.61.376 1.274v.832c0 .56-.13.962-.845.91v1.104h.208c.404 0 .637.196.637.742v1.676c0 .65-.208.715-.468.715-.156 0-.377-.079-.377-.988V12.67H34.97v1.313c0 1.325.312 2.197 1.807 2.197 1.066 0 1.794-.39 1.794-1.873v-1.559c0-.584-.065-.987-1.092-1.326v-.051c.923-.208 1.092-.78 1.092-1.352" mask="url(#jv5z61ibmf)"/>
            <path fill="#8736C1" d="M35.97 21.28c-.505 0-.914-.409-.914-.913 0-.505.409-.914.913-.914.505 0 .913.409.913.914 0 .504-.408.913-.913.913zM22.47 17.584v5.558h20.924c.852 0 1.547-.694 1.547-1.548v-4.01h-22.47z" mask="url(#jv5z61ibmf)"/>
            <path fill="#282426" d="M35.97 21.28c-.505 0-.914-.409-.914-.913 0-.505.409-.914.913-.914.505 0 .913.409.913.914 0 .504-.408.913-.913.913" mask="url(#jv5z61ibmf)"/>
            <path fill="#F0F0F0" d="M38.571 10.018c0 .572-.169 1.144-1.092 1.352v.051c1.027.339 1.092.742 1.092 1.326v1.56c0 1.481-.728 1.872-1.794 1.872-1.495 0-1.807-.872-1.807-2.197V12.67h1.378v1.417c0 .91.221.988.377.988.26 0 .468-.065.468-.715v-1.676c0-.546-.233-.742-.637-.742h-.208v-1.104c.716.052.845-.35.845-.91v-.832c-.026-.663.078-1.274-.376-1.274-.534 0-.442.52-.469.885v1.403H34.97V8.602c0-1.417.651-1.886 1.847-1.886 1.313 0 1.754.78 1.754 1.807v1.495zm-5.135 4.952v1.105h-3.549v-.585c0-2.703 2.223-4.523 2.223-6.122V8.51c0-.493-.103-.689-.377-.689-.338 0-.468.273-.468.689v1.625h-1.378V8.68c0-1.43.611-1.963 2.002-1.963 1.326 0 1.598 1.04 1.598 2.132 0 2.573-2.027 4.082-2.092 6.122h2.04zm-5.42 1.105h-1.378V8.99h-1.014v-.962c.754-.116 1.274-.363 1.26-1.209h1.131v9.255zM44.936 1.53c.002.04.004.08.004.12v4.01h-22.47v6.047h.825v.936h-.825v4.941h22.471V1.65c0-.04 0-.08-.005-.12z" mask="url(#jv5z61ibmf)"/>
            <path fill="#282426" d="M22.471 12.643L24.12 12.643 24.12 11.707 22.471 11.707zM26.638 16.075V8.99h-1.014v-.962c.754-.116 1.274-.363 1.26-1.209h1.131v9.255h-1.377zM32.11 9.368V8.51c0-.493-.103-.689-.377-.689-.338 0-.468.273-.468.69v1.624h-1.378V8.679c0-1.43.611-1.963 2.002-1.963 1.326 0 1.598 1.04 1.598 2.132 0 2.573-2.027 4.082-2.092 6.122h2.04v1.105h-3.548v-.585c0-2.703 2.223-4.523 2.223-6.122M36.348 12.67v1.416c0 .91.221.988.377.988.26 0 .468-.065.468-.715v-1.676c0-.546-.233-.742-.637-.742h-.208v-1.104c.716.052.845-.35.845-.91v-.832c-.026-.663.078-1.274-.376-1.274-.534 0-.442.52-.469.885v1.403H34.97V8.602c0-1.417.651-1.886 1.847-1.886 1.313 0 1.754.78 1.754 1.807v1.495c0 .572-.169 1.144-1.092 1.352v.051c1.027.339 1.092.742 1.092 1.326v1.56c0 1.481-.728 1.872-1.794 1.872-1.495 0-1.807-.872-1.807-2.197V12.67h1.378z" mask="url(#jv5z61ibmf)"/>
            <path fill="#8736C1" d="M35.97 3.81c-.505 0-.914-.41-.914-.914s.409-.912.913-.912c.505 0 .913.408.913.912s-.408.913-.913.913m8.968-2.279c-.003-.039-.008-.077-.013-.115l-.014-.076c-.006-.026-.01-.05-.017-.075-.013-.05-.028-.098-.045-.146l-.028-.07-.029-.063-.018-.036c-.007-.016-.015-.03-.023-.045l-.06-.1c-.01-.016-.022-.032-.033-.047L44.622.71c-.024-.03-.048-.06-.074-.09l-.04-.042-.04-.041-.043-.04-.09-.074-.046-.035-.048-.033C44.14.29 44.03.234 43.913.193c-.02-.007-.04-.015-.06-.02l-.06-.018C43.742.14 43.69.13 43.64.123c-.016-.003-.031-.005-.047-.006-.04-.007-.081-.01-.122-.012l-.076-.002H22.47v5.558h22.47V1.65c0-.04-.002-.08-.004-.12" mask="url(#jv5z61ibmf)"/>
            <path fill="#282426" d="M35.97 3.81c-.505 0-.914-.41-.914-.914s.409-.912.913-.912c.505 0 .913.408.913.912s-.408.913-.913.913" mask="url(#jv5z61ibmf)"/>
        </g>
    </g>
</svg>
