<?xml version="1.0" encoding="UTF-8"?>
<svg width="150px" height="150px" viewBox="0 0 150 150" version="1.1" xmlns="http://www.w3.org/2000/svg" xmlns:xlink="http://www.w3.org/1999/xlink">
    <!-- Generator: Sketch 51.3 (57544) - http://www.bohemiancoding.com/sketch -->
    <title>assets/img_faa_aircraft_no_bg</title>
    <desc>Created with Sketch.</desc>
    <defs></defs>
    <g id="assets/img_faa_aircraft_no_bg" stroke="none" stroke-width="1" fill="none" fill-rule="evenodd">
        <g id="Group">
            <path d="M140.625,37.5 L9.375,37.5 C4.19765625,37.5 0,41.6976563 0,46.875 L0,75 C0,80.1773437 4.19765625,84.375 9.375,84.375 L140.625,84.375 C145.802344,84.375 150,80.1773437 150,75 L150,46.875 C150,41.6976563 145.802344,37.5 140.625,37.5" id="Fill-3190" fill="#353167"></path>
            <path d="M121.875,121.195313 C119.4375,118.429688 116.179687,116.390625 112.5,115.429688 C111,115.054688 109.429687,114.84375 107.8125,114.84375 L75,114.84375 L67.96875,114.84375 L42.1875,114.84375 C40.5703125,114.84375 39,115.054688 37.5,115.429688 C33.8203125,116.390625 30.5625,118.429688 28.125,121.195313 C25.21875,124.5 23.4375,128.835938 23.4375,133.59375 C23.4375,136.664062 25.3828125,139.265625 28.125,140.203125 C28.8515625,140.484375 29.6484375,140.625 30.46875,140.625 L67.96875,140.625 L75,140.625 L119.53125,140.625 C120.351563,140.625 121.148437,140.484375 121.875,140.203125 C124.617188,139.265625 126.5625,136.664062 126.5625,133.59375 C126.5625,128.835938 124.78125,124.5 121.875,121.195313" id="Fill-3191" fill="#353167"></path>
            <path d="M112.5,115.429688 L112.5,140.625 L119.53125,140.625 C120.351563,140.625 121.148437,140.484375 121.875,140.203125 L121.875,121.195313 C119.4375,118.429688 116.179687,116.390625 112.5,115.429688" id="Fill-3192" fill="#E7114C"></path>
            <polygon id="Fill-3193" fill="#E7114C" points="103.125 140.625 93.75 140.625 93.75 114.84375 103.125 114.84375"></polygon>
            <path d="M28.125,121.195313 L28.125,140.203125 C28.8515625,140.484375 29.6484375,140.625 30.46875,140.625 L37.5,140.625 L37.5,115.429688 C33.8203125,116.390625 30.5625,118.429688 28.125,121.195313" id="Fill-3194" fill="#E7114C"></path>
            <polygon id="Fill-3195" fill="#E7114C" points="46.875 140.625 56.25 140.625 56.25 114.84375 46.875 114.84375"></polygon>
            <polygon id="Fill-3196" fill="#E7114C" points="32.8125 37.5 42.1875 37.5 42.1875 84.375 32.8125 84.375"></polygon>
            <polygon id="Fill-3197" fill="#E7114C" points="14.0625 37.5 23.4375 37.5 23.4375 84.375 14.0625 84.375"></polygon>
            <polygon id="Fill-3198" fill="#E7114C" points="117.1875 84.375 107.8125 84.375 107.8125 37.5 117.1875 37.5"></polygon>
            <polygon id="Fill-3199" fill="#E7114C" points="135.9375 84.375 126.5625 84.375 126.5625 37.5 135.9375 37.5"></polygon>
            <path d="M69.0696094,150 C67.0117969,150 65.1977344,148.657031 64.5907031,146.690625 C46.2321094,87.09375 48.7821094,51.0820313 57.5500781,22.0828125 C58.1477344,20.1046875 59.9711719,18.75 62.0360156,18.75 L87.9180469,18.75 C90.0063281,18.75 91.8367969,20.128125 92.4180469,22.1320313 C100.935234,51.4710937 104.565703,87.7195313 85.4407031,146.75625 C84.8149219,148.6875 83.0149219,150 80.9828906,150 L69.0696094,150 Z" id="Fill-3200" fill="#353167"></path>
            <path d="M121.875,9.375 C121.875,11.9625 119.775,14.0625 117.1875,14.0625 C114.6,14.0625 77.34375,9.375 77.34375,9.375 C77.34375,9.375 114.6,4.6875 117.1875,4.6875 C119.775,4.6875 121.875,6.7875 121.875,9.375" id="Fill-3201" fill="#E1C618"></path>
            <path d="M28.125,9.375 C28.125,11.9625 30.225,14.0625 32.8125,14.0625 C35.4,14.0625 72.65625,9.375 72.65625,9.375 C72.65625,9.375 35.4,4.6875 32.8125,4.6875 C30.225,4.6875 28.125,6.7875 28.125,9.375" id="Fill-3202" fill="#F2DA3E"></path>
            <path d="M62.0350781,18.75 C62.0350781,18.75 67.9694531,0 75.0007031,0 C82.0319531,0 87.9171094,18.75 87.9171094,18.75 L62.0350781,18.75 Z" id="Fill-3203" fill="#E1C618"></path>
            <path d="M75,0 C67.96875,0 62.034375,18.75 62.034375,18.75 L75,18.75 L75,0 Z" id="Fill-3204" fill="#F2DA3E"></path>
            <path d="M75,18.75 L62.034375,18.75 C59.9695313,18.75 58.1484375,20.1046875 57.5507813,22.0828125 C48.7828125,51.0820313 46.2328125,87.09375 64.5914063,146.690625 C65.1984375,148.659375 67.0125,150 69.0703125,150 L75,150 L75,18.75 Z" id="Fill-3205" fill="#8B88AA"></path>
            <path d="M91.1132812,74.6395312 C91.1132812,89.9723437 83.7679687,102.403594 74.7070312,102.403594 C65.6460938,102.403594 58.3007812,89.9723437 58.3007812,74.6395312 C58.3007812,59.3067187 65.6460938,46.8754687 74.7070312,46.8754687 C83.7679687,46.8754687 91.1132812,59.3067187 91.1132812,74.6395312" id="Fill-3206" fill="#40C9E7"></path>
            <path d="M75,46.9000781 C74.9015625,46.8977344 74.8054688,46.8742969 74.7070312,46.8742969 C65.6460938,46.8742969 58.3007812,59.3055469 58.3007812,74.6383594 C58.3007812,89.9735156 65.6460938,102.404766 74.7070312,102.404766 C74.8054688,102.404766 74.9015625,102.381328 75,102.378984 L75,46.9000781 Z" id="Fill-3207" fill="#6FDAF1"></path>
        </g>
    </g>
</svg>