<?xml version="1.0" encoding="UTF-8" standalone="no"?>
<svg width="200px" height="200px" viewBox="0 0 200 200" version="1.1" xmlns="http://www.w3.org/2000/svg" xmlns:xlink="http://www.w3.org/1999/xlink">
    <!-- Generator: Sketch 3.8.3 (29802) - http://www.bohemiancoding.com/sketch -->
    <title>assets/property</title>
    <desc>Created with Sketch.</desc>
    <defs></defs>
    <g id="Freshness" stroke="none" stroke-width="1" fill="none" fill-rule="evenodd">
        <g id="Even-More-Data-Icons" transform="translate(-1000.000000, -500.000000)">
            <g id="assets/property" transform="translate(1000.000000, 500.000000)">
                <circle id="background" fill="#3B2469" cx="100" cy="100" r="100"></circle>
                <g id="assets/tos-tenants" transform="translate(40.000000, 40.000000)">
                    <polygon id="Fill-1437" fill="#FFFFFF" points="30 35.625 30 82.974375 105 82.974375 105 35.625 67.5 7.5"></polygon>
                    <path d="M104.944279,37.0261774 L110.681779,37.0261774 C111.484279,37.0261774 112.198654,36.5143024 112.455529,35.7549274 C112.714279,34.9955524 112.461154,34.1536774 111.823654,33.6643024 L68.5655295,0.38867739 C67.9017795,-0.12132261 66.9792795,-0.13069761 66.3061545,0.36805239 L21.3849045,33.6436774 C20.7342795,34.1255524 20.4661545,34.9711774 20.7192795,35.7380524 C20.9724045,36.5068024 21.6905295,37.0261774 22.5005295,37.0261774 L29.9442795,37.0261774 L67.4442795,8.90117739 L104.944279,37.0261774 Z" id="Fill-1438" fill="#DF2C2C"></path>
                    <path d="M82.5,73.125 C82.5,64.84125 75.78375,58.125 67.5,58.125 C59.21625,58.125 52.5,64.84125 52.5,73.125 L52.5,82.974375 L82.5,82.974375 L82.5,73.125 Z" id="Fill-1439" fill="#84462D"></path>
                    <polygon id="Fill-1440" fill="#40C9E7" points="58.125 52.5 43.125 52.5 43.125 37.5 58.125 37.5"></polygon>
                    <polygon id="Fill-1441" fill="#40C9E7" points="91.875 52.5 76.875 52.5 76.875 37.5 91.875 37.5"></polygon>
                    <path d="M118.46625,76.1166159 C117.4425,73.5553659 114.673125,72.1566159 112.003125,72.8541159 L76.186875,82.5441159 C74.64,82.9472409 73.05,83.1497409 71.454375,83.1497409 L40.108125,83.1497409 L61.3125,76.0828659 C63.0525,75.5034909 64.455,74.1966159 65.15625,72.5016159 C65.859375,70.8066159 65.791875,68.8903659 64.970625,67.2497409 C63.60375,64.5141159 60.474375,63.1472409 57.538125,64.0041159 L24.361875,73.6809909 C20.083125,74.9297409 16.580625,78.0141159 14.805,82.0997409 L3.75,107.524741 L37.685625,107.524741 C39.78,105.199741 42.774375,103.774741 46.03125,103.774741 L66.129375,103.774741 C68.754375,103.774741 71.3475,103.225366 73.74375,102.160366 L115.60875,83.1497409 C118.2975,81.9553659 119.559375,78.8484909 118.46625,76.1166159" id="Fill-1442" fill="#F8B4B4"></path>
                    <path d="M0,110.625 C0,109.59 0.84,108.75 1.875,108.75 L41.495625,108.75 C42.1875,108.75 42.823125,109.130625 43.149375,109.74 C43.475625,110.349375 43.44,111.09 43.055625,111.665625 L38.056875,119.165625 C37.708125,119.686875 37.123125,120 36.496875,120 L1.875,120 C0.84,120 0,119.16 0,118.125 L0,110.625 Z" id="Fill-1443" fill="#FFFFFF"></path>
                    <path d="M30,113.4375 C30,114.99 31.258125,116.25 32.8125,116.25 C34.366875,116.25 35.625,114.99 35.625,113.4375 C35.625,111.885 34.366875,110.625 32.8125,110.625 C31.258125,110.625 30,111.885 30,113.4375" id="Fill-1444" fill="#FACB1B"></path>
                    <path d="M60.661875,63.9018062 C59.655,63.6805562 58.58625,63.6918062 57.54,63.9974312 L24.361875,73.6743062 C20.085,74.9230562 16.5825,78.0074312 14.805,82.0930562 L3.75,107.518056 L17.045625,107.518056 L41.420625,83.1430562 L40.11,83.1430562 L42.075,82.4886812 L60.661875,63.9018062 Z" id="Fill-1445" fill="#FBC8C8"></path>
                </g>
            </g>
        </g>
    </g>
</svg>