<svg width="28" height="28" xmlns="http://www.w3.org/2000/svg">
    <defs>
        <path id="a" d="M0 27.609h26.526V0H0z"/>
    </defs>
    <g fill="none" fill-rule="evenodd">
        <g fill-rule="nonzero">
            <path d="M24.5.004c1.05 0 1.915.787 2.014 1.799l.009.192v19.417c0 1.037-.804 1.885-1.828 1.981l-.194.01H12.047a.553.553 0 0 1-.112-1.095l.112-.01H24.5a.908.908 0 0 0 .905-.743l.012-.143V1.995a.896.896 0 0 0-.768-.874l-.15-.012H13.998a.94.94 0 0 0-.494.14l-.105.075-9.66 8.041a.879.879 0 0 0-.306.518l-.014.152v5.031a.553.553 0 0 1-1.094.111l-.01-.11v-5.032c0-.513.201-1.003.555-1.37l.162-.15 9.66-8.04c.313-.261.698-.42 1.102-.461l.204-.01H24.5z" fill="#8736C1"/>
            <path d="M23.453 2.577h-9.448c-.232 0-.46.081-.639.23L5.14 9.654a.977.977 0 0 0-.355.754v1.768a.99.99 0 0 0 .996.985h17.673a.99.99 0 0 0 .993-.985V3.562a.99.99 0 0 0-.993-.985zM23.34 3.68v8.374H5.89v-1.587l8.154-6.787h9.297z" fill="#FF4722"/>
            <path d="M23.894 14.713a.553.553 0 0 1 .111 1.094l-.111.012h-3.719a.553.553 0 0 1-.111-1.095l.111-.01h3.719z" fill="#8736C1"/>
            <path d="M4.853 16.91a2.63 2.63 0 0 1 2.62 2.415l.01.215v1.228H6.376V19.54a1.524 1.524 0 0 0-3.04-.166l-.009.166v1.228H2.223V19.54a2.63 2.63 0 0 1 2.63-2.63z" fill="#FF4722"/>
            <path d="M9.703 20.216h-9.7v7.39h9.7v-7.39zM8.596 21.32v5.18H1.108v-5.18h7.488z" fill="#FF4722"/>
            <path d="M4.853 22.464c.267 0 .49.19.541.441l.011.112v1.787a.553.553 0 0 1-1.094.112l-.01-.112v-1.787c0-.306.247-.553.552-.553z" fill="#8736C1"/>
        </g>
    </g>
</svg>
