<svg xmlns="http://www.w3.org/2000/svg" width="36" height="36" viewBox="0 0 36 36">
    <g fill="none" fill-rule="evenodd">
        <g fill-rule="nonzero">
            <g>
                <g>
                    <path fill="#8736C1" d="M34.2 2c.497 0 .9.424.9.947 0 .465-.318.852-.738.932l-.162.016H9c-.497 0-.9-.424-.9-.948 0-.465.318-.852.738-.932L9 2h25.2z" transform="translate(-380 -1859) translate(380 1859)"/>
                    <path fill="#FF4722" d="M2.7 0c1.494 0 2.7 1.208 2.7 2.7 0 1.492-1.206 2.7-2.7 2.7C1.209 5.4 0 4.191 0 2.7S1.209 0 2.7 0zm0 1.8c-.497 0-.9.403-.9.9s.403.9.9.9c.499 0 .9-.401.9-.9s-.401-.9-.9-.9zM2.7 14.4c1.494 0 2.7 1.208 2.7 2.7 0 1.492-1.206 2.7-2.7 2.7-1.491 0-2.7-1.209-2.7-2.7s1.209-2.7 2.7-2.7zm0 1.8c-.497 0-.9.403-.9.9s.403.9.9.9c.499 0 .9-.401.9-.9s-.401-.9-.9-.9zM2.7 28.8c1.494 0 2.7 1.208 2.7 2.7 0 1.492-1.206 2.7-2.7 2.7-1.491 0-2.7-1.209-2.7-2.7s1.209-2.7 2.7-2.7zm0 1.8c-.497 0-.9.403-.9.9s.403.9.9.9c.499 0 .9-.401.9-.9s-.401-.9-.9-.9z" transform="translate(-380 -1859) translate(380 1859)"/>
                    <path fill="#8736C1" d="M34.2 16.4c.497 0 .9.424.9.947 0 .465-.318.852-.738.932l-.162.016H9c-.497 0-.9-.424-.9-.948 0-.465.318-.852.738-.932L9 16.4h25.2zM34.2 30.8c.497 0 .9.424.9.947 0 .465-.318.852-.738.932l-.162.016H9c-.497 0-.9-.424-.9-.948 0-.465.318-.852.738-.932L9 30.8h25.2z" transform="translate(-380 -1859) translate(380 1859)"/>
                </g>
            </g>
        </g>
    </g>
</svg>
