<?xml version="1.0" encoding="UTF-8"?>
<svg width="80px" height="80px" viewBox="0 0 80 80" version="1.1" xmlns="http://www.w3.org/2000/svg" xmlns:xlink="http://www.w3.org/1999/xlink">
    <!-- Generator: Sketch 53.2 (72643) - https://sketchapp.com -->
    <title>email</title>
    <desc>Created with Sketch.</desc>
    <g id="email" stroke="none" stroke-width="1" fill="none" fill-rule="evenodd">
        <g id="Group-2">
            <circle id="Oval" fill="#353167" cx="40" cy="40" r="40"></circle>
            <g id="Group-10" transform="translate(22.000000, 40.000000)">
                <g id="Group">
                    <polygon id="Fill-2841" fill="#F0F1F1" points="35.4375 27 0 27 0 0 35.4375 0"></polygon>
                    <path d="M21.0293877,9.99705668 C20.1888545,9.00498115 18.9839795,8.4375 17.71875,8.4375 C16.4535205,8.4375 15.2486455,9.00498115 14.4081123,9.99705668 L0,27 L35.4375,27 L21.0293877,9.99705668 Z" id="Fill-2842" fill="#E2E4E5"></path>
                    <path d="M14.4081123,17.0029433 C15.2486455,17.9950189 16.4535205,18.5625 17.71875,18.5625 C18.9839795,18.5625 20.1888545,17.9950189 21.0293877,17.0029433 L35.4375,0 L0,0 L14.4081123,17.0029433 Z" id="Fill-2843" fill="#FFFFFF"></path>
                </g>
            </g>
            <g id="Group-11" transform="translate(5.476190, 10.000000)">
                <path d="M45.5238095,10.5 C45.5238095,16.29915 40.8229595,21 35.0238095,21 C29.2246595,21 24.5238095,16.29915 24.5238095,10.5 C24.5238095,4.70085 29.2246595,0 35.0238095,0 C40.8229595,0 45.5238095,4.70085 45.5238095,10.5" id="Fill-5337" fill="#BAB7CC"></path>
                <path d="M21.5238095,16.5 C21.5238095,22.29915 16.8229595,27 11.0238095,27 C5.22465952,27 0.523809524,22.29915 0.523809524,16.5 C0.523809524,10.70085 5.22465952,6 11.0238095,6 C16.8229595,6 21.5238095,10.70085 21.5238095,16.5" id="Fill-5344" fill="#BAB7CC"></path>
                <path d="M16.6582262,17.3435234 C16.2909762,17.2181938 13.5273929,16.4340804 13.5273929,16.0516645 C14.4428095,15.3253955 15.0299762,14.2124258 15.0299762,12.9612722 C15.0299762,10.7728247 13.2359762,9 11.0238095,9 C8.81055952,9 7.01655952,10.7728247 7.01655952,12.9612722 C7.01655952,14.2124258 7.60372619,15.3253955 8.51914286,16.0516645 C8.51914286,16.4340804 5.75664286,17.2181938 5.38830952,17.3435234 C4.85314286,17.6455999 4.52380952,18.2090475 4.52380952,18.8174852 L5.02430952,22 L17.0222262,22 L17.5238095,18.8174852 C17.5238095,18.2090475 17.1933929,17.6455999 16.6582262,17.3435234" id="Fill-5345" fill="#FFFFFF"></path>
                <path d="M68.5238095,16.5 C68.5238095,22.29915 63.8229595,27 58.0238095,27 C52.2246595,27 47.5238095,22.29915 47.5238095,16.5 C47.5238095,10.70085 52.2246595,6 58.0238095,6 C63.8229595,6 68.5238095,10.70085 68.5238095,16.5" id="Fill-5346" fill="#BAB7CC"></path>
                <path d="M36.5238095,25 C36.5238095,26.105 35.6278095,27 34.5238095,27 C33.4198095,27 32.5238095,26.105 32.5238095,25 C32.5238095,23.895 33.4198095,23 34.5238095,23 C35.6278095,23 36.5238095,23.895 36.5238095,25" id="Fill-5348" fill="#BAB7CC"></path>
                <path d="M36.5238095,34 C36.5238095,35.105 35.6278095,36 34.5238095,36 C33.4198095,36 32.5238095,35.105 32.5238095,34 C32.5238095,32.895 33.4198095,32 34.5238095,32 C35.6278095,32 36.5238095,32.895 36.5238095,34" id="Fill-5349" fill="#BAB7CC"></path>
                <path d="M36.5238095,42 C36.5238095,43.105 35.6278095,44 34.5238095,44 C33.4198095,44 32.5238095,43.105 32.5238095,42 C32.5238095,40.895 33.4198095,40 34.5238095,40 C35.6278095,40 36.5238095,40.895 36.5238095,42" id="Fill-5350" fill="#BAB7CC"></path>
                <path d="M43.5238095,35 C43.5238095,36.105 42.6278095,37 41.5238095,37 C40.4198095,37 39.5238095,36.105 39.5238095,35 C39.5238095,33.895 40.4198095,33 41.5238095,33 C42.6278095,33 43.5238095,33.895 43.5238095,35" id="Fill-5351" fill="#BAB7CC"></path>
                <path d="M50.5238095,28 C50.5238095,29.105 49.6278095,30 48.5238095,30 C47.4198095,30 46.5238095,29.105 46.5238095,28 C46.5238095,26.895 47.4198095,26 48.5238095,26 C49.6278095,26 50.5238095,26.895 50.5238095,28" id="Fill-5352" fill="#BAB7CC"></path>
                <path d="M25.5238095,35 C25.5238095,36.105 26.4198095,37 27.5238095,37 C28.6278095,37 29.5238095,36.105 29.5238095,35 C29.5238095,33.895 28.6278095,33 27.5238095,33 C26.4198095,33 25.5238095,33.895 25.5238095,35" id="Fill-5353" fill="#BAB7CC"></path>
                <path d="M18.5238095,28 C18.5238095,29.105 19.4198095,30 20.5238095,30 C21.6278095,30 22.5238095,29.105 22.5238095,28 C22.5238095,26.895 21.6278095,26 20.5238095,26 C19.4198095,26 18.5238095,26.895 18.5238095,28" id="Fill-5354" fill="#BAB7CC"></path>
                <g id="Fill-3210" transform="translate(28.523810, 4.000000)" fill="#FFFFFF">
                    <path d="M2.81398478,9.99098105 C-0.94555896,6.1212221 -0.228019282,1.2723581 0.924065308,0.960372086 L2.72540666,0.472479063 C3.19029953,0.346552292 3.67150444,0.593720186 3.85473027,1.0511565 C4.40990834,2.43791286 5.16538298,4.50194049 2.64441553,5.28034365 C3.32250285,7.02516156 3.83102093,7.5485874 4.50891858,8.24635838 C5.18681623,8.94412935 7.3902681,10.1655214 7.3902681,10.1655214 C8.14669111,7.57064899 10.0588025,8.35256638 11.4060625,8.92402012 C11.8495221,9.11222695 12.0904091,9.6091008 11.9684482,10.0866464 L11.4944509,11.9406008 C11.1674516,13.2191968 6.4796395,13.7640985 2.81398478,9.99098105"></path>
                </g>
                <g id="Group-12" transform="translate(51.523810, 9.000000)">
                    <polygon id="Fill-2263" fill="#FFFFFF" points="12.1875328 12.1875406 0.812532822 12.1875406 0.812532822 4.87504063 12.1875328 4.87504063"></polygon>
                    <path d="M11.3750328,1.21879063 C11.3750328,0.9943375 11.1930328,0.812540625 10.9687828,0.812540625 L10.1562828,0.812540625 C9.93203282,0.812540625 9.75003282,0.9943375 9.75003282,1.21879063 L9.75003282,3.65629063 C9.75003282,3.88074375 9.93203282,4.06254063 10.1562828,4.06254063 L10.9687828,4.06254063 C11.1930328,4.06254063 11.3750328,3.88074375 11.3750328,3.65629063 L11.3750328,1.21879063 Z" id="Fill-2264" fill="#FFFFFF"></path>
                    <path d="M6.74947032,1.08561719 C6.60281407,0.971460937 6.3974547,0.971460937 6.25059532,1.08561719 L0.156845322,5.14811719 C0.0199390716,5.25475781 -0.0342953034,5.43655469 0.0219703216,5.60067969 C0.0784390716,5.76480469 0.232610947,5.87510156 0.406282822,5.87510156 L12.5937828,5.87510156 C12.7672516,5.87510156 12.9216266,5.76480469 12.9780953,5.60067969 C13.0343609,5.43655469 12.9801266,5.25475781 12.8432203,5.14811719 L6.74947032,1.08561719 Z" id="Fill-2265" fill="#FFFFFF"></path>
                    <polygon id="Fill-2266" fill="#FFFFFF" points="11.3750328 9.57230625 7.10940782 9.57230625 7.10940782 6.50004063 11.3750328 6.50004063"></polygon>
                    <path d="M5.28128282,8.12504063 C5.28128282,7.22763438 4.55368907,6.50004063 3.65628282,6.50004063 C2.75887657,6.50004063 2.03128282,7.22763438 2.03128282,8.12504063 L2.03128282,11.3750406 L5.28128282,11.3750406 L5.28128282,8.12504063 Z" id="Fill-2267" fill="#BAB7CC"></path>
                    <polygon id="Fill-2269" fill="#FFFFFF" points="13.0000328 13.0000406 3.28215743e-05 13.0000406 3.28215743e-05 12.1875406 13.0000328 12.1875406"></polygon>
                    <path d="M3.28215743e-05,12.1875406 L0.633985947,11.5535875 C0.748345322,11.4392281 0.903329697,11.3750406 1.0650172,11.3750406 L11.9350484,11.3750406 C12.0967359,11.3750406 12.2517203,11.4392281 12.3660797,11.5535875 L13.0000328,12.1875406 L3.28215743e-05,12.1875406 Z" id="Fill-2270" fill="#FFFFFF"></path>
                </g>
            </g>
        </g>
    </g>
</svg>