<?xml version="1.0" encoding="UTF-8"?>
<svg width="80px" height="80px" viewBox="0 0 80 80" version="1.1" xmlns="http://www.w3.org/2000/svg" xmlns:xlink="http://www.w3.org/1999/xlink">
    <!-- Generator: Sketch 48.2 (47327) - http://www.bohemiancoding.com/sketch -->
    <title>assets/img_courtrunner_steps</title>
    <desc>Created with Sketch.</desc>
    <defs></defs>
    <g id="Freeform-Icons-(Dark-Background)" stroke="none" stroke-width="1" fill="none" fill-rule="evenodd" transform="translate(-968.000000, -425.000000)">
        <path d="M1048,464.689728 C1048,465.627955 1047.59313,466.566183 1046.98282,467.191668 L1007.92318,504.095281 C1006.906,505.033508 1005.58367,505.242003 1004.36306,504.720766 C1003.24416,504.199528 1002.43042,503.052806 1002.43042,501.697588 L1002.43042,484.060435 L971.25497,484.060435 C969.424049,484.060435 968,482.60097 968,480.724515 L968,449.280425 C968,447.40397 969.424049,445.944505 971.25497,445.944505 L1002.43042,445.944505 L1002.43042,428.307352 C1002.43042,426.952135 1003.14244,425.805412 1004.36306,425.284175 C1005.58367,424.762937 1006.906,424.971432 1007.92318,425.805412 L1046.98282,462.292035 C1047.59313,462.91752 1048,463.7515 1048,464.689728 Z" id="assets/img_courtrunner_steps" fill="#EBEAF4"></path>
    </g>
</svg>