<?xml version="1.0" encoding="UTF-8" standalone="no"?>
<svg width="100px" height="60px" viewBox="0 0 100 60" version="1.1" xmlns="http://www.w3.org/2000/svg" xmlns:xlink="http://www.w3.org/1999/xlink">
    <!-- Generator: Sketch 39.1 (31720) - http://www.bohemiancoding.com/sketch -->
    <title>assets/img_paypal</title>
    <desc>Created with Sketch.</desc>
    <defs>
        <rect id="path-1" x="0.185643564" y="0.150337969" width="99.009901" height="59.0163934" rx="3.96039604"></rect>
        <mask id="mask-2" maskContentUnits="userSpaceOnUse" maskUnits="objectBoundingBox" x="0" y="0" width="99.009901" height="59.0163934" fill="white">
            <use xlink:href="#path-1"></use>
        </mask>
    </defs>
    <g id="Freshness" stroke="none" stroke-width="1" fill="none" fill-rule="evenodd">
        <g id="Freeform-Icons" transform="translate(-820.000000, -605.000000)">
            <g id="assets/img_paypal" transform="translate(870.000000, 635.000000) scale(1, -1) translate(-870.000000, -635.000000) translate(820.000000, 605.000000)">
                <use id="Rectangle" stroke="#00457C" mask="url(#mask-2)" stroke-width="1.98019802" fill="#FFFFFF" xlink:href="#path-1"></use>
                <path d="M60.9220417,33.1970913 C60.6560531,31.4620522 59.3223458,31.4620522 58.0319244,31.4620522 L57.2979462,31.4620522 L57.8129856,34.7015398 C57.8437248,34.8972303 58.0137317,35.0411937 58.2132232,35.0411937 L58.5501004,35.0411937 C59.4283648,35.0411937 60.2576974,35.0411937 60.6855377,34.5444889 C60.941489,34.2472138 61.0186508,33.8059754 60.9220417,33.1970913 M60.3605798,37.7241476 L55.4949948,37.7241476 C55.1618816,37.7241476 54.878955,37.4835854 54.8268865,37.1570191 L52.8595741,24.7624576 C52.8206795,24.5181561 53.0113884,24.2969137 53.2598118,24.2969137 L55.7565921,24.2969137 C55.9893322,24.2969137 56.187569,24.4651826 56.2239543,24.6932804 L56.7822795,28.2076073 C56.8337207,28.5341736 57.1172747,28.7747357 57.4497605,28.7747357 L58.9892326,28.7747357 C62.1942705,28.7747357 64.0442718,30.3153309 64.5273173,33.3697228 C64.7450014,34.7046559 64.5360999,35.7541552 63.9068862,36.4889293 C63.2149393,37.29662 61.9885057,37.7241476 60.3605798,37.7241476" id="Shape" fill="#0079C1"></path>
                <path d="M26.2182377,33.1970913 C25.952249,31.4620522 24.6185417,31.4620522 23.3281203,31.4620522 L22.5941422,31.4620522 L23.1091815,34.7015398 C23.1399208,34.8972303 23.3099277,35.0411937 23.5094192,35.0411937 L23.8462964,35.0411937 C24.7245608,35.0411937 25.5538934,35.0411937 25.9817336,34.5444889 C26.237685,34.2472138 26.3148468,33.8059754 26.2182377,33.1970913 M25.6567758,37.7241476 L20.7911907,37.7241476 C20.4580776,37.7241476 20.175151,37.4835854 20.1230824,37.1570191 L18.1557701,24.7624576 C18.1168755,24.5181561 18.306957,24.2969137 18.5560077,24.2969137 L20.8796445,24.2969137 C21.2121303,24.2969137 21.495057,24.5374759 21.5471255,24.863419 L22.0784755,28.2076073 C22.1299167,28.5341736 22.4134706,28.7747357 22.7459565,28.7747357 L24.2854286,28.7747357 C27.4904665,28.7747357 29.3404678,30.3153309 29.8235132,33.3697228 C30.0411974,34.7046559 29.8322959,35.7541552 29.2030821,36.4889293 C28.5111352,37.29662 27.2847017,37.7241476 25.6567758,37.7241476" id="Shape" fill="#00457C"></path>
                <path d="M36.9526994,28.7474388 C36.7274873,27.42497 35.6710606,26.5368842 34.3229247,26.5368842 C33.6472884,26.5368842 33.1059011,26.7531409 32.7583593,27.161972 C32.4139542,27.5670637 32.2840965,28.1447869 32.3932523,28.7873247 C32.6027811,30.0985756 33.676773,31.0147062 35.004207,31.0147062 C35.666042,31.0147062 36.203038,30.7965799 36.5574804,30.3840095 C36.9144322,29.968323 37.0549545,29.3874838 36.9526994,28.7474388 M40.1997685,33.2526824 L37.8698584,33.2526824 C37.6703669,33.2526824 37.50036,33.108719 37.4689934,32.9124053 L37.3667384,32.2655049 L37.2042594,32.4998349 C36.6992574,33.2271305 35.5744516,33.4708087 34.4515277,33.4708087 C31.8775856,33.4708087 29.6787878,31.5326005 29.2509476,28.8147463 C29.0282448,27.4586238 29.34442,26.1629533 30.1185474,25.2586639 C30.8293142,24.4279142 31.8437097,24.0820281 33.0525779,24.0820281 C35.1277914,24.0820281 36.2783178,25.4057434 36.2783178,25.4057434 L36.1741807,24.7625823 C36.1352861,24.5182808 36.3253677,24.2970384 36.5750457,24.2970384 L38.6728431,24.2970384 C39.0059562,24.2970384 39.2888828,24.5369773 39.3409514,24.8635436 L40.6006335,32.7871385 C40.6395281,33.03144 40.4488192,33.2526824 40.1997685,33.2526824" id="Shape" fill="#00457C"></path>
                <path d="M71.6565662,28.7474388 C71.4313541,27.42497 70.3749274,26.5368842 69.0267915,26.5368842 C68.3511552,26.5368842 67.8097679,26.7531409 67.4622261,27.161972 C67.1171937,27.5670637 66.9879633,28.1447869 67.097119,28.7873247 C67.3066478,30.0985756 68.3806398,31.0147062 69.7080738,31.0147062 C70.3699088,31.0147062 70.9069047,30.7965799 71.2613472,30.3840095 C71.6182989,29.968323 71.7588213,29.3874838 71.6565662,28.7474388 M74.9036353,33.2526824 L72.5737252,33.2526824 C72.3742337,33.2526824 72.2042268,33.108719 72.1728602,32.9124053 L72.0706051,32.2655049 L71.9074989,32.4998349 C71.4031242,33.2271305 70.2783183,33.4708087 69.1553945,33.4708087 C66.5814524,33.4708087 64.3826546,31.5326005 63.9548143,28.8147463 C63.7321116,27.4586238 64.0482868,26.1629533 64.8224141,25.2586639 C65.533181,24.4279142 66.5475764,24.0820281 67.7564447,24.0820281 C69.8316581,24.0820281 70.9821846,25.4057434 70.9821846,25.4057434 L70.8780475,24.7625823 C70.8391529,24.5182808 71.0292344,24.2970384 71.2789125,24.2970384 L73.3767098,24.2970384 C73.709823,24.2970384 73.9927496,24.5369773 74.0448181,24.8635436 L75.3045003,32.7871385 C75.3433949,33.03144 75.152686,33.2526824 74.9036353,33.2526824" id="Shape" fill="#0079C1"></path>
                <path d="M52.6088296,33.2526201 L50.2670002,33.2526201 C50.0430428,33.2526201 49.833514,33.1423105 49.7080476,32.9578379 L46.4772891,28.2313519 L45.1084513,32.7733654 C45.0225068,33.0575528 44.7590275,33.2526201 44.4604176,33.2526201 L42.1587374,33.2526201 C41.8808294,33.2526201 41.6851019,32.980897 41.7748103,32.7197686 L44.3531438,25.2000191 L41.9278793,21.8003643 C41.7377978,21.533627 41.9297613,21.1646819 42.2591105,21.1646819 L44.5984305,21.1646819 C44.8198786,21.1646819 45.0275255,21.2724986 45.1542465,21.4532319 L52.9419428,32.6200537 C53.1282603,32.8874143 52.9362968,33.2526201 52.6088296,33.2526201" id="Shape" fill="#00457C"></path>
                <path d="M77.6497173,37.3835589 L75.6529203,24.762146 C75.6140258,24.5178445 75.8041073,24.2966021 76.053158,24.2966021 L78.0618743,24.2966021 C78.3943601,24.2966021 78.677914,24.5371643 78.7293552,24.8637306 L80.6985496,37.2582921 C80.7374442,37.5025936 80.5473626,37.723836 80.2976846,37.723836 L78.0505823,37.723836 C77.8504635,37.723836 77.6804566,37.5798726 77.6497173,37.3835589" id="Shape" fill="#0079C1"></path>
            </g>
        </g>
    </g>
</svg>