<svg xmlns="http://www.w3.org/2000/svg" xmlns:xlink="http://www.w3.org/1999/xlink" width="70" height="60" viewBox="0 0 70 60">
    <defs>
        <path id="prefix__a" d="M0.045 0.053L59.963 0.053 59.963 33.889 0.045 33.889z"/>
    </defs>
    <g fill="none" fill-rule="evenodd">
        <path fill="#8B88AA" d="M57.572 25H11.428C10.639 25 10 24.328 10 23.5s.64-1.5 1.428-1.5h46.144c.789 0 1.428.672 1.428 1.5s-.64 1.5-1.428 1.5"/>
        <path fill="#493B8E" d="M68.572 34H1.428C.64 34 0 33.328 0 32.5S.64 31 1.428 31h67.144c.788 0 1.428.672 1.428 1.5s-.64 1.5-1.428 1.5"/>
        <g transform="translate(5)">
            <mask id="prefix__b" fill="#fff">
                <use xlink:href="#prefix__a"/>
            </mask>
            <path fill="#493B8E" d="M58.541 33.89c-.516 0-1.014-.284-1.266-.778L43.153 5.497C42 3.245 39.3 2.297 37.007 3.34l-3.888 1.766c-1.98.899-4.25.899-6.23 0L23 3.339c-2.295-1.042-4.995-.094-6.146 2.158L2.733 33.112c-.36.703-1.218.98-1.916.618-.699-.361-.974-1.225-.614-1.928L14.324 4.187C16.17.58 20.495-.94 24.172.73l3.888 1.766c1.235.561 2.652.561 3.888 0L35.836.729c3.676-1.67 8.002-.15 9.847 3.458l14.122 27.615c.36.703.085 1.567-.614 1.928-.208.108-.43.16-.65.16" mask="url(#prefix__b)"/>
        </g>
        <path fill="#8B88AA" d="M13.359 54c-.348 0-.696-.133-.961-.398-.53-.53-.53-1.391 0-1.922l9.282-9.282c.53-.53 1.391-.53 1.922 0 .53.53.53 1.391 0 1.922l-9.282 9.282c-.266.265-.613.398-.961.398M17.445 57c-.37 0-.74-.141-1.022-.423-.564-.564-.564-1.479 0-2.043l13.11-13.111c.565-.564 1.48-.564 2.044 0 .564.564.564 1.479 0 2.043l-13.111 13.11c-.282.283-.652.424-1.021.424M40.359 54c-.348 0-.696-.133-.961-.398-.53-.53-.53-1.391 0-1.922l9.282-9.282c.531-.53 1.391-.53 1.922 0 .53.53.53 1.391 0 1.922l-9.282 9.282c-.266.265-.613.398-.961.398M44.445 57c-.37 0-.74-.141-1.022-.423-.564-.564-.564-1.479 0-2.043l13.11-13.111c.565-.564 1.48-.564 2.044 0 .564.564.564 1.479 0 2.043l-13.111 13.11c-.282.283-.652.424-1.021.424"/>
        <path fill="#493B8E" d="M21 60c-6.617 0-12-5.52-12-12.306v-5.215C9 41.662 9.646 41 10.442 41c.797 0 1.442.662 1.442 1.479v5.215c0 5.154 4.09 9.348 9.116 9.348 5.027 0 9.116-4.194 9.116-9.348v-5.215c0-.817.645-1.479 1.442-1.479.796 0 1.442.662 1.442 1.479v5.215C33 54.479 27.617 60 21 60"/>
        <path fill="#493B8E" d="M30.467 45c-.81 0-1.467-.623-1.467-1.387C29 41.553 31.364 40 34.5 40s5.5 1.553 5.5 3.613c0 .764-.657 1.383-1.468 1.383-.808 0-1.464-.616-1.467-1.377-.06-.21-.931-.854-2.565-.854-1.642 0-2.513.65-2.565.857 0 .763-.657 1.378-1.468 1.378"/>
        <path fill="#493B8E" d="M49 60c-6.617 0-12-5.52-12-12.306v-5.215c0-.817.646-1.479 1.442-1.479.796 0 1.442.662 1.442 1.479v5.215c0 5.154 4.09 9.348 9.116 9.348 5.027 0 9.116-4.194 9.116-9.348v-5.215c0-.817.645-1.479 1.442-1.479.796 0 1.442.662 1.442 1.479v5.215C61 54.479 55.617 60 49 60M31.609 44H7.39C6.623 44 6 43.328 6 42.5S6.623 41 7.391 41H31.61c.768 0 1.391.672 1.391 1.5s-.623 1.5-1.391 1.5"/>
        <path fill="#493B8E" d="M62.609 44H38.39C37.623 44 37 43.328 37 42.5s.623-1.5 1.391-1.5H62.61c.768 0 1.391.672 1.391 1.5s-.623 1.5-1.391 1.5"/>
    </g>
</svg>
