<?xml version="1.0" encoding="UTF-8"?>
<svg width="60px" height="60px" viewBox="0 0 60 60" version="1.1" xmlns="http://www.w3.org/2000/svg" xmlns:xlink="http://www.w3.org/1999/xlink">
    <title>icon/nocircle/phone report_no circle</title>
    <g id="icon/nocircle/phone-report_no-circle" stroke="none" stroke-width="1" fill="none" fill-rule="evenodd">
        <g id="Group-13-Copy" transform="translate(3.000000, -0.200000)">
            <path d="M36.360556,52.279564 C34.2045319,54.4360282 30.7034946,54.4352275 28.5482711,52.279564 C18.0635731,41.7935265 11.6659539,32.1322786 4.43250505,39.3712078 C1.09479081,42.7104042 1.35658801,47.6983788 4.33643268,50.6788318 L11.5898966,57.9337764 C12.0574488,58.401424 12.8172211,58.4046271 13.2887763,57.9337764 C13.7587304,57.4637264 13.7571291,56.7029982 13.2887763,56.2353506 L6.03451182,48.980406 C3.99137276,46.9360491 3.73678098,43.4647263 6.13138479,41.0696336 C8.28740889,38.9131694 11.7876456,38.9139702 13.9436697,41.0696336 L26.8493913,53.9779898 C29.934115,57.0633432 34.9570988,57.08096 38.0610369,53.9763883 C40.9263953,51.0303683 41.1537666,47.7384171 39.7407022,44.9357343 C38.7327429,44.9253244 37.7488017,44.8644661 36.7896792,44.7571634 C38.6078488,47.0017119 38.8568364,49.7835748 36.360556,52.279564 Z" id="Fill-3244" fill="#EBEAF4"></path>
            <g id="Group-12" transform="translate(28.734004, 23.325656) rotate(4.000000) translate(-28.734004, -23.325656) translate(7.305432, 1.897084)">
                <path d="M42.3930217,33.4346294 C42.3930217,34.5170455 41.9112828,36.6217433 41.4596526,37.6139581 C40.8273704,39.0872466 39.1412843,40.0493942 37.7863937,40.801072 C36.0099815,41.7632196 34.2034607,42.3344948 32.1861791,42.3344948 C29.3860719,42.3344948 26.8569427,41.1919445 24.2977049,40.259864 C22.4610754,39.5983875 20.6846633,38.7865755 19.0286859,37.7642936 C13.9102103,34.6072468 7.73793081,28.4434887 4.57651939,23.3320795 C3.55282426,21.6783883 2.7398899,19.9044287 2.07749893,18.0703348 C1.14412985,15.5146302 0,12.9889927 0,10.1927512 C0,8.17825467 0.572064924,6.37422791 1.53554269,4.60026825 C2.2882597,3.24724818 3.25173746,1.56348986 4.72706279,0.932080496 C5.72064924,0.481073804 7.82825685,0 8.91216934,0 C9.1229301,0 9.33369086,0 9.54445162,0.0902013383 C10.1767339,0.300671128 10.8391249,1.77395965 11.1402117,2.37530191 C12.1036894,4.08912734 13.0370585,5.83301988 14.030645,7.51677819 C14.5123839,8.29852312 15.4156443,9.26067073 15.4156443,10.1927512 C15.4156443,12.0268451 9.96597315,14.7028181 9.96597315,16.3264422 C9.96597315,17.1382543 10.7186902,18.1906032 11.1402117,18.9122139 C14.1811884,24.3844285 17.9748821,28.1728847 23.4546619,31.2096631 C24.1772702,31.6306026 25.231074,32.3822804 26.0440084,32.3822804 C27.6698771,32.3822804 30.3495496,26.940133 32.1861791,26.940133 C33.1195482,26.940133 34.083026,27.8421464 34.8658517,28.3232202 C36.5519378,29.3154349 38.2982412,30.2475154 40.014436,31.2096631 C40.6166096,31.5103342 42.0919349,32.1718107 42.3026957,32.80322 C42.3930217,33.0136898 42.3930217,33.2241596 42.3930217,33.4346294 Z" id="" fill="#8B88AA"></path>
                <path d="M32.1909347,26.9403898 C33.1238689,26.9403898 34.0868978,27.8424118 34.8693587,28.3234902 C36.5546592,29.3157144 38.3001491,30.2478038 40.0155442,31.2099605 C40.6174373,31.5106345 42.0920752,32.1721173 42.3027378,32.8035327 C42.3930217,33.0140045 42.3930217,33.2244763 42.3930217,33.4349481 C42.3930217,34.5028066 41.924381,36.5656248 41.478329,37.5736556 L28.6541241,30.1402285 C29.8756058,28.6404747 31.1648877,26.9403898 32.1909347,26.9403898 Z M9.55975643,0.0902021981 C10.1917441,0.300673994 10.8538265,1.77397656 11.154773,2.37532455 C12.1178018,4.08916631 13.0507361,5.83307547 14.0438596,7.51684984 C14.525374,8.29860222 15.4282136,9.260759 15.4282136,10.1928484 C15.4282136,11.2710333 13.5458521,12.6401486 11.9942268,13.9153907 L4.7693578,0.922 L4.95745041,0.841637734 C6.01407141,0.419072731 7.91658843,4.88751896e-13 8.92776873,4.88751896e-13 C9.1384313,4.88751896e-13 9.34909386,4.88751896e-13 9.55975643,0.0902021981 Z" id="Combined-Shape" fill="#EBEAF4"></path>
            </g>
        </g>
    </g>
</svg>