<?xml version="1.0" encoding="UTF-8" standalone="no"?>
<svg width="200px" height="200px" viewBox="0 0 200 200" version="1.1" xmlns="http://www.w3.org/2000/svg" xmlns:xlink="http://www.w3.org/1999/xlink">
    <!-- Generator: Sketch 39.1 (31720) - http://www.bohemiancoding.com/sketch -->
    <title>assets/img_neighbors</title>
    <desc>Created with Sketch.</desc>
    <defs></defs>
    <g id="Freshness" stroke="none" stroke-width="1" fill="none" fill-rule="evenodd">
        <g id="Circular-Icons" transform="translate(-1000.000000, -2000.000000)">
            <g id="assets/img_neighbors" transform="translate(1000.000000, 2000.000000)">
                <circle id="background" fill="#3B2469" cx="100" cy="100" r="100"></circle>
                <g id="assets/neighbors-no-bg" transform="translate(45.000000, 46.000000)">
                    <g id="person">
                        <path d="M97.4660289,13.5826214 L101.784746,11.5319071 C104.566974,10.2001214 107.911793,11.3739786 109.247357,14.1459786 C110.625469,17.0334786 109.450646,20.3688357 106.668418,21.7006214 L102.191325,23.8196929 L75.8629885,37.5052643 L73.4778843,60.9753357 L81.0185013,99.0997643 L67.4501183,99.0997643 L55.3874949,69.9937643 L43.8118204,99.0997643 L30.2458013,99.0997643 L37.2994694,60.9753357 L35.1649311,37.5264786 L4.10893532,21.7006214 C1.32670766,20.3688357 0.151884255,17.0334786 1.48508426,14.2591214 C2.86556085,11.3739786 6.21038,10.2001214 8.99260766,11.5319071 L39.5616545,24.9016214 L71.2156991,24.9016214 L97.4660289,13.5826214 Z" id="Fill-1989" fill="#0484AB"></path>
                        <polygon id="Fill-1990" fill="#EBECED" points="46.3444277 24.9009143 64.4324532 24.9009143 55.3884404 51.9562"></polygon>
                        <polygon id="Fill-1991" fill="#FA5655" points="55.3886768 24.9009143 51.2779768 39.6589857 55.3886768 51.9562 59.4993768 39.6589857"></polygon>
                        <path d="M67.9500683,12.5004571 C67.9500683,19.3479571 62.3832491,24.9013857 55.5139598,24.9013857 C48.6470343,24.9013857 43.0778513,19.3479571 43.0778513,12.5004571 C43.0778513,5.6506 48.6470343,0.0995285714 55.5139598,0.0995285714 C62.3832491,0.0995285714 67.9500683,5.6506 67.9500683,12.5004571" id="Fill-1992" fill="#F8B4B4"></path>
                        <path d="M67.9500683,11.8805286 C65.9904534,12.2836 63.9079194,12.5004571 61.7615619,12.5004571 C54.7977194,12.5004571 48.6115768,10.1763143 44.6332513,6.54867143 C46.7465151,2.70417143 50.8501236,0.0995285714 55.5446896,0.0995285714 C62.1988704,0.0995285714 67.6380428,5.30881429 67.9500683,11.8805286" id="Fill-1993" fill="#84462D"></path>
                        <path d="M8.99237128,11.5312 C6.21014362,10.2017714 2.86532447,11.3732714 1.52976064,14.1452714 L1.48484787,14.2584143 C0.151647872,17.0327714 1.32647128,20.3681286 4.10869894,21.6999143 L8.13193723,23.7506286 L12.8028649,13.2118429 L8.99237128,11.5312 Z" id="Fill-1997" fill="#F8B4B4"></path>
                        <path d="M103.154349,23.3628786 L106.669364,21.6987357 C109.449228,20.3693071 110.626415,17.0315929 109.290851,14.2595929 L109.245938,14.14645 C107.912738,11.37445 104.565555,10.2005929 101.785691,11.5300214 L97.8901,13.3803786 L103.154349,23.3628786 Z" id="Fill-1998" fill="#F8B4B4"></path>
                        <path d="M55.6319149,0.11155 C55.5917298,0.11155 55.5539085,0.0997642857 55.5137234,0.0997642857 C48.6467979,0.0997642857 43.0776149,5.65319286 43.0776149,12.5006929 C43.0776149,19.3481929 48.6467979,24.9016214 55.5137234,24.9016214 C55.5539085,24.9016214 55.5917298,24.8898357 55.6319149,24.8898357 L55.6319149,0.11155 Z" id="Fill-2000" fill="#FBC8C8"></path>
                        <path d="M55.6319149,0.108721429 C55.6011851,0.108721429 55.575183,0.0992928571 55.5444532,0.0992928571 C50.8522511,0.0992928571 46.7462787,2.70393571 44.6330149,6.54843571 C47.3916043,9.06350714 51.2257362,10.9303643 55.6319149,11.8520071 L55.6319149,0.108721429 Z" id="Fill-2001" fill="#9C6144"></path>
                    </g>
                    <g id="fence" transform="translate(1.100000, 41.900000)">
                        <polygon id="Fill-2298" fill="#E2E4E5" points="107.25 48.8693182 0 48.8693182 0 38.4715909 107.25 38.4715909"></polygon>
                        <polygon id="Fill-2299" fill="#E2E4E5" points="107.25 28.0738636 0 28.0738636 0 17.6761364 107.25 17.6761364"></polygon>
                        <polygon id="Fill-2300" fill="#FFFFFF" points="107.25 22.875 0 22.875 0 17.6761364 107.25 17.6761364"></polygon>
                        <polygon id="Fill-2301" fill="#FFFFFF" points="107.25 43.6704545 0 43.6704545 0 38.4715909 107.25 38.4715909"></polygon>
                        <polygon id="Fill-2302" fill="#FFFFFF" points="20.6246906 66.5454545 20.6246906 12.4772727 12.3746906 0 4.12469062 12.4772727 4.12469062 66.5454559"></polygon>
                        <polygon id="Fill-2303" fill="#FFFFFF" points="41.25 66.5454545 41.25 12.4772727 33 0 24.75 12.4772727 24.75 66.5454545"></polygon>
                        <polygon id="Fill-2303" fill="#FFFFFF" points="61.875 66.5454545 61.875 12.4772727 53.625 0 45.375 12.4772727 45.375 66.5454545"></polygon>
                        <polygon id="Fill-2303" fill="#FFFFFF" points="82.5 66.5454545 82.5 12.4772727 74.25 0 66 12.4772727 66 66.5454545"></polygon>
                        <polygon id="Fill-2304" fill="#FFFFFF" points="103.125309 66.5454559 103.125309 12.4772727 94.8753094 0 86.6253094 12.4772727 86.6253094 66.5454545"></polygon>
                        <path d="M35.0625,43.6704545 C35.0625,44.8194034 34.1385,45.75 33,45.75 C31.8615,45.75 30.9375,44.8194034 30.9375,43.6704545 C30.9375,42.5215057 31.8615,41.5909091 33,41.5909091 C34.1385,41.5909091 35.0625,42.5215057 35.0625,43.6704545" id="Fill-2305" fill="#5B5C5F"></path>
                        <path d="M55.6875,43.6704545 C55.6875,44.8194034 54.7635,45.75 53.625,45.75 C52.4865,45.75 51.5625,44.8194034 51.5625,43.6704545 C51.5625,42.5215057 52.4865,41.5909091 53.625,41.5909091 C54.7635,41.5909091 55.6875,42.5215057 55.6875,43.6704545" id="Fill-2306" fill="#5B5C5F"></path>
                        <path d="M14.4375,43.6704545 C14.4375,44.8194034 13.5135,45.75 12.375,45.75 C11.2365,45.75 10.3125,44.8194034 10.3125,43.6704545 C10.3125,42.5215057 11.2365,41.5909091 12.375,41.5909091 C13.5135,41.5909091 14.4375,42.5215057 14.4375,43.6704545" id="Fill-2307" fill="#5B5C5F"></path>
                        <path d="M35.0625,22.875 C35.0625,24.0239489 34.1385,24.9545455 33,24.9545455 C31.8615,24.9545455 30.9375,24.0239489 30.9375,22.875 C30.9375,21.7260511 31.8615,20.7954545 33,20.7954545 C34.1385,20.7954545 35.0625,21.7260511 35.0625,22.875" id="Fill-2308" fill="#5B5C5F"></path>
                        <path d="M55.6875,22.875 C55.6875,24.0239489 54.7635,24.9545455 53.625,24.9545455 C52.4865,24.9545455 51.5625,24.0239489 51.5625,22.875 C51.5625,21.7260511 52.4865,20.7954545 53.625,20.7954545 C54.7635,20.7954545 55.6875,21.7260511 55.6875,22.875" id="Fill-2309" fill="#5B5C5F"></path>
                        <path d="M14.4375,22.875 C14.4375,24.0239489 13.5135,24.9545455 12.375,24.9545455 C11.2365,24.9545455 10.3125,24.0239489 10.3125,22.875 C10.3125,21.7260511 11.2365,20.7954545 12.375,20.7954545 C13.5135,20.7954545 14.4375,21.7260511 14.4375,22.875" id="Fill-2310" fill="#5B5C5F"></path>
                        <path d="M76.3125,43.6704545 C76.3125,44.8194034 75.3885,45.75 74.25,45.75 C73.1115,45.75 72.1875,44.8194034 72.1875,43.6704545 C72.1875,42.5215057 73.1115,41.5909091 74.25,41.5909091 C75.3885,41.5909091 76.3125,42.5215057 76.3125,43.6704545" id="Fill-2305" fill="#5B5C5F"></path>
                        <path d="M96.9375,43.6704545 C96.9375,44.8194034 96.0135,45.75 94.875,45.75 C93.7365,45.75 92.8125,44.8194034 92.8125,43.6704545 C92.8125,42.5215057 93.7365,41.5909091 94.875,41.5909091 C96.0135,41.5909091 96.9375,42.5215057 96.9375,43.6704545" id="Fill-2306" fill="#5B5C5F"></path>
                        <path d="M76.3125,22.875 C76.3125,24.0239489 75.3885,24.9545455 74.25,24.9545455 C73.1115,24.9545455 72.1875,24.0239489 72.1875,22.875 C72.1875,21.7260511 73.1115,20.7954545 74.25,20.7954545 C75.3885,20.7954545 76.3125,21.7260511 76.3125,22.875" id="Fill-2308" fill="#5B5C5F"></path>
                        <path d="M96.9375,22.875 C96.9375,24.0239489 96.0135,24.9545455 94.875,24.9545455 C93.7365,24.9545455 92.8125,24.0239489 92.8125,22.875 C92.8125,21.7260511 93.7365,20.7954545 94.875,20.7954545 C96.0135,20.7954545 96.9375,21.7260511 96.9375,22.875" id="Fill-2309" fill="#5B5C5F"></path>
                    </g>
                </g>
            </g>
        </g>
    </g>
</svg>