<?xml version="1.0" encoding="UTF-8"?>
<svg width="94px" height="88px" viewBox="0 0 94 88" version="1.1" xmlns="http://www.w3.org/2000/svg" xmlns:xlink="http://www.w3.org/1999/xlink">
    <title>Group 168 Copy 2</title>
    <defs>
        <path d="M0.0173931298,21.3042184 C0.0173931298,33.0009119 9.54279389,42.4828217 21.2929179,42.4828217 L21.2929179,42.4828217 C33.043042,42.4828217 42.5684427,33.0009119 42.5684427,21.3042184 L42.5684427,21.3042184 C42.5684427,9.60752496 33.043042,0.12561512 21.2929179,0.12561512 L21.2929179,0.12561512 C9.54279389,0.12561512 0.0173931298,9.60752496 0.0173931298,21.3042184 L0.0173931298,21.3042184 Z" id="path-1"></path>
        <polygon id="path-3" points="0 0.067683759 92.9903273 0.067683759 92.9903273 22.0466197 0 22.0466197"></polygon>
    </defs>
    <g id="recport-2.0-cleaned-up" stroke="none" stroke-width="1" fill="none" fill-rule="evenodd">
        <g id="bumper-report-v2_expanded_1200" transform="translate(-380.000000, -140.000000)">
            <g id="Group-168-Copy-2" transform="translate(380.000000, 140.000000)">
                <g id="Group-167" transform="translate(0.113861, 0.000000)">
                    <g id="Group-25" transform="translate(3.017176, 0.146639)">
                        <path d="M82.8248948,43.2117781 C82.8248948,21.5800063 65.2086716,4.04388817 43.4780857,4.04388817 C21.7473223,4.04388817 4.13109905,21.5800063 4.13109905,43.2117781 C4.13109905,64.8435498 21.7473223,82.379668 43.4780857,82.379668 C65.2086716,82.379668 82.8248948,64.8435498 82.8248948,43.2117781" id="Fill-1" fill="#8736C1"></path>
                        <path d="M43.4780502,1.53140909 C32.2939128,1.53140909 21.7792334,5.86698582 13.8710387,13.7393967 C5.9626666,21.6116309 1.60728492,32.0784976 1.60728492,43.2117781 C1.60728492,54.3450586 5.9626666,64.8119252 13.8710387,72.6841595 C21.7792334,80.5565704 32.2939128,84.8921471 43.4780502,84.8921471 C54.6621876,84.8921471 65.176867,80.5565704 73.0850616,72.6841595 C80.9934338,64.8119252 85.3488155,54.3450586 85.3488155,43.2117781 C85.3488155,32.0784976 80.9934338,21.6116309 73.0850616,13.7393967 C65.176867,5.86698582 54.6621876,1.53140909 43.4780502,1.53140909 M43.4780502,86.3935216 C31.8910311,86.3935216 20.9976074,81.9017652 12.8043784,73.7457927 C4.61132691,65.5898203 0.0990520992,54.7459316 0.0990520992,43.2117781 C0.0990520992,31.6776246 4.61132691,20.8337359 12.8043784,12.6777634 C20.9976074,4.52179099 31.8910311,0.0300345576 43.4780502,0.0300345576 C55.0650693,0.0300345576 65.9584929,4.52179099 74.1517219,12.6777634 C82.3447735,20.8337359 86.8570483,31.6776246 86.8570483,43.2117781 C86.8570483,54.7459316 82.3447735,65.5898203 74.1517219,73.7457927 C65.9584929,81.9017652 55.0650693,86.3935216 43.4780502,86.3935216" id="Fill-3" fill="#000000"></path>
                        <path d="M43.4780502,8.06989695 C24.0122983,8.06989695 8.17567615,23.8345062 8.17567615,43.2117428 C8.17567615,62.5889793 24.0122983,78.3535886 43.4780502,78.3535886 C62.9438021,78.3535886 78.7804242,62.5889793 78.7804242,43.2117428 C78.7804242,23.8345062 62.9438021,8.06989695 43.4780502,8.06989695 M43.4780502,78.6825553 C23.8300254,78.6825553 7.84520668,62.7704233 7.84520668,43.2117428 C7.84520668,23.6530622 23.8300254,7.74110688 43.4780502,7.74110688 C63.126075,7.74110688 79.1108937,23.6530622 79.1108937,43.2117428 C79.1108937,62.7704233 63.126075,78.6825553 43.4780502,78.6825553" id="Fill-5" fill="#FFFFFF"></path>
                        <polygon id="Fill-7" fill="#FFFFFF" points="22.79233 64.6405516 21.2580074 63.0605572 21.9223185 62.4211744 23.456641 64.0013455"></polygon>
                        <path d="M28.3018523,65.5037271 C28.3300718,65.2975487 28.2399115,65.1208748 28.0313714,64.9738822 C27.9161863,64.8927889 27.7995813,64.8567474 27.681379,64.8655811 C27.5629992,64.8744148 27.4334382,64.9328938 27.2928733,65.0406649 C27.1523084,65.1482593 26.9943504,65.3076191 26.8189992,65.5180377 C26.6434706,65.7286329 26.4413198,65.9950571 26.2120145,66.3171336 C25.9676233,66.6607643 25.7816233,66.9466226 25.6543695,67.1750619 C25.5267607,67.4036779 25.4461844,67.5934256 25.4122855,67.7446584 C25.3780317,67.8957146 25.3842435,68.0176196 25.4300336,68.11055 C25.4758237,68.2033038 25.5477034,68.2842204 25.6458504,68.3532999 C25.7266042,68.4103656 25.81215,68.4499405 25.9021328,68.4718481 C25.9917607,68.4939323 26.0918599,68.4813885 26.2017206,68.4349232 C26.3115813,68.3882813 26.4349305,68.3001211 26.5719458,68.1707958 C26.7087836,68.0412939 26.8647893,67.8536662 27.0397855,67.6075595 L27.9596691,68.256306 C27.7846729,68.502236 27.5995603,68.7220183 27.4043313,68.9152995 C27.2092798,69.1087574 27.0007397,69.2513332 26.7787111,69.3430269 C26.5566824,69.4348973 26.3176156,69.460515 26.0618656,69.4202334 C25.8059382,69.3795984 25.5267607,69.2530999 25.2245107,69.0398546 C24.8794878,68.7967513 24.6441481,68.5476412 24.5181366,68.2934075 C24.3919477,68.0391738 24.3486424,67.7697461 24.3878656,67.4854779 C24.4270889,67.2010329 24.5332225,66.9036908 24.7064439,66.5927448 C24.8796653,66.2819755 25.0898027,65.9526554 25.3372111,65.6049612 C25.5816023,65.2616839 25.8229763,64.9558614 26.0616882,64.6882005 C26.3002225,64.4201863 26.5476309,64.2207215 26.8042683,64.0894528 C27.0605508,63.9583608 27.3324515,63.9065953 27.6197931,63.9339798 C27.9071347,63.9615409 28.2235832,64.0970498 28.5684286,64.3403297 C28.8964134,64.5715958 29.1173771,64.807102 29.2314973,65.0464951 C29.3456176,65.2862416 29.3914076,65.5206878 29.369045,65.7500105 C29.346505,65.9791565 29.2799496,66.1964653 29.1692015,66.4015837 C29.058276,66.6067021 28.9439782,66.7920329 28.8263084,66.9573997 L27.9064248,66.3088299 C28.1417645,65.9780964 28.2734553,65.7097288 28.3018523,65.5037271" id="Fill-9" fill="#FFFFFF"></path>
                        <polygon id="Fill-11" fill="#FFFFFF" points="32.6640137 66.8156719 31.8254164 68.7725117 33.0351263 69.2862793 33.8737237 67.3294395 34.9105672 67.7697108 32.7174355 72.8877761 31.680592 72.4475048 32.6542523 70.1753022 31.4445424 69.6613579 30.4708821 71.9337372 29.4338611 71.4934659 31.6269927 66.3754006"></polygon>
                        <polygon id="Fill-13" fill="#FFFFFF" points="39.7776263 69.8579429 37.8198344 69.4697904 37.562842 70.7536794 39.4056263 71.1192177 39.2253057 72.0209611 37.3825214 71.6557762 37.0891454 73.1230527 39.1236092 73.5265758 38.9432885 74.4283192 35.8029412 73.8058972 36.8946263 68.3487947 39.9581244 68.9560228"></polygon>
                        <path d="M44.1215782,70.1236604 C44.021834,69.9409796 43.8443531,69.851406 43.5886031,69.8554695 C43.4476832,69.8577662 43.3321431,69.8975179 43.2421603,69.9740176 C43.152,70.0510475 43.08225,70.1741891 43.0329103,70.3437961 C42.9833931,70.5135796 42.9503817,70.734952 42.9342309,71.0079131 C42.9177252,71.2810509 42.9125782,71.6149645 42.919145,72.0098306 C42.9260668,72.4304911 42.9457672,72.7704116 42.9787786,73.0297689 C43.0116126,73.2891261 43.059355,73.489651 43.1216508,73.6313434 C43.1839466,73.7733892 43.2611508,73.8682631 43.3534408,73.9161417 C43.445376,73.9640203 43.5515095,73.9869879 43.6716641,73.9850445 C43.770521,73.9834544 43.863166,73.9650803 43.9485344,73.9299222 C44.0342576,73.8949408 44.1073798,73.826038 44.1684332,73.7237438 C44.2293092,73.6214497 44.2765191,73.4778138 44.310063,73.2926596 C44.3436069,73.1078587 44.3579828,72.8647555 44.3531908,72.5633499 L45.4801947,72.5451525 C45.4851641,72.8463814 45.4663511,73.1325931 45.4237557,73.4032574 C45.3813378,73.6744518 45.2975668,73.9119015 45.1731527,74.1168432 C45.0485611,74.3214315 44.8710802,74.4827348 44.6407099,74.6007529 C44.4103397,74.7187711 44.110042,74.7807836 43.7394618,74.7867905 C43.3167023,74.7936808 42.9791336,74.7314916 42.7264008,74.6003996 C42.4736679,74.4694842 42.2787939,74.2777931 42.1416011,74.0253261 C42.0042309,73.7730358 41.9133607,73.4703935 41.868458,73.1177525 C41.8235553,72.7652881 41.7974656,72.3760756 41.7905439,71.9499382 C41.7837996,71.5292777 41.7969332,71.1405952 41.8304771,70.7840673 C41.863666,70.4278928 41.9447748,70.1210103 42.0738034,69.8643032 C42.2026546,69.6077727 42.3913168,69.4060112 42.6392576,69.2590185 C42.8875534,69.1120258 43.2229924,69.0353494 43.6455744,69.0284591 C44.0473912,69.0220988 44.365437,69.0819913 44.5998893,69.2077831 C44.8341641,69.3341049 45.0104027,69.4961148 45.1284275,69.6941662 C45.2464523,69.8923943 45.3218817,70.1068764 45.3541832,70.3376125 C45.3866622,70.5683485 45.4045878,70.7849507 45.4079599,70.9875956 L44.2806011,71.0056164 C44.2740344,70.6005032 44.221145,70.3065179 44.1215782,70.1236604" id="Fill-15" fill="#FFFFFF"></path>
                        <polygon id="Fill-17" fill="#FFFFFF" points="48.9182485 70.8534648 48.9335118 70.850108 49.852863 68.3719037 51.0464221 68.1150199 50.0685023 70.7653046 52.3965195 73.5171767 51.1568153 73.784131 49.5472408 71.7944299 49.275695 72.4988286 49.6265748 74.1136277 48.5245958 74.3509007 47.3431053 68.912349 48.4449069 68.675076"></polygon>
                        <polygon id="Fill-19" fill="#FFFFFF" points="55.8802214 67.1139857 54.0550076 67.9187352 54.5876279 69.1158773 56.3054656 68.3582998 56.6797729 69.1990907 54.9617576 69.9566683 55.5705172 71.324654 57.4672557 70.4882799 57.841563 71.3288942 54.9140153 72.6198502 52.6502462 67.5323495 55.5062691 66.2731948"></polygon>
                        <path d="M61.3398361,68.199046 C61.5004563,68.0835013 61.6097845,67.9635397 61.6676433,67.8386313 C61.7251471,67.7140762 61.7366834,67.5679669 61.7024296,67.4004801 C61.6679983,67.2329932 61.5854697,67.0393587 61.4546662,66.8190464 C61.3242177,66.5990874 61.1476242,66.3351367 60.9245307,66.0275474 C60.7383532,65.7706636 60.5665517,65.5514114 60.4093036,65.3694373 C60.2518781,65.1879932 60.1001319,65.0519543 59.9540651,64.9613207 C59.8079983,64.8708636 59.6594468,64.8302286 59.508588,64.8390623 C59.3573742,64.848426 59.1951567,64.9152088 59.0215803,65.0397638 L58.634317,65.3178485 L60.9334048,68.4907345 L61.3398361,68.199046 Z M58.7329964,64.2284774 C59.0505097,64.0005682 59.3438857,63.8684161 59.6133017,63.8316679 C59.8828952,63.7952731 60.14113,63.8339647 60.3880059,63.948096 C60.6348819,64.0625807 60.8750135,64.2408446 61.108401,64.4830645 C61.3421433,64.7252844 61.5794353,65.0130861 61.8206319,65.345763 C62.1076185,65.7418658 62.3328418,66.1038706 62.4964792,66.4316006 C62.6597616,66.7595073 62.7509868,67.0607362 62.7701548,67.3352874 C62.7887903,67.6100153 62.7325288,67.8651323 62.6006605,68.1006386 C62.4687922,68.3363216 62.2506681,68.5635242 61.9459334,68.7822464 L60.5046109,69.8172019 L57.234525,65.3044213 L58.7329964,64.2284774 Z" id="Fill-21" fill="#FFFFFF"></path>
                        <polygon id="Fill-23" fill="#FFFFFF" points="65.9690708 62.7561481 64.4565784 64.3568133 63.7837483 63.7266177 65.2962406 62.1261291"></polygon>
                    </g>
                    <g id="Group-148" transform="translate(25.202290, 22.054199)">
                        <mask id="mask-2" fill="white">
                            <use xlink:href="#path-1"></use>
                        </mask>
                        <g id="Clip-27"></g>
                        <polygon id="Fill-26" fill="#C33F72" mask="url(#mask-2)" points="14.2504752 20.6948702 19.7412023 20.6948702 19.7412023 15.2291108 14.2504752 15.2291108"></polygon>
                        <polygon id="Fill-28" fill="#FFFFFF" mask="url(#mask-2)" points="8.75992557 20.6948702 14.2506527 20.6948702 14.2506527 15.2291108 8.75992557 15.2291108"></polygon>
                        <polygon id="Fill-29" fill="#FFFFFF" mask="url(#mask-2)" points="8.75989008 15.2291461 8.75989008 15.6044014 13.8734702 15.6044014 13.8734702 20.3194736 9.13703702 20.3194736 9.13703702 15.2291461 8.75989008 15.2291461 8.75989008 15.6044014 8.75989008 15.2291461 8.38274313 15.2291461 8.38274313 21.0701609 14.6275866 21.0701609 14.6275866 14.8538908 8.38274313 14.8538908 8.38274313 15.2291461"></polygon>
                        <polygon id="Fill-30" fill="#C33F72" mask="url(#mask-2)" points="3.26884351 20.6948702 8.75957061 20.6948702 8.75957061 15.2291108 3.26884351 15.2291108"></polygon>
                        <polygon id="Fill-31" fill="#FFFFFF" mask="url(#mask-2)" points="-2.22170611 20.6948702 3.26902099 20.6948702 3.26902099 15.2291108 -2.22170611 15.2291108"></polygon>
                        <polygon id="Fill-32" fill="#FFFFFF" mask="url(#mask-2)" points="-2.2217416 15.2291461 -2.2217416 15.6044014 2.89183855 15.6044014 2.89183855 20.3194736 -1.84459466 20.3194736 -1.84459466 15.2291461 -2.2217416 15.2291461 -2.2217416 15.6044014 -2.2217416 15.2291461 -2.59888855 15.2291461 -2.59888855 21.0701609 3.64613244 21.0701609 3.64613244 14.8538908 -2.59888855 14.8538908 -2.59888855 15.2291461"></polygon>
                        <polygon id="Fill-33" fill="#C33F72" mask="url(#mask-2)" points="-2.22170611 4.29670848 3.26902099 4.29670848 3.26902099 -1.16905099 -2.22170611 -1.16905099"></polygon>
                        <polygon id="Fill-34" fill="#FFFFFF" mask="url(#mask-2)" points="3.26884351 4.29670848 8.75957061 4.29670848 8.75957061 -1.16905099 3.26884351 -1.16905099"></polygon>
                        <polygon id="Fill-35" fill="#FFFFFF" mask="url(#mask-2)" points="8.7596416 4.29676148 8.7596416 3.92150618 3.64606145 3.92150618 3.64606145 -0.793742688 8.38249466 -0.793742688 8.38249466 4.29676148 8.7596416 4.29676148 8.7596416 3.92150618 8.7596416 4.29676148 9.13678855 4.29676148 9.13678855 -1.54442995 2.89176756 -1.54442995 2.89176756 4.67201678 9.13678855 4.67201678 9.13678855 4.29676148"></polygon>
                        <polygon id="Fill-36" fill="#C33F72" mask="url(#mask-2)" points="8.75974809 4.29670848 14.2504752 4.29670848 14.2504752 -1.16905099 8.75974809 -1.16905099"></polygon>
                        <polygon id="Fill-37" fill="#FFFFFF" mask="url(#mask-2)" points="14.2504752 4.29670848 19.7412023 4.29670848 19.7412023 -1.16905099 14.2504752 -1.16905099"></polygon>
                        <polygon id="Fill-38" fill="#FFFFFF" mask="url(#mask-2)" points="19.7411845 4.29676148 19.7411845 3.92150618 14.6276044 3.92150618 14.6276044 -0.793742688 19.3640376 -0.793742688 19.3640376 4.29676148 19.7411845 4.29676148 19.7411845 3.92150618 19.7411845 4.29676148 20.1183315 4.29676148 20.1183315 -1.54442995 13.873488 -1.54442995 13.873488 4.67201678 20.1183315 4.67201678 20.1183315 4.29676148"></polygon>
                        <polygon id="Fill-39" fill="#C33F72" mask="url(#mask-2)" points="14.2504752 9.76335131 19.7412023 9.76335131 19.7412023 4.29759185 14.2504752 4.29759185"></polygon>
                        <polygon id="Fill-40" fill="#FFFFFF" mask="url(#mask-2)" points="8.75992557 9.76335131 14.2506527 9.76335131 14.2506527 4.29759185 8.75992557 4.29759185"></polygon>
                        <polygon id="Fill-41" fill="#FFFFFF" mask="url(#mask-2)" points="8.75989008 4.29762718 8.75989008 4.67288248 13.8734702 4.67288248 13.8734702 9.38795468 9.13703702 9.38795468 9.13703702 4.29762718 8.75989008 4.29762718 8.75989008 4.67288248 8.75989008 4.29762718 8.38274313 4.29762718 8.38274313 10.1388186 14.6275866 10.1388186 14.6275866 3.92219521 8.38274313 3.92219521 8.38274313 4.29762718"></polygon>
                        <polygon id="Fill-42" fill="#C33F72" mask="url(#mask-2)" points="3.26884351 9.76335131 8.75957061 9.76335131 8.75957061 4.29759185 3.26884351 4.29759185"></polygon>
                        <polygon id="Fill-43" fill="#FFFFFF" mask="url(#mask-2)" points="-2.22170611 9.76335131 3.26902099 9.76335131 3.26902099 4.29759185 -2.22170611 4.29759185"></polygon>
                        <polygon id="Fill-44" fill="#FFFFFF" mask="url(#mask-2)" points="-2.2217416 4.29762718 -2.2217416 4.67288248 2.89183855 4.67288248 2.89183855 9.38795468 -1.84459466 9.38795468 -1.84459466 4.29762718 -2.2217416 4.29762718 -2.2217416 4.67288248 -2.2217416 4.29762718 -2.59888855 4.29762718 -2.59888855 10.1388186 3.64613244 10.1388186 3.64613244 3.92219521 -2.59888855 3.92219521 -2.59888855 4.29762718"></polygon>
                        <polygon id="Fill-45" fill="#C33F72" mask="url(#mask-2)" points="-2.22170611 15.2289341 3.26902099 15.2289341 3.26902099 9.76317464 -2.22170611 9.76317464"></polygon>
                        <polygon id="Fill-46" fill="#FFFFFF" mask="url(#mask-2)" points="3.26884351 15.2289341 8.75957061 15.2289341 8.75957061 9.76317464 3.26884351 9.76317464"></polygon>
                        <polygon id="Fill-47" fill="#FFFFFF" mask="url(#mask-2)" points="8.7596416 15.2289694 8.7596416 14.8535375 3.64606145 14.8535375 3.64606145 10.1386419 8.38249466 10.1386419 8.38249466 15.2289694 8.7596416 15.2289694 8.7596416 14.8535375 8.7596416 15.2289694 9.13678855 15.2289694 9.13678855 9.38795468 2.89176756 9.38795468 2.89176756 15.6042247 9.13678855 15.6042247 9.13678855 15.2289694"></polygon>
                        <polygon id="Fill-48" fill="#C33F72" mask="url(#mask-2)" points="8.75974809 15.2289341 14.2504752 15.2289341 14.2504752 9.76317464 8.75974809 9.76317464"></polygon>
                        <polygon id="Fill-49" fill="#FFFFFF" mask="url(#mask-2)" points="14.2504752 15.2289341 19.7412023 15.2289341 19.7412023 9.76317464 14.2504752 9.76317464"></polygon>
                        <polygon id="Fill-50" fill="#FFFFFF" mask="url(#mask-2)" points="19.7411845 15.2289694 19.7411845 14.8535375 14.6276044 14.8535375 14.6276044 10.1386419 19.3640376 10.1386419 19.3640376 15.2289694 19.7411845 15.2289694 19.7411845 14.8535375 19.7411845 15.2289694 20.1183315 15.2289694 20.1183315 9.38795468 13.873488 9.38795468 13.873488 15.6042247 20.1183315 15.6042247 20.1183315 15.2289694"></polygon>
                        <polygon id="Fill-51" fill="#FFFFFF" mask="url(#mask-2)" points="41.7374771 20.6948702 47.2282042 20.6948702 47.2282042 15.2291108 41.7374771 15.2291108"></polygon>
                        <polygon id="Fill-52" fill="#FFFFFF" mask="url(#mask-2)" points="41.7375481 15.2291461 41.7375481 15.6044014 46.8511282 15.6044014 46.8511282 20.3194736 42.114695 20.3194736 42.114695 15.2291461 41.7375481 15.2291461 41.7375481 15.6044014 41.7375481 15.2291461 41.3604011 15.2291461 41.3604011 21.0701609 47.6054221 21.0701609 47.6054221 14.8538908 41.3604011 14.8538908 41.3604011 15.2291461"></polygon>
                        <polygon id="Fill-53" fill="#C33F72" mask="url(#mask-2)" points="36.2336164 20.6948702 41.7243435 20.6948702 41.7243435 15.2291108 36.2336164 15.2291108"></polygon>
                        <polygon id="Fill-54" fill="#FFFFFF" mask="url(#mask-2)" points="30.7430668 20.6948702 36.2337939 20.6948702 36.2337939 15.2291108 30.7430668 15.2291108"></polygon>
                        <polygon id="Fill-55" fill="#FFFFFF" mask="url(#mask-2)" points="30.7430135 15.2291461 30.7430135 15.6044014 35.8565937 15.6044014 35.8565937 20.3194736 31.1201605 20.3194736 31.1201605 15.2291461 30.7430135 15.2291461 30.7430135 15.6044014 30.7430135 15.2291461 30.3658666 15.2291461 30.3658666 21.0701609 36.6108876 21.0701609 36.6108876 14.8538908 30.3658666 14.8538908 30.3658666 15.2291461"></polygon>
                        <polygon id="Fill-56" fill="#C33F72" mask="url(#mask-2)" points="25.2519847 20.6948702 30.7427118 20.6948702 30.7427118 15.2291108 25.2519847 15.2291108"></polygon>
                        <polygon id="Fill-57" fill="#FFFFFF" mask="url(#mask-2)" points="19.7614351 20.6948702 25.2521622 20.6948702 25.2521622 15.2291108 19.7614351 15.2291108"></polygon>
                        <polygon id="Fill-58" fill="#FFFFFF" mask="url(#mask-2)" points="19.7614529 15.2291461 19.7614529 15.6044014 24.875033 15.6044014 24.875033 20.3194736 20.1385998 20.3194736 20.1385998 15.2291461 19.7614529 15.2291461 19.7614529 15.6044014 19.7614529 15.2291461 19.3843059 15.2291461 19.3843059 21.0701609 25.6291494 21.0701609 25.6291494 14.8538908 19.3843059 14.8538908 19.3843059 15.2291461"></polygon>
                        <polygon id="Fill-59" fill="#C33F72" mask="url(#mask-2)" points="19.7614351 4.29670848 25.2521622 4.29670848 25.2521622 -1.16905099 19.7614351 -1.16905099"></polygon>
                        <polygon id="Fill-60" fill="#FFFFFF" mask="url(#mask-2)" points="25.2519847 4.29670848 30.7427118 4.29670848 30.7427118 -1.16905099 25.2519847 -1.16905099"></polygon>
                        <polygon id="Fill-61" fill="#FFFFFF" mask="url(#mask-2)" points="30.7427473 4.29676148 30.7427473 3.92150618 25.6291672 3.92150618 25.6291672 -0.793742688 30.3656004 -0.793742688 30.3656004 4.29676148 30.7427473 4.29676148 30.7427473 3.92150618 30.7427473 4.29676148 31.1198943 4.29676148 31.1198943 -1.54442995 24.8748733 -1.54442995 24.8748733 4.67201678 31.1198943 4.67201678 31.1198943 4.29676148"></polygon>
                        <polygon id="Fill-62" fill="#C33F72" mask="url(#mask-2)" points="30.7430668 4.29670848 36.2337939 4.29670848 36.2337939 -1.16905099 30.7430668 -1.16905099"></polygon>
                        <polygon id="Fill-63" fill="#FFFFFF" mask="url(#mask-2)" points="36.2336164 4.29670848 41.7243435 4.29670848 41.7243435 -1.16905099 36.2336164 -1.16905099"></polygon>
                        <polygon id="Fill-64" fill="#FFFFFF" mask="url(#mask-2)" points="41.724379 4.29676148 41.724379 3.92150618 36.6107989 3.92150618 36.6107989 -0.793742688 41.3472321 -0.793742688 41.3472321 4.29676148 41.724379 4.29676148 41.724379 3.92150618 41.724379 4.29676148 42.101526 4.29676148 42.101526 -1.54442995 35.856505 -1.54442995 35.856505 4.67201678 42.101526 4.67201678 42.101526 4.29676148"></polygon>
                        <polygon id="Fill-65" fill="#C33F72" mask="url(#mask-2)" points="41.7374771 4.29670848 47.2282042 4.29670848 47.2282042 -1.16905099 41.7374771 -1.16905099"></polygon>
                        <polygon id="Fill-66" fill="#FFFFFF" mask="url(#mask-2)" points="41.7374771 9.76335131 47.2282042 9.76335131 47.2282042 4.29759185 41.7374771 4.29759185"></polygon>
                        <polygon id="Fill-67" fill="#FFFFFF" mask="url(#mask-2)" points="41.7375481 4.29762718 41.7375481 4.67288248 46.8511282 4.67288248 46.8511282 9.38795468 42.114695 9.38795468 42.114695 4.29762718 41.7375481 4.29762718 41.7375481 4.67288248 41.7375481 4.29762718 41.3604011 4.29762718 41.3604011 10.1388186 47.6054221 10.1388186 47.6054221 3.92219521 41.3604011 3.92219521 41.3604011 4.29762718"></polygon>
                        <polygon id="Fill-68" fill="#C33F72" mask="url(#mask-2)" points="36.2336164 9.76335131 41.7243435 9.76335131 41.7243435 4.29759185 36.2336164 4.29759185"></polygon>
                        <polygon id="Fill-69" fill="#FFFFFF" mask="url(#mask-2)" points="30.7430668 9.76335131 36.2337939 9.76335131 36.2337939 4.29759185 30.7430668 4.29759185"></polygon>
                        <polygon id="Fill-70" fill="#FFFFFF" mask="url(#mask-2)" points="30.7430135 4.29762718 30.7430135 4.67288248 35.8565937 4.67288248 35.8565937 9.38795468 31.1201605 9.38795468 31.1201605 4.29762718 30.7430135 4.29762718 30.7430135 4.67288248 30.7430135 4.29762718 30.3658666 4.29762718 30.3658666 10.1388186 36.6108876 10.1388186 36.6108876 3.92219521 30.3658666 3.92219521 30.3658666 4.29762718"></polygon>
                        <polygon id="Fill-71" fill="#C33F72" mask="url(#mask-2)" points="25.2519847 9.76335131 30.7427118 9.76335131 30.7427118 4.29759185 25.2519847 4.29759185"></polygon>
                        <polygon id="Fill-72" fill="#FFFFFF" mask="url(#mask-2)" points="19.7614351 9.76335131 25.2521622 9.76335131 25.2521622 4.29759185 19.7614351 4.29759185"></polygon>
                        <polygon id="Fill-73" fill="#FFFFFF" mask="url(#mask-2)" points="19.7614529 4.29762718 19.7614529 4.67288248 24.875033 4.67288248 24.875033 9.38795468 20.1385998 9.38795468 20.1385998 4.29762718 19.7614529 4.29762718 19.7614529 4.67288248 19.7614529 4.29762718 19.3843059 4.29762718 19.3843059 10.1388186 25.6291494 10.1388186 25.6291494 3.92219521 19.3843059 3.92219521 19.3843059 4.29762718"></polygon>
                        <polygon id="Fill-74" fill="#C33F72" mask="url(#mask-2)" points="19.7614351 15.2289341 25.2521622 15.2289341 25.2521622 9.76317464 19.7614351 9.76317464"></polygon>
                        <polygon id="Fill-75" fill="#FFFFFF" mask="url(#mask-2)" points="25.2519847 15.2289341 30.7427118 15.2289341 30.7427118 9.76317464 25.2519847 9.76317464"></polygon>
                        <polygon id="Fill-76" fill="#FFFFFF" mask="url(#mask-2)" points="30.7427473 15.2289694 30.7427473 14.8535375 25.6291672 14.8535375 25.6291672 10.1386419 30.3656004 10.1386419 30.3656004 15.2289694 30.7427473 15.2289694 30.7427473 14.8535375 30.7427473 15.2289694 31.1198943 15.2289694 31.1198943 9.38795468 24.8748733 9.38795468 24.8748733 15.6042247 31.1198943 15.6042247 31.1198943 15.2289694"></polygon>
                        <polygon id="Fill-77" fill="#C33F72" mask="url(#mask-2)" points="30.7430668 15.2289341 36.2337939 15.2289341 36.2337939 9.76317464 30.7430668 9.76317464"></polygon>
                        <polygon id="Fill-78" fill="#FFFFFF" mask="url(#mask-2)" points="36.2336164 15.2289341 41.7243435 15.2289341 41.7243435 9.76317464 36.2336164 9.76317464"></polygon>
                        <polygon id="Fill-79" fill="#FFFFFF" mask="url(#mask-2)" points="41.724379 15.2289694 41.724379 14.8535375 36.6107989 14.8535375 36.6107989 10.1386419 41.3472321 10.1386419 41.3472321 15.2289694 41.724379 15.2289694 41.724379 14.8535375 41.724379 15.2289694 42.101526 15.2289694 42.101526 9.38795468 35.856505 9.38795468 35.856505 15.6042247 42.101526 15.6042247 42.101526 15.2289694"></polygon>
                        <polygon id="Fill-80" fill="#C33F72" mask="url(#mask-2)" points="41.7374771 15.2289341 47.2282042 15.2289341 47.2282042 9.76317464 41.7374771 9.76317464"></polygon>
                        <polygon id="Fill-81" fill="#C33F72" mask="url(#mask-2)" points="-2.22170611 26.0496785 3.26902099 26.0496785 3.26902099 20.5839191 -2.22170611 20.5839191"></polygon>
                        <polygon id="Fill-82" fill="#FFFFFF" mask="url(#mask-2)" points="3.26884351 26.0496785 8.75957061 26.0496785 8.75957061 20.5839191 3.26884351 20.5839191"></polygon>
                        <polygon id="Fill-83" fill="#FFFFFF" mask="url(#mask-2)" points="8.7596416 26.0497315 8.7596416 25.6744762 3.64606145 25.6744762 3.64606145 20.959404 8.38249466 20.959404 8.38249466 26.0497315 8.7596416 26.0497315 8.7596416 25.6744762 8.7596416 26.0497315 9.13678855 26.0497315 9.13678855 20.2085401 2.89176756 20.2085401 2.89176756 26.4249868 9.13678855 26.4249868 9.13678855 26.0497315"></polygon>
                        <polygon id="Fill-84" fill="#C33F72" mask="url(#mask-2)" points="8.75974809 26.0496785 14.2504752 26.0496785 14.2504752 20.5839191 8.75974809 20.5839191"></polygon>
                        <polygon id="Fill-85" fill="#FFFFFF" mask="url(#mask-2)" points="14.2504752 26.0496785 19.7412023 26.0496785 19.7412023 20.5839191 14.2504752 20.5839191"></polygon>
                        <polygon id="Fill-86" fill="#FFFFFF" mask="url(#mask-2)" points="19.7411845 26.0497315 19.7411845 25.6744762 14.6276044 25.6744762 14.6276044 20.959404 19.3640376 20.959404 19.3640376 26.0497315 19.7411845 26.0497315 19.7411845 25.6744762 19.7411845 26.0497315 20.1183315 26.0497315 20.1183315 20.2085401 13.873488 20.2085401 13.873488 26.4249868 20.1183315 26.4249868 20.1183315 26.0497315"></polygon>
                        <polygon id="Fill-87" fill="#C33F72" mask="url(#mask-2)" points="14.2504752 31.5156147 19.7412023 31.5156147 19.7412023 26.0498552 14.2504752 26.0498552"></polygon>
                        <polygon id="Fill-88" fill="#FFFFFF" mask="url(#mask-2)" points="8.75992557 31.5156147 14.2506527 31.5156147 14.2506527 26.0498552 8.75992557 26.0498552"></polygon>
                        <polygon id="Fill-89" fill="#FFFFFF" mask="url(#mask-2)" points="8.75989008 26.0499082 8.75989008 26.4251635 13.8734702 26.4251635 13.8734702 31.1402357 9.13703702 31.1402357 9.13703702 26.0499082 8.75989008 26.0499082 8.75989008 26.4251635 8.75989008 26.0499082 8.38274313 26.0499082 8.38274313 31.890923 14.6275866 31.890923 14.6275866 25.6744762 8.38274313 25.6744762 8.38274313 26.0499082"></polygon>
                        <polygon id="Fill-90" fill="#C33F72" mask="url(#mask-2)" points="3.26884351 31.5156147 8.75957061 31.5156147 8.75957061 26.0498552 3.26884351 26.0498552"></polygon>
                        <polygon id="Fill-91" fill="#FFFFFF" mask="url(#mask-2)" points="-2.22170611 31.5156147 3.26902099 31.5156147 3.26902099 26.0498552 -2.22170611 26.0498552"></polygon>
                        <polygon id="Fill-92" fill="#FFFFFF" mask="url(#mask-2)" points="-2.2217416 26.0499082 -2.2217416 26.4251635 2.89183855 26.4251635 2.89183855 31.1402357 -1.84459466 31.1402357 -1.84459466 26.0499082 -2.2217416 26.0499082 -2.2217416 26.4251635 -2.2217416 26.0499082 -2.59888855 26.0499082 -2.59888855 31.890923 3.64613244 31.890923 3.64613244 25.6744762 -2.59888855 25.6744762 -2.59888855 26.0499082"></polygon>
                        <polygon id="Fill-93" fill="#C33F72" mask="url(#mask-2)" points="-2.22170611 36.9819041 3.26902099 36.9819041 3.26902099 31.5161447 -2.22170611 31.5161447"></polygon>
                        <polygon id="Fill-94" fill="#FFFFFF" mask="url(#mask-2)" points="3.26884351 36.9819041 8.75957061 36.9819041 8.75957061 31.5161447 3.26884351 31.5161447"></polygon>
                        <polygon id="Fill-95" fill="#FFFFFF" mask="url(#mask-2)" points="8.7596416 36.9819395 8.7596416 36.6065075 3.64606145 36.6065075 3.64606145 31.891612 8.38249466 31.891612 8.38249466 36.9819395 8.7596416 36.9819395 8.7596416 36.6065075 8.7596416 36.9819395 9.13678855 36.9819395 9.13678855 31.1409247 2.89176756 31.1409247 2.89176756 37.3571948 9.13678855 37.3571948 9.13678855 36.9819395"></polygon>
                        <polygon id="Fill-96" fill="#C33F72" mask="url(#mask-2)" points="8.75974809 36.9819041 14.2504752 36.9819041 14.2504752 31.5161447 8.75974809 31.5161447"></polygon>
                        <polygon id="Fill-97" fill="#FFFFFF" mask="url(#mask-2)" points="14.2504752 36.9819041 19.7412023 36.9819041 19.7412023 31.5161447 14.2504752 31.5161447"></polygon>
                        <polygon id="Fill-98" fill="#FFFFFF" mask="url(#mask-2)" points="19.7411845 36.9819395 19.7411845 36.6065075 14.6276044 36.6065075 14.6276044 31.891612 19.3640376 31.891612 19.3640376 36.9819395 19.7411845 36.9819395 19.7411845 36.6065075 19.7411845 36.9819395 20.1183315 36.9819395 20.1183315 31.1409247 13.873488 31.1409247 13.873488 37.3571948 20.1183315 37.3571948 20.1183315 36.9819395"></polygon>
                        <polygon id="Fill-99" fill="#C33F72" mask="url(#mask-2)" points="-2.22170611 47.9134231 3.26902099 47.9134231 3.26902099 42.4476636 -2.22170611 42.4476636"></polygon>
                        <polygon id="Fill-100" fill="#FFFFFF" mask="url(#mask-2)" points="3.26884351 47.9134231 8.75957061 47.9134231 8.75957061 42.4476636 3.26884351 42.4476636"></polygon>
                        <polygon id="Fill-101" fill="#FFFFFF" mask="url(#mask-2)" points="8.7596416 47.9134761 8.7596416 47.5382208 3.64606145 47.5382208 3.64606145 42.8231486 8.38249466 42.8231486 8.38249466 47.9134761 8.7596416 47.9134761 8.7596416 47.5382208 8.7596416 47.9134761 9.13678855 47.9134761 9.13678855 42.0722846 2.89176756 42.0722846 2.89176756 48.2887314 9.13678855 48.2887314 9.13678855 47.9134761"></polygon>
                        <polygon id="Fill-102" fill="#C33F72" mask="url(#mask-2)" points="8.75974809 47.9134231 14.2504752 47.9134231 14.2504752 42.4476636 8.75974809 42.4476636"></polygon>
                        <polygon id="Fill-103" fill="#FFFFFF" mask="url(#mask-2)" points="14.2504752 47.9134231 19.7412023 47.9134231 19.7412023 42.4476636 14.2504752 42.4476636"></polygon>
                        <polygon id="Fill-104" fill="#FFFFFF" mask="url(#mask-2)" points="19.7411845 47.9134761 19.7411845 47.5382208 14.6276044 47.5382208 14.6276044 42.8231486 19.3640376 42.8231486 19.3640376 47.9134761 19.7411845 47.9134761 19.7411845 47.5382208 19.7411845 47.9134761 20.1183315 47.9134761 20.1183315 42.0722846 13.873488 42.0722846 13.873488 48.2887314 20.1183315 48.2887314 20.1183315 47.9134761"></polygon>
                        <polygon id="Fill-105" fill="#C33F72" mask="url(#mask-2)" points="14.2504752 42.7495992 19.7412023 42.7495992 19.7412023 36.9820808 14.2504752 36.9820808"></polygon>
                        <polygon id="Fill-106" fill="#FFFFFF" mask="url(#mask-2)" points="8.75992557 42.4478403 14.2506527 42.4478403 14.2506527 36.9820808 8.75992557 36.9820808"></polygon>
                        <polygon id="Fill-107" fill="#FFFFFF" mask="url(#mask-2)" points="8.75989008 36.9821161 8.75989008 37.3573714 13.8734702 37.3573714 13.8734702 42.0726203 9.13703702 42.0726203 9.13703702 36.9821161 8.75989008 36.9821161 8.75989008 37.3573714 8.75989008 36.9821161 8.38274313 36.9821161 8.38274313 42.8233076 14.6275866 42.8233076 14.6275866 36.6068609 8.38274313 36.6068609 8.38274313 36.9821161"></polygon>
                        <polygon id="Fill-108" fill="#C33F72" mask="url(#mask-2)" points="3.26884351 42.4478403 8.75957061 42.4478403 8.75957061 36.9820808 3.26884351 36.9820808"></polygon>
                        <polygon id="Fill-109" fill="#FFFFFF" mask="url(#mask-2)" points="-2.22170611 42.4478403 3.26902099 42.4478403 3.26902099 36.9820808 -2.22170611 36.9820808"></polygon>
                        <polygon id="Fill-110" fill="#FFFFFF" mask="url(#mask-2)" points="-2.2217416 36.9821161 -2.2217416 37.3573714 2.89183855 37.3573714 2.89183855 42.0724436 -1.84459466 42.0724436 -1.84459466 36.9821161 -2.2217416 36.9821161 -2.2217416 37.3573714 -2.2217416 36.9821161 -2.59888855 36.9821161 -2.59888855 42.8233076 3.64613244 42.8233076 3.64613244 36.6068609 -2.59888855 36.6068609 -2.59888855 36.9821161"></polygon>
                        <polygon id="Fill-111" fill="#C33F72" mask="url(#mask-2)" points="19.7614351 26.0496785 25.2521622 26.0496785 25.2521622 20.5839191 19.7614351 20.5839191"></polygon>
                        <polygon id="Fill-112" fill="#FFFFFF" mask="url(#mask-2)" points="25.2519847 26.0496785 30.7427118 26.0496785 30.7427118 20.5839191 25.2519847 20.5839191"></polygon>
                        <polygon id="Fill-113" fill="#FFFFFF" mask="url(#mask-2)" points="30.7427473 26.0497315 30.7427473 25.6744762 25.6291672 25.6744762 25.6291672 20.959404 30.3656004 20.959404 30.3656004 26.0497315 30.7427473 26.0497315 30.7427473 25.6744762 30.7427473 26.0497315 31.1198943 26.0497315 31.1198943 20.2085401 24.8748733 20.2085401 24.8748733 26.4249868 31.1198943 26.4249868 31.1198943 26.0497315"></polygon>
                        <polygon id="Fill-114" fill="#C33F72" mask="url(#mask-2)" points="30.7430668 26.0496785 36.2337939 26.0496785 36.2337939 20.5839191 30.7430668 20.5839191"></polygon>
                        <polygon id="Fill-115" fill="#FFFFFF" mask="url(#mask-2)" points="36.2336164 26.0496785 41.7243435 26.0496785 41.7243435 20.5839191 36.2336164 20.5839191"></polygon>
                        <polygon id="Fill-116" fill="#FFFFFF" mask="url(#mask-2)" points="41.724379 26.0497315 41.724379 25.6744762 36.6107989 25.6744762 36.6107989 20.959404 41.3472321 20.959404 41.3472321 26.0497315 41.724379 26.0497315 41.724379 25.6744762 41.724379 26.0497315 42.101526 26.0497315 42.101526 20.2085401 35.856505 20.2085401 35.856505 26.4249868 42.101526 26.4249868 42.101526 26.0497315"></polygon>
                        <polygon id="Fill-117" fill="#C33F72" mask="url(#mask-2)" points="41.7374771 26.0496785 47.2282042 26.0496785 47.2282042 20.5839191 41.7374771 20.5839191"></polygon>
                        <polygon id="Fill-118" fill="#FFFFFF" mask="url(#mask-2)" points="41.7374771 31.5156147 47.2282042 31.5156147 47.2282042 26.0498552 41.7374771 26.0498552"></polygon>
                        <polygon id="Fill-119" fill="#FFFFFF" mask="url(#mask-2)" points="41.7375481 26.0499082 41.7375481 26.4251635 46.8511282 26.4251635 46.8511282 31.1402357 42.114695 31.1402357 42.114695 26.0499082 41.7375481 26.0499082 41.7375481 26.4251635 41.7375481 26.0499082 41.3604011 26.0499082 41.3604011 31.890923 47.6054221 31.890923 47.6054221 25.6744762 41.3604011 25.6744762 41.3604011 26.0499082"></polygon>
                        <polygon id="Fill-120" fill="#C33F72" mask="url(#mask-2)" points="36.2336164 31.5156147 41.7243435 31.5156147 41.7243435 26.0498552 36.2336164 26.0498552"></polygon>
                        <polygon id="Fill-121" fill="#FFFFFF" mask="url(#mask-2)" points="30.7430668 31.5156147 36.2337939 31.5156147 36.2337939 26.0498552 30.7430668 26.0498552"></polygon>
                        <polygon id="Fill-122" fill="#FFFFFF" mask="url(#mask-2)" points="30.7430135 26.0499082 30.7430135 26.4251635 35.8565937 26.4251635 35.8565937 31.1402357 31.1201605 31.1402357 31.1201605 26.0499082 30.7430135 26.0499082 30.7430135 26.4251635 30.7430135 26.0499082 30.3658666 26.0499082 30.3658666 31.890923 36.6108876 31.890923 36.6108876 25.6744762 30.3658666 25.6744762 30.3658666 26.0499082"></polygon>
                        <polygon id="Fill-123" fill="#C33F72" mask="url(#mask-2)" points="25.2519847 31.5156147 30.7427118 31.5156147 30.7427118 26.0498552 25.2519847 26.0498552"></polygon>
                        <polygon id="Fill-124" fill="#FFFFFF" mask="url(#mask-2)" points="19.7614351 31.5156147 25.2521622 31.5156147 25.2521622 26.0498552 19.7614351 26.0498552"></polygon>
                        <polygon id="Fill-125" fill="#FFFFFF" mask="url(#mask-2)" points="19.7614529 26.0499082 19.7614529 26.4251635 24.875033 26.4251635 24.875033 31.1402357 20.1385998 31.1402357 20.1385998 26.0499082 19.7614529 26.0499082 19.7614529 26.4251635 19.7614529 26.0499082 19.3843059 26.0499082 19.3843059 31.890923 25.6291494 31.890923 25.6291494 25.6744762 19.3843059 25.6744762 19.3843059 26.0499082"></polygon>
                        <polygon id="Fill-126" fill="#C33F72" mask="url(#mask-2)" points="19.7614351 36.9819041 25.2521622 36.9819041 25.2521622 31.5161447 19.7614351 31.5161447"></polygon>
                        <polygon id="Fill-127" fill="#FFFFFF" mask="url(#mask-2)" points="25.2519847 36.9819041 30.7427118 36.9819041 30.7427118 31.5161447 25.2519847 31.5161447"></polygon>
                        <polygon id="Fill-128" fill="#FFFFFF" mask="url(#mask-2)" points="30.7427473 36.9819395 30.7427473 36.6065075 25.6291672 36.6065075 25.6291672 31.891612 30.3656004 31.891612 30.3656004 36.9819395 30.7427473 36.9819395 30.7427473 36.6065075 30.7427473 36.9819395 31.1198943 36.9819395 31.1198943 31.1409247 24.8748733 31.1409247 24.8748733 37.3571948 31.1198943 37.3571948 31.1198943 36.9819395"></polygon>
                        <polygon id="Fill-129" fill="#C33F72" mask="url(#mask-2)" points="30.7430668 36.9819041 36.2337939 36.9819041 36.2337939 31.5161447 30.7430668 31.5161447"></polygon>
                        <polygon id="Fill-130" fill="#FFFFFF" mask="url(#mask-2)" points="36.2336164 36.9819041 41.7243435 36.9819041 41.7243435 31.5161447 36.2336164 31.5161447"></polygon>
                        <polygon id="Fill-131" fill="#FFFFFF" mask="url(#mask-2)" points="41.724379 36.9819395 41.724379 36.6065075 36.6107989 36.6065075 36.6107989 31.891612 41.3472321 31.891612 41.3472321 36.9819395 41.724379 36.9819395 41.724379 36.6065075 41.724379 36.9819395 42.101526 36.9819395 42.101526 31.1409247 35.856505 31.1409247 35.856505 37.3571948 42.101526 37.3571948 42.101526 36.9819395"></polygon>
                        <polygon id="Fill-132" fill="#C33F72" mask="url(#mask-2)" points="41.7374771 36.9819041 47.2282042 36.9819041 47.2282042 31.5161447 41.7374771 31.5161447"></polygon>
                        <polygon id="Fill-133" fill="#C33F72" mask="url(#mask-2)" points="19.7614351 47.9134231 25.2521622 47.9134231 25.2521622 42.4476636 19.7614351 42.4476636"></polygon>
                        <polygon id="Fill-134" fill="#FFFFFF" mask="url(#mask-2)" points="25.2519847 47.9134231 30.7427118 47.9134231 30.7427118 42.4476636 25.2519847 42.4476636"></polygon>
                        <polygon id="Fill-135" fill="#FFFFFF" mask="url(#mask-2)" points="30.7427473 47.9134761 30.7427473 47.5382208 25.6291672 47.5382208 25.6291672 42.8231486 30.3656004 42.8231486 30.3656004 47.9134761 30.7427473 47.9134761 30.7427473 47.5382208 30.7427473 47.9134761 31.1198943 47.9134761 31.1198943 42.0722846 24.8748733 42.0722846 24.8748733 48.2887314 31.1198943 48.2887314 31.1198943 47.9134761"></polygon>
                        <polygon id="Fill-136" fill="#C33F72" mask="url(#mask-2)" points="30.7430668 47.9134231 36.2337939 47.9134231 36.2337939 42.4476636 30.7430668 42.4476636"></polygon>
                        <polygon id="Fill-137" fill="#FFFFFF" mask="url(#mask-2)" points="36.2336164 47.9134231 41.7243435 47.9134231 41.7243435 42.4476636 36.2336164 42.4476636"></polygon>
                        <polygon id="Fill-138" fill="#FFFFFF" mask="url(#mask-2)" points="41.724379 47.9134761 41.724379 47.5382208 36.6107989 47.5382208 36.6107989 42.8231486 41.3472321 42.8231486 41.3472321 47.9134761 41.724379 47.9134761 41.724379 47.5382208 41.724379 47.9134761 42.101526 47.9134761 42.101526 42.0722846 35.856505 42.0722846 35.856505 48.2887314 42.101526 48.2887314 42.101526 47.9134761"></polygon>
                        <polygon id="Fill-139" fill="#C33F72" mask="url(#mask-2)" points="41.7374771 47.9134231 47.2282042 47.9134231 47.2282042 42.4476636 41.7374771 42.4476636"></polygon>
                        <polygon id="Fill-140" fill="#FFFFFF" mask="url(#mask-2)" points="41.7374771 42.4478403 47.2282042 42.4478403 47.2282042 36.9820808 41.7374771 36.9820808"></polygon>
                        <polygon id="Fill-141" fill="#FFFFFF" mask="url(#mask-2)" points="41.7375481 36.9821161 41.7375481 37.3573714 46.8511282 37.3573714 46.8511282 42.0724436 42.114695 42.0724436 42.114695 36.9821161 41.7375481 36.9821161 41.7375481 37.3573714 41.7375481 36.9821161 41.3604011 36.9821161 41.3604011 42.8233076 47.6054221 42.8233076 47.6054221 36.6068609 41.3604011 36.6068609 41.3604011 36.9821161"></polygon>
                        <polygon id="Fill-142" fill="#C33F72" mask="url(#mask-2)" points="36.2336164 42.4478403 41.7243435 42.4478403 41.7243435 36.9820808 36.2336164 36.9820808"></polygon>
                        <polygon id="Fill-143" fill="#FFFFFF" mask="url(#mask-2)" points="30.7430668 42.4478403 36.2337939 42.4478403 36.2337939 36.9820808 30.7430668 36.9820808"></polygon>
                        <polygon id="Fill-144" fill="#FFFFFF" mask="url(#mask-2)" points="30.7430135 36.9821161 30.7430135 37.3573714 35.8565937 37.3573714 35.8565937 42.0724436 31.1201605 42.0724436 31.1201605 36.9821161 30.7430135 36.9821161 30.7430135 37.3573714 30.7430135 36.9821161 30.3658666 36.9821161 30.3658666 42.8233076 36.6108876 42.8233076 36.6108876 36.6068609 30.3658666 36.6068609 30.3658666 36.9821161"></polygon>
                        <polygon id="Fill-145" fill="#C33F72" mask="url(#mask-2)" points="25.2519847 42.4478403 30.7427118 42.4478403 30.7427118 36.9820808 25.2519847 36.9820808"></polygon>
                        <polygon id="Fill-146" fill="#FFFFFF" mask="url(#mask-2)" points="19.7614351 42.4478403 25.2521622 42.4478403 25.2521622 36.9820808 19.7614351 36.9820808"></polygon>
                        <polygon id="Fill-147" fill="#FFFFFF" mask="url(#mask-2)" points="19.7614529 36.9821161 19.7614529 37.3573714 24.875033 37.3573714 24.875033 42.0726203 20.1385998 42.0726203 20.1385998 36.9821161 19.7614529 36.9821161 19.7614529 37.3573714 19.7614529 36.9821161 19.3843059 36.9821161 19.3843059 42.8233076 25.6291494 42.8233076 25.6291494 36.6068609 19.3843059 36.6068609 19.3843059 36.9821161"></polygon>
                    </g>
                    <g id="Group-166" transform="translate(0.000000, 12.160462)">
                        <path d="M67.7706618,31.197955 L68.1478088,31.197955 C68.1478088,19.2938465 58.4536237,9.64409645 46.495137,9.64409645 C34.5366504,9.64409645 24.8426427,19.2938465 24.8426427,31.197955 C24.8426427,43.1020636 34.5366504,52.7518136 46.495137,52.7518136 C58.4536237,52.7518136 68.1478088,43.1020636 68.1478088,31.197955 L67.7706618,31.197955 L67.3935149,31.197955 C67.3935149,36.9437426 65.0550263,42.1421945 61.2725531,45.9081747 C57.4895473,49.6732715 52.2673489,52.0009497 46.495137,52.001303 C40.7231027,52.0009497 35.5009042,49.6732715 31.7178985,45.9081747 C27.9354252,42.1421945 25.5969366,36.9437426 25.5967592,31.197955 C25.5969366,25.4521675 27.9354252,20.2537156 31.7178985,16.4877354 C35.5009042,12.7226386 40.7231027,10.3949604 46.495137,10.394607 C52.2673489,10.3949604 57.4895473,12.7226386 61.2725531,16.4877354 C65.0550263,20.2537156 67.3935149,25.4521675 67.3935149,31.197955 L67.7706618,31.197955 Z" id="Fill-149" fill="#FFFFFF"></path>
                        <g id="Group-153" transform="translate(0.000000, 20.140821)">
                            <mask id="mask-4" fill="white">
                                <use xlink:href="#path-3"></use>
                            </mask>
                            <g id="Clip-152"></g>
                            <path d="M90.6844952,22.0466197 L2.3059208,22.0466197 C1.03231775,22.0466197 -8.8740458e-05,21.1074214 -8.8740458e-05,19.9487942 L-8.8740458e-05,2.16550927 C-8.8740458e-05,1.00688204 1.03231775,0.067683759 2.3059208,0.067683759 L90.6844952,0.067683759 C91.9579208,0.067683759 92.9903273,1.00688204 92.9903273,2.16550927 L92.9903273,11.0605085 L92.9903273,19.9487942 C92.9903273,21.1074214 91.9579208,22.0466197 90.6844952,22.0466197" id="Fill-151" fill="#FF4722" mask="url(#mask-4)"></path>
                        </g>
                        <path d="M56.5009609,30.4582922 C56.5009609,29.8178494 56.3263197,29.5189173 55.8196116,29.5189173 C55.4564857,29.5480685 55.1103979,29.6770404 54.8241212,29.8904624 L54.2558273,32.8617635 C54.5163693,33.117764 54.8752357,33.2629899 55.2511403,33.2649333 C55.9482853,33.2626365 56.5009609,32.113903 56.5009609,30.4586456 L56.5009609,30.4582922 Z M59.3607109,30.0093639 C59.3607109,33.2334853 57.9543521,35.4689398 55.8840372,35.4689398 C55.1648845,35.456926 54.4718216,35.2159428 53.9166613,34.7845052 L53.5205239,36.9378063 C53.5038406,37.0423973 53.4174074,37.1247273 53.3070143,37.1413346 L50.9179437,37.5399109 C50.8325754,37.5565182 50.7441899,37.5314305 50.6827815,37.4731282 C50.6219055,37.4148258 50.5959933,37.3310824 50.6140964,37.2510491 L52.393875,27.6790356 C52.4141078,27.5604874 52.5236135,27.4733872 52.6512223,27.4753306 L54.9655735,27.4753306 C55.0431326,27.4739172 55.1178521,27.5053652 55.1673693,27.5617242 C55.2174189,27.6173764 55.2374742,27.6919328 55.2227433,27.7640157 L55.179083,28.0258464 C55.6811765,27.5956455 56.3257872,27.3430019 57.0026994,27.3101406 C58.4919418,27.3101406 59.3612433,28.2352049 59.3612433,30.0093639 L59.3607109,30.0093639 Z M75.3707319,27.9122451 L74.4244036,30.0968175 C74.3938769,30.1727873 74.3251918,30.2286162 74.2412433,30.2468136 C74.1578273,30.2648343 74.0699742,30.2420434 74.0076784,30.1865678 C73.709688,29.9325108 73.3238445,29.7886983 72.9227376,29.781278 C72.2561193,29.781278 71.9066594,30.0945207 71.7314857,31.0556266 L70.9755945,35.1436832 C70.9558941,35.2634681 70.8463884,35.351805 70.7182471,35.3501075 L68.4033635,35.3501075 C68.324917,35.351805 68.2498426,35.3196504 68.1997929,35.2620547 C68.1495658,35.2048124 68.1300429,35.1290193 68.1467261,35.0562296 L69.5328521,27.6811557 C69.55202,27.5617242 69.6615258,27.4739172 69.7900219,27.4753306 L72.1045506,27.4753306 C72.1845945,27.4730339 72.2605563,27.5062486 72.3107834,27.5645509 C72.361188,27.6228533 72.3798235,27.7002365 72.3617204,27.7739095 L72.328354,27.9413963 C72.80702,27.5516537 73.41223,27.3290447 74.0438845,27.3101406 C74.472501,27.2998935 74.895083,27.4050144 75.262646,27.6136663 C75.3717968,27.6742654 75.4174094,27.8011172 75.3707319,27.9122451 L75.3707319,27.9122451 Z M65.2530773,30.5045808 C65.2686956,29.7109618 65.0164952,29.3054952 64.1732834,29.3054952 C63.5222834,29.3054952 63.1570277,29.7252723 62.9179609,30.5045808 L65.2530773,30.5045808 Z M67.7014265,30.4754296 C67.7014265,30.9890205 67.6346937,31.5011981 67.5037128,32.0003017 C67.474251,32.1110763 67.36723,32.1881061 67.2463655,32.1847493 L62.6323941,32.1847493 C62.568501,33.0561048 63.2061899,33.3986754 63.9821365,33.4444339 C64.9147987,33.520227 65.8510105,33.3573337 66.6933349,32.9737748 C66.7826078,32.930313 66.8906937,32.9400301 66.9696727,32.9983324 C67.0481193,33.0566348 67.0845029,33.1534521 67.0608979,33.2453225 L66.8042605,34.6387493 C66.7914819,34.7193126 66.7373502,34.7883921 66.659791,34.8233735 C65.7292586,35.2763653 64.697917,35.513815 63.6509571,35.5152284 C61.3158406,35.5152284 60.0504017,34.1509527 60.0504017,32.0946456 C60.0504017,29.380935 61.7994761,27.3096105 64.3734819,27.3096105 C66.6677777,27.3096105 67.7014265,28.5846658 67.7014265,30.4754296 L67.7014265,30.4754296 Z M47.0190429,35.3501075 C46.9404189,35.351805 46.8649895,35.3196504 46.8147624,35.2620547 C46.7647128,35.2048124 46.7451899,35.1290193 46.7616956,35.0562296 L47.548646,30.8812495 C47.581125,30.7066957 47.6017128,30.5309052 47.6105868,30.3540546 C47.6105868,29.7692641 47.2605945,29.5895868 46.8152948,29.5895868 C46.2601345,29.5895868 45.925938,29.905303 45.7511193,30.8492715 L44.9460658,35.1436832 C44.9265429,35.2634681 44.8170372,35.351805 44.688896,35.3501075 L42.3175735,35.3501075 C42.2389494,35.351805 42.1633426,35.3196504 42.1132929,35.2620547 C42.0632433,35.2048124 42.0435429,35.1290193 42.0604036,35.0562296 L42.8471765,30.8812495 C42.8746861,30.7201229 42.8903044,30.558113 42.893854,30.3953963 C42.893854,29.8252698 42.5772281,29.5994805 42.122167,29.5994805 C41.5639895,29.5994805 41.2322777,29.9001795 41.0569265,30.8589886 L40.2421116,35.1440366 C40.2225887,35.2634681 40.113083,35.3514517 39.9849418,35.3501075 L37.6700582,35.3501075 C37.5916116,35.351805 37.5163597,35.3196504 37.4663101,35.2620547 C37.4157281,35.2046357 37.3965601,35.1290193 37.4128884,35.0562296 L38.7990143,27.6811557 C38.8187147,27.5617242 38.9280429,27.4739172 39.0561842,27.4753306 L41.3710677,27.4753306 C41.4496918,27.4733872 41.5247662,27.5058952 41.5748158,27.5631375 C41.6248655,27.6205565 41.6445658,27.6959963 41.6284151,27.7686093 L41.587062,27.999522 C42.1810906,27.5739146 42.8997109,27.3332848 43.6444208,27.3101406 C44.4370506,27.279576 45.1954265,27.615433 45.6765773,28.2106473 C46.3549094,27.648471 47.2217261,27.3290447 48.1249265,27.3101406 C49.7447948,27.3101406 50.5546403,28.0746084 50.5546403,29.5604356 C50.5498483,29.9533583 50.5070754,30.3448676 50.4289838,30.73037 L49.5699761,35.1436832 C49.5502758,35.2634681 49.4409475,35.351805 49.3128063,35.3501075 L47.0190429,35.3501075 Z M29.8928445,27.4747564 L32.2308006,27.4747564 C32.3094246,27.4733872 32.384499,27.5058952 32.4345487,27.5627842 C32.4851307,27.6205565 32.5041212,27.6959963 32.4879704,27.7686093 L31.7006651,31.9441195 C31.6712032,32.104716 31.6559399,32.2670793 31.65452,32.4299726 C31.65452,32.9854352 31.971146,33.240729 32.449812,33.240729 C33.0511174,33.240729 33.3700506,32.9686512 33.5606651,31.9806909 L34.3705105,27.6816857 C34.3900334,27.5613708 34.4995391,27.4733872 34.6276803,27.4747564 L36.9420315,27.4747564 C37.0201231,27.4739172 37.0943101,27.5053652 37.1438273,27.5617242 C37.1938769,27.6173764 37.2141097,27.6919328 37.1993788,27.7640157 L35.8263865,35.1436832 C35.8066861,35.2634681 35.6973578,35.351805 35.5692166,35.3500383 L33.254333,35.3500383 C33.175709,35.351805 33.1006345,35.3196504 33.0505849,35.2620547 C33.0000029,35.2048124 32.98048,35.1290193 32.9969857,35.0562296 L33.0383387,34.8258469 C32.4909876,35.2525143 31.808751,35.4954409 31.0993597,35.5152284 C29.5737338,35.5152284 28.6994628,34.7869787 28.6994628,33.2214715 C28.7127739,32.8234253 28.7559017,32.4264391 28.8281365,32.0338698 L29.6459685,27.6811557 C29.664604,27.565611 29.7686078,27.4785108 29.8928445,27.4747564 L29.8928445,27.4747564 Z M25.1402605,27.8509393 C25.1402605,27.3656162 24.7107567,27.1449505 24.1241823,27.1449505 L22.0258254,27.1449505 L21.7249952,28.7956144 L23.949541,28.7956144 C24.6513006,28.7956144 25.1274819,28.4509237 25.1274819,27.8514693 L25.1402605,27.8514693 L25.1402605,27.8509393 Z M24.6465086,31.8400585 C24.6465086,31.3762896 24.3298826,31.0144616 23.5351231,31.0144616 L21.3263731,31.0144616 L20.945499,33.0561048 L23.2602052,33.0561048 C24.0315372,33.0561048 24.63373,32.6799661 24.63373,31.8400585 L24.6465086,31.8400585 Z M27.6833845,31.8252179 C27.6833845,34.0103203 25.6803349,35.3501075 23.3113197,35.3501075 L17.8642529,35.3501075 C17.7858063,35.351805 17.7105544,35.3196504 17.6605048,35.2620547 C17.6104552,35.2048124 17.5909323,35.1290193 17.607083,35.0562296 L19.4535945,25.0573721 C19.4732948,24.9375872 19.5828006,24.8490736 19.7107643,24.8509856 L24.4427605,24.8509856 C26.9711536,24.8509856 28.2568254,25.7052351 28.2568254,27.2953 C28.28327,28.3901479 27.567667,29.3796983 26.4774017,29.7544235 C27.2554781,30.1802076 27.7197681,30.97736 27.6833845,31.8252179 L27.6833845,31.8252179 Z" id="Fill-154" fill="#FFFFFF"></path>
                        <polygon id="Fill-156" fill="#FFFFFF" points="45.967717 0.0883369342 46.8936349 1.9559564 48.9643048 2.25559528 47.4660109 3.70944454 47.8197303 5.76204154 45.967717 4.79298537 44.1157036 5.76204154 44.4696006 3.70944454 42.9713067 2.25559528 45.041799 1.9559564"></polygon>
                        <polygon id="Fill-158" fill="#FFFFFF" points="57.778859 1.86267259 58.0165059 4.01632705 59.9334773 5.04262555 57.9492406 5.93306185 57.5612674 8.06498542 56.0972273 6.46167006 53.9404792 6.75318194 55.0200956 4.87160525 54.0750097 2.91988902 56.2062006 3.36051365"></polygon>
                        <polygon id="Fill-160" fill="#FFFFFF" points="68.7413405 8.53693432 68.1345332 10.5464229 69.4533939 12.183483 67.345808 12.2297715 66.1895198 13.9843197 65.4939721 12.0034523 63.4603958 11.4508164 65.1379454 10.180178 65.0374912 8.0841192 66.7698824 9.27967126"></polygon>
                        <polygon id="Fill-162" fill="#FFFFFF" points="34.2016197 1.86267259 33.9639727 4.01632705 32.0470013 5.04262555 34.031238 5.93306185 34.4192113 8.06498542 35.8832513 6.46167006 38.0399994 6.75318194 36.960383 4.87160525 37.9054689 2.91988902 35.7742781 3.36051365"></polygon>
                        <polygon id="Fill-164" fill="#FFFFFF" points="23.8384912 8.53693432 24.4452985 10.5464229 23.1264378 12.183483 25.2338462 12.2297715 26.3903118 13.9843197 27.0858595 12.0034523 29.1194359 11.4508164 27.4418863 10.180178 27.5423405 8.0841192 25.8099492 9.27967126"></polygon>
                    </g>
                </g>
            </g>
        </g>
    </g>
</svg>