<?xml version="1.0" encoding="UTF-8" standalone="no"?>
<svg width="200px" height="200px" viewBox="0 0 200 200" version="1.1" xmlns="http://www.w3.org/2000/svg" xmlns:xlink="http://www.w3.org/1999/xlink">
    <!-- Generator: Sketch 39.1 (31720) - http://www.bohemiancoding.com/sketch -->
    <title>assets/img_contact_info</title>
    <desc>Created with Sketch.</desc>
    <defs></defs>
    <g id="Freshness" stroke="none" stroke-width="1" fill="none" fill-rule="evenodd">
        <g id="Circular-Icons" transform="translate(-250.000000, -2250.000000)">
            <g id="assets/img_contact_info" transform="translate(250.000000, 2250.000000)">
                <circle id="background" fill="#3B2469" cx="100" cy="100" r="100"></circle>
                <g id="Group" transform="translate(45.000000, 46.000000)">
                    <path d="M109.009009,51.09375 C109.009009,44.1007188 104.786613,38.1057188 98.7604589,35.4829063 C98.6156813,33.7372031 97.1679054,32.359375 95.3828829,32.359375 C93.5024775,32.359375 91.9763514,33.885375 91.9763514,35.765625 L91.9763514,66.7676094 C91.9763514,68.6495625 93.5024775,70.1738594 95.3828829,70.1738594 L95.3828829,95.375 C95.3828829,99.1320938 92.3272241,102.1875 88.5698198,102.1875 L20.4391892,102.1875 C16.6817849,102.1875 13.6261261,99.1320938 13.6261261,95.375 L13.6261261,70.1738594 C15.5065315,70.1738594 17.0326577,68.6495625 17.0326577,66.7676094 L17.0326577,35.765625 C17.0326577,33.885375 15.5065315,32.359375 13.6261261,32.359375 C11.8411036,32.359375 10.3933277,33.7372031 10.2485501,35.4829063 C4.22239583,38.1057188 0,44.1007188 0,51.09375 C0,56.65275 2.68434685,61.5832969 6.81306306,64.6915 L6.81306306,95.375 C6.81306306,102.887484 12.9260839,109 20.4391892,109 L88.5698198,109 C96.0829251,109 102.195946,102.887484 102.195946,95.375 L102.195946,64.6915 C106.324662,61.5832969 109.009009,56.65275 109.009009,51.09375" id="Fill-541" fill="#666666"></path>
                    <polygon id="Fill-542" fill="#FFFFFF" points="88.5698198 93.671875 20.4391892 93.671875 20.4391892 0 88.5698198 0"></polygon>
                    <path d="M74.9436937,12.7734375 C74.9436937,13.2435 74.5621622,13.625 74.0920608,13.625 L55.3561374,13.625 C54.886036,13.625 54.5045045,13.2435 54.5045045,12.7734375 C54.5045045,12.303375 54.886036,11.921875 55.3561374,11.921875 L74.0920608,11.921875 C74.5621622,11.921875 74.9436937,12.303375 74.9436937,12.7734375" id="Fill-543" fill="#E2E4E5"></path>
                    <path d="M74.9436937,19.5859375 C74.9436937,20.056 74.5621622,20.4375 74.0920608,20.4375 L55.3561374,20.4375 C54.886036,20.4375 54.5045045,20.056 54.5045045,19.5859375 C54.5045045,19.115875 54.886036,18.734375 55.3561374,18.734375 L74.0920608,18.734375 C74.5621622,18.734375 74.9436937,19.115875 74.9436937,19.5859375" id="Fill-544" fill="#E2E4E5"></path>
                    <path d="M74.9436937,26.3984375 C74.9436937,26.8685 74.5621622,27.25 74.0920608,27.25 L55.3561374,27.25 C54.886036,27.25 54.5045045,26.8685 54.5045045,26.3984375 C54.5045045,25.928375 54.886036,25.546875 55.3561374,25.546875 L74.0920608,25.546875 C74.5621622,25.546875 74.9436937,25.928375 74.9436937,26.3984375" id="Fill-545" fill="#E2E4E5"></path>
                    <polygon id="Fill-546" fill="#9CE5F4" points="47.6914414 8.65698438 28.955518 8.65698438 28.955518 28.953125 47.6914414 28.953125"></polygon>
                    <path d="M40.7920228,22.8988563 C41.6964569,21.8514344 42.2261726,20.5945281 42.2261726,17.2444813 C42.2261726,15.5192156 40.6659811,13.3409188 38.3239907,13.3409188 C35.9820003,13.3409188 34.4201056,15.5192156 34.4201056,17.2444813 C34.4201056,20.5774969 35.1491033,21.8241844 36.0535374,22.8750125 C33.4151788,23.2445906 30.9931349,24.2375125 28.956029,25.6953875 L28.956029,28.9534656 L47.6919524,28.9534656 L47.6919524,25.6953875 C45.7042413,24.2732781 43.3537345,23.290575 40.7920228,22.8988563" id="Fill-547" fill="#0484AB"></path>
                    <path d="M28.955518,25.6947062 C30.9943271,24.2385344 33.4146678,23.2456125 36.0530265,22.8760344 C35.1485923,21.8252062 34.4195946,20.5785187 34.4195946,17.2438 C34.4195946,15.5202375 35.9814893,13.3419406 38.3234797,13.3419406 C40.2617962,13.3419406 41.6618806,14.832175 42.0876971,16.3241125 L47.6914414,8.65834688 L28.955518,8.65834688 L28.955518,25.6947062 Z" id="Fill-548" fill="#C9F2F9"></path>
                    <path d="M38.3234797,13.3410891 C35.9814893,13.3410891 34.4195946,15.5193859 34.4195946,17.2446516 C34.4195946,20.5776672 35.1485923,21.8243547 36.0530265,22.8751828 C33.4146678,23.2447609 30.9943271,24.2376828 28.955518,25.6938547 L28.955518,28.9536359 L32.8594032,28.9536359 L42.0876971,16.3249641 C41.6618806,14.8330266 40.2617962,13.3410891 38.3234797,13.3410891" id="Fill-549" fill="#059BBF"></path>
                    <path d="M95.3828829,32.359375 C93.5024775,32.359375 91.9763514,33.885375 91.9763514,35.765625 L91.9763514,47.6875 L17.0326577,47.6875 L17.0326577,35.765625 C17.0326577,33.885375 15.5065315,32.359375 13.6261261,32.359375 C11.7457207,32.359375 10.2195946,33.885375 10.2195946,35.765625 L10.2195946,66.7676094 C10.2195946,68.6495625 11.7457207,70.1738594 13.6261261,70.1738594 C15.5065315,70.1738594 17.0326577,68.6495625 17.0326577,66.7676094 L17.0326577,54.5 L91.9763514,54.5 L91.9763514,66.7676094 C91.9763514,68.6495625 93.5024775,70.1738594 95.3828829,70.1738594 C97.2632883,70.1738594 98.7894144,68.6495625 98.7894144,66.7676094 L98.7894144,35.765625 C98.7894144,33.885375 97.2632883,32.359375 95.3828829,32.359375" id="Fill-550" fill="#666666"></path>
                    <path d="M10.2195946,35.765625 C10.2195946,35.6685469 10.2400338,35.5782812 10.2485501,35.4829062 C4.22239583,38.1057187 0,44.1007187 0,51.09375 C0,58.0646406 4.21728604,64.0443125 10.2195946,66.6790469 L10.2195946,35.765625 Z" id="Fill-551" fill="#DF2C2C"></path>
                    <path d="M10.2482095,35.4820547 C4.22205518,38.1048672 -0.000340653153,44.1015703 -0.000340653153,51.0946016 L10.2192539,51.0946016 L10.2192539,35.7664766 C10.2192539,35.6676953 10.2396931,35.5774297 10.2482095,35.4820547" id="Fill-552" fill="#FA5655"></path>
                    <path d="M98.7894144,35.765625 C98.7894144,35.6685469 98.7689752,35.5782812 98.7604589,35.4829062 C104.786613,38.1057187 109.009009,44.1007187 109.009009,51.09375 C109.009009,58.0646406 104.791723,64.0443125 98.7894144,66.6790469 L98.7894144,35.765625 Z" id="Fill-553" fill="#DF2C2C"></path>
                    <path d="M98.7607995,35.4820547 C104.786954,38.1048672 109.00935,44.1015703 109.00935,51.0946016 L98.7897551,51.0946016 L98.7897551,35.7664766 C98.7897551,35.6676953 98.7693159,35.5774297 98.7607995,35.4820547" id="Fill-554" fill="#FA5655"></path>
                    <path d="M13.6261261,32.359375 C11.7457207,32.359375 10.2195946,33.885375 10.2195946,35.765625 L10.2195946,51.09375 L17.0326577,51.09375 L17.0326577,35.765625 C17.0326577,33.885375 15.5065315,32.359375 13.6261261,32.359375" id="Fill-555" fill="#999999"></path>
                    <path d="M95.3828829,32.359375 C97.2632883,32.359375 98.7894144,33.885375 98.7894144,35.765625 L98.7894144,51.09375 L91.9763514,51.09375 L91.9763514,35.765625 C91.9763514,33.885375 93.5024775,32.359375 95.3828829,32.359375" id="Fill-556" fill="#999999"></path>
                    <path d="M44.2849099,61.3125 C44.2849099,63.1944531 42.760487,64.71875 40.8783784,64.71875 C38.9962697,64.71875 37.4718468,63.1944531 37.4718468,61.3125 L37.4718468,40.875 C37.4718468,38.9930469 38.9962697,37.46875 40.8783784,37.46875 C42.760487,37.46875 44.2849099,38.9930469 44.2849099,40.875 L44.2849099,61.3125 Z" id="Fill-557" fill="#B5BCBD"></path>
                    <path d="M71.5371622,61.3125 C71.5371622,63.1944531 70.0127393,64.71875 68.1306306,64.71875 C66.248522,64.71875 64.7240991,63.1944531 64.7240991,61.3125 L64.7240991,40.875 C64.7240991,38.9930469 66.248522,37.46875 68.1306306,37.46875 C70.0127393,37.46875 71.5371622,38.9930469 71.5371622,40.875 L71.5371622,61.3125 Z" id="Fill-558" fill="#B5BCBD"></path>
                    <path d="M40.8783784,37.46875 C38.997973,37.46875 37.4718468,38.99475 37.4718468,40.875 L37.4718468,51.09375 L44.2849099,51.09375 L44.2849099,40.875 C44.2849099,38.99475 42.7587838,37.46875 40.8783784,37.46875" id="Fill-559" fill="#E2E4E5"></path>
                    <path d="M68.1306306,37.46875 C66.2502252,37.46875 64.7240991,38.99475 64.7240991,40.875 L64.7240991,51.09375 L71.5371622,51.09375 L71.5371622,40.875 C71.5371622,38.99475 70.011036,37.46875 68.1306306,37.46875" id="Fill-560" fill="#E2E4E5"></path>
                </g>
            </g>
        </g>
    </g>
</svg>