<?xml version="1.0" encoding="UTF-8"?>
<svg width="290px" height="75px" viewBox="0 0 290 75" version="1.1" xmlns="http://www.w3.org/2000/svg" xmlns:xlink="http://www.w3.org/1999/xlink">
    <!-- Generator: Sketch 52.5 (67469) - http://www.bohemiancoding.com/sketch -->
    <title>search_with_arrow</title>
    <desc>Created with Sketch.</desc>
    <defs>
        <path d="M13.5375,26.71875 C6.0612375,26.71875 0,20.7372656 0,13.359375 C0,5.98148438 6.0612375,0 13.5375,0 C21.0137625,0 27.075,5.98148438 27.075,13.359375 C27.075,20.7372656 21.0137625,26.71875 13.5375,26.71875" id="path-1"></path>
    </defs>
    <g id="search_with_arrow" stroke="none" stroke-width="1" fill="none" fill-rule="evenodd">
        <g id="Group-12">
            <g id="assets/img_overview">
                <ellipse id="background" fill="#353167" cx="38" cy="37.5" rx="38" ry="37.5"></ellipse>
                <g id="assets/img_magnifying_glass_w_person" transform="translate(15.200000, 15.000000)">
                    <path d="M14.1567337,26.0578828 L1.03177125,39.0101484 C-0.34406625,40.3678828 -0.34406625,42.5749922 1.03177125,43.9320234 L1.08164625,43.9819453 C2.45748375,45.3396797 4.69402125,45.3389766 6.06985875,43.9819453 L19.1948212,31.0296797 C17.1827213,29.7387422 15.4641712,28.0428047 14.1567337,26.0578828" id="Fill-7472" fill="#8B88AA"></path>
                    <path d="M1.02806625,39.0100781 C-0.32710875,40.3474219 -0.33993375,42.5067187 0.97534125,43.8686719 L13.0607662,31.9422656 L10.6254413,29.5389844 L1.02806625,39.0100781 Z" id="Fill-7473" fill="#EBEAF4"></path>
                    <path d="M19.1914226,31.0330336 L15.6672337,34.5108516 L10.6291462,29.5390547 L14.1533049,26.0612666 C12.4117266,23.4178483 11.4,20.2630375 11.4,16.875 C11.4,7.55507812 19.0558125,0 28.5,0 C37.9441875,0 45.6,7.55507812 45.6,16.875 C45.6,26.1949219 37.9441875,33.75 28.5,33.75 C25.0668625,33.75 21.8700511,32.7516285 19.1914226,31.0330336 Z" id="Combined-Shape" fill="#FFFFFF"></path>
                    <g id="Group" transform="translate(14.820000, 3.375000)">
                        <mask id="mask-2" fill="white">
                            <use xlink:href="#path-1"></use>
                        </mask>
                        <use id="Mask" fill="#40C9E7" xlink:href="#path-1"></use>
                        <path d="M14.6764724,-2.8125 C5.94161743,-2.8125 -1.14,4.17593825 -1.14,12.795861 C-1.14,17.2959979 0.801263882,21.3385634 3.88797335,24.1875 L26.22,2.1493158 C23.3330776,-0.896779064 19.2366112,-2.8125 14.6764724,-2.8125" id="Fill-7478" fill="#6FDAF1" mask="url(#mask-2)"></path>
                    </g>
                </g>
            </g>
            <g id="Group-5" transform="translate(74.000000, 27.000000)" stroke="#353167" stroke-width="3">
                <path d="M0.554030287,10.2989 L212.96487,10.2989" id="Stroke-1"></path>
                <polyline id="Stroke-3" points="202.629928 0.0606 212.964971 10.2986 202.629928 20.5376"></polyline>
            </g>
        </g>
    </g>
</svg>