<?xml version="1.0" encoding="UTF-8" standalone="no"?>
<svg width="200px" height="132px" viewBox="0 0 200 132" version="1.1" xmlns="http://www.w3.org/2000/svg" xmlns:xlink="http://www.w3.org/1999/xlink">
    <!-- Generator: Sketch 39.1 (31720) - http://www.bohemiancoding.com/sketch -->
    <title>assets/img_credit_card_back</title>
    <desc>Created with Sketch.</desc>
    <defs>
        <linearGradient x1="0%" y1="0%" x2="100%" y2="100%" id="linearGradient-1">
            <stop stop-color="#666666" offset="0%"></stop>
            <stop stop-color="#999999" offset="100%"></stop>
        </linearGradient>
    </defs>
    <g id="Freshness" stroke="none" stroke-width="1" fill="none" fill-rule="evenodd">
        <g id="Freeform-Icons" transform="translate(-900.000000, 0.000000)">
            <g id="assets/img_credit_card_back" transform="translate(900.000000, 0.000000)">
                <g id="Back-of-Card">
                    <path d="M200,125.714286 C200,129.184 197.2,132 193.75,132 L6.25,132 C2.8,132 0,129.184 0,125.714286 L0,6.28571429 C0,2.816 2.8,0 6.25,0 L193.75,0 C197.2,0 200,2.816 200,6.28571429 L200,125.714286 Z" id="Fill-4023" fill="url(#linearGradient-1)"></path>
                    <polygon id="Fill-4024" fill="#3E3E3F" points="200 40 0 40 0 15 200 15"></polygon>
                    <rect id="Rectangle-116" fill="#F0F0F0" x="10" y="50" width="150" height="25"></rect>
                    <path d="M44.3476614,57.7028433 C42.6954875,57.7028433 41.3969038,58.2291396 40.4863307,59.2638915 C39.6696311,60.1916001 39.2190382,61.4909868 39.2190382,62.9212042 C39.2190382,63.6913213 39.347332,64.4614384 39.5976614,65.1839807 C43.43083,62.8260546 46.259552,59.918045 46.259552,58.371864 C46.259552,58.1875116 46.2126153,58.1012823 46.0561594,58.0061327 C45.8746706,57.8931425 45.4084321,57.7028433 44.3476614,57.7028433 M94.8578722,71 L72.0278327,71 C70.1128129,71 68.6077075,70.4796506 67.5625823,69.4567924 C65.6068841,67.5448801 65.7007576,64.4495447 65.7821146,61.7169671 C65.8227931,60.3491916 65.8791173,58.4729604 65.44417,58.0477606 C65.4253953,58.0299201 65.3784585,57.9823453 65.178195,57.9823453 C63.8921278,57.9823453 63.3414032,61.0776807 62.9001976,63.5604906 C62.2837615,67.0483182 61.5828393,71 58.3285573,71 C56.9892951,71 55.9754611,70.5926408 55.3183465,69.7838692 C53.891469,68.0325218 54.7050395,65.0442297 55.490448,62.1540606 C55.865942,60.7654711 56.4980237,58.4432262 56.1632082,57.9645047 C54.9991765,57.9823453 54.3639657,59.9656198 53.6912055,62.0648578 C52.4833663,65.8351608 50.8249341,71 44.6292819,71 C41.9945652,71 39.9981884,69.8433377 38.7027339,68.1752462 C35.4328063,69.8522579 31.8186759,71 28.6488801,71 C22.6753953,71 20,67.4973053 20,64.0243449 C20,59.5879948 24.0897563,55 30.9300066,55 C31.5620883,55 32.0721344,55.4846683 32.0721344,56.0853001 C32.0721344,56.685932 31.5620883,57.1706003 30.9300066,57.1706003 C25.5197628,57.1706003 22.2842556,60.6554544 22.2842556,64.0243449 C22.2842556,66.3465899 23.9552042,68.8323732 28.6488801,68.8323732 C31.5683465,68.8323732 34.7600461,67.7768073 37.6138011,66.3049619 C37.1663373,65.228582 36.9347826,64.0629994 36.9347826,62.9212042 C36.9347826,60.9855046 37.5731225,59.1895558 38.7371542,57.8723286 C40.0795455,56.3410147 42.0227273,55.5322431 44.3476614,55.5322431 C45.6212121,55.5322431 46.5881094,55.7463297 47.3015481,56.1863966 C48.1026021,56.6799851 48.5438076,57.4560491 48.5438076,58.371864 C48.5438076,60.8606207 45.1330698,64.3841293 40.6740777,67.075079 C41.5815217,68.1306449 42.9082675,68.8323732 44.6292819,68.8323732 C48.8097826,68.8323732 50.1177536,65.7637986 51.5070817,61.4315183 C52.3926219,58.6692065 53.3094532,55.8147185 56.0443017,55.8147185 C57.0800395,55.8147185 57.6651845,56.2637056 57.9718379,56.6383572 C59.0044466,57.9050362 58.400527,60.1261847 57.6996047,62.6952239 C57.1426219,64.7409403 56.3822464,67.5448801 57.1238472,68.4547482 C57.198946,68.5498978 57.4305007,68.8323732 58.3285573,68.8323732 C59.6521739,68.8323732 60.2060277,65.7102769 60.6503623,63.2007062 C61.2636693,59.7396395 61.9583333,55.8147185 65.178195,55.8147185 C66.1419631,55.8147185 66.7458827,56.2072106 67.0838274,56.5372607 C68.1884058,57.6195874 68.1320817,59.5463668 68.0663702,61.779409 C67.9944005,64.08084 67.9161726,66.6885337 69.1991107,67.9433191 C69.8092885,68.5409775 70.7355072,68.8323732 72.0278327,68.8323732 L94.8578722,68.8323732 C95.4899539,68.8323732 96,69.3170414 96,69.9146999 C96,70.5153317 95.4899539,71 94.8578722,71" id="Fill-4044" fill="#5B5C5F"></path>
                    <text id="222" font-family="Lato-Regular, Lato" font-size="10" font-weight="normal" line-spacing="10" fill="#000000">
                        <tspan x="138" y="66">222</tspan>
                    </text>
                    <circle id="Oval-6" stroke="#FACB1B" stroke-width="6" cx="147" cy="62" r="20"></circle>
                </g>
            </g>
        </g>
    </g>
</svg>