<svg xmlns="http://www.w3.org/2000/svg" xmlns:xlink="http://www.w3.org/1999/xlink" width="56" height="56" viewBox="0 0 56 56">
    <defs>
        <path id="sn2iy69qka" d="M0 0L9.651 0 9.651 7.769 0 7.769z"/>
        <path id="6c2veg0akc" d="M0 54.603L56 54.603 56 0 0 0z"/>
    </defs>
    <g fill="none" fill-rule="evenodd">
        <g>
            <g>
                <g transform="translate(-310.000000, -191.000000) translate(277.000000, 191.000000) translate(33.000000, 0.000000)">
                    <path fill="#FF4722" d="M51.232 29.799h-3.46c-2.312 0-4.193-1.879-4.193-4.188V14.388c0-1.683-1.369-3.054-3.052-3.054-1.684 0-3.053 1.37-3.053 3.054 0 .386-.314.698-.699.698-.385 0-.7-.312-.7-.698 0-2.453 2-4.449 4.452-4.449 2.453 0 4.45 1.996 4.45 4.449V25.61c0 1.538 1.254 2.791 2.794 2.791h3.46c.386 0 .699.313.699.699 0 .385-.313.698-.698.698M36.775 50.798c-.372 0-.681-.291-.697-.667-.017-.385.281-.712.666-.728l2.748-.124c1.314-.059 2.528-.752 3.249-1.855l.962-1.469c.873-1.335 2.346-2.133 3.942-2.133h3.586c.386 0 .7.312.7.698 0 .386-.314.698-.7.698h-3.586c-1.123 0-2.16.56-2.773 1.502l-.962 1.47c-.967 1.475-2.594 2.404-4.356 2.484l-2.748.124h-.031"/>
                    <g transform="translate(0.000000, 22.029693)">
                        <mask id="x5yngvciub" fill="#fff">
                            <use xlink:href="#sn2iy69qka"/>
                        </mask>
                        <path fill="#FF4722" d="M8.953 7.77H3.886C1.744 7.77 0 6.026 0 3.884 0 1.742 1.744 0 3.886 0h4.375c.386 0 .7.313.7.698 0 .384-.314.699-.7.699H3.886c-1.372 0-2.488 1.115-2.488 2.488 0 1.372 1.116 2.488 2.488 2.488h5.067c.386 0 .698.312.698.698 0 .386-.312.698-.698.698" mask="url(#x5yngvciub)"/>
                    </g>
                    <path fill="#8736C1" d="M33.931 53.641H12.098c-1.953 0-3.542-1.588-3.542-3.54 0-.386.314-.699.698-.699.386 0 .7.313.7.699 0 1.182.96 2.144 2.144 2.144h21.833c1.184 0 2.146-.962 2.146-2.144V10.537c0-1.182-.962-2.144-2.146-2.144H12.098c-1.183 0-2.144.962-2.144 2.144v17.33c0 .385-.314.698-.7.698-.384 0-.698-.313-.698-.698v-17.33c0-1.954 1.589-3.541 3.542-3.541h21.833c1.954 0 3.542 1.587 3.542 3.54v39.565c0 1.952-1.588 3.54-3.542 3.54"/>
                    <mask id="ehct078wdd" fill="#fff">
                        <use xlink:href="#6c2veg0akc"/>
                    </mask>
                    <path fill="#8736C1" d="M8.953 42.635L36.474 42.635 36.474 41.238 8.953 41.238zM25.812 48.138H19.46c-.384 0-.698-.313-.698-.699 0-.385.314-.698.698-.698h6.352c.386 0 .698.313.698.698 0 .386-.312.699-.698.699" mask="url(#ehct078wdd)"/>
                    <path fill="#FF4722" d="M10.73 29.8c-.161 0-.325.02-.484.057l-3.55.86c-.529.129-.977.457-1.262.923-.284.466-.37 1.014-.24 1.545.127.533.457.98.921 1.264.47.287 1.016.37 1.547.243l3.546-.86c1.095-.266 1.768-1.375 1.505-2.47-.13-.53-.456-.979-.924-1.264-.323-.197-.688-.298-1.06-.298m-3.554 6.346c-.627 0-1.24-.17-1.786-.504-.786-.479-1.336-1.233-1.552-2.127-.217-.892-.074-1.817.405-2.601.478-.786 1.232-1.338 2.126-1.554l3.548-.86c.894-.214 1.817-.072 2.6.406.787.478 1.337 1.234 1.553 2.128.447 1.844-.69 3.707-2.531 4.154l-3.546.86c-.272.067-.547.098-.817.098" mask="url(#ehct078wdd)"/>
                    <path fill="#FF4722" d="M11.031 36.674c-.16 0-.324.02-.483.058l-3.55.859c-.529.13-.977.457-1.262.924-.283.466-.37 1.014-.24 1.545.127.532.455.98.92 1.264.47.286 1.014.372 1.548.242l3.546-.86c.53-.13.98-.458 1.264-.924.283-.464.37-1.014.24-1.543-.129-.533-.455-.981-.923-1.266-.323-.197-.688-.299-1.06-.299m-3.554 6.347c-.627 0-1.24-.171-1.786-.505-.786-.478-1.336-1.232-1.552-2.126-.217-.892-.074-1.818.405-2.603.48-.784 1.234-1.336 2.126-1.553l3.548-.859c.892-.214 1.817-.073 2.6.405.787.479 1.337 1.235 1.553 2.129.217.892.074 1.817-.405 2.601-.48.784-1.234 1.336-2.126 1.552l-3.546.861c-.273.066-.547.098-.817.098" mask="url(#ehct078wdd)"/>
                    <path fill="#FF4722" d="M8.774 44.036L7 44.468c-.53.127-.98.455-1.264.921-.285.467-.37 1.015-.24 1.546.127.53.456.979.92 1.264.465.284 1.015.37 1.546.24l3.548-.858c.53-.13.98-.458 1.264-.924.283-.466.37-1.014.24-1.545-.129-.53-.455-.98-.923-1.264-.463-.283-1.013-.37-1.543-.241l-1.774.43zm-1.3 5.86c-.624 0-1.237-.171-1.785-.505-.784-.478-1.334-1.234-1.55-2.126-.217-.893-.074-1.816.405-2.602.478-.786 1.232-1.337 2.128-1.554l3.546-.859c.892-.214 1.817-.073 2.6.405.787.479 1.337 1.235 1.553 2.127.217.892.074 1.817-.405 2.603-.48.784-1.234 1.336-2.126 1.552l-3.546.86c-.273.065-.547.099-.82.099z" mask="url(#ehct078wdd)"/>
                    <path fill="#8736C1" d="M55.301 50.798h-4.768V28.402h4.768c.386 0 .699.314.699.698 0 .386-.313.699-.699.699H51.93v19.603H55.3c.386 0 .699.312.699.698 0 .386-.313.698-.699.698" mask="url(#ehct078wdd)"/>
                    <path fill="#FF4722" d="M22.451 30.304c-.312 0-.625-.118-.864-.357l-2.624-2.625c-.272-.272-.272-.714 0-.986s.716-.272.988 0l2.5 2.5 7.11-7.11c.274-.272.715-.272.99 0 .272.275.272.717 0 .989l-7.235 7.232c-.24.239-.552.357-.865.357" mask="url(#ehct078wdd)"/>
                </g>
            </g>
        </g>
    </g>
</svg>
