<svg xmlns="http://www.w3.org/2000/svg" width="60" height="50" viewBox="0 0 60 50">
    <g fill="none" fill-rule="evenodd">
        <path fill="#FFF" d="M52.5.064c4.144 0 7.5 3.372 7.5 7.534v33.9c0 4.162-3.356 7.533-7.5 7.533h-45c-4.144 0-7.5-3.371-7.5-7.533v-33.9C0 3.436 3.356.064 7.5.064h45z" transform="translate(0 .5)"/>
        <path fill="#353167" d="M8.007 18.459c.302 0 .524.231.524.518 0 .295-.222.526-.524.526-.294 0-.516-.23-.516-.526 0-.287.222-.518.516-.518m1.055.518c0-1.603-.389-2.257-1.055-2.257-.66 0-1.056.654-1.056 2.257 0 1.61.397 2.265 1.056 2.265.666 0 1.055-.654 1.055-2.265m-2.866 0c0-1.818.62-2.839 1.81-2.839 1.191 0 1.811 1.021 1.811 2.839 0 1.826-.62 2.847-1.81 2.847s-1.81-1.02-1.81-2.847M12.75 17.039L11.441 17.837 11.091 17.326 12.837 16.234 13.481 16.234 13.481 21.138 14.6 21.138 14.6 21.728 11.409 21.728 11.409 21.138 12.75 21.138zM17.541 18.459c.302 0 .525.231.525.518 0 .295-.223.526-.525.526-.293 0-.515-.23-.515-.526 0-.287.222-.518.515-.518m1.056.518c0-1.603-.389-2.257-1.056-2.257-.659 0-1.055.654-1.055 2.257 0 1.61.396 2.265 1.055 2.265.667 0 1.056-.654 1.056-2.265m-2.866 0c0-1.818.62-2.839 1.81-2.839 1.191 0 1.81 1.021 1.81 2.839 0 1.826-.619 2.847-1.81 2.847-1.19 0-1.81-1.02-1.81-2.847M22.285 17.039L20.975 17.837 20.626 17.326 22.372 16.234 23.015 16.234 23.015 21.138 24.135 21.138 24.135 21.728 20.944 21.728 20.944 21.138 22.285 21.138zM27.052 17.039L25.743 17.837 25.393 17.326 27.14 16.234 27.783 16.234 27.783 21.138 28.902 21.138 28.902 21.728 25.711 21.728 25.711 21.138 27.052 21.138zM31.844 18.459c.302 0 .524.231.524.518 0 .295-.222.526-.524.526-.294 0-.516-.23-.516-.526 0-.287.222-.518.516-.518m1.055.518c0-1.603-.389-2.257-1.055-2.257-.66 0-1.056.654-1.056 2.257 0 1.61.397 2.265 1.056 2.265.666 0 1.055-.654 1.055-2.265m-2.866 0c0-1.818.62-2.839 1.81-2.839 1.191 0 1.811 1.021 1.811 2.839 0 1.826-.62 2.847-1.81 2.847s-1.81-1.02-1.81-2.847M36.587 17.039L35.278 17.837 34.928 17.326 36.674 16.234 37.318 16.234 37.318 21.138 38.437 21.138 38.437 21.728 35.246 21.728 35.246 21.138 36.587 21.138zM41.378 18.459c.302 0 .525.231.525.518 0 .295-.223.526-.525.526-.293 0-.515-.23-.515-.526 0-.287.222-.518.515-.518m1.056.518c0-1.603-.389-2.257-1.056-2.257-.659 0-1.055.654-1.055 2.257 0 1.61.396 2.265 1.055 2.265.667 0 1.056-.654 1.056-2.265m-2.866 0c0-1.818.62-2.839 1.81-2.839 1.191 0 1.81 1.021 1.81 2.839 0 1.826-.619 2.847-1.81 2.847-1.19 0-1.81-1.02-1.81-2.847M46.122 17.039L44.812 17.837 44.463 17.326 46.209 16.234 46.852 16.234 46.852 21.138 47.972 21.138 47.972 21.728 44.78 21.728 44.78 21.138 46.122 21.138zM8.007 28.036c.302 0 .524.231.524.518 0 .295-.222.526-.524.526-.294 0-.516-.23-.516-.526 0-.287.222-.518.516-.518m1.055.518c0-1.603-.389-2.257-1.055-2.257-.66 0-1.056.654-1.056 2.257 0 1.61.397 2.265 1.056 2.265.666 0 1.055-.654 1.055-2.265m-2.866 0c0-1.818.62-2.838 1.81-2.838 1.191 0 1.811 1.02 1.811 2.838 0 1.827-.62 2.847-1.81 2.847s-1.81-1.02-1.81-2.847M12.75 26.616L11.441 27.414 11.091 26.904 12.837 25.811 13.481 25.811 13.481 30.715 14.6 30.715 14.6 31.306 11.409 31.306 11.409 30.715 12.75 30.715zM17.541 28.036c.302 0 .525.231.525.518 0 .295-.223.526-.525.526-.293 0-.515-.23-.515-.526 0-.287.222-.518.515-.518m1.056.518c0-1.603-.389-2.257-1.056-2.257-.659 0-1.055.654-1.055 2.257 0 1.61.396 2.265 1.055 2.265.667 0 1.056-.654 1.056-2.265m-2.866 0c0-1.818.62-2.838 1.81-2.838 1.191 0 1.81 1.02 1.81 2.838 0 1.827-.619 2.847-1.81 2.847-1.19 0-1.81-1.02-1.81-2.847M22.285 26.616L20.975 27.414 20.626 26.904 22.372 25.811 23.015 25.811 23.015 30.715 24.135 30.715 24.135 31.306 20.944 31.306 20.944 30.715 22.285 30.715zM27.076 28.036c.302 0 .524.231.524.518 0 .295-.222.526-.524.526-.293 0-.515-.23-.515-.526 0-.287.222-.518.515-.518m1.056.518c0-1.603-.39-2.257-1.056-2.257-.659 0-1.055.654-1.055 2.257 0 1.61.396 2.265 1.055 2.265.667 0 1.056-.654 1.056-2.265m-2.866 0c0-1.818.62-2.838 1.81-2.838s1.81 1.02 1.81 2.838c0 1.827-.62 2.847-1.81 2.847s-1.81-1.02-1.81-2.847M31.844 28.036c.302 0 .524.231.524.518 0 .295-.222.526-.524.526-.294 0-.516-.23-.516-.526 0-.287.222-.518.516-.518m1.055.518c0-1.603-.389-2.257-1.055-2.257-.66 0-1.056.654-1.056 2.257 0 1.61.397 2.265 1.056 2.265.666 0 1.055-.654 1.055-2.265m-2.866 0c0-1.818.62-2.838 1.81-2.838 1.191 0 1.811 1.02 1.811 2.838 0 1.827-.62 2.847-1.81 2.847s-1.81-1.02-1.81-2.847M36.587 26.616L35.278 27.414 34.928 26.904 36.674 25.811 37.318 25.811 37.318 30.715 38.437 30.715 38.437 31.306 35.246 31.306 35.246 30.715 36.587 30.715zM7.983 36.194L6.673 36.991 6.324 36.481 8.07 35.389 8.713 35.389 8.713 40.293 9.833 40.293 9.833 40.883 6.641 40.883 6.641 40.293 7.983 40.293zM12.774 37.613c.302 0 .524.232.524.518 0 .296-.222.527-.524.527-.293 0-.516-.231-.516-.527 0-.286.223-.518.516-.518m1.056.518c0-1.602-.39-2.256-1.056-2.256-.659 0-1.056.654-1.056 2.256 0 1.611.397 2.266 1.056 2.266.667 0 1.056-.655 1.056-2.266m-2.866 0c0-1.817.62-2.838 1.81-2.838s1.81 1.02 1.81 2.838c0 1.827-.62 2.848-1.81 2.848s-1.81-1.02-1.81-2.848M17.518 36.194L16.208 36.991 15.858 36.481 17.605 35.389 18.248 35.389 18.248 40.293 19.367 40.293 19.367 40.883 16.176 40.883 16.176 40.293 17.518 40.293zM22.309 37.613c.302 0 .524.232.524.518 0 .296-.222.527-.524.527-.294 0-.516-.231-.516-.527 0-.286.222-.518.516-.518m1.055.518c0-1.602-.389-2.256-1.055-2.256-.66 0-1.056.654-1.056 2.256 0 1.611.397 2.266 1.056 2.266.666 0 1.055-.655 1.055-2.266m-2.865 0c0-1.817.62-2.838 1.81-2.838s1.81 1.02 1.81 2.838c0 1.827-.62 2.848-1.81 2.848s-1.81-1.02-1.81-2.848M27.076 37.613c.302 0 .524.232.524.518 0 .296-.222.527-.524.527-.293 0-.515-.231-.515-.527 0-.286.222-.518.515-.518m1.056.518c0-1.602-.39-2.256-1.056-2.256-.659 0-1.055.654-1.055 2.256 0 1.611.396 2.266 1.055 2.266.667 0 1.056-.655 1.056-2.266m-2.866 0c0-1.817.62-2.838 1.81-2.838s1.81 1.02 1.81 2.838c0 1.827-.62 2.848-1.81 2.848s-1.81-1.02-1.81-2.848M31.82 36.194L30.51 36.991 30.16 36.481 31.907 35.389 32.55 35.389 32.55 40.293 33.67 40.293 33.67 40.883 30.478 40.883 30.478 40.293 31.82 40.293z" transform="translate(0 .5)"/>
        <path fill="#8B88AA" d="M52.5 0h-45C3.358 0 0 3.372 0 7.533V11.3h60V7.533C60 3.373 56.642 0 52.5 0" transform="translate(0 .5)"/>
        <path fill="#E7114C" d="M8.313 5.714c0 1.041-.84 1.884-1.876 1.884-1.035 0-1.875-.843-1.875-1.884 0-1.04.84-1.883 1.875-1.883 1.035 0 1.875.843 1.875 1.883" transform="translate(0 .5)"/>
        <path fill="#F2DA3E" d="M13.813 5.714c0 1.041-.84 1.884-1.876 1.884-1.034 0-1.874-.843-1.874-1.884 0-1.04.84-1.883 1.874-1.883 1.036 0 1.876.843 1.876 1.883" transform="translate(0 .5)"/>
        <path fill="#81B44C" d="M19.313 5.714c0 1.041-.84 1.884-1.875 1.884-1.035 0-1.875-.843-1.875-1.884 0-1.04.84-1.883 1.874-1.883 1.035 0 1.875.843 1.875 1.883" transform="translate(0 .5)"/>
        <g>
            <path fill="#E1C618" d="M5 8.75V5c0-1.378 1.122-2.5 2.5-2.5S10 3.622 10 5v3.75H5zm8.75 0H12.5V5c0-2.757-2.243-5-5-5s-5 2.243-5 5v3.75H1.25C.56 8.75 0 9.31 0 10v8.75C0 19.439.575 20 1.25 20h12.5c.69 0 1.25-.56 1.25-1.25V10c0-.69-.56-1.25-1.25-1.25z" transform="translate(0 .5) translate(40 25)"/>
            <path fill="#F2DA3E" d="M7.5 8.75H1.25C.56 8.75 0 9.31 0 10v8.75C0 19.439.575 20 1.25 20H7.5V8.75z" transform="translate(0 .5) translate(40 25)"/>
        </g>
    </g>
</svg>
