<svg id="Layer_1" data-name="Layer 1" xmlns="http://www.w3.org/2000/svg" viewBox="0 0 112 114"><defs><style>.cls-1{fill:#363267;}</style></defs><title>img_breached_websites</title><path class="cls-1" d="M74.93,20.42C68,13.83,61.39,6.9,54.65.1,37.69.1,20.73.22,3.77,0,.43,0,0,1,0,4,.11,35.63.07,67.35.07,99a1.89,1.89,0,0,0,1.23,1.8,10.91,10.91,0,0,0,3.58.32H48.67v-4.4s-27.9-.11-39.85,0c-2.87,0-4.2-.54-4.19-3.84q.18-42.42,0-84.83c0-2.58.77-3.56,3.45-3.54q19.7.15,39.39,0c3,0,3.75,1.09,3.66,3.85-.16,5,0,10.1-.06,15.15-.06,2.91.92,4.27,4.1,4.13,5-.21,10.1.08,15.14-.11,2.8-.1,4,.68,3.78,3.64C73.87,34.57,74,43.8,74,43.8h4.91s-.27-10,.06-13.67C79.34,26,77.84,23.2,74.93,20.42Zm-5.65,2.73C52.58,22.67,55.7,27.2,56,9.75L69.5,23.06C69.54,23,69.41,23.15,69.28,23.15Z"/><path class="cls-1" d="M111.2,106.69Q97.88,80.11,84.6,53.5c-.59-1.17-1.12-2.59-2.71-2.72-2-.15-2.4,1.55-3.06,2.86C70,71.21,61.29,88.81,52.44,106.37c-2,4-.58,5.08,3.39,5,8.59-.11,17.18,0,25.76,0,8.76,0,17.52-.06,26.27,0C111.47,111.44,113.1,110.48,111.2,106.69Zm-8.6.23c-14.76-.06-29.51,0-45.16,0L81.59,58.14c4.29,8.51,8.29,16.41,12.25,24.33,3.53,7,7,14.15,10.55,21.16C105.56,105.9,105.57,106.94,102.6,106.92Z"/><path class="cls-1" d="M82.92,82.86v7.55c0,1.29-.48,2.39-1.9,2.5s-2-1-2.06-2.28V75.54c0-1.28.41-2.47,1.86-2.5,1.77,0,2.12,1.34,2.13,2.78v7Z"/><path class="cls-1" d="M80.87,101.11A1.84,1.84,0,0,1,79,99.29a1.09,1.09,0,0,1,0-.18,1.72,1.72,0,0,1,1.47-1.92h.3a1.82,1.82,0,0,1,2.07,1.55,1.79,1.79,0,0,1,0,.61A1.81,1.81,0,0,1,81,101.12Z"/></svg>