<?xml version="1.0" encoding="UTF-8"?>
<svg width="60px" height="60px" viewBox="0 0 60 60" version="1.1" xmlns="http://www.w3.org/2000/svg" xmlns:xlink="http://www.w3.org/1999/xlink">
    <title>klout_no circle</title>
    <g id="klout_no-circle" stroke="none" stroke-width="1" fill="none" fill-rule="evenodd">
        <g id="Klout_logo" transform="translate(-0.500000, 6.250000)">
            <path d="M0.668251783,0.823386957 L0.668251783,18.6363194 L0.668251783,36.4539818 L20.7204906,36.4539818 L40.7774251,36.4539818 L50.2286828,41.1413451 C55.426225,43.7204383 59.7189768,45.8735044 59.7691032,45.9233163 C59.8192296,45.973113 59.8750925,46.0131774 59.8911155,46.0131774 C59.9072286,46.0131774 59.9192722,35.8458485 59.9192722,23.418283 L59.9192722,0.823386957 L30.2937605,0.823386957 L0.668251783,0.823386957 Z" id="path3092-path" fill="#D23B0F"></path>
            <path d="M26.6709348,5.96481794 L30.101364,5.98374524 L33.5364785,6.00266498 L33.5505944,10.7940884 C33.56441,14.5228507 33.5871305,15.5995775 33.6538356,15.642271 C33.7580078,15.7089563 38.1094937,15.7089578 38.2762112,15.642271 C38.3412044,15.6162738 39.7961837,13.5306815 41.5095362,11.0069354 C43.2228887,8.48318781 44.6975252,6.31643595 44.789789,6.19186235 L44.9587291,5.96481794 L49.1118388,5.98374524 C52.2807038,5.997428 53.2649486,6.02425618 53.2649486,6.0878038 C53.2649486,6.13359713 51.2770947,8.96239751 48.8490432,12.3738864 C46.4210066,15.7853769 44.424428,18.6229469 44.4143667,18.6836188 C44.4043354,18.7442906 46.5726097,21.7170066 49.2291583,25.2913369 C51.8857069,28.8656688 54.0474789,31.8267227 54.0346219,31.8659456 C54.0188867,31.9133917 52.5881447,31.9391725 49.7594424,31.9510844 L45.5077843,31.9700041 L43.4851963,29.1083939 C42.3743667,27.5344231 40.7676116,25.2602783 39.9139912,24.0520941 L38.365374,21.8526747 L35.9814421,21.8526747 L33.6022075,21.8526747 L33.5693655,26.8947846 L33.5365086,31.9368946 L30.1483219,31.9510768 C28.2865424,31.9609907 26.7435565,31.9485491 26.7179076,31.9226972 C26.6922738,31.8968483 26.6709348,26.0456018 26.6709348,18.9201079 L26.6709348,5.96481794 L26.6709348,5.96481794 Z" id="path3092-path" fill="#FFFFFF"></path>
            <path d="M11.0158228,5.969526 C14.0857114,5.96879108 15.0137104,5.98749135 15.1032411,6.05468669 C15.1669428,6.10248551 16.6759304,8.28352102 18.4538856,10.9028693 L21.6825178,15.6659131 L23.0997372,15.6848329 C24.1849781,15.6992119 24.5377099,15.7266863 24.5967263,15.7983513 C24.6514028,15.8647641 24.665804,16.7349872 24.6530397,18.8018595 L24.6342686,21.715499 L23.1701214,21.7486086 C22.1836466,21.7719616 21.682653,21.8090882 21.6496609,21.862127 C21.6226605,21.9055501 20.0198623,24.1847185 18.0878488,26.9231567 L14.5776499,31.8990475 L10.3447629,31.8990475 C8.01819547,31.8990475 6.11656113,31.8773065 6.11656113,31.8470182 C6.11656113,31.81673 8.28974596,28.8673367 10.9454386,25.2960593 C13.6011163,21.7247818 15.7743011,18.7593931 15.7743011,18.7072609 C15.7743011,18.6382598 7.42717557,6.83688614 6.91903391,6.18712485 C6.86710549,6.12072717 6.87589038,6.07651855 6.94719059,6.03103702 C7.00356401,5.99509103 8.75632086,5.9701533 11.0158228,5.969526 Z" id="path3092-path" fill="#E89D7C"></path>
        </g>
    </g>
</svg>