<?xml version="1.0" encoding="UTF-8" standalone="no"?>
<svg width="150px" height="150px" viewBox="0 0 150 150" version="1.1" xmlns="http://www.w3.org/2000/svg" xmlns:xlink="http://www.w3.org/1999/xlink">
    <!-- Generator: Sketch 39.1 (31720) - http://www.bohemiancoding.com/sketch -->
    <title>assets/img_spammer_no_bg</title>
    <desc>Created with Sketch.</desc>
    <defs></defs>
    <g id="Freshness" stroke="none" stroke-width="1" fill="none" fill-rule="evenodd">
        <g id="assets/img_spammer_no_bg">
            <path d="M111.667429,36.3655394 L99.9215695,2.64297341 C98.9214857,0.479638992 96.4110248,-0.549762785 94.1762133,0.295573774 C90.8228571,1.56357861 85.2620267,3.03155554 77.496,3.03155554 C69.7299733,3.03155554 64.1691429,1.56357861 60.8157867,0.295573774 C58.576419,-0.549762785 56.0727924,0.475094172 55.0704305,2.64297341 L43.3245714,36.3655394 L29.656,40.9103596 L29.656,50 L125.336,50 L125.336,40.9103596 L111.667429,36.3655394 Z" id="Fill-3057" fill="#8E6134"></path>
            <polygon id="Fill-3058" fill="#D6D6D6" points="46.9610453 27.5 43.8 36.6666667 112.024 36.6666667 108.865229 27.5"></polygon>
            <polygon id="Fill-3059" fill="#FFFFFF" points="77.912 27.5 46.206144 27.5 42.968 36.6666667 77.912 36.6666667"></polygon>
            <path d="M67.928,85 L86.232,85 C86.232,85 86.232,87.5 77.08,87.5 C67.928,87.5 67.928,85 67.928,85" id="Fill-3062" fill="#F0386B"></path>
            <path d="M77.1752793,53.2673374 C77.1752793,53.2673374 47.7770832,50.9586135 43.0516845,54.3504703 C43.0516845,54.3504703 42.8633944,58.7779741 43.0516845,61.134184 C47.5887932,63.3954219 44.5625417,67.1649055 47.5887932,67.9178977 C51.3704733,68.8608339 67.3433646,70.1791356 70.2743369,67.9178977 C73.3641079,65.5322917 74.8114456,58.8729461 77.08,58.8729461 C79.3485544,58.8729461 80.7958921,65.5322917 83.8856631,67.9178977 C86.8166354,70.1791356 102.789527,68.8608339 106.571207,67.9178977 C109.597458,67.1649055 106.571207,63.3954219 111.108316,61.134184 C111.296606,58.7779741 111.108316,54.3504703 111.108316,54.3504703 C106.382917,50.9586135 77.1752793,53.2673374 77.1752793,53.2673374 Z" id="Fill-3063" fill="#D6D6D6"></path>
            <path d="M50.1465604,65.8784715 C50.2987111,66.1840982 50.6053177,66.443766 51.0294952,66.6666667 C51.0294952,66.6666667 67.2920905,68.1466005 69.0356497,66.1606093 C69.8917807,65.1854382 74.6569001,58.9083555 72.4166078,56.574132 C70.1763156,54.2399086 61.272,55 61.272,55 C56.3847369,55.041363 51.7925538,55.5561027 50.7021408,55.7031712 C48.6596337,55.9812225 47.9311548,61.4641192 50.1465604,65.8784715 Z" id="Fill-3064" fill="#000000"></path>
            <path d="M50.7021408,55.7031712 C48.6596337,55.9812225 47.9311548,61.4641192 50.1465604,65.8784715 C50.2987111,66.1840982 50.6053177,66.443766 51.0294952,66.6666667 L61.272,55 C56.3847369,55.041363 51.7925538,55.5561027 50.7021408,55.7031712" id="Fill-3064" fill="#736F9C"></path>
            <path d="M87.0239739,66.6666667 C87.0239739,66.6666667 100.347441,67.3420815 103.751278,65.9783938 C104.30463,65.756703 104.40628,65.7886875 104.907821,64.9213411 C106.190134,62.7037558 106.497978,58.7528331 105.632723,56.6924031 C105.377802,56.0853576 105.349364,56.0152944 104.907821,55.6737518 C104.111094,55.057467 97.88,55.0574773 97.88,55.0574773 C92.8501442,54.8795928 86.8979898,55.0508067 83.7127314,56.4916714 C81.5876411,57.4544714 83.9860932,65.2813909 87.0239739,66.6666667 Z" id="Fill-3065" fill="#000000"></path>
            <path d="M87.0239739,66.6666667 L97.88,55.0574773 C92.8501442,54.8795928 86.8979898,55.0508067 83.7127314,56.4916714 C81.5876411,57.4544714 83.9860932,65.2813909 87.0239739,66.6666667 Z" id="Fill-3065" fill="#736F9C"></path>
            <path d="M75.7602477,125.678374 C72.9233671,128.529699 68.3167282,128.528641 65.4809011,125.678374 C51.6852132,111.813503 43.2672732,99.0391859 33.7495548,108.610659 C29.3578151,113.025819 33.5377186,135.33966 33.5377186,135.33966 C33.658964,136.078947 34.2679592,136.452218 34.9247974,136.366754 C35.2763257,136.321016 36.122641,135.972736 35.984928,135.021246 C35.984928,135.021246 32.8341262,114.0232 35.9849282,110.856355 C38.8218087,108.00503 43.4273942,108.006089 46.2642747,110.856355 L63.2455277,127.924071 C67.3043843,132.003594 73.9135891,132.026887 77.9977279,127.921953 C81.7679453,124.02666 82.0671187,119.673969 80.207819,115.9682 C78.8815537,115.954435 77.5868911,115.873967 76.3248849,115.732089 C78.7172189,118.699881 79.0448349,122.378122 75.7602477,125.678374 Z" id="Fill-3244" fill="#FFFFFF" transform="translate(56.530892, 120.832639) rotate(-67.000000) translate(-56.530892, -120.832639) "></path>
            <path d="M32.9502502,93.2215943 C19.6565035,79.7615631 22.1937238,62.8959492 26.2674949,61.8107805 L32.6370379,60.1137613 C34.2808991,59.6757551 35.9824397,60.5354695 36.6303262,62.1265524 C38.5934359,66.9500528 41.2647942,74.1292793 32.3506533,76.8367685 C34.7483701,82.9057004 36.54649,84.726312 38.9435361,87.1533415 C41.3405822,89.580371 49.131988,93.8286912 49.131988,93.8286912 C51.8066998,84.803048 58.5679257,87.5227607 63.3318369,89.5104258 C64.8999101,90.1650583 65.7516864,91.8933151 65.3204327,93.5543431 L63.6443784,100.00288 C62.4881088,104.450171 45.9120053,106.345481 32.9502502,93.2215943" id="Fill-3210" fill="#F3B607"></path>
        </g>
    </g>
</svg>