<?xml version="1.0" encoding="UTF-8"?>
<svg width="245px" height="75px" viewBox="0 0 245 75" version="1.1" xmlns="http://www.w3.org/2000/svg" xmlns:xlink="http://www.w3.org/1999/xlink">
    <!-- Generator: Sketch 47.1 (45422) - http://www.bohemiancoding.com/sketch -->
    <title>assets/img_premium_bundle_ribbon</title>
    <desc>Created with Sketch.</desc>
    <defs>
        <linearGradient x1="18.0815858%" y1="0%" x2="87.1426245%" y2="100%" id="linearGradient-1">
            <stop stop-color="#F0386B" offset="0%"></stop>
            <stop stop-color="#E71F56" offset="100%"></stop>
        </linearGradient>
    </defs>
    <g id="Freshness" stroke="none" stroke-width="1" fill="none" fill-rule="evenodd">
        <g id="Freeform-Icons" transform="translate(-850.000000, -1650.000000)">
            <g id="assets/img_premium_bundle_ribbon" transform="translate(850.000000, 1650.000000)">
                <path d="M245,18 C245,16.3425 243.21,15 241,15 L195,15 L195,75 L241,75 C243.21,75 245,73.6575 245,72 L245,18 Z" id="Fill-6701" fill="#CF1C4E"></path>
                <polygon id="Fill-6702" fill="url(#linearGradient-1)" points="210 60 0 60 0 0 210 0"></polygon>
                <polygon id="Fill-6704" fill="#931538" points="195 60 210 60 195 75"></polygon>
                <path d="M27.2823529,27.2593583 L27.2686907,29.7860963 L15,29.7860963 L15,10.5347594 L27.2686907,10.5347594 L27.2686907,13.0614973 L18.2106262,13.0614973 L18.2106262,18.8636364 L25.4516129,18.8636364 L25.4516129,21.3101604 L18.2106262,21.3101604 L18.2106262,27.2593583 L27.2823529,27.2593583 Z M42.1605313,29.7860963 L39.3461101,29.7860963 C39.1184049,29.7860963 38.9385206,29.7281646 38.8064516,29.6122995 C38.6743826,29.4964344 38.5673628,29.3672021 38.485389,29.2245989 L35.2747628,24.184492 C35.192789,24.4875238 35.0834921,24.7504445 34.9468691,24.973262 L32.0368121,29.2245989 C31.9366219,29.3672021 31.8250481,29.4964344 31.7020873,29.6122995 C31.5791265,29.7281646 31.4174583,29.7860963 31.2170778,29.7860963 L28.5939279,29.7860963 L33.4166983,22.7540107 L28.7851992,16.1497326 L31.5996205,16.1497326 C31.8273256,16.1497326 31.9935479,16.1831547 32.0982922,16.25 C32.2030366,16.3168453 32.2963943,16.4171116 32.3783681,16.5508021 L35.5343454,21.3636364 C35.6163192,21.0695172 35.7438322,20.7887714 35.916888,20.5213904 L38.5810247,16.6042781 C38.7631888,16.3012463 38.9954445,16.1497326 39.2777989,16.1497326 L41.96926,16.1497326 L37.3377609,22.6336898 L42.1605313,29.7860963 Z M53.3635674,18.8235294 C53.2724853,18.9393945 53.1859587,19.0285202 53.1039848,19.0909091 C53.022011,19.153298 52.9036061,19.184492 52.7487666,19.184492 C52.5939271,19.184492 52.4322589,19.1310166 52.2637571,19.0240642 C52.0952553,18.9171118 51.8948778,18.7990203 51.6626186,18.6697861 C51.4303594,18.5405519 51.1502863,18.4224604 50.8223909,18.315508 C50.4944955,18.2085556 50.0846324,18.1550802 49.5927894,18.1550802 C48.955215,18.1550802 48.3973458,18.2664873 47.9191651,18.4893048 C47.4409843,18.7121223 47.0402293,19.0307466 46.716888,19.4451872 C46.3935468,19.8596277 46.152183,20.3631878 45.9927894,20.9558824 C45.8333958,21.5485769 45.7537002,22.2147913 45.7537002,22.9545455 C45.7537002,23.7210377 45.8402268,24.4028491 46.0132827,25 C46.1863386,25.5971509 46.4345335,26.100711 46.7578748,26.5106952 C47.081216,26.9206794 47.472863,27.2326193 47.9328273,27.4465241 C48.3927917,27.6604289 48.9096746,27.7673797 49.4834915,27.7673797 C50.0482002,27.7673797 50.5081576,27.7005354 50.8633776,27.5668449 C51.2185976,27.4331544 51.5146098,27.2860971 51.7514231,27.1256684 C51.9882365,26.9652398 52.190891,26.8181825 52.3593928,26.684492 C52.5278946,26.5508015 52.7077789,26.4839572 52.8990512,26.4839572 C53.1358646,26.4839572 53.3180259,26.5730829 53.4455408,26.7513369 L54.2789374,27.8074866 C53.9419338,28.2085582 53.568503,28.5472357 53.1586338,28.8235294 C52.7487646,29.0998231 52.3161313,29.3248654 51.8607211,29.4986631 C51.4053108,29.6724608 50.9316913,29.7972367 50.4398482,29.8729947 C49.9480051,29.9487526 49.4516154,29.986631 48.9506641,29.986631 C48.0853847,29.986631 47.2770436,29.828433 46.5256167,29.5120321 C45.7741898,29.1956312 45.1184089,28.736634 44.5582543,28.1350267 C43.9980997,27.5334195 43.5563584,26.7981327 43.2330171,25.9291444 C42.9096758,25.0601561 42.7480076,24.068633 42.7480076,22.9545455 C42.7480076,21.9474103 42.8937367,21.0138189 43.1851992,20.1537433 C43.4766618,19.2936677 43.902464,18.5516965 44.4626186,17.9278075 C45.0227732,17.3039184 45.7172634,16.8159554 46.5461101,16.4639037 C47.3749567,16.1118521 48.3313039,15.9358289 49.4151803,15.9358289 C50.426191,15.9358289 51.3165047,16.0962551 52.086148,16.4171123 C52.8557913,16.7379695 53.5411735,17.1925104 54.142315,17.7807487 L53.3635674,18.8235294 Z M59.6208729,10 L59.6208729,29.7860963 L56.6834915,29.7860963 L56.6834915,10 L59.6208729,10 Z M75.0045541,16.1497326 L75.0045541,29.7860963 L73.228463,29.7860963 C72.8368102,29.7860963 72.5863383,29.6033886 72.4770398,29.2379679 L72.258444,27.9679144 C71.9669815,28.2709463 71.6595842,28.5472358 71.3362429,28.7967914 C71.0129016,29.0463471 70.669072,29.2602487 70.3047438,29.4385027 C69.9404156,29.6167567 69.5510457,29.7549015 69.1366224,29.8529412 C68.7221991,29.9509809 68.2781807,30 67.8045541,30 C67.0394649,30 66.3654678,29.8752241 65.7825427,29.6256684 C65.1996176,29.3761128 64.7100589,29.0240664 64.313852,28.5695187 C63.9176451,28.114971 63.6193558,27.5690763 63.4189753,26.9318182 C63.2185948,26.2945601 63.1184061,25.5926955 63.1184061,24.8262032 L63.1184061,16.1497326 L66.0557875,16.1497326 L66.0557875,24.8262032 C66.0557875,25.7442114 66.2721041,26.4572167 66.7047438,26.9652406 C67.1373836,27.4732646 67.7954415,27.7272727 68.6789374,27.7272727 C69.3256199,27.7272727 69.9290295,27.5824435 70.4891841,27.2927807 C71.0493387,27.003118 71.5753296,26.6042806 72.0671727,26.0962567 L72.0671727,16.1497326 L75.0045541,16.1497326 Z M86.9043643,18.6229947 C86.8314987,18.7477725 86.7495261,18.8368981 86.658444,18.8903743 C86.567362,18.9438505 86.4535111,18.9705882 86.316888,18.9705882 C86.1620486,18.9705882 85.9935493,18.9237973 85.8113852,18.8302139 C85.6292211,18.7366305 85.4151815,18.6319079 85.16926,18.5160428 C84.9233384,18.4001777 84.6341573,18.295455 84.3017078,18.2018717 C83.9692583,18.1082883 83.5798884,18.0614973 83.1335863,18.0614973 C82.7692581,18.0614973 82.4390907,18.103832 82.143074,18.1885027 C81.8470573,18.2731733 81.5965855,18.393493 81.3916509,18.5494652 C81.1867162,18.7054375 81.0296021,18.8881451 80.9203036,19.0975936 C80.8110051,19.307042 80.7563567,19.5320844 80.7563567,19.7727273 C80.7563567,20.0935845 80.8565455,20.3609615 81.056926,20.5748663 C81.2573065,20.7887711 81.5214405,20.9737069 81.8493359,21.1296791 C82.1772312,21.2856514 82.550662,21.4260243 82.9696395,21.5508021 C83.3886169,21.6755799 83.8166961,21.8092684 84.2538899,21.9518717 C84.6910838,22.0944749 85.119163,22.2593574 85.5381404,22.4465241 C85.9571178,22.6336908 86.3305486,22.8631894 86.658444,23.1350267 C86.9863394,23.4068641 87.2504734,23.7366291 87.4508539,24.1243316 C87.6512344,24.512034 87.7514231,24.9821719 87.7514231,25.5347594 C87.7514231,26.1764738 87.6330183,26.7691595 87.3962049,27.3128342 C87.1593916,27.856509 86.813285,28.328875 86.3578748,28.7299465 C85.9024645,29.131018 85.3354873,29.4429579 84.656926,29.6657754 C83.9783647,29.8885929 83.2019019,30 82.3275142,30 C81.8447794,30 81.3779909,29.9576653 80.9271347,29.8729947 C80.4762786,29.788324 80.0481994,29.6724606 79.6428843,29.5254011 C79.2375691,29.3783415 78.8595843,29.2023183 78.5089184,28.9973262 C78.1582525,28.7923341 77.8463012,28.5695199 77.573055,28.328877 L78.256167,27.2326203 C78.3381408,27.0989298 78.4406066,26.9942072 78.5635674,26.9184492 C78.6865281,26.8426912 78.8390883,26.8048128 79.0212524,26.8048128 C79.2125247,26.8048128 79.4015171,26.8649727 79.5882353,26.9852941 C79.7749535,27.1056156 79.9935471,27.2370759 80.2440228,27.3796791 C80.4944984,27.5222824 80.7973417,27.6537427 81.1525617,27.7740642 C81.5077817,27.8943856 81.949523,27.9545455 82.4777989,27.9545455 C82.9149927,27.9545455 83.2929775,27.9032982 83.6117647,27.8008021 C83.9305519,27.6983061 84.1946859,27.5579332 84.4041746,27.3796791 C84.6136633,27.2014251 84.7685004,26.9986642 84.8686907,26.7713904 C84.968881,26.5441165 85.0189753,26.3012491 85.0189753,26.0427807 C85.0189753,25.6951854 84.9187866,25.4099833 84.7184061,25.1871658 C84.5180256,24.9643483 84.2516146,24.7727281 83.9191651,24.6122995 C83.5867156,24.4518709 83.2087308,24.3092698 82.7851992,24.184492 C82.3616677,24.0597142 81.9313115,23.9260257 81.4941176,23.7834225 C81.0569238,23.6408193 80.6265676,23.4759368 80.2030361,23.2887701 C79.7795045,23.1016033 79.4015197,22.8631922 79.0690702,22.5735294 C78.7366207,22.2838666 78.4702097,21.9318203 78.2698292,21.5173797 C78.0694487,21.1029391 77.96926,20.5971509 77.96926,20 C77.96926,19.4563253 78.0808338,18.9393964 78.3039848,18.4491979 C78.5271358,17.9589993 78.8550263,17.5267398 79.287666,17.1524064 C79.7203058,16.778073 80.2531278,16.4817301 80.886148,16.263369 C81.5191683,16.0450078 82.2500907,15.9358289 83.0789374,15.9358289 C84.0170825,15.9358289 84.8686869,16.0828862 85.6337761,16.3770053 C86.3988653,16.6711245 87.0409841,17.07219 87.5601518,17.5802139 L86.9043643,18.6229947 Z M93.571537,16.1497326 L93.571537,29.7860963 L90.6341556,29.7860963 L90.6341556,16.1497326 L93.571537,16.1497326 Z M94.0633776,12.0320856 C94.0633776,12.2905539 94.0110062,12.5356495 93.9062619,12.7673797 C93.8015175,12.9991099 93.6580654,13.2018708 93.4759013,13.3756684 C93.2937372,13.5494661 93.0819746,13.6876109 92.8406072,13.790107 C92.5992398,13.892603 92.3419369,13.9438503 92.0686907,13.9438503 C91.8045528,13.9438503 91.5563579,13.892603 91.3240987,13.790107 C91.0918394,13.6876109 90.8891849,13.5494661 90.716129,13.3756684 C90.5430731,13.2018708 90.4041751,12.9991099 90.2994307,12.7673797 C90.1946864,12.5356495 90.142315,12.2905539 90.142315,12.0320856 C90.142315,11.7647045 90.1946864,11.5151527 90.2994307,11.2834225 C90.4041751,11.0516922 90.5430731,10.8489314 90.716129,10.6751337 C90.8891849,10.501336 91.0918394,10.3631912 91.3240987,10.2606952 C91.5563579,10.1581991 91.8045528,10.1069519 92.0686907,10.1069519 C92.3419369,10.1069519 92.5992398,10.1581991 92.8406072,10.2606952 C93.0819746,10.3631912 93.2937372,10.501336 93.4759013,10.6751337 C93.6580654,10.8489314 93.8015175,11.0516922 93.9062619,11.2834225 C94.0110062,11.5151527 94.0633776,11.7647045 94.0633776,12.0320856 Z M109.542694,16.1497326 L103.941176,29.7860963 L101.290702,29.7860963 L95.6891841,16.1497326 L98.1074004,16.1497326 C98.3351055,16.1497326 98.5240979,16.2054362 98.6743833,16.3168449 C98.8246687,16.4282537 98.9225804,16.559714 98.9681214,16.7112299 L102.055787,24.6524064 C102.183302,25.0267398 102.297153,25.3966114 102.397343,25.7620321 C102.497534,26.1274528 102.58406,26.4973243 102.656926,26.8716578 C102.729792,26.4973243 102.818595,26.1296809 102.92334,25.7687166 C103.028084,25.4077522 103.144212,25.0356525 103.271727,24.6524064 L106.414042,16.7112299 C106.468691,16.5508013 106.56888,16.4171128 106.714611,16.3101604 C106.860342,16.203208 107.03795,16.1497326 107.247438,16.1497326 L109.542694,16.1497326 Z M120.281214,21.4304813 C120.281214,20.9491955 120.210627,20.501339 120.06945,20.0868984 C119.928273,19.6724578 119.721064,19.3114989 119.447818,19.0040107 C119.174572,18.6965225 118.835296,18.4558832 118.429981,18.2820856 C118.024666,18.1082879 117.557877,18.0213904 117.029602,18.0213904 C115.963942,18.0213904 115.125999,18.3199614 114.51575,18.9171123 C113.9055,19.5142632 113.518407,20.3520445 113.354459,21.4304813 L120.281214,21.4304813 Z M113.272486,23.1951872 C113.308919,23.9705921 113.431878,24.6412628 113.641366,25.2072193 C113.850855,25.7731757 114.130928,26.2433136 114.481594,26.6176471 C114.83226,26.9919805 115.251231,27.2704982 115.73852,27.4532086 C116.225809,27.6359189 116.770016,27.7272727 117.371157,27.7272727 C117.944974,27.7272727 118.441364,27.6626566 118.860342,27.5334225 C119.279319,27.4041883 119.643642,27.2615872 119.953321,27.105615 C120.263,26.9496427 120.527134,26.8070416 120.745731,26.6778075 C120.964327,26.5485733 121.164705,26.4839572 121.346869,26.4839572 C121.583682,26.4839572 121.765844,26.5730829 121.893359,26.7513369 L122.726755,27.8074866 C122.380643,28.2085582 121.988996,28.5472357 121.551803,28.8235294 C121.114609,29.0998231 120.650097,29.3248654 120.158254,29.4986631 C119.666411,29.6724608 119.160913,29.7972367 118.641746,29.8729947 C118.122578,29.9487526 117.61708,29.986631 117.125237,29.986631 C116.159767,29.986631 115.2649,29.828433 114.440607,29.5120321 C113.616315,29.1956312 112.901331,28.7299496 112.295636,28.1149733 C111.68994,27.4999969 111.21632,26.7379725 110.874763,25.828877 C110.533205,24.9197816 110.362429,23.8725549 110.362429,22.6871658 C110.362429,21.7424195 110.514989,20.8600754 110.820114,20.040107 C111.125239,19.2201385 111.562426,18.5071332 112.131689,17.9010695 C112.700952,17.2950059 113.393165,16.8159554 114.208349,16.4639037 C115.023533,16.1118521 115.945725,15.9358289 116.974953,15.9358289 C117.831124,15.9358289 118.623526,16.0717455 119.352182,16.3435829 C120.080839,16.6154203 120.709295,17.0142576 121.237571,17.540107 C121.765847,18.0659563 122.177987,18.7098892 122.474004,19.4719251 C122.77002,20.233961 122.918027,21.1007082 122.918027,22.0721925 C122.918027,22.5178275 122.867932,22.8163985 122.767742,22.9679144 C122.667552,23.1194303 122.48539,23.1951872 122.221252,23.1951872 L113.272486,23.1951872 Z M151.485769,20.1604278 C151.485769,21.5864599 151.248959,22.9010635 150.775332,24.1042781 C150.301705,25.3074926 149.634539,26.3435785 148.773814,27.2125668 C147.913089,28.0815551 146.879323,28.7611384 145.672486,29.2513369 C144.465649,29.7415354 143.124486,29.986631 141.648956,29.986631 C140.182535,29.986631 138.845926,29.7415354 137.639089,29.2513369 C136.432252,28.7611384 135.396209,28.0815551 134.53093,27.2125668 C133.66565,26.3435785 132.996207,25.3074926 132.522581,24.1042781 C132.048954,22.9010635 131.812144,21.5864599 131.812144,20.1604278 C131.812144,18.7343957 132.048954,17.4197921 132.522581,16.2165775 C132.996207,15.013363 133.66565,13.9750489 134.53093,13.1016043 C135.396209,12.2281596 136.432252,11.5463483 137.639089,11.0561497 C138.845926,10.5659512 140.182535,10.3208556 141.648956,10.3208556 C143.124486,10.3208556 144.465649,10.5659512 145.672486,11.0561497 C146.879323,11.5463483 147.913089,12.2281596 148.773814,13.1016043 C149.634539,13.9750489 150.301705,15.013363 150.775332,16.2165775 C151.248959,17.4197921 151.485769,18.7343957 151.485769,20.1604278 Z M148.220493,20.1604278 C148.220493,19.0552529 148.067933,18.0615017 147.762808,17.1791444 C147.457683,16.296787 147.020496,15.5481314 146.451233,14.9331551 C145.881971,14.3181787 145.192034,13.8458127 144.381404,13.5160428 C143.570774,13.1862729 142.659967,13.0213904 141.648956,13.0213904 C140.647054,13.0213904 139.740801,13.1862729 138.930171,13.5160428 C138.119541,13.8458127 137.427327,14.3181787 136.85351,14.9331551 C136.279694,15.5481314 135.837952,16.296787 135.528273,17.1791444 C135.218594,18.0615017 135.063757,19.0552529 135.063757,20.1604278 C135.063757,21.2745154 135.218594,22.2727229 135.528273,23.1550802 C135.837952,24.0374376 136.279694,24.783865 136.85351,25.394385 C137.427327,26.004905 138.119541,26.4728148 138.930171,26.7981283 C139.740801,27.1234419 140.647054,27.2860963 141.648956,27.2860963 C142.659967,27.2860963 143.570774,27.1234419 144.381404,26.7981283 C145.192034,26.4728148 145.881971,26.004905 146.451233,25.394385 C147.020496,24.783865 147.457683,24.0374376 147.762808,23.1550802 C148.067933,22.2727229 148.220493,21.2745154 148.220493,20.1604278 Z M155.256546,29.7860963 L155.256546,18.4358289 L153.890323,18.2486631 C153.662617,18.2040996 153.478179,18.1238865 153.337002,18.0080214 C153.195825,17.8921563 153.125237,17.7272738 153.125237,17.513369 L153.125237,16.3368984 L155.256546,16.3368984 L155.256546,15.4144385 C155.256546,14.6301209 155.372674,13.9304844 155.604934,13.315508 C155.837193,12.7005317 156.169637,12.1791465 156.602277,11.7513369 C157.034917,11.3235273 157.560908,10.9982186 158.180266,10.7754011 C158.799624,10.5525836 159.496391,10.4411765 160.270588,10.4411765 C160.589375,10.4411765 160.892219,10.4634579 161.179127,10.5080214 C161.466036,10.5525849 161.746109,10.6149729 162.019355,10.6951872 L161.964706,12.1524064 C161.946489,12.3841366 161.825808,12.5245096 161.602657,12.5735294 C161.379506,12.6225493 161.099432,12.6470588 160.762429,12.6470588 C160.35256,12.6470588 159.983683,12.6938498 159.655787,12.7874332 C159.327892,12.8810165 159.047819,13.0392146 158.81556,13.2620321 C158.583301,13.4848496 158.405693,13.7789643 158.282732,14.144385 C158.159772,14.5098057 158.098292,14.9598904 158.098292,15.4946524 L158.098292,16.3368984 L164.00038,16.3368984 L164.00038,15.013369 C164.00038,14.2290513 164.116507,13.5294148 164.348767,12.9144385 C164.581026,12.2994622 164.91347,11.778077 165.34611,11.3502674 C165.77875,10.9224578 166.304741,10.5971491 166.924099,10.3743316 C167.543457,10.151514 168.23567,10.040107 169.000759,10.040107 C169.319546,10.040107 169.624666,10.0623884 169.916129,10.1069519 C170.207592,10.1515154 170.489942,10.2139033 170.763188,10.2941176 L170.694877,11.7513369 C170.67666,11.9830671 170.555978,12.12344 170.332827,12.1724599 C170.109676,12.2214797 169.829603,12.2459893 169.4926,12.2459893 C169.08273,12.2459893 168.713854,12.2927803 168.385958,12.3863636 C168.058063,12.479947 167.77799,12.6381451 167.545731,12.8609626 C167.313471,13.0837801 167.135864,13.3778948 167.012903,13.7433155 C166.889942,14.1087362 166.828463,14.5588209 166.828463,15.0935829 L166.828463,16.3368984 L170.640228,16.3368984 L170.640228,18.4090909 L166.924099,18.4090909 L166.924099,29.7860963 L164.00038,29.7860963 L164.00038,18.4090909 L158.193928,18.4090909 L158.193928,29.7860963 L155.256546,29.7860963 Z M181.488046,21.4304813 C181.488046,20.9491955 181.417458,20.501339 181.276281,20.0868984 C181.135104,19.6724578 180.927895,19.3114989 180.654649,19.0040107 C180.381403,18.6965225 180.042127,18.4558832 179.636812,18.2820856 C179.231497,18.1082879 178.764709,18.0213904 178.236433,18.0213904 C177.170773,18.0213904 176.33283,18.3199614 175.722581,18.9171123 C175.112331,19.5142632 174.725238,20.3520445 174.56129,21.4304813 L181.488046,21.4304813 Z M174.479317,23.1951872 C174.51575,23.9705921 174.638709,24.6412628 174.848197,25.2072193 C175.057686,25.7731757 175.337759,26.2433136 175.688425,26.6176471 C176.039091,26.9919805 176.458062,27.2704982 176.945351,27.4532086 C177.43264,27.6359189 177.976847,27.7272727 178.577989,27.7272727 C179.151806,27.7272727 179.648195,27.6626566 180.067173,27.5334225 C180.48615,27.4041883 180.850473,27.2615872 181.160152,27.105615 C181.469831,26.9496427 181.733965,26.8070416 181.952562,26.6778075 C182.171159,26.5485733 182.371536,26.4839572 182.5537,26.4839572 C182.790514,26.4839572 182.972675,26.5730829 183.10019,26.7513369 L183.933586,27.8074866 C183.587475,28.2085582 183.195828,28.5472357 182.758634,28.8235294 C182.32144,29.0998231 181.856928,29.3248654 181.365085,29.4986631 C180.873242,29.6724608 180.367745,29.7972367 179.848577,29.8729947 C179.329409,29.9487526 178.823911,29.986631 178.332068,29.986631 C177.366599,29.986631 176.471731,29.828433 175.647438,29.5120321 C174.823146,29.1956312 174.108162,28.7299496 173.502467,28.1149733 C172.896771,27.4999969 172.423152,26.7379725 172.081594,25.828877 C171.740036,24.9197816 171.56926,23.8725549 171.56926,22.6871658 C171.56926,21.7424195 171.72182,20.8600754 172.026945,20.040107 C172.33207,19.2201385 172.769257,18.5071332 173.33852,17.9010695 C173.907783,17.2950059 174.599996,16.8159554 175.41518,16.4639037 C176.230365,16.1118521 177.152557,15.9358289 178.181784,15.9358289 C179.037955,15.9358289 179.830357,16.0717455 180.559013,16.3435829 C181.28767,16.6154203 181.916126,17.0142576 182.444402,17.540107 C182.972678,18.0659563 183.384818,18.7098892 183.680835,19.4719251 C183.976852,20.233961 184.124858,21.1007082 184.124858,22.0721925 C184.124858,22.5178275 184.074763,22.8163985 183.974573,22.9679144 C183.874383,23.1194303 183.692221,23.1951872 183.428083,23.1951872 L174.479317,23.1951872 Z M189.63074,18.6764706 C190.067934,17.8119386 190.596202,17.1323554 191.21556,16.6377005 C191.834918,16.1430457 192.577225,15.8957219 193.442505,15.8957219 C193.743076,15.8957219 194.025426,15.9291441 194.289564,15.9959893 C194.553702,16.0628346 194.790511,16.1631009 195,16.2967914 L194.795066,18.4625668 C194.758634,18.6140828 194.701708,18.7188054 194.624288,18.776738 C194.546869,18.8346705 194.444403,18.8636364 194.316888,18.8636364 C194.180265,18.8636364 193.984442,18.8391268 193.729412,18.790107 C193.474382,18.7410871 193.205694,18.7165775 192.92334,18.7165775 C192.51347,18.7165775 192.151425,18.7745092 191.837192,18.8903743 C191.522959,19.0062394 191.240608,19.1755782 190.990133,19.3983957 C190.739657,19.6212132 190.518787,19.8930465 190.327514,20.2139037 C190.136242,20.534761 189.958635,20.9001762 189.794687,21.3101604 L189.794687,29.7860963 L186.857306,29.7860963 L186.857306,16.1497326 L188.565085,16.1497326 C188.874764,16.1497326 189.088804,16.2054362 189.207211,16.3168449 C189.325617,16.4282537 189.40759,16.622102 189.453131,16.8983957 L189.63074,18.6764706 Z" id="Exclusive-Offer" fill="#FFFFFF"></path>
                <path d="M16.9782739,41.6925152 L16.9782739,44.3964936 L20.3976745,44.3964936 L20.3976745,45.9878624 L16.9782739,45.9878624 L16.9782739,49.8921106 L15,49.8921106 L15,40.1078894 L21.0527321,40.1078894 L21.0527321,41.6925152 L16.9782739,41.6925152 Z M31.5140019,44.9966285 C31.5140019,45.7113994 31.3971844,46.3744631 31.163546,46.9858395 C30.9299077,47.5972159 30.6001986,48.1254192 30.1744091,48.5704653 C29.7486195,49.0155113 29.236588,49.3650246 28.638299,49.6190155 C28.0400101,49.8730064 27.3762251,50 26.646924,50 C25.9176229,50 25.2538378,49.8730064 24.6555489,49.6190155 C24.05726,49.3650246 23.5441366,49.0155113 23.1161635,48.5704653 C22.6881904,48.1254192 22.3573897,47.5972159 22.1237513,46.9858395 C21.8901129,46.3744631 21.7732955,45.7113994 21.7732955,44.9966285 C21.7732955,44.2818575 21.8901129,43.6199176 22.1237513,43.0107889 C22.3573897,42.4016602 22.6881904,41.8745808 23.1161635,41.4295347 C23.5441366,40.9844887 24.05726,40.6349754 24.6555489,40.3809845 C25.2538378,40.1269936 25.9176229,40 26.646924,40 C27.3762251,40 28.0400101,40.1269936 28.638299,40.3809845 C29.236588,40.6349754 29.7486195,40.9856125 30.1744091,41.4329063 C30.6001986,41.8802 30.9299077,42.4084033 31.163546,43.017532 C31.3971844,43.6266607 31.5140019,44.2863529 31.5140019,44.9966285 Z M29.5029751,44.9966285 C29.5029751,44.4841512 29.4374699,44.0245019 29.3064578,43.6176669 C29.1754456,43.2108319 28.9865726,42.8646901 28.739833,42.5792313 C28.4930934,42.2937725 28.1939534,42.0757481 27.8424041,41.9251517 C27.4908547,41.7745553 27.0923653,41.6992583 26.646924,41.6992583 C26.2014826,41.6992583 25.8019014,41.7745553 25.4481686,41.9251517 C25.0944357,42.0757481 24.794204,42.2937725 24.5474644,42.5792313 C24.3007248,42.8646901 24.1118517,43.2108319 23.9808396,43.6176669 C23.8498274,44.0245019 23.7843223,44.4841512 23.7843223,44.9966285 C23.7843223,45.5136011 23.8498274,45.9754981 23.9808396,46.3823331 C24.1118517,46.7891681 24.3007248,47.134186 24.5474644,47.4173972 C24.794204,47.7006083 25.0944357,47.9175088 25.4481686,48.0681052 C25.8019014,48.2187016 26.2014826,48.2939987 26.646924,48.2939987 C27.0923653,48.2939987 27.4908547,48.2187016 27.8424041,48.0681052 C28.1939534,47.9175088 28.4930934,47.7006083 28.739833,47.4173972 C28.9865726,47.134186 29.1754456,46.7891681 29.3064578,46.3823331 C29.4374699,45.9754981 29.5029751,45.5136011 29.5029751,44.9966285 Z M35.92909,44.7403911 C36.2478863,44.7403911 36.5230077,44.6988091 36.7544626,44.615644 C36.9859174,44.5324788 37.1758822,44.4178474 37.3243627,44.2717465 C37.4728431,44.1256455 37.5820183,43.9536984 37.6518915,43.7559002 C37.7217646,43.558102 37.7567007,43.3423253 37.7567007,43.1085637 C37.7567007,42.645536 37.6071307,42.2859082 37.3079862,42.0296696 C37.0088418,41.773431 36.5535813,41.6453136 35.9421912,41.6453136 L34.9203013,41.6453136 L34.9203013,44.7403911 L35.92909,44.7403911 Z M40.5341449,49.8921106 L38.7589388,49.8921106 C38.4270413,49.8921106 38.1868559,49.7617455 38.0383755,49.5010115 L36.2304165,46.5003372 C36.1561763,46.3834564 36.0742949,46.2980448 35.9847699,46.2440998 C35.8952449,46.1901548 35.763143,46.1631827 35.5884601,46.1631827 L34.9203013,46.1631827 L34.9203013,49.8921106 L32.9551286,49.8921106 L32.9551286,40.1078894 L35.9421912,40.1078894 C36.6059862,40.1078894 37.1736971,40.1786911 37.6453409,40.3202967 C38.1169847,40.4619023 38.5034648,40.6585737 38.8047928,40.9103169 C39.1061208,41.1620601 39.3266547,41.4621246 39.466401,41.8105192 C39.6061473,42.1589139 39.6760194,42.5421422 39.6760194,42.9602158 C39.6760194,43.2838856 39.6312576,43.5906931 39.5417326,43.8806473 C39.4522076,44.1706016 39.3222892,44.4347032 39.1519734,44.6729602 C38.9816575,44.9112172 38.7720412,45.1224985 38.5231181,45.3068105 C38.2741949,45.4911225 37.9903395,45.639469 37.6715432,45.7518543 C37.7981883,45.823781 37.9160975,45.9103164 38.0252743,46.0114633 C38.1344511,46.1126101 38.2327088,46.2328606 38.3200502,46.3722185 L40.5341449,49.8921106 Z M47.7856324,44.9763992 C48.4013896,44.9763992 48.8522831,44.8235574 49.1383263,44.5178692 C49.4243696,44.212181 49.567389,43.7941137 49.567389,43.2636548 C49.567389,43.0209024 49.5313612,42.7995065 49.4593045,42.5994606 C49.3872479,42.3994146 49.2780727,42.2285914 49.1317758,42.0869858 C48.9854788,41.9453803 48.8009728,41.8363681 48.5782521,41.7599461 C48.3555314,41.683524 48.0913275,41.6453136 47.7856324,41.6453136 L46.541023,41.6453136 L46.541023,44.9763992 L47.7856324,44.9763992 Z M47.7856324,40.1078894 C48.4363262,40.1078894 48.9985783,40.186558 49.4724057,40.3438975 C49.9462331,40.501237 50.3359884,40.7203852 50.6416835,41.0013486 C50.9473786,41.282312 51.1733712,41.6160916 51.3196681,42.0026972 C51.465965,42.3893029 51.5391124,42.8096179 51.5391124,43.2636548 C51.5391124,43.7446641 51.4626898,44.1852082 51.3098422,44.5853001 C51.1569947,44.985392 50.9255433,45.329286 50.6154812,45.6169926 C50.3054191,45.9046991 49.9145719,46.1283427 49.4429281,46.2879299 C48.9712843,46.4475171 48.4188579,46.5273095 47.7856324,46.5273095 L46.541023,46.5273095 L46.541023,49.8921106 L44.5758502,49.8921106 L44.5758502,40.1078894 L47.7856324,40.1078894 Z M61.9741798,44.9966285 C61.9741798,45.7113994 61.8573624,46.3744631 61.623724,46.9858395 C61.3900856,47.5972159 61.0603766,48.1254192 60.634587,48.5704653 C60.2087975,49.0155113 59.6967659,49.3650246 59.098477,49.6190155 C58.5001881,49.8730064 57.836403,50 57.1071019,50 C56.3778008,50 55.7140158,49.8730064 55.1157268,49.6190155 C54.5174379,49.3650246 54.0043146,49.0155113 53.5763415,48.5704653 C53.1483684,48.1254192 52.8175676,47.5972159 52.5839293,46.9858395 C52.3502909,46.3744631 52.2334734,45.7113994 52.2334734,44.9966285 C52.2334734,44.2818575 52.3502909,43.6199176 52.5839293,43.0107889 C52.8175676,42.4016602 53.1483684,41.8745808 53.5763415,41.4295347 C54.0043146,40.9844887 54.5174379,40.6349754 55.1157268,40.3809845 C55.7140158,40.1269936 56.3778008,40 57.1071019,40 C57.836403,40 58.5001881,40.1269936 59.098477,40.3809845 C59.6967659,40.6349754 60.2087975,40.9856125 60.634587,41.4329063 C61.0603766,41.8802 61.3900856,42.4084033 61.623724,43.017532 C61.8573624,43.6266607 61.9741798,44.2863529 61.9741798,44.9966285 Z M59.963153,44.9966285 C59.963153,44.4841512 59.8976479,44.0245019 59.7666357,43.6176669 C59.6356236,43.2108319 59.4467505,42.8646901 59.2000109,42.5792313 C58.9532713,42.2937725 58.6541313,42.0757481 58.302582,41.9251517 C57.9510327,41.7745553 57.5525433,41.6992583 57.1071019,41.6992583 C56.6616605,41.6992583 56.2620794,41.7745553 55.9083465,41.9251517 C55.5546137,42.0757481 55.2543819,42.2937725 55.0076423,42.5792313 C54.7609027,42.8646901 54.5720297,43.2108319 54.4410175,43.6176669 C54.3100053,44.0245019 54.2445002,44.4841512 54.2445002,44.9966285 C54.2445002,45.5136011 54.3100053,45.9754981 54.4410175,46.3823331 C54.5720297,46.7891681 54.7609027,47.134186 55.0076423,47.4173972 C55.2543819,47.7006083 55.5546137,47.9175088 55.9083465,48.0681052 C56.2620794,48.2187016 56.6616605,48.2939987 57.1071019,48.2939987 C57.5525433,48.2939987 57.9510327,48.2187016 58.302582,48.0681052 C58.6541313,47.9175088 58.9532713,47.7006083 59.2000109,47.4173972 C59.4467505,47.134186 59.6356236,46.7891681 59.7666357,46.3823331 C59.8976479,45.9754981 59.963153,45.5136011 59.963153,44.9966285 Z M75.9858617,40.1078894 L73.0381025,49.8921106 L71.2628964,49.8921106 L69.3173754,43.4929198 C69.2868059,43.4030115 69.2562368,43.3041138 69.2256673,43.1962239 C69.1950978,43.0883339 69.1667123,42.9737026 69.1405099,42.8523264 C69.1143074,42.9737026 69.0859219,43.0883339 69.0553524,43.1962239 C69.0247829,43.3041138 68.9942138,43.4030115 68.9636443,43.4929198 L66.9984715,49.8921106 L65.2167149,49.8921106 L62.2755063,40.1078894 L63.9262514,40.1078894 C64.0965673,40.1078894 64.2395867,40.1483475 64.3553142,40.229265 C64.4710416,40.3101825 64.5463724,40.4180708 64.581309,40.5529332 L66.0551886,46.0687795 C66.0901252,46.2216236 66.126153,46.3868276 66.1632731,46.5643965 C66.2003932,46.7419654 66.236421,46.9296461 66.2713576,47.1274444 C66.3106613,46.9251507 66.3521478,46.7363461 66.3958185,46.5610249 C66.4394893,46.3857038 66.4875263,46.2216236 66.5399312,46.0687795 L68.2561821,40.5529332 C68.2911187,40.4405479 68.3664496,40.3382787 68.482177,40.2461227 C68.5979044,40.1539667 68.7387404,40.1078894 68.9046891,40.1078894 L69.4811398,40.1078894 C69.6514556,40.1078894 69.7901081,40.1494714 69.8971014,40.2326365 C70.0040946,40.3158017 70.0837925,40.4225662 70.1361974,40.5529332 L71.8458977,46.0687795 C71.8983026,46.2126328 71.9463396,46.3688461 71.9900104,46.5374241 C72.0336811,46.7060022 72.0751677,46.8846922 72.1144713,47.0734997 C72.1494079,46.8846922 72.1832522,46.7060022 72.2160052,46.5374241 C72.2487583,46.3688461 72.2826026,46.2126328 72.3175392,46.0687795 L73.7914187,40.5529332 C73.8219883,40.4360525 73.8962274,40.3326595 74.0141383,40.2427512 C74.1320493,40.1528429 74.273977,40.1078894 74.4399258,40.1078894 L75.9858617,40.1078894 Z M79.0318795,41.6925152 L79.0318795,44.2076871 L82.2023582,44.2076871 L82.2023582,45.7383682 L79.0318795,45.7383682 L79.0318795,48.3074848 L83.1063377,48.3074848 L83.1063377,49.8921106 L77.0536055,49.8921106 L77.0536055,40.1078894 L83.1063377,40.1078894 L83.1063377,41.6925152 L79.0318795,41.6925152 Z M87.5476281,44.7403911 C87.8664244,44.7403911 88.1415459,44.6988091 88.3730007,44.615644 C88.6044555,44.5324788 88.7944204,44.4178474 88.9429008,44.2717465 C89.0913813,44.1256455 89.2005564,43.9536984 89.2704296,43.7559002 C89.3403028,43.558102 89.3752388,43.3423253 89.3752388,43.1085637 C89.3752388,42.645536 89.2256688,42.2859082 88.9265244,42.0296696 C88.6273799,41.773431 88.1721194,41.6453136 87.5607293,41.6453136 L86.5388395,41.6453136 L86.5388395,44.7403911 L87.5476281,44.7403911 Z M92.152683,49.8921106 L90.3774769,49.8921106 C90.0455794,49.8921106 89.805394,49.7617455 89.6569136,49.5010115 L87.8489546,46.5003372 C87.7747144,46.3834564 87.692833,46.2980448 87.603308,46.2440998 C87.5137831,46.1901548 87.3816811,46.1631827 87.2069982,46.1631827 L86.5388395,46.1631827 L86.5388395,49.8921106 L84.5736667,49.8921106 L84.5736667,40.1078894 L87.5607293,40.1078894 C88.2245243,40.1078894 88.7922352,40.1786911 89.263879,40.3202967 C89.7355229,40.4619023 90.122003,40.6585737 90.423331,40.9103169 C90.724659,41.1620601 90.9451928,41.4621246 91.0849391,41.8105192 C91.2246855,42.1589139 91.2945576,42.5421422 91.2945576,42.9602158 C91.2945576,43.2838856 91.2497957,43.5906931 91.1602708,43.8806473 C91.0707458,44.1706016 90.9408273,44.4347032 90.7705115,44.6729602 C90.6001957,44.9112172 90.3905793,45.1224985 90.1416562,45.3068105 C89.8927331,45.4911225 89.6088776,45.639469 89.2900813,45.7518543 C89.4167264,45.823781 89.5346356,45.9103164 89.6438124,46.0114633 C89.7529892,46.1126101 89.8512469,46.2328606 89.9385884,46.3722185 L92.152683,49.8921106 Z M100.08543,48.2737694 C100.404227,48.2737694 100.690266,48.2187014 100.943556,48.1085637 C101.196846,47.9984261 101.410829,47.8422127 101.585512,47.6399191 C101.760195,47.4376254 101.893389,47.192629 101.985097,46.9049225 C102.076806,46.6172159 102.12266,46.2935509 102.12266,45.9339177 L102.12266,40.1078894 L104.087832,40.1078894 L104.087832,45.9339177 C104.087832,46.5273125 103.995033,47.0723733 103.809433,47.5691167 C103.623832,48.06586 103.358537,48.4940418 103.013538,48.853675 C102.668539,49.2133082 102.249306,49.4942674 101.755827,49.696561 C101.262348,49.8988547 100.705555,50 100.08543,50 C99.4653061,50 98.907421,49.8988547 98.4117583,49.696561 C97.9160956,49.4942674 97.4957711,49.2133082 97.1507724,48.853675 C96.8057737,48.4940418 96.540478,48.06586 96.3548774,47.5691167 C96.1692769,47.0723733 96.076478,46.5273125 96.076478,45.9339177 L96.076478,40.1078894 L98.0416507,40.1078894 L98.0416507,45.9339177 C98.0416507,46.2935509 98.0875043,46.6172159 98.1792128,46.9049225 C98.2709214,47.192629 98.4041151,47.4376254 98.578798,47.6399191 C98.7534809,47.8422127 98.9674642,47.9984261 99.2207544,48.1085637 C99.4740446,48.2187014 99.7622671,48.2737694 100.08543,48.2737694 Z M111.11005,41.982468 C111.048911,42.0858625 110.986681,42.1611596 110.923358,42.2083614 C110.860036,42.2555633 110.778154,42.2791639 110.677712,42.2791639 C110.581636,42.2791639 110.47792,42.2443249 110.366559,42.174646 C110.255199,42.1049671 110.125281,42.02967 109.9768,41.9487525 C109.82832,41.8678351 109.658006,41.792538 109.465855,41.7228591 C109.273704,41.6531801 109.048803,41.6183412 108.791146,41.6183412 C108.33697,41.6183412 107.996344,41.722858 107.769256,41.9318948 C107.542168,42.1409316 107.428626,42.4140239 107.428626,42.75118 C107.428626,42.9669599 107.490856,43.14565 107.615317,43.2872556 C107.739779,43.4288611 107.903542,43.5513593 108.106611,43.6547539 C108.309679,43.7581484 108.540039,43.850303 108.797696,43.9312205 C109.055354,44.012138 109.319558,44.1009211 109.590316,44.1975725 C109.861075,44.2942239 110.125278,44.4077314 110.382936,44.5380984 C110.640593,44.6684655 110.870953,44.8325457 111.074022,45.0303439 C111.27709,45.2281421 111.440853,45.4697671 111.565315,45.7552259 C111.689776,46.0406847 111.752006,46.3879503 111.752006,46.797033 C111.752006,47.2420791 111.676675,47.6590226 111.526011,48.0478759 C111.375347,48.4367293 111.158089,48.776128 110.874229,49.0660823 C110.590369,49.3560365 110.239917,49.5841754 109.822862,49.7505057 C109.405806,49.9168361 108.933078,50 108.404662,50 C108.103334,50 107.803102,49.9685326 107.503958,49.9055968 C107.204813,49.842661 106.916591,49.7550017 106.639282,49.6426163 C106.361973,49.530231 106.101044,49.3953705 105.856488,49.238031 C105.611932,49.0806915 105.397948,48.905373 105.214531,48.7120701 L105.790982,47.7545516 C105.83902,47.6826249 105.902341,47.6230616 105.980949,47.5758597 C106.059556,47.5286579 106.142529,47.5050573 106.229871,47.5050573 C106.347782,47.5050573 106.472241,47.5500108 106.603253,47.6399191 C106.734266,47.7298274 106.884927,47.828725 107.055243,47.936615 C107.225559,48.0445049 107.423166,48.1434026 107.64807,48.2333109 C107.872975,48.3232192 108.142637,48.3681726 108.457066,48.3681726 C108.915609,48.3681726 109.270428,48.2602843 109.521535,48.0445044 C109.772642,47.8287245 109.898193,47.5073071 109.898193,47.0802428 C109.898193,46.8329949 109.835963,46.632952 109.711502,46.4801079 C109.58704,46.3272638 109.424369,46.1991464 109.223484,46.0957519 C109.022598,45.9923573 108.793331,45.9035742 108.535673,45.8293999 C108.278016,45.7552255 108.013812,45.6731854 107.743054,45.5832771 C107.472295,45.4933688 107.208091,45.3854805 106.950434,45.2596089 C106.692777,45.1337373 106.463509,44.9674094 106.262624,44.7606204 C106.061738,44.5538313 105.899067,44.2975965 105.774606,43.9919083 C105.650144,43.6862201 105.587914,43.3063633 105.587914,42.8523264 C105.587914,42.4881978 105.657786,42.135313 105.797533,41.7936615 C105.937279,41.45201 106.142528,41.148574 106.413287,40.8833446 C106.684045,40.6181151 107.01703,40.4045861 107.41225,40.2427512 C107.80747,40.0809163 108.260547,40 108.771494,40 C109.343581,40 109.87308,40.0910308 110.360009,40.2730951 C110.846937,40.4551594 111.258528,40.7080227 111.594792,41.0316925 L111.11005,41.982468 Z M115.158306,41.6925152 L115.158306,44.2076871 L118.328784,44.2076871 L118.328784,45.7383682 L115.158306,45.7383682 L115.158306,48.3074848 L119.232764,48.3074848 L119.232764,49.8921106 L113.180032,49.8921106 L113.180032,40.1078894 L119.232764,40.1078894 L119.232764,41.6925152 L115.158306,41.6925152 Z M123.674054,44.7403911 C123.992851,44.7403911 124.267972,44.6988091 124.499427,44.615644 C124.730882,44.5324788 124.920846,44.4178474 125.069327,44.2717465 C125.217807,44.1256455 125.326983,43.9536984 125.396856,43.7559002 C125.466729,43.558102 125.501665,43.3423253 125.501665,43.1085637 C125.501665,42.645536 125.352095,42.2859082 125.05295,42.0296696 C124.753806,41.773431 124.298546,41.6453136 123.687155,41.6453136 L122.665266,41.6453136 L122.665266,44.7403911 L123.674054,44.7403911 Z M128.279109,49.8921106 L126.503903,49.8921106 C126.172006,49.8921106 125.93182,49.7617455 125.78334,49.5010115 L123.975381,46.5003372 C123.901141,46.3834564 123.819259,46.2980448 123.729734,46.2440998 C123.640209,46.1901548 123.508107,46.1631827 123.333424,46.1631827 L122.665266,46.1631827 L122.665266,49.8921106 L120.700093,49.8921106 L120.700093,40.1078894 L123.687155,40.1078894 C124.35095,40.1078894 124.918661,40.1786911 125.390305,40.3202967 C125.861949,40.4619023 126.248429,40.6585737 126.549757,40.9103169 C126.851085,41.1620601 127.071619,41.4621246 127.211365,41.8105192 C127.351112,42.1589139 127.420984,42.5421422 127.420984,42.9602158 C127.420984,43.2838856 127.376222,43.5906931 127.286697,43.8806473 C127.197172,44.1706016 127.067253,44.4347032 126.896938,44.6729602 C126.726622,44.9112172 126.517005,45.1224985 126.268082,45.3068105 C126.019159,45.4911225 125.735304,45.639469 125.416507,45.7518543 C125.543153,45.823781 125.661062,45.9103164 125.770239,46.0114633 C125.879415,46.1126101 125.977673,46.2328606 126.065014,46.3722185 L128.279109,49.8921106 Z M134.358044,41.982468 C134.296905,42.0858625 134.234675,42.1611596 134.171352,42.2083614 C134.10803,42.2555633 134.026148,42.2791639 133.925706,42.2791639 C133.82963,42.2791639 133.725914,42.2443249 133.614553,42.174646 C133.503193,42.1049671 133.373274,42.02967 133.224794,41.9487525 C133.076313,41.8678351 132.906,41.792538 132.713849,41.7228591 C132.521698,41.6531801 132.296797,41.6183412 132.03914,41.6183412 C131.584964,41.6183412 131.244338,41.722858 131.01725,41.9318948 C130.790162,42.1409316 130.67662,42.4140239 130.67662,42.75118 C130.67662,42.9669599 130.73885,43.14565 130.863311,43.2872556 C130.987773,43.4288611 131.151536,43.5513593 131.354605,43.6547539 C131.557673,43.7581484 131.788033,43.850303 132.04569,43.9312205 C132.303348,44.012138 132.567551,44.1009211 132.83831,44.1975725 C133.109068,44.2942239 133.373272,44.4077314 133.63093,44.5380984 C133.888587,44.6684655 134.118947,44.8325457 134.322015,45.0303439 C134.525084,45.2281421 134.688847,45.4697671 134.813309,45.7552259 C134.93777,46.0406847 135,46.3879503 135,46.797033 C135,47.2420791 134.924669,47.6590226 134.774005,48.0478759 C134.623341,48.4367293 134.406083,48.776128 134.122223,49.0660823 C133.838363,49.3560365 133.487911,49.5841754 133.070855,49.7505057 C132.6538,49.9168361 132.181071,50 131.652656,50 C131.351328,50 131.051096,49.9685326 130.751952,49.9055968 C130.452807,49.842661 130.164585,49.7550017 129.887276,49.6426163 C129.609966,49.530231 129.349038,49.3953705 129.104482,49.238031 C128.859926,49.0806915 128.645942,48.905373 128.462525,48.7120701 L129.038976,47.7545516 C129.087014,47.6826249 129.150335,47.6230616 129.228943,47.5758597 C129.30755,47.5286579 129.390523,47.5050573 129.477865,47.5050573 C129.595775,47.5050573 129.720235,47.5500108 129.851247,47.6399191 C129.98226,47.7298274 130.132921,47.828725 130.303237,47.936615 C130.473553,48.0445049 130.67116,48.1434026 130.896064,48.2333109 C131.120968,48.3232192 131.390631,48.3681726 131.70506,48.3681726 C132.163603,48.3681726 132.518422,48.2602843 132.769529,48.0445044 C133.020636,47.8287245 133.146187,47.5073071 133.146187,47.0802428 C133.146187,46.8329949 133.083957,46.632952 132.959496,46.4801079 C132.835034,46.3272638 132.672363,46.1991464 132.471478,46.0957519 C132.270592,45.9923573 132.041325,45.9035742 131.783667,45.8293999 C131.52601,45.7552255 131.261806,45.6731854 130.991048,45.5832771 C130.720289,45.4933688 130.456085,45.3854805 130.198428,45.2596089 C129.940771,45.1337373 129.711503,44.9674094 129.510617,44.7606204 C129.309732,44.5538313 129.147061,44.2975965 129.022599,43.9919083 C128.898138,43.6862201 128.835908,43.3063633 128.835908,42.8523264 C128.835908,42.4881978 128.90578,42.135313 129.045527,41.7936615 C129.185273,41.45201 129.390522,41.148574 129.661281,40.8833446 C129.932039,40.6181151 130.265023,40.4045861 130.660243,40.2427512 C131.055464,40.0809163 131.50854,40 132.019488,40 C132.591574,40 133.121074,40.0910308 133.608003,40.2730951 C134.094931,40.4551594 134.506522,40.7080227 134.842786,41.0316925 L134.358044,41.982468 Z" id="FOR-POWER-USERS" fill="#FFFFFF"></path>
            </g>
        </g>
    </g>
</svg>