<?xml version="1.0" encoding="UTF-8" standalone="no"?>
<svg width="150px" height="150px" viewBox="0 0 150 150" version="1.1" xmlns="http://www.w3.org/2000/svg" xmlns:xlink="http://www.w3.org/1999/xlink">
    <!-- Generator: Sketch 39.1 (31720) - http://www.bohemiancoding.com/sketch -->
    <title>assets/img_phone_no_bg</title>
    <desc>Created with Sketch.</desc>
    <defs></defs>
    <g id="Freshness" stroke="none" stroke-width="1" fill="none" fill-rule="evenodd">
        <g id="assets/img_phone_no_bg">
            <path d="M111.012287,109.847261 C116.450492,116.509081 117.195222,124.76565 109.728765,132.173746 C103.280025,138.574132 92.8083069,138.571755 86.361962,132.173746 C55.001883,101.051187 35.8663918,72.3766028 14.2309066,93.8617449 C4.24769273,103.77248 5.03073685,118.576788 13.943551,127.422773 L35.638902,148.955448 C37.0373661,150.343426 39.3098703,150.352933 40.7203076,148.955448 C42.1259556,147.56034 42.1211663,145.302499 40.7203076,143.914521 L19.022562,122.381845 C12.9114653,116.314194 12.1499729,106.011308 19.3123122,98.9026726 C25.7610518,92.5022868 36.2303757,92.5046634 42.6791152,98.9026726 L81.2805564,137.214674 C90.5070671,146.372003 105.530978,146.424289 114.81496,137.20992 C123.385342,128.466133 124.065417,118.695622 119.838894,110.37726 C116.824055,110.346363 113.881054,110.165735 111.012287,109.847261" id="Fill-3244" fill="#999999"></path>
            <path d="M117.894959,61.9009515 C106.318967,63.4323241 97.3889169,73.4819567 97.3889169,85.6132989 C97.3889169,85.8166844 97.4219912,86.0081059 97.4267161,86.2090986 C80.832887,79.3968833 68.1205587,64.8608076 63.6744331,47.0155313 C64.9147179,47.2189168 66.183352,47.3289842 67.4803355,47.3289842 C78.0404745,47.3289842 86.9469004,40.3420967 89.9944572,30.6753072 L62.5664454,0 C46.8325471,3.38576909 43.0526316,17.2997247 43.0526316,32.9723661 C43.0526316,73.0440798 72.7982041,110.4 119.794366,110.4 C130.968741,110.4 141.543055,101.668783 144,91.1166692 L117.894959,61.9009515 Z" id="Fill-3245" fill="#3B2469"></path>
            <path d="M105.54386,67.3997232 L138.695624,101.160004 C141.238528,98.2473239 143.092827,94.7004122 144,90.7825348 L118.030413,61.5600037 C113.26423,62.1942355 108.965735,64.3051505 105.54386,67.3997232" id="Fill-3246" fill="#736F9C"></path>
            <path d="M47.8596491,9.82735157 L80.8422835,43.2 C85.0790424,40.2148099 88.3141698,35.8799199 89.9210526,30.7885257 L62.364318,0 C56.3663965,1.28965977 51.2443092,4.89926618 47.8596491,9.82735157" id="Fill-3247" fill="#736F9C"></path>
        </g>
    </g>
</svg>