<?xml version="1.0" encoding="UTF-8"?>
<svg width="80px" height="80px" viewBox="0 0 80 80" version="1.1" xmlns="http://www.w3.org/2000/svg" xmlns:xlink="http://www.w3.org/1999/xlink">
    <!-- Generator: Sketch 49.2 (51160) - http://www.bohemiancoding.com/sketch -->
    <title>assets/img_domain_icloud</title>
    <desc>Created with Sketch.</desc>
    <defs>
        <linearGradient x1="0%" y1="66.4874433%" x2="100%" y2="66.4874434%" id="linearGradient-1">
            <stop stop-color="#20C0FF" stop-opacity="0.409278759" offset="0%"></stop>
            <stop stop-color="#009BFF" offset="100%"></stop>
        </linearGradient>
        <linearGradient x1="47.4575433%" y1="108.373297%" x2="100%" y2="31.7718924%" id="linearGradient-2">
            <stop stop-color="#4BCDFF" stop-opacity="0" offset="0%"></stop>
            <stop stop-color="#1A8CF7" offset="100%"></stop>
        </linearGradient>
        <linearGradient x1="100%" y1="0%" x2="26.8860246%" y2="91.7243014%" id="linearGradient-3">
            <stop stop-color="#004FFF" offset="0%"></stop>
            <stop stop-color="#72BEFA" stop-opacity="0" offset="100%"></stop>
        </linearGradient>
        <linearGradient x1="87.8317646%" y1="112.009052%" x2="33.1501909%" y2="102.566618%" id="linearGradient-4">
            <stop stop-color="#3B84EE" offset="0%"></stop>
            <stop stop-color="#3F9BF2" stop-opacity="0.608382602" offset="57.5151057%"></stop>
            <stop stop-color="#44A0F9" stop-opacity="0" offset="100%"></stop>
        </linearGradient>
        <linearGradient x1="23.1549876%" y1="82.466394%" x2="4.39422515%" y2="8.46917878%" id="linearGradient-5">
            <stop stop-color="#8ADBFF" stop-opacity="0" offset="0%"></stop>
            <stop stop-color="#66C5F3" offset="100%"></stop>
        </linearGradient>
        <radialGradient cx="44.413682%" cy="30.3098%" fx="44.413682%" fy="30.3098%" r="63.2991227%" gradientTransform="translate(0.444137,0.303098),scale(0.983485,1.000000),rotate(115.080803),scale(1.000000,0.706718),translate(-0.444137,-0.303098)" id="radialGradient-6">
            <stop stop-color="#A5EEFB" stop-opacity="0.15" offset="0%"></stop>
            <stop stop-color="#3A98F6" stop-opacity="0" offset="100%"></stop>
        </radialGradient>
        <radialGradient cx="29.2017805%" cy="24.9998245%" fx="29.2017805%" fy="24.9998245%" r="16.7349085%" gradientTransform="translate(0.292018,0.249998),scale(0.747703,1.000000),rotate(-56.999116),scale(1.000000,1.814650),translate(-0.292018,-0.249998)" id="radialGradient-7">
            <stop stop-color="#ACE8FF" stop-opacity="0.15" offset="0%"></stop>
            <stop stop-color="#59C2F8" stop-opacity="0" offset="100%"></stop>
        </radialGradient>
        <radialGradient cx="48.8857865%" cy="51.121376%" fx="48.8857865%" fy="51.121376%" r="38.4448291%" gradientTransform="translate(0.488858,0.511214),scale(0.983485,1.000000),rotate(90.000000),translate(-0.488858,-0.511214)" id="radialGradient-8">
            <stop stop-color="#B3E3FA" stop-opacity="0.2" offset="0%"></stop>
            <stop stop-color="#D8D8D8" stop-opacity="0" offset="100%"></stop>
        </radialGradient>
        <linearGradient x1="36.9133437%" y1="0%" x2="100%" y2="52.6768526%" id="linearGradient-9">
            <stop stop-color="#14AFF8" offset="0%"></stop>
            <stop stop-color="#4FC0FB" stop-opacity="0" offset="100%"></stop>
        </linearGradient>
        <linearGradient x1="114.972534%" y1="84.4681844%" x2="0%" y2="0%" id="linearGradient-10">
            <stop stop-color="#89D8FA" stop-opacity="0" offset="0%"></stop>
            <stop stop-color="#06ADFF" stop-opacity="0.5" offset="100%"></stop>
        </linearGradient>
        <linearGradient x1="0%" y1="66.4874433%" x2="100%" y2="66.4874434%" id="linearGradient-11">
            <stop stop-color="#4BCDFF" stop-opacity="0.409278759" offset="0%"></stop>
            <stop stop-color="#38BAFC" offset="100%"></stop>
        </linearGradient>
        <path d="M0,15.8600244 C0,12.8049618 1.8849744,10.1828874 4.57349855,9.05736587 C4.98113093,6.47074038 7.25521516,4.4908313 9.99949744,4.4908313 C10.8193509,4.4908313 11.5972385,4.66754088 12.2959308,4.98434545 C14.0574774,2.00386115 17.3393983,0 21.0972056,0 C26.539791,0 30.984114,4.20348143 31.256841,9.48951927 C34.4231425,10.1836817 36.7900585,12.9631791 36.7900585,16.2863692 C36.7900585,20.1322763 33.6199798,23.25 29.7094895,23.25 C29.6902045,23.25 7.51407322,23.25 7.51407322,23.25 C3.36416517,23.25 0,19.9413952 0,15.8600244 Z" id="path-12"></path>
        <radialGradient cx="56.8236589%" cy="50%" fx="56.8236589%" fy="50%" r="42.5661217%" gradientTransform="translate(0.568237,0.500000),scale(0.983485,1.000000),rotate(90.000000),scale(1.000000,1.056137),translate(-0.568237,-0.500000)" id="radialGradient-14">
            <stop stop-color="#23B2F8" stop-opacity="0.651777627" offset="0%"></stop>
            <stop stop-color="#2DB6FA" stop-opacity="0.423774497" offset="62.7432297%"></stop>
            <stop stop-color="#40BFFE" stop-opacity="0" offset="100%"></stop>
        </radialGradient>
    </defs>
    <g id="Freshness" stroke="none" stroke-width="1" fill="none" fill-rule="evenodd">
        <g id="Freeform-Icons" transform="translate(0.000000, -1460.000000)">
            <g id="assets/img_domain_icloud" transform="translate(0.000000, 1460.000000)">
                <circle id="Oval-11" fill="#353167" cx="40" cy="40" r="40"></circle>
                <g id="iCloud-Drive" transform="translate(18.000000, 18.000000)">
                    <path d="M34.2773438,7.67049467e-16 C40.78125,7.67049467e-16 45,4.21875 45,10.7226563 L45,34.2773438 C45,40.78125 40.78125,45 34.2773438,45 L10.7226562,45 C4.21875,45 0,40.78125 0,34.2773438 L0,10.7226562 C0,4.21875 4.21875,7.67049471e-16 10.7226562,7.67049471e-16 L34.2773438,7.67049467e-16 Z" id="App-Icon-Shape" fill="#FFFFFF"></path>
                    <g id="Icon" transform="translate(4.125000, 10.125000)">
                        <g id="Background">
                            <path d="M7.51407322,23.25 C3.36416517,23.25 0,19.9413952 0,15.8600244 C0,12.8049618 1.8849744,10.1828874 4.57349855,9.05736587 C4.98113093,6.47074038 7.25521516,4.4908313 9.99949744,4.4908313 C10.8193509,4.4908313 11.5972385,4.66754088 12.2959308,4.98434545 C14.0574774,2.00386115 17.3393983,0 21.0972056,0 C26.539791,0 30.984114,4.20348143 31.256841,9.48951927 C34.4231425,10.1836817 36.7900585,12.9631791 36.7900585,16.2863692 C36.7900585,20.1322763 33.6199798,23.25 29.7094895,23.25 C29.6902045,23.25 29.6709376,23.2499242 29.6516889,23.2497728 L7.51407322,23.25 L7.51407322,23.25 Z" id="White-Background" fill="#FFFFFF"></path>
                            <path d="M7.51407322,23.25 C3.36416517,23.25 0,19.9413952 0,15.8600244 C0,12.8049618 1.8849744,10.1828874 4.57349855,9.05736587 C4.98113093,6.47074038 7.25521516,4.4908313 9.99949744,4.4908313 C10.8193509,4.4908313 11.5972385,4.66754088 12.2959308,4.98434545 C14.0574774,2.00386115 17.3393983,0 21.0972056,0 C26.539791,0 30.984114,4.20348143 31.256841,9.48951927 C34.4231425,10.1836817 36.7900585,12.9631791 36.7900585,16.2863692 C36.7900585,20.1322763 33.6199798,23.25 29.7094895,23.25 C29.6902045,23.25 29.6709376,23.2499242 29.6516889,23.2497728 L7.51407322,23.25 L7.51407322,23.25 Z" id="Blue-Background" fill="url(#linearGradient-1)"></path>
                        </g>
                        <path d="M21.0972056,20.00978 C26.7155426,20.00978 31.2701047,15.5304381 31.2701047,10.00489 C31.2701047,4.47934182 26.7155426,0 21.0972056,0 C15.4788685,0 10.9243065,4.47934182 10.9243065,10.00489 C10.9243065,15.5304381 15.4788685,20.00978 21.0972056,20.00978 Z" id="Big-Oval" fill="url(#linearGradient-2)"></path>
                        <path d="M23.5468281,19.7178073 C27.981884,18.6395026 31.2701047,14.6998569 31.2701047,10.00489 C31.2701047,9.83204094 31.2656478,9.66021568 31.256841,9.48951927 C30.7588016,9.38033186 30.2409843,9.32273839 29.7094895,9.32273839 C25.7989992,9.32273839 22.6289205,12.4404621 22.6289205,16.2863692 C22.6289205,17.5340095 22.9625399,18.7050156 23.5468281,19.7178073 L23.5468281,19.7178073 Z" id="Overlay-2" fill="url(#linearGradient-3)" opacity="0.120685634"></path>
                        <path d="M29.7094895,23.25 C33.6199798,23.25 36.7900585,20.1322763 36.7900585,16.2863692 C36.7900585,12.4404621 33.6199798,9.32273839 29.7094895,9.32273839 C25.7989992,9.32273839 22.6289205,12.4404621 22.6289205,16.2863692 C22.6289205,20.1322763 25.7989992,23.25 29.7094895,23.25 Z" id="Oval-Right" fill="url(#linearGradient-4)"></path>
                        <path d="M14.4614413,13.0394677 C13.3344127,10.357351 10.6483456,8.4700489 7.51407322,8.4700489 C6.47053062,8.4700489 5.47667286,8.67926173 4.57349855,9.05736587 C4.53066876,9.3291417 4.50844393,9.60761729 4.50844393,9.89119804 C4.50844393,12.8737382 6.96687233,15.2915648 9.99949744,15.2915648 C11.8376094,15.2915648 13.4647773,14.4033222 14.4614413,13.0394677 L14.4614413,13.0394677 Z" id="Overlay-1" fill="url(#linearGradient-5)"></path>
                        <g id="White-Shade" transform="translate(4.508444, 0.000000)">
                            <path d="M25.2010456,23.25 C29.1115358,23.25 32.2816146,20.1322763 32.2816146,16.2863692 C32.2816146,12.4404621 29.1115358,9.32273839 25.2010456,9.32273839 C21.2905553,9.32273839 18.1204766,12.4404621 18.1204766,16.2863692 C18.1204766,20.1322763 21.2905553,23.25 25.2010456,23.25 L25.2010456,23.25 L25.2010456,23.25 L25.2010456,23.25 L25.2010456,23.25 L25.2010456,23.25 Z M19.0383842,19.7178073 C23.4734401,18.6395026 26.7616608,14.6998569 26.7616608,10.00489 C26.7616608,9.83204094 26.7572039,9.66021568 26.748397,9.48951927 C26.2503576,9.38033186 25.7325404,9.32273839 25.2010456,9.32273839 C21.2905553,9.32273839 18.1204766,12.4404621 18.1204766,16.2863692 C18.1204766,17.5340095 18.4540959,18.7050156 19.0383842,19.7178073 L19.0383842,19.7178073 L19.0383842,19.7178073 L19.0383842,19.7178073 L19.0383842,19.7178073 L19.0383842,19.7178073 L19.0383842,19.7178073 Z" fill="url(#radialGradient-6)"></path>
                            <path d="M7.68290892,14.8441667 C7.01150087,15.1319552 6.2702296,15.2915648 5.49105351,15.2915648 C2.45842839,15.2915648 0,12.8737382 0,9.89119804 C0,6.90865785 2.45842839,4.4908313 5.49105351,4.4908313 C6.31090693,4.4908313 7.08879453,4.66754088 7.78748685,4.98434545 C9.54903344,2.00386115 12.8309544,0 16.5887616,0 C22.2070987,0 26.7616608,4.47934182 26.7616608,10.00489 C26.7616608,15.5304381 22.2070987,20.00978 16.5887616,20.00978 C12.7552693,20.00978 9.41702568,17.9243873 7.68290892,14.8441667 Z M7.68290892,14.8441667 C9.62468282,14.0118557 10.982107,12.1074305 10.982107,9.89119804 C10.982107,7.71497109 9.67324663,5.83939609 7.78748685,4.98434545 C6.91532665,6.46001451 6.41586252,8.1750875 6.41586252,10.00489 C6.41586252,11.7602573 6.87551743,13.4100395 7.68290892,14.8441667 Z" fill="url(#radialGradient-7)"></path>
                            <ellipse fill="url(#radialGradient-8)" cx="6.82046646" cy="11.0565403" rx="5.46215323" ry="5.37194377"></ellipse>
                        </g>
                        <path d="M10.9243065,10.00489 C10.9243065,11.7602573 11.3839614,13.4100395 12.1913528,14.8441667 C14.1331268,14.0118557 15.4905509,12.1074305 15.4905509,9.89119804 C15.4905509,7.71497109 14.1816906,5.83939609 12.2959308,4.98434545 C11.4237707,6.46001399 10.9243065,8.17508723 10.9243065,10.00489 Z" id="Overlay-3" fill="url(#linearGradient-9)"></path>
                        <path d="M14.7581194,17.8303451 C14.9341216,17.2030687 15.0281464,16.5423456 15.0281464,15.8600244 C15.0281464,12.9963297 13.3719241,10.5130778 10.9501477,9.28622735 C10.9330175,9.52358913 10.9243065,9.76323906 10.9243065,10.00489 C10.9243065,13.1729994 12.4215631,15.9971813 14.7581189,17.8303446 L14.7581194,17.8303451 Z" id="Overlay-4" fill="url(#linearGradient-10)"></path>
                        <g id="Blue-Shade">
                            <mask id="mask-13" fill="white">
                                <use xlink:href="#path-12"></use>
                            </mask>
                            <use id="Mask" fill="url(#linearGradient-11)" opacity="0" xlink:href="#path-12"></use>
                            <path d="M19.0452856,38.4278729 C27.632403,38.4278729 34.5936371,31.5816061 34.5936371,23.1363081 C34.5936371,14.69101 27.632403,7.84474328 19.0452856,7.84474328 C10.4581682,7.84474328 3.49693408,14.69101 3.49693408,23.1363081 C3.49693408,31.5816061 10.4581682,38.4278729 19.0452856,38.4278729 Z" id="Oval-163" fill="url(#radialGradient-14)" mask="url(#mask-13)"></path>
                        </g>
                    </g>
                </g>
            </g>
        </g>
    </g>
</svg>