<?xml version="1.0" encoding="UTF-8"?>
<svg width="200px" height="200px" viewBox="0 0 200 200" version="1.1" xmlns="http://www.w3.org/2000/svg" xmlns:xlink="http://www.w3.org/1999/xlink">
    <!-- Generator: Sketch 49.1 (51147) - http://www.bohemiancoding.com/sketch -->
    <title>assets/img_education</title>
    <desc>Created with Sketch.</desc>
    <defs></defs>
    <g id="Freshness" stroke="none" stroke-width="1" fill="none" fill-rule="evenodd">
        <g id="Circular-Icons" transform="translate(-250.000000, -1500.000000)">
            <g id="assets/img_education" transform="translate(250.000000, 1500.000000)">
                <circle id="background" fill="#353167" cx="100" cy="100" r="100"></circle>
                <g id="assets/tos-education" transform="translate(41.000000, 42.000000)">
                    <path d="M115.054831,22.1876355 C115.054831,21.4389308 114.590399,20.7398946 113.853968,20.4639592 L59.9131785,0.353789116 C59.4950041,0.197425737 59.0324219,0.197425737 58.6142475,0.353789116 L4.67345806,20.4639592 C3.94997944,20.7343759 3.47259457,21.4205351 3.47259457,22.1876355 C3.47259457,22.8296451 3.91482319,23.6280181 4.67345806,23.9094722 L29.6584498,33.2250505 L29.6584498,46.2271253 C34.3712377,52.7870289 46.7665913,56.4735255 59.263713,56.8193645 C71.7589844,56.4735255 84.1561883,52.7870289 88.8689762,46.2271253 L88.8689762,33.2250505 L107.372266,26.3266661 L107.372266,46.2271253 L111.072924,46.2271253 L111.072924,24.9469892 L113.853968,23.9094722 C114.557093,23.6482534 115.054831,22.9510567 115.054831,22.1876355" id="Fill-6131" fill="#666666"></path>
                    <path d="M118.362479,88.537032 C117.807381,92.8416239 115.38345,100.806958 111.072183,105.093154 L59.2629729,97.7348778 L7.45376234,105.093154 C3.14249589,100.806958 0.718564967,92.8416239 0.163466283,88.537032 C0.0154399671,87.3045207 0.0154399671,86.090405 0.163466283,84.8578937 C0.718564967,80.5533019 3.14249589,72.5879674 7.45376234,68.3017713 L59.2629729,75.6600479 L111.072183,68.3017713 C115.38345,72.5879674 117.807381,80.5533019 118.362479,84.8578937 C118.510506,86.090405 118.510506,87.3045207 118.362479,88.537032" id="Fill-6132" fill="#EBEAF4"></path>
                    <path d="M7.45394737,68.3017713 C3.14268092,72.5879674 0.71875,80.5533019 0.163651316,84.8578937 L118.362664,84.8578937 C117.807566,80.5533019 115.383635,72.5879674 111.072368,68.3017713 L59.2631579,75.6600479 L7.45394737,68.3017713 Z" id="Fill-6133" fill="#FFFFFF"></path>
                    <path d="M65.2560033,97.4008121 C64.2919819,99.753621 61.9753701,101.414752 59.2627878,101.414752 C56.5502056,101.414752 54.2354441,99.753621 53.2695724,97.4008121 C52.4850329,97.730095 51.6468339,97.8827792 50.8086349,97.891977 L48.1608141,115.947348 L59.2627878,106.933459 L70.3647615,115.901359 L66.795477,97.8183943 C66.2718339,97.7374532 65.7518914,97.6086834 65.2560033,97.4008121" id="Fill-6134" fill="#999999"></path>
                    <path d="M77.7664474,83.0183245 C77.7664474,80.3215162 76.0956003,78.0202151 73.7290296,77.05996 C74.7208059,74.7200281 74.2637747,71.9165247 72.3468339,70.010731 C70.4298931,68.1030978 67.6099918,67.6505638 65.2563734,68.6347333 C64.2905016,66.2837639 61.9757401,64.6226329 59.2631579,64.6226329 C56.5505757,64.6226329 54.2358141,66.2837639 53.2699424,68.6347333 C50.916324,67.6505638 48.0964227,68.1030978 46.1794819,70.010731 C44.2625411,71.9165247 43.8055099,74.7200281 44.7972862,77.05996 C42.4307155,78.0202151 40.7598684,80.3215162 40.7598684,83.0183245 C40.7598684,85.7151329 42.4307155,88.016434 44.7972862,88.9748495 C43.8055099,91.316621 44.2625411,94.1201244 46.1794819,96.0259181 C48.0964227,97.9335513 50.916324,98.3860853 53.2699424,97.4019158 C54.2358141,99.7528852 56.5505757,101.414016 59.2631579,101.414016 C61.9757401,101.414016 64.2905016,99.7528852 65.2563734,97.4019158 C67.6099918,98.3860853 70.4298931,97.9335513 72.3468339,96.0259181 C74.2637747,94.1201244 74.7208059,91.316621 73.7290296,88.9748495 C76.0956003,88.016434 77.7664474,85.7151329 77.7664474,83.0183245" id="Fill-6135" fill="#DC0015"></path>
                    <polygon id="Fill-6136" fill="#E1C618" points="111.072368 50.1016667 107.371711 50.1016667 107.371711 46.1016667 111.072368 46.1016667"></polygon>
                    <polygon id="Fill-6137" fill="#666666" points="114.773026 62.7830638 111.072368 49.9060796 107.371711 49.9060796 103.671053 62.7830638"></polygon>
                    <path d="M70.2332031,83.0183245 C70.2332031,89.041074 65.3224301,93.9251301 59.2626028,93.9251301 C53.2046258,93.9251301 48.2938528,89.041074 48.2938528,83.0183245 C48.2938528,76.9955751 53.2046258,72.111519 59.2626028,72.111519 C65.3224301,72.111519 70.2332031,76.9955751 70.2332031,83.0183245" id="Fill-6138" fill="#E1C618"></path>
                    <polygon id="Fill-6139" fill="#F2DA3E" points="109.222039 46.1016667 107.371711 46.1016667 107.371711 50.1016667 109.222039 50.1016667"></polygon>
                    <polygon id="Fill-6140" fill="#999999" points="109.222039 49.9060796 107.371711 49.9060796 103.671053 62.7830638 109.222039 62.7830638"></polygon>
                    <path d="M65.2560033,68.6354691 C64.2919819,66.2826601 61.9753701,64.6233688 59.2627878,64.6233688 C56.5502056,64.6233688 54.2354441,66.2826601 53.2695724,68.6354691 C50.9159539,67.6512996 48.097903,68.1038336 46.1791118,70.0114668 C44.2621711,71.9172605 43.8051398,74.7189243 44.7969161,77.0606959 C42.4303454,78.0191114 40.7594984,80.322252 40.7594984,83.0190604 C40.7594984,85.7140292 42.4303454,88.0171698 44.7969161,88.9755853 C43.8106908,91.3044799 44.2603207,94.0914272 46.1550576,95.9972208 L72.3168586,69.9857129 C70.3999178,68.101994 67.5985197,67.6549787 65.2560033,68.6354691" id="Fill-6141" fill="#E7114C"></path>
                    <path d="M59.2631579,72.1120709 C53.2051809,72.1120709 48.2925576,76.9942874 48.2925576,83.0188764 C48.2925576,86.0155346 49.510074,88.7307387 51.4806743,90.7009172 L66.9919819,75.279809 C65.0084293,73.3225074 62.2791941,72.1120709 59.2631579,72.1120709" id="Fill-6142" fill="#F2DA3E"></path>
                    <path d="M29.6578947,33.2250505 L29.6578947,46.2271253 C34.3706826,52.7870289 46.7678865,56.4735255 59.2631579,56.8193645 L59.2631579,44.1373747 C59.0429687,44.1373747 58.8227796,44.0987438 58.6136924,44.0196423 L29.6578947,33.2250505 Z" id="Fill-6143" fill="#999999"></path>
                    <path d="M58.6135074,0.354524943 L4.67271793,20.464695 C3.95108964,20.7351117 3.47185444,21.421271 3.47185444,22.1883713 C3.47185444,22.9536321 3.95108964,23.6397914 4.67271793,23.910208 L58.6135074,44.0203781 C58.8225946,44.09764 59.0427837,44.136271 59.2629729,44.136271 L59.2629729,0.238632086 C59.0427837,0.238632086 58.8225946,0.277263039 58.6135074,0.354524943" id="Fill-6144" fill="#999999"></path>
                </g>
            </g>
        </g>
    </g>
</svg>