<svg xmlns="http://www.w3.org/2000/svg" xmlns:xlink="http://www.w3.org/1999/xlink" width="40" height="33" viewBox="0 0 40 33">
    <defs>
        <path id="e92y0t33ja" d="M0.001 0L39.216 0 39.216 31.431 0.001 31.431z"/>
        <path id="hurb748a3c" d="M0 7.799L39.216 7.799 39.216 23.633 0 23.633z"/>
        <path id="i67w4uuure" d="M0 31.432L39.216 31.432 39.216 0 0 0z"/>
    </defs>
    <g fill="none" fill-rule="evenodd" transform="translate(0 .778)">
        <mask id="b9hln8295b" fill="#fff">
            <use xlink:href="#e92y0t33ja"/>
        </mask>
        <path fill="#EF4B2B" d="M36.232 0H2.986C1.339 0 0 1.718 0 3.83v23.773c0 2.11 1.338 3.828 2.985 3.828h33.246c1.646 0 2.984-1.718 2.984-3.828V3.83c0-2.112-1.338-3.83-2.984-3.83m0 1.925c.82 0 1.484.853 1.484 1.905v23.773c0 1.05-.664 1.904-1.484 1.904H2.986c-.82 0-1.485-.853-1.485-1.904V3.83c0-1.052.665-1.905 1.485-1.905h33.246" mask="url(#b9hln8295b)"/>
        <mask id="s2m3tpwlrd" fill="#fff">
            <use xlink:href="#hurb748a3c"/>
        </mask>
        <path fill="#EF4B2B" d="M39.216 7.799H0v15.834h39.216V7.799zM1.5 21.709h36.216V9.722H1.5v11.985z" mask="url(#s2m3tpwlrd)"/>
        <path fill="#EF4B2B" d="M4.438 18.054H5.45v-3.407c0-.166.003-.341.01-.523l-.596.635c-.038.04-.076.07-.115.086-.04.017-.077.026-.113.026-.062 0-.118-.018-.168-.054-.05-.035-.086-.073-.11-.113l-.354-.603 1.64-1.766h.925v5.719h.867v1.038H4.438v-1.038zM10.202 12.266c.261 0 .495.049.703.146.208.098.386.232.532.405.148.174.26.38.338.619.078.24.117.503.117.79 0 .248-.026.476-.08.687-.054.209-.129.409-.222.599-.094.19-.203.374-.327.552-.124.178-.256.357-.396.54l-1.029 1.353c.133-.05.262-.09.391-.12.13-.029.25-.043.364-.043h.982c.12 0 .216.043.285.127.071.086.105.198.105.336v.834H8.266v-.463c0-.09.015-.186.043-.287.03-.101.081-.195.153-.277l1.516-1.96c.13-.167.244-.327.34-.478.096-.153.176-.3.238-.448.063-.146.11-.292.141-.44.031-.147.047-.301.047-.466 0-.269-.05-.474-.149-.618-.1-.144-.253-.216-.457-.216-.084 0-.162.016-.232.047-.069.03-.132.073-.187.124-.056.053-.104.116-.143.186-.04.072-.072.149-.096.232-.039.139-.088.239-.146.3-.059.063-.139.094-.24.094-.025 0-.05-.002-.078-.005-.028-.002-.056-.008-.085-.014l-.592-.133c.038-.338.112-.632.222-.882s.245-.458.408-.625c.163-.168.348-.29.558-.373.21-.082.435-.123.675-.123M14.738 12.266c.26 0 .49.047.693.14.203.096.373.223.513.383.14.162.245.348.318.558.072.212.108.437.108.67 0 .214-.018.402-.05.563-.035.163-.085.303-.15.422-.067.12-.149.221-.246.305-.098.083-.208.152-.333.207.583.26.874.768.874 1.525 0 .359-.052.67-.152.936-.101.266-.237.486-.406.662-.17.177-.367.31-.591.397-.225.088-.459.132-.702.132-.25 0-.473-.035-.668-.104-.194-.07-.367-.178-.52-.325-.152-.146-.284-.335-.399-.563-.113-.228-.213-.5-.297-.815l.497-.26c.043-.024.086-.041.128-.05.043-.01.085-.014.125-.014.077 0 .147.019.208.058.063.038.108.094.14.169.107.256.223.443.345.558.121.115.264.173.428.173.124 0 .233-.027.325-.08.094-.055.17-.124.232-.208.062-.086.107-.183.14-.29.03-.108.046-.219.046-.33 0-.145-.008-.275-.024-.392-.015-.115-.06-.215-.132-.298-.072-.084-.18-.147-.325-.193-.146-.044-.35-.067-.61-.067v-.991c.22 0 .396-.022.531-.066.135-.042.24-.102.313-.178.074-.075.122-.167.146-.276.024-.108.037-.226.037-.355 0-.266-.05-.471-.15-.615-.1-.144-.253-.216-.458-.216-.084 0-.162.016-.23.047-.07.03-.133.073-.188.124-.056.053-.104.116-.143.186-.04.072-.072.149-.097.232-.037.139-.086.239-.144.3-.06.063-.14.094-.24.094-.026 0-.052-.002-.08-.005-.027-.002-.055-.008-.084-.014l-.591-.133c.037-.338.111-.632.22-.882.11-.25.246-.458.41-.625.161-.168.347-.29.556-.373.21-.082.435-.123.677-.123" mask="url(#s2m3tpwlrd)"/>
        <mask id="b50kzfo1kf" fill="#fff">
            <use xlink:href="#i67w4uuure"/>
        </mask>
        <path fill="#EF4B2B" d="M17.407 16.854L19.357 16.854 19.357 15.695 17.407 15.695zM22.063 16.51H23.5l-.483-1.848-.11-.416c-.042-.158-.084-.33-.125-.516-.038.19-.078.364-.12.524-.04.16-.078.3-.115.417l-.484 1.84zm3.38 2.582h-.945c-.107 0-.194-.032-.262-.096-.07-.063-.116-.144-.143-.242l-.31-1.177h-2.001l-.311 1.177c-.024.085-.071.164-.141.234-.07.07-.156.104-.256.104h-.954l2.037-6.751h1.25l2.037 6.751zM27.266 16.228v1.682h.859c.162 0 .293-.025.396-.078.102-.054.182-.12.24-.204.058-.085.098-.178.119-.284.022-.103.032-.21.032-.319 0-.123-.012-.235-.037-.334-.025-.098-.07-.182-.13-.25-.061-.068-.143-.12-.244-.158-.101-.037-.228-.055-.382-.055h-.853zm0-1.047h.636c.135 0 .256-.013.364-.037.108-.026.2-.068.276-.13.077-.062.134-.147.174-.255.04-.108.06-.244.06-.408 0-.16-.016-.294-.047-.4-.031-.107-.08-.193-.145-.258-.065-.064-.147-.112-.247-.139-.1-.028-.218-.042-.356-.042h-.715v1.67zm-1.221 3.911v-6.751h1.936c.363 0 .673.042.929.13.254.085.462.207.625.365.16.158.278.349.35.575.074.224.11.477.11.755 0 .152-.015.298-.05.438-.033.14-.086.272-.158.395-.073.125-.165.237-.278.338-.113.1-.25.187-.408.261.347.108.603.283.769.525.167.243.25.554.25.934 0 .287-.044.556-.13.802-.087.248-.214.463-.382.647-.167.183-.373.327-.62.43-.244.103-.526.156-.841.156h-2.102zM34.494 17.345c.028 0 .058.006.086.021.03.013.057.038.083.071l.484.654c-.212.354-.477.623-.796.804-.319.18-.697.27-1.132.27-.4 0-.758-.086-1.075-.262-.316-.173-.585-.414-.805-.722-.22-.306-.39-.672-.508-1.093-.117-.422-.177-.88-.177-1.374 0-.504.068-.966.202-1.388.135-.422.324-.786.566-1.092.242-.306.531-.543.87-.714.336-.169.708-.254 1.114-.254.198 0 .384.022.56.067.174.045.337.107.488.185.151.08.291.174.42.283.127.11.24.231.34.364l-.413.71c-.027.043-.058.081-.094.117-.036.036-.087.054-.15.054-.045 0-.086-.013-.125-.039-.039-.024-.08-.053-.123-.09l-.142-.115c-.052-.04-.113-.08-.185-.117-.07-.034-.154-.064-.249-.09-.094-.024-.206-.037-.334-.037-.22 0-.424.05-.606.152-.184.1-.34.244-.472.43-.13.187-.233.414-.306.68-.075.265-.11.563-.11.894 0 .346.035.653.11.922.073.269.172.494.3.68.125.183.273.322.442.419.168.095.348.143.541.143.111 0 .212-.007.303-.021.092-.013.177-.038.255-.072.078-.034.153-.077.224-.132.071-.054.143-.121.215-.202.03-.03.06-.055.094-.077.034-.02.07-.03.105-.03M5.237 4.619c0 .69-.438 1.25-.976 1.25s-.973-.56-.973-1.25.436-1.25.974-1.25.975.56.975 1.25M35.929 4.619c0 .69-.437 1.25-.975 1.25s-.974-.56-.974-1.25.436-1.25.974-1.25.975.56.975 1.25M5.237 26.813c0 .69-.438 1.25-.976 1.25s-.973-.56-.973-1.25.436-1.25.974-1.25.975.56.975 1.25M35.929 26.813c0 .69-.437 1.25-.975 1.25s-.974-.56-.974-1.25.436-1.25.974-1.25.975.56.975 1.25" mask="url(#b50kzfo1kf)"/>
    </g>
</svg>
