<svg xmlns="http://www.w3.org/2000/svg" xmlns:xlink="http://www.w3.org/1999/xlink" width="188" height="86" viewBox="0 0 188 86">
    <defs>
        <path id="i6nq6tuhaa" d="M73.87.606v1.47H5.236L6.46 3.34l-.693.751.49.278.45 2.212-.612.113L4.67 8.122l.813-1.74.04-.908-2.844-.079-1.262-.75-.73-.078L.65 6.224l.85.913.327 2.569.487.072.163 2.529h1.174l.773 1.033-1.624-.237-.486 6.761-.247 2.372-.85 3.476.933 3.439.08 3.597-.446.67-.201 1.029 1.337 1.856.327 3.084 1.71 1.742.035 1.028.941.705.247-1.103 1.34.513-1.186 1.026.33 2.255 1.056.396-.244 1.935 3.291 3.958.044 2.008 2.439.361 1.67 1.237 1.374.19.083.773h.774l1.954 1.962.402 1.887 5.328-.316 9.557 3.943h6.75l.323-1.453 4.025.074 4.105 3.53.246 1.064.567 1.815 2.282 2.13h1.216l.486-1.258.73-1.114h2.647l2.03 1.887 1.18 2.78 1.752 1.817.611 2.127.812 1.477 1.748 1.111 3.133.702-.611-1.622-.045-2.248.447-1.91 1.956-1.282-.203-.87.859-.727-.047 1.112 2.397-1.376.484-1.066.349-2.01.225 1.068 1.14-.558 2.334-.557 1.48.848 1.247-.122v-.775l.857-.047 2.446 1.98 1.823.051.568-.99 1.423 1.378.631-.388-1.374-1.258.801-.677.34-.652-.794-.12-1.653.215-.509-.264.168-.897 1.935.29 1.136-.216 2.396.048.228-1.764.226 2.029h.628l1.137-.555 2.28.12 1.704 1.04.516.848 1.249.167 1.537-.941.746-.12.906.772 1.133 1.548 1.085.775-.112 2.952-.455 1.088.116.627.34.097.111-1.04.406-.507-.179 1.982.68.894.683.39.744 2.32.68.676.744.921.05 1.232.693.171.96-.46.627-.606.455-2.102-.113-2.662-1.083-2.709-.279-2.154-1.372-2.585-.457-2.276v-1.498l.291-1.767 1.085-2.393.732-.604-.279-.654h1.701l1.83-1.668 1.135-1.887 1.36-.774 1.198-.482 1.02-1.5 1.149-.218 1.134-.339.34-.774-.516-.218.342-.616-.846-.605.504-.326 1.146.436.909-.558.05-1.106-1.865-.272-.455-1.166.908.889 1.137-.829-.116-1.887-1.198-.161-.34-.56.567-.33.113-2.155-.39-.446-1.424-.936-.972-1.107 2.17 1.052v-3.21l1.299-1.275-.734 1.717.57.772-.455.828.165.943h.68l.466 1.271-.517.942-.175 1.604h.566l.695-1.99.679-1.547.391-1.167-.391-.993-.909-1.607v-.666l1.929 1.662 1.262-1.662.73-2.098-.113-.944-.502-.386.39-.72.794-.882 1.26-.557 1.248-.61 2.849-.216.517-.448.338-.828.846.608.58-.332 1.02.388.91-.388.227-.996-.455.664-1.02-.108-.466-.836-.796-1.378.744-.833-.567-.11.114-1.492 1.085-1.278.73-1.546.923.277 1.533-1.33 1.186.443-.228-.722.293-.549.794.441 2.104-1.493 1.488-.28v-.002l-.515-.77-.064-.883-.68-.115-.454-.604-.114-.834-.68-.333V9.992l-1.26-1.386-.506.664-1.085.164-.454-.937h-.907l-1.198 2.098-.906 2.708-.229 2.106-1.26 1.216-.857.058-.845 1.107h-8.597l-1.941 1.954-1.01 1.183.367 1.78-.29.592h-.567l-.97.712-1.718.037-1.26-.55-2.395.87.366 1.344-1.26 1.303-2.27 1.308-.377.429-1.173.078-1.79 1.35-1.953.435-1.793-.522-.602-.385.44-.878.365-1.299.038-.658.745-.412.693-1.698-.253-.557.05-1.536-.327-.714-.53-.592-1.057-.08-.367.952-.856.397-.33-.72 1.021-1.265.569-.983-.076-.673-.417-1.262.292-.442-.53-.864-2.799-1.463-.897.158.114 1.305-.844.156-.09.909-.527.477-.239-.678-1.022.834-.82 3.283-.2 1.536.731 1.347-.155 2.016-.856 2.605-.77.834h-1.144l-.365-.673-.608-1.381v-2.766l.492-3.718.568-2.41.806-1.464-.151-.478-2.003 2.533v-.513l2.244-3.877.807-.393.2.835 1.149-.991 1.135-.237.932-.754 1.312.955.44-.4 1.701-.04-.767-.91-.292-.947h-1.082l-.696-.437.037-.67h-.653l-.567.393-1.628-.116-1.058.865-1.79-.115-1.538-1.698-1.351.67.042-.67 1.916-2.094-1.223-.041-2.597 2.334-2.202 1.029h-1.582v-.994l-.85-.035-1.303 1.029-1.143-.4 3.7-3.363 2.357-1.614-3.083-.633-1.02.397-1.134-.676-1.716-1.227-1.217-.472-1.707.199-1.017-.557h-1.26L74.318.606h-.449zm60.133 30.703l1.274-.556-.568-.412-.706.968zm1.653.092l1.043-.092-.517-.689-.526.78zm-5.55.834l-2.229.133-1.375 1.154.376.23 1.528-.78 1.752-.049 1.51-.924-.993.188.24-.598-.808.646zM11.714 55.615l.471.217 1.424-.12-.66-.337-1.235.24zm97.454 28.007l1.16-.703.43-.87-1.59 1.573z"/>
        <path id="xlb40djw1c" d="M0 0.484L18.792 0.484 18.792 35.365 0 35.365z"/>
        <path id="vbywu1jeqe" d="M0 84.276L187.327 84.276 187.327 0.606 0 0.606z"/>
    </defs>
    <g fill="none" fill-rule="evenodd">
        <g>
            <g>
                <g>
                    <g fill="#000">
                        <path d="M3.092 1.137c-1.207 0-2.189.982-2.189 2.19 0 1.207.982 2.189 2.189 2.189 1.206 0 2.19-.982 2.19-2.19 0-1.207-.984-2.19-2.19-2.19m0 4.84c-1.461 0-2.65-1.189-2.65-2.65 0-1.46 1.189-2.649 2.65-2.649 1.46 0 2.649 1.188 2.649 2.65 0 1.46-1.188 2.649-2.65 2.649" transform="translate(-220 -449) translate(220 449) translate(159.638 9.118)"/>
                        <path d="M2.562 3.18h.431c.452 0 .738-.204.738-.512 0-.348-.306-.5-.752-.504-.204 0-.35.016-.417.032v.984zm-.423-1.228c.214-.036.52-.056.81-.056.451 0 .743.068.946.22.166.12.258.304.258.512 0 .356-.272.592-.617.688v.012c.253.071.403.264.48.544.108.376.185.636.253.74h-.437c-.053-.076-.125-.308-.218-.644-.096-.372-.271-.513-.655-.524h-.397v1.168h-.423v-2.66z" transform="translate(-220 -449) translate(220 449) translate(159.638 9.118)"/>
                    </g>
                    <g transform="translate(-220 -449) translate(220 449) translate(42.948 .204)">
                        <mask id="sg1sfzmy6b" fill="#fff">
                            <use xlink:href="#i6nq6tuhaa"/>
                        </mask>
                        <path d="M73.87.606v1.47H5.236L6.46 3.34l-.693.751.49.278.45 2.212-.612.113L4.67 8.122l.813-1.74.04-.908-2.844-.079-1.262-.75-.73-.078L.65 6.224l.85.913.327 2.569.487.072.163 2.529h1.174l.773 1.033-1.624-.237-.486 6.761-.247 2.372-.85 3.476.933 3.439.08 3.597-.446.67-.201 1.029 1.337 1.856.327 3.084 1.71 1.742.035 1.028.941.705.247-1.103 1.34.513-1.186 1.026.33 2.255 1.056.396-.244 1.935 3.291 3.958.044 2.008 2.439.361 1.67 1.237 1.374.19.083.773h.774l1.954 1.962.402 1.887 5.328-.316 9.557 3.943h6.75l.323-1.453 4.025.074 4.105 3.53.246 1.064.567 1.815 2.282 2.13h1.216l.486-1.258.73-1.114h2.647l2.03 1.887 1.18 2.78 1.752 1.817.611 2.127.812 1.477 1.748 1.111 3.133.702-.611-1.622-.045-2.248.447-1.91 1.956-1.282-.203-.87.859-.727-.047 1.112 2.397-1.376.484-1.066.349-2.01.225 1.068 1.14-.558 2.334-.557 1.48.848 1.247-.122v-.775l.857-.047 2.446 1.98 1.823.051.568-.99 1.423 1.378.631-.388-1.374-1.258.801-.677.34-.652-.794-.12-1.653.215-.509-.264.168-.897 1.935.29 1.136-.216 2.396.048.228-1.764.226 2.029h.628l1.137-.555 2.28.12 1.704 1.04.516.848 1.249.167 1.537-.941.746-.12.906.772 1.133 1.548 1.085.775-.112 2.952-.455 1.088.116.627.34.097.111-1.04.406-.507-.179 1.982.68.894.683.39.744 2.32.68.676.744.921.05 1.232.693.171.96-.46.627-.606.455-2.102-.113-2.662-1.083-2.709-.279-2.154-1.372-2.585-.457-2.276v-1.498l.291-1.767 1.085-2.393.732-.604-.279-.654h1.701l1.83-1.668 1.135-1.887 1.36-.774 1.198-.482 1.02-1.5 1.149-.218 1.134-.339.34-.774-.516-.218.342-.616-.846-.605.504-.326 1.146.436.909-.558.05-1.106-1.865-.272-.455-1.166.908.889 1.137-.829-.116-1.887-1.198-.161-.34-.56.567-.33.113-2.155-.39-.446-1.424-.936-.972-1.107 2.17 1.052v-3.21l1.299-1.275-.734 1.717.57.772-.455.828.165.943h.68l.466 1.271-.517.942-.175 1.604h.566l.695-1.99.679-1.547.391-1.167-.391-.993-.909-1.607v-.666l1.929 1.662 1.262-1.662.73-2.098-.113-.944-.502-.386.39-.72.794-.882 1.26-.557 1.248-.61 2.849-.216.517-.448.338-.828.846.608.58-.332 1.02.388.91-.388.227-.996-.455.664-1.02-.108-.466-.836-.796-1.378.744-.833-.567-.11.114-1.492 1.085-1.278.73-1.546.923.277 1.533-1.33 1.186.443-.228-.722.293-.549.794.441 2.104-1.493 1.488-.28v-.002l-.515-.77-.064-.883-.68-.115-.454-.604-.114-.834-.68-.333V9.992l-1.26-1.386-.506.664-1.085.164-.454-.937h-.907l-1.198 2.098-.906 2.708-.229 2.106-1.26 1.216-.857.058-.845 1.107h-8.597l-1.941 1.954-1.01 1.183.367 1.78-.29.592h-.567l-.97.712-1.718.037-1.26-.55-2.395.87.366 1.344-1.26 1.303-2.27 1.308-.377.429-1.173.078-1.79 1.35-1.953.435-1.793-.522-.602-.385.44-.878.365-1.299.038-.658.745-.412.693-1.698-.253-.557.05-1.536-.327-.714-.53-.592-1.057-.08-.367.952-.856.397-.33-.72 1.021-1.265.569-.983-.076-.673-.417-1.262.292-.442-.53-.864-2.799-1.463-.897.158.114 1.305-.844.156-.09.909-.527.477-.239-.678-1.022.834-.82 3.283-.2 1.536.731 1.347-.155 2.016-.856 2.605-.77.834h-1.144l-.365-.673-.608-1.381v-2.766l.492-3.718.568-2.41.806-1.464-.151-.478-2.003 2.533v-.513l2.244-3.877.807-.393.2.835 1.149-.991 1.135-.237.932-.754 1.312.955.44-.4 1.701-.04-.767-.91-.292-.947h-1.082l-.696-.437.037-.67h-.653l-.567.393-1.628-.116-1.058.865-1.79-.115-1.538-1.698-1.351.67.042-.67 1.916-2.094-1.223-.041-2.597 2.334-2.202 1.029h-1.582v-.994l-.85-.035-1.303 1.029-1.143-.4 3.7-3.363 2.357-1.614-3.083-.633-1.02.397-1.134-.676-1.716-1.227-1.217-.472-1.707.199-1.017-.557h-1.26L74.318.606h-.449zm60.133 30.703l1.274-.556-.568-.412-.706.968zm1.653.092l1.043-.092-.517-.689-.526.78zm-5.55.834l-2.229.133-1.375 1.154.376.23 1.528-.78 1.752-.049 1.51-.924-.993.188.24-.598-.808.646zM11.714 55.615l.471.217 1.424-.12-.66-.337-1.235.24zm97.454 28.007l1.16-.703.43-.87-1.59 1.573z" mask="url(#sg1sfzmy6b)"/>
                    </g>
                    <g transform="translate(-220 -449) translate(220 449) translate(0 .204)">
                        <path fill="#E6A60F" d="M15.823 57.767C8.2 52.067 3.503 44.641 4.77 39.401c.761-3.147 3.54-4.933 7.452-5.303-3.748.732-6.334 2.662-6.92 5.672-1.056 5.412 4.691 12.538 13.362 17.203-4.165-1.702-8.257-4.61-9.67-6.521.954 1.554 3.615 4.447 6.829 7.315m2.6 10.606C6.416 59.652-1.228 48.407.516 40.908c1.24-5.341 6.962-7.6 14.819-6.761-7.364-.513-12.656 1.682-13.79 6.553-1.436 6.186 4.228 15.004 13.643 22.547-4.641-2.85-9.65-7.96-10.997-10.486 1.337 3.042 8.479 11.036 14.234 15.612"/>
                        <g transform="translate(0 33.224)">
                            <mask id="23d2zs33kd" fill="#fff">
                                <use xlink:href="#xlb40djw1c"/>
                            </mask>
                            <path fill="#E6A60F" d="M15.982 24.328c-3.373-2.523-6.17-5.385-8.114-8.234-1.946-2.848-3.038-5.68-3.036-8.127 0-.6.065-1.178.198-1.726.366-1.512 1.208-2.682 2.436-3.537 1.23-.852 2.858-1.382 4.781-1.564l-.025-.267L12.17.61C10.264.982 8.64 1.661 7.41 2.647c-1.232.983-2.066 2.28-2.372 3.846-.087.448-.128.905-.128 1.37.001 2.702 1.415 5.646 3.813 8.46 2.401 2.815 5.797 5.5 9.816 7.66l.126-.235.102-.248c-2.062-.843-4.113-1.987-5.818-3.154-1.703-1.167-3.066-2.365-3.739-3.278l-.446.3c.498.805 1.408 1.922 2.6 3.208 1.194 1.282 2.668 2.727 4.28 4.168l.358-.4c-1.6-1.43-3.065-2.866-4.245-4.135-1.179-1.268-2.075-2.376-2.535-3.123l-.227.141-.218.16c.743 1 2.132 2.21 3.87 3.402 1.734 1.188 3.814 2.348 5.917 3.208l.23-.485c-3.966-2.133-7.314-4.784-9.66-7.537-2.352-2.754-3.69-5.604-3.689-8.111 0-.433.04-.855.121-1.267.283-1.44 1.034-2.613 2.178-3.532 1.145-.915 2.689-1.569 4.53-1.93l-.076-.529c-1.99.188-3.708.737-5.037 1.657-1.328.918-2.258 2.215-2.653 3.852-.143.594-.211 1.212-.211 1.852.002 2.605 1.144 5.521 3.129 8.429 1.987 2.907 4.82 5.808 8.236 8.362l.321-.43zm2.442 10.82l.158-.217C13.169 31 8.65 26.556 5.49 22.187 2.328 17.82.534 13.526.536 9.925c0-.76.079-1.488.24-2.181.523-2.238 1.838-3.897 3.804-5.025 1.966-1.124 4.59-1.7 7.686-1.7.967 0 1.984.059 3.04.17l.029-.266.018-.267C14.65.606 13.962.58 13.297.58c-3.178 0-5.903.56-7.98 1.693-2.078 1.132-3.506 2.86-4.034 5.142-.153.662-.228 1.354-.228 2.066 0 3.08 1.385 6.565 3.815 10.136 2.43 3.568 5.912 7.22 10.15 10.614l.167-.21.141-.227c-2.297-1.412-4.7-3.391-6.689-5.329-1.988-1.935-3.567-3.84-4.21-5.055l-.485.236c.352.797 1.058 1.872 2.012 3.13 2.86 3.77 7.96 9.129 12.3 12.583l.168-.211.158-.218-.158.218.167-.21c-2.862-2.276-6.08-5.41-8.742-8.351-1.331-1.472-2.526-2.893-3.467-4.135-.94-1.238-1.628-2.301-1.946-3.024l-.245.108-.239.126c.702 1.312 2.3 3.225 4.313 5.188 2.014 1.96 4.437 3.961 6.782 5.402l.308-.44c-4.203-3.366-7.65-6.986-10.043-10.497-2.394-3.512-3.723-6.917-3.72-9.834 0-.675.07-1.325.215-1.946.496-2.127 1.798-3.712 3.766-4.79 1.968-1.076 4.609-1.63 7.724-1.63.653 0 1.325.026 2.019.074l.045-.534C14.29.54 13.254.484 12.266.484c-3.163 0-5.875.583-7.953 1.77C2.237 3.437.805 5.24.255 7.62.082 8.358 0 9.128 0 9.925c.002 3.779 1.854 8.15 5.055 12.578 3.202 4.426 7.759 8.904 13.211 12.862l.325-.425-.167.209z" mask="url(#23d2zs33kd)"/>
                        </g>
                        <path fill="#E6A60F" d="M40.368 37.357h-6.61L26.51 24.61c-.93-1.634-1.867-3.621-2.81-5.96.427 1.86.64 3.438.64 4.734v13.973h-6.59V8.503h7.675l6.163 10.57c1.228 2.1 2.158 3.945 2.791 5.537-.413-2.465-.62-4.988-.62-7.567v-8.54h6.61v28.854z"/>
                        <path stroke="#003764" d="M40.368 37.357h-6.61L26.51 24.61c-.93-1.634-1.867-3.621-2.81-5.96.427 1.86.64 3.438.64 4.734v13.973h-6.59V8.503h7.675l6.163 10.57c1.228 2.1 2.158 3.945 2.791 5.537-.413-2.465-.62-4.988-.62-7.567v-8.54h6.61v28.854z"/>
                        <path fill="#E6A60F" d="M73.724 8.503L73.724 37.357 66.184 37.357 66.184 16.725 61.281 37.357 56.125 37.357 51.047 16.725 51.047 37.357 44.961 37.357 44.961 8.503 55.563 8.503 59.401 23.828 63.064 8.503z"/>
                        <path stroke="#003764" d="M73.724 8.503L73.724 37.357 66.184 37.357 66.184 16.725 61.281 37.357 56.125 37.357 51.047 16.725 51.047 37.357 44.961 37.357 44.961 8.503 55.563 8.503 59.401 23.828 63.064 8.503z"/>
                        <path fill="#E6A60F" d="M101.266 8.503l-8.218 28.854h-8.276L76.205 8.503h8.567l4.167 15.727c.284.93.536 1.846.755 2.748L94.58 8.503h6.687z"/>
                        <path stroke="#003764" d="M101.266 8.503l-8.218 28.854h-8.276L76.205 8.503h8.567l4.167 15.727c.284.93.536 1.846.755 2.748L94.58 8.503h6.687z"/>
                        <path fill="#E6A60F" d="M115.802 15.415L115.802 37.357 108.107 37.357 108.107 15.415 102.622 15.415 102.622 8.503 121.288 8.503 121.288 15.415z"/>
                        <path stroke="#003764" d="M115.802 15.415L115.802 37.357 108.107 37.357 108.107 15.415 102.622 15.415 102.622 8.503 121.288 8.503 121.288 15.415z"/>
                        <mask id="3s1i7qbz8f" fill="#fff">
                            <use xlink:href="#vbywu1jeqe"/>
                        </mask>
                        <path fill="#E6A60F" d="M123.652 37.357L131.773 37.357 131.773 8.503 123.652 8.503z" mask="url(#3s1i7qbz8f)"/>
                        <path stroke="#003764" d="M123.652 37.357L131.773 37.357 131.773 8.503 123.652 8.503z" mask="url(#3s1i7qbz8f)"/>
                        <path fill="#E6A60F" d="M133.634 29.007l7.54-1.48c.632 2.325 2.26 3.489 4.883 3.489 2.042 0 3.063-.592 3.063-1.776 0-.62-.24-1.1-.717-1.438-.466-.351-1.306-.662-2.52-.93-4.638-.972-7.617-2.24-8.935-3.805-1.318-1.564-1.977-3.403-1.977-5.517 0-2.72.942-4.981 2.83-6.785 1.9-1.804 4.626-2.706 8.179-2.706 5.388 0 8.947 2.36 10.68 7.082l-6.727 2.22c-.697-1.932-2.112-2.897-4.244-2.897-1.77 0-2.655.599-2.655 1.796 0 .536.2.952.601 1.248.4.295 1.175.577 2.326.846 3.165.732 5.414 1.38 6.744 1.944 1.332.564 2.443 1.53 3.334 2.897.892 1.352 1.338 2.952 1.338 4.798 0 2.917-1.086 5.285-3.257 7.102-2.17 1.804-5.02 2.706-8.547 2.706-6.448 0-10.428-2.931-11.939-8.794" mask="url(#3s1i7qbz8f)"/>
                        <path stroke="#003764" d="M133.634 29.007l7.54-1.48c.632 2.325 2.26 3.489 4.883 3.489 2.042 0 3.063-.592 3.063-1.776 0-.62-.24-1.1-.717-1.438-.466-.351-1.306-.662-2.52-.93-4.638-.972-7.617-2.24-8.935-3.805-1.318-1.564-1.977-3.403-1.977-5.517 0-2.72.942-4.981 2.83-6.785 1.9-1.804 4.626-2.706 8.179-2.706 5.388 0 8.947 2.36 10.68 7.082l-6.727 2.22c-.697-1.932-2.112-2.897-4.244-2.897-1.77 0-2.655.599-2.655 1.796 0 .536.2.952.601 1.248.4.295 1.175.577 2.326.846 3.165.732 5.414 1.38 6.744 1.944 1.332.564 2.443 1.53 3.334 2.897.892 1.352 1.338 2.952 1.338 4.798 0 2.917-1.086 5.285-3.257 7.102-2.17 1.804-5.02 2.706-8.547 2.706-6.448 0-10.428-2.931-11.939-8.794z" mask="url(#3s1i7qbz8f)"/>
                        <path fill="#003764" d="M63.011 46.997v.266c0 .472-.095.777-.286.914-.19.139-.421.207-.692.207-.428 0-.642-.167-.642-.5 0-.494.54-.79 1.62-.887zm-31.68 0v.266c0 .472-.095.777-.285.914-.19.139-.42.207-.692.207-.428 0-.641-.167-.641-.5 0-.494.54-.79 1.619-.887zm15.63-1.698c.318 0 .539.115.662.343.122.228.184.602.184 1.12 0 .382-.045.748-.133 1.1-.085.348-.325.522-.718.522-.28 0-.49-.101-.63-.305-.139-.206-.209-.627-.209-1.262 0-.54.068-.928.204-1.164.135-.236.348-.354.64-.354zM39.9 49.586h2.533v-5.533H39.9v5.533zM62.33 43.94c-1.918 0-3.042.578-3.372 1.735l2.313.186c.067-.403.393-.605.978-.605.25 0 .437.04.564.12.13.08.197.242.197.485v.124c-1.579.073-2.68.29-3.302.654-.618.36-.928.83-.928 1.414 0 .432.19.814.566 1.148.38.334.952.5 1.714.5.927 0 1.62-.295 2.078-.887 0 .28.029.538.089.773h2.413c-.131-.297-.198-.656-.198-1.077v-2.21c0-.598-.044-1.003-.133-1.212-.084-.211-.253-.41-.508-.6-.253-.187-.6-.325-1.035-.412-.437-.09-.915-.136-1.436-.136zm-6.636 0c-.894 0-1.515.3-1.862.897v-.783h-2.349v5.533h2.534v-3.324c0-.551.231-.827.692-.827.157 0 .285.04.388.12.105.079.158.263.158.549v3.482h2.535v-3.542c0-.606-.07-1.03-.21-1.273-.14-.247-.373-.446-.698-.598-.322-.157-.72-.234-1.188-.234zm-8.72 0c-1.055 0-1.912.276-2.572.827-.657.552-.985 1.24-.985 2.068 0 .769.315 1.439.947 2.012.63.569 1.48.855 2.553.855 1.083 0 1.952-.277 2.604-.828.656-.555.984-1.246.984-2.073 0-.82-.325-1.501-.972-2.045-.644-.544-1.497-.816-2.56-.816zm-16.323 0c-1.918 0-3.043.578-3.373 1.735l2.313.186c.067-.403.394-.605.978-.605.25 0 .438.04.565.12.131.08.197.242.197.485v.124c-1.58.073-2.68.29-3.302.654-.619.36-.927.83-.927 1.414 0 .432.188.814.564 1.148.381.334.953.5 1.715.5.927 0 1.62-.295 2.077-.887 0 .28.03.538.09.773h2.412c-.131-.297-.197-.656-.197-1.077v-2.21c0-.598-.044-1.003-.133-1.212-.085-.211-.254-.41-.508-.6-.254-.187-.6-.325-1.035-.412-.436-.09-.916-.136-1.436-.136zm7.12-1.72l-2.408.033-.038 1.8h-.964v1.409h.964v1.748l-.006.647c0 .628.182 1.084.546 1.37.37.287.943.43 1.722.43.483 0 .973-.041 1.473-.124v-1.545c-.28.061-.521.092-.725.092-.13 0-.258-.025-.38-.076-.124-.054-.184-.221-.184-.5V45.46h1.289v-1.408h-1.29V42.22zm-19.2-.06v7.427h2.16V45.99c0-.334-.07-.74-.21-1.22.31.603.616 1.115.921 1.535l2.375 3.281h2.166V42.16h-2.166v2.197c0 .664.068 1.314.204 1.948-.208-.409-.513-.885-.915-1.425l-2.019-2.72h-2.515zM39.9 43.646h2.533v-1.72H39.9v1.72zM136.486 49.586h2.534v-5.533h-2.534v5.533zm0-5.94h2.534v-1.72h-2.534v1.72zM167.989 49.587h2.534v-5.534h-2.534v5.534zm6.56-7.367l-2.407.032-.038 1.8h-.966v1.41h.966v1.747l-.007.647c0 .628.182 1.084.547 1.37.369.287.942.43 1.721.43.482 0 .973-.041 1.473-.124v-1.545c-.28.062-.52.092-.724.092-.131 0-.259-.025-.381-.076-.123-.054-.184-.221-.184-.5V45.46h1.29v-1.408h-1.29V42.22zm-6.56 1.425h2.534v-1.72h-2.534v1.72zM66.751 49.586L69.247 49.586 69.247 42.16 66.751 42.16zM83.353 42.16L83.353 49.586 80.883 49.586 80.883 44.276 79.276 49.586 77.587 49.586 75.923 44.276 75.923 49.586 73.928 49.586 73.928 42.16 77.402 42.16 78.66 46.104 79.86 42.16zM100.539 45.3c.318 0 .539.114.661.342.123.228.184.602.184 1.12 0 .382-.044.749-.133 1.1-.085.348-.324.522-.718.522-.28 0-.49-.101-.629-.305-.14-.206-.209-.628-.209-1.262 0-.54.068-.928.203-1.164.136-.236.35-.354.64-.354zm-12.55 0c.318 0 .538.114.661.342.123.228.185.602.185 1.12 0 .382-.045.749-.134 1.1-.085.348-.323.522-.717.522-.28 0-.49-.101-.63-.305-.139-.206-.21-.628-.21-1.262 0-.54.07-.928.205-1.164.135-.236.348-.354.64-.354zm12.564-1.361c-1.055 0-1.913.276-2.573.827-.657.551-.984 1.24-.984 2.068 0 .769.315 1.44.946 2.012.63.569 1.482.855 2.553.855 1.084 0 1.952-.276 2.605-.828.656-.554.983-1.246.983-2.072 0-.82-.324-1.502-.971-2.046-.644-.544-1.497-.816-2.56-.816zm-12.55 0c-1.054 0-1.912.276-2.572.827-.657.551-.986 1.24-.986 2.068 0 .769.316 1.44.948 2.012.63.569 1.482.855 2.553.855 1.084 0 1.951-.276 2.603-.828.656-.554.984-1.246.984-2.072 0-.82-.324-1.502-.971-2.046-.644-.544-1.496-.816-2.56-.816zm7.208-1.72l-2.407.033-.039 1.8H91.8v1.41h.965v1.746l-.006.648c0 .628.182 1.084.546 1.37.369.287.942.43 1.721.43.483 0 .975-.04 1.475-.124v-1.546c-.28.063-.521.093-.725.093-.13 0-.257-.025-.38-.076-.123-.054-.185-.222-.185-.5V45.46h1.29v-1.408h-1.29V42.22zM107.488 49.586h-2.426v-5.533h2.108v1.143c.242-.83.803-1.246 1.683-1.246.09 0 .212.007.369.021v1.932c-.178-.037-.336-.054-.477-.054-.838 0-1.257.4-1.257 1.202v2.535zM120.857 42.16l-2.693 7.426h-2.712l-2.807-7.426h2.807l1.366 4.048c.092.239.175.474.247.707l1.6-4.755h2.192zM125.258 46.164c-.005-.373-.093-.624-.266-.751-.17-.13-.382-.195-.636-.195-.6 0-.902.315-.902.946h1.804zm.165 1.436l2.363.136c-.14.544-.498 1.01-1.074 1.393-.571.381-1.346.571-2.324.571-1.088 0-1.956-.268-2.604-.805-.648-.54-.971-1.209-.971-2.007 0-.828.319-1.525.958-2.095.639-.57 1.493-.854 2.56-.854 1.033 0 1.867.268 2.502.805.64.537.96 1.268.96 2.192 0 .077-.003.182-.007.316h-4.326c.01.348.081.608.217.778.135.167.393.25.774.25.551 0 .875-.226.972-.68zM135.134 49.586h-2.528v-3.329c0-.305-.04-.514-.12-.626-.077-.115-.228-.175-.451-.175-.174 0-.327.046-.458.137-.126.087-.201.178-.222.272-.021.094-.032.292-.032.593v3.128h-2.534V42.16h2.534v2.546c.457-.511 1.055-.767 1.791-.767.373 0 .699.056.978.168.284.11.502.25.654.425.153.174.255.343.305.506.056.163.083.48.083.947v3.601zM154.194 45.217c.254 0 .465.066.635.196.174.126.261.378.265.751h-1.802c0-.63.3-.947.902-.947zm-.026-1.278c-1.067 0-1.92.284-2.559.855-.64.569-.96 1.266-.96 2.094 0 .797.325 1.467.972 2.008.649.536 1.516.805 2.604.805.978 0 1.753-.19 2.325-.572.576-.384.934-.849 1.073-1.394l-2.362-.135c-.098.454-.422.68-.972.68-.382 0-.64-.083-.776-.25-.135-.17-.207-.43-.215-.778h4.325c.005-.134.006-.239.006-.315 0-.925-.32-1.657-.958-2.193-.637-.538-1.47-.805-2.503-.805zm-10.86 0c-.979 0-1.775.276-2.389.827-.61.547-.914 1.245-.914 2.093 0 .832.308 1.515.921 2.047.62.53 1.42.795 2.407.795.88 0 1.586-.203 2.115-.61.533-.406.852-.933.953-1.578l-2.159-.157c-.085.547-.355.821-.807.821-.31 0-.527-.108-.655-.326-.122-.218-.184-.553-.184-1.006 0-.527.062-.896.184-1.105.128-.214.326-.321.598-.321.423 0 .682.291.774.876l2.217-.158c-.08-.634-.394-1.16-.94-1.573-.546-.417-1.253-.625-2.122-.625zm3.847 5.648h2.497V42.16h-2.497v7.428zM165.518 43.939L165.518 49.586 162.997 49.586 162.997 43.939 161.199 43.939 161.199 42.16 167.315 42.16 167.315 43.939zM176.676 49.586L179.172 49.586 179.172 42.16 176.676 42.16zM184.615 46.164c-.004-.373-.093-.624-.266-.751-.17-.13-.382-.195-.636-.195-.6 0-.902.315-.902.946h1.804zm.166 1.436l2.362.136c-.14.544-.497 1.01-1.073 1.393-.571.381-1.347.571-2.324.571-1.09 0-1.956-.268-2.605-.805-.648-.54-.971-1.209-.971-2.007 0-.828.319-1.525.958-2.095.64-.57 1.493-.854 2.56-.854 1.033 0 1.867.268 2.502.805.64.537.96 1.268.96 2.192 0 .077-.002.182-.007.316h-4.325c.008.348.08.608.216.778.136.167.393.25.775.25.55 0 .874-.226.972-.68zM68.085 60.435L70.746 60.435 70.746 53.009 68.085 53.009zM88.117 56.147c.318 0 .537.115.66.344.123.228.184.6.184 1.12 0 .38-.044.747-.133 1.1-.085.348-.324.522-.718.522-.28 0-.488-.102-.628-.306-.14-.206-.21-.627-.21-1.261 0-.54.067-.93.203-1.165.136-.236.35-.354.642-.354m.012-1.359c-1.055 0-1.912.275-2.573.827-.656.55-.983 1.24-.983 2.068 0 .769.315 1.44.945 2.013.631.568 1.482.853 2.554.853 1.084 0 1.953-.275 2.604-.827.656-.554.984-1.246.984-2.073 0-.82-.324-1.501-.972-2.046-.644-.543-1.497-.815-2.559-.815m-11.756 0c-.893 0-1.513.3-1.86.898v-.784h-2.35v5.533h2.533V57.11c0-.55.231-.827.692-.827.157 0 .287.04.388.12.106.08.158.263.158.55v3.48h2.535v-3.541c0-.606-.07-1.03-.21-1.273-.138-.246-.373-.445-.698-.599-.322-.155-.718-.233-1.188-.233m6.21-2.155c-.528 0-.949.054-1.262.163-.313.106-.564.26-.75.464-.186.2-.303.408-.35.63-.045.217-.069.554-.069 1.012h-.965v1.409h.965v4.124h2.388V56.31h1.632v-1.409h-1.65v-.196c0-.268.082-.437.248-.505.164-.07.346-.105.546-.105.198 0 .498.024.9.071v-1.42c-.521-.076-1.064-.114-1.632-.114M112.599 57.845v.267c0 .472-.094.776-.285.914-.19.138-.422.207-.693.207-.427 0-.641-.167-.641-.501 0-.494.54-.79 1.619-.887zm-16.17-3.047c-.88 0-1.441.415-1.683 1.246v-1.142h-2.108v5.532h2.426V57.9c0-.802.419-1.202 1.258-1.202.139 0 .299.018.477.054v-1.93c-.156-.015-.28-.023-.37-.023zm15.491-.01c-1.917 0-3.042.578-3.372 1.736l2.311.184c.068-.402.394-.603.978-.603.25 0 .44.04.567.12.131.08.195.24.195.483v.125c-1.579.073-2.68.29-3.302.653-.618.36-.927.831-.927 1.415 0 .432.189.815.565 1.148.38.334.953.5 1.715.5.927 0 1.62-.295 2.076-.887 0 .28.03.537.09.772h2.413c-.132-.296-.197-.654-.197-1.076V57.15c0-.599-.045-1.003-.133-1.213-.085-.21-.255-.41-.508-.6-.255-.188-.6-.325-1.035-.412-.436-.092-.915-.135-1.436-.135zm-10.282 0c-.774 0-1.366.287-1.772.86v-.746h-2.275v5.532h2.44v-3.459c0-.442.205-.664.616-.664.398 0 .597.222.597.664v3.46h2.432v-3.199c0-.59.237-.887.711-.887.2 0 .337.047.413.141.081.09.121.252.121.485v3.46h2.458V56.67c0-.49-.072-.85-.217-1.083-.139-.236-.367-.428-.684-.577-.313-.15-.679-.221-1.093-.221-.87 0-1.512.286-1.93.859-.378-.573-.983-.86-1.817-.86zm17.402-1.72l-2.407.033-.038 1.801h-.965v1.409h.965v1.747l-.007.647c0 .628.183 1.084.547 1.371.368.286.942.43 1.722.43.482 0 .973-.042 1.472-.126v-1.544c-.28.062-.521.091-.724.091-.132 0-.258-.024-.38-.076-.124-.054-.185-.22-.185-.5v-2.04h1.289v-1.409h-1.29v-1.834zM128.23 56.147c.318 0 .537.115.66.344.123.228.184.6.184 1.12 0 .38-.044.747-.133 1.1-.085.348-.324.522-.718.522-.28 0-.488-.102-.628-.306-.14-.206-.21-.627-.21-1.261 0-.54.068-.93.203-1.165.135-.236.35-.354.642-.354zm-7.063 4.288h2.535v-5.533h-2.535v5.533zm7.075-5.647c-1.054 0-1.91.275-2.571.827-.657.55-.986 1.24-.986 2.068 0 .769.316 1.44.947 2.013.63.568 1.482.853 2.552.853 1.085 0 1.953-.275 2.605-.827.657-.554.984-1.246.984-2.073 0-.82-.323-1.501-.97-2.046-.644-.543-1.499-.815-2.561-.815zm-7.075-.294h2.535v-1.719h-2.535v1.719zM139.059 60.435h-2.535v-3.482c0-.286-.052-.47-.158-.55-.102-.08-.231-.119-.388-.119-.461 0-.692.276-.692.827v3.324h-2.534v-5.533h2.35v.784c.347-.6.967-.899 1.86-.899.47 0 .866.079 1.188.235.326.152.559.351.699.598.14.243.21.667.21 1.273v3.542zM173.119 56.066c.253 0 .466.066.636.196.174.127.261.377.265.75h-1.802c0-.63.3-.946.9-.946zm-22.28-1.164l2.318 5.13c.072.16.109.285.109.375 0 .276-.364.414-1.092.414-.28 0-.585-.022-.916-.066v1.54c.665.034 1.088.05 1.27.05.758 0 1.32-.13 1.684-.387.363-.254.645-.607.84-1.06l2.532-5.996h-1.848l-1.117 2.949-1.067-2.95h-2.712zm30.747-.114c-.775 0-1.366.286-1.772.86v-.746h-2.275v5.533h2.44v-3.46c0-.443.205-.664.616-.664.398 0 .597.221.597.664v3.46h2.432v-3.2c0-.59.237-.886.711-.886.199 0 .337.047.414.141.079.09.12.252.12.485v3.46h2.457v-3.766c0-.488-.072-.85-.215-1.082-.14-.236-.368-.428-.686-.577-.313-.149-.678-.222-1.093-.222-.868 0-1.51.286-1.93.86-.376-.574-.982-.86-1.816-.86zm-8.492 0c-1.067 0-1.92.284-2.559.854-.64.57-.96 1.268-.96 2.095 0 .798.325 1.466.972 2.007.649.537 1.516.804 2.604.804.978 0 1.753-.19 2.324-.57.575-.384.935-.849 1.074-1.393l-2.363-.136c-.098.454-.42.68-.971.68-.382 0-.64-.083-.776-.25-.135-.171-.207-.43-.215-.778h4.325c.005-.134.006-.239.006-.316 0-.925-.32-1.655-.958-2.192-.637-.537-1.47-.805-2.503-.805zm-12.264 0c-.894 0-1.615.175-2.166.527-.55.349-.825.805-.825 1.371 0 .407.163.777.488 1.11.326.33 1.146.573 2.458.729.475.055.776.11.903.164.127.05.19.123.19.217 0 .217-.328.326-.984.326-.792 0-1.245-.199-1.36-.598l-2 .234c.415 1.121 1.497 1.68 3.245 1.68 1.038 0 1.85-.177 2.439-.532.593-.355.889-.836.889-1.44 0-.397-.133-.735-.4-1.014-.266-.28-.589-.471-.966-.577-.377-.105-1.094-.208-2.153-.31-.406-.04-.61-.15-.61-.332 0-.061.066-.123.197-.184.136-.065.34-.098.61-.098.572 0 .947.163 1.125.49l1.918-.311c-.432-.968-1.432-1.452-2.998-1.452zm6.948-1.72l-2.407.033-.037 1.8h-.966v1.41h.966v1.746l-.007.649c0 .627.182 1.084.546 1.37.369.287.943.43 1.721.43.483 0 .974-.042 1.474-.126v-1.544c-.28.062-.522.09-.725.09-.131 0-.258-.023-.38-.075-.124-.054-.185-.22-.185-.5v-2.04h1.29v-1.41h-1.29v-1.833zm-20.889-.174c-1.165 0-2.058.232-2.68.696-.618.465-.927 1.046-.927 1.747 0 .544.216 1.018.647 1.42.433.403 1.41.73 2.93.98.397.068.672.148.824.238.157.087.235.211.235.37 0 .305-.334.458-1.003.458-.859 0-1.394-.3-1.602-.897l-2.469.38c.495 1.51 1.799 2.262 3.912 2.262 1.156 0 2.089-.23 2.8-.695.712-.468 1.067-1.077 1.067-1.828 0-.475-.146-.887-.438-1.235-.292-.353-.656-.601-1.092-.746-.436-.145-1.173-.31-2.21-.5-.377-.068-.63-.141-.762-.218-.132-.077-.198-.183-.198-.321 0-.307.291-.463.871-.463.699 0 1.162.249 1.391.746l2.203-.57c-.567-1.216-1.733-1.824-3.499-1.824zM32.222 64.113s-2.274-4.998-2.93-5.68c-.654-.682-3.108-.516-5.858-.356-2.716.157-3.059.54-3.54 1.982.069-.852.519-1.723 1.127-1.913.98-.306 3.116-.82 5.45-.911 3.178-.124 3.393-.23 5.43 3.199 2.036 3.43 1.214 2.965 2.393 2.965 1.179 0 4.858-.072 6.823-.107 1.963-.037 2.786-.072 3.679-.144.893-.07 1.394.072.429-.857-.965-.93-3.38-3.394-4.394-4.036-.079-.05-.164-.097-.255-.14-2.374-.397-6.639-.3-10-.324 2.771-.102 5.613-.168 8.78-.073l-.15-.037c-1.078-.254-3.556-.395-8.564-.637 2.746-.031 7.388.202 8.903.461 2.097.356 3.612 2.292 4.754 3.39 1.143 1.1 1.42 1.386 1.965 1.955.545.57 2.107 1.543 3.107 2.615 1 1.072 1.407 1.667 1.223 1.89-.185.223-1.702 1.79-1.57 2.433.121.591 1.86-.151 2.169-.54.115-.144.203-.159.267.098s.17.524-1.654 1.02c-1.823.497-5.04 1.204-8.385 1.204-3.348 0-5.717-.264-6.244-.414-.527-.15-.817-.135-.958-.389-.14-.254-1.065-2.017-2.151-1.795-1.087.222-1.214.927-1.254 1.76-.038.833.042 1.792.249 2.252.207.46.357.827-.112.583-.47-.244-8.423-4.205-8.759-4.374-.096-.047-.26-.017-.558-.638-.3-.623-.815-4.077-1.708-2.76.013-.582.735-1.086 1.029-.278.293.808.59 2.725 1.098 3.064.508.338 8.179 3.854 8.179 3.854s.452.245.338-.64c-.112-.883-.217-3.182 1.138-3.695 1.356-.513 2.35.325 2.642 1.439.292 1.116.865 1.43 1.655 1.128.79-.3.837.02 1.781.176.946.153 2.472.37 3 .257.525-.114 1.425-.326.3-1.51-.99-1.04-2.481-1.35-4.09-1.648-.986-.183-1.65-.066-1.612.385.038.45-.188.113-.94-.301s-4.382-2.7-6.073-3.263c-1.693-.565-4.7-1.654-4.7-1.654s3.647 1.089 5.151 1.503c1.504.414 3.016.843 3.354.23.222-.404.073-.649.046-.73zm17.7 2.677c-.314-.619-3.065-3.313-3.985-3.195-3.4.436-7.656.395-11.164.395-.461 0-1.12.1-1.219.494-.099.395-.801 1.365-1.131 1.365-.186 0-.107.229.19.409.656.4 1.65 1.304 2.229 1.548.103.043.78-.66 2.068-.496 1.286.162 2.906.639 3.56 1.028.568.34 1.971 1.43 1.845 2.239-.051.326.52.374 1.179.343.874-.042 3.858-.36 4.752-.675.315-.11.218-.064.288-.414.046-.226.12-.522.235-.803.231-.559.626-.987.989-1.382.361-.396.494-.461.163-.856zm-9.339 4.11c-.24.01-2.814-.123-3.371-.428-.575-.316-1.238-.966-1.421-1.633-.083-.297-.07-.563.503-.547 1.129.035 1.826.204 2.906.573.374.127.876.325 1.45.722.507.35.896 1.277-.067 1.312zm-2.597-.574c.138.023.25-.003.326-.065l1.64.2.872.108c-.07.048-.178.06-.297.057-.837-.026-1.73-.104-2.541-.3zm.41-.173c.032-.066.042-.148.03-.239l1.385.244c.416.074.774.136 1.085.19.01.064.005.115-.014.153l-.976-.136-1.51-.212zm-.002-.362c-.03-.088-.08-.182-.144-.276.55.125 1.015.233 1.413.324l1.136.258c.034.06.06.118.078.174l-1.113-.216-1.37-.264zm-.253-.425c-.06-.07-.124-.138-.195-.202l-.174-.153 1.734.49.993.28.076.058c.063.05.117.107.164.167-.324-.077-.694-.169-1.126-.274-.413-.102-.897-.222-1.472-.366zm-.643-.565c-.163-.112-.34-.204-.504-.232.848.221 2.373.54 3.272 1.062l-2.768-.83zm-.647-.114c-.25-.044-.402.037-.449.191-.044.141.004.342.14.559.124.2.302.383.49.523.18.134.378.236.56.28.185.043.33.02.42-.054.095-.08.13-.224.068-.422-.067-.219-.236-.455-.458-.658-.235-.214-.52-.377-.77-.419zm-.172.185c-.078-.013-.125.012-.14.06-.014.045.001.107.043.174.04.063.094.12.153.163.056.041.117.073.174.087.057.013.104.007.131-.017.03-.024.04-.07.021-.13-.02-.069-.074-.143-.143-.206-.073-.066-.161-.116-.24-.131zm14.836 1.487c-.364-.03-2.089 1.044-5.841 1.47-3.754.425-7.871.362-9.288.13-1.415-.23-1.79-.644-1.46.543.33 1.186.209 2.85 2.35 2.883 2.14.031 5.686-.31 7.936-.823 2.25-.515 4.627-1.082 5.262-1.45.567-.327 1.608-2.703 1.041-2.753zm-2.021-.515c.426-.024 1.096-.258 1.625-.673.126-.099.186-.21.148-.417-.07-.389-.174-.903-.379-1.25-.085-.144-.194-.052-.293.072-.43.54-.83 1.057-1.215 1.628-.318.474-.066.652.114.64zm1.154-2.044l.084-.195c-.1.146-.218.286-.333.425l-.183.217c-.107.124-.211.249-.308.369-.097.123-.187.243-.262.36l.276-.308c.118-.135.24-.275.365-.422.066-.08.133-.163.198-.246.065-.083.097-.112.163-.2zm-.14.44c.014-.056.03-.114.048-.17l.047-.133c-.073.09-.142.174-.208.25-.066.079-.128.153-.188.22-.111.126-.211.237-.3.332-.131.144-.244.262-.34.363-.008.015-.018.03-.026.047-.022.04-.043.083-.06.126.107-.1.236-.226.397-.383l.273-.275c.105-.108.223-.234.358-.376zm-.011.335c-.012-.069-.013-.142-.006-.22-.134.136-.253.254-.358.356-.1.097-.19.183-.27.258-.165.156-.298.276-.408.375-.014.043-.026.085-.037.126.11-.086.244-.195.415-.334.082-.066.176-.144.281-.232l.383-.329zm.166.283c-.063-.048-.111-.113-.14-.186-.156.125-.292.232-.41.324l-.295.227c-.169.128-.304.227-.413.305-.009.047-.01.085-.007.112.103-.058.232-.134.39-.23.1-.06.214-.132.349-.217l.239-.152c.087-.055.184-.116.287-.183zm.518.063c-.154.063-.242.062-.372.018-.11.06-.214.12-.312.173l-.28.154-.442.239c-.13.069-.252.131-.362.186.022.037.063.04.11.027.092-.021.196-.051.307-.086.114-.038.238-.085.37-.142.077-.033.158-.07.242-.113.083-.04.17-.086.257-.136.087-.049.175-.102.264-.16.088-.057.13-.095.218-.16zm-.398-1.13c-.1.156-.152.39-.144.562.017.362.224.568.459.497.093-.03.082-.143.058-.257-.052-.239-.138-.558-.205-.73-.043-.108-.078-.216-.168-.073zm.07.081c-.042 0-.077.065-.078.144-.001.079.031.143.073.143.042 0 .077-.064.079-.143 0-.08-.032-.144-.074-.144zm.102 3.17c-1.212.456-2.382.83-3.538 1.058-1.124.222-2.273.365-3.439.459-1.228.099-2.496.146-3.807.158-1.32.015-2.693-.02-4.114-.065-.059-.001-.104.026-.095.064.01.046.017.09.029.134.009.036.066.067.124.07 1.397.033 2.75.056 4.059.028 1.302-.026 2.563-.081 3.782-.19 1.167-.104 2.312-.256 3.435-.481 1.155-.232 2.32-.602 3.525-1.052.05-.017.091-.055.097-.08.006-.03.014-.062.018-.092.003-.025-.026-.03-.076-.011zm-.078.33c-1.2.444-2.363.81-3.516 1.045-1.121.228-2.261.385-3.42.496-1.218.118-2.467.185-3.758.221-1.294.036-2.632.02-4.014-.005-.054-.001-.093.028-.082.063l.046.131c.013.034.07.064.126.064 1.352.017 2.665.021 3.938-.027 1.273-.047 2.511-.127 3.718-.252 1.152-.12 2.29-.285 3.407-.517 1.15-.239 2.305-.6 3.497-1.038.05-.018.094-.055.102-.08.01-.03.02-.058.028-.09.008-.025-.024-.028-.072-.011zm-.109.323c-1.188.433-2.34.792-3.486 1.033-1.11.236-2.241.406-3.386.534-1.196.132-2.422.222-3.682.278-1.256.056-2.547.06-3.873.052-.055 0-.088.028-.07.062.019.043.039.086.06.126.019.036.079.063.131.063 1.29 0 2.55-.014 3.78-.08 1.237-.069 2.445-.17 3.626-.312 1.136-.135 2.256-.311 3.362-.55 1.142-.246 2.285-.602 3.464-1.027.05-.018.096-.053.106-.08.013-.027.026-.057.038-.087.01-.024-.022-.028-.07-.012zm-.138.32c-1.176.42-2.313.773-3.445 1.022-1.099.242-2.213.424-3.34.566-1.165.148-2.358.259-3.576.334-1.208.074-2.44.096-3.698.103-.053 0-.078.027-.06.06l.079.123c.021.033.08.06.128.06 1.22-.017 2.418-.047 3.593-.13 1.19-.086 2.359-.206 3.51-.36 1.11-.153 2.21-.34 3.3-.586 1.125-.253 2.253-.603 3.418-1.018.047-.017.095-.051.108-.076.013-.029.03-.058.044-.087.012-.025-.014-.03-.061-.012zm-16.106-.06c.072.422.23 1.303.348 1.775.158.636.493 1.325.812 1.642.317.317.493.407.264.936-.23.529-.547.987-1.518.97-.972-.017-1.995-.388-2.543-1.447-.288-.559-.483-1.112-.59-1.655.41 1.169 1.187 2.068 1.935 2.148.927.097 1.462-1.094 1.196-2.664-.267-1.568-1.235-2.918-2.162-3.017-.248-.027-.468.038-.652.18.231-.523.601-.924 1.21-.924.176 0 .616.011.688.282.149.561.534 1.025.803 1.338.154.18.168.204.209.436zm13.256 2.808c-.284.046-1.26.16-1.465-.196 1.076-.253 2.102-.508 2.872-.735-.383.437-.787.833-1.407.931zM21.036 67.05c.084.475.326 1.903.692 2.17.347.25.796.346.796.555 0 .21.043.954-.586 1.017-.63.063-1.092.025-1.352-.199-.193-.165-.359-.607-.47-1.146.153.442.363.763.577.834.369.124.61-.54.539-1.481-.07-.942-.426-1.805-.794-1.929-.147-.05-.273.027-.369.196.071-.304.184-.544.35-.667.39-.29.568.37.617.65z" mask="url(#3s1i7qbz8f)"/>
                    </g>
                </g>
            </g>
        </g>
    </g>
</svg>
