<?xml version="1.0" encoding="UTF-8"?>
<svg width="57px" height="51px" viewBox="0 0 57 51" version="1.1" xmlns="http://www.w3.org/2000/svg" xmlns:xlink="http://www.w3.org/1999/xlink">
    <title>Bumperlogo/notype</title>
    <defs>
        <polygon id="path-1" points="3.70086577e-05 0.16 37.4900297 0.16 37.4900297 51 3.70086577e-05 51"></polygon>
        <polygon id="path-3" points="0.115 0.1928 29.376 0.1928 29.376 49.6708 0.115 49.6708"></polygon>
    </defs>
    <g id="Bumperlogo/notype" stroke="none" stroke-width="1" fill="none" fill-rule="evenodd">
        <g id="Group-21" transform="translate(0.000000, -1.000000)">
            <polygon id="Fill-1" fill="#F04C2C" points="42.1505 28.4704 34.0095 32.3004 32.5995 29.3204 35.5705 21.6194 38.3095 20.3294"></polygon>
            <g id="Group-20" transform="translate(0.000000, 0.840100)">
                <path d="M54.5099,42.1704 L38.3699,49.7794 C37.7999,50.0504 37.2099,50.1704 36.6199,50.1704 C35.0709,50.1704 33.5899,49.3004 32.8899,47.8104 L30.6299,43.0104 L28.6299,38.7704 L30.8799,32.9404 L34.0099,31.4604 L37.8499,39.5904 L31.8699,42.4204 L34.1299,47.2204 C34.7809,48.5904 36.4099,49.1804 37.7809,48.5394 L41.2899,46.8804 L37.8499,39.6004 L45.9899,35.7604 L49.4199,43.0504 L53.9299,40.9204 C55.2999,40.2794 55.8799,38.6404 55.2399,37.2704 L52.9799,32.4704 L45.9899,35.7604 L42.1509,27.6304 L49.1399,24.3294 L45.2999,16.1994 L38.3099,19.4894 L36.9799,16.6704 C36.9799,16.6804 36.9699,16.6994 36.9699,16.7204 C37.0399,16.0004 36.9299,15.2794 36.6199,14.6004 L35.0599,11.0794 L41.4599,8.0604 C41.1509,7.4304 40.6109,6.9604 39.9499,6.7204 L31.8299,3.8004 L31.0599,2.0604 L40.4099,5.4304 C41.4499,5.8004 42.2809,6.5504 42.7399,7.5504 L56.4799,36.6904 C57.4499,38.7394 56.5709,41.1994 54.5099,42.1704" id="Fill-2" fill="#F04C2C"></path>
                <path d="M25.7599,10.0005 C24.8799,10.0005 24.1699,9.2795 24.1699,8.4095 C24.1699,7.5295 24.8799,6.8195 25.7599,6.8195 C26.6399,6.8195 27.3499,7.5295 27.3499,8.4095 C27.3499,9.2795 26.6399,10.0005 25.7599,10.0005 M25.7599,5.4395 C25.0199,5.4395 24.3399,5.7105 23.8209,6.1595 L23.8209,6.1705 C23.1899,6.7105 22.7899,7.5105 22.7899,8.4095 C22.7899,8.5795 22.7999,8.7395 22.8399,8.8995 L22.9099,9.2295 C22.9099,9.2505 22.9199,9.2705 22.9199,9.2795 C23.2999,10.4895 24.4299,11.3695 25.7599,11.3695 C27.3899,11.3695 28.7199,10.0395 28.7199,8.4095 C28.7199,6.7705 27.3899,5.4395 25.7599,5.4395" id="Fill-4" fill="#F04C2C"></path>
                <path d="M25.7599,10.0005 C24.8799,10.0005 24.1699,9.2795 24.1699,8.4095 C24.1699,7.5295 24.8799,6.8195 25.7599,6.8195 C26.6399,6.8195 27.3499,7.5295 27.3499,8.4095 C27.3499,9.2795 26.6399,10.0005 25.7599,10.0005 Z M25.7599,5.4395 C25.0199,5.4395 24.3399,5.7105 23.8209,6.1595 L23.8209,6.1705 C23.1899,6.7105 22.7899,7.5105 22.7899,8.4095 C22.7899,8.5795 22.7999,8.7395 22.8399,8.8995 L22.9099,9.2295 C22.9099,9.2505 22.9199,9.2705 22.9199,9.2795 C23.2999,10.4895 24.4299,11.3695 25.7599,11.3695 C27.3899,11.3695 28.7199,10.0395 28.7199,8.4095 C28.7199,6.7705 27.3899,5.4395 25.7599,5.4395 Z" id="Stroke-6" stroke="#F04C2C" stroke-width="0.25"></path>
                <path d="M20.3204,31.5005 L20.2994,31.5005 C20.0404,32.2605 19.3204,32.5005 18.4694,32.2105 L15.7994,31.2895 L16.8894,29.3105 L19.4104,30.1805 C20.1104,30.4305 20.5304,30.8805 20.3204,31.5005 M17.9694,36.3805 L17.9604,36.3805 C17.5904,37.4495 16.7004,37.6805 15.7804,37.3595 L12.9904,36.3995 L14.3494,33.9605 L17.0004,34.8695 C17.9604,35.1995 18.1794,35.7895 17.9694,36.3805 M20.7994,27.3905 L15.1104,25.4305 C14.9604,25.3805 14.7904,25.4395 14.7104,25.5905 L8.1104,37.5695 C8.0494,37.6595 8.0404,37.7605 8.0804,37.8505 C8.1104,37.9495 8.1894,38.0205 8.2904,38.0505 L14.8304,40.3005 C17.6794,41.2795 20.6704,40.4095 21.6304,37.6195 C22.0494,36.5505 21.8404,35.3505 21.0904,34.4795 C22.5594,34.4605 23.8604,33.4895 24.3094,32.0795 C25.0094,30.0605 23.8404,28.4395 20.7994,27.3905" id="Fill-8" fill="#F04C2C"></path>
                <path d="M24.2316,3.6186 L15.2206,7.6086 C14.6066,7.8796 14.1396,8.3726 13.9046,8.9976 L2.2936,39.0506 C2.0566,39.6686 2.0736,40.3476 2.3386,40.9606 C2.6076,41.5616 3.0996,42.0306 3.7226,42.2776 L20.3696,48.7066 C20.6606,48.8156 20.9636,48.8716 21.2706,48.8716 C21.6176,48.8716 21.9576,48.8016 22.2806,48.6606 C22.8926,48.3906 23.3596,47.8966 23.5946,47.2716 L24.1356,45.8596 L27.0666,38.2906 L27.5766,36.9606 L28.2656,35.1896 L28.8356,33.7006 L35.2066,17.2206 C35.4426,16.6096 35.4256,15.9146 35.1616,15.3106 L30.0486,3.7666 C29.9886,3.6326 29.9126,3.4986 29.8236,3.3696 L29.7476,3.2776 C29.4746,2.9046 29.1086,2.6276 28.6596,2.4536 C28.3706,2.3456 28.0706,2.2896 27.7696,2.2896 C27.4256,2.2896 27.0816,2.3606 26.7466,2.5006 L26.3416,2.6806 L26.3326,2.6806 L24.3726,3.5466 L24.2316,3.6186 Z M21.2696,50.7506 C20.7276,50.7506 20.1986,50.6496 19.6976,50.4526 L3.0496,44.0226 C1.9576,43.5986 1.0976,42.7816 0.6306,41.7206 C0.1536,40.6496 0.1236,39.4596 0.5456,38.3696 L12.1466,8.3196 C12.5716,7.2236 13.3936,6.3656 14.4606,5.9006 L24.9186,1.2716 C25.0636,1.1926 25.1626,1.1396 25.2686,1.0866 C25.4476,1.0076 25.6166,0.9436 25.7856,0.8916 L25.9956,0.7926 C26.5606,0.5386 27.1566,0.4096 27.7676,0.4096 C28.3036,0.4096 28.8336,0.5096 29.3396,0.7066 C29.8536,0.9046 30.3386,1.2186 30.7816,1.6386 C30.8806,1.7226 30.9166,1.7526 30.9486,1.7856 L32.0456,3.6756 L36.8476,14.4986 C37.1696,15.2026 37.2946,15.9586 37.2186,16.7446 C37.1836,17.0446 37.1246,17.4326 36.9726,17.8286 L25.3526,47.9496 C25.0756,48.6486 24.6266,49.2556 24.0176,49.7536 C23.7666,49.9506 23.4326,50.1956 23.0416,50.3686 C22.4826,50.6216 21.8856,50.7506 21.2696,50.7506 L21.2696,50.7506 Z" id="Fill-10" fill="#F04C2C"></path>
                <g id="Group-14">
                    <mask id="mask-2" fill="white">
                        <use xlink:href="#path-1"></use>
                    </mask>
                    <g id="Clip-13"></g>
                    <path d="M26.3849,2.9301 L26.3859,2.9301 L26.4929,2.8871 L26.8539,2.7271 C27.1479,2.6041 27.4589,2.5391 27.7699,2.5391 C28.0419,2.5391 28.3129,2.5901 28.5739,2.6881 C28.9739,2.8431 29.3029,3.0911 29.5469,3.4251 L29.6899,3.6201 C29.7399,3.7031 29.7849,3.7881 29.8239,3.8751 L29.8679,3.9821 L34.9329,15.4121 C35.1709,15.9551 35.1869,16.5811 34.9739,17.1291 L33.3039,21.4501 L33.2699,21.5361 L33.2699,21.5461 L31.3229,26.5701 L28.6039,33.6101 L28.0329,35.1011 L27.6939,35.9801 L27.3449,36.8671 L26.8329,38.2011 L23.9039,45.7691 L23.3639,47.1811 C23.1509,47.7451 22.7299,48.1891 22.1779,48.4321 C21.8889,48.5581 21.5819,48.6221 21.2699,48.6221 C20.9939,48.6221 20.7209,48.5721 20.4559,48.4721 L3.8099,42.0431 C3.2529,41.8231 2.8099,41.4001 2.5669,40.8561 C2.3289,40.3071 2.3149,39.6951 2.5279,39.1381 L14.1369,9.0901 C14.3499,8.5241 14.7699,8.0801 15.3219,7.8371 L23.4119,4.2571 L24.3329,3.8461 L24.6299,3.7141 L24.6299,3.7061 L26.0209,3.0981 L26.0609,3.0801 L26.0969,3.0561 L26.3849,2.9301 Z M27.7679,0.1591 C27.1209,0.1591 26.4899,0.2951 25.8949,0.5641 L25.6799,0.6621 C25.5129,0.7161 25.3469,0.7791 25.1799,0.8521 C25.0309,0.9251 24.9159,0.9891 24.8009,1.0511 L14.3579,5.6721 C13.2329,6.1621 12.3639,7.0711 11.9139,8.2291 L0.3139,38.2801 C-0.1341,39.4311 -0.1011,40.6901 0.4039,41.8241 C0.8959,42.9431 1.8039,43.8071 2.9589,44.2561 L19.6099,50.6861 C20.1339,50.8941 20.6949,51.0001 21.2699,51.0001 C21.9219,51.0001 22.5539,50.8641 23.1469,50.5951 C23.5609,50.4121 23.9099,50.1561 24.1689,49.9531 C24.8189,49.4221 25.2919,48.7821 25.5849,48.0441 L28.5759,40.2891 L29.0959,38.9511 L31.3469,33.1191 L33.0669,28.6591 L36.0359,20.9591 L37.2059,17.9191 C37.3669,17.4981 37.4299,17.0881 37.4669,16.7791 C37.5479,15.9401 37.4159,15.1411 37.0749,14.3931 L35.5169,10.8771 L33.2969,5.8771 L32.2869,3.5971 L32.2769,3.5741 L32.2629,3.5501 L31.2029,1.7101 L31.1699,1.6531 L31.1229,1.6061 C31.0869,1.5701 31.0469,1.5351 31.0069,1.5031 C30.9919,1.4911 30.9769,1.4801 30.9639,1.4661 C30.4869,1.0131 29.9739,0.6821 29.4299,0.4731 C28.8949,0.2651 28.3349,0.1591 27.7679,0.1591 L27.7679,0.1591 Z M21.2699,49.1221 C21.6479,49.1221 22.0239,49.0441 22.3799,48.8901 C23.0599,48.5901 23.5709,48.0501 23.8299,47.3601 L24.3699,45.9501 L27.2999,38.3801 L27.8099,37.0501 L28.1599,36.1601 L28.4999,35.2801 L29.0709,33.7891 L31.7899,26.7501 L33.7699,21.6401 L33.7699,21.6301 L35.4399,17.3101 C35.6999,16.6401 35.6799,15.8691 35.3899,15.2101 L30.3299,3.7891 L30.2809,3.6701 C30.1899,3.4701 30.0799,3.2891 29.9599,3.1301 L29.9499,3.1301 C29.6509,2.7201 29.2399,2.4091 28.7499,2.2201 C28.4299,2.1001 28.0999,2.0391 27.7699,2.0391 C27.3899,2.0391 27.0099,2.1191 26.6509,2.2701 L26.2899,2.4301 L26.2809,2.4301 L25.8499,2.6191 L25.8209,2.6401 L24.1299,3.3801 L24.1299,3.3901 L23.2099,3.8001 L15.1199,7.3801 C14.4399,7.6801 13.9299,8.2201 13.6699,8.9091 L2.0599,38.9601 C1.7999,39.6401 1.8209,40.3901 2.1109,41.0601 C2.4099,41.7301 2.9499,42.2401 3.6299,42.5101 L20.2809,48.9401 C20.6029,49.0621 20.9369,49.1221 21.2699,49.1221 L21.2699,49.1221 Z M27.7679,0.6591 C28.2669,0.6591 28.7689,0.7531 29.2499,0.9401 C29.7699,1.1401 30.2199,1.4501 30.6109,1.8201 C30.6599,1.8691 30.7199,1.9091 30.7699,1.9601 L31.8299,3.8001 L32.8399,6.0791 L35.0599,11.0791 L36.6199,14.6001 C36.9299,15.2801 37.0399,16.0001 36.9699,16.7201 C36.9299,17.0601 36.8699,17.4001 36.7399,17.7401 L35.5709,20.7801 L32.5999,28.4801 L30.8799,32.9401 L28.6299,38.7701 L28.1109,40.1101 L25.1199,47.8601 C24.8499,48.5391 24.4099,49.1101 23.8609,49.5601 C23.5799,49.7801 23.2809,49.9901 22.9399,50.1401 C22.4099,50.3801 21.8399,50.5001 21.2699,50.5001 C20.7699,50.5001 20.2699,50.4101 19.7899,50.2201 L3.1399,43.7891 C2.1109,43.3901 1.2999,42.6191 0.8609,41.6191 C0.4099,40.6101 0.3799,39.4901 0.7809,38.4601 L12.3799,8.4091 C12.7809,7.3801 13.5499,6.5701 14.5599,6.1301 L25.0199,1.5001 L25.0399,1.4901 C25.1509,1.4301 25.2599,1.3691 25.3799,1.3101 C25.5399,1.2401 25.6999,1.1801 25.8609,1.1301 L26.0999,1.0201 C26.6319,0.7811 27.1979,0.6591 27.7679,0.6591 L27.7679,0.6591 Z" id="Fill-12" fill="#F04C2C" mask="url(#mask-2)"></path>
                </g>
                <path d="M36.6203,50.4204 C34.9323,50.4204 33.3783,49.4384 32.6633,47.9164 L28.3723,38.8104 L28.7663,35.7874 L30.3223,38.5284 L34.3563,47.1134 C34.7693,47.9844 35.6593,48.5484 36.6213,48.5484 C36.9863,48.5484 37.3413,48.4694 37.6753,48.3134 L53.8233,40.6944 C55.0633,40.1144 55.5983,38.6254 55.0143,37.3754 L48.9133,24.4364 L41.2333,8.1664 C40.9593,7.6074 40.4733,7.1764 39.8643,6.9554 L31.6443,3.9994 L30.5953,1.6264 L40.4953,5.1944 C41.6023,5.5894 42.4813,6.3894 42.9683,7.4454 L56.7063,36.5834 C57.2033,37.6344 57.2613,38.8184 56.8673,39.9174 C56.4733,41.0184 55.6743,41.8994 54.6163,42.3974 L38.4763,50.0064 C37.8973,50.2804 37.2723,50.4204 36.6203,50.4204" id="Fill-15" fill="#F04C2C"></path>
                <g id="Group-19" transform="translate(28.000000, 1.000000)">
                    <mask id="mask-4" fill="white">
                        <use xlink:href="#path-3"></use>
                    </mask>
                    <g id="Clip-18"></g>
                    <path d="M2.13,0.1928 L2.603,1.2618 L3.373,3.0028 L3.459,3.1978 L3.661,3.2708 L11.78,6.1908 C12.325,6.3878 12.763,6.7758 13.012,7.2808 L16.848,15.4138 L20.688,23.5438 L24.527,31.6828 L26.787,36.4828 C27.041,37.0248 27.069,37.6348 26.868,38.2008 C26.666,38.7648 26.258,39.2148 25.719,39.4668 L21.206,41.5978 L13.077,45.4268 L9.567,47.0888 C9.269,47.2268 8.949,47.2978 8.621,47.2978 C7.755,47.2978 6.954,46.7908 6.582,46.0058 L2.557,37.4388 L1.353,35.3138 L0.615,34.0148 L0.423,35.4968 L0.134,37.7058 L0.115,37.8508 L0.178,37.9828 L2.178,42.2228 L4.438,47.0228 C5.193,48.6308 6.835,49.6708 8.62,49.6708 C9.31,49.6708 9.971,49.5228 10.584,49.2318 L26.724,41.6228 C27.84,41.0958 28.685,40.1668 29.103,39.0028 C29.519,37.8408 29.458,36.5888 28.932,35.4758 L15.193,6.3368 C14.68,5.2218 13.75,4.3768 12.577,3.9588 L3.23,0.5888 L2.13,0.1928 Z M3.06,1.0598 L12.41,4.4298 C13.45,4.7998 14.28,5.5498 14.74,6.5498 L28.48,35.6898 C29.45,37.7398 28.57,40.1998 26.51,41.1708 L10.37,48.7798 C9.8,49.0498 9.21,49.1708 8.62,49.1708 C7.07,49.1708 5.59,48.2998 4.89,46.8098 L2.63,42.0098 L0.63,37.7698 L0.918,35.5608 L2.105,37.6518 L6.13,46.2198 C6.602,47.2138 7.591,47.7978 8.621,47.7978 C9.01,47.7978 9.405,47.7148 9.78,47.5398 L13.29,45.8808 L21.42,42.0498 L25.93,39.9208 C27.3,39.2798 27.88,37.6398 27.24,36.2698 L24.98,31.4698 L21.14,23.3298 L17.3,15.1998 L13.46,7.0598 C13.151,6.4298 12.61,5.9608 11.95,5.7198 L3.83,2.7998 L3.06,1.0598 L3.06,1.0598 Z" id="Fill-17" fill="#F04C2C" mask="url(#mask-4)"></path>
                </g>
            </g>
        </g>
    </g>
</svg>