<svg xmlns="http://www.w3.org/2000/svg" xmlns:xlink="http://www.w3.org/1999/xlink" width="60" height="60" viewBox="0 0 60 60">
    <defs>
        <path id="qb0vtmovya" d="M0 0.04L38.597 0.04 38.597 7.392 0 7.392z"/>
    </defs>
    <g fill="none" fill-rule="evenodd">
        <circle cx="30" cy="30" r="30" fill="#282426"/>
        <g>
            <path fill="#EEE" d="M3.018 38.901L35.586 38.901 35.586 12.196 3.018 12.196z" transform="translate(10.5 10.542)"/>
            <path fill="#8736C1" d="M0.413 38.901L3.018 38.901 3.018 10.812 0.413 10.812z" transform="translate(10.5 10.542)"/>
            <path fill="#AD7DCF" d="M35.586 38.901L38.192 38.901 38.192 10.254 35.586 10.254z" transform="translate(10.5 10.542)"/>
            <path fill="#8736C1" d="M38.192 12.196L0.413 12.196 0.413 6.985 19.302 0.471 38.192 6.985z" transform="translate(10.5 10.542)"/>
            <path fill="#999" d="M3.018 17.407L35.586 17.407 35.586 12.196 3.018 12.196z" transform="translate(10.5 10.542)"/>
            <path fill="#C7C7C7" d="M3.018 12.847L35.586 12.847 35.586 12.196 3.018 12.196zM3.018 14.15L35.586 14.15 35.586 13.498 3.018 13.498zM3.018 15.452L35.586 15.452 35.586 14.801 3.018 14.801zM3.018 16.755L35.586 16.755 35.586 16.104 3.018 16.104z" transform="translate(10.5 10.542)"/>
            <path fill="#333" d="M19.302.04l19.02 6.562L19.302.04z" transform="translate(10.5 10.542)"/>
            <path fill="#CD5885" d="M31.756 30.124c-.038-.761-.32-1.49-.785-2.095-1.048-1.364-1.252-2.447-1.252-2.447-.823-2.155-1.554-3.591-2.091-4.503-.566-.957-1.544-1.602-2.647-1.743-2.218-.287-9.15-.287-11.367 0-1.102.142-2.08.787-2.646 1.743-.537.912-1.268 2.348-2.091 4.503 0 0-.204 1.083-1.252 2.447-.464.605-.747 1.334-.784 2.095-.08 1.65.399 2.013.826 5.75.034.293.282.514.579.514h22.106c.296 0 .544-.222.578-.515.12-1.047.477-3.173.477-3.173.312-1.056.38-1.917.349-2.576" transform="translate(10.5 10.542)"/>
            <path fill="#6FDAF1" d="M29.254 25.496c-.65-1.624-1.31-3.042-1.97-4.172-.498-.854-1.378-1.451-2.352-1.582-2.223-.294-9.06-.292-11.266 0-.974.131-1.854.728-2.353 1.582-.668 1.145-1.338 2.582-1.977 4.172 6.629.521 13.288.521 19.918 0" transform="translate(10.5 10.542)"/>
            <path fill="#5F5563" d="M30.93 35.872c-.034.294-.283.516-.58.516h-2.654v1.541c0 .546.442.989.988.989h1.668c.545 0 .988-.442.988-.989v-4.824c-.11.668-.323 2.003-.41 2.767" transform="translate(10.5 10.542)"/>
            <path fill="#DC0015" d="M32.095 24.417c-.08-.359-.418-.602-.785-.602h-.667c-.427 0-.773.346-.773.773v.474h-.353l.203.482h.777c.402 0 .8-.087 1.165-.254.33-.15.514-.511.433-.873" transform="translate(10.5 10.542)"/>
            <path fill="#FFF" d="M12.882 28.886c-.017-.026-.036-.05-.056-.076 0 0-.108-.36-.745-.603-.385-.146-.752-.332-1.112-.533-.198-.11-.433-.221-.686-.3-.998-.313-2.008.526-1.818 1.554l.019.088c.076.312.308.56.605.68.52.208 1.541.567 2.783.743.858.121 1.494-.835 1.01-1.553" transform="translate(10.5 10.542)"/>
            <path fill="#333" d="M10.339 33.13h-1.38c-.13 0-.234.104-.234.233v1.38c0 .207.252.312.399.165l1.38-1.38c.146-.147.042-.398-.165-.398" transform="translate(10.5 10.542)"/>
            <path fill="#5F5563" d="M8.246 36.389c-.297 0-.546-.223-.58-.517-.087-.763-.3-2.099-.41-2.766v4.824c0 .546.443.989.989.989h1.667c.546 0 .989-.443.989-.989v-1.54H8.246v-.001z" transform="translate(10.5 10.542)"/>
            <path fill="#DC0015" d="M8.725 25.062v-.474c0-.427-.346-.773-.772-.773h-.666c-.368 0-.705.243-.785.602-.081.361.104.722.432.872.367.168.764.254 1.166.254h.777l.203-.481h-.355z" transform="translate(10.5 10.542)"/>
            <path fill="#F2DA3E" d="M9.846 27.646c.537 0 .972.435.972.972 0 .537-.435.972-.972.972-.537 0-.972-.435-.972-.972 0-.537.435-.972.972-.972M11.802 28.67c.394 0 .714.32.714.715 0 .394-.32.713-.714.713-.394 0-.714-.32-.714-.713 0-.395.32-.714.714-.714" transform="translate(10.5 10.542)"/>
            <path fill="#40C9E7" d="M29.254 25.493c-3.591.285-7.199.415-10.797.391l2.288-6.351c1.734.024 3.314.097 4.185.211.977.13 1.856.725 2.353 1.58.66 1.132 1.32 2.549 1.97 4.17" transform="translate(10.5 10.542)"/>
            <path fill="#AD7DCF" d="M23.294 12.196L26.61 2.991 38.062 7.368 38.192 12.196z" transform="translate(10.5 10.542)"/>
            <path fill="#C33F72" d="M30.93 35.873c-.034.293-.282.515-.578.515H14.55l3.86-10.504h.045c1.32.009 2.64-.003 3.96-.036.414-.01.829-.022 1.243-.037.623-.021 1.245-.047 1.866-.078 1.244-.06 2.487-.14 3.728-.237l-.105-.262c-.087-.215-.174-.424-.262-.63-.066-.157-.132-.311-.199-.463-.066-.153-.132-.301-.2-.45-.399-.883-.801-1.678-1.202-2.367-.059-.1-.122-.197-.191-.289-.024-.031-.046-.062-.07-.091-.039-.05-.078-.096-.118-.14-.04-.046-.083-.09-.127-.134-.02-.022-.043-.043-.065-.065-.045-.042-.09-.083-.137-.122-.036-.031-.073-.06-.11-.09-.107-.083-.219-.16-.335-.229-.138-.081-.282-.154-.43-.214-.246-.1-.505-.172-.77-.207-.6-.08-1.535-.137-2.623-.173-.197-.007-.399-.013-.605-.018-.312-.008-.633-.015-.96-.019l.147-.4c1.702.025 3.24.094 4.09.203 1.103.141 2.081.786 2.647 1.743.537.912 1.268 2.348 2.091 4.503 0 0 .204 1.083 1.252 2.447.464.605.747 1.334.785 2.094.03.66-.038 1.521-.35 2.577 0 0-.356 2.125-.476 3.173z" transform="translate(10.5 10.542)"/>
            <path fill="#FFF" d="M28.312 27.373c-.253.08-.488.19-.685.301-.359.2-.727.387-1.112.533-.637.242-.746.603-.746.603l-.055.076c-.484.718.151 1.674 1.01 1.553 1.24-.176 2.262-.535 2.781-.744.297-.119.53-.367.606-.679l.019-.088c.19-1.028-.819-1.866-1.818-1.555" transform="translate(10.5 10.542)"/>
            <path fill="#333" d="M29.638 33.13h-1.38c-.207 0-.312.25-.165.398l1.38 1.38c.147.147.398.042.398-.165v-1.38c0-.129-.104-.233-.233-.233" transform="translate(10.5 10.542)"/>
            <path fill="#F2DA3E" d="M28.75 27.646c.536 0 .971.435.971.972 0 .537-.435.972-.971.972-.537 0-.972-.435-.972-.972 0-.537.435-.972.972-.972M26.795 28.67c.395 0 .714.32.714.715 0 .394-.32.713-.714.713-.394 0-.713-.32-.713-.713 0-.395.32-.714.713-.714" transform="translate(10.5 10.542)"/>
            <path fill="#999" d="M24.946 29.385L23.83 31.329 14.766 31.329 13.651 29.385z" transform="translate(10.5 10.542)"/>
            <path fill="#333" d="M28.487 35.538c-1.437-2.486-3.09-2.408-3.09-2.408H13.199s-1.652-.078-3.09 2.408H7.626l.03.32c.028.302.28.53.581.53h22.125c.3 0 .552-.228.58-.53l.03-.32h-2.484z" transform="translate(10.5 10.542)"/>
            <path fill="#999" d="M24.464 33.81H14.133c-.162 0-.293.131-.293.292 0 .162.131.293.293.293h10.33c.162 0 .292-.132.292-.293.001-.161-.13-.292-.291-.292M24.464 34.977H14.133c-.162 0-.293.131-.293.292 0 .162.131.293.293.293h10.33c.162 0 .292-.132.292-.293.001-.161-.13-.292-.291-.292" transform="translate(10.5 10.542)"/>
            <g transform="translate(10.5 10.542)">
                <mask id="8hi3xknzrb" fill="#fff">
                    <use xlink:href="#qb0vtmovya"/>
                </mask>
                <path fill="#333" d="M38.322 6.602c.212.073.326.301.252.521-.057.163-.211.269-.382.269-.041 0-.09-.008-.13-.024L19.302.903.543 7.368c-.211.073-.448-.041-.52-.253-.074-.212.04-.448.252-.521L19.302.04" mask="url(#8hi3xknzrb)"/>
            </g>
        </g>
    </g>
</svg>
