<svg width="110" height="24" viewBox="0 0 110 24" xmlns="http://www.w3.org/2000/svg" xmlns:xlink="http://www.w3.org/1999/xlink">
    <defs>
        <path id="a" d="M0 0h30.182v23.368H0z"/>
    </defs>
    <g fill="none" fill-rule="evenodd">
        <path d="M38.486 13.73c0 4.247.315 4.403 2.883 4.403 2.689 0 2.955-.108 2.955-4.789 0-4.295-.194-4.306-3.028-4.306-2.495 0-2.81.277-2.81 4.692m6.59-5.078c.629.796.896 2.014.896 4.62 0 2.968-.315 4.282-1.066 5.247-.582.772-1.599 1.086-3.416 1.086-2.18 0-3.15-.314-3.852-1.279-.581-.796-.8-1.894-.8-4.837 0-3.185.364-4.427 1.333-5.175.678-.555 1.478-.724 3.368-.724 1.889 0 2.98.314 3.536 1.062M49.413 14.068c0 1.954.193 2.521.726 3.196.509.604 1.26.87 2.447.87 1.114 0 1.89-.29 2.229-.797.412-.628.557-1.315.557-3.751 0-4.006-.436-4.548-2.907-4.548-2.52 0-3.052.711-3.052 5.03zm-.049-6.285v1.12c.618-1.074 1.647-1.313 3.391-1.313 1.575 0 2.665.386 3.296 1.207.75.965.992 2.811.992 4.764 0 2.607-.12 3.172-.533 4.114-.533 1.303-1.695 1.93-3.706 1.93-1.672 0-2.548-.061-3.343-1.07v3.585h-1.575V7.783h1.478zM65.916 12.452v-.555c0-2.654-.412-2.883-2.713-2.883-2.374 0-2.931.277-2.931 2.835v.603h5.644zm1.325 7.156s-2.366-.003-4.135-.003c-2.035 0-3.028-.386-3.73-1.424-.582-.868-.727-1.58-.727-4.548 0-2.702.097-3.34.46-4.21.582-1.302 1.817-1.833 4.288-1.833 1.526 0 2.446.266 3.077.893.8.796 1.041 1.363 1.041 3.63 0 .387 0 .87-.024 1.786h-7.195v.893c0 1.665.12 2.135.46 2.618.388.506 1.187.771 2.423.771 1.454 0 4.059-.006 4.059-.006l.003 1.433zM69.589 7.783h1.478v1.713c1.041-1.52 1.671-1.906 3.486-1.906 1.6 0 2.616.386 3.198 1.255.388.579.557 1.375.557 2.823v7.743h-1.575v-7.888c0-1.834-.678-2.485-2.495-2.485-2.033 0-3.075 1.086-3.075 3.16v7.213H69.59V7.783zM82.383 10.027c-.484.676-.654 1.266-.654 3.22 0 2.462.17 3.294.679 3.993.435.58 1.187.893 2.398.893 2.446 0 2.882-.494 2.882-4.524 0-2.46-.145-3.196-.58-3.8-.34-.506-1.116-.771-2.254-.771-1.212 0-1.986.338-2.47.989zm-.605-.7c.823-1.303 1.695-1.737 3.366-1.737 1.648 0 2.714.386 3.32 1.23.678.917.871 1.725.871 4.427 0 2.655-.12 3.534-.533 4.476-.581 1.255-1.793 1.882-3.705 1.882-1.769 0-2.739-.507-3.368-1.785v1.591h-1.526V4.418h1.575v4.91zM92.878 14.044c-.387.362-.509.682-.509 1.743 0 1.93.582 2.394 2.786 2.394 2.301 0 2.98-.56 2.98-2.563 0-1.737-.751-2.105-3.247-2.105-.993 0-1.598.17-2.01.53zm5.233-2.569c0-2.172-.364-2.486-2.908-2.486-1.889 0-2.47.387-2.47 1.665 0 .073 0 .217.024.459h-1.575c-.024-.314-.024-.386-.024-.555 0-2.171 1.113-2.968 4.117-2.968 3.223 0 4.338.82 4.338 3.33v8.491h-1.406v-.835s-1.696 1.029-3.343 1.029c-3.052 0-4.094-.826-4.094-3.794 0-1.424.243-2.202.8-2.805.557-.627 1.405-.868 3.1-.868 2.083 0 3.44.415 3.44.415v-1.078zM104.24 18.811l-3.585-11.028h1.599l3.125 9.96 2.64-9.96h1.55l-3.1 11.438c-.557 2.244-.776 2.823-1.357 3.378-.533.507-1.26.772-2.253.772-.29 0-.58-.024-.8-.072v-1.4h.195c1.282 0 1.979-.484 2.4-1.676" fill="#203757" fill-rule="nonzero"/>
        <g>
            <mask id="b" fill="#fff">
                <use xlink:href="#a"/>
            </mask>
            <path d="M15.085 18.126c3.39 0 7.139-.817 7.139-.817l-.416-1.498s-3.399.73-6.723.73c-3.325 0-6.711-.73-6.711-.73l-.416 1.498s3.736.817 7.127.817m8.931-6.256c0 1.087.885 1.902 1.977 1.902s1.977-.815 1.977-1.902a1.973 1.973 0 0 0-1.977-1.97 1.973 1.973 0 0 0-1.977 1.97M4.189 9.9a1.972 1.972 0 0 0-1.976 1.97c0 1.087.884 1.902 1.976 1.902s1.977-.815 1.977-1.902A1.973 1.973 0 0 0 4.189 9.9m10.86-3.223c3.897 0 10.548.854 10.548.854s-.858-3.686-1.518-4.342c-.658-.656-5.447-1.52-9.03-1.52-3.582 0-8.288.864-8.947 1.52-.659.656-1.517 4.342-1.517 4.342s6.567-.854 10.464-.854M14.672 0c4.86 0 11.584 1.384 11.584 3.352 0 1.969 1.318 2.953 3.295 4.922 1.976 1.97-1.322 15.094-1.322 15.094h-2.685c-1.647 0-1.22-2.917-1.22-2.917s-2.053.972-9.451.972c-7.398 0-9.015-.972-9.015-.972s.427 2.917-1.22 2.917H1.952S-1.346 10.243.631 8.274c1.977-1.969 3.295-2.948 3.295-4.922C3.926 1.379 9.81 0 14.672 0" fill="#203757" fill-rule="nonzero" mask="url(#b)"/>
        </g>
    </g>
</svg>
