<?xml version="1.0" encoding="utf-8"?>
<!-- Generator: Adobe Illustrator 25.2.1, SVG Export Plug-In . SVG Version: 6.00 Build 0)  -->
<svg version="1.1" id="Layer_1" xmlns="http://www.w3.org/2000/svg" xmlns:xlink="http://www.w3.org/1999/xlink" x="0px" y="0px"
	 viewBox="0 0 1500 800" style="enable-background:new 0 0 1500 800;" xml:space="preserve">
<style type="text/css">
	.st0{fill:#212121;}
</style>
<g>
	<path class="st0" d="M517.8,285c-63.7-10.7-130.9,33.3-150,98.4c-19.1,65.1,17,127.1,80.7,137.8c33.6,5.5,63.4-3,87.5-18
		c22.7-14.2,40.4-34.2,51.8-54c0.8-1.3-0.2-2.9-1.7-2.9h-63.2c-1,0-1.9,0.4-2.5,1.1c-15,16.7-37.6,23.8-56.9,20.2
		c-22.9-4.2-37-21.5-40.6-42.8l173.8,0c0.6,0,1.2-0.4,1.4-1C618.2,358.1,582,295.8,517.8,285z M541.8,379.4H432.3
		c-1,0-1.6-1-1.1-1.9c14.3-27.8,42.8-44.8,72.3-39.3c22,4.1,35.7,19.5,39.8,39.5C543.4,378.5,542.7,379.4,541.8,379.4z"/>
	<path class="st0" d="M1362.9,285c-63.7-10.7-130.9,33.3-150,98.4c-19.1,65.1,17,127.1,80.7,137.8c33.6,5.5,63.4-3,87.5-18
		c22.7-14.2,40.4-34.2,51.8-54c0.8-1.3-0.2-2.9-1.7-2.9h-63.2c-1,0-1.9,0.4-2.5,1.1c-15,16.7-37.6,23.8-56.9,20.2
		c-22.9-4.2-37-21.5-40.6-42.8l173.8,0c0.6,0,1.2-0.4,1.4-1C1463.2,358.1,1427,295.8,1362.9,285z M1386.8,379.4h-109.5
		c-1,0-1.6-1-1.1-1.9c14.3-27.8,42.8-44.8,72.3-39.3c22,4.1,35.7,19.5,39.8,39.5C1388.4,378.5,1387.7,379.4,1386.8,379.4z"/>
	<path class="st0" d="M263.6,284.8c-60.8-10.2-124.8,30-147.1,90.2c-0.2,0.6-1,0.7-1.3,0.2c-6.4-11.4-10.6-20.5-15.7-31.2
		c-0.9-1.8-3.5-2-4.8-0.3c-11.4,14.4-20.3,29-26.6,43.7c-0.9,2.2-1,4.6-0.1,6.7c3.7,8.8,15.5,33.1,32.2,57.2c0.7,1.1,1,2.4,0.8,3.7
		l-20.3,123c-0.5,2.8,1.3,5.4,4.1,5.8c14.1,2,28.2,2,42.3-0.1c2.5-0.4,4.4-2.4,4.8-4.8l23.6-136.7c12-73.1,49.6-111.9,93.2-104.3
		c36.3,6.6,48.9,41.5,37.9,77.1c-9.8,31.6-36.4,53.1-66.2,53.1c-17.4,0-30.2-7-39.4-13.5c-1.7-1.2-4.1-0.4-4.6,1.6
		c-6.8,26.1-10.4,46.2-11.5,53.1c-0.2,1.3,0.4,2.6,1.6,3.2c8.9,4.3,17.4,6.9,27.7,8.6c65.9,9.5,131.3-20.8,151.5-97.9
		C364.8,358.2,327.3,295.6,263.6,284.8z"/>
	<path class="st0" d="M1166.5,222.2l-50.7,287.4c-0.5,2.8,1.3,5.4,4.1,5.8c15.5,2.2,28.2,2.5,44.1,0.6c2.5-0.3,4.6-2.3,5-4.8
		l52.6-288.1c0.5-2.8-1.3-5.4-4-5.8c-15.6-2.5-30.3-2.2-46.3,0.1C1169,217.8,1166.9,219.8,1166.5,222.2z"/>
	<path class="st0" d="M1090.1,222.2l-13.6,83c-0.1,0.9-1.2,1.3-1.9,0.8c-13.2-10.5-29.3-17.9-47.8-21
		c-63.7-10.7-130.9,33.3-150,98.4c-19.1,65.1,17,126.6,80.7,137.3c63.7,10.7,142.6-18.8,156.2-124.4l27.8-173.3
		c0.4-2.7-1.3-5.3-3.9-5.7c-14-2.3-28.4-2.3-42.8,0.1C1092.4,217.8,1090.5,219.8,1090.1,222.2z M1049.9,413.6
		c-11.1,35.6-43.4,59.8-77.4,53.4c-34.1-6.3-48.9-40.4-37.9-76c11.1-35.6,43.8-59.2,77.9-52.9C1046.6,344.5,1061,378.1,1049.9,413.6
		z"/>
	<path class="st0" d="M834.2,222.2l-13.6,83c-0.1,0.9-1.2,1.3-1.9,0.8c-13.2-10.5-29.3-17.9-47.8-21c-63.7-10.7-130.9,33.3-150,98.4
		c-19.1,65.1,17,126.6,80.7,137.3c63.7,10.7,142.6-18.8,156.2-124.4L885.7,223c0.4-2.7-1.3-5.3-3.9-5.7c-14-2.3-28.4-2.3-42.8,0.1
		C836.6,217.8,834.6,219.8,834.2,222.2z M794,413.6c-11.1,35.6-43.4,59.8-77.4,53.4c-34.1-6.3-48.9-40.4-37.9-76
		c11.1-35.6,43.8-59.2,77.9-52.9S805.1,378.1,794,413.6z"/>
</g>
</svg>
