<svg xmlns="http://www.w3.org/2000/svg" width="60" height="60" viewBox="0 0 60 60">
    <g fill="none" fill-rule="evenodd">
        <circle cx="30" cy="30" r="30" fill="#4A3B8F"/>
        <g>
            <path fill="#F7B4B4" d="M19.493 25.313h-2.987c-.481 0-.939-.206-1.259-.565L12.375 22.5v2.531s0 4.219 5.625 4.219 5.625-4.219 5.625-4.219V22.5l-2.872 2.248c-.32.36-.778.564-1.26.564" transform="translate(12 12)"/>
            <path fill="#FBC8C8" d="M15.247 24.746l-2.872-2.248v2.531s0 4.22 5.625 4.22V25.31h-1.493c-.482 0-.94-.206-1.26-.565" transform="translate(12 12)"/>
            <path fill="#FFF" d="M12.726 24.925L18 36l5.274-11.075-5.265 2.637-5.283-2.637" transform="translate(12 12)"/>
            <path fill="#3E3E3F" d="M20.25 36L18.676 30.262 19.688 29.251 17.989 27.55 16.303 29.236 17.326 30.259 15.75 36z" transform="translate(12 12)"/>
            <path fill="#5B5C5F" d="M18 36L18 27.561 17.989 27.55 16.303 29.236 17.326 30.259 15.75 36z" transform="translate(12 12)"/>
            <path fill="#8B88AA" d="M0 36l2.25-6.188c.346-.75.955-1.346 1.712-1.677l7.288-2.823L18 36H0zM36 36l-2.25-6.188c-.346-.75-.955-1.346-1.712-1.677l-7.288-2.823L18 36h18z" transform="translate(12 12)"/>
            <path fill="#3E3E3F" d="M1.737 28.726L2.151 30.938 3.752 30.316 3.338 28.104zM4.938 27.483L5.352 29.695 6.953 29.074 6.539 26.861zM10.274 25.411L8.139 26.24 8.553 28.453 10.688 27.625z" transform="translate(12 12)"/>
            <path fill="#F2DA3E" d="M3.338 28.104L3.751 30.316 5.352 29.695 4.938 27.483zM6.539 26.861L6.953 29.074 8.553 28.453 8.139 26.24z" transform="translate(12 12)"/>
            <path fill="#3E3E3F" d="M34.313 28.726L33.899 30.938 32.298 30.316 32.712 28.104zM31.111 27.483L30.698 29.695 29.097 29.074 29.511 26.861zM25.776 25.411L27.911 26.24 27.497 28.453 25.362 27.625z" transform="translate(12 12)"/>
            <path fill="#F2DA3E" d="M32.712 28.104L32.298 30.316 30.698 29.695 31.112 27.483zM29.511 26.861L29.097 29.074 27.497 28.453 27.911 26.24zM29.961 33.808c1.268-.553 3.79-1.183 3.79-1.183h-3.938L29.25 31.5l-.562 1.125H24.75s2.52.63 3.79 1.183l.71 1.067.711-1.067z" transform="translate(12 12)"/>
            <path fill="#FBC8C8" d="M26.438 12.375c-.563 0-.563.625-.563.625v-1.752c-.002-1.257-.04-2.41-.205-3.434C24.635 7.322 22.395 6.75 18 6.75c-4.394 0-6.635.572-7.67 1.064-.166 1.023-.203 2.177-.205 3.434v5.625l2.25 5.625 2.872 2.248c.32.36.778.565 1.26.565h2.986c.482 0 .94-.206 1.26-.565l2.872-2.248 1.804-4.51c1.595-.114 2.134-2.533 2.134-4.363 0-.625-.563-1.25-1.125-1.25" transform="translate(12 12)"/>
            <path fill="#FBD7D7" d="M10.125 11.248V13s0-.625-.563-.625c-.562 0-1.124.625-1.124 1.25 0 1.83.538 4.25 2.133 4.364l1.804 4.51 2.872 2.247c.32.36.778.565 1.26.565H18V6.75c-4.395 0-6.635.57-7.67 1.063-.166 1.023-.203 2.177-.205 3.434" transform="translate(12 12)"/>
            <path fill="#3E3E3F" d="M16.313 13.498c0-.62-.504-1.125-1.125-1.125h-.004c0 .012.004.024.004.036 0 .62-.502 1.123-1.122 1.124.019.605.512 1.09 1.121 1.09.622 0 1.126-.504 1.126-1.125M21.934 13.498c0-.62-.504-1.125-1.125-1.125h-.003l.003.036c0 .62-.502 1.123-1.122 1.124.02.605.513 1.09 1.122 1.09.621 0 1.125-.504 1.125-1.125" transform="translate(12 12)"/>
            <path fill="#F79392" d="M15.188 19.123h5.624s0 1.688-2.812 1.688c-2.813 0-2.813-1.688-2.813-1.688" transform="translate(12 12)"/>
            <path fill="#84462D" d="M9.563 9.563v1.687s.562 3.938 1.124 5.063h.563v-6.75H9.562zM26.438 9.563v1.687s-.563 3.938-1.125 5.063h-.563v-6.75h1.688z" transform="translate(12 12)"/>
            <path fill="#8B88AA" d="M18 0C16.875 0 6.75 2.25 6.75 5.625c0 1.125 2.813 2.813 2.813 2.813 0-.34 1.687-1.688 8.437-1.688 6.75 0 8.438 1.349 8.438 1.688 0 0 2.812-1.688 2.812-2.813C29.25 2.25 19.125 0 18 0" transform="translate(12 12)"/>
            <path fill="#F2DA3E" d="M18 6.188c-6.188 0-8.438 1.687-8.438 2.25v1.124C11.25 7.875 18 7.875 18 7.875s6.75 0 8.438 1.688V8.437c0-.562-2.25-2.25-8.438-2.25M18.711 3.996c1.268-.553 3.79-1.184 3.79-1.184h-3.938L18 1.687l-.562 1.125H13.5s2.52.63 3.79 1.184L18 5.062l.711-1.066z" transform="translate(12 12)"/>
            <path fill="#3E3E3F" d="M18 7.893s-7.313 0-8.438 1.687c1.686 3.219 8.229 2.642 8.438 2.795.21-.153 6.752.424 8.438-2.795C25.313 7.893 18 7.893 18 7.893" transform="translate(12 12)"/>
            <path fill="#5B5C5F" d="M9.563 9.58c1.685 3.219 8.228 2.642 8.437 2.795V7.893s-7.313 0-8.438 1.687" transform="translate(12 12)"/>
            <path fill="#EBEAF4" d="M18 36L12.375 24.188 10.125 25.313 9.375 31.313 12.938 31.313 11.625 33.563 15.75 36zM18 36L23.625 24.188 25.875 25.313 26.625 31.313 23.063 31.313 24.375 33.563 20.25 36z" transform="translate(12 12)"/>
        </g>
    </g>
</svg>
