<svg xmlns="http://www.w3.org/2000/svg" width="60" height="60" viewBox="0 0 60 60">
    <g fill="none" fill-rule="evenodd">
        <circle cx="30" cy="30" r="30" fill="#4A3B8F"/>
        <g>
            <path fill="#FFF" d="M0 0L36 0 36 29.219 0 29.219z" transform="translate(12 15.9)"/>
            <path fill="#F2DA3E" d="M36 0H0v29.219h36V0zm-2.25 26.971H2.25V2.248h31.5V26.97z" transform="translate(12 15.9)"/>
            <path fill="#353167" d="M19.125 21.914c0-.31-.252-.562-.563-.562H6.188c-.31 0-.562.252-.562.562 0 .31.252.562.563.562h12.375c.31 0 .562-.252.562-.562M19.125 17.981c0-.31-.252-.562-.563-.562H6.188c-.31 0-.562.252-.562.562 0 .31.252.562.563.562h12.375c.31 0 .562-.252.562-.562M19.125 14.048c0-.31-.252-.562-.563-.562H6.188c-.31 0-.562.251-.562.562 0 .31.252.562.563.562h12.375c.31 0 .562-.252.562-.562" transform="translate(12 15.9)"/>
            <path fill="#81B44C" d="M32.523 18.409c.301-.715.162-1.572-.42-2.154-.583-.582-1.44-.72-2.156-.42-.294-.718-.997-1.225-1.822-1.225-.825 0-1.528.507-1.822 1.225-.715-.3-1.573-.162-2.155.42-.583.582-.722 1.439-.42 2.154-.72.293-1.228.996-1.228 1.82 0 .823.508 1.526 1.227 1.82-.301.714-.162 1.57.42 2.153.3.299.671.479 1.058.544L23.625 35.4l4.5-3.793 4.5 3.793-1.58-10.654c.387-.065.759-.245 1.057-.544.583-.582.722-1.439.42-2.153.72-.294 1.228-.997 1.228-1.82 0-.824-.508-1.527-1.227-1.82z" transform="translate(12 15.9)"/>
            <path fill="#DC0015" d="M33.75 20.229c0-.824-.508-1.527-1.227-1.82.301-.715.162-1.572-.42-2.154-.583-.582-1.44-.72-2.156-.42-.294-.718-.997-1.225-1.822-1.225-.825 0-1.528.507-1.822 1.225-.715-.3-1.573-.162-2.155.42-.583.582-.722 1.439-.42 2.154-.72.293-1.228.996-1.228 1.82 0 .823.508 1.526 1.227 1.82-.301.714-.162 1.57.42 2.153.583.582 1.44.72 2.156.42.294.718.997 1.226 1.822 1.226.825 0 1.528-.508 1.822-1.226.715.3 1.573.162 2.155-.42.583-.582.722-1.439.42-2.153.72-.294 1.228-.997 1.228-1.82" transform="translate(12 15.9)"/>
            <path fill="#E7114C" d="M32.103 16.255c-.584-.582-1.44-.72-2.156-.42-.294-.718-.997-1.225-1.822-1.225-.824 0-1.529.507-1.822 1.225-.716-.3-1.573-.162-2.156.42-.583.582-.721 1.439-.42 2.154-.719.293-1.227.996-1.227 1.82 0 .823.508 1.526 1.227 1.82-.301.714-.163 1.57.42 2.153.024.024.051.043.077.065l7.944-7.936c-.023-.025-.042-.051-.065-.076" transform="translate(12 15.9)"/>
            <path fill="#E1C618" d="M30.375 20.229c0 1.24-1.007 2.247-2.25 2.247s-2.25-1.006-2.25-2.247c0-1.242 1.007-2.248 2.25-2.248s2.25 1.006 2.25 2.248" transform="translate(12 15.9)"/>
            <path fill="#F2DA3E" d="M28.125 17.981c-1.243 0-2.25 1.006-2.25 2.248 0 .656.287 1.242.736 1.653l3.169-3.166c-.411-.448-.997-.735-1.655-.735" transform="translate(12 15.9)"/>
            <path fill="#E7114C" d="M7.5 6.354h.99v2.404h1.544v.785H7.5V6.354zm3.024 0h.992v3.19h-.992v-3.19zm3.834 1.886l.868.261c-.059.243-.15.445-.276.607-.125.163-.28.285-.466.368-.186.083-.422.124-.71.124-.347 0-.632-.05-.852-.151-.221-.101-.411-.278-.572-.532-.16-.254-.24-.579-.24-.975 0-.528.14-.933.423-1.217.282-.283.68-.425 1.196-.425.403 0 .72.081.951.244.231.162.403.412.515.748l-.874.194c-.03-.098-.063-.169-.096-.214-.055-.075-.123-.133-.203-.174-.08-.04-.17-.06-.269-.06-.224 0-.396.09-.516.27-.09.133-.135.342-.135.628 0 .354.054.596.162.728.107.13.259.196.454.196.19 0 .333-.053.43-.158.096-.106.167-.26.21-.462zm1.346-1.886h2.652v.681h-1.66v.507h1.54v.65h-1.54v.63h1.709v.721h-2.7V6.354zm3.24 0h.924l1.206 1.765V6.354h.933v3.19h-.933l-1.2-1.752v1.751h-.93V6.354zm3.548 2.134l.942-.058c.02.152.062.268.125.348.102.129.247.193.437.193.14 0 .25-.033.326-.099.077-.066.115-.142.115-.23 0-.082-.037-.156-.11-.221-.072-.065-.241-.127-.506-.185-.434-.097-.744-.226-.929-.387-.186-.161-.28-.366-.28-.616 0-.164.048-.318.144-.464.095-.146.239-.26.43-.344.192-.083.454-.125.788-.125.409 0 .721.076.936.227.215.152.343.393.383.724l-.933.054c-.024-.144-.076-.248-.156-.313-.08-.066-.189-.098-.329-.098-.115 0-.201.024-.26.073-.058.048-.087.107-.087.177 0 .05.024.096.072.137.047.042.157.081.332.118.433.092.743.186.93.281.187.095.323.213.408.354.086.14.128.298.128.472 0 .204-.057.393-.17.565-.114.173-.273.304-.477.393-.203.09-.46.134-.77.134-.546 0-.923-.105-1.133-.313-.21-.21-.328-.475-.356-.797zm3.402-2.134h2.653v.681h-1.66v.507h1.54v.65h-1.54v.63h1.708v.721h-2.7V6.354z" transform="translate(12 15.9)"/>
        </g>
    </g>
</svg>
