<svg xmlns="http://www.w3.org/2000/svg" width="60" height="60" viewBox="0 0 60 60">
    <g fill="none" fill-rule="evenodd">
        <path fill="#F2DA3E" d="M28.125 10.547v11.25c0 1.16 3.776 2.11 8.438 2.11 4.661 0 8.437-.95 8.437-2.11v-11.25c0 1.165-3.778 2.11-8.438 2.11s-8.437-.945-8.437-2.11z" transform="translate(7.5 7.5)"/>
        <path fill="#FEF4B6" d="M45 10.547c0 1.165-3.778 2.11-8.438 2.11s-8.437-.945-8.437-2.11 3.778-2.11 8.438-2.11S45 9.383 45 10.547" transform="translate(7.5 7.5)"/>
        <path fill="#E1C618" d="M28.125 15.084c1.913 1.073 5.989 1.396 8.438 1.396 2.448 0 6.524-.323 8.437-1.396V13.71c0 .513-2.87 1.714-8.438 1.714-5.566 0-8.437-1.201-8.437-1.714v1.373zM28.125 19.303c1.913 1.073 5.989 1.395 8.438 1.395 2.448 0 6.524-.322 8.437-1.395v-1.374c0 .514-2.87 1.715-8.438 1.715-5.566 0-8.437-1.201-8.437-1.715v1.374z" transform="translate(7.5 7.5)"/>
        <path fill="#FBED91" d="M28.125 22.175c0 .37 1.509 1.1 4.444 1.476l2.945-2.945c-2.441-.08-5.728-.446-7.389-1.377v2.846zM28.125 15.11v2.846c0 .513 2.867 1.712 8.426 1.714l3.33-3.33c-1.203.118-2.38.166-3.319.166-2.448 0-6.524-.323-8.437-1.395M36.563 12.683c-4.66 0-8.438-.944-8.438-2.11v3.165c0 .512 2.87 1.714 8.438 1.714 1.785 0 3.29-.125 4.515-.31L45 11.22v-.647c0 1.166-3.778 2.11-8.438 2.11" transform="translate(7.5 7.5)"/>
        <path fill="#F2DA3E" d="M28.125 13.738v1.373c1.913 1.072 5.989 1.395 8.438 1.395.938 0 2.115-.048 3.318-.167l1.197-1.197c-1.225.185-2.73.31-4.516.31-5.566 0-8.437-1.202-8.437-1.714M28.125 17.956v1.373c1.66.931 4.948 1.297 7.39 1.377l1.036-1.036c-5.56-.002-8.426-1.201-8.426-1.714M19.688 4.219c-4.66 0-8.438-.945-8.438-2.11v18.985c0 1.16 3.776 2.11 8.438 2.11 4.661 0 8.437-.95 8.437-2.11V2.109c0 1.165-3.778 2.11-8.438 2.11" transform="translate(7.5 7.5)"/>
        <path fill="#FEF4B6" d="M28.125 2.11c0 1.164-3.778 2.109-8.438 2.109s-8.437-.945-8.437-2.11S15.028 0 19.688 0s8.437.944 8.437 2.11" transform="translate(7.5 7.5)"/>
        <path fill="#E1C618" d="M11.25 6.646c1.913 1.073 5.989 1.396 8.438 1.396 2.448 0 6.524-.323 8.437-1.396V5.273c0 .513-2.87 1.714-8.438 1.714-5.566 0-8.437-1.2-8.437-1.714v1.373zM11.25 10.865c1.913 1.073 5.989 1.396 8.438 1.396 2.448 0 6.524-.323 8.437-1.396V9.492c0 .513-2.87 1.714-8.438 1.714-5.566 0-8.437-1.2-8.437-1.714v1.373zM11.25 15.084c1.913 1.073 5.989 1.396 8.438 1.396 2.448 0 6.524-.323 8.437-1.396V13.71c0 .513-2.87 1.714-8.438 1.714-5.566 0-8.437-1.201-8.437-1.714v1.373zM11.25 18.643c1.913 1.073 5.989 1.396 8.438 1.396 2.448 0 6.524-.323 8.437-1.396V17.27c0 .514-2.87 1.714-8.438 1.714-5.566 0-8.437-1.2-8.437-1.714v1.373z" transform="translate(7.5 7.5)"/>
        <path fill="#FBED91" d="M11.25 17.26c0 .215.508.549 1.496.865l2.025-2.025c-1.38-.218-2.666-.547-3.521-1.026v2.187zM11.25 13.701c0 .37 1.509 1.1 4.444 1.476l2.945-2.945c-2.441-.08-5.728-.446-7.389-1.377v2.846zM11.25 6.636v2.846c0 .513 2.867 1.712 8.426 1.714l3.33-3.33c-1.203.118-2.38.166-3.319.166-2.448 0-6.524-.323-8.437-1.396M19.688 4.209c-4.66 0-8.438-.945-8.438-2.11v3.164c0 .513 2.87 1.715 8.438 1.715 1.785 0 3.29-.125 4.515-.31l3.922-3.922V2.1c0 1.165-3.778 2.11-8.438 2.11" transform="translate(7.5 7.5)"/>
        <path fill="#FBE158" d="M11.25 18.7v.987l.676-.675c-.245-.097-.475-.2-.676-.313" transform="translate(7.5 7.5)"/>
        <path fill="#F2DA3E" d="M11.25 5.263v1.374c1.913 1.072 5.989 1.395 8.438 1.395.938 0 2.115-.048 3.318-.167l1.197-1.197c-1.225.185-2.73.31-4.515.31-5.567 0-8.438-1.202-8.438-1.715M11.25 9.482v1.373c1.66.931 4.948 1.297 7.39 1.377l1.036-1.036c-5.56-.002-8.426-1.201-8.426-1.714M11.25 13.701v1.373c.855.479 2.142.808 3.521 1.026l.923-.923C12.76 14.8 11.25 14.072 11.25 13.7" transform="translate(7.5 7.5)"/>
        <path fill="#FACB1B" d="M11.25 17.326V18.7c.201.112.431.215.676.312l.82-.82c-.988-.317-1.496-.651-1.496-.866" transform="translate(7.5 7.5)"/>
        <path fill="#81B44C" d="M4.922 14.766V31.64c16.875 8.437 16.875 0 33.75 8.437V23.203c-16.875-8.437-16.875 0-33.75-8.437m2.11 3.316c6.931 3.012 10.905 3.012 14.765 3.012 3.879 0 7.554 0 14.765 3.427v12.24C29.63 33.75 25.657 33.75 21.797 33.75c-3.88 0-7.555 0-14.766-3.427v-12.24" transform="translate(7.5 7.5)"/>
        <path fill="#638A3A" d="M36.563 36.761v-12.24c-7.212-3.427-10.887-3.427-14.766-3.427-3.86 0-7.834 0-14.766-3.012v12.241c7.212 3.427 10.887 3.427 14.766 3.427 3.86 0 7.833 0 14.765 3.011" transform="translate(7.5 7.5)"/>
        <path fill="#81B44C" d="M26.016 27.422c0 2.33-1.89 4.219-4.22 4.219-2.329 0-4.218-1.889-4.218-4.22 0-2.33 1.89-4.218 4.219-4.218 2.33 0 4.219 1.889 4.219 4.219" transform="translate(7.5 7.5)"/>
        <path fill="#C3DBA9" d="M4.922 15.113V31.64c3.627 1.814 6.472 2.844 8.875 3.434l1.772-1.773c-2.285-.434-4.98-1.289-8.538-2.98v-12.24c6.932 3.012 10.906 3.012 14.766 3.012 1.797 0 3.554.005 5.635.345l1.8-1.8c-8.287-1.847-11.321 1.557-24.076-4.76l-.234.234z" transform="translate(7.5 7.5)"/>
        <path fill="#81B44C" d="M27.432 21.44c-2.08-.342-3.838-.346-5.635-.346-3.86 0-7.834 0-14.766-3.012v12.241c3.557 1.69 6.253 2.545 8.538 2.98l11.863-11.864z" transform="translate(7.5 7.5)"/>
        <path fill="#C3DBA9" d="M21.797 23.203c-2.33 0-4.219 1.889-4.219 4.219 0 1.076.407 2.056 1.07 2.801l5.95-5.95c-.745-.663-1.725-1.07-2.801-1.07" transform="translate(7.5 7.5)"/>
        <path fill="#81B44C" d="M0 19.688v16.875C16.875 45 16.875 36.563 33.75 45V28.125c-16.875-8.438-16.875 0-33.75-8.438m2.11 3.317c6.931 3.012 10.906 3.012 14.765 3.012 3.88 0 7.554 0 14.766 3.427v12.24c-6.932-3.011-10.907-3.011-14.766-3.011-3.88 0-7.554 0-14.766-3.427v-12.24" transform="translate(7.5 7.5)"/>
        <path fill="#638A3A" d="M31.64 41.683v-12.24c-7.21-3.427-10.886-3.427-14.765-3.427-3.86 0-7.834 0-14.766-3.012v12.24c7.212 3.428 10.887 3.428 14.766 3.428 3.86 0 7.834 0 14.766 3.011" transform="translate(7.5 7.5)"/>
        <path fill="#81B44C" d="M21.094 32.344c0 2.33-1.89 4.218-4.219 4.218-2.33 0-4.219-1.888-4.219-4.218s1.89-4.219 4.219-4.219c2.33 0 4.219 1.889 4.219 4.219" transform="translate(7.5 7.5)"/>
        <path fill="#C3DBA9" d="M0 20.035v16.527c3.627 1.814 6.472 2.845 8.875 3.434l1.772-1.772c-2.285-.434-4.98-1.289-8.538-2.98v-12.24c6.932 3.012 10.907 3.012 14.766 3.012 1.797 0 3.554.004 5.636.345l1.8-1.8c-8.287-1.847-11.322 1.557-24.077-4.76L0 20.035z" transform="translate(7.5 7.5)"/>
        <path fill="#81B44C" d="M22.51 26.361c-2.08-.341-3.838-.345-5.635-.345-3.86 0-7.833 0-14.766-3.012v12.241c3.558 1.69 6.253 2.545 8.538 2.98L22.511 26.36z" transform="translate(7.5 7.5)"/>
        <path fill="#C3DBA9" d="M16.875 28.125c-2.33 0-4.219 1.889-4.219 4.219 0 1.076.407 2.056 1.07 2.801l5.95-5.95c-.745-.664-1.725-1.07-2.801-1.07" transform="translate(7.5 7.5)"/>
    </g>
</svg>
