<svg xmlns="http://www.w3.org/2000/svg" width="60" height="60" viewBox="0 0 60 60">
    <g fill="none" fill-rule="evenodd">
        <path fill="#8736C1" d="M13.78 26.317L1.003 39.092c-1.339 1.34-1.339 3.516 0 4.855l.049.049c1.339 1.339 3.516 1.338 4.855 0L18.683 31.22c-1.959-1.273-3.631-2.946-4.904-4.904" transform="translate(8 8)"/>
        <path fill="#B076DA" d="M1 39.092c-1.318 1.32-1.33 3.449-.05 4.792l11.762-11.763-2.37-2.37-9.341 9.341z" transform="translate(8 8)"/>
        <path fill="#FACB1B" d="M13.776 26.317l-3.434 3.434 2.37 2.37 3.175-3.175c-.789-.8-1.496-1.682-2.111-2.629" transform="translate(8 8)"/>
        <path fill="#8736C1" fill-rule="nonzero" d="M27.74.308c-9.363 0-16.952 7.59-16.952 16.952 0 9.363 7.59 16.952 16.952 16.952 9.362 0 16.952-7.59 16.952-16.952 0-9.362-7.59-16.952-16.952-16.952zm0 .617c9.022 0 16.335 7.313 16.335 16.335 0 9.022-7.313 16.336-16.335 16.336-9.022 0-16.336-7.314-16.336-16.336C11.404 8.238 18.718.925 27.74.925z" transform="translate(8 8)"/>
        <path fill="#E5C8FA" d="M14.563 17.26c0-7.277 5.9-13.176 13.177-13.176 7.277 0 13.176 5.9 13.176 13.176 0 7.277-5.9 13.177-13.176 13.177-7.277 0-13.177-5.9-13.177-13.177z" transform="translate(8 8)"/>
        <path fill="#DBA9FF" d="M27.74 4.084c-7.277 0-13.177 5.9-13.177 13.176 0 3.8 1.618 7.212 4.19 9.617L37.355 8.273c-2.405-2.572-5.817-4.19-9.616-4.19" transform="translate(8 8)"/>
        <path fill="#FFF" d="M13.78 26.317l-3.434 3.434 4.903 4.904 3.434-3.434c-1.959-1.273-3.631-2.946-4.904-4.904" transform="translate(8 8)"/>
        <path fill="#8736C1" fill-rule="nonzero" d="M13.561 26.1l.218.217.259-.168c1.183 1.82 2.719 3.39 4.512 4.613l.3.2.32.208-3.92 3.92-5.34-5.34 3.651-3.65zm.17.7l-2.95 2.95 4.468 4.468 2.95-2.95-.274-.19c-1.548-1.101-2.902-2.456-4.003-4.003l-.19-.274z" transform="translate(8 8)"/>
    </g>
</svg>
