<svg xmlns="http://www.w3.org/2000/svg" width="60" height="60" viewBox="0 0 60 60">
    <g fill="none" fill-rule="evenodd">
        <circle cx="30" cy="30" r="30" fill="#4A3B8F"/>
        <g>
            <path fill="#E1C618" d="M21.443 4.568c-.659.66-1.727.66-2.386 0-.66-.659-.66-1.727 0-2.386.659-.66 1.727-.66 2.386 0 .66.659.66 1.727 0 2.386m10.396 6.71c-.157-1.405-.934-2.642-2.152-3.41l-6.172-3.687c.273-1.109-.012-2.326-.878-3.193-1.319-1.317-3.456-1.317-4.774 0-1.318 1.318-1.318 3.455 0 4.773 1.205 1.205 3.087 1.296 4.41.298l6.237 3.728c.614.386 1.012 1.02 1.093 1.741.08.72-.167 1.428-.68 1.94-.924.925-2.428.925-3.352 0l-1.741-1.74 1.193-1.193-5.966-.398 4.922 4.922c1.802 1.802 4.734 1.802 6.535.001 1-1 1.483-2.378 1.325-3.782" transform="translate(12 12)"/>
            <path fill="#F2DA3E" d="M17.863.988c-1.317 1.318-1.317 3.455 0 4.773.068.068.144.119.215.18l1.195-1.196c-.075-.054-.149-.11-.216-.177-.66-.659-.66-1.727 0-2.386.659-.66 1.727-.66 2.386 0 .068.067.123.141.177.216l1.2-1.2c-.06-.07-.117-.143-.184-.21-1.318-1.317-3.455-1.317-4.773 0" transform="translate(12 12)"/>
            <path fill="#0484AB" d="M4.5 24.75c-4.5 0-2.813 6.75-4.5 9 6.75 0 7.875-6.75 7.875-6.75v-4.5S6.75 15.75 0 15.75c1.688 2.25 0 9 4.5 9z" transform="translate(12 12)"/>
            <path fill="#B2E8F3" d="M0 15.75c1.688 2.25 0 9 4.5 9h3.375V22.5S6.75 15.75 0 15.75" transform="translate(12 12)"/>
            <path fill="#0484AB" d="M26.094 30.932C24.644 33.93 21.561 36 18 36v-4.68c1.08.118 2.21.18 3.375.18 1.654 0 3.24-.214 4.72-.568" transform="translate(12 12)"/>
            <path fill="#059BBF" d="M21.375 31.5c-8.078 0-14.625-3.018-14.625-6.75C6.75 21 13.337 18 21.375 18 29.453 18 36 23.063 36 24.75c0 1.709-6.6 6.75-14.625 6.75z" transform="translate(12 12)"/>
            <path fill="#B2E8F3" d="M14.585 18.772c2.033-.492 4.344-.772 6.79-.772.754 0 1.495.044 2.22.126-.626-1.509-2.476-2.996-3.06-3.44-.114-.085-.255-.125-.396-.11-.935.094-4.678.501-7.085 1.223-.19.056-.335.208-.384.4-.05.191.006.394.146.534.593.6 1.327 1.489 1.77 2.039" transform="translate(12 12)"/>
            <path fill="#6DD6EC" d="M6.75 24.75H36C36 23.062 29.453 18 21.375 18 13.338 18 6.75 21 6.75 24.75z" transform="translate(12 12)"/>
            <path fill="#FFF" d="M6.75 8.156C1.529 8.156 1.15.46 1.125.13L2.807 0c.006.065.279 6.469 3.943 6.469 1.703 0 3.655-1.31 5.542-2.577 2.34-1.57 4.75-3.187 6.898-2.35.272.105.476.336.55.618.072.283.005.584-.182.808-.212.255-.568.337-.871.202-1.275-.567-2.97.455-5.455 2.124C11.135 6.7 8.966 8.156 6.75 8.156" transform="translate(12 12)"/>
            <path fill="#353167" d="M27.069 20.455c-.302 0-.58.089-.818.237.231.135.394.375.394.662 0 .43-.349.778-.778.778-.128 0-.244-.038-.35-.093.016.845.703 1.526 1.552 1.526.859 0 1.555-.697 1.555-1.555 0-.86-.696-1.555-1.555-1.555" transform="translate(12 12)"/>
        </g>
    </g>
</svg>
