<?xml version="1.0" encoding="UTF-8"?>
<svg width="24px" height="24px" viewBox="0 0 24 24" version="1.1" xmlns="http://www.w3.org/2000/svg" xmlns:xlink="http://www.w3.org/1999/xlink">
    <!-- Generator: Sketch 52.5 (67469) - http://www.bohemiancoding.com/sketch -->
    <title>assets/thumb-up-inactive</title>
    <desc>Created with Sketch.</desc>
    <g id="assets/thumb-up-inactive" stroke="none" stroke-width="1" fill="none" fill-rule="evenodd">
        <path d="M18.8636078,12.6290255 L18.7362246,12.7728984 L18.796564,12.9569218 C18.8867379,13.2112087 18.9306516,13.4320368 18.9306516,13.6194061 C18.9474125,14.0476788 18.8297507,14.4257633 18.5686151,14.7737348 L18.4646973,14.9075701 L18.5149801,15.0715182 C18.6088414,15.3793392 18.6088414,15.7105813 18.5116279,16.055207 C18.4278232,16.3730657 18.2769746,16.6373902 18.0657867,16.838143 L17.9484601,16.9452112 L17.9618688,17.1058135 C18.0121517,17.7582601 17.8747119,18.2835634 17.5495495,18.6716855 C17.1875131,19.0966123 16.6109365,19.3174404 15.8332286,19.3308239 L14.5459878,19.3308239 C14.1303164,19.3308239 13.6677142,19.2806357 13.1715902,19.1836052 C12.6620574,19.0798829 12.2631469,18.9861982 11.9882673,18.9025512 C11.699979,18.8122125 11.3010685,18.6817231 10.7948879,18.5110832 C9.92331867,18.2066081 9.39032055,18.0593894 9.11879321,18.0526976 C9.0282841,18.0493517 8.95453593,18.0192388 8.88749214,17.9556671 C8.86067463,17.9289 8.8372093,17.8987871 8.82380054,17.8686742 C8.82715273,17.8285236 8.83050492,17.7883731 8.83050492,17.7482225 L8.83050492,11.3609368 C8.83050492,11.3174404 8.82715273,11.2772898 8.82380054,11.2371393 C8.8372093,11.2070263 8.85732244,11.1769134 8.88380473,11.1501464 C8.94783155,11.0832288 9.01487534,11.0531159 9.10203226,11.0464241 C9.36015085,11.0230029 9.65514352,10.8155583 10.0842238,10.3471351 C10.4362036,9.96235885 10.7814792,9.54746968 11.1099937,9.12254287 C11.5524827,8.5537432 11.8843495,8.1622752 12.0921852,7.95483061 C12.2396815,7.80761188 12.3670647,7.61020494 12.4709826,7.37264743 C12.5648439,7.1551652 12.6318877,6.97448766 12.6654096,6.83396069 C12.6955793,6.70681723 12.74251,6.50271853 12.8062016,6.20828105 C12.84978,5.96068591 12.8900063,5.76327896 12.9268804,5.62275199 C12.9570501,5.49895441 13.0140373,5.34504391 13.097842,5.16436637 C13.1749424,5.00041824 13.2654515,4.86323714 13.3727216,4.75951485 C13.4364132,4.69594312 13.5001048,4.66917608 13.5839095,4.66917608 C13.858789,4.66917608 14.1034988,4.699289 14.318039,4.75951485 C14.5258747,4.81974069 14.6968364,4.89335006 14.8242196,4.97699707 C14.9448984,5.05395232 15.0454641,5.15767461 15.1292688,5.28481807 C15.2264823,5.4320368 15.2968783,5.55918026 15.3367693,5.66624843 C15.3773308,5.78000836 15.4108527,5.92388122 15.4376702,6.10121288 C15.4745443,6.33207863 15.4846009,6.44918444 15.4846009,6.50941029 C15.4879531,6.60644082 15.4913053,6.73358427 15.4913053,6.88749477 C15.4913053,7.11166876 15.4611356,7.33918862 15.4041483,7.56670849 C15.3471611,7.79757424 15.2868217,7.98159766 15.2331867,8.11543287 C15.1728473,8.24926809 15.0853551,8.42659975 14.9683637,8.65411962 C14.9482506,8.6909243 14.9177457,8.74445839 14.8745024,8.81806775 C14.8175152,8.9117524 14.7739367,9.00209118 14.743767,9.07904642 C14.7135973,9.15600167 14.6834276,9.24634044 14.6532579,9.35340862 L14.5325791,9.77833542 L17.7439765,9.77833542 C18.176409,9.77833542 18.5417976,9.93224592 18.8565682,10.2501046 C19.1753614,10.5679632 19.3295621,10.9293183 19.3295621,11.3609368 C19.3295621,11.8527813 19.1783784,12.2676704 18.8636078,12.6290255 Z M8.13660172,11.2471769 C8.13324953,11.2806357 8.12956212,11.3140945 8.12956212,11.3508992 L8.12956212,17.7482225 C8.12956212,17.7883731 8.13324953,17.8318695 8.13660172,17.8686742 C8.11984077,17.902133 8.09972763,17.9322459 8.06955793,17.9623588 C8.00586633,18.0259306 7.93882254,18.0526976 7.85501781,18.0526976 L4.97548712,18.0526976 C4.89168238,18.0526976 4.82463859,18.0259306 4.76094699,17.959013 C4.69725539,17.8987871 4.67043788,17.8318695 4.67043788,17.7482225 L4.67043788,11.3609368 C4.67043788,11.2772898 4.69725539,11.2103722 4.76429918,11.1468005 C4.82463859,11.0832288 4.89168238,11.0564617 4.97548712,11.0564617 L7.85501781,11.0564617 C7.93882254,11.0564617 8.00586633,11.0832288 8.06620574,11.1468005 C8.09637545,11.1769134 8.11984077,11.2103722 8.13660172,11.243831 L8.13660172,11.2471769 Z M19.4904672,12.9201171 C19.8290383,12.4684233 20,11.9464659 20,11.3609368 C20,10.7519866 19.7754033,10.2199916 19.3325791,9.77833542 C18.8867379,9.33333333 18.3537398,9.10915935 17.7439765,9.10915935 L15.4812487,9.10915935 C15.5181228,9.04224174 15.5449403,8.99205353 15.5617012,8.96194061 C15.6890844,8.72103722 15.7829457,8.53032204 15.8466373,8.37641154 C15.9170333,8.21580928 15.9874293,7.99498118 16.0544731,7.72731075 C16.1248691,7.44960268 16.1617431,7.16854872 16.1617431,6.88749477 C16.1617431,6.72689251 16.1583909,6.5930573 16.1550388,6.48598913 C16.1516866,6.37557507 16.1349256,6.21497281 16.1014037,6.00083647 C16.0678818,5.78000836 16.0209512,5.58929318 15.963964,5.4320368 C15.9036246,5.27812631 15.8131154,5.10414053 15.6890844,4.91677123 C15.5549969,4.7160184 15.3907396,4.54872438 15.1963126,4.41823505 C15.0119422,4.29778335 14.7772889,4.19406106 14.5024094,4.11710581 C14.230882,4.03680468 13.9224806,4 13.5839095,4 C13.3190865,4 13.0877855,4.09703053 12.8967107,4.28774571 C12.7358056,4.44834797 12.601718,4.64575491 12.4910957,4.87996654 C12.3905301,5.09744877 12.3167819,5.29485571 12.2765556,5.45880385 C12.2359941,5.60936847 12.1927509,5.81681305 12.1458202,6.0811376 C12.088833,6.35549979 12.0452546,6.55290673 12.0150849,6.67335843 C11.9882673,6.7804266 11.9346323,6.92429946 11.857532,7.104977 C11.787136,7.26557926 11.7066834,7.39272271 11.6195265,7.4797156 C11.3848732,7.71058135 11.0463021,8.11543287 10.5769956,8.71099958 C10.2618898,9.12588875 9.93002305,9.52404852 9.58809973,9.89878712 C9.18918919,10.3304057 9.04839723,10.377248 9.04839723,10.377248 C8.83385711,10.3939774 8.63943013,10.4742785 8.47517285,10.6148055 C8.29717159,10.4642409 8.08967107,10.3872857 7.85501781,10.3872857 L4.97548712,10.3872857 C4.71066415,10.3872857 4.47936308,10.4843162 4.28828829,10.6750314 C4.09721349,10.8657465 4,11.0966123 4,11.3609368 L4,17.7482225 C4,18.0125471 4.09721349,18.2434128 4.28828829,18.434128 C4.47936308,18.6248432 4.71066415,18.7218737 4.97548712,18.7218737 L7.85501781,18.7218737 C8.09302326,18.7218737 8.30421119,18.6449184 8.48187723,18.4876621 C8.65619107,18.6348808 8.86067463,18.7118361 9.09532789,18.7218737 C9.20595014,18.7252196 9.54787345,18.7854454 10.5769956,19.1434546 C11.0932328,19.3174404 11.4988477,19.4512756 11.7904882,19.5416144 C12.088833,19.635299 12.4978001,19.7323296 13.0408548,19.8393977 C13.5805573,19.9464659 14.0867379,20 14.5459878,20 L15.8395977,20 C16.8221245,19.9866165 17.5696627,19.6821414 18.0620993,19.1033041 C18.478106,18.6081138 18.672533,17.9723965 18.6390111,17.2061899 C18.8837209,16.9385194 19.0580348,16.6106232 19.1586005,16.2325387 C19.2725749,15.8243413 19.2859837,15.4228356 19.1988267,15.0414053 C19.4867798,14.6064408 19.6212026,14.1212882 19.6010895,13.6060226 C19.6010895,13.4052698 19.5642154,13.174404 19.4904672,12.9201171 Z" id="Fill-1" fill="#9C9B9B"></path>
    </g>
</svg>