<?xml version="1.0" encoding="UTF-8"?>
<svg width="24px" height="24px" viewBox="0 0 24 24" version="1.1" xmlns="http://www.w3.org/2000/svg" xmlns:xlink="http://www.w3.org/1999/xlink">
    <!-- Generator: Sketch 63.1 (92452) - https://sketch.com -->
    <title>thumb-up-active-2</title>
    <desc>Created with Sketch.</desc>
    <g id="assets/thumb-up-active-2" stroke="none" stroke-width="1" fill="none" fill-rule="evenodd">
        <path d="M19.4914247,12.6864445 L19.3523897,12.8434505 L19.4182483,13.044272 C19.5166705,13.3217709 19.564601,13.5627567 19.564601,13.7672296 C19.582895,14.2345961 19.4544706,14.6471931 19.1694489,15.0269283 L19.0560256,15.1729804 L19.1109078,15.3518941 C19.2133547,15.6878138 19.2133547,16.0492926 19.107249,16.4253765 C19.0157786,16.7722501 18.8511319,17.0607029 18.6206266,17.2797809 L18.492568,17.3966225 L18.5072033,17.571885 C18.5620855,18.2838886 18.4120741,18.8571429 18.057169,19.2806937 C17.6620169,19.7444089 17.0327007,19.9853948 16.1838555,20 L14.7788703,20 C14.3251772,20 13.8202607,19.9452305 13.278756,19.8393428 C12.7226161,19.7261524 12.287217,19.623916 11.9871941,19.5326335 C11.672536,19.4340484 11.237137,19.2916476 10.6846558,19.1054313 C9.73336382,18.7731629 9.15161217,18.6125057 8.85524811,18.6052031 C8.7564601,18.6015518 8.67596616,18.5686901 8.60278985,18.4993154 C8.57351932,18.470105 8.54790761,18.4372433 8.53327235,18.4043816 C8.53693117,18.360566 8.54058998,18.3167503 8.54058998,18.2729347 L8.54058998,11.3026016 C8.54058998,11.2551346 8.53693117,11.211319 8.53327235,11.1675034 C8.54790761,11.1346417 8.56986051,11.10178 8.59876515,11.0725696 C8.66864853,10.9995436 8.74182483,10.9666819 8.83695404,10.9593793 C9.11868283,10.9338202 9.44065859,10.7074395 9.90898697,10.1962574 C10.2931626,9.77635783 10.6700206,9.32359653 11.0285845,8.85988133 C11.5115481,8.2391602 11.8737709,7.81195801 12.1006174,7.58557736 C12.2616053,7.42492013 12.4006403,7.20949338 12.5140636,6.95025103 C12.6165104,6.71291648 12.6896867,6.51574623 12.7262749,6.3623916 C12.7592042,6.22364217 12.8104276,6.00091283 12.8799451,5.67959836 C12.9275097,5.4094021 12.9714155,5.19397535 13.0116625,5.04062072 C13.0445918,4.90552259 13.1067917,4.73756276 13.1982621,4.54039251 C13.2824148,4.36147878 13.3812028,4.21177545 13.4982849,4.09858512 C13.5678024,4.02921041 13.6373199,4 13.7287903,4 C14.0288132,4 14.2959067,4.03286171 14.5300709,4.09858512 C14.7569174,4.16430853 14.943517,4.24463715 15.082552,4.33591967 C15.2142694,4.41989959 15.3240338,4.53308991 15.4155042,4.67183934 C15.5216099,4.83249658 15.598445,4.97124601 15.6419849,5.08808763 C15.6862566,5.21223186 15.7228447,5.36923779 15.7521153,5.56275673 C15.7923622,5.81469649 15.8033387,5.94249201 15.8033387,6.00821543 C15.8069975,6.11410315 15.8106563,6.25285258 15.8106563,6.42081241 C15.8106563,6.66544957 15.777727,6.91373802 15.7155271,7.16202647 C15.6533272,7.41396623 15.5874686,7.61478777 15.5289275,7.7608398 C15.4630688,7.90689183 15.3675737,8.10041077 15.2398811,8.34869922 C15.2179282,8.38886353 15.184633,8.44728435 15.1374343,8.52761296 C15.0752344,8.62984938 15.0276698,8.7284345 14.9947405,8.81241442 C14.9618111,8.89639434 14.9288818,8.99497946 14.8959524,9.11182109 L14.7642351,9.57553628 L18.2693803,9.57553628 C18.7413675,9.57553628 19.1401784,9.74349612 19.4837411,10.0903697 C19.8316945,10.4372433 20,10.8315838 20,11.3026016 C20,11.8393428 19.8349874,12.2921041 19.4914247,12.6864445 Z M7.78321518,11.1784573 C7.77955637,11.2149703 7.77553167,11.2514833 7.77553167,11.2916476 L7.77553167,18.2729347 C7.77553167,18.3167503 7.77955637,18.3642173 7.78321518,18.4043816 C7.76492111,18.4408946 7.74296821,18.4737563 7.71003887,18.506618 C7.64052138,18.5759927 7.56734507,18.6052031 7.47587469,18.6052031 L4.33295221,18.6052031 C4.24148182,18.6052031 4.16830551,18.5759927 4.09878802,18.5029667 C4.02927052,18.4372433 4,18.3642173 4,18.2729347 L4,11.3026016 C4,11.211319 4.02927052,11.138293 4.10244683,11.0689183 C4.16830551,10.9995436 4.24148182,10.9703332 4.33295221,10.9703332 L7.47587469,10.9703332 C7.56734507,10.9703332 7.64052138,10.9995436 7.70638006,11.0689183 C7.7393094,11.10178 7.76492111,11.138293 7.78321518,11.174806 L7.78321518,11.1784573 Z" fill="#9C9B9B"></path>
    </g>
</svg>