<svg xmlns="http://www.w3.org/2000/svg" width="60" height="60" viewBox="0 0 60 60">
    <g fill="none" fill-rule="evenodd">
        <circle cx="30" cy="30" r="30" fill="#4A3B8F"/>
        <g>
            <path fill="#FFF" d="M0 2.16C0 .967.967 0 2.16 0H18l9 7.56v26.28c0 1.193-.967 2.16-2.16 2.16H2.16C.967 36 0 35.033 0 33.84V2.16z" transform="translate(13.5 12)"/>
            <path fill="#EBEAF4" d="M18 0v5.4c0 1.193.967 2.16 2.16 2.16H27L18 0zM15.75 10.125c0 .31-.252.563-.563.563H5.063c-.311 0-.563-.253-.563-.563 0-.31.252-.563.563-.563h10.125c.31 0 .562.253.562.563M22.5 14.625c0 .31-.252.563-.563.563H5.063c-.31 0-.562-.253-.562-.563 0-.31.252-.563.563-.563h16.875c.31 0 .562.253.562.563M22.5 19.125c0 .31-.252.563-.563.563H5.063c-.31 0-.562-.252-.562-.563 0-.31.252-.563.563-.563h16.875c.31 0 .562.252.562.563M22.5 23.625c0 .31-.252.563-.563.563H5.063c-.31 0-.562-.252-.562-.563 0-.31.252-.563.563-.563h16.875c.31 0 .562.252.562.563" transform="translate(13.5 12)"/>
            <path fill="#DC0015" d="M27 20.813v-3.14c0-1.087.448-2.105 1.16-2.928.822-.953 1.251-2.254 1.034-3.654-.307-1.967-1.953-3.532-3.931-3.75-2.715-.3-5.013 1.817-5.013 4.471 0 1.131.418 2.163 1.108 2.953.709.812 1.142 1.828 1.142 2.907v3.143c0 1.608-1.105 3.286-2.712 3.308-4.6.064-6.288 3.44-6.288 7.94H36c0-4.5-1.688-7.876-6.282-7.94-1.61-.024-2.718-1.701-2.718-3.31" transform="translate(13.5 12)"/>
            <path fill="#F2DA3E" d="M34.875 33.188c0 .62-.503 1.124-1.125 1.124h-18c-.622 0-1.125-.503-1.125-1.124v-1.126h20.25v1.126z" transform="translate(13.5 12)"/>
            <path fill="#E7114C" d="M27 17.674c0-1.089.448-2.105 1.16-2.93.822-.952 1.252-2.253 1.034-3.654-.306-1.966-1.953-3.53-3.931-3.749-2.715-.3-5.013 1.817-5.013 4.471 0 1.131.418 2.163 1.108 2.952.71.813 1.142 1.83 1.142 2.908v3.143c0 1.607-1.105 3.286-2.712 3.309-4.6.063-6.288 3.438-6.288 7.938h2.918l10.635-10.635c-.034-.203-.053-.41-.053-.615v-3.138z" transform="translate(13.5 12)"/>
        </g>
    </g>
</svg>
