<svg xmlns="http://www.w3.org/2000/svg" xmlns:xlink="http://www.w3.org/1999/xlink" width="426" height="155" viewBox="0 0 426 155">
    <defs>
        <path id="fxlrhewr5a" d="M0.623 0.875L8.747 0.875 8.747 9 0.623 9z"/>
        <path id="k2krbsg45c" d="M0.694 0.875L8.818 0.875 8.818 9 0.694 9z"/>
        <path id="4d6s6qmtce" d="M0 17.969L49.562 17.969 49.562 0 0 0z"/>
        <path id="0hsgc23zag" d="M0.001 0L39.216 0 39.216 24.498 0.001 24.498z"/>
        <path id="dac51ei6yi" d="M0 6.079L39.216 6.079 39.216 18.42 0 18.42z"/>
        <path id="zlrc75n7qk" d="M0 24.498L39.216 24.498 39.216 0 0 0z"/>
    </defs>
    <g fill="none" fill-rule="evenodd">
        <path fill="#F0F0F0" d="M0 1H142V91H0z"/>
        <path fill="#000" d="M425 1H426V91H425zM0 91H426V92H0zM0 0H426V1H0zM283 1H284V91H283zM141 1H142V91H141zM0 1H1V91H0z"/>
        <g transform="translate(331 17)">
            <g transform="translate(5 8.97)">
                <mask id="ezkp1udsdb" fill="#fff">
                    <use xlink:href="#fxlrhewr5a"/>
                </mask>
                <path fill="#EF4B2B" d="M4.685 2.376c-1.413 0-2.563 1.149-2.563 2.562 0 1.413 1.15 2.563 2.563 2.563 1.413 0 2.563-1.15 2.563-2.564 0-1.413-1.15-2.562-2.563-2.562m0 6.626C2.445 9 .623 7.178.623 4.938c0-2.24 1.822-4.063 4.062-4.063s4.062 1.822 4.062 4.063C8.747 7.178 6.925 9 4.685 9" mask="url(#ezkp1udsdb)"/>
            </g>
            <g transform="translate(35 8.97)">
                <mask id="jms0ekpfmd" fill="#fff">
                    <use xlink:href="#k2krbsg45c"/>
                </mask>
                <path fill="#EF4B2B" d="M4.756 2.376c-1.413 0-2.563 1.149-2.563 2.562 0 1.413 1.15 2.563 2.563 2.563 1.413 0 2.563-1.15 2.563-2.564 0-1.413-1.15-2.562-2.563-2.562m0 6.626C2.516 9 .694 7.178.694 4.938c0-2.24 1.822-4.063 4.062-4.063s4.062 1.822 4.062 4.063C8.818 7.178 6.996 9 4.756 9" mask="url(#jms0ekpfmd)"/>
            </g>
            <mask id="q6oikvq18f" fill="#fff">
                <use xlink:href="#4d6s6qmtce"/>
            </mask>
            <path fill="#EF4B2B" d="M12.997 15.437L36.443 15.437 36.443 13.937 12.997 13.937z" mask="url(#q6oikvq18f)"/>
            <path fill="#EF4B2B" d="M49.55 15.437h-6.481v-1.5h4.99c-.024-1.613-.187-3.343-.457-3.775-.63-1.003-1.656-1.72-2.813-1.969L36.097 6.3 32.36 4.355c-2.66-1.385-5.517-2.28-8.494-2.66-1.793-.229-3.613-.258-5.408-.084l-1.51.145c-2.501.241-4.95.845-7.278 1.794L6.196 4.967c-.46.187-.938.318-1.423.39l-1.196.387C2.412 5.827 1.5 6.808 1.5 7.976v5.064c0 .11.082.202.192.213l4.788.692-.215 1.484-4.76-.688C.659 14.652 0 13.918 0 13.041V7.975c0-1.916 1.47-3.53 3.366-3.72l1.13-.376c.387-.05.768-.153 1.134-.302l3.474-1.417c2.464-1.005 5.054-1.643 7.7-1.898l1.51-.145c1.904-.183 3.839-.153 5.742.09 3.153.402 6.18 1.35 8.997 2.816L36.7 4.922l8.404 1.804c1.55.333 2.924 1.294 3.767 2.638.691 1.098.7 4.36.689 5.333l-.01.74z" mask="url(#q6oikvq18f)"/>
            <path fill="#EF4B2B" d="M21.608 15.317L23.108 15.317 23.108 0.8 21.608 0.8z" mask="url(#q6oikvq18f)"/>
            <path fill="#EF4B2B" d="M37.91 6.7H12.411c-1.018 0-1.845-.829-1.845-1.846V2.061h1.5v2.793c0 .19.155.345.345.345h25.5v1.5zM27.87 9.548h-2.504c-.414 0-.75-.336-.75-.75s.336-.75.75-.75h2.503c.414 0 .75.336.75.75s-.336.75-.75.75M19.352 9.548h-2.504c-.414 0-.75-.336-.75-.75s.336-.75.75-.75h2.504c.414 0 .75.336.75.75s-.336.75-.75.75" mask="url(#q6oikvq18f)"/>
        </g>
        <path fill="#000" fill-rule="nonzero" d="M176.852 60v-1.442h-4.886V50.2h-1.47V60h6.356zm2.562-8.302c.504 0 .924-.42.924-.924 0-.518-.42-.938-.924-.938-.518 0-.938.42-.938.938 0 .504.42.924.938.924zm.714 8.302v-7.35h-1.442V60h1.442zm5.026.154c1.33 0 2.058-.644 2.632-1.372l-.924-.91c-.574.602-.98.91-1.666.91-1.148 0-1.764-1.036-1.764-2.478 0-1.498.672-2.436 1.722-2.436.658 0 1.19.28 1.792.896l.854-1.022c-.686-.812-1.526-1.246-2.604-1.246-1.792 0-3.22 1.414-3.22 3.85 0 2.296 1.386 3.808 3.178 3.808zm7.308 0c1.12 0 1.89-.35 2.534-.966l-.854-.924c-.49.364-.98.588-1.596.588-.896 0-1.694-.602-1.848-2.016h4.858c.014-.154.042-.392.042-.658 0-1.988-1.008-3.682-3.094-3.682-1.904 0-3.22 1.344-3.22 3.836 0 2.436 1.456 3.822 3.178 3.822zm1.68-4.508h-3.416c.126-1.176.714-1.848 1.68-1.848 1.19 0 1.666.84 1.736 1.848zm4.69 4.354v-4.298c0-1.19.546-1.876 1.512-1.876.952 0 1.512.532 1.512 2.016V60h1.442v-4.214c0-2.17-.91-3.29-2.618-3.29-.756 0-1.484.322-1.848.854v-.7h-1.442V60h1.442zm8.918.154c1.442 0 2.758-.546 2.758-2.17 0-1.386-.84-1.834-2.478-2.464-1.106-.434-1.358-.7-1.358-1.064 0-.392.308-.672 1.008-.672s1.302.21 1.904.63l.63-1.106c-.658-.476-1.568-.812-2.492-.812-1.47 0-2.506.686-2.506 2.002 0 1.162.574 1.694 2.156 2.31 1.064.406 1.708.672 1.708 1.232 0 .518-.434.812-1.344.812-.686 0-1.456-.252-2.142-.728l-.658 1.092c.742.546 1.82.938 2.814.938zm7.434 0c1.12 0 1.89-.35 2.534-.966l-.854-.924c-.49.364-.98.588-1.596.588-.896 0-1.694-.602-1.848-2.016h4.858c.014-.154.042-.392.042-.658 0-1.988-1.008-3.682-3.094-3.682-1.904 0-3.22 1.344-3.22 3.836 0 2.436 1.456 3.822 3.178 3.822zm1.68-4.508h-3.416c.126-1.176.714-1.848 1.68-1.848 1.19 0 1.666.84 1.736 1.848zm8.68 4.354v-3.654h2.562c1.904 0 3.248-1.064 3.248-3.08 0-2.03-1.344-3.066-3.15-3.066h-4.102V60h1.442zm2.632-5.04h-2.632v-3.374h2.632c1.022 0 1.68.602 1.68 1.68 0 1.05-.56 1.694-1.68 1.694zm6.37 5.04V49.794l-1.442.756V60h1.442zm4.396.154c.798 0 1.512-.378 2.016-.882V60h1.414v-5.04c0-1.666-1.12-2.464-2.758-2.464-1.036 0-1.82.224-2.52.658l.56 1.092c.574-.322 1.162-.462 1.918-.462.896 0 1.386.448 1.386 1.246v.546c-.406-.182-.952-.28-1.638-.28-1.666 0-2.926.742-2.926 2.38 0 1.806 1.358 2.478 2.548 2.478zm.238-1.302c-.952 0-1.414-.49-1.414-1.218 0-.672.588-1.092 1.512-1.092.784 0 1.288.126 1.68.322v1.05c-.336.462-1.008.938-1.778.938zm7.364 1.302c.574 0 1.064-.14 1.414-.336l.168-1.274c-.266.154-.686.294-1.064.294-.532 0-.756-.196-.756-.882v-3.99h1.82V52.65h-1.82v-2.856l-1.414.756v2.1h-1.05v1.316h1.05v4.242c0 1.316.63 1.946 1.652 1.946zm6.37 0c1.12 0 1.89-.35 2.534-.966l-.854-.924c-.49.364-.98.588-1.596.588-.896 0-1.694-.602-1.848-2.016h4.858c.014-.154.042-.392.042-.658 0-1.988-1.008-3.682-3.094-3.682-1.904 0-3.22 1.344-3.22 3.836 0 2.436 1.456 3.822 3.178 3.822zm1.68-4.508h-3.416c.126-1.176.714-1.848 1.68-1.848 1.19 0 1.666.84 1.736 1.848zm-60.06 20.508c2.506 0 3.626-1.204 3.626-2.968 0-1.75-1.204-2.366-3.136-2.954-1.694-.504-2.142-.84-2.142-1.526 0-.658.49-1.218 1.638-1.218.966 0 1.666.308 2.282.938l1.036-1.05c-.868-.84-1.876-1.33-3.206-1.33-1.806 0-3.234 1.036-3.234 2.73 0 1.75.994 2.268 3.066 2.884 1.638.49 2.212.868 2.212 1.624 0 .952-.658 1.428-2.03 1.428-.924 0-1.89-.448-2.548-1.162l-1.05 1.022c.826.966 2.058 1.582 3.486 1.582zm8.442 0c1.12 0 1.89-.35 2.534-.966l-.854-.924c-.49.364-.98.588-1.596.588-.896 0-1.694-.602-1.848-2.016h4.858c.014-.154.042-.392.042-.658 0-1.988-1.008-3.682-3.094-3.682-1.904 0-3.22 1.344-3.22 3.836 0 2.436 1.456 3.822 3.178 3.822zm1.68-4.508h-3.416c.126-1.176.714-1.848 1.68-1.848 1.19 0 1.666.84 1.736 1.848zm5.446 4.508c.798 0 1.512-.378 2.016-.882V76h1.414v-5.04c0-1.666-1.12-2.464-2.758-2.464-1.036 0-1.82.224-2.52.658l.56 1.092c.574-.322 1.162-.462 1.918-.462.896 0 1.386.448 1.386 1.246v.546c-.406-.182-.952-.28-1.638-.28-1.666 0-2.926.742-2.926 2.38 0 1.806 1.358 2.478 2.548 2.478zm.238-1.302c-.952 0-1.414-.49-1.414-1.218 0-.672.588-1.092 1.512-1.092.784 0 1.288.126 1.68.322v1.05c-.336.462-1.008.938-1.778.938zM217.046 76v-4.2c0-1.246.532-1.89 1.442-1.89.476 0 .798.098 1.106.266l.378-1.372c-.294-.196-.658-.308-1.246-.308-.728 0-1.344.364-1.68.854v-.7h-1.442V76h1.442zm7.238.154c1.33 0 2.058-.644 2.632-1.372l-.924-.91c-.574.602-.98.91-1.666.91-1.148 0-1.764-1.036-1.764-2.478 0-1.498.672-2.436 1.722-2.436.658 0 1.19.28 1.792.896l.854-1.022c-.686-.812-1.526-1.246-2.604-1.246-1.792 0-3.22 1.414-3.22 3.85 0 2.296 1.386 3.808 3.178 3.808zm5.922-.154v-4.298c0-1.19.546-1.876 1.512-1.876.952 0 1.512.532 1.512 2.016V76h1.442v-4.214c0-2.17-.91-3.29-2.618-3.29-.756 0-1.484.322-1.848.854v-3.556l-1.442.756V76h1.442zM300.789 60v-3.878l3.514-5.922h-1.694l-1.54 2.716c-.35.63-.84 1.568-1.008 1.932-.168-.364-.672-1.344-1.008-1.946l-1.526-2.702h-1.722l3.514 5.922V60h1.47zm7.98.154c1.12 0 1.89-.35 2.534-.966l-.854-.924c-.49.364-.98.588-1.596.588-.896 0-1.694-.602-1.848-2.016h4.858c.014-.154.042-.392.042-.658 0-1.988-1.008-3.682-3.094-3.682-1.904 0-3.22 1.344-3.22 3.836 0 2.436 1.456 3.822 3.178 3.822zm1.68-4.508h-3.416c.126-1.176.714-1.848 1.68-1.848 1.19 0 1.666.84 1.736 1.848zm5.446 4.508c.798 0 1.512-.378 2.016-.882V60h1.414v-5.04c0-1.666-1.12-2.464-2.758-2.464-1.036 0-1.82.224-2.52.658l.56 1.092c.574-.322 1.162-.462 1.918-.462.896 0 1.386.448 1.386 1.246v.546c-.406-.182-.952-.28-1.638-.28-1.666 0-2.926.742-2.926 2.38 0 1.806 1.358 2.478 2.548 2.478zm.238-1.302c-.952 0-1.414-.49-1.414-1.218 0-.672.588-1.092 1.512-1.092.784 0 1.288.126 1.68.322v1.05c-.336.462-1.008.938-1.778.938zM322.839 60v-4.2c0-1.246.532-1.89 1.442-1.89.476 0 .798.098 1.106.266l.378-1.372c-.294-.196-.658-.308-1.246-.308-.728 0-1.344.364-1.68.854v-.7h-1.442V60h1.442zm5.11 1.764l1.05-3.71h-1.834l-.21 3.71h.994zm11.186-1.61l2.38-5.516c.238-.56.518-1.26.63-1.54-.013.255-.025.983-.028 1.556V60h1.442v-9.8h-1.568l-2.156 5.222c-.238.574-.518 1.274-.658 1.68-.126-.406-.434-1.12-.672-1.68l-2.198-5.222h-1.512V60h1.386v-5.18c0-.588-.014-1.442-.028-1.722.112.28.392.98.63 1.54l2.352 5.516zm8.96 0c.798 0 1.512-.378 2.016-.882V60h1.414v-5.04c0-1.666-1.12-2.464-2.758-2.464-1.036 0-1.82.224-2.52.658l.56 1.092c.574-.322 1.162-.462 1.918-.462.896 0 1.386.448 1.386 1.246v.546c-.406-.182-.952-.28-1.638-.28-1.666 0-2.926.742-2.926 2.38 0 1.806 1.358 2.478 2.548 2.478zm.238-1.302c-.952 0-1.414-.49-1.414-1.218 0-.672.588-1.092 1.512-1.092.784 0 1.288.126 1.68.322v1.05c-.336.462-1.008.938-1.778.938zM355.039 60v-2.17l1.12-1.484L357.783 60h1.568l-2.212-4.886 1.862-2.464h-1.638l-1.526 2.142c-.252.35-.616.91-.812 1.204 0-.364.014-1.12.014-1.568v-4.634l-1.442.756V60h1.442zm8.792.154c1.12 0 1.89-.35 2.534-.966l-.854-.924c-.49.364-.98.588-1.596.588-.896 0-1.694-.602-1.848-2.016h4.858c.014-.154.042-.392.042-.658 0-1.988-1.008-3.682-3.094-3.682-1.904 0-3.22 1.344-3.22 3.836 0 2.436 1.456 3.822 3.178 3.822zm1.68-4.508h-3.416c.126-1.176.714-1.848 1.68-1.848 1.19 0 1.666.84 1.736 1.848zm3.948 6.118l1.05-3.71h-1.834l-.21 3.71h.994zm11.186-1.61l2.38-5.516c.238-.56.518-1.26.63-1.54-.013.255-.025.983-.028 1.556V60h1.442v-9.8h-1.568l-2.156 5.222c-.238.574-.518 1.274-.658 1.68-.126-.406-.434-1.12-.672-1.68l-2.198-5.222h-1.512V60h1.386v-5.18c0-.588-.014-1.442-.028-1.722.112.28.392.98.63 1.54l2.352 5.516zm9.646 0c1.89 0 3.318-1.428 3.318-3.864 0-2.296-1.4-3.794-3.276-3.794-1.848 0-3.276 1.428-3.276 3.836 0 2.296 1.386 3.822 3.234 3.822zm.056-1.372c-1.092 0-1.834-.882-1.834-2.492 0-1.456.672-2.422 1.764-2.422 1.162 0 1.876.966 1.876 2.464 0 1.344-.714 2.45-1.806 2.45zm7.546 1.372c.77 0 1.386-.364 1.918-.854v.7h1.428V49.794l-1.428.742v2.8c-.406-.448-1.106-.84-1.848-.84-1.526 0-2.898 1.19-2.898 3.71 0 2.8 1.246 3.948 2.828 3.948zm.266-1.33c-1.064 0-1.652-.812-1.652-2.66 0-1.554.56-2.338 1.596-2.338.728 0 1.4.532 1.722.966v3.094c-.378.476-.98.938-1.666.938zm8.036 1.33c1.12 0 1.89-.35 2.534-.966l-.854-.924c-.49.364-.98.588-1.596.588-.896 0-1.694-.602-1.848-2.016h4.858c.014-.154.042-.392.042-.658 0-1.988-1.008-3.682-3.094-3.682-1.904 0-3.22 1.344-3.22 3.836 0 2.436 1.456 3.822 3.178 3.822zm1.68-4.508h-3.416c.126-1.176.714-1.848 1.68-1.848 1.19 0 1.666.84 1.736 1.848zm4.76 4.354V49.794l-1.442.756V60h1.442zm-76.601 16.154c2.506 0 3.626-1.204 3.626-2.968 0-1.75-1.204-2.366-3.136-2.954-1.694-.504-2.142-.84-2.142-1.526 0-.658.49-1.218 1.638-1.218.966 0 1.666.308 2.282.938l1.036-1.05c-.868-.84-1.876-1.33-3.206-1.33-1.806 0-3.234 1.036-3.234 2.73 0 1.75.994 2.268 3.066 2.884 1.638.49 2.212.868 2.212 1.624 0 .952-.658 1.428-2.03 1.428-.924 0-1.89-.448-2.548-1.162l-1.05 1.022c.826.966 2.058 1.582 3.486 1.582zm8.442 0c1.12 0 1.89-.35 2.534-.966l-.854-.924c-.49.364-.98.588-1.596.588-.896 0-1.694-.602-1.848-2.016h4.858c.014-.154.042-.392.042-.658 0-1.988-1.008-3.682-3.094-3.682-1.904 0-3.22 1.344-3.22 3.836 0 2.436 1.456 3.822 3.178 3.822zm1.68-4.508h-3.416c.126-1.176.714-1.848 1.68-1.848 1.19 0 1.666.84 1.736 1.848zm5.446 4.508c.798 0 1.512-.378 2.016-.882V76h1.414v-5.04c0-1.666-1.12-2.464-2.758-2.464-1.036 0-1.82.224-2.52.658l.56 1.092c.574-.322 1.162-.462 1.918-.462.896 0 1.386.448 1.386 1.246v.546c-.406-.182-.952-.28-1.638-.28-1.666 0-2.926.742-2.926 2.38 0 1.806 1.358 2.478 2.548 2.478zm.238-1.302c-.952 0-1.414-.49-1.414-1.218 0-.672.588-1.092 1.512-1.092.784 0 1.288.126 1.68.322v1.05c-.336.462-1.008.938-1.778.938zM358.546 76v-4.2c0-1.246.532-1.89 1.442-1.89.476 0 .798.098 1.106.266l.378-1.372c-.294-.196-.658-.308-1.246-.308-.728 0-1.344.364-1.68.854v-.7h-1.442V76h1.442zm7.238.154c1.33 0 2.058-.644 2.632-1.372l-.924-.91c-.574.602-.98.91-1.666.91-1.148 0-1.764-1.036-1.764-2.478 0-1.498.672-2.436 1.722-2.436.658 0 1.19.28 1.792.896l.854-1.022c-.686-.812-1.526-1.246-2.604-1.246-1.792 0-3.22 1.414-3.22 3.85 0 2.296 1.386 3.808 3.178 3.808zm5.922-.154v-4.298c0-1.19.546-1.876 1.512-1.876.952 0 1.512.532 1.512 2.016V76h1.442v-4.214c0-2.17-.91-3.29-2.618-3.29-.756 0-1.484.322-1.848.854v-3.556l-1.442.756V76h1.442zM64.721 60l3.36-9.8h-1.568l-2.016 6.23c-.182.574-.462 1.456-.546 1.806-.084-.35-.364-1.218-.546-1.792L61.361 50.2h-1.596l3.402 9.8h1.554zm6.832 0v-9.8h-1.47V60h1.47zm4.046 0v-5.082c0-.546-.014-1.904-.014-2.268.154.252.49.84.728 1.204L80.219 60h1.4v-9.8h-1.428v5.36c.004.646.014 1.696.014 2.004-.14-.252-.56-.98-.812-1.386L75.669 50.2h-1.498V60h1.428zM52.534 76.154c2.506 0 3.626-1.204 3.626-2.968 0-1.75-1.204-2.366-3.136-2.954-1.694-.504-2.142-.84-2.142-1.526 0-.658.49-1.218 1.638-1.218.966 0 1.666.308 2.282.938l1.036-1.05c-.868-.84-1.876-1.33-3.206-1.33-1.806 0-3.234 1.036-3.234 2.73 0 1.75.994 2.268 3.066 2.884 1.638.49 2.212.868 2.212 1.624 0 .952-.658 1.428-2.03 1.428-.924 0-1.89-.448-2.548-1.162l-1.05 1.022c.826.966 2.058 1.582 3.486 1.582zm8.442 0c1.12 0 1.89-.35 2.534-.966l-.854-.924c-.49.364-.98.588-1.596.588-.896 0-1.694-.602-1.848-2.016h4.858c.014-.154.042-.392.042-.658 0-1.988-1.008-3.682-3.094-3.682-1.904 0-3.22 1.344-3.22 3.836 0 2.436 1.456 3.822 3.178 3.822zm1.68-4.508H59.24c.126-1.176.714-1.848 1.68-1.848 1.19 0 1.666.84 1.736 1.848zm5.446 4.508c.798 0 1.512-.378 2.016-.882V76h1.414v-5.04c0-1.666-1.12-2.464-2.758-2.464-1.036 0-1.82.224-2.52.658l.56 1.092c.574-.322 1.162-.462 1.918-.462.896 0 1.386.448 1.386 1.246v.546c-.406-.182-.952-.28-1.638-.28-1.666 0-2.926.742-2.926 2.38 0 1.806 1.358 2.478 2.548 2.478zm.238-1.302c-.952 0-1.414-.49-1.414-1.218 0-.672.588-1.092 1.512-1.092.784 0 1.288.126 1.68.322v1.05c-.336.462-1.008.938-1.778.938zM75.046 76v-4.2c0-1.246.532-1.89 1.442-1.89.476 0 .798.098 1.106.266l.378-1.372c-.294-.196-.658-.308-1.246-.308-.728 0-1.344.364-1.68.854v-.7h-1.442V76h1.442zm7.238.154c1.33 0 2.058-.644 2.632-1.372l-.924-.91c-.574.602-.98.91-1.666.91-1.148 0-1.764-1.036-1.764-2.478 0-1.498.672-2.436 1.722-2.436.658 0 1.19.28 1.792.896l.854-1.022c-.686-.812-1.526-1.246-2.604-1.246-1.792 0-3.22 1.414-3.22 3.85 0 2.296 1.386 3.808 3.178 3.808zM88.206 76v-4.298c0-1.19.546-1.876 1.512-1.876.952 0 1.512.532 1.512 2.016V76h1.442v-4.214c0-2.17-.91-3.29-2.618-3.29-.756 0-1.484.322-1.848.854v-3.556l-1.442.756V76h1.442z"/>
        <g fill="#FF4722">
            <path fill-rule="nonzero" d="M4.115 9.686v-.8h-.857V4.484h-.913l-1.62 1.36.35.464c.023.03.06.06.108.087.049.028.104.041.166.041.036 0 .073-.006.11-.02.039-.012.077-.034.115-.065l.589-.49c-.008.141-.011.275-.011.404v2.623h-1v.8h2.963zm3.297 0V7.663h1.777V6.73H7.412V5.415h2.134v-.928H6.2v5.2h1.213zm5.075 0V5.443h1.463v-.956H9.817v.956h1.463v4.243h1.207zM18.819 9.686c.312 0 .589-.04.831-.12.243-.079.447-.19.612-.331.166-.142.291-.308.377-.498.086-.19.128-.396.128-.617 0-.293-.082-.533-.246-.72-.164-.186-.417-.321-.76-.404.157-.058.291-.125.403-.202.112-.077.204-.164.275-.259.071-.095.124-.197.157-.305.033-.108.05-.22.05-.337 0-.214-.036-.408-.109-.582-.072-.174-.188-.321-.348-.442-.16-.122-.365-.216-.617-.282-.252-.067-.558-.1-.917-.1h-1.913v5.2h2.077zm-.243-3.012h-.628V5.39h.707c.135 0 .253.01.351.032.099.021.18.057.245.107.064.05.112.116.142.198.031.082.047.185.047.309 0 .126-.02.23-.059.314-.04.083-.096.148-.171.196-.075.047-.166.08-.273.1-.107.019-.228.028-.36.028zm.221 2.102h-.849V7.481h.842c.153 0 .279.014.379.043.1.028.18.069.24.121.061.052.104.117.129.193.025.076.037.162.037.257 0 .083-.01.165-.032.246-.021.08-.06.153-.117.218-.058.064-.137.116-.238.157-.1.04-.231.06-.39.06zm5.974.91v-.928h-2.134V7.52h1.635v-.892h-1.635V5.415h2.134v-.928h-3.347v5.2h3.347zm2.356.057c.283 0 .54-.047.774-.142.233-.096.432-.225.598-.388.165-.163.293-.353.383-.57.09-.218.136-.448.136-.691 0-.267-.045-.498-.134-.694-.089-.196-.206-.359-.351-.487-.145-.129-.31-.224-.493-.286-.183-.062-.369-.093-.556-.093-.105 0-.203.009-.295.025-.091.017-.179.04-.262.072l.066-.08c.022-.028.046-.055.07-.08l1.541-1.842h-.985c-.133 0-.252.024-.357.073-.104.049-.183.109-.235.18l-1.17 1.581c-.196.267-.343.528-.443.785-.1.257-.15.515-.15.775 0 .273.042.524.127.753.084.228.207.424.367.588.16.165.356.292.587.384.23.092.491.137.782.137zm-.022-.874c-.133 0-.248-.02-.346-.059-.097-.04-.178-.096-.243-.17-.064-.073-.111-.161-.142-.263-.031-.103-.047-.218-.047-.347 0-.128.02-.243.057-.346.038-.102.091-.19.16-.264.067-.074.147-.13.24-.17.093-.039.195-.058.307-.058.124 0 .236.019.337.057.101.038.188.093.259.164.071.071.127.16.166.264.04.105.059.224.059.357 0 .119-.021.229-.063.33-.041.101-.098.19-.17.264-.07.075-.156.134-.254.177-.1.043-.206.064-.32.064zm3.49.817c.153 0 .275-.035.368-.105.093-.07.163-.156.21-.259l1.817-3.847c.026-.057.053-.126.082-.207.029-.08.043-.186.043-.317v-.464H29.46v.728c0 .03.007.061.021.09.014.03.033.057.055.08.023.022.049.04.079.053.03.013.061.02.094.02h2.288c-.07.073-.133.15-.191.231-.058.081-.112.173-.162.275l-1.856 3.722h.806zm4.84.057c.24 0 .47-.034.692-.101.221-.068.415-.17.583-.305.168-.136.302-.306.402-.51.1-.205.15-.446.15-.722 0-.583-.288-.974-.864-1.174.124-.043.234-.096.33-.16.096-.065.177-.142.243-.234.065-.092.115-.2.148-.325.033-.125.05-.27.05-.433 0-.181-.036-.353-.107-.516-.072-.163-.176-.306-.314-.43s-.307-.222-.507-.294c-.2-.073-.428-.11-.685-.11-.238 0-.46.032-.668.095-.207.063-.39.16-.55.288-.162.128-.296.289-.404.481-.108.193-.182.419-.22.678l.586.104c.028.005.056.008.083.01.028.003.053.004.077.004.1 0 .18-.024.238-.071.058-.048.106-.125.144-.232.024-.064.055-.124.095-.179.039-.054.086-.102.14-.142.055-.04.117-.073.186-.097.07-.024.145-.035.229-.035.202 0 .352.055.451.165.099.111.148.269.148.473 0 .1-.012.192-.036.275-.023.083-.072.154-.144.212-.073.059-.176.105-.309.138-.133.033-.308.05-.524.05v.763c.257 0 .457.018.6.052.145.035.252.084.324.148.071.065.115.141.13.23.016.09.023.19.023.302 0 .086-.015.17-.046.253-.031.084-.077.158-.137.223-.061.066-.137.12-.229.161-.091.042-.2.063-.323.063-.162 0-.303-.045-.423-.134-.12-.09-.233-.233-.34-.43-.031-.057-.077-.1-.138-.13-.06-.03-.129-.045-.205-.045-.04 0-.082.003-.123.01-.042.008-.084.02-.127.04l-.492.2c.083.242.181.452.294.628.113.176.244.32.394.433.15.113.322.197.514.25.193.054.413.08.66.08zM43.54 9.686v-.928h-2.134V7.52h1.635v-.892h-1.635V5.415h2.134v-.928h-3.347v5.2h3.347zm4.375 0V5.443h1.464v-.956h-4.133v.956h1.463v4.243h1.206zm4.547 0V7.763h.307c.093 0 .165.014.216.043.05.028.095.076.134.142l.863 1.51c.088.152.233.228.435.228h1.092l-1.106-1.809c-.052-.086-.113-.158-.184-.218-.07-.06-.145-.11-.226-.15.169-.064.318-.146.448-.246s.239-.213.328-.34c.09-.128.156-.266.202-.416.045-.15.067-.31.067-.479 0-.22-.038-.425-.114-.613-.076-.188-.198-.351-.366-.49-.167-.137-.384-.245-.649-.322-.265-.078-.586-.116-.962-.116h-1.691v5.2h1.206zm.485-2.755h-.485V5.39h.485c.312 0 .542.064.69.192.15.129.224.307.224.536 0 .114-.017.22-.05.319s-.087.185-.16.259c-.075.074-.17.131-.284.173-.116.041-.256.062-.42.062zm6.103 2.812c.283 0 .54-.047.774-.142.233-.096.432-.225.598-.388.165-.163.293-.353.383-.57.09-.218.136-.448.136-.691 0-.267-.045-.498-.134-.694-.09-.196-.206-.359-.351-.487-.146-.129-.31-.224-.493-.286-.183-.062-.369-.093-.557-.093-.104 0-.202.009-.294.025-.092.017-.179.04-.262.072l.066-.08c.022-.028.046-.055.07-.08l1.541-1.842h-.985c-.133 0-.252.024-.357.073-.105.049-.183.109-.235.18l-1.17 1.581c-.196.267-.343.528-.443.785-.1.257-.15.515-.15.775 0 .273.042.524.126.753.085.228.207.424.368.588.16.165.356.292.587.384.23.092.491.137.782.137zm-.022-.874c-.133 0-.248-.02-.346-.059-.098-.04-.178-.096-.243-.17-.064-.073-.111-.161-.142-.263-.031-.103-.047-.218-.047-.347 0-.128.02-.243.057-.346.038-.102.091-.19.16-.264.067-.074.147-.13.24-.17.093-.039.195-.058.307-.058.124 0 .236.019.337.057.101.038.187.093.259.164.071.071.127.16.166.264.039.105.059.224.059.357 0 .119-.021.229-.063.33-.041.101-.098.19-.17.264-.07.075-.156.134-.254.177-.1.043-.206.064-.32.064zm3.49.817c.153 0 .275-.035.368-.105.093-.07.163-.156.21-.259l1.817-3.847c.026-.057.053-.126.082-.207.028-.08.043-.186.043-.317v-.464h-3.655v.728c0 .03.008.061.022.09.014.03.033.057.055.08.023.022.049.04.079.053.03.013.06.02.094.02h2.288c-.07.073-.133.15-.191.231-.058.081-.113.173-.163.275l-1.855 3.722h.806zm4.782.057c.276 0 .528-.037.757-.11.228-.074.424-.178.587-.313.163-.134.289-.296.378-.487.09-.19.134-.402.134-.635 0-.14-.017-.273-.05-.398s-.085-.239-.155-.342c-.07-.104-.16-.196-.271-.277-.111-.08-.244-.149-.398-.203.235-.107.411-.256.528-.446.116-.19.175-.42.175-.686 0-.202-.042-.39-.125-.562-.084-.172-.2-.321-.35-.447-.15-.127-.328-.226-.534-.298-.205-.073-.43-.11-.676-.11-.245 0-.47.037-.676.11-.206.072-.384.171-.534.298-.15.126-.266.275-.35.447-.083.173-.124.36-.124.562 0 .267.058.495.173.686.115.19.292.339.53.446-.157.054-.291.122-.402.203-.11.081-.2.173-.27.277-.071.103-.122.217-.154.342-.032.125-.048.258-.048.398 0 .233.044.445.133.635.09.19.216.353.379.487.163.135.358.239.587.313.228.073.48.11.756.11zm0-3.161c-.123 0-.225-.02-.303-.061-.079-.04-.14-.094-.186-.16-.045-.067-.076-.143-.092-.23-.017-.085-.025-.173-.025-.263 0-.081.01-.16.032-.236.021-.076.056-.143.105-.201.049-.059.111-.106.187-.141.076-.036.17-.054.282-.054.11 0 .203.018.28.054.078.035.14.082.19.14.048.059.083.126.105.202.021.076.032.155.032.236 0 .09-.008.178-.025.264-.017.086-.048.162-.093.228-.045.067-.107.12-.185.16-.079.041-.18.062-.304.062zm0 2.326c-.126 0-.234-.019-.323-.057-.089-.038-.163-.09-.221-.155-.058-.065-.101-.143-.128-.232-.028-.09-.041-.185-.041-.287 0-.112.011-.214.035-.307.024-.093.063-.172.118-.237.055-.066.128-.117.22-.154.091-.037.205-.055.34-.055.136 0 .25.018.341.055.092.037.165.088.22.154.054.065.093.144.117.237.024.093.036.195.036.307 0 .102-.014.198-.041.287-.027.09-.07.167-.129.232-.058.065-.132.117-.223.155-.09.038-.197.057-.32.057zm3.833.835c.29 0 .557-.045.801-.137.244-.092.454-.22.63-.387s.313-.365.412-.594c.099-.23.148-.484.148-.762 0-.222-.036-.43-.109-.623-.072-.194-.18-.363-.323-.507-.142-.144-.318-.257-.528-.34-.21-.084-.45-.125-.724-.125-.086 0-.174.004-.264.012-.09.008-.185.02-.282.037l.146-.86h1.242c.117 0 .217-.012.3-.037.083-.025.15-.06.201-.107.052-.046.09-.1.113-.162.024-.062.036-.131.036-.207v-.457h-2.663l-.442 2.601.685.186c.224-.088.452-.132.685-.132.262 0 .464.066.607.198.143.132.214.324.214.576 0 .129-.015.25-.045.362-.03.113-.077.212-.142.297-.066.084-.15.15-.256.2-.104.048-.23.073-.378.073-.147 0-.271-.02-.371-.057-.1-.039-.187-.08-.262-.127l-.207-.129c-.063-.039-.13-.058-.202-.058-.055 0-.106.012-.153.037-.048.025-.09.061-.125.109l-.343.457c.093.09.196.175.31.255.115.08.24.15.374.21.134.061.278.11.431.145.154.036.315.053.484.053zm6.266-.057v-.642c0-.107-.034-.193-.103-.259-.069-.065-.163-.098-.282-.098h-.97c-.112 0-.232.011-.36.034-.127.023-.256.053-.386.091l1.017-1.042c.138-.14.268-.279.39-.416.123-.137.23-.278.323-.424.093-.147.166-.3.22-.463.053-.161.08-.337.08-.528 0-.221-.039-.424-.116-.608-.077-.185-.188-.343-.334-.477-.145-.133-.32-.237-.526-.312-.206-.075-.437-.112-.694-.112-.238 0-.46.031-.667.094-.207.063-.391.16-.552.288-.16.128-.295.289-.403.481-.108.193-.181.419-.22.678l.586.104c.028.005.056.008.084.01.027.003.053.004.076.004.1 0 .18-.024.238-.071.058-.048.106-.125.144-.232.024-.064.056-.124.095-.179.04-.054.086-.102.14-.142.055-.04.117-.073.186-.097.07-.024.145-.035.229-.035.202 0 .352.055.451.165.099.111.148.27.148.477 0 .126-.015.246-.046.359-.031.113-.077.226-.14.339-.061.113-.14.227-.235.344-.095.117-.207.239-.335.368l-1.5 1.509c-.07.064-.12.136-.149.214-.029.079-.043.152-.043.221v.357H77.4z" transform="translate(32 20)"/>
            <path d="M0 0H14.275V1.529H0zM0 12.235H14.275V13.764H0zM16.314 0H37.726V1.529H16.314zM16.314 12.235H37.726V13.764H16.314zM39.765 0H78V1.529H39.765zM39.765 12.235H78V13.764H39.765z" transform="translate(32 20)"/>
        </g>
        <g transform="translate(193 13)">
            <mask id="flqr30wrhh" fill="#fff">
                <use xlink:href="#0hsgc23zag"/>
            </mask>
            <path fill="#EF4B2B" d="M36.232 0H2.986C1.339 0 0 1.339 0 2.985v18.529c0 1.645 1.338 2.984 2.985 2.984h33.246c1.646 0 2.984-1.339 2.984-2.984V2.985C39.216 1.339 37.878 0 36.232 0m0 1.5c.82 0 1.484.665 1.484 1.485v18.529c0 .819-.664 1.484-1.484 1.484H2.986c-.82 0-1.485-.665-1.485-1.484V2.985c0-.82.665-1.485 1.485-1.485h33.246" mask="url(#flqr30wrhh)"/>
            <mask id="oyztdxva5j" fill="#fff">
                <use xlink:href="#dac51ei6yi"/>
            </mask>
            <path fill="#EF4B2B" d="M39.216 6.079H0v12.34h39.216V6.08zM1.5 16.919h36.216V7.58H1.5v9.34z" mask="url(#oyztdxva5j)"/>
            <path fill="#EF4B2B" d="M4.438 14.071H5.45v-2.655c0-.13.003-.266.01-.408l-.596.495c-.038.031-.076.054-.115.067-.04.013-.077.02-.113.02-.062 0-.118-.014-.168-.042-.05-.027-.086-.057-.11-.088l-.354-.47 1.64-1.376h.925v4.457h.867v.81H4.438v-.81zM10.202 9.56c.261 0 .495.038.703.114.208.076.386.181.532.316.148.135.26.296.338.482.078.187.117.392.117.616 0 .193-.026.371-.08.535-.054.163-.129.32-.222.467-.094.148-.203.292-.327.43-.124.14-.256.28-.396.421l-1.029 1.055c.133-.039.262-.07.391-.093.13-.023.25-.034.364-.034h.982c.12 0 .216.033.285.1.071.066.105.153.105.261v.65H8.266v-.36c0-.07.015-.146.043-.225.03-.079.081-.152.153-.216l1.516-1.528c.13-.13.244-.254.34-.372.096-.119.176-.234.238-.349.063-.114.11-.228.141-.343.031-.115.047-.235.047-.363 0-.21-.05-.37-.149-.482-.1-.112-.253-.168-.457-.168-.084 0-.162.012-.232.036-.069.024-.132.057-.187.097-.056.041-.104.09-.143.145-.04.056-.072.116-.096.181-.039.108-.088.186-.146.234-.059.05-.139.073-.24.073-.025 0-.05-.002-.078-.004-.028-.002-.056-.006-.085-.01l-.592-.105c.038-.263.112-.492.222-.687.11-.195.245-.357.408-.487.163-.13.348-.227.558-.29.21-.065.435-.097.675-.097M14.738 9.56c.26 0 .49.037.693.11.203.074.373.173.513.298.14.126.245.271.318.435.072.165.108.34.108.522 0 .167-.018.313-.05.44-.035.126-.085.235-.15.328-.067.093-.149.172-.246.237-.098.065-.208.12-.333.162.583.202.874.598.874 1.188 0 .28-.052.523-.152.73-.101.207-.237.38-.406.516-.17.138-.367.241-.591.31-.225.068-.459.102-.702.102-.25 0-.473-.027-.668-.08-.194-.055-.367-.14-.52-.254-.152-.114-.284-.26-.399-.439-.113-.178-.213-.39-.297-.635l.497-.203c.043-.019.086-.032.128-.039.043-.008.085-.01.125-.01.077 0 .147.014.208.044.063.03.108.074.14.132.107.2.223.345.345.435.121.09.264.135.428.135.124 0 .233-.02.325-.063.094-.042.17-.096.232-.162.062-.067.107-.142.14-.226.03-.084.046-.17.046-.257 0-.113-.008-.214-.024-.305-.015-.09-.06-.168-.132-.233-.072-.065-.18-.114-.325-.15-.146-.034-.35-.052-.61-.052v-.773c.22 0 .396-.017.531-.05.135-.034.24-.08.313-.14.074-.058.122-.13.146-.215.024-.084.037-.176.037-.277 0-.207-.05-.367-.15-.479-.1-.112-.253-.168-.458-.168-.084 0-.162.012-.23.036-.07.024-.133.057-.188.097-.056.041-.104.09-.143.145-.04.056-.072.116-.097.181-.037.108-.086.186-.144.234-.06.05-.14.073-.24.073-.026 0-.052-.002-.08-.004-.027-.002-.055-.006-.084-.01l-.591-.105c.037-.263.111-.492.22-.687.11-.195.246-.357.41-.487.161-.13.347-.227.556-.29.21-.065.435-.097.677-.097" mask="url(#oyztdxva5j)"/>
            <mask id="f33ba8g41l" fill="#fff">
                <use xlink:href="#zlrc75n7qk"/>
            </mask>
            <path fill="#EF4B2B" d="M17.407 13.136L19.357 13.136 19.357 12.233 17.407 12.233zM22.063 12.869H23.5l-.483-1.441-.11-.324c-.042-.123-.084-.257-.125-.402-.038.147-.078.283-.12.408-.04.125-.078.234-.115.325l-.484 1.434zm3.38 2.012h-.945c-.107 0-.194-.025-.262-.075-.07-.05-.116-.112-.143-.19l-.31-.916h-2.001l-.311.917c-.024.067-.071.128-.141.183-.07.054-.156.08-.256.08h-.954l2.037-5.261h1.25l2.037 5.262zM27.266 12.649v1.31h.859c.162 0 .293-.02.396-.06.102-.042.182-.094.24-.16.058-.066.098-.139.119-.22.022-.082.032-.165.032-.25 0-.095-.012-.183-.037-.26-.025-.077-.07-.142-.13-.194-.061-.053-.143-.095-.244-.123-.101-.03-.228-.043-.382-.043h-.853zm0-.816h.636c.135 0 .256-.01.364-.03.108-.02.2-.053.276-.1.077-.05.134-.115.174-.2.04-.084.06-.19.06-.318 0-.125-.016-.229-.047-.312-.031-.082-.08-.15-.145-.2-.065-.05-.147-.088-.247-.108-.1-.022-.218-.034-.356-.034h-.715v1.301zm-1.221 3.047V9.619h1.936c.363 0 .673.034.929.101.254.068.462.163.625.286.16.122.278.271.35.447.074.175.11.373.11.59 0 .117-.015.232-.05.34-.033.11-.086.213-.158.309-.073.096-.165.184-.278.262-.113.079-.25.147-.408.205.347.084.603.22.769.409.167.188.25.431.25.727 0 .224-.044.433-.13.625-.087.194-.214.361-.382.505-.167.143-.373.255-.62.335-.244.08-.526.121-.841.121h-2.102zM34.494 13.519c.028 0 .058.005.086.017.03.01.057.029.083.055l.484.51c-.212.276-.477.485-.796.626-.319.14-.697.21-1.132.21-.4 0-.758-.066-1.075-.203-.316-.135-.585-.323-.805-.563-.22-.24-.39-.524-.508-.852-.117-.33-.177-.686-.177-1.071 0-.393.068-.753.202-1.082.135-.33.324-.612.566-.851.242-.238.531-.423.87-.556.336-.132.708-.198 1.114-.198.198 0 .384.017.56.052.174.035.337.083.488.144.151.062.291.136.42.22.127.086.24.18.34.284l-.413.553c-.027.034-.058.064-.094.092-.036.028-.087.042-.15.042-.045 0-.086-.01-.125-.03-.039-.02-.08-.042-.123-.07l-.142-.09c-.052-.032-.113-.063-.185-.091-.07-.027-.154-.05-.249-.07-.094-.02-.206-.03-.334-.03-.22 0-.424.04-.606.119-.184.078-.34.19-.472.335-.13.146-.233.323-.306.53-.075.207-.11.439-.11.697 0 .27.035.509.11.719.073.209.172.385.3.529.125.143.273.252.442.327.168.074.348.112.541.112.111 0 .212-.006.303-.017.092-.01.177-.03.255-.056.078-.026.153-.06.224-.103.071-.042.143-.094.215-.157.03-.024.06-.043.094-.06.034-.015.07-.023.105-.023M5.237 3.6c0 .538-.438.975-.976.975s-.973-.437-.973-.975.436-.974.974-.974.975.436.975.974M35.929 3.6c0 .538-.437.975-.975.975s-.974-.437-.974-.975.436-.974.974-.974.975.436.975.974M5.237 20.898c0 .538-.438.975-.976.975s-.973-.437-.973-.975.436-.974.974-.974.975.436.975.974M35.929 20.898c0 .538-.437.975-.975.975s-.974-.437-.974-.975.436-.974.974-.974.975.436.975.974" mask="url(#f33ba8g41l)"/>
        </g>
        <g>
            <path fill="#F7B4B4" d="M69.406 35v24.906C69.406 71.004 60.43 80 49.355 80h-20.62c-7.24 0-13.917-3.91-17.47-10.231l-5.226-9.294-4.453-7.913-.374-.674c-.988-1.784-.387-4.033 1.36-5.082l.2-.118c5.326-3 12.061-1.113 15.068 4.224l1.671 2.976v-47.7C19.511 2.77 22.275 0 25.686 0h.124c3.41 0 6.175 2.77 6.175 6.188V35s0-5 6.237-5 6.237 5 6.237 5 0-5 6.236-5c6.237 0 6.237 5 6.237 5s0-5 6.237-5 6.237 5 6.237 5" transform="rotate(-25 227.214 -38.023)"/>
            <path fill="#FBC8C8" d="M63.17 30c-6.238 0-6.238 5-6.238 5s0-5-6.237-5c-6.236 0-6.236 5-6.236 5s0-5-6.237-5-6.237 5-6.237 5V6.187C31.985 2.77 29.22 0 25.81 0h-.124c-3.41 0-6.175 2.77-6.175 6.188v47.7l-1.671-2.975c-3.007-5.338-9.742-7.225-15.069-4.225l-.198.118C.827 47.855.224 50.104 1.212 51.888l.374.675 4.453 7.912 3.634 6.464L68.765 32.75C68.04 31.422 66.497 30 63.169 30" transform="rotate(-25 227.214 -38.023)"/>
            <path fill="#FFF" d="M25.785 3.75h-.074c-2.046 0-3.705 1.662-3.705 3.713v6.287h7.484V7.463c0-2.05-1.659-3.713-3.705-3.713M11.465 57.387L6.04 60.475l-4.453-7.913c.274-.825.848-1.55 1.659-2l.075-.037c1.771-1.013 4.041-.388 5.04 1.387l3.105 5.475z" transform="rotate(-25 227.214 -38.023)"/>
        </g>
    </g>
</svg>
