<svg xmlns="http://www.w3.org/2000/svg" width="78" height="19" viewBox="0 0 78 19">
    <g fill="#FF4722" fill-rule="evenodd">
        <path fill-rule="nonzero" d="M4.115 12.377v-1.022h-.857V5.73h-.913L.725 7.466l.35.593c.023.04.06.076.108.111.049.035.104.053.166.053.036 0 .073-.009.11-.025.039-.017.077-.045.115-.085l.589-.624c-.008.179-.011.35-.011.515v3.351h-1v1.022h2.963zm3.297 0V9.79h1.777v-1.19H7.412V6.92h2.134V5.733H6.2v6.644h1.213zm5.075 0V6.955h1.463V5.733H9.817v1.222h1.463v5.422h1.207zM18.819 12.377c.312 0 .589-.051.831-.153.243-.102.447-.243.612-.424.166-.18.291-.393.377-.636.086-.243.128-.506.128-.789 0-.374-.082-.68-.246-.919-.164-.238-.417-.41-.76-.517.157-.073.291-.16.403-.258.112-.099.204-.209.275-.33.071-.122.124-.252.157-.39.033-.139.05-.282.05-.431 0-.274-.036-.522-.109-.744-.072-.221-.188-.41-.348-.565-.16-.155-.365-.275-.617-.36-.252-.085-.558-.128-.917-.128h-1.913v6.644h2.077zm-.243-3.849h-.628V6.887h.707c.135 0 .253.013.351.04.099.028.18.074.245.138.064.063.112.148.142.253.031.105.047.236.047.394 0 .161-.02.295-.059.401-.04.107-.096.19-.171.251-.075.061-.166.104-.273.128-.107.024-.228.036-.36.036zm.221 2.686h-.849V9.56h.842c.153 0 .279.018.379.055.1.036.18.088.24.155.061.067.104.149.129.246.025.097.037.207.037.328 0 .107-.01.211-.032.315-.021.103-.06.196-.117.278-.058.082-.137.149-.238.2-.1.052-.231.078-.39.078zm5.974 1.163V11.19h-2.134V9.61h1.635v-1.14h-1.635V6.92h2.134V5.733h-3.347v6.644h3.347zm2.356.073c.283 0 .54-.06.774-.183.233-.121.432-.286.598-.494.165-.209.293-.452.383-.73.09-.278.136-.572.136-.882 0-.34-.045-.636-.134-.887-.089-.25-.206-.458-.351-.623-.145-.164-.31-.285-.493-.364-.183-.08-.369-.119-.556-.119-.105 0-.203.01-.295.032-.091.021-.179.052-.262.091l.066-.102c.022-.035.046-.07.07-.103l1.541-2.353h-.985c-.133 0-.252.031-.357.094-.104.062-.183.139-.235.23l-1.17 2.02c-.196.34-.343.675-.443 1.003-.1.328-.15.658-.15.99 0 .35.042.67.127.962.084.292.207.542.367.752.16.21.356.373.587.49.23.117.491.176.782.176zm-.022-1.117c-.133 0-.248-.025-.346-.076-.097-.05-.178-.122-.243-.216-.064-.094-.111-.207-.142-.338-.031-.13-.047-.278-.047-.442 0-.164.02-.311.057-.442.038-.13.091-.243.16-.338.067-.094.147-.166.24-.216.093-.05.195-.075.307-.075.124 0 .236.024.337.072.101.05.188.119.259.21.071.091.127.204.166.338.04.133.059.285.059.456 0 .152-.021.292-.063.421-.041.13-.098.242-.17.338-.07.096-.156.17-.254.226-.1.054-.206.082-.32.082zm3.49 1.044c.153 0 .275-.045.368-.135.093-.09.163-.2.21-.33l1.817-4.916c.026-.073.053-.16.082-.264.029-.104.043-.239.043-.406v-.593H29.46v.93c0 .04.007.079.021.117.014.038.033.071.055.1.023.029.049.052.079.068.03.017.061.025.094.025h2.288c-.07.095-.133.193-.191.297-.058.103-.112.22-.162.35l-1.856 4.757h.806zm4.84.073c.24 0 .47-.043.692-.13.221-.087.415-.217.583-.39.168-.173.302-.39.402-.652.1-.261.15-.569.15-.921 0-.745-.288-1.245-.864-1.5.124-.055.234-.123.33-.206.096-.082.177-.181.243-.298.065-.117.115-.256.148-.415.033-.16.05-.344.05-.554 0-.231-.036-.45-.107-.66-.072-.207-.176-.39-.314-.549-.138-.158-.307-.283-.507-.376-.2-.092-.428-.139-.685-.139-.238 0-.46.04-.668.121-.207.08-.39.203-.55.367-.162.164-.296.37-.404.616-.108.246-.182.535-.22.866l.586.132c.028.006.056.01.083.014.028.003.053.005.077.005.1 0 .18-.03.238-.092.058-.06.106-.16.144-.296.024-.082.055-.158.095-.228.039-.07.086-.13.14-.182.055-.052.117-.093.186-.124.07-.03.145-.045.229-.045.202 0 .352.07.451.212.099.141.148.343.148.604 0 .128-.012.245-.036.351-.023.107-.072.197-.144.271-.073.075-.176.133-.309.176-.133.043-.308.064-.524.064v.976c.257 0 .457.022.6.066.145.044.252.107.324.189.071.082.115.18.13.294.016.114.023.243.023.385 0 .11-.015.218-.046.324-.031.107-.077.202-.137.285-.061.084-.137.152-.229.205-.091.054-.2.08-.323.08-.162 0-.303-.057-.423-.17-.12-.115-.233-.298-.34-.55-.031-.073-.077-.129-.138-.167-.06-.038-.129-.057-.205-.057-.04 0-.082.005-.123.014-.042.01-.084.026-.127.05l-.492.255c.083.31.181.578.294.803.113.225.244.41.394.554.15.144.322.25.514.32.193.068.413.102.66.102zM43.54 12.377V11.19h-2.134V9.61h1.635v-1.14h-1.635V6.92h2.134V5.733h-3.347v6.644h3.347zm4.375 0V6.955h1.464V5.733h-4.133v1.222h1.463v5.422h1.206zm4.547 0V9.919h.307c.093 0 .165.018.216.055.05.036.095.097.134.182l.863 1.93c.088.194.233.29.435.29h1.092l-1.106-2.311c-.052-.11-.113-.202-.184-.278-.07-.076-.145-.14-.226-.192.169-.082.318-.187.448-.314.13-.128.239-.273.328-.436.09-.162.156-.34.202-.531.045-.191.067-.395.067-.611 0-.283-.038-.544-.114-.784-.076-.24-.198-.449-.366-.625-.167-.176-.384-.314-.649-.413-.265-.098-.586-.148-.962-.148h-1.691v6.644h1.206zm.485-3.52h-.485v-1.97h.485c.312 0 .542.082.69.246.15.164.224.392.224.684 0 .146-.017.282-.05.408s-.087.236-.16.33c-.075.095-.17.169-.284.222-.116.053-.256.08-.42.08zm6.103 3.593c.283 0 .54-.06.774-.183.233-.121.432-.286.598-.494.165-.209.293-.452.383-.73.09-.278.136-.572.136-.882 0-.34-.045-.636-.134-.887-.09-.25-.206-.458-.351-.623-.146-.164-.31-.285-.493-.364-.183-.08-.369-.119-.557-.119-.104 0-.202.01-.294.032-.092.021-.179.052-.262.091l.066-.102c.022-.035.046-.07.07-.103l1.541-2.353h-.985c-.133 0-.252.031-.357.094-.105.062-.183.139-.235.23l-1.17 2.02c-.196.34-.343.675-.443 1.003-.1.328-.15.658-.15.99 0 .35.042.67.126.962.085.292.207.542.368.752.16.21.356.373.587.49.23.117.491.176.782.176zm-.022-1.117c-.133 0-.248-.025-.346-.076-.098-.05-.178-.122-.243-.216-.064-.094-.111-.207-.142-.338-.031-.13-.047-.278-.047-.442 0-.164.02-.311.057-.442.038-.13.091-.243.16-.338.067-.094.147-.166.24-.216.093-.05.195-.075.307-.075.124 0 .236.024.337.072.101.05.187.119.259.21.071.091.127.204.166.338.039.133.059.285.059.456 0 .152-.021.292-.063.421-.041.13-.098.242-.17.338-.07.096-.156.17-.254.226-.1.054-.206.082-.32.082zm3.49 1.044c.153 0 .275-.045.368-.135.093-.09.163-.2.21-.33l1.817-4.916c.026-.073.053-.16.082-.264.028-.104.043-.239.043-.406v-.593h-3.655v.93c0 .04.008.079.022.117.014.038.033.071.055.1.023.029.049.052.079.068.03.017.06.025.094.025h2.288c-.07.095-.133.193-.191.297-.058.103-.113.22-.163.35l-1.855 4.757h.806zm4.782.073c.276 0 .528-.047.757-.141.228-.095.424-.228.587-.4.163-.171.289-.379.378-.622.09-.243.134-.514.134-.812 0-.179-.017-.348-.05-.508-.033-.16-.085-.306-.155-.438-.07-.132-.16-.25-.271-.353-.111-.104-.244-.19-.398-.26.235-.137.411-.327.528-.57.116-.243.175-.535.175-.876 0-.258-.042-.497-.125-.718-.084-.22-.2-.41-.35-.572-.15-.161-.328-.288-.534-.38-.205-.093-.43-.14-.676-.14-.245 0-.47.047-.676.14-.206.092-.384.219-.534.38-.15.161-.266.352-.35.572-.083.22-.124.46-.124.718 0 .34.058.633.173.876.115.243.292.433.53.57-.157.07-.291.156-.402.26-.11.103-.2.221-.27.353-.071.132-.122.278-.154.438-.032.16-.048.33-.048.508 0 .298.044.569.133.812.09.243.216.45.379.623.163.171.358.304.587.399.228.094.48.14.756.14zm0-4.04c-.123 0-.225-.026-.303-.078-.079-.051-.14-.12-.186-.205-.045-.085-.076-.182-.092-.292-.017-.11-.025-.222-.025-.337 0-.104.01-.204.032-.301.021-.097.056-.183.105-.258.049-.074.111-.134.187-.18.076-.046.17-.068.282-.068.11 0 .203.022.28.068.078.046.14.106.19.18.048.075.083.16.105.258.021.097.032.197.032.3 0 .116-.008.229-.025.338-.017.11-.048.207-.093.292-.045.085-.107.154-.185.205-.079.052-.18.078-.304.078zm0 2.973c-.126 0-.234-.024-.323-.073-.089-.049-.163-.115-.221-.198-.058-.084-.101-.183-.128-.297-.028-.114-.041-.236-.041-.367 0-.143.011-.274.035-.392.024-.119.063-.22.118-.303.055-.084.128-.15.22-.196.091-.048.205-.071.34-.071.136 0 .25.023.341.07.092.048.165.113.22.197.054.083.093.184.117.303.024.118.036.25.036.392 0 .13-.014.253-.041.367-.027.114-.07.213-.129.297-.058.083-.132.15-.223.198-.09.049-.197.073-.32.073zm3.833 1.067c.29 0 .557-.059.801-.176.244-.117.454-.282.63-.494.176-.213.313-.466.412-.76.099-.293.148-.618.148-.973 0-.283-.036-.548-.109-.796-.072-.248-.18-.464-.323-.647-.142-.184-.318-.33-.528-.436-.21-.106-.45-.16-.724-.16-.086 0-.174.006-.264.016-.09.011-.185.027-.282.048l.146-1.099h1.242c.117 0 .217-.016.3-.047.083-.032.15-.078.201-.137.052-.06.09-.129.113-.208.024-.079.036-.167.036-.264v-.584h-2.663l-.442 3.324.685.237c.224-.112.452-.168.685-.168.262 0 .464.084.607.253.143.168.214.414.214.736 0 .164-.015.319-.045.463-.03.144-.077.27-.142.378-.066.108-.15.194-.256.256-.104.062-.23.093-.378.093-.147 0-.271-.024-.371-.073-.1-.048-.187-.102-.262-.162l-.207-.164c-.063-.05-.13-.075-.202-.075-.055 0-.106.016-.153.048-.048.032-.09.078-.125.14l-.343.583c.093.115.196.224.31.326.115.102.24.191.374.269.134.077.278.139.431.184.154.046.315.069.484.069zm6.266-.073v-.82c0-.138-.034-.248-.103-.331-.069-.084-.163-.126-.282-.126h-.97c-.112 0-.232.015-.36.043-.127.03-.256.068-.386.117l1.017-1.332c.138-.18.268-.356.39-.531.123-.175.23-.356.323-.543.093-.187.166-.383.22-.59.053-.207.08-.432.08-.675 0-.283-.039-.542-.116-.777-.077-.236-.188-.439-.334-.61-.145-.17-.32-.302-.526-.398-.206-.096-.437-.144-.694-.144-.238 0-.46.04-.667.121-.207.08-.391.203-.552.367-.16.164-.295.37-.403.616-.108.246-.181.535-.22.866l.586.132c.028.006.056.01.084.014.027.003.053.005.076.005.1 0 .18-.03.238-.092.058-.06.106-.16.144-.296.024-.082.056-.158.095-.228.04-.07.086-.13.14-.182.055-.052.117-.093.186-.124.07-.03.145-.045.229-.045.202 0 .352.07.451.212.099.141.148.344.148.609 0 .16-.015.313-.046.458-.031.144-.077.289-.14.433-.061.144-.14.291-.235.44-.095.149-.207.306-.335.47l-1.5 1.929c-.07.082-.12.173-.149.273-.029.1-.043.195-.043.283v.456H77.4z" transform="translate(0 .722)"/>
        <path d="M0 0H14.275V1.954H0zM0 15.634H14.275V17.588H0zM16.314 0H37.726V1.954H16.314zM16.314 15.634H37.726V17.588H16.314zM39.765 0H78V1.954H39.765zM39.765 15.634H78V17.588H39.765z" transform="translate(0 .722)"/>
    </g>
</svg>
