<svg xmlns="http://www.w3.org/2000/svg" width="60" height="60" viewBox="0 0 60 60">
    <g fill="none" fill-rule="evenodd">
        <circle cx="30" cy="30" r="30" fill="#4A3B8F"/>
        <g>
            <g>
                <path fill="#EBEAF4" d="M32.7 6.785L0.075 6.785 0.075 0 32.7 0z" transform="translate(12 15.3) translate(3.3 2.261)"/>
                <path fill="#8B88AA" d="M22.742 3.14c-.105.158-.28.252-.468.252h-7.273c-.188 0-.363-.094-.468-.251L12.45 0h12.375l-2.083 3.14z" transform="translate(12 15.3) translate(3.3 2.261)"/>
                <path fill="#FFF" d="M14.7 6.785c.532 2.1-.346 3.438-1.688 4.523 1.855.474 3.11-.167 4.124-1.26L14.7 6.786z" transform="translate(12 15.3) translate(3.3 2.261)"/>
                <path fill="#EBEAF4" d="M20.606 12.156h-9.844c-.775 0-1.406-.634-1.406-1.414V6.785H7.67v3.957c0 1.715 1.387 3.11 3.093 3.11h9.282l.562-1.696z" transform="translate(12 15.3) translate(3.3 2.261)"/>
                <path fill="#8B88AA" d="M14.7 6.785h18s-5.555 5.603-3.938 7.915c1.197 1.711 3.148 8.517 3.176 11.296.004.302-.113.593-.325.807-.211.215-.499.336-.8.336H20.325c-.401 0-.772-.215-.973-.563-.201-.35-.203-.779-.004-1.129l1.248-1.346c.218-.234.326-.55.298-.87-.028-.32-.19-.613-.446-.805l-.236-.376c-.477-.36-.592-1.032-.26-1.531l.907-1.537c.332-.499.217-1.171-.26-1.531l-.75-.566c-.387-.292-.546-.8-.393-1.262l1.431-4.315h-2.812L14.7 6.785z" transform="translate(12 15.3) translate(3.3 2.261)"/>
            </g>
            <path fill="#FFF" d="M3.375 9.046L1.688 9.046 1.688 2.262 3.375 2.262z" transform="translate(12 15.3)"/>
            <path fill="#8B88AA" d="M1.688 7.915L0 7.915 0 3.392 1.688 3.392z" transform="translate(12 15.3)"/>
            <path fill="#FFF" d="M7.875 0L6.188 0 4.5 2.262 7.875 2.262zM33.75 1.131L30.375 1.131 29.25 2.262 34.875 2.262z" transform="translate(12 15.3)"/>
            <path fill="#8B88AA" d="M30.234 6.785L29.25 6.785 29.25 3.392 30.234 3.392zM32.063 6.785L31.078 6.785 31.078 3.392 32.063 3.392zM33.891 6.785L32.906 6.785 32.906 3.392 33.891 3.392zM1.688 9.046l4.779 3.202c.185.124.402.19.624.19h3.878V9.046H1.688z" transform="translate(12 15.3)"/>
        </g>
    </g>
</svg>
