<svg xmlns="http://www.w3.org/2000/svg" width="446" height="351" viewBox="0 0 446 351">
    <g fill="none" fill-rule="evenodd">
        <path fill="#FF4722" fill-rule="nonzero" d="M6.091 103.474V80.48H4.976c-.414 1.736-2.293 2.587-4.3 2.686v1.244c1.944 0 3.759-.917 3.982-1.44v20.504H6.09zM36.695 103.474V92.305h6.665v-1.38h-6.665V81.86H47.77v-1.38H35.193v22.995h1.502zm22.54 0V81.859h7.09v-1.38h-15.68v1.38h7.088v21.615h1.503zM100.043 103.79c4.602 0 7.292-2.262 7.292-6.656 0-3.803-2.69-5.507-4.926-5.868 1.88-.426 3.662-1.934 3.662-4.983 0-3.869-2.755-5.443-6.06-5.443h-7.292v22.95h7.324zm-.162-13.081h-5.703v-8.492h5.768c2.69 0 4.634 1.312 4.634 4.131 0 2.689-1.717 4.36-4.699 4.36zm.26 11.704h-5.963v-10.36h5.8c3.436 0 5.866 1.868 5.866 5.147 0 3.278-1.912 5.213-5.703 5.213zm25.569 1.377v-1.377H113.88V92.249h6.87v-1.376h-6.87v-8.656h11.343V80.84H112.39v22.95h13.32zm11.764.36c4.569 0 7.972-2.82 7.972-7.343 0-4.721-3.306-6.984-7.519-6.984-3.532 0-5.995 1.607-6.967 3.77.68-5.802 3.889-10.851 10.921-11.703v-1.345c-9.268.886-12.412 8.59-12.412 14.753 0 6.23 3.306 8.852 8.005 8.852zm.064-1.344c-3.92 0-6.449-2.262-6.546-5.967-.065-3.245 2.658-5.671 6.579-5.671 3.856 0 6.384 1.967 6.384 5.704 0 3.377-2.43 5.934-6.417 5.934zm16.625.984c.292-9.246 4.019-16.36 8.135-21.54v-1.41h-14.486v1.443h12.8c-4.213 5.508-7.648 12.655-7.972 21.507h1.523zm18.148.36c4.764 0 7.713-2.491 7.713-6.753 0-3.803-2.527-5.443-4.828-5.77 1.847-.394 3.92-1.77 3.92-5.246 0-3.934-2.721-5.901-6.643-5.901-2.69 0-4.893 1.213-5.898 2.23l.908.95c.94-.885 2.754-1.836 4.926-1.836 3.63 0 5.217 1.869 5.217 4.688 0 2.754-1.717 4.557-4.99 4.557h-1.491v1.279h1.458c3.5 0 5.963 1.54 5.963 5.081 0 3.41-2.171 5.377-6.19 5.377-2.106 0-4.278-.95-5.671-2.23l-.875 1.083c1.296 1.344 3.986 2.491 6.481 2.491zM231.46 103.474L231.46 102.094 219.439 102.094 219.439 91.911 226.421 91.911 226.421 90.532 219.439 90.532 219.439 81.859 230.966 81.859 230.966 80.48 217.924 80.48 217.924 103.474zM263.676 103.474L263.676 81.859 270.713 81.859 270.713 80.48 255.147 80.48 255.147 81.859 262.184 81.859 262.184 103.474zM297.246 103.474V93.258h6.196l5.093 10.216h1.72l-5.223-10.413c3.47-.591 5.611-2.66 5.611-6.307 0-4.533-3.081-6.274-7.298-6.274h-7.59v22.994h1.491zm5.645-11.596h-5.645V81.86h6.034c3.665 0 5.871 1.38 5.871 4.928 0 3.515-2.173 5.091-6.26 5.091zM342.367 104.15c4.587 0 8.003-2.82 8.003-7.343 0-4.721-3.318-6.984-7.548-6.984-3.546 0-6.019 1.607-6.995 3.77.684-5.802 3.904-10.851 10.964-11.703v-1.345c-9.304.886-12.46 8.59-12.46 14.753 0 6.23 3.318 8.852 8.036 8.852zm.065-1.344c-3.937 0-6.475-2.262-6.572-5.967-.065-3.245 2.668-5.671 6.604-5.671 3.872 0 6.41 1.967 6.41 5.704 0 3.377-2.44 5.934-6.442 5.934zm16.69.984c.292-9.246 4.034-16.36 8.166-21.54v-1.41h-14.543v1.443h12.85c-4.229 5.508-7.677 12.655-8.003 21.507h1.53zm20.43.36c4.913 0 8.232-2.262 8.232-6.59 0-3.343-2.147-5.376-5.563-6.032 2.57-.59 4.587-2.196 4.587-5.147 0-3.606-2.83-5.901-7.223-5.901-4.36 0-7.255 2.327-7.255 5.934 0 2.983 2.05 4.59 4.588 5.18-3.384.623-5.564 2.655-5.564 6 0 4.327 3.286 6.556 8.199 6.556zm.033-13.18c-3.448 0-5.758-1.77-5.758-4.589 0-2.656 2.082-4.557 5.726-4.557 3.676 0 5.758 1.934 5.758 4.59 0 2.754-2.31 4.557-5.726 4.557zm0 11.836c-4.23 0-6.767-1.967-6.767-5.245 0-3.246 2.603-5.213 6.735-5.213s6.767 2 6.767 5.245c0 3.279-2.505 5.213-6.735 5.213zm24.726.984V97.92h3.383v-1.278h-3.383V80.742h-1.594l-11.842 15.933v1.246h12.07v5.869h1.366zm-1.366-7.147h-10.411l10.41-14.032v14.032zm14.9 7.507c4.913 0 8.394-2.622 8.394-7.671 0-4.098-2.343-6.852-7.58-6.852-2.473 0-4.36.754-5.499 1.737l.65-9.081h11.258V80.84h-12.526l-.846 11.344 1.497.59c1.203-1.082 2.928-1.803 5.368-1.803 4.262 0 6.181 2.196 6.181 5.606 0 3.737-2.537 6.23-6.767 6.23-2.472 0-4.717-.82-6.084-1.673l-.683 1.246c1.432.918 3.872 1.77 6.637 1.77zm26.125-.36v-1.443h-12.59c.357-2.721 1.658-4.852 6.44-8.229 4.523-3.213 5.922-4.688 5.922-7.934 0-3.836-2.798-5.704-6.67-5.704-2.928 0-4.912.885-6.604 2.164l.78 1.049c1.465-1.115 3.222-1.87 5.792-1.87 3.22 0 5.205 1.607 5.205 4.46 0 2.459-.976 3.77-5.433 6.917-4.652 3.311-6.864 5.934-7.092 10.59h14.25z"/>
        <path fill="#000" fill-rule="nonzero" d="M20.998 323.323c1.82 0 2.634-.87 2.634-2.146 0-1.265-.875-1.71-2.278-2.136-1.23-.364-1.556-.607-1.556-1.103 0-.476.356-.88 1.19-.88.702 0 1.21.222 1.657.677l.753-.759c-.63-.607-1.363-.961-2.329-.961-1.311 0-2.348.749-2.348 1.974 0 1.265.721 1.64 2.226 2.085 1.19.354 1.607.628 1.607 1.174 0 .689-.478 1.033-1.475 1.033-.67 0-1.372-.324-1.85-.84l-.763.738c.6.699 1.495 1.144 2.532 1.144zm5.125-.111v-3.108c0-.86.396-1.356 1.098-1.356.691 0 1.098.384 1.098 1.457v3.007h1.047v-3.047c0-1.57-.66-2.379-1.901-2.379-.55 0-1.078.233-1.342.618v-2.572l-1.048.547v6.833h1.048zm6.843.111c1.372 0 2.41-1.032 2.41-2.794 0-1.66-1.017-2.743-2.38-2.743-1.342 0-2.38 1.033-2.38 2.774 0 1.66 1.008 2.763 2.35 2.763zm.04-.992c-.793 0-1.332-.637-1.332-1.802 0-1.052.488-1.75 1.282-1.75.843 0 1.362.698 1.362 1.78 0 .973-.519 1.772-1.312 1.772zm5.654.881l.711-2.672c.112-.405.224-.891.275-1.144.05.253.163.729.275 1.133l.721 2.683h.895l1.485-5.315h-1.037l-.63 2.582c-.102.405-.204.9-.265 1.164-.061-.263-.173-.739-.285-1.154l-.722-2.592h-.844l-.711 2.582c-.112.415-.234.9-.295 1.164-.051-.253-.163-.76-.265-1.164l-.63-2.582H36.3l1.464 5.315h.895zm7.27.111c1.047 0 2.003-.394 2.003-1.569 0-1.002-.61-1.326-1.8-1.781-.803-.314-.986-.506-.986-.77 0-.283.224-.486.732-.486s.946.152 1.383.456l.457-.8c-.478-.344-1.139-.587-1.81-.587-1.067 0-1.82.496-1.82 1.448 0 .84.417 1.225 1.566 1.67.773.294 1.24.486 1.24.89 0 .375-.315.588-.975.588-.499 0-1.058-.182-1.556-.526l-.478.79c.539.394 1.322.677 2.044.677zm8.083-.111l.712-2.672c.112-.405.224-.891.274-1.144.051.253.163.729.275 1.133l.722 2.683h.895l1.484-5.315h-1.037l-.63 2.582c-.102.405-.204.9-.265 1.164-.06-.263-.173-.739-.284-1.154l-.722-2.592h-.844l-.712 2.582c-.112.415-.234.9-.295 1.164-.05-.253-.163-.76-.264-1.164l-.63-2.582h-1.038l1.464 5.315h.895zm7.596.111c.813 0 1.372-.253 1.84-.698l-.62-.668c-.356.263-.712.425-1.16.425-.65 0-1.23-.435-1.342-1.458h3.529c.01-.111.03-.283.03-.476 0-1.437-.732-2.662-2.247-2.662-1.383 0-2.339.972-2.339 2.774 0 1.761 1.058 2.763 2.309 2.763zm1.22-3.26h-2.481c.091-.85.518-1.335 1.22-1.335.864 0 1.21.607 1.26 1.336zm3.406 3.149v-3.037c0-.9.386-1.366 1.047-1.366.346 0 .58.07.804.192l.274-.992c-.213-.142-.478-.223-.905-.223-.529 0-.976.263-1.22.618v-.507h-1.047v5.315h1.047zm5.257.111c.813 0 1.372-.253 1.84-.698l-.62-.668c-.356.263-.712.425-1.16.425-.65 0-1.23-.435-1.341-1.458h3.528c.01-.111.03-.283.03-.476 0-1.437-.732-2.662-2.247-2.662-1.383 0-2.338.972-2.338 2.774 0 1.761 1.057 2.763 2.308 2.763zm1.22-3.26H70.23c.091-.85.518-1.335 1.22-1.335.864 0 1.21.607 1.26 1.336zm-52.476 15.408c.416 0 .772-.101 1.026-.243l.123-.921c-.194.111-.499.212-.773.212-.387 0-.55-.141-.55-.637v-2.885h1.323v-.952h-1.322v-2.065l-1.027.547v1.518h-.763v.952h.763v3.067c0 .951.457 1.407 1.2 1.407zm3.62-.111v-3.108c0-.86.396-1.357 1.097-1.357.692 0 1.099.385 1.099 1.458v3.007h1.047v-3.047c0-1.57-.661-2.38-1.902-2.38-.549 0-1.077.233-1.342.618v-2.571l-1.047.547v6.833h1.047zm6.802.11c.813 0 1.372-.252 1.84-.698l-.62-.668c-.356.264-.712.425-1.16.425-.65 0-1.23-.435-1.342-1.457h3.529c.01-.112.03-.284.03-.476 0-1.437-.732-2.662-2.247-2.662-1.383 0-2.339.971-2.339 2.773 0 1.762 1.058 2.764 2.309 2.764zm1.22-3.259h-2.481c.091-.85.518-1.336 1.22-1.336.864 0 1.21.607 1.26 1.336zm7.626 3.149l1.88-5.315h-1.108l-.915 2.885c-.162.516-.305 1.012-.366 1.306-.07-.294-.223-.79-.396-1.306l-.956-2.885h-1.098l1.911 5.315h1.048zm5.043.11c.813 0 1.373-.252 1.84-.698l-.62-.668c-.356.264-.712.425-1.16.425-.65 0-1.23-.435-1.341-1.457h3.528c.01-.112.03-.284.03-.476 0-1.437-.732-2.662-2.247-2.662-1.382 0-2.338.971-2.338 2.773 0 1.762 1.057 2.764 2.308 2.764zm1.22-3.259h-2.48c.09-.85.518-1.336 1.22-1.336.864 0 1.21.607 1.26 1.336zm3.406 3.149v-3.108c0-.86.397-1.357 1.098-1.357.692 0 1.099.385 1.099 1.458v3.007h1.047v-3.047c0-1.57-.661-2.38-1.902-2.38-.549 0-1.077.233-1.342.618v-2.571l-1.047.547v6.833h1.047zm5.328-6.003c.366 0 .671-.304.671-.668 0-.375-.305-.679-.67-.679-.377 0-.682.304-.682.679 0 .364.305.668.681.668zm.519 6.003v-5.315h-1.047v5.315h1.047zm3.65.11c.966 0 1.495-.465 1.912-.991l-.671-.658c-.417.435-.712.658-1.21.658-.834 0-1.282-.75-1.282-1.792 0-1.083.488-1.761 1.251-1.761.478 0 .864.202 1.302.648l.62-.74c-.498-.587-1.109-.9-1.891-.9-1.302 0-2.339 1.022-2.339 2.783 0 1.66 1.007 2.754 2.308 2.754zm4.352-.11v-7.38l-1.047.547v6.833h1.047zm3.65.11c.814 0 1.373-.252 1.84-.698l-.62-.668c-.356.264-.711.425-1.159.425-.65 0-1.23-.435-1.342-1.457h3.528c.01-.112.03-.284.03-.476 0-1.437-.731-2.662-2.246-2.662-1.383 0-2.339.971-2.339 2.773 0 1.762 1.058 2.764 2.308 2.764zm1.22-3.259h-2.48c.09-.85.518-1.336 1.22-1.336.864 0 1.21.607 1.26 1.336zm-47.189 15.296l.712-2.672c.112-.405.224-.891.275-1.144.05.253.162.729.274 1.134l.722 2.682h.895l1.484-5.314h-1.037l-.63 2.58c-.102.406-.204.902-.265 1.165-.06-.263-.172-.739-.284-1.154l-.722-2.591h-.844l-.712 2.58c-.112.416-.234.902-.295 1.165-.05-.253-.162-.76-.264-1.164l-.63-2.581h-1.038l1.464 5.314h.895zm7.138.111c.58 0 1.098-.273 1.464-.637v.526h1.027v-3.644c0-1.205-.813-1.782-2.003-1.782-.752 0-1.322.162-1.83.476l.407.79c.417-.233.844-.334 1.393-.334.65 0 1.006.323 1.006.9v.395c-.295-.131-.691-.202-1.19-.202-1.21 0-2.124.536-2.124 1.72 0 1.307.986 1.792 1.85 1.792zm.173-.94c-.691 0-1.027-.355-1.027-.882 0-.486.427-.79 1.098-.79.57 0 .936.092 1.22.234v.759c-.244.334-.732.678-1.291.678zm5.552.94c1.047 0 2.003-.394 2.003-1.569 0-1.002-.61-1.326-1.8-1.781-.803-.314-.986-.506-.986-.77 0-.283.223-.485.732-.485.508 0 .945.151 1.383.455l.457-.8c-.478-.344-1.139-.587-1.81-.587-1.067 0-1.82.496-1.82 1.448 0 .84.417 1.225 1.566 1.67.773.294 1.24.486 1.24.89 0 .375-.315.588-.976.588-.498 0-1.057-.182-1.555-.526l-.478.79c.539.394 1.322.677 2.044.677zm8.47 0c1.108 0 2.104-.86 2.104-2.682 0-2.025-.905-2.855-2.054-2.855-.559 0-1.006.263-1.393.618v-2.572l-1.037.537v6.843h1.037v-.496c.295.324.804.607 1.342.607zm-.102-.961c-.529 0-1.017-.385-1.25-.699v-2.237c.274-.344.71-.678 1.21-.678.772 0 1.199.587 1.199 1.923 0 1.124-.407 1.69-1.16 1.69zm5.379.961c.549 0 1.077-.232 1.342-.617v.506h1.047v-5.314h-1.047v3.107c0 .86-.397 1.357-1.098 1.357-.692 0-1.099-.385-1.099-1.458v-3.006h-1.047v3.047c0 1.569.661 2.378 1.902 2.378zm4.514-6.114c.366 0 .671-.303.671-.668 0-.374-.305-.678-.67-.678-.377 0-.682.304-.682.678 0 .365.305.668.681.668zm.519 6.003v-5.314h-1.048v5.314h1.048zm2.694 0v-7.38l-1.047.547v6.833h1.047zm3.122.111c.417 0 .772-.1 1.027-.242l.122-.922c-.194.112-.499.213-.773.213-.386 0-.55-.142-.55-.638v-2.885h1.323v-.951h-1.322v-2.066l-1.027.547v1.519h-.763v.951h.763v3.067c0 .952.457 1.407 1.2 1.407z"/>
        <path fill="#FF4722" fill-rule="nonzero" d="M3.628 9.978l.937-3.74c.106-.426.213-.977.245-1.247.043.27.15.81.256 1.247l.916 3.74h1.46l1.554-7.273H7.462l-.65 3.543c-.063.343-.149.894-.18 1.195-.054-.301-.171-.842-.256-1.195l-.884-3.543h-1.3L3.32 6.248c-.086.353-.203.894-.256 1.195-.032-.301-.117-.842-.181-1.195l-.65-3.543H.677l1.555 7.273h1.396zm10.332.167l1.513-3.232c.192-.415.415-.935.522-1.205 0 .259-.018 1.067-.021 1.5v2.77h1.491V2.705h-1.47L14.493 6c-.192.415-.405.945-.5 1.216-.097-.26-.32-.81-.512-1.216l-1.555-3.294h-1.438v7.273h1.459v-2.67c0-.395-.021-1.32-.021-1.6.106.27.33.79.522 1.205l1.512 3.232zm7.02-.167V2.705H19.49v7.273h1.491z"/>
        <path fill="#000" fill-rule="nonzero" d="M2.782 27.267l.561-.483c-.918-1.03-1.49-2.212-1.49-3.972 0-1.632.53-2.867 1.49-3.93l-.561-.482C1.68 19.44.677 20.858.677 22.865c0 1.943 1.025 3.382 2.105 4.402zm4.328-1.181l1.23-4.852c.066-.258.184-.816.217-.999.032.183.15.741.216.999l1.176 4.852h1.144l1.544-7.515h-1.1l-.918 4.853c-.033.182-.098.6-.152.88-.043-.268-.13-.666-.183-.87l-1.23-4.863h-.972l-1.21 4.756c-.053.225-.161.73-.204.977-.033-.247-.13-.762-.173-.988l-.907-4.745H4.444l1.544 7.515H7.11zm9.11.118c1.458 0 2.56-1.095 2.56-2.963 0-1.76-1.08-2.909-2.527-2.909-1.425 0-2.526 1.095-2.526 2.941 0 1.76 1.069 2.931 2.494 2.931zm.044-1.052c-.842 0-1.414-.676-1.414-1.91 0-1.117.518-1.858 1.36-1.858.896 0 1.447.74 1.447 1.89 0 1.03-.551 1.878-1.393 1.878zm4.998.934v-3.22c0-.956.41-1.45 1.112-1.45.367 0 .615.075.853.204l.291-1.052c-.227-.15-.507-.236-.96-.236-.562 0-1.037.28-1.296.655v-.537H20.15v5.636h1.112zm4.566 0V18.26l-1.112.58v7.246h1.112zm3.627.118c.594 0 1.069-.28 1.479-.655v.537h1.1V18.26l-1.1.57v2.146c-.313-.343-.853-.644-1.425-.644-1.177 0-2.235.912-2.235 2.845 0 2.147.961 3.027 2.18 3.027zm.205-1.02c-.82 0-1.274-.622-1.274-2.04 0-1.191.432-1.792 1.23-1.792.562 0 1.08.408 1.329.74v2.373c-.292.365-.756.72-1.285.72zM4.38 38.952l1.834-4.23c.184-.43.4-.966.486-1.18-.01.196-.02.763-.021 1.203v4.089H7.79v-7.515H6.581L4.92 35.323c-.183.44-.4.977-.507 1.288-.097-.31-.335-.858-.518-1.288L2.199 31.32H1.033v7.515h1.069v-3.972c0-.451-.011-1.106-.022-1.32.086.214.302.75.486 1.18l1.813 4.23zm6.908 0c.615 0 1.166-.29 1.554-.677v.559h1.09v-3.865c0-1.277-.863-1.89-2.126-1.89-.799 0-1.403.172-1.943.505l.432.838c.442-.247.896-.355 1.479-.355.69 0 1.068.344 1.068.956v.418c-.313-.14-.734-.214-1.263-.214-1.284 0-2.256.569-2.256 1.825 0 1.384 1.047 1.9 1.965 1.9zm.183-.999c-.734 0-1.09-.375-1.09-.934 0-.515.453-.837 1.166-.837.604 0 .993.097 1.295.247v.805c-.259.354-.777.72-1.37.72zm5.17.88v-3.295c0-.912.422-1.438 1.167-1.438.734 0 1.165.407 1.165 1.545v3.189h1.112v-3.232c0-1.664-.701-2.522-2.018-2.522-.583 0-1.144.247-1.425.655v-.537H15.53v5.636h1.112zm7.017.119c.583 0 1.145-.247 1.425-.655v.537h1.112v-5.636h-1.112v3.295c0 .913-.42 1.439-1.166 1.439-.734 0-1.165-.408-1.165-1.546v-3.188H21.64v3.231c0 1.664.701 2.523 2.018 2.523zm5.667-.118v-4.606h1.047v-1.03h-1.047v-.644c0-.408.152-.548.519-.548.194 0 .388.032.647.108v-.967c-.237-.064-.55-.107-.842-.107-.799 0-1.435.387-1.435 1.417v.74h-.734v1.031h.734v4.606h1.111zm4.113.118c.615 0 1.166-.29 1.555-.677v.559h1.09v-3.865c0-1.277-.864-1.89-2.127-1.89-.799 0-1.403.172-1.943.505l.432.838c.443-.247.896-.355 1.479-.355.69 0 1.069.344 1.069.956v.418c-.314-.14-.734-.214-1.263-.214-1.285 0-2.256.569-2.256 1.825 0 1.384 1.047 1.9 1.964 1.9zm.184-.999c-.734 0-1.09-.375-1.09-.934 0-.515.453-.837 1.165-.837.605 0 .993.097 1.296.247v.805c-.26.354-.778.72-1.371.72zm6.239.999c1.025 0 1.587-.494 2.03-1.052l-.713-.698c-.443.462-.756.698-1.285.698-.885 0-1.36-.795-1.36-1.9 0-1.15.518-1.868 1.328-1.868.507 0 .917.214 1.382.687l.658-.784c-.529-.623-1.177-.955-2.008-.955-1.381 0-2.483 1.084-2.483 2.952 0 1.76 1.07 2.92 2.45 2.92zm5.073 0c.443 0 .82-.108 1.09-.258l.13-.977c-.205.118-.529.226-.82.226-.41 0-.583-.15-.583-.677v-3.06h1.403v-1.008h-1.403v-2.19l-1.09.58v1.61h-.81v1.009h.81v3.253c0 1.009.485 1.492 1.273 1.492zm4.707 0c.583 0 1.144-.247 1.425-.655v.537h1.111v-5.636h-1.111v3.295c0 .913-.421 1.439-1.166 1.439-.734 0-1.166-.408-1.166-1.546v-3.188h-1.112v3.231c0 1.664.702 2.523 2.019 2.523zm5.289-.118v-3.22c0-.956.41-1.45 1.112-1.45.367 0 .615.075.853.204l.291-1.052c-.227-.15-.507-.236-.96-.236-.562 0-1.037.279-1.296.655v-.537h-1.112v5.636h1.112zm5.58.118c.864 0 1.458-.269 1.955-.741l-.659-.709c-.378.28-.756.451-1.23.451-.691 0-1.307-.461-1.425-1.545h3.745c.011-.119.033-.301.033-.505 0-1.524-.777-2.823-2.386-2.823-1.468 0-2.483 1.03-2.483 2.941 0 1.868 1.123 2.93 2.45 2.93zm1.296-3.457h-2.634c.097-.902.55-1.417 1.296-1.417.917 0 1.284.644 1.338 1.417zm3.616 3.339v-3.22c0-.956.41-1.45 1.112-1.45.367 0 .615.075.853.204l.291-1.052c-.226-.15-.507-.236-.96-.236-.562 0-1.037.279-1.296.655v-.537H64.31v5.636h1.112zM2.22 51.58v-7.514H1.087v7.514H2.22zm2.969 0v-3.295c0-.913.42-1.439 1.166-1.439.734 0 1.166.408 1.166 1.546v3.188h1.111v-3.23c0-1.665-.701-2.524-2.018-2.524-.583 0-1.144.247-1.425.655v-.537H4.077v5.636H5.19zm6.973.118c.594 0 1.069-.279 1.479-.654v.536h1.101v-7.825l-1.101.569v2.147c-.313-.344-.853-.645-1.425-.645-1.176 0-2.234.913-2.234 2.845 0 2.147.96 3.027 2.18 3.027zm.205-1.02c-.82 0-1.274-.622-1.274-2.039 0-1.192.432-1.793 1.231-1.793.561 0 1.08.408 1.328.74v2.373c-.292.365-.756.72-1.285.72zm6.196 1.02c.864 0 1.458-.268 1.954-.74l-.658-.709c-.378.28-.756.451-1.23.451-.692 0-1.307-.462-1.426-1.546h3.746c.01-.118.032-.3.032-.504 0-1.525-.777-2.824-2.385-2.824-1.468 0-2.483 1.031-2.483 2.942 0 1.868 1.123 2.93 2.45 2.93zm1.296-3.456h-2.634c.097-.902.55-1.417 1.295-1.417.918 0 1.285.644 1.339 1.417zm4.123 3.456c.443 0 .82-.107 1.09-.257l.13-.977c-.205.118-.529.225-.82.225-.41 0-.583-.15-.583-.676v-3.06h1.403v-1.009h-1.403v-2.19l-1.09.58v1.61h-.81v1.01h.81v3.252c0 1.01.485 1.492 1.273 1.492zm3.346-6.483c.389 0 .713-.323.713-.709 0-.397-.324-.72-.713-.72-.399 0-.723.323-.723.72 0 .386.324.709.723.709zm.55 6.365v-5.636h-1.11v5.636h1.11zm3.185 0v-4.605h1.047v-1.03h-1.047V45.3c0-.408.151-.547.518-.547.195 0 .39.032.648.107v-.966c-.237-.064-.55-.107-.842-.107-.799 0-1.436.386-1.436 1.417v.74h-.734v1.031h.734v4.605h1.112zm3.034-6.365c.388 0 .712-.323.712-.709 0-.397-.324-.72-.712-.72-.4 0-.724.323-.724.72 0 .386.324.709.724.709zm.55 6.365v-5.636h-1.112v5.636h1.112zm3.875.118c.864 0 1.458-.268 1.954-.74l-.658-.709c-.378.28-.756.451-1.23.451-.692 0-1.307-.462-1.426-1.546h3.746c.01-.118.032-.3.032-.504 0-1.525-.777-2.824-2.385-2.824-1.468 0-2.483 1.031-2.483 2.942 0 1.868 1.123 2.93 2.45 2.93zm1.296-3.456h-2.634c.097-.902.55-1.417 1.295-1.417.918 0 1.285.644 1.339 1.417zm3.616 3.338v-3.22c0-.956.41-1.45 1.112-1.45.367 0 .615.076.852.205l.292-1.052c-.227-.15-.507-.237-.96-.237-.562 0-1.037.28-1.296.655v-.537h-1.112v5.636h1.112zm3.66 1.17c1.1-1.04 2.104-2.458 2.104-4.465 0-1.943-1.025-3.382-2.105-4.402l-.561.483c.917 1.031 1.49 2.212 1.49 3.972 0 1.632-.53 2.867-1.49 3.93l.561.482zM92.184 27.267l.562-.483c-.918-1.03-1.491-2.212-1.491-3.972 0-1.632.53-2.867 1.491-3.93l-.562-.482c-1.102 1.041-2.107 2.458-2.107 4.465 0 1.943 1.027 3.382 2.107 4.402zm5.414-1.181l2.594-7.515h-1.21l-1.557 4.777c-.14.44-.356 1.117-.421 1.385-.065-.268-.28-.934-.421-1.374l-1.578-4.788h-1.232l2.626 7.515h1.2zm6.106.118c.865 0 1.459-.268 1.956-.74l-.66-.71c-.377.28-.756.452-1.231.452-.692 0-1.308-.462-1.426-1.546h3.75c.01-.118.032-.3.032-.505 0-1.524-.778-2.823-2.388-2.823-1.47 0-2.486 1.03-2.486 2.941 0 1.868 1.124 2.931 2.453 2.931zm1.297-3.457h-2.637c.097-.901.551-1.417 1.297-1.417.918 0 1.286.644 1.34 1.417zm3.62 3.339V22.79c0-.912.422-1.438 1.167-1.438.735 0 1.167.408 1.167 1.546v3.188h1.113v-3.231c0-1.664-.702-2.523-2.02-2.523-.584 0-1.146.247-1.427.655V18.26l-1.113.58v7.246h1.113zm5.663-6.366c.389 0 .713-.322.713-.708 0-.398-.324-.72-.713-.72-.4 0-.724.322-.724.72 0 .386.324.708.724.708zm.551 6.366V20.45h-1.113v5.636h1.113zm3.88.118c1.026 0 1.588-.494 2.031-1.052l-.713-.698c-.443.462-.757.698-1.286.698-.886 0-1.362-.794-1.362-1.9 0-1.149.519-1.868 1.33-1.868.507 0 .918.215 1.383.687l.659-.784c-.53-.622-1.178-.955-2.01-.955-1.383 0-2.486 1.084-2.486 2.952 0 1.76 1.07 2.92 2.454 2.92zm4.625-.118V18.26l-1.113.58v7.246h1.113zm3.88.118c.864 0 1.458-.268 1.955-.74l-.659-.71c-.378.28-.756.452-1.232.452-.691 0-1.307-.462-1.426-1.546h3.75c.01-.118.032-.3.032-.505 0-1.524-.778-2.823-2.388-2.823-1.47 0-2.486 1.03-2.486 2.941 0 1.868 1.124 2.931 2.453 2.931zm1.296-3.457h-2.637c.098-.901.551-1.417 1.297-1.417.919 0 1.286.644 1.34 1.417zM92.498 38.834c1.977 0 3.685-1.106 3.685-3.758 0-2.651-1.654-3.757-3.685-3.757h-2.064v7.515h2.064zm0-1.095h-.93v-5.325h.93c1.794 0 2.528 1.084 2.528 2.662 0 1.578-.734 2.663-2.528 2.663zm7.294 1.213c.865 0 1.459-.269 1.956-.741l-.66-.709c-.377.28-.756.451-1.231.451-.692 0-1.308-.461-1.426-1.545h3.75c.01-.119.032-.301.032-.505 0-1.524-.778-2.823-2.388-2.823-1.47 0-2.486 1.03-2.486 2.941 0 1.868 1.124 2.93 2.453 2.93zm1.297-3.457h-2.637c.097-.902.551-1.417 1.297-1.417.918 0 1.286.644 1.34 1.417zm4.344 3.457c1.113 0 2.13-.419 2.13-1.664 0-1.063-.65-1.406-1.914-1.89-.853-.332-1.048-.536-1.048-.815 0-.301.238-.516.778-.516s1.005.161 1.47.483l.486-.848c-.508-.365-1.21-.622-1.923-.622-1.135 0-1.935.526-1.935 1.535 0 .89.443 1.299 1.664 1.771.822.311 1.319.515 1.319.945 0 .397-.335.622-1.038.622-.53 0-1.123-.193-1.653-.558l-.508.837c.573.42 1.405.72 2.172.72zm5.177 0c.443 0 .82-.108 1.091-.258l.13-.977c-.206.118-.53.226-.822.226-.41 0-.583-.15-.583-.677v-3.06h1.405v-1.008h-1.405v-2.19l-1.092.58v1.61h-.81v1.009h.81v3.253c0 1.009.487 1.492 1.276 1.492zm3.847-.118v-3.22c0-.956.41-1.45 1.113-1.45.367 0 .616.075.854.204l.291-1.052c-.227-.15-.508-.236-.961-.236-.562 0-1.038.279-1.297.655v-.537h-1.113v5.636h1.113zm4.02-6.366c.389 0 .713-.322.713-.709 0-.397-.324-.719-.713-.719-.4 0-.724.322-.724.72 0 .386.324.708.724.708zm.55 6.366v-5.636h-1.112v5.636h1.113zm1.698 2.071l1.102-.569v-2.028c.313.343.854.644 1.426.644 1.178 0 2.237-.913 2.237-2.845 0-2.147-.961-3.027-2.183-3.027-.594 0-1.07.279-1.48.655v-.537h-1.102v7.707zm2.42-2.973c-.562 0-1.08-.408-1.329-.74v-2.373c.292-.365.757-.72 1.286-.72.821 0 1.275.623 1.275 2.04 0 1.192-.432 1.793-1.232 1.793zm5.36 1.02c.443 0 .822-.108 1.092-.258l.13-.977c-.206.118-.53.226-.822.226-.41 0-.583-.15-.583-.677v-3.06h1.404v-1.008h-1.404v-2.19l-1.092.58v1.61h-.81v1.009h.81v3.253c0 1.009.486 1.492 1.275 1.492zm4.96 0c1.46 0 2.562-1.095 2.562-2.963 0-1.76-1.08-2.91-2.529-2.91-1.426 0-2.529 1.096-2.529 2.942 0 1.76 1.07 2.93 2.497 2.93zm.044-1.052c-.843 0-1.416-.677-1.416-1.911 0-1.117.519-1.857 1.362-1.857.897 0 1.448.74 1.448 1.89 0 1.03-.551 1.878-1.394 1.878zm5.003.934v-3.22c0-.956.41-1.45 1.113-1.45.368 0 .616.075.854.204l.292-1.052c-.227-.15-.508-.236-.962-.236-.562 0-1.037.279-1.297.655v-.537H137.4v5.636h1.113zM92.703 51.699c1.934 0 2.799-.923 2.799-2.275 0-1.342-.93-1.815-2.42-2.265-1.308-.387-1.654-.645-1.654-1.17 0-.505.378-.934 1.264-.934.746 0 1.286.236 1.762.719l.8-.805c-.67-.644-1.449-1.02-2.475-1.02-1.394 0-2.497.794-2.497 2.093 0 1.342.768 1.74 2.367 2.212 1.264.375 1.707.665 1.707 1.245 0 .73-.508 1.095-1.567 1.095-.713 0-1.458-.344-1.966-.891l-.81.783c.637.741 1.588 1.213 2.69 1.213zm6.516 0c.865 0 1.46-.268 1.956-.74l-.659-.709c-.378.28-.756.451-1.232.451-.691 0-1.307-.462-1.426-1.546h3.75c.01-.118.032-.3.032-.504 0-1.525-.778-2.824-2.388-2.824-1.47 0-2.486 1.031-2.486 2.942 0 1.868 1.124 2.93 2.453 2.93zm1.297-3.456H97.88c.098-.902.552-1.417 1.297-1.417.919 0 1.286.644 1.34 1.417zm4.69 3.456c1.027 0 1.589-.493 2.032-1.052l-.713-.697c-.443.461-.757.697-1.286.697-.886 0-1.362-.794-1.362-1.9 0-1.148.519-1.868 1.33-1.868.507 0 .918.215 1.383.687l.659-.783c-.53-.623-1.178-.956-2.01-.956-1.384 0-2.486 1.085-2.486 2.953 0 1.76 1.07 2.92 2.453 2.92zm5.08 0c.442 0 .82-.107 1.09-.257l.13-.977c-.205.118-.529.225-.82.225-.411 0-.584-.15-.584-.676v-3.06h1.405v-1.009h-1.405v-2.19l-1.092.58v1.61h-.81v1.01h.81v3.252c0 1.01.486 1.492 1.275 1.492zm3.35-6.483c.388 0 .713-.323.713-.709 0-.397-.325-.72-.714-.72-.4 0-.724.323-.724.72 0 .386.325.709.724.709zm.55 6.365v-5.636h-1.113v5.636h1.114zm3.923.118c1.46 0 2.562-1.095 2.562-2.962 0-1.76-1.081-2.91-2.53-2.91-1.426 0-2.528 1.095-2.528 2.942 0 1.76 1.07 2.93 2.496 2.93zm.044-1.052c-.843 0-1.416-.676-1.416-1.91 0-1.117.519-1.858 1.362-1.858.897 0 1.448.741 1.448 1.89 0 1.03-.551 1.878-1.394 1.878zm5.003.934v-3.295c0-.913.422-1.439 1.167-1.439.735 0 1.167.408 1.167 1.546v3.188h1.113v-3.23c0-1.665-.702-2.524-2.02-2.524-.584 0-1.146.247-1.427.655v-.537h-1.113v5.636h1.113zm5.306 1.17c1.102-1.04 2.107-2.458 2.107-4.465 0-1.943-1.026-3.382-2.107-4.402l-.562.483c.919 1.031 1.491 2.212 1.491 3.972 0 1.632-.529 2.867-1.49 3.93l.561.482zM218.07 27.267l.562-.483c-.92-1.03-1.493-2.212-1.493-3.972 0-1.632.53-2.867 1.493-3.93l-.562-.482c-1.105 1.041-2.111 2.458-2.111 4.465 0 1.943 1.028 3.382 2.11 4.402zm5.423-1.181l2.598-7.515h-1.213l-1.559 4.777c-.14.44-.357 1.117-.422 1.385-.065-.268-.281-.934-.422-1.374l-1.58-4.788h-1.234l2.63 7.515h1.202zm6.116.118c.866 0 1.46-.268 1.959-.74l-.66-.71c-.38.28-.758.452-1.234.452-.693 0-1.31-.462-1.43-1.546h3.757c.01-.118.032-.3.032-.505 0-1.524-.779-2.823-2.392-2.823-1.472 0-2.49 1.03-2.49 2.941 0 1.868 1.126 2.931 2.458 2.931zm1.299-3.457h-2.642c.098-.901.552-1.417 1.3-1.417.92 0 1.287.644 1.342 1.417zm4.697 3.457c1.029 0 1.592-.494 2.036-1.052l-.715-.698c-.444.462-.758.698-1.288.698-.888 0-1.364-.794-1.364-1.9 0-1.149.52-1.868 1.331-1.868.51 0 .92.215 1.386.687l.66-.784c-.53-.622-1.18-.955-2.013-.955-1.386 0-2.49 1.084-2.49 2.952 0 1.76 1.072 2.92 2.457 2.92zm4.58-.118V22.79c0-.912.421-1.438 1.168-1.438.736 0 1.17.408 1.17 1.546v3.188h1.114v-3.231c0-1.664-.703-2.523-2.024-2.523-.584 0-1.147.247-1.429.655V18.26l-1.115.58v7.246h1.115zm5.671-6.366c.39 0 .715-.322.715-.708 0-.398-.325-.72-.715-.72-.4 0-.725.322-.725.72 0 .386.325.708.725.708zm.552 6.366V20.45h-1.114v5.636h1.114zm3.887.118c1.028 0 1.59-.494 2.035-1.052l-.715-.698c-.444.462-.758.698-1.288.698-.888 0-1.364-.794-1.364-1.9 0-1.149.52-1.868 1.332-1.868.508 0 .92.215 1.385.687l.66-.784c-.53-.622-1.18-.955-2.013-.955-1.386 0-2.49 1.084-2.49 2.952 0 1.76 1.072 2.92 2.458 2.92zm4.632-.118V18.26l-1.114.58v7.246h1.114zm3.887.118c.865 0 1.46-.268 1.959-.74l-.66-.71c-.38.28-.758.452-1.235.452-.692 0-1.31-.462-1.428-1.546h3.756c.01-.118.032-.3.032-.505 0-1.524-.78-2.823-2.392-2.823-1.472 0-2.49 1.03-2.49 2.941 0 1.868 1.126 2.931 2.458 2.931zm1.298-3.457h-2.64c.097-.901.551-1.417 1.298-1.417.92 0 1.288.644 1.342 1.417zm-42.605 16.087v-7.515h-1.137v7.515h1.137zm3.8.118c.594 0 1.07-.28 1.482-.655v.537h1.104v-7.826l-1.104.569v2.147c-.314-.344-.855-.644-1.429-.644-1.18 0-2.24.912-2.24 2.844 0 2.147.963 3.028 2.186 3.028zm.205-1.02c-.823 0-1.278-.623-1.278-2.04 0-1.191.433-1.792 1.234-1.792.563 0 1.083.407 1.332.74v2.373c-.292.365-.758.719-1.288.719zm6.213 1.02c.866 0 1.461-.269 1.96-.741l-.66-.709c-.38.28-.759.451-1.235.451-.693 0-1.31-.461-1.429-1.545h3.756c.011-.119.033-.301.033-.505 0-1.524-.78-2.823-2.392-2.823-1.473 0-2.49 1.03-2.49 2.941 0 1.868 1.126 2.93 2.457 2.93zm1.3-3.457h-2.642c.097-.902.552-1.417 1.299-1.417.92 0 1.288.644 1.342 1.417zm3.625 3.339v-3.296c0-.912.422-1.438 1.17-1.438.735 0 1.168.407 1.168 1.545v3.189h1.115v-3.232c0-1.664-.703-2.522-2.024-2.522-.584 0-1.147.247-1.429.655v-.537h-1.115v5.636h1.115zm6.68.118c.443 0 .822-.108 1.092-.258l.13-.977c-.205.118-.53.226-.822.226-.412 0-.585-.15-.585-.677v-3.06h1.407v-1.008h-1.407v-2.19l-1.093.58v1.61h-.812v1.009h.812v3.253c0 1.009.487 1.492 1.277 1.492zm3.355-6.484c.39 0 .714-.322.714-.709 0-.397-.325-.719-.714-.719-.4 0-.725.322-.725.72 0 .386.324.708.725.708zm.552 6.366v-5.636h-1.115v5.636h1.115zm3.193 0v-4.606h1.05v-1.03h-1.05v-.644c0-.408.152-.548.52-.548.195 0 .39.032.65.108v-.967c-.239-.064-.553-.107-.845-.107-.801 0-1.44.387-1.44 1.417v.74h-.736v1.031h.736v4.606h1.115zm3.042-6.366c.39 0 .714-.322.714-.709 0-.397-.324-.719-.714-.719-.4 0-.725.322-.725.72 0 .386.324.708.725.708zm.552 6.366v-5.636h-1.115v5.636h1.115zm3.886.118c.866 0 1.461-.269 1.96-.741l-.661-.709c-.379.28-.758.451-1.234.451-.693 0-1.31-.461-1.429-1.545h3.756c.011-.119.033-.301.033-.505 0-1.524-.78-2.823-2.393-2.823-1.472 0-2.49 1.03-2.49 2.941 0 1.868 1.127 2.93 2.458 2.93zm1.299-3.457h-2.641c.097-.902.552-1.417 1.299-1.417.92 0 1.288.644 1.342 1.417zm3.626 3.339v-3.22c0-.956.412-1.45 1.115-1.45.368 0 .617.075.855.204l.293-1.052c-.228-.15-.51-.236-.964-.236-.563 0-1.039.279-1.299.655v-.537h-1.115v5.636h1.115zM218.59 51.699c1.938 0 2.804-.923 2.804-2.275 0-1.342-.931-1.815-2.425-2.265-1.31-.387-1.656-.645-1.656-1.17 0-.505.379-.934 1.266-.934.747 0 1.288.236 1.765.719l.8-.805c-.67-.644-1.45-1.02-2.478-1.02-1.396 0-2.5.794-2.5 2.093 0 1.342.768 1.74 2.37 2.212 1.266.375 1.71.665 1.71 1.245 0 .73-.508 1.095-1.57 1.095-.714 0-1.46-.344-1.97-.891l-.811.783c.638.741 1.591 1.213 2.695 1.213zm6.527 0c.866 0 1.462-.268 1.96-.74l-.66-.709c-.38.28-.758.451-1.235.451-.692 0-1.31-.462-1.429-1.546h3.757c.01-.118.032-.3.032-.504 0-1.525-.78-2.824-2.392-2.824-1.472 0-2.49 1.031-2.49 2.942 0 1.868 1.126 2.93 2.457 2.93zm1.3-3.456h-2.642c.098-.902.552-1.417 1.3-1.417.92 0 1.287.644 1.341 1.417zm4.697 3.456c1.029 0 1.591-.493 2.035-1.052l-.714-.697c-.444.461-.758.697-1.288.697-.888 0-1.364-.794-1.364-1.9 0-1.148.52-1.868 1.331-1.868.509 0 .92.215 1.386.687l.66-.783c-.53-.623-1.18-.956-2.013-.956-1.386 0-2.49 1.085-2.49 2.953 0 1.76 1.072 2.92 2.457 2.92zm5.088 0c.444 0 .822-.107 1.093-.257l.13-.977c-.206.118-.53.225-.823.225-.411 0-.584-.15-.584-.676v-3.06h1.407v-1.009h-1.407v-2.19l-1.093.58v1.61h-.812v1.01h.812v3.252c0 1.01.487 1.492 1.277 1.492zm3.355-6.483c.39 0 .715-.323.715-.709 0-.397-.325-.72-.715-.72-.4 0-.725.323-.725.72 0 .386.325.709.725.709zm.553 6.365v-5.636h-1.115v5.636h1.115zm3.929.118c1.461 0 2.565-1.095 2.565-2.962 0-1.76-1.082-2.91-2.533-2.91-1.429 0-2.533 1.095-2.533 2.942 0 1.76 1.072 2.93 2.5 2.93zm.043-1.052c-.844 0-1.418-.676-1.418-1.91 0-1.117.52-1.858 1.364-1.858.898 0 1.45.741 1.45 1.89 0 1.03-.552 1.878-1.396 1.878zm5.012.934v-3.295c0-.913.422-1.439 1.169-1.439.736 0 1.17.408 1.17 1.546v3.188h1.114v-3.23c0-1.665-.704-2.524-2.024-2.524-.585 0-1.148.247-1.429.655v-.537h-1.115v5.636h1.115zm5.315 1.17c1.104-1.04 2.11-2.458 2.11-4.465 0-1.943-1.028-3.382-2.11-4.402l-.563.483c.92 1.031 1.494 2.212 1.494 3.972 0 1.632-.53 2.867-1.494 3.93l.563.482zM54.35 258.292l2.435-7.09h-1.137l-1.46 4.507c-.132.415-.335 1.053-.396 1.306-.06-.253-.264-.881-.396-1.296l-1.48-4.518h-1.157l2.465 7.09h1.126zm5.732.11c.811 0 1.37-.252 1.836-.698l-.619-.668c-.355.263-.71.425-1.156.425-.65 0-1.228-.436-1.34-1.459h3.52c.01-.111.031-.283.031-.476 0-1.438-.73-2.664-2.242-2.664-1.38 0-2.333.973-2.333 2.776 0 1.762 1.055 2.765 2.303 2.765zm1.217-3.26h-2.475c.091-.851.517-1.338 1.217-1.338.862 0 1.207.608 1.258 1.337zm3.399 3.15v-3.11c0-.861.395-1.357 1.095-1.357.69 0 1.096.385 1.096 1.458v3.009h1.045v-3.05c0-1.57-.66-2.38-1.897-2.38-.548 0-1.076.233-1.34.618v-2.572l-1.044.546v6.838h1.045zm5.315-6.007c.366 0 .67-.304.67-.668 0-.375-.304-.68-.67-.68-.375 0-.68.305-.68.68 0 .364.305.668.68.668zm.518 6.007v-5.318h-1.045v5.318h1.045zm3.642.11c.964 0 1.491-.465 1.907-.992l-.67-.658c-.416.435-.71.658-1.207.658-.832 0-1.278-.75-1.278-1.793 0-1.083.487-1.762 1.248-1.762.477 0 .862.203 1.298.648l.62-.74c-.498-.587-1.107-.9-1.888-.9-1.298 0-2.333 1.022-2.333 2.785 0 1.661 1.004 2.755 2.303 2.755zm4.342-.11v-7.384l-1.045.546v6.838h1.045zm3.642.11c.811 0 1.37-.252 1.836-.698l-.619-.668c-.355.263-.71.425-1.156.425-.65 0-1.228-.436-1.34-1.459h3.52c.01-.111.031-.283.031-.476 0-1.438-.73-2.664-2.242-2.664-1.38 0-2.333.973-2.333 2.776 0 1.762 1.055 2.765 2.303 2.765zm1.217-3.26h-2.475c.091-.851.517-1.338 1.217-1.338.862 0 1.207.608 1.258 1.337zm6.614 3.26c.416 0 .771-.1 1.025-.242l.122-.922c-.193.112-.497.213-.771.213-.386 0-.548-.142-.548-.638v-2.887h1.319v-.952h-1.32v-2.066l-1.024.546v1.52h-.76v.952h.76v3.069c0 .952.457 1.408 1.197 1.408zm4.423 1.763l2.679-7.191h-1.106l-.903 2.623c-.162.456-.385 1.216-.477 1.53-.06-.294-.314-1.084-.466-1.55l-.873-2.603H92.12l1.958 5.216-.771 1.975h1.105zm3.784.081l1.035-.536v-1.915c.294.324.802.608 1.34.608 1.105 0 2.1-.861 2.1-2.684 0-2.026-.904-2.857-2.05-2.857-.558 0-1.004.264-1.39.618v-.506h-1.035v7.272zm2.273-2.805c-.528 0-1.015-.385-1.248-.7v-2.238c.274-.344.71-.678 1.207-.678.771 0 1.197.587 1.197 1.924 0 1.124-.405 1.692-1.156 1.692zm5.56.962c.81 0 1.369-.253 1.835-.699l-.618-.668c-.355.263-.71.425-1.157.425-.65 0-1.227-.436-1.339-1.459h3.52c.01-.111.03-.283.03-.476 0-1.438-.73-2.664-2.241-2.664-1.38 0-2.334.973-2.334 2.776 0 1.762 1.055 2.765 2.303 2.765zm1.217-3.262h-2.476c.092-.85.518-1.337 1.218-1.337.862 0 1.207.608 1.258 1.337zm2.86 4.427l.761-2.684h-1.329l-.152 2.684h.72zm-57.196 10.99c.548 0 1.076-.233 1.34-.618v.506h1.044v-5.317H54.25v3.11c0 .86-.396 1.356-1.096 1.356-.69 0-1.096-.385-1.096-1.458v-3.008h-1.045v3.048c0 1.57.66 2.38 1.897 2.38zm4.971-.112v-3.11c0-.86.396-1.357 1.096-1.357.69 0 1.096.385 1.096 1.459v3.008h1.044v-3.049c0-1.57-.659-2.38-1.897-2.38-.547 0-1.075.233-1.339.618v-.506h-1.045v5.317h1.045zm5.316-6.006c.365 0 .67-.304.67-.669 0-.375-.305-.678-.67-.678-.375 0-.68.303-.68.678 0 .365.305.669.68.669zm.518 6.006v-5.317h-1.045v5.317h1.045zm4.798 1.955l1.035-.537v-6.735h-1.035v.496c-.294-.324-.801-.608-1.34-.608-1.105 0-2.1.861-2.1 2.684 0 2.026.904 2.857 2.05 2.857.558 0 1.005-.264 1.39-.618v2.461zm-1.197-2.806c-.771 0-1.197-.587-1.197-1.924 0-1.124.406-1.692 1.156-1.692.528 0 1.015.385 1.248.7v2.238c-.274.344-.71.678-1.207.678zm5.63.963c.548 0 1.076-.233 1.34-.618v.506h1.044v-5.317h-1.045v3.11c0 .86-.395 1.356-1.095 1.356-.69 0-1.096-.385-1.096-1.458v-3.008h-1.045v3.048c0 1.57.66 2.38 1.897 2.38zm5.975 0c.812 0 1.37-.254 1.837-.7l-.62-.668c-.354.264-.71.426-1.156.426-.649 0-1.227-.436-1.339-1.459h3.52c.01-.111.03-.284.03-.476 0-1.438-.73-2.664-2.241-2.664-1.38 0-2.333.972-2.333 2.775 0 1.763 1.055 2.766 2.302 2.766zm1.218-3.262h-2.475c.09-.85.517-1.337 1.217-1.337.862 0 1.207.608 1.258 1.337zm6.492 3.15v-4.345h.985v-.972h-.985v-.608c0-.385.143-.517.487-.517.183 0 .366.03.61.102v-.912c-.224-.06-.518-.101-.792-.101-.75 0-1.35.364-1.35 1.337v.699h-.69v.972h.69v4.345h1.045zm4.363.112c1.37 0 2.404-1.034 2.404-2.796 0-1.661-1.014-2.745-2.374-2.745-1.339 0-2.374 1.033-2.374 2.775 0 1.662 1.005 2.766 2.344 2.766zm.04-.993c-.791 0-1.329-.638-1.329-1.803 0-1.053.487-1.752 1.279-1.752.842 0 1.359.699 1.359 1.782 0 .973-.517 1.773-1.309 1.773zm4.697.881v-3.038c0-.902.386-1.368 1.045-1.368.345 0 .578.071.802.193l.274-.993c-.213-.142-.477-.223-.903-.223-.528 0-.974.263-1.218.618v-.506h-1.045v5.317h1.045zm-42.628 12.266c.812 0 1.37-.253 1.836-.699l-.618-.668c-.356.263-.71.425-1.157.425-.65 0-1.227-.435-1.34-1.458h3.521c.01-.112.03-.284.03-.476 0-1.439-.73-2.664-2.241-2.664-1.38 0-2.334.972-2.334 2.775 0 1.763 1.055 2.765 2.303 2.765zm1.218-3.261h-2.476c.092-.851.518-1.337 1.218-1.337.862 0 1.207.608 1.258 1.337zm4.869 3.15l1.877-5.318H59.96l-.913 2.887c-.162.517-.304 1.013-.365 1.307-.071-.294-.223-.79-.396-1.307l-.953-2.887h-1.096l1.907 5.318h1.045zm5.032.111c.811 0 1.37-.253 1.836-.699l-.619-.668c-.355.263-.71.425-1.156.425-.65 0-1.228-.435-1.34-1.458h3.52c.01-.112.031-.284.031-.476 0-1.439-.73-2.664-2.242-2.664-1.38 0-2.333.972-2.333 2.775 0 1.763 1.055 2.765 2.303 2.765zm1.217-3.261h-2.475c.091-.851.517-1.337 1.217-1.337.863 0 1.207.608 1.258 1.337zm3.399 3.15v-3.039c0-.901.385-1.367 1.045-1.367.344 0 .578.07.801.192l.274-.992c-.213-.142-.477-.223-.903-.223-.528 0-.974.263-1.217.618v-.507h-1.045v5.318h1.045zm5.052 1.874l2.678-7.192H75.46l-.903 2.624c-.162.455-.385 1.215-.477 1.53-.06-.295-.314-1.085-.466-1.55l-.873-2.604h-1.146l1.958 5.217-.771 1.975h1.106zm-21.791 10.28v-3.109c0-.86.324-1.357 1.024-1.357.69 0 1.025.385 1.025 1.458v3.009h1.045v-3.11c0-.86.325-1.357 1.025-1.357.69 0 1.024.385 1.024 1.458v3.009h1.045v-3.05c0-1.57-.588-2.38-1.826-2.38-.832 0-1.248.304-1.633.78-.284-.506-.74-.78-1.461-.78-.548 0-1.004.233-1.268.618v-.506h-1.045v5.318h1.045zm9.282.112c.579 0 1.096-.273 1.461-.638v.527h1.025v-3.647c0-1.205-.812-1.782-1.999-1.782-.75 0-1.319.162-1.826.476l.406.79c.416-.233.842-.335 1.39-.335.649 0 1.004.325 1.004.902v.395c-.294-.132-.69-.203-1.187-.203-1.207 0-2.12.537-2.12 1.722 0 1.307.984 1.793 1.846 1.793zm.173-.942c-.69 0-1.025-.354-1.025-.881 0-.486.426-.79 1.096-.79.568 0 .933.09 1.217.233v.76c-.243.334-.73.678-1.288.678zm4.859.83v-3.109c0-.86.396-1.357 1.096-1.357.69 0 1.095.385 1.095 1.458v3.009h1.045v-3.05c0-1.57-.66-2.38-1.897-2.38-.548 0-1.075.233-1.339.618v-.506h-1.045v5.318h1.045zm6.594.112c.548 0 1.075-.233 1.34-.618v.507h1.044v-5.318h-1.045v3.11c0 .86-.395 1.357-1.095 1.357-.69 0-1.096-.385-1.096-1.459v-3.008h-1.045v3.049c0 1.57.66 2.38 1.897 2.38zm5.326-.111v-4.346h.984v-.972h-.984v-.608c0-.385.142-.516.487-.516.183 0 .365.03.609.1v-.91c-.223-.061-.518-.102-.792-.102-.75 0-1.349.365-1.349 1.337v.699h-.69v.972h.69v4.346h1.045zm3.865.111c.578 0 1.096-.273 1.461-.638v.527h1.025v-3.647c0-1.205-.812-1.782-1.999-1.782-.75 0-1.319.162-1.826.476l.406.79c.416-.233.842-.335 1.39-.335.649 0 1.004.325 1.004.902v.395c-.294-.132-.69-.203-1.187-.203-1.207 0-2.12.537-2.12 1.722 0 1.307.984 1.793 1.846 1.793zm.173-.942c-.69 0-1.025-.354-1.025-.881 0-.486.426-.79 1.096-.79.568 0 .933.09 1.217.233v.76c-.243.334-.73.678-1.288.678zm5.863.942c.964 0 1.492-.466 1.908-.993l-.67-.658c-.416.436-.71.658-1.207.658-.832 0-1.278-.75-1.278-1.792 0-1.084.487-1.763 1.247-1.763.477 0 .863.203 1.299.648l.619-.739c-.497-.587-1.106-.901-1.887-.901-1.299 0-2.333 1.023-2.333 2.785 0 1.661 1.004 2.755 2.302 2.755zm4.768 0c.416 0 .771-.101 1.025-.243l.122-.922c-.193.112-.497.213-.771.213-.386 0-.548-.142-.548-.638v-2.887h1.319v-.952h-1.32v-2.066l-1.024.547v1.519h-.76v.952h.76v3.07c0 .951.457 1.407 1.197 1.407zm4.423 0c.548 0 1.076-.233 1.34-.618v.507h1.044v-5.318h-1.044v3.11c0 .86-.396 1.357-1.096 1.357-.69 0-1.096-.385-1.096-1.459v-3.008h-1.045v3.049c0 1.57.66 2.38 1.897 2.38zm4.971-.111v-3.039c0-.902.386-1.367 1.045-1.367.345 0 .579.07.802.192l.274-.993c-.213-.141-.477-.222-.903-.222-.528 0-.974.263-1.218.617v-.506h-1.045v5.318h1.045zm5.245.111c.812 0 1.37-.253 1.836-.699l-.618-.668c-.355.263-.71.425-1.157.425-.65 0-1.227-.435-1.339-1.459h3.52c.01-.11.03-.283.03-.476 0-1.438-.73-2.663-2.241-2.663-1.38 0-2.334.972-2.334 2.775 0 1.762 1.055 2.765 2.303 2.765zm1.218-3.261h-2.476c.092-.851.518-1.337 1.218-1.337.862 0 1.207.607 1.258 1.337zm3.398 3.15v-3.039c0-.902.386-1.367 1.045-1.367.345 0 .578.07.801.192l.274-.993c-.213-.141-.476-.222-.903-.222-.527 0-.973.263-1.217.617v-.506h-1.045v5.318h1.045zM106.755 193.397c1.86 0 3.465-1.048 3.465-3.56s-1.555-3.56-3.465-3.56h-1.941v7.12h1.94zm0-1.038h-.874v-5.044h.874c1.687 0 2.378 1.027 2.378 2.522 0 1.495-.691 2.522-2.378 2.522zm6.86 1.15c.812 0 1.371-.255 1.838-.702l-.62-.672c-.355.265-.71.428-1.158.428-.65 0-1.23-.438-1.341-1.465h3.526c.01-.112.03-.285.03-.478 0-1.444-.731-2.675-2.245-2.675-1.382 0-2.338.977-2.338 2.787 0 1.77 1.057 2.776 2.307 2.776zm1.219-3.275h-2.48c.092-.855.518-1.343 1.22-1.343.863 0 1.209.61 1.26 1.343zm3.404 3.163v-3.123c0-.864.396-1.362 1.097-1.362.691 0 1.098.386 1.098 1.464v3.02h1.047v-3.06c0-1.577-.661-2.39-1.9-2.39-.55 0-1.078.233-1.342.62v-.509h-1.047v5.34h1.047zm6.839.111c1.372 0 2.408-1.037 2.408-2.806 0-1.668-1.016-2.757-2.378-2.757-1.341 0-2.378 1.038-2.378 2.787 0 1.668 1.006 2.776 2.348 2.776zm.04-.996c-.792 0-1.33-.641-1.33-1.81 0-1.058.487-1.76 1.28-1.76.843 0 1.361.702 1.361 1.79 0 .976-.518 1.78-1.31 1.78zm5.183.996c.417 0 .772-.101 1.026-.244l.122-.925c-.193.112-.498.213-.772.213-.386 0-.549-.142-.549-.64v-2.899h1.321v-.956h-1.32v-2.074l-1.027.549v1.525h-.762v.956h.762v3.082c0 .956.457 1.413 1.199 1.413zm4.624 0c.813 0 1.372-.254 1.839-.701l-.62-.672c-.356.265-.711.428-1.158.428-.65 0-1.23-.438-1.342-1.465h3.526c.01-.112.031-.285.031-.478 0-1.444-.732-2.675-2.246-2.675-1.382 0-2.337.977-2.337 2.787 0 1.77 1.057 2.776 2.307 2.776zm1.22-3.274h-2.48c.091-.855.518-1.343 1.22-1.343.863 0 1.208.61 1.26 1.343zm4.084 3.274c1.047 0 2.002-.396 2.002-1.576 0-1.007-.61-1.332-1.799-1.79-.802-.315-.985-.508-.985-.773 0-.285.223-.488.731-.488.509 0 .945.153 1.382.458l.458-.804c-.478-.345-1.138-.59-1.81-.59-1.066 0-1.818.499-1.818 1.455 0 .844.417 1.23 1.565 1.678.772.295 1.24.488 1.24.895 0 .376-.315.59-.976.59-.498 0-1.057-.183-1.555-.53l-.477.794c.538.397 1.32.681 2.042.681zm7.611 0c.417 0 .773-.101 1.027-.244l.122-.925c-.193.112-.498.213-.773.213-.386 0-.548-.142-.548-.64v-2.899h1.32v-.956h-1.32v-2.074l-1.027.549v1.525h-.762v.956h.762v3.082c0 .956.458 1.413 1.2 1.413zm3.618-.111v-3.123c0-.864.396-1.362 1.098-1.362.69 0 1.097.386 1.097 1.464v3.02h1.047v-3.06c0-1.577-.66-2.39-1.9-2.39-.55 0-1.078.233-1.342.62v-2.583l-1.047.549v6.865h1.047zm6.798.111c.813 0 1.372-.254 1.84-.701l-.62-.672c-.356.265-.711.428-1.159.428-.65 0-1.23-.438-1.341-1.465h3.526c.01-.112.03-.285.03-.478 0-1.444-.73-2.675-2.245-2.675-1.382 0-2.337.977-2.337 2.787 0 1.77 1.057 2.776 2.306 2.776zm1.22-3.274h-2.48c.092-.855.519-1.343 1.22-1.343.864 0 1.21.61 1.26 1.343zM107.182 205.6l1.88-5.339h-1.108l-.915 2.899c-.162.518-.304 1.017-.365 1.312-.072-.295-.224-.794-.397-1.312l-.955-2.899h-1.097l1.91 5.34h1.047zm5.04.112c.813 0 1.372-.254 1.84-.701l-.62-.672c-.356.265-.712.428-1.159.428-.65 0-1.23-.438-1.341-1.465h3.526c.01-.112.03-.285.03-.478 0-1.444-.731-2.675-2.246-2.675-1.382 0-2.337.977-2.337 2.787 0 1.77 1.057 2.776 2.307 2.776zm1.22-3.274h-2.48c.091-.855.518-1.343 1.22-1.343.863 0 1.209.61 1.26 1.343zm3.404 3.162v-3.122c0-.864.396-1.362 1.097-1.362.691 0 1.098.386 1.098 1.464v3.02h1.046v-3.06c0-1.577-.66-2.39-1.9-2.39-.549 0-1.077.233-1.341.62v-2.583l-1.047.549v6.864h1.047zm5.325-6.03c.365 0 .67-.305.67-.672 0-.376-.305-.68-.67-.68-.376 0-.681.304-.681.68 0 .367.305.672.68.672zm.518 6.03v-5.339h-1.047v5.34h1.047zm3.648.112c.965 0 1.494-.467 1.91-.996l-.67-.661c-.417.437-.712.66-1.21.66-.833 0-1.28-.752-1.28-1.8 0-1.088.488-1.769 1.25-1.769.478 0 .864.203 1.3.65l.62-.742c-.497-.59-1.107-.905-1.89-.905-1.3 0-2.337 1.028-2.337 2.797 0 1.668 1.006 2.766 2.307 2.766zm4.35-.112v-7.413l-1.047.549v6.864h1.046zm3.647.112c.813 0 1.372-.254 1.84-.701l-.62-.672c-.356.265-.712.428-1.159.428-.65 0-1.23-.438-1.341-1.465h3.526c.01-.112.03-.285.03-.478 0-1.444-.731-2.675-2.245-2.675-1.382 0-2.337.977-2.337 2.787 0 1.77 1.056 2.776 2.306 2.776zm1.22-3.274h-2.48c.092-.855.518-1.343 1.22-1.343.863 0 1.209.61 1.26 1.343zm2.947-1.404l.772-2.552h-1.331l-.142 2.552h.7zm3.83 4.678c1.047 0 2.003-.396 2.003-1.576 0-1.007-.61-1.332-1.799-1.79-.803-.315-.986-.508-.986-.773 0-.285.224-.488.732-.488s.945.153 1.382.458l.457-.804c-.477-.346-1.138-.59-1.809-.59-1.067 0-1.819.499-1.819 1.455 0 .844.417 1.23 1.565 1.678.773.295 1.24.488 1.24.895 0 .376-.315.59-.975.59-.498 0-1.057-.184-1.555-.53l-.478.794c.539.397 1.321.681 2.043.681zm-35.292 12.204c1.108 0 2.104-.864 2.104-2.695 0-2.034-.904-2.868-2.053-2.868-.559 0-1.006.265-1.392.62v-2.583l-1.036.54v6.874h1.036v-.498c.295.325.803.61 1.341.61zm-.101-.966c-.529 0-1.016-.386-1.25-.702v-2.247c.274-.346.711-.682 1.21-.682.771 0 1.198.59 1.198 1.933 0 1.129-.406 1.698-1.158 1.698zm4.563.854v-3.05c0-.906.386-1.374 1.046-1.374.346 0 .58.072.803.194l.274-.997c-.213-.142-.477-.224-.904-.224-.528 0-.976.265-1.22.62v-.508h-1.046v5.34h1.047zm4.796.112c.58 0 1.097-.274 1.463-.64v.528h1.027v-3.66c0-1.211-.813-1.79-2.002-1.79-.752 0-1.321.162-1.83.477l.407.794c.417-.234.843-.336 1.392-.336.65 0 1.006.325 1.006.905v.397c-.294-.133-.69-.204-1.189-.204-1.209 0-2.124.54-2.124 1.73 0 1.311.986 1.8 1.85 1.8zm.173-.946c-.691 0-1.027-.356-1.027-.884 0-.488.427-.794 1.098-.794.569 0 .935.092 1.22.234v.763c-.245.336-.732.681-1.291.681zm4.867.834v-3.122c0-.864.397-1.363 1.098-1.363.69 0 1.097.387 1.097 1.465v3.02h1.047v-3.06c0-1.577-.66-2.39-1.9-2.39-.55 0-1.078.233-1.342.62v-.509h-1.046v5.34h1.046zm6.565.112c.559 0 1.006-.264 1.392-.62v.508h1.037v-7.414l-1.037.54v2.033c-.295-.325-.803-.61-1.341-.61-1.108 0-2.104.865-2.104 2.695 0 2.034.905 2.868 2.053 2.868zm.193-.966c-.772 0-1.2-.59-1.2-1.932 0-1.129.407-1.699 1.16-1.699.528 0 1.015.387 1.25.702v2.248c-.275.345-.712.681-1.21.681zm4.288 2.136l.762-2.695h-1.33l-.153 2.695h.721zm6.87-1.17c.813 0 1.372-.254 1.839-.701l-.62-.672c-.356.265-.711.427-1.158.427-.65 0-1.23-.437-1.342-1.464h3.526c.01-.112.03-.285.03-.478 0-1.444-.73-2.675-2.245-2.675-1.382 0-2.337.977-2.337 2.787 0 1.77 1.057 2.776 2.307 2.776zm1.22-3.274h-2.48c.091-.855.518-1.343 1.219-1.343.864 0 1.21.61 1.26 1.343zm3.403 3.162v-3.122c0-.864.397-1.363 1.098-1.363.69 0 1.097.387 1.097 1.465v3.02h1.047v-3.06c0-1.577-.66-2.39-1.9-2.39-.549 0-1.077.233-1.342.62v-.509h-1.046v5.34h1.046zm6.473 1.963c1.931-.06 2.52-.844 2.52-2.471v-4.83h-1.046v.497c-.285-.325-.793-.61-1.331-.61-1.098 0-2.104.865-2.104 2.695 0 2.034.915 2.868 2.053 2.868.559 0 .996-.264 1.382-.62v.091c0 1.109-.325 1.516-1.83 1.587l.356.793zm.285-2.817c-.772 0-1.2-.59-1.2-1.932 0-1.129.407-1.699 1.16-1.699.528 0 1.016.387 1.25.702v2.248c-.275.345-.712.681-1.21.681zm4.36-5.176c.365 0 .67-.305.67-.672 0-.376-.305-.681-.67-.681-.377 0-.681.305-.681.681 0 .367.304.672.68.672zm.518 6.03v-5.339h-1.047v5.34h1.047zm2.642 0v-3.122c0-.864.396-1.363 1.097-1.363.691 0 1.098.387 1.098 1.465v3.02h1.046v-3.06c0-1.577-.66-2.39-1.9-2.39-.549 0-1.077.233-1.341.62v-.509h-1.047v5.34h1.047zm6.798.112c.813 0 1.372-.254 1.84-.701l-.62-.672c-.356.265-.712.427-1.159.427-.65 0-1.23-.437-1.341-1.464h3.526c.01-.112.03-.285.03-.478 0-1.444-.731-2.675-2.245-2.675-1.382 0-2.338.977-2.338 2.787 0 1.77 1.057 2.776 2.307 2.776zm1.22-3.274h-2.48c.092-.855.518-1.343 1.22-1.343.863 0 1.209.61 1.26 1.343zm-59.783 15.478c1.047 0 2.002-.396 2.002-1.576 0-1.007-.61-1.332-1.799-1.79-.802-.315-.985-.509-.985-.773 0-.285.223-.488.731-.488s.945.152 1.382.457l.458-.803c-.478-.346-1.139-.59-1.81-.59-1.066 0-1.818.499-1.818 1.455 0 .844.416 1.23 1.565 1.678.772.294 1.24.488 1.24.895 0 .376-.316.59-.976.59-.498 0-1.057-.184-1.555-.53l-.477.794c.538.396 1.32.681 2.042.681zm3.923-6.142c.365 0 .67-.306.67-.672 0-.376-.305-.681-.67-.681-.376 0-.681.305-.681.681 0 .366.305.672.68.672zm.518 6.03v-5.339h-1.047v5.34h1.047zm5.528 0v-.915h-1.9c-.265 0-.783-.01-.976 0 .142-.163.427-.508.64-.783l2.236-2.797v-.844h-3.912v.915h1.768c.264 0 .762.01.955 0-.142.163-.427.509-.64.773l-2.287 2.797v.854h4.116zm3.475.112c.813 0 1.372-.254 1.84-.702l-.62-.67c-.356.264-.712.426-1.159.426-.65 0-1.23-.437-1.341-1.464h3.526c.01-.112.03-.285.03-.478 0-1.444-.731-2.675-2.245-2.675-1.382 0-2.337.977-2.337 2.787 0 1.77 1.056 2.776 2.306 2.776zm1.22-3.275h-2.48c.092-.854.518-1.342 1.22-1.342.863 0 1.209.61 1.26 1.342zm2.865 4.445l.763-2.695h-1.332l-.152 2.695h.721zm6.413-1.17c.579 0 1.097-.274 1.463-.64v.528h1.026v-3.66c0-1.211-.813-1.79-2.002-1.79-.752 0-1.32.162-1.829.477l.407.793c.416-.233.843-.335 1.392-.335.65 0 1.006.325 1.006.905v.397c-.295-.133-.691-.204-1.19-.204-1.208 0-2.123.54-2.123 1.73 0 1.311.986 1.8 1.85 1.8zm.172-.946c-.69 0-1.026-.356-1.026-.884 0-.489.427-.794 1.097-.794.57 0 .935.092 1.22.234v.763c-.244.336-.732.681-1.29.681zm4.868.834v-3.122c0-.864.396-1.363 1.097-1.363.691 0 1.098.387 1.098 1.465v3.02h1.046v-3.06c0-1.577-.66-2.39-1.9-2.39-.549 0-1.077.233-1.341.62v-.509h-1.047v5.34h1.047zm6.564.112c.56 0 1.006-.264 1.393-.62v.508h1.036v-7.414l-1.036.54v2.033c-.295-.325-.803-.61-1.342-.61-1.107 0-2.103.865-2.103 2.695 0 2.034.904 2.868 2.052 2.868zm.193-.966c-.772 0-1.199-.59-1.199-1.932 0-1.13.407-1.699 1.159-1.699.528 0 1.016.387 1.25.702v2.248c-.275.345-.712.681-1.21.681zm8.049.966c.416 0 .772-.102 1.026-.244l.122-.925c-.193.111-.498.213-.772.213-.386 0-.549-.142-.549-.64v-2.899h1.321v-.956h-1.321v-2.075l-1.026.55v1.525h-.763v.956h.763v3.082c0 .956.457 1.413 1.199 1.413zm4.43 1.77l2.683-7.22h-1.108l-.904 2.633c-.163.458-.386 1.22-.478 1.536-.06-.295-.315-1.088-.467-1.556l-.874-2.614h-1.148l1.961 5.238-.772 1.983h1.107zm3.79.081l1.037-.539v-1.922c.295.325.803.61 1.342.61 1.107 0 2.103-.864 2.103-2.695 0-2.034-.904-2.868-2.053-2.868-.558 0-1.006.265-1.392.62v-.508h-1.036v7.302zm2.277-2.817c-.528 0-1.016-.386-1.25-.702v-2.247c.274-.346.711-.682 1.21-.682.772 0 1.198.59 1.198 1.933 0 1.129-.406 1.698-1.158 1.698zm5.569.966c.813 0 1.372-.254 1.839-.702l-.62-.67c-.356.264-.711.426-1.158.426-.65 0-1.23-.437-1.342-1.464h3.526c.01-.112.031-.285.031-.478 0-1.444-.732-2.675-2.246-2.675-1.382 0-2.337.977-2.337 2.787 0 1.77 1.057 2.776 2.307 2.776zm1.22-3.275h-2.48c.091-.854.518-1.342 1.22-1.342.863 0 1.208.61 1.26 1.342zM350.264 141.287c1.851 0 3.45-1.043 3.45-3.543s-1.548-3.543-3.45-3.543h-1.932v7.086h1.932zm0-1.032h-.87v-5.021h.87c1.68 0 2.367 1.022 2.367 2.51 0 1.488-.688 2.51-2.367 2.51zm5.361-4.97c.364 0 .668-.304.668-.669 0-.374-.304-.678-.668-.678-.374 0-.678.304-.678.678 0 .365.304.668.678.668zm.516 6.002v-5.314H355.1v5.314h1.042zm3.308.112c1.042 0 1.993-.395 1.993-1.57 0-1.002-.607-1.326-1.79-1.781-.8-.314-.982-.506-.982-.77 0-.283.223-.485.728-.485.506 0 .941.151 1.376.455l.455-.8c-.475-.344-1.133-.587-1.8-.587-1.062 0-1.811.496-1.811 1.448 0 .84.415 1.225 1.558 1.67.769.294 1.234.486 1.234.89 0 .375-.314.588-.971.588-.496 0-1.052-.182-1.548-.526l-.475.79c.536.394 1.315.678 2.033.678zm3.328 1.842l1.032-.537v-1.913c.293.324.799.608 1.335.608 1.103 0 2.094-.86 2.094-2.683 0-2.025-.9-2.855-2.043-2.855-.557 0-1.002.263-1.386.618v-.506h-1.032v7.268zm2.266-2.804c-.526 0-1.012-.385-1.244-.699v-2.237c.273-.344.708-.678 1.203-.678.77 0 1.194.587 1.194 1.923 0 1.124-.405 1.69-1.153 1.69zm4.592.85v-7.38l-1.041.547v6.833h1.041zm3.177.112c.576 0 1.092-.274 1.456-.638v.526h1.022v-3.644c0-1.205-.81-1.782-1.993-1.782-.748 0-1.315.162-1.82.476l.404.79c.415-.233.84-.334 1.386-.334.647 0 1.001.323 1.001.9v.395c-.293-.131-.687-.202-1.183-.202-1.204 0-2.114.536-2.114 1.72 0 1.307.98 1.793 1.84 1.793zm.172-.942c-.688 0-1.022-.354-1.022-.88 0-.487.425-.79 1.093-.79.566 0 .93.09 1.213.233v.759c-.242.334-.728.678-1.284.678zm5.654 2.703l2.671-7.187h-1.103l-.9 2.621c-.162.456-.384 1.215-.475 1.529-.061-.294-.314-1.083-.466-1.549l-.87-2.601h-1.143l1.953 5.213-.77 1.974h1.103zm5.493-1.761c1.042 0 1.993-.395 1.993-1.57 0-1.002-.607-1.326-1.79-1.781-.8-.314-.982-.506-.982-.77 0-.283.223-.485.729-.485.505 0 .94.151 1.375.455l.456-.8c-.476-.344-1.133-.587-1.801-.587-1.062 0-1.81.496-1.81 1.448 0 .84.414 1.225 1.557 1.67.769.294 1.234.486 1.234.89 0 .375-.313.588-.97.588-.497 0-1.053-.182-1.549-.526l-.475.79c.536.394 1.315.678 2.033.678zM349.9 153.546c1.042 0 1.993-.395 1.993-1.569 0-1.002-.607-1.326-1.791-1.782-.8-.313-.981-.506-.981-.769 0-.283.222-.486.728-.486s.94.152 1.376.456l.455-.8c-.475-.344-1.133-.587-1.8-.587-1.063 0-1.811.496-1.811 1.447 0 .84.415 1.225 1.558 1.67.768.294 1.234.487 1.234.892 0 .374-.314.587-.971.587-.496 0-1.052-.183-1.548-.527l-.476.79c.537.395 1.316.678 2.034.678zm5.371 0c.81 0 1.366-.253 1.831-.698l-.617-.669c-.354.264-.708.426-1.153.426-.648 0-1.224-.436-1.335-1.458h3.51c.01-.111.03-.284.03-.476 0-1.437-.728-2.662-2.236-2.662-1.375 0-2.326.972-2.326 2.774 0 1.76 1.052 2.763 2.296 2.763zm1.214-3.26h-2.468c.09-.85.516-1.336 1.214-1.336.86 0 1.203.608 1.254 1.336zm3.389 3.149v-3.037c0-.901.384-1.367 1.042-1.367.344 0 .576.071.799.193l.273-.992c-.212-.142-.475-.223-.9-.223-.526 0-.971.263-1.214.617v-.506h-1.042v5.315h1.042zm3.763-6.003c.364 0 .667-.304.667-.668 0-.375-.303-.679-.667-.679-.374 0-.678.304-.678.679 0 .364.304.668.678.668zm.516 6.003v-5.315h-1.042v5.315h1.042zm3.176.111c.577 0 1.093-.273 1.457-.638v.527h1.021v-3.645c0-1.204-.809-1.781-1.992-1.781-.749 0-1.315.162-1.821.476l.404.79c.415-.234.84-.335 1.386-.335.648 0 1.002.324 1.002.901v.395c-.294-.132-.688-.203-1.184-.203-1.204 0-2.114.537-2.114 1.721 0 1.306.981 1.792 1.841 1.792zm.172-.941c-.688 0-1.022-.355-1.022-.881 0-.486.425-.79 1.093-.79.566 0 .93.091 1.214.233v.76c-.243.333-.729.678-1.285.678zm4.896.83v-7.38l-1.042.547v6.833h1.042zm5.361 0v-3.108c0-.86.395-1.357 1.093-1.357.688 0 1.092.385 1.092 1.458v3.007h1.042v-3.047c0-1.57-.657-2.38-1.891-2.38-.547 0-1.073.234-1.336.618v-.506h-1.042v5.315h1.042zm6.576.111c.546 0 1.072-.233 1.335-.617v.506h1.042v-5.315h-1.042v3.108c0 .86-.395 1.356-1.093 1.356-.688 0-1.092-.384-1.092-1.457v-3.007h-1.042v3.047c0 1.57.657 2.38 1.892 2.38zm4.956-.111v-3.108c0-.86.324-1.357 1.022-1.357.688 0 1.022.385 1.022 1.458v3.007h1.042v-3.108c0-.86.323-1.357 1.021-1.357.688 0 1.022.385 1.022 1.458v3.007h1.042v-3.047c0-1.57-.587-2.38-1.821-2.38-.83 0-1.244.305-1.629.78-.283-.506-.738-.78-1.456-.78-.547 0-1.002.234-1.265.618v-.506h-1.042v5.315h1.042zm10.035.111c1.103 0 2.094-.86 2.094-2.683 0-2.024-.9-2.854-2.043-2.854-.557 0-1.002.263-1.386.617v-2.57l-1.032.536v6.843h1.032v-.496c.293.324.799.607 1.335.607zm-.101-.962c-.526 0-1.012-.384-1.244-.698v-2.237c.273-.344.708-.679 1.203-.679.77 0 1.194.588 1.194 1.924 0 1.124-.405 1.69-1.153 1.69zm5.543.962c.81 0 1.366-.253 1.831-.698l-.617-.669c-.354.264-.708.426-1.153.426-.647 0-1.224-.436-1.335-1.458h3.51c.01-.111.03-.284.03-.476 0-1.437-.728-2.662-2.235-2.662-1.376 0-2.327.972-2.327 2.774 0 1.76 1.052 2.763 2.296 2.763zm1.214-3.26h-2.468c.09-.85.516-1.336 1.214-1.336.86 0 1.204.608 1.254 1.336zm3.389 3.149v-3.037c0-.901.384-1.367 1.042-1.367.344 0 .576.071.799.193l.273-.992c-.212-.142-.475-.223-.9-.223-.526 0-.971.263-1.214.617v-.506h-1.042v5.315h1.042zm-59.106 12.259c1.366 0 2.397-1.033 2.397-2.794 0-1.66-1.011-2.744-2.367-2.744-1.335 0-2.367 1.033-2.367 2.774 0 1.66 1.002 2.764 2.337 2.764zm.04-.992c-.789 0-1.325-.638-1.325-1.802 0-1.053.486-1.752 1.275-1.752.84 0 1.355.699 1.355 1.782 0 .972-.516 1.772-1.305 1.772zm5.038.88v-4.342h.981v-.972h-.981v-.608c0-.384.142-.516.486-.516.182 0 .364.03.606.101v-.91c-.222-.061-.515-.102-.789-.102-.748 0-1.345.364-1.345 1.336v.699h-.688v.972h.688v4.342h1.042zm6.514.112c.415 0 .77-.102 1.022-.243l.122-.921c-.193.11-.496.212-.77.212-.384 0-.545-.142-.545-.638v-2.885H363v-.951h-1.315v-2.065l-1.022.546v1.519h-.759v.951h.759v3.068c0 .951.455 1.407 1.193 1.407zm3.602-.112v-3.107c0-.86.394-1.357 1.092-1.357.688 0 1.093.385 1.093 1.458v3.006h1.042v-3.047c0-1.569-.658-2.379-1.892-2.379-.546 0-1.072.233-1.335.618v-2.571l-1.042.546v6.833h1.042zm6.767.112c.81 0 1.366-.253 1.831-.699l-.617-.668c-.354.263-.708.425-1.153.425-.648 0-1.224-.435-1.336-1.458h3.51c.01-.11.031-.283.031-.475 0-1.438-.728-2.663-2.236-2.663-1.375 0-2.326.972-2.326 2.774 0 1.761 1.052 2.764 2.296 2.764zm1.214-3.26h-2.468c.09-.85.516-1.336 1.214-1.336.86 0 1.203.607 1.254 1.336zm7.587 3.148l1.871-5.314h-1.102l-.91 2.885c-.163.516-.304 1.012-.365 1.306-.07-.294-.223-.79-.395-1.306l-.95-2.885h-1.093l1.902 5.314h1.042zm5.017.112c.81 0 1.366-.253 1.831-.699l-.617-.668c-.354.263-.708.425-1.153.425-.648 0-1.224-.435-1.335-1.458h3.51c.01-.11.03-.283.03-.475 0-1.438-.728-2.663-2.236-2.663-1.375 0-2.326.972-2.326 2.774 0 1.761 1.052 2.764 2.296 2.764zm1.214-3.26h-2.468c.09-.85.516-1.336 1.214-1.336.86 0 1.203.607 1.254 1.336zm3.389 3.148v-3.107c0-.86.394-1.357 1.092-1.357.688 0 1.093.385 1.093 1.458v3.006h1.042v-3.047c0-1.569-.658-2.379-1.892-2.379-.546 0-1.072.233-1.335.618v-2.571l-1.042.546v6.833h1.042zm5.3-6.003c.365 0 .668-.303.668-.668 0-.374-.303-.678-.668-.678-.374 0-.677.304-.677.678 0 .365.303.668.677.668zm.516 6.003v-5.314h-1.042v5.314h1.042zm3.632.112c.96 0 1.487-.466 1.902-.992l-.668-.658c-.415.435-.708.658-1.204.658-.83 0-1.274-.75-1.274-1.792 0-1.083.485-1.762 1.244-1.762.475 0 .86.203 1.295.648l.617-.739c-.496-.587-1.103-.9-1.882-.9-1.295 0-2.326 1.022-2.326 2.783 0 1.66 1.001 2.754 2.296 2.754zm4.33-.112v-7.38l-1.043.547v6.833h1.042zm3.63.112c.81 0 1.366-.253 1.832-.699l-.617-.668c-.354.263-.708.425-1.153.425-.648 0-1.224-.435-1.336-1.458h3.51c.01-.11.03-.283.03-.475 0-1.438-.728-2.663-2.235-2.663-1.376 0-2.326.972-2.326 2.774 0 1.761 1.052 2.764 2.296 2.764zm1.215-3.26H406.8c.092-.85.516-1.336 1.214-1.336.86 0 1.204.607 1.255 1.336z"/>
        <path fill="#FF4722" fill-rule="nonzero" d="M94.215 10.02l2.718-7.867h-1.67l-1.408 4.552c-.142.46-.284 1-.35 1.293-.065-.281-.218-.855-.36-1.293l-1.44-4.552h-1.693l2.718 7.868h1.485zm6.418 0c1.965 0 3.908-1.168 3.908-3.933 0-2.878-1.615-3.934-3.799-3.934h-2.39v7.868h2.281zm0-1.528h-.753v-4.81h.808c1.615 0 2.281.797 2.281 2.405 0 1.438-.731 2.405-2.336 2.405zm8.034 1.653c2.085 0 3.002-1.012 3.002-2.507 0-1.709-1.342-2.136-2.554-2.428-1.212-.292-1.54-.45-1.54-.944 0-.349.274-.708 1.092-.708.699 0 1.245.292 1.736.809l1.102-1.102c-.72-.775-1.593-1.236-2.783-1.236-1.506 0-2.729.877-2.729 2.304 0 1.551.982 2.012 2.39 2.35 1.441.337 1.703.561 1.703 1.067 0 .596-.425.855-1.331.855-.732 0-1.42-.259-1.954-.9l-1.103 1.012c.579.877 1.692 1.428 2.97 1.428z"/>
        <path fill="#000" fill-rule="nonzero" d="M235.088 336.145l2.446-7.166h-1.142l-1.467 4.556c-.133.42-.337 1.064-.398 1.32-.06-.256-.265-.89-.397-1.31l-1.488-4.566h-1.162l2.477 7.166h1.13zm5.758.113c.815 0 1.376-.256 1.844-.707l-.621-.675c-.357.266-.714.43-1.162.43-.652 0-1.233-.44-1.345-1.475h3.536c.01-.112.03-.286.03-.48 0-1.454-.733-2.693-2.252-2.693-1.386 0-2.344.983-2.344 2.805 0 1.781 1.06 2.795 2.314 2.795zm1.223-3.297h-2.487c.092-.86.52-1.351 1.223-1.351.866 0 1.213.614 1.264 1.351zm3.414 3.184v-3.143c0-.87.397-1.372 1.1-1.372.694 0 1.101.39 1.101 1.475v3.04h1.05v-3.081c0-1.587-.663-2.406-1.906-2.406-.55 0-1.08.235-1.345.624v-2.6l-1.05.553v6.91h1.05zm5.34-6.07c.367 0 .673-.308.673-.676 0-.38-.306-.686-.673-.686-.377 0-.683.307-.683.686 0 .368.306.675.683.675zm.52 6.07v-5.375h-1.05v5.375h1.05zm3.658.113c.969 0 1.499-.471 1.916-1.004l-.672-.665c-.418.44-.714.665-1.213.665-.836 0-1.284-.757-1.284-1.812 0-1.095.49-1.78 1.253-1.78.48 0 .867.204 1.305.654l.622-.747c-.5-.594-1.111-.911-1.896-.911-1.304 0-2.344 1.034-2.344 2.815 0 1.679 1.009 2.785 2.313 2.785zm4.362-.113v-7.463l-1.05.553v6.91h1.05zm3.659.113c.815 0 1.376-.256 1.845-.707l-.622-.675c-.357.266-.714.43-1.162.43-.652 0-1.233-.44-1.345-1.475h3.536c.01-.112.03-.286.03-.48 0-1.454-.733-2.693-2.252-2.693-1.386 0-2.343.983-2.343 2.805 0 1.781 1.06 2.795 2.313 2.795zm1.223-3.297h-2.487c.092-.86.52-1.351 1.223-1.351.866 0 1.213.614 1.264 1.351zm-30.737 15.581c1.05 0 2.008-.399 2.008-1.586 0-1.014-.612-1.341-1.804-1.802-.805-.317-.989-.512-.989-.778 0-.287.225-.492.734-.492.51 0 .948.154 1.386.461l.459-.809c-.48-.348-1.142-.593-1.814-.593-1.07 0-1.824.501-1.824 1.464 0 .85.417 1.238 1.57 1.689.774.297 1.242.491 1.242.9 0 .38-.316.594-.978.594-.5 0-1.06-.184-1.56-.532l-.478.799c.54.399 1.325.685 2.048.685zm5.412 0c.815 0 1.376-.256 1.844-.706l-.621-.676c-.357.267-.714.43-1.162.43-.652 0-1.233-.44-1.345-1.474h3.536c.01-.112.03-.286.03-.481 0-1.454-.733-2.692-2.252-2.692-1.386 0-2.344.982-2.344 2.805 0 1.78 1.06 2.794 2.314 2.794zm1.223-3.296h-2.487c.092-.86.52-1.351 1.223-1.351.866 0 1.213.614 1.264 1.351zm4.423 3.296c.968 0 1.498-.47 1.916-1.003l-.673-.665c-.418.44-.713.665-1.213.665-.835 0-1.284-.757-1.284-1.812 0-1.095.49-1.781 1.254-1.781.479 0 .866.205 1.304.655l.622-.747c-.5-.594-1.111-.911-1.896-.911-1.304 0-2.344 1.034-2.344 2.815 0 1.679 1.01 2.784 2.314 2.784zm5.126 0c.55 0 1.08-.235 1.345-.624v.512h1.05v-5.375h-1.05v3.143c0 .87-.397 1.372-1.1 1.372-.694 0-1.101-.39-1.101-1.474v-3.04h-1.05v3.08c0 1.587.663 2.406 1.906 2.406zm4.994-.112v-3.071c0-.912.387-1.382 1.05-1.382.346 0 .58.071.804.194l.275-1.003c-.214-.143-.479-.225-.907-.225-.53 0-.978.266-1.222.624v-.512h-1.05v5.375h1.05zm3.79-6.07c.368 0 .673-.308.673-.677 0-.378-.305-.685-.672-.685-.377 0-.683.307-.683.685 0 .369.306.676.683.676zm.52 6.07v-5.375h-1.05v5.375h1.05zm3.13.112c.417 0 .774-.102 1.028-.245l.123-.932c-.194.113-.5.215-.775.215-.387 0-.55-.143-.55-.645v-2.917h1.325v-.963h-1.325v-2.088l-1.03.553v1.535h-.764v.963h.765v3.101c0 .963.458 1.423 1.202 1.423zm4.442 1.782l2.69-7.269h-1.11l-.907 2.652c-.163.46-.387 1.228-.479 1.546-.061-.297-.316-1.096-.469-1.567l-.876-2.63h-1.152l1.967 5.271-.774 1.997h1.11zm8.612-1.782c.968 0 1.498-.47 1.916-1.003l-.673-.665c-.418.44-.713.665-1.212.665-.836 0-1.285-.757-1.285-1.812 0-1.095.49-1.781 1.254-1.781.479 0 .866.205 1.304.655l.622-.747c-.5-.594-1.11-.911-1.895-.911-1.305 0-2.344 1.034-2.344 2.815 0 1.679 1.009 2.784 2.313 2.784zm5.36 0c1.376 0 2.416-1.044 2.416-2.825 0-1.679-1.02-2.774-2.385-2.774-1.345 0-2.385 1.044-2.385 2.805 0 1.679 1.01 2.794 2.355 2.794zm.041-1.003c-.795 0-1.335-.645-1.335-1.822 0-1.065.49-1.771 1.284-1.771.846 0 1.366.706 1.366 1.802 0 .982-.52 1.791-1.315 1.791zm5.493 1.003c.56 0 1.01-.266 1.397-.624v.512h1.04v-7.463l-1.04.542v2.048c-.296-.328-.806-.614-1.346-.614-1.11 0-2.11.87-2.11 2.712 0 2.048.908 2.887 2.06 2.887zm.194-.972c-.774 0-1.203-.594-1.203-1.945 0-1.137.408-1.71 1.162-1.71.53 0 1.02.39 1.254.707v2.262c-.275.348-.714.686-1.213.686zm5.85.972c.815 0 1.376-.256 1.844-.706l-.621-.676c-.357.267-.714.43-1.162.43-.652 0-1.233-.44-1.345-1.474h3.536c.01-.112.03-.286.03-.481 0-1.454-.733-2.692-2.252-2.692-1.386 0-2.344.982-2.344 2.805 0 1.78 1.06 2.794 2.314 2.794zm1.223-3.296h-2.487c.092-.86.52-1.351 1.223-1.351.866 0 1.213.614 1.264 1.351zM272.082 284.183c1.818 0 2.63-.88 2.63-2.17 0-1.28-.873-1.73-2.275-2.16-1.229-.37-1.554-.615-1.554-1.117 0-.48.356-.89 1.189-.89.7 0 1.208.225 1.655.686l.752-.768c-.63-.614-1.361-.973-2.326-.973-1.31 0-2.346.758-2.346 1.996 0 1.28.72 1.659 2.224 2.11 1.188.358 1.605.634 1.605 1.187 0 .696-.477 1.044-1.473 1.044-.67 0-1.371-.328-1.849-.85l-.761.748c.599.706 1.493 1.157 2.529 1.157zm5.12-.113v-3.143c0-.87.395-1.372 1.096-1.372.69 0 1.097.39 1.097 1.474v3.04h1.046v-3.08c0-1.587-.66-2.406-1.899-2.406-.548 0-1.077.235-1.34.624v-2.6l-1.047.553v6.91h1.046zm6.835.113c1.371 0 2.408-1.045 2.408-2.826 0-1.679-1.016-2.774-2.377-2.774-1.341 0-2.377 1.044-2.377 2.805 0 1.679 1.005 2.795 2.346 2.795zm.04-1.004c-.791 0-1.33-.645-1.33-1.822 0-1.065.488-1.771 1.28-1.771.843 0 1.361.706 1.361 1.802 0 .983-.518 1.791-1.31 1.791zm5.648.89l.711-2.702c.112-.41.224-.9.275-1.157.05.256.162.738.274 1.147l.721 2.713h.894l1.483-5.375h-1.036l-.63 2.61c-.101.41-.203.912-.264 1.178-.06-.266-.173-.747-.284-1.167l-.722-2.62h-.843l-.71 2.61c-.112.42-.234.911-.295 1.177-.051-.256-.163-.768-.264-1.177l-.63-2.61h-1.036l1.463 5.374h.893zm7.263.114c1.046 0 2.001-.4 2.001-1.587 0-1.014-.61-1.341-1.798-1.802-.802-.317-.985-.512-.985-.778 0-.287.223-.491.731-.491s.945.153 1.382.46l.457-.809c-.478-.348-1.138-.593-1.808-.593-1.067 0-1.818.501-1.818 1.464 0 .85.416 1.238 1.564 1.689.772.297 1.239.491 1.239.9 0 .38-.315.594-.975.594-.498 0-1.056-.184-1.554-.532l-.478.799c.539.399 1.32.686 2.042.686zm8.603-.113l1.88-5.375h-1.108l-.914 2.918c-.162.522-.304 1.024-.365 1.32-.072-.296-.224-.798-.397-1.32l-.954-2.918h-1.097l1.91 5.375h1.045zm5.039.113c.812 0 1.37-.256 1.838-.707l-.62-.676c-.355.267-.71.43-1.157.43-.65 0-1.23-.44-1.341-1.474h3.524c.01-.112.03-.286.03-.48 0-1.455-.73-2.693-2.244-2.693-1.381 0-2.336.983-2.336 2.805 0 1.781 1.056 2.795 2.306 2.795zm1.218-3.297h-2.478c.091-.86.518-1.351 1.219-1.351.863 0 1.209.614 1.26 1.351zm3.403 3.184v-3.143c0-.87.396-1.372 1.097-1.372.691 0 1.097.39 1.097 1.474v3.04h1.046v-3.08c0-1.587-.66-2.406-1.899-2.406-.548 0-1.077.235-1.34.624v-2.6l-1.047.553v6.91h1.046zm5.323-6.07c.365 0 .67-.308.67-.676 0-.38-.305-.686-.67-.686-.376 0-.68.307-.68.686 0 .368.304.675.68.675zm.518 6.07v-5.375h-1.046v5.375h1.046zm3.646.113c.965 0 1.494-.471 1.91-1.004l-.67-.665c-.417.44-.711.665-1.21.665-.832 0-1.279-.757-1.279-1.812 0-1.095.488-1.781 1.25-1.781.477 0 .863.205 1.3.655l.62-.747c-.499-.594-1.108-.911-1.89-.911-1.3 0-2.336 1.034-2.336 2.815 0 1.679 1.005 2.785 2.305 2.785zm4.348-.113v-7.463l-1.046.553v6.91h1.046zm3.646.113c.813 0 1.372-.256 1.839-.707l-.62-.676c-.355.267-.71.43-1.158.43-.65 0-1.229-.44-1.34-1.474h3.524c.01-.112.03-.286.03-.48 0-1.455-.73-2.693-2.244-2.693-1.382 0-2.336.983-2.336 2.805 0 1.781 1.056 2.795 2.305 2.795zm1.22-3.297h-2.48c.092-.86.519-1.351 1.22-1.351.863 0 1.208.614 1.26 1.351zm-62.297 17.363l2.682-7.269h-1.107l-.904 2.652c-.163.46-.386 1.228-.478 1.545-.06-.297-.315-1.095-.467-1.566l-.874-2.63h-1.147l1.96 5.271-.772 1.997h1.107zm5.84-1.782c.813 0 1.372-.256 1.84-.706l-.62-.676c-.356.266-.711.43-1.158.43-.65 0-1.23-.44-1.341-1.474h3.525c.01-.113.03-.287.03-.481 0-1.454-.731-2.693-2.245-2.693-1.381 0-2.336.983-2.336 2.805 0 1.782 1.056 2.795 2.306 2.795zm1.22-3.296h-2.479c.092-.86.518-1.351 1.22-1.351.863 0 1.208.614 1.259 1.35zm3.951 3.296c.579 0 1.097-.276 1.463-.645v.533h1.026v-3.686c0-1.218-.813-1.802-2.001-1.802-.752 0-1.32.164-1.829.482l.406.798c.417-.235.844-.338 1.392-.338.65 0 1.006.328 1.006.911v.4c-.295-.133-.691-.205-1.189-.205-1.209 0-2.123.543-2.123 1.74 0 1.32.986 1.812 1.849 1.812zm.173-.952c-.691 0-1.026-.358-1.026-.89 0-.492.426-.799 1.097-.799.569 0 .934.092 1.219.236v.767c-.244.338-.732.686-1.29.686zm4.865.84v-3.072c0-.91.386-1.382 1.046-1.382.346 0 .58.072.803.195l.274-1.003c-.213-.144-.477-.226-.904-.226-.528 0-.975.267-1.219.625v-.512h-1.046v5.375h1.046zM310.319 193.367v-7.09h-1.066v7.09h1.066zm2.792 0v-3.11c0-.86.396-1.357 1.097-1.357.69 0 1.096.385 1.096 1.458v3.009h1.046v-3.05c0-1.57-.66-2.38-1.899-2.38-.548 0-1.076.234-1.34.618v-.506h-1.046v5.318h1.046zm6.56.111c.558 0 1.005-.263 1.39-.618v.507h1.036v-7.384l-1.036.536v2.026c-.294-.324-.802-.607-1.34-.607-1.107 0-2.102.86-2.102 2.684 0 2.025.904 2.856 2.051 2.856zm.192-.962c-.771 0-1.198-.588-1.198-1.925 0-1.124.406-1.691 1.158-1.691.528 0 1.015.385 1.249.699v2.238c-.275.345-.711.679-1.209.679zm4.356-5.156c.366 0 .67-.304.67-.668 0-.375-.304-.679-.67-.679-.375 0-.68.304-.68.679 0 .364.305.668.68.668zm.518 6.007v-5.318h-1.046v5.318h1.046zm3.645.111c.965 0 1.493-.466 1.91-.993l-.67-.658c-.417.436-.712.658-1.21.658-.832 0-1.279-.75-1.279-1.792 0-1.084.488-1.763 1.25-1.763.477 0 .862.203 1.299.648l.62-.739c-.498-.587-1.107-.901-1.89-.901-1.299 0-2.335 1.023-2.335 2.785 0 1.661 1.006 2.755 2.305 2.755zm4.844 0c.578 0 1.096-.273 1.462-.638v.527h1.025v-3.647c0-1.205-.812-1.782-2-1.782-.751 0-1.32.162-1.828.476l.406.79c.417-.233.843-.335 1.392-.335.65 0 1.005.325 1.005.902v.395c-.295-.132-.69-.203-1.188-.203-1.209 0-2.122.537-2.122 1.722 0 1.307.985 1.793 1.848 1.793zm.172-.942c-.69 0-1.025-.354-1.025-.881 0-.486.426-.79 1.096-.79.569 0 .934.091 1.219.233v.76c-.244.334-.731.678-1.29.678zm5.341.942c.416 0 .772-.101 1.026-.243l.121-.922c-.192.112-.497.213-.771.213-.386 0-.549-.142-.549-.638V189h1.32v-.952h-1.32v-2.066l-1.025.547v1.519h-.762v.952h.762v3.07c0 .951.457 1.407 1.198 1.407zm4.62 0c.812 0 1.37-.253 1.838-.699l-.62-.668c-.355.263-.71.425-1.157.425-.65 0-1.229-.435-1.34-1.458h3.523c.01-.112.03-.284.03-.477 0-1.438-.73-2.663-2.244-2.663-1.38 0-2.335.972-2.335 2.775 0 1.762 1.056 2.765 2.305 2.765zm1.218-3.261H342.1c.091-.851.518-1.337 1.218-1.337.863 0 1.209.607 1.26 1.337zm4.082 3.261c1.046 0 2-.395 2-1.57 0-1.003-.609-1.327-1.797-1.783-.802-.314-.985-.506-.985-.77 0-.283.224-.486.731-.486.508 0 .945.152 1.381.456l.457-.8c-.477-.344-1.137-.587-1.807-.587-1.066 0-1.818.496-1.818 1.448 0 .84.417 1.226 1.564 1.671.772.294 1.239.486 1.239.892 0 .374-.315.587-.975.587-.497 0-1.056-.182-1.553-.527l-.478.79c.538.395 1.32.68 2.041.68zm-37.62 12.043l.712-2.674c.111-.405.223-.891.274-1.144.05.253.162.729.274 1.134l.72 2.684h.894l1.483-5.317h-1.036l-.63 2.583c-.101.405-.203.901-.263 1.164-.061-.263-.173-.739-.285-1.154l-.72-2.593h-.843l-.711 2.583c-.112.415-.234.901-.295 1.164-.05-.253-.162-.76-.264-1.164l-.63-2.583h-1.035l1.462 5.317h.894zm6.58 0v-3.11c0-.86.396-1.357 1.097-1.357.69 0 1.097.385 1.097 1.46v3.007h1.045v-3.048c0-1.57-.66-2.38-1.898-2.38-.549 0-1.077.232-1.34.617v-2.573l-1.046.547v6.837h1.045zm5.32-6.006c.366 0 .671-.304.671-.669 0-.374-.305-.678-.67-.678-.376 0-.68.304-.68.678 0 .365.304.669.68.669zm.519 6.006v-5.317h-1.046v5.317h1.046zm3.645.112c.965 0 1.493-.466 1.909-.993l-.67-.658c-.417.435-.711.658-1.209.658-.832 0-1.279-.75-1.279-1.793 0-1.083.487-1.762 1.249-1.762.477 0 .863.202 1.3.648l.619-.74c-.498-.587-1.107-.9-1.889-.9-1.3 0-2.335 1.022-2.335 2.785 0 1.66 1.005 2.755 2.305 2.755zm4.295-.112v-3.11c0-.86.396-1.357 1.097-1.357.69 0 1.096.385 1.096 1.46v3.007h1.046v-3.048c0-1.57-.66-2.38-1.899-2.38-.548 0-1.076.232-1.34.617v-2.573l-1.046.547v6.837h1.046zm7.483 1.955l1.036-.537v-1.914c.294.324.802.608 1.34.608 1.107 0 2.102-.861 2.102-2.684 0-2.026-.904-2.857-2.051-2.857-.558 0-1.005.264-1.391.618v-.506h-1.036v7.272zm2.275-2.805c-.528 0-1.016-.385-1.25-.7v-2.238c.275-.344.712-.679 1.209-.679.772 0 1.198.588 1.198 1.925 0 1.124-.406 1.692-1.157 1.692zm4.61.85v-7.384l-1.046.547v6.837h1.045zm3.188.112c.578 0 1.096-.274 1.462-.638v.526h1.025v-3.646c0-1.205-.812-1.783-2-1.783-.751 0-1.32.162-1.828.476l.407.79c.416-.233.842-.334 1.39-.334.65 0 1.006.324 1.006.902v.395c-.295-.132-.69-.203-1.188-.203-1.208 0-2.122.537-2.122 1.722 0 1.307.985 1.793 1.848 1.793zm.172-.942c-.69 0-1.025-.355-1.025-.881 0-.487.426-.79 1.096-.79.569 0 .935.09 1.219.232v.76c-.244.334-.731.679-1.29.679zm4.864.83v-3.11c0-.86.396-1.357 1.097-1.357.69 0 1.096.385 1.096 1.46v3.007h1.046v-3.048c0-1.57-.66-2.38-1.899-2.38-.548 0-1.076.232-1.34.617v-.506h-1.046v5.317h1.046zm6.265.112c.416 0 .771-.102 1.025-.243l.122-.922c-.193.111-.497.213-.772.213-.385 0-.548-.142-.548-.638v-2.887h1.32v-.952h-1.32v-2.067l-1.025.547v1.52h-.762v.952h.762v3.069c0 .952.457 1.408 1.198 1.408zm-49.611 12.154c.579 0 1.096-.273 1.462-.638v.527h1.025v-3.646c0-1.206-.812-1.783-2-1.783-.751 0-1.32.162-1.827.476l.406.79c.416-.233.842-.334 1.39-.334.65 0 1.006.324 1.006.901v.395c-.295-.131-.69-.202-1.188-.202-1.208 0-2.122.537-2.122 1.722 0 1.306.985 1.792 1.848 1.792zm.172-.942c-.69 0-1.025-.354-1.025-.88 0-.487.426-.79 1.096-.79.57 0 .935.09 1.219.232v.76c-.244.334-.731.678-1.29.678zm5.544.942c1.046 0 2-.395 2-1.57 0-1.002-.609-1.326-1.797-1.782-.802-.314-.985-.507-.985-.77 0-.284.224-.486.732-.486.507 0 .944.152 1.38.456l.457-.8c-.477-.345-1.137-.588-1.807-.588-1.066 0-1.817.496-1.817 1.448 0 .841.416 1.226 1.563 1.672.772.293 1.239.486 1.239.891 0 .375-.315.587-.975.587-.497 0-1.056-.182-1.553-.526l-.478.79c.539.395 1.32.678 2.041.678zm5.067 0c1.046 0 2-.395 2-1.57 0-1.002-.609-1.326-1.797-1.782-.802-.314-.985-.507-.985-.77 0-.284.224-.486.731-.486.508 0 .945.152 1.381.456l.457-.8c-.477-.345-1.137-.588-1.807-.588-1.066 0-1.818.496-1.818 1.448 0 .841.416 1.226 1.564 1.672.772.293 1.239.486 1.239.891 0 .375-.315.587-.975.587-.498 0-1.056-.182-1.554-.526l-.477.79c.538.395 1.32.678 2.041.678zm5.392 0c.812 0 1.37-.253 1.837-.698l-.619-.669c-.355.263-.71.425-1.157.425-.65 0-1.229-.435-1.34-1.458h3.523c.01-.111.03-.284.03-.476 0-1.438-.731-2.664-2.244-2.664-1.38 0-2.335.972-2.335 2.775 0 1.763 1.056 2.765 2.305 2.765zm1.218-3.261h-2.477c.091-.85.517-1.337 1.218-1.337.863 0 1.208.608 1.26 1.337zm3.402 3.15v-3.11c0-.86.324-1.357 1.025-1.357.69 0 1.026.385 1.026 1.459v3.008h1.045v-3.11c0-.86.325-1.357 1.026-1.357.69 0 1.025.385 1.025 1.459v3.008h1.046v-3.049c0-1.57-.589-2.38-1.827-2.38-.833 0-1.25.304-1.635.78-.284-.507-.741-.78-1.462-.78-.549 0-1.005.233-1.27.618v-.507h-1.045v5.318h1.046zm10.072.111c1.107 0 2.102-.86 2.102-2.684 0-2.025-.904-2.856-2.051-2.856-.559 0-1.005.263-1.391.618v-2.573l-1.036.537v6.847h1.036v-.496c.294.324.802.607 1.34.607zm-.102-.962c-.527 0-1.015-.385-1.248-.699v-2.238c.274-.345.71-.679 1.208-.679.772 0 1.198.588 1.198 1.925 0 1.124-.406 1.691-1.158 1.691zm4.61.851v-7.384l-1.046.547v6.837h1.046zm3.645.111c.813 0 1.371-.253 1.838-.698l-.62-.669c-.354.263-.71.425-1.157.425-.65 0-1.228-.435-1.34-1.458h3.523c.01-.111.03-.284.03-.476 0-1.438-.73-2.664-2.243-2.664-1.381 0-2.335.972-2.335 2.775 0 1.763 1.056 2.765 2.304 2.765zm1.219-3.261h-2.478c.092-.85.518-1.337 1.219-1.337.863 0 1.208.608 1.259 1.337zm4.173 3.261c.559 0 1.005-.263 1.391-.617v.506h1.036v-7.384l-1.036.537v2.026c-.294-.324-.802-.608-1.34-.608-1.107 0-2.102.86-2.102 2.684 0 2.026.904 2.856 2.051 2.856zm.193-.962c-.772 0-1.198-.587-1.198-1.924 0-1.125.406-1.692 1.157-1.692.528 0 1.016.385 1.25.7v2.238c-.275.344-.711.678-1.209.678zm-44.676 13.117c.416 0 .771-.101 1.025-.243l.122-.922c-.193.112-.497.213-.772.213-.385 0-.548-.142-.548-.638v-2.887h1.32v-.952h-1.32v-2.066l-1.025.547v1.52h-.762v.951h.762v3.07c0 .951.456 1.407 1.198 1.407zm3.614-.111v-3.11c0-.86.396-1.357 1.097-1.357.69 0 1.097.385 1.097 1.458v3.009h1.045v-3.049c0-1.57-.66-2.38-1.898-2.38-.549 0-1.077.233-1.34.618v-2.573l-1.046.547v6.837h1.045zm6.793.111c.813 0 1.371-.253 1.838-.699l-.62-.668c-.355.263-.71.425-1.157.425-.65 0-1.228-.435-1.34-1.458h3.523c.01-.112.03-.284.03-.476 0-1.439-.73-2.664-2.243-2.664-1.381 0-2.336.972-2.336 2.775 0 1.762 1.056 2.765 2.305 2.765zm1.219-3.261h-2.478c.092-.851.518-1.337 1.219-1.337.863 0 1.208.607 1.259 1.337zm7.615 3.15l1.878-5.318h-1.106l-.914 2.887c-.163.516-.305 1.013-.366 1.306-.07-.293-.223-.79-.396-1.306l-.954-2.887h-1.097l1.91 5.318h1.045zm5.036.111c.813 0 1.371-.253 1.838-.699l-.62-.668c-.355.263-.71.425-1.157.425-.65 0-1.228-.435-1.34-1.458h3.523c.01-.112.03-.284.03-.476 0-1.439-.73-2.664-2.243-2.664-1.381 0-2.336.972-2.336 2.775 0 1.762 1.056 2.765 2.305 2.765zm1.219-3.261h-2.478c.092-.851.518-1.337 1.219-1.337.863 0 1.208.607 1.259 1.337zm3.401 3.15v-3.11c0-.86.396-1.357 1.097-1.357.69 0 1.096.385 1.096 1.458v3.009h1.046v-3.049c0-1.57-.66-2.38-1.899-2.38-.548 0-1.076.233-1.34.618v-2.573l-1.046.547v6.837h1.046zm5.32-6.007c.366 0 .67-.304.67-.668 0-.375-.304-.679-.67-.679-.375 0-.68.304-.68.679 0 .364.305.668.68.668zm.519 6.007v-5.318h-1.046v5.318h1.046zm3.645.111c.964 0 1.492-.466 1.909-.992l-.67-.659c-.417.436-.711.659-1.209.659-.832 0-1.28-.75-1.28-1.793 0-1.084.488-1.763 1.25-1.763.477 0 .863.203 1.3.649l.619-.74c-.498-.587-1.107-.901-1.889-.901-1.3 0-2.335 1.023-2.335 2.785 0 1.661 1.005 2.755 2.305 2.755zm4.345-.111v-7.384l-1.045.547v6.837h1.045zm3.646.111c.812 0 1.37-.253 1.837-.699l-.619-.668c-.355.263-.71.425-1.157.425-.65 0-1.229-.435-1.34-1.458h3.523c.01-.112.03-.284.03-.476 0-1.439-.731-2.664-2.244-2.664-1.38 0-2.335.972-2.335 2.775 0 1.762 1.056 2.765 2.305 2.765zm1.218-3.261h-2.477c.091-.851.517-1.337 1.218-1.337.863 0 1.208.607 1.26 1.337z"/>
        <path fill="#FF4722" fill-rule="nonzero" d="M220.083 10.02l2.71-7.867h-1.665l-1.404 4.552c-.141.46-.283 1-.348 1.293-.065-.281-.218-.855-.36-1.293l-1.435-4.552h-1.687l2.71 7.868h1.48zm5.757 0V2.154h-1.523v7.868h1.523zm4.658.125c2.078 0 2.992-1.012 2.992-2.507 0-1.709-1.338-2.136-2.546-2.428-1.208-.292-1.535-.45-1.535-.944 0-.349.272-.708 1.089-.708.696 0 1.24.292 1.73.809l1.099-1.102c-.718-.775-1.589-1.236-2.775-1.236-1.502 0-2.72.877-2.72 2.304 0 1.551.979 2.012 2.383 2.35 1.436.337 1.697.561 1.697 1.067 0 .596-.424.855-1.327.855-.73 0-1.415-.259-1.948-.9l-1.1 1.012c.577.877 1.687 1.428 2.96 1.428z"/>
        <path fill="#000" d="M0 62.22H70.385V63.573H0zM11.505 118.353H12.859000000000002V351H11.505zM224.692 118.353H226.04600000000002V351H224.692zM43.314 118.353H44.668V298.925H43.314zM262.592 118.353H263.94599999999997V298.925H262.592zM301.845 118.353H303.199V234H301.845zM97.457 118.353H98.81099999999999V234H97.457zM340.422 118.353H341.776V169.076H340.422z"/>
        <path fill="#000" d="M35.193 118.353H70.386V119.70599999999999H35.193zM89.335 62.22H186.79199999999997V63.573H89.335zM89.335 118.353H186.79199999999997V119.70599999999999H89.335zM215.217 62.22H446V63.573H215.217zM332.3 118.353H446V119.70599999999999H332.3z"/>
    </g>
</svg>
