<svg xmlns="http://www.w3.org/2000/svg" xmlns:xlink="http://www.w3.org/1999/xlink" width="248" height="200" viewBox="0 0 248 200">
    <defs>
        <path id="ncneals4la" d="M0 0.357L133.49 0.357 133.49 93.965 0 93.965z"/>
        <path id="6x8a6f8jlc" d="M0 102.621L133.49 102.621 133.49 0.851 0 0.851z"/>
    </defs>
    <g fill="none" fill-rule="evenodd">
        <g transform="translate(46.02 97.021)">
            <path fill="#000" d="M121.651 30.487c.252.004.496.011.76.018 1.077.027 2.417.063 3.753-.011 2.563-.136 4.196-.658 4.856-1.55.353-.477.438-1.059.258-1.777-.475-1.88-2.368-3.336-3.845-4.011-1.387-.634-4.911-.876-7.062.211-.957.483-1.534 1.171-1.717 2.047-.01.052-.021.104-.026.156 1.008 1.634 2.023 3.284 3.023 4.917m2.756.477c-.721 0-1.406-.02-2.008-.034l-.83-.02h-.116l-.104-.1c-1.031-1.686-2.079-3.388-3.12-5.073l-.03-.05v-.061c0-.099.018-.199.038-.297.21-1.01.864-1.798 1.941-2.342 2.262-1.14 5.972-.886 7.432-.218 1.563.714 3.57 2.267 4.082 4.294.21.84.098 1.558-.33 2.135-.748 1.012-2.442 1.575-5.175 1.721-.602.033-1.203.045-1.78.045"/>
            <path fill="#000" d="M121.917 30.917c.907 1.489 1.8 2.962 2.653 4.383.281-.6.83-2.394 1.33-4.366-1.256.053-2.492.022-3.5-.004-.17-.005-.33-.01-.483-.013zm2.682 4.969h-.121l-.113-.099c-.955-1.591-1.96-3.25-2.982-4.927l-.031-.05.01-.353.215.028c.249.004.528.011.833.02 1.077.026 2.416.062 3.754-.011l.288-.016-.07.28c-.568 2.288-1.338 5.035-1.783 5.128zM9.333 22.616c-1.335 0-2.577.22-3.276.54-1.477.675-3.37 2.13-3.846 4.012-.179.717-.094 1.3.26 1.778.66.89 2.293 1.412 4.855 1.548 1.338.074 2.677.038 3.753.01.275-.007.53-.014.76-.017 1-1.634 2.016-3.292 3.023-4.925-.005-.05-.015-.1-.026-.145-.183-.879-.76-1.568-1.717-2.05-1.067-.539-2.471-.75-3.786-.75m-.25 8.346c-.577 0-1.178-.011-1.78-.044-2.733-.146-4.426-.709-5.175-1.721-.428-.577-.539-1.296-.33-2.134.512-2.028 2.518-3.581 4.081-4.295 1.462-.67 5.172-.923 7.433.218 1.077.544 1.73 1.331 1.94 2.34.019.082.04.182.04.29v.061l-.032.05c-1.04 1.686-2.088 3.396-3.12 5.081l-.061.102h-.12c-.287.004-.566.01-.868.02-.603.014-1.287.032-2.008.032"/>
            <path fill="#000" d="M7.59 30.933c.5 1.973 1.048 3.768 1.33 4.368.853-1.421 1.746-2.895 2.653-4.384l-.483.013c-1.007.025-2.243.057-3.5.003zm1.473 4.957h-.12c-.497-.096-1.267-2.844-1.835-5.132l-.07-.28.288.015c1.338.073 2.677.039 3.753.011.305-.008.585-.014.834-.018l.217-.004-.023.378c-1.022 1.677-2.028 3.335-2.982 4.926l-.062.104zM17.577 27.625c.132.144.883.292 1.633.315l47.529-.544 47.55.544c.739-.023 1.488-.17 1.622-.313-.65-1.4-14.168-20.138-15.4-21.338h-.001c-3.469-3.398-61.57-3.37-67.574.033-1.485.84-14.718 19.81-15.359 21.303zm1.629.74c-.769-.024-2.044-.151-2.066-.731 0-.47 5.645-8.57 7.158-10.712 2.718-3.854 7.428-10.405 8.427-10.97 3.223-1.826 19.66-2.639 34.66-2.639l.392.001c15.099.014 31.167.845 33.032 2.67.946.924 15.54 20.85 15.54 21.642-.02.588-1.297.715-2.055.74l-47.555-.545-47.533.545zM32.72 68.632h68.05v-6.163c0-.471-.05-.909-.155-1.336l-.006-.059c-.21-.934-.681-1.861-1.354-2.636-1.161-1.355-2.848-2.13-4.629-2.13H38.864c-2.85 0-5.369 2.023-5.987 4.811-.107.441-.157.879-.157 1.35v6.163zm68.477.425H32.294v-6.588c0-.506.054-.976.168-1.437.66-2.986 3.353-5.15 6.402-5.15h55.762c1.907 0 3.71.83 4.95 2.279.72.826 1.223 1.819 1.454 2.867l.005.028c.109.454.162.916.162 1.413v6.588zm-75.02 9.7c-1.47-.092-3.899-.234-7.112-.38l.02-.426c3.215.146 5.647.29 7.12.383l-.028.424zm81.135 0l-.028-.423c1.448-.093 3.86-.234 7.12-.383l.02.425c-3.258.148-5.666.29-7.112.382zm-92.149 1.21c-1.352 0-2.454 1.054-2.454 2.35 0 1.3 1.102 2.356 2.454 2.356 1.353 0 2.454-1.057 2.454-2.356 0-1.296-1.1-2.35-2.454-2.35zm0 5.132c-1.588 0-2.88-1.249-2.88-2.782 0-1.53 1.292-2.775 2.88-2.775 1.589 0 2.88 1.244 2.88 2.775 0 1.533-1.291 2.782-2.88 2.782zm103.163-5.131c-1.358 0-2.462 1.053-2.462 2.349 0 1.3 1.104 2.356 2.462 2.356 1.354 0 2.455-1.057 2.455-2.356 0-1.296-1.1-2.35-2.455-2.35zm0 5.13c-1.593 0-2.888-1.248-2.888-2.781 0-1.53 1.295-2.775 2.888-2.775 1.588 0 2.881 1.244 2.881 2.775 0 1.533-1.293 2.782-2.881 2.782zm-82.887-.43c1.268 3.35 4.502 5.598 8.06 5.598h46.977c2.002 0 3.957-.714 5.504-2.01 1.655-1.396 2.728-3.33 3.02-5.44.055-.374.083-.773.083-1.19v-.628H34.885v.628c0 1.026.181 2.035.54 3l.014.042zm55.037 6.023H43.5c-3.748 0-7.154-2.374-8.475-5.91l-.013-.044c-.368-1-.554-2.047-.554-3.11V80.57H99.51v1.054c0 .438-.03.858-.087 1.25-.306 2.214-1.431 4.24-3.167 5.705-1.625 1.361-3.678 2.11-5.78 2.11z"/>
            <path fill="#000" d="M101.27 90.11c1.455.104 3.793.227 6.03.248 1.513.025 2.84-.006 3.84-.093 3.48-.29 9.303-.776 12.45-4.588 2.628-3.19 3.33-6.898 3.474-7.871-.361.014-1.095.045-2.09.092l-2.909.132c-2.177.1-4.81.22-7.452.337l-.02.271-2.296 9.531-7.458 1.308c-1.292.228-2.608.46-3.568.633m7.031.683c-.324 0-.66-.003-1.008-.01-3.318-.032-7.308-.303-7.603-.413l-.601-.224.615-.18c.11-.032 1.626-.3 5.06-.908l7.182-1.26 2.226-9.226.043-.614.19-.008c2.704-.12 5.41-.243 7.64-.345l2.91-.133c1.45-.068 2.344-.102 2.344-.102l.245-.008-.024.242c-.005.044-.477 4.55-3.601 8.344-3.263 3.95-9.198 4.445-12.743 4.741-.785.07-1.765.104-2.875.104M6.425 77.806c.145.973.847 4.681 3.474 7.871 3.148 3.812 8.97 4.298 12.45 4.588 1.001.087 2.329.119 3.838.093 2.238-.021 4.575-.144 6.03-.25-.958-.17-2.27-.403-3.56-.63l-7.463-1.309-2.292-9.497-.024-.305c-2.643-.118-5.276-.237-7.453-.337l-2.91-.132c-.994-.047-1.728-.078-2.09-.092m18.762 12.987c-1.11 0-2.09-.035-2.875-.104-3.545-.296-9.48-.79-12.742-4.741-3.124-3.793-3.597-8.3-3.601-8.344l-.024-.242.245.008s.894.034 2.345.102l2.909.133c2.229.102 4.935.225 7.64.345l.19.008.048.648 2.22 9.192 7.19 1.261c3.428.606 4.943.875 5.053.907l.616.18-.6.224c-.297.11-4.288.381-7.608.414-.345.006-.682.009-1.006.009"/>
            <g transform="translate(0 .494)">
                <mask id="st94p5e9cb" fill="#fff">
                    <use xlink:href="#ncneals4la"/>
                </mask>
                <path fill="#000" d="M17.577 27.132c.132.144.883.29 1.633.315l47.529-.545 47.55.545c.739-.024 1.488-.17 1.622-.313-.65-1.4-14.168-20.138-15.4-21.338-3.47-3.398-61.572-3.37-67.575.033-1.485.84-14.718 19.81-15.359 21.303zm1.629.74c-.769-.024-2.044-.152-2.066-.732 0-.47 5.645-8.569 7.158-10.712 2.718-3.854 7.428-10.404 8.427-10.97 3.223-1.826 19.66-2.639 34.66-2.639l.392.001c15.099.014 31.167.845 33.031 2.671.942.917 15.54 20.85 15.54 21.642-.02.587-1.296.715-2.055.74l-47.554-.545-47.533.544zm-1.094 10.672c-.63 0-1.227.068-1.688.143-1.954.309-4.005 1.128-4.99 1.992-3.484 3.055-4.95 6.77-5.083 8.52-.131 1.717 2.323 2.965 2.988 3.205l.492.204c6.446 2.692 10.964 4.166 13.43 4.38 4.103.358 4.87-.237 5.64-1.676.372-.7.465-1.896.25-3.279-.143-.928-.429-1.888-.764-2.568-.787-1.572-6.775-9.467-7.24-9.946-.734-.764-1.933-.975-3.035-.975zm7.12 18.968c-.573 0-1.236-.033-2.008-.1-2.51-.218-7.072-1.702-13.558-4.411-.249-.105-.413-.174-.476-.198-.031-.01-3.438-1.35-3.264-3.635.167-2.183 1.875-5.87 5.227-8.808 1.04-.912 3.18-1.773 5.204-2.094 1.35-.217 3.81-.383 5.096.958.47.482 6.518 8.46 7.315 10.053.36.726.653 1.707.805 2.691.133.865.272 2.476-.296 3.545-.693 1.295-1.405 2-4.046 2zm90.187-18.751c-1.376 0-2.458.336-3.075.978-.47.484-6.463 8.378-7.241 9.94-.314.643-.58 1.503-.73 2.358-.257 1.479-.178 2.754.217 3.497.77 1.434 1.534 2.023 5.639 1.676 2.465-.214 6.985-1.69 13.431-4.382.255-.106.424-.177.488-.2l.004-.003c.664-.24 3.118-1.488 2.987-3.205-.133-1.749-1.597-5.463-5.085-8.528-.98-.861-3.014-1.677-4.945-1.983-.6-.099-1.167-.148-1.69-.148zm-7.134 18.97c-2.662 0-3.376-.703-4.072-1.997-.438-.826-.533-2.2-.26-3.77.157-.893.436-1.795.768-2.474.787-1.581 6.843-9.559 7.316-10.046 1.3-1.353 3.778-1.18 5.14-.956 2.033.324 4.107 1.161 5.159 2.085 3.355 2.948 5.062 6.636 5.228 8.816.172 2.254-3.138 3.586-3.264 3.636-.063.023-.227.092-.476.196-6.487 2.71-11.049 4.194-13.559 4.413-.76.065-1.414.096-1.98.096zM32.72 68.136h68.05v-6.163c0-.471-.05-.909-.155-1.336l-.006-.059c-.21-.934-.681-1.86-1.354-2.635-1.161-1.355-2.848-2.131-4.629-2.131H38.864c-2.85 0-5.369 2.024-5.987 4.812-.107.44-.157.878-.157 1.35v6.162zm68.477.425H32.294v-6.588c0-.506.054-.976.168-1.437.66-2.986 3.353-5.15 6.402-5.15h55.762c1.907 0 3.71.83 4.95 2.28.72.826 1.223 1.818 1.454 2.867l.005.054c.106.41.162.88.162 1.386v6.588zM35.439 84.174c1.268 3.35 4.502 5.597 8.06 5.597h46.977c2.002 0 3.957-.714 5.504-2.01 1.655-1.396 2.728-3.329 3.02-5.44.055-.374.083-.773.083-1.19v-.628H34.885v.629c0 1.025.181 2.035.54 2.999l.014.043zm55.037 6.023H43.5c-3.748 0-7.154-2.375-8.475-5.91l-.013-.045c-.368-1-.554-2.046-.554-3.11v-1.055H99.51v1.055c0 .437-.03.858-.087 1.25-.306 2.214-1.431 4.24-3.167 5.705-1.625 1.36-3.678 2.11-5.78 2.11zM6.426 77.312c.143.973.845 4.682 3.473 7.872 3.148 3.812 8.97 4.298 12.45 4.588 1 .087 2.33.118 3.839.093h.001c2.236-.022 4.573-.144 6.029-.25-.959-.17-2.271-.403-3.56-.63l-7.465-1.31-2.291-9.497-.024-.305c-2.644-.117-5.275-.236-7.454-.336l-2.91-.133c-.994-.047-1.728-.077-2.089-.092zM25.186 90.3c-1.11 0-2.09-.034-2.875-.103-3.545-.297-9.479-.791-12.742-4.742-3.124-3.793-3.597-8.3-3.602-8.343l-.023-.244.244.01s.896.034 2.345.102l2.91.132c2.23.103 4.935.226 7.641.345l.188.009.049.647 2.22 9.193 7.19 1.26c3.429.606 4.943.876 5.053.907l.616.18-.601.225c-.295.11-4.285.38-7.605.413-.346.006-.682.01-1.008.01zm76.084-.683c1.453.105 3.792.227 6.03.249 1.51.026 2.838-.006 3.84-.093 3.48-.29 9.302-.776 12.45-4.588 2.627-3.19 3.329-6.899 3.474-7.872-.362.015-1.095.045-2.09.092l-2.91.133c-2.178.1-4.81.219-7.452.336l-.02.27-2.297 9.533-7.457 1.308c-1.293.227-2.608.46-3.568.632zm7.032.683c-.326 0-.662-.003-1.008-.009-3.319-.032-7.31-.304-7.605-.413l-.6-.224.615-.18c.11-.032 1.626-.302 5.06-.909l7.183-1.26 2.225-9.226.043-.613.189-.009c2.706-.12 5.411-.242 7.64-.345l2.91-.132c1.45-.068 2.346-.102 2.346-.102l.244-.01-.024.244c-.005.044-.477 4.55-3.602 8.343-3.262 3.951-9.196 4.445-12.742 4.742-.785.069-1.765.103-2.874.103zM9.054 35.397c-4.047 6.738-6.528 11.135-7.176 12.718C-.16 53.134.18 67.68 1.397 74.662c.546 3.141 1.726 6.272 2.619 8.344 1.575 3.663 3.308 6.472 4.206 7.353 1.712 1.675 2.076 1.973 2.834 1.973.152 0 1.73.043 4.345.116 2.713.074 6.501.18 10.796.293 24.503.657 37.32.906 39.18.758l1.35-.094 1.383.094c1.866.148 14.682-.1 39.183-.758 4.293-.114 8.08-.219 10.794-.293 2.616-.073 4.195-.116 4.348-.116.756 0 1.121-.298 2.833-1.973.898-.88 2.63-3.68 4.206-7.328.897-2.073 2.08-5.207 2.619-8.368 1.217-6.983 1.558-21.528-.482-26.548-.647-1.581-3.127-5.979-7.175-12.718l-.071-.103c-.955-1.592-1.96-3.25-2.982-4.927-.02-.028-.034-.05-.044-.07-1.021-1.666-2.069-3.368-3.11-5.054-5.743-9.302-10.83-17.24-11.372-17.86-1.155-1.324-4.676-4.17-7.285-4.888C95.874 1.465 83.208.793 67.304.783h-.751c-16.12.01-28.93.682-32.635 1.712-2.608.716-6.13 3.563-7.285 4.888-.535.613-5.513 8.378-11.374 17.853-1.039 1.684-2.087 3.395-3.118 5.08l-.032.046c-1.025 1.681-2.03 3.34-2.984 4.932l-.07.103zm54.147 58.568c-4.877 0-17.084-.263-37.015-.798-4.295-.114-8.084-.219-10.797-.294-2.521-.07-4.186-.116-4.333-.116-.953 0-1.435-.434-3.132-2.094-1.1-1.08-2.868-4.158-4.3-7.489-.902-2.093-2.093-5.257-2.647-8.439-1.069-6.136-1.704-21.341.507-26.78.833-2.037 4.411-8.129 7.267-12.881l.07-.103c.936-1.56 1.92-3.185 2.922-4.826l.033-.049c1.032-1.688 2.081-3.4 3.12-5.083 5.37-8.68 10.81-17.216 11.416-17.91 1.22-1.398 4.766-4.27 7.493-5.019C38.348.822 54.285.365 66.553.357h.75c12.105.008 27.849.465 32.383 1.727 2.69.741 6.307 3.661 7.492 5.02.626.716 6.066 9.256 11.415 17.917 1.04 1.685 2.088 3.387 3.12 5.072.02.03.033.048.042.069.993 1.625 1.977 3.249 2.914 4.81l.07.102c2.856 4.753 6.434 10.846 7.267 12.88 2.21 5.44 1.577 20.645.507 26.781-.545 3.202-1.741 6.37-2.648 8.465-1.432 3.316-3.2 6.385-4.299 7.463-1.696 1.66-2.18 2.094-3.131 2.094-.147 0-1.813.046-4.336.116-2.713.075-6.501.18-10.795.294-24.517.657-37.345.907-39.226.755l-1.351-.093-1.319.093c-.351.03-1.085.043-2.207.043z" mask="url(#st94p5e9cb)"/>
            </g>
            <path fill="#000" d="M18.487 42.971c-.747 0-1.494.166-2.158.481-1.78.823-2.93 2.608-2.93 4.549 0 2.779 2.283 5.038 5.088 5.038 2.338 0 4.363-1.572 4.923-3.821.104-.375.156-.782.156-1.217 0-2.774-2.278-5.03-5.079-5.03m0 10.494c-3.04 0-5.514-2.451-5.514-5.464 0-2.106 1.247-4.043 3.175-4.934.719-.341 1.529-.521 2.34-.521 3.035 0 5.505 2.447 5.505 5.455 0 .473-.058.918-.17 1.325-.608 2.435-2.802 4.139-5.336 4.139M16.6 39.012l-.419-.08c.377-1.955.929-3.933 1.638-5.88.865-2.393 1.638-3.555 2.259-4.488.12-.18.233-.351.342-.524l.36.228c-.11.174-.227.349-.347.531-.608.914-1.365 2.053-2.214 4.398-.701 1.927-1.247 3.883-1.62 5.815M66.752 53.176c-7.258-.085-14.544-.18-20.86-.264-8.022-.11-13.585-.18-16.532-.204l.004-.426c2.947.025 8.51.094 16.534.204 6.315.085 13.601.179 20.845.264 7.248-.085 14.534-.179 20.85-.264 7.944-.109 13.673-.18 16.568-.204l.003.426c-2.893.024-8.622.095-16.566.204-6.316.085-13.602.179-20.846.264M116.932 39.231c-.363-1.98-.922-4.01-1.66-6.033-.85-2.347-1.607-3.486-2.216-4.4-.12-.182-.236-.356-.347-.53l.36-.227c.11.17.223.342.343.521.62.935 1.393 2.096 2.26 4.49.746 2.046 1.312 4.1 1.68 6.103l-.42.076z"/>
            <path stroke="#000" stroke-width=".5" d="M23.618 49.269c-.571 2.288-2.66 3.982-5.13 3.982-2.924 0-5.302-2.357-5.302-5.25 0-2.094 1.244-3.907 3.051-4.742.682-.322 1.449-.501 2.25-.501 2.915 0 5.292 2.357 5.292 5.242 0 .443-.05.869-.161 1.269zm5.744 3.225c-.154-.996-.452-1.957-.784-2.63-.767-1.533-6.75-9.455-7.279-10-1.014-1.055-2.957-1.208-4.908-.894-2.046.324-4.108 1.175-5.097 2.043-3.485 3.056-5.01 6.775-5.156 8.663-.145 1.899 2.54 3.21 3.128 3.422.58.222 9.767 4.23 13.977 4.595 4.21.367 5.045-.288 5.846-1.786.443-.834.469-2.145.273-3.413zM115.003 53.464c-2.532 0-4.67-1.779-5.182-4.145-.077-.349-.12-.723-.12-1.098 0-2.885 2.387-5.242 5.302-5.242.741 0 1.44.153 2.079.425 1.892.8 3.221 2.665 3.221 4.817 0 2.894-2.377 5.243-5.3 5.243zm7.192-12.238c-.988-.868-3.017-1.71-5.053-2.034-1.96-.323-3.93-.17-4.952.893-.528.545-6.52 8.468-7.278 9.993-.307.629-.588 1.497-.75 2.416-.23 1.327-.23 2.749.239 3.634.8 1.49 1.636 2.145 5.846 1.787 4.21-.366 13.397-4.374 13.977-4.596.588-.212 3.272-1.523 3.127-3.42-.144-1.899-1.67-5.61-5.156-8.673z"/>
            <path fill="#000" d="M115.003 43.193c-2.806 0-5.088 2.255-5.088 5.029 0 .353.038.707.114 1.053.498 2.304 2.59 3.977 4.974 3.977 2.805 0 5.087-2.256 5.087-5.03 0-2.013-1.213-3.826-3.092-4.62-.635-.272-1.307-.409-1.995-.409m0 10.484c-2.584 0-4.85-1.813-5.39-4.312-.083-.374-.124-.76-.124-1.143 0-3.008 2.474-5.454 5.514-5.454.746 0 1.474.149 2.163.443 2.035.859 3.35 2.827 3.35 5.011 0 3.008-2.473 5.455-5.513 5.455M33.734 90.386c-.058 0-.118-.023-.159-.064-.083-.084-.083-.218 0-.302.042-.041.096-.063.154-.062.142-.003.218.094.218.213 0 .087-.054.167-.133.2-.026.01-.052.015-.08.015M29.396 78.997c-.012 0-.026-.001-.039-.004-.09-.014-1.133-.104-3.18-.235-.117-.008-.206-.108-.198-.226.008-.118.104-.225.226-.198 1.922.122 3.111.22 3.23.24.116.022.192.133.17.25-.019.101-.108.173-.209.173M21.35 88.264c-.03-.005-.108-.006-.228-.01-3.89-.116-12.928-1.302-12.812-9.745v-.82h.426v.823c-.11 8.067 8.634 9.203 12.4 9.317.287.01.311.01.37.048l-.113.18-.042.207zM99.756 90.386c-.028 0-.054-.005-.08-.015-.079-.033-.133-.113-.133-.2 0-.12.094-.225.218-.213.056-.005.112.02.154.062.083.084.083.218 0 .302-.041.041-.1.064-.16.064M104.097 78.996c-.102 0-.193-.072-.212-.175-.02-.115.055-.225.17-.246.118-.022 1.306-.119 3.23-.241.11-.016.219.08.226.198.007.118-.081.218-.199.226-2.045.13-3.09.22-3.18.235-.012.002-.023.003-.035.003M112.138 88.264l-.022-.177-.134-.21c.06-.038.084-.039.372-.048 3.765-.114 12.51-1.25 12.4-9.313v-.828h.425v.824c.116 8.44-8.92 9.626-12.811 9.742-.12.004-.199.005-.23.01"/>
            <mask id="ypfry4lxad" fill="#fff">
                <use xlink:href="#6x8a6f8jlc"/>
            </mask>
            <path fill="#000" d="M34.332 58.513L99.64 58.513 99.64 58.088 34.332 58.088zM32.509 61.29L100.98 61.29 100.98 60.865 32.509 60.865zM32.509 64.066L100.98 64.066 100.98 63.641 32.509 63.641zM32.509 66.843L100.98 66.843 100.98 66.418 32.509 66.418zM37.942 88.631L96.115 88.631 96.115 88.206 37.942 88.206zM36.198 86.774L97.698 86.774 97.698 86.348 36.198 86.348zM35.088 84.915L98.649 84.915 98.649 84.489 35.088 84.489zM35.088 83.058L99.297 83.058 99.297 82.632 35.088 82.632z" mask="url(#ypfry4lxad)"/>
            <path fill="#000" d="M35.438 84.668c1.268 3.35 4.503 5.596 8.062 5.596h46.975c2.003 0 3.958-.714 5.506-2.01 1.655-1.396 2.727-3.328 3.02-5.44.054-.373.082-.772.082-1.188v-.63H34.884v.63c0 1.025.182 2.034.54 2.998l.014.044zm55.037 6.022H43.5c-3.748 0-7.154-2.375-8.474-5.91l-.014-.044c-.367-1-.554-2.046-.554-3.11V80.57h65.051v1.055c0 .436-.029.858-.088 1.25-.305 2.213-1.43 4.24-3.167 5.705-1.624 1.36-3.676 2.109-5.779 2.109z" mask="url(#ypfry4lxad)"/>
            <path stroke="#000" stroke-width=".5" d="M15.163 84.885c-1.465 0-2.667-1.156-2.667-2.57 0-1.413 1.202-2.56 2.667-2.56 1.475 0 2.668 1.147 2.668 2.56 0 1.414-1.193 2.57-2.668 2.57zm11.028 3.94c-2.573-.45-4.823-.841-4.823-.841l-2.259-9.362-.034-.46c-4.048-.178-8.096-.366-10.55-.477-1.45-.068-2.344-.102-2.344-.102s.435 4.444 3.554 8.23c3.127 3.787 8.718 4.34 12.596 4.664 1.074.094 2.446.119 3.86.094 3.512-.034 7.304-.315 7.534-.4-.145-.043-4.125-.741-7.534-1.345z" mask="url(#ypfry4lxad)"/>
            <path fill="#000" d="M15.163 79.967c-1.353 0-2.454 1.053-2.454 2.349 0 1.3 1.101 2.357 2.454 2.357 1.354 0 2.455-1.058 2.455-2.357 0-1.296-1.101-2.35-2.455-2.35m0 5.133c-1.588 0-2.88-1.249-2.88-2.783 0-1.53 1.292-2.775 2.88-2.775 1.589 0 2.881 1.244 2.881 2.775 0 1.534-1.292 2.783-2.88 2.783M4.033 84.592v10.762c0 3.772 3.078 6.842 6.86 6.842h8.233c3.778 0 6.852-3.07 6.852-6.842v-1.7c-4.209-.11-7.919-.214-10.589-.287-2.522-.07-4.187-.116-4.333-.116-.952 0-1.436-.434-3.132-2.094-.997-.98-2.543-3.602-3.89-6.565m15.092 18.03h-8.232c-4.019 0-7.287-3.26-7.287-7.268V82.549l.408.95c1.575 3.664 3.309 6.472 4.208 7.353 1.71 1.675 2.076 1.974 2.833 1.974.152 0 1.73.043 4.344.116 2.715.074 6.503.178 10.797.292l.207.006v2.114c0 4.007-3.265 7.268-7.278 7.268" mask="url(#ypfry4lxad)"/>
            <path stroke="#000" stroke-width=".5" d="M118.326 84.885c-1.474 0-2.676-1.156-2.676-2.57 0-1.413 1.202-2.56 2.676-2.56 1.466 0 2.668 1.147 2.668 2.56 0 1.414-1.202 2.57-2.668 2.57zm6.64-7.2c-2.455.11-6.503.299-10.552.478l-.034.46-2.258 9.361s-2.25.391-4.824.842c-3.409.604-7.389 1.302-7.533 1.344.23.086 4.022.367 7.533.401 1.415.025 2.787 0 3.86-.094 3.879-.324 9.47-.877 12.597-4.664 3.12-3.786 3.554-8.23 3.554-8.23s-.895.034-2.344.102z" mask="url(#ypfry4lxad)"/>
            <path fill="#000" d="M118.326 79.967c-1.357 0-2.463 1.053-2.463 2.349 0 1.3 1.106 2.357 2.463 2.357 1.354 0 2.455-1.058 2.455-2.357 0-1.296-1.101-2.35-2.455-2.35m0 5.133c-1.593 0-2.889-1.249-2.889-2.783 0-1.53 1.296-2.775 2.89-2.775 1.588 0 2.88 1.244 2.88 2.775 0 1.534-1.292 2.783-2.88 2.783M107.511 93.654v1.7c0 3.773 3.074 6.842 6.852 6.842h8.233c3.783 0 6.86-3.07 6.86-6.843v-10.74c-1.347 2.952-2.894 5.566-3.89 6.544-1.697 1.66-2.18 2.094-3.132 2.094-.147 0-1.813.046-4.335.116-2.67.074-6.38.176-10.588.287m15.085 8.967h-8.233c-4.013 0-7.278-3.26-7.278-7.268v-2.112l.207-.006c4.294-.114 8.082-.219 10.796-.294 2.615-.072 4.194-.116 4.346-.116.758 0 1.122-.297 2.834-1.972.898-.881 2.63-3.681 4.206-7.328l.409-.947v12.775c0 4.008-3.269 7.268-7.287 7.268M27.004 69.105h-.014c-2.766-.072-6.765-.221-10.105-.525-5.332-.487-15.017-2.31-16.714-3.145l.187-.382c1.53.754 10.846 2.58 16.566 3.103 3.328.303 7.317.452 10.077.523.014-.001.05.002.056-.048.005-.048-.026-.054-.043-.057l-1.284-.248C17.86 66.812 5.965 64.524.107 60.4l.246-.348c5.782 4.072 17.622 6.35 25.458 7.858l1.284.248c.25.047.413.267.385.52-.027.25-.226.428-.476.428M106.486 69.105c-.25 0-.45-.178-.477-.427-.027-.254.135-.474.385-.521l1.286-.248c7.834-1.508 19.674-3.786 25.458-7.858l.245.348c-5.858 4.125-17.752 6.413-25.622 7.927l-1.286.248c-.015.003-.047.01-.042.058.005.049.037.046.055.047 2.76-.071 6.75-.22 10.079-.523 5.718-.523 15.034-2.349 16.565-3.103l.188.382c-1.699.836-11.384 2.658-16.715 3.145-3.34.304-7.34.453-10.106.525h-.013z" mask="url(#ypfry4lxad)"/>
        </g>
        <path fill="#000" fill-rule="nonzero" d="M139.596 119.689L141.064 118.824 113.362 71.891 0 71.891 0 73.593 112.388 73.593zM247.727 71.89l-74.654 64.647-1.117-1.286 71.204-61.658h-91.462V71.89h96.029z"/>
        <ellipse cx="139.766" cy="119.394" fill="#FF4722" rx="3.409" ry="3.404"/>
        <ellipse cx="173.003" cy="135.564" fill="#FF4722" rx="3.409" ry="3.404"/>
        <path fill="#000" fill-rule="nonzero" d="M4.525 12.906c2.276 0 3.835-1.838 3.835-4.62 0-2.784-1.534-4.597-3.81-4.597C2.289 3.69.73 5.528.73 8.311s1.534 4.595 3.796 4.595zm.039-1.327c-1.432 0-2.468-1.264-2.468-3.294 0-2.03.998-3.268 2.417-3.268 1.431 0 2.48 1.264 2.48 3.294 0 2.03-1.01 3.268-2.43 3.268zm6.813 1.187v-3.92c0-1.084.499-1.71 1.38-1.71.87 0 1.382.485 1.382 1.838v3.792h1.316V8.923c0-1.978-.83-3-2.39-3-.69 0-1.355.294-1.688.78v-.64h-1.316v6.703h1.316zm11.34.14c.523 0 .97-.127 1.29-.306l.154-1.162c-.243.14-.627.268-.972.268-.485 0-.69-.178-.69-.804V7.264h1.662v-1.2h-1.662V3.46l-1.291.689v1.915h-.959v1.2h.959v3.868c0 1.2.575 1.774 1.508 1.774zm4.55-.14v-3.92c0-1.084.499-1.71 1.38-1.71.87 0 1.381.485 1.381 1.838v3.792h1.317V8.923c0-1.978-.83-3-2.39-3-.69 0-1.355.294-1.688.78V3.46l-1.316.689v8.617h1.316zm8.552.14c1.023 0 1.726-.319 2.314-.88l-.78-.843c-.447.332-.894.536-1.457.536-.818 0-1.547-.549-1.687-1.838h4.436c.012-.14.038-.358.038-.6 0-1.813-.92-3.358-2.825-3.358-1.739 0-2.94 1.226-2.94 3.498 0 2.222 1.329 3.485 2.901 3.485zm1.534-4.11h-3.119c.115-1.073.652-1.685 1.534-1.685 1.087 0 1.521.766 1.585 1.685zm8.706 4.11c.703 0 1.266-.332 1.751-.778v.638h1.304V3.46l-1.304.676V6.69c-.37-.408-1.01-.766-1.687-.766-1.394 0-2.646 1.086-2.646 3.383 0 2.554 1.137 3.6 2.582 3.6zm.243-1.212c-.972 0-1.509-.74-1.509-2.426 0-1.417.512-2.132 1.458-2.132.664 0 1.278.485 1.572.881v2.821c-.345.434-.895.856-1.521.856zm6.072 1.072v-3.83c0-1.136.486-1.723 1.317-1.723.434 0 .728.09 1.01.242l.345-1.25c-.269-.18-.601-.282-1.138-.282-.665 0-1.227.332-1.534.78v-.64h-1.317v6.703h1.317zm4.755-7.57c.46 0 .844-.383.844-.843 0-.472-.383-.855-.844-.855-.473 0-.856.383-.856.855 0 .46.383.843.856.843zm.652 7.57V6.064h-1.316v6.702h1.316zm5.178 0l2.365-6.702H63.93l-1.15 3.638c-.205.651-.384 1.277-.46 1.647-.09-.37-.282-.996-.499-1.647l-1.202-3.638h-1.38l2.403 6.702h1.317zm6.34.14c1.023 0 1.726-.319 2.314-.88l-.78-.843c-.447.332-.894.536-1.457.536-.818 0-1.547-.549-1.687-1.838h4.436c.012-.14.038-.358.038-.6 0-1.813-.92-3.358-2.825-3.358-1.739 0-2.94 1.226-2.94 3.498 0 2.222 1.329 3.485 2.901 3.485zm1.534-4.11h-3.119c.115-1.073.652-1.685 1.534-1.685 1.087 0 1.521.766 1.585 1.685zm4.283 3.97v-3.83c0-1.136.486-1.723 1.317-1.723.434 0 .728.09 1.01.242l.345-1.25c-.269-.18-.601-.282-1.138-.282-.665 0-1.227.332-1.534.78v-.64h-1.317v6.703h1.317zm4.768-5.732l.972-3.204H79.18l-.179 3.204h.882zm4.82 5.872c1.316 0 2.518-.497 2.518-1.978 0-1.264-.767-1.673-2.263-2.247-1.01-.396-1.24-.638-1.24-.97 0-.358.281-.613.92-.613.64 0 1.19.191 1.74.574l.574-1.008c-.6-.434-1.431-.74-2.275-.74-1.342 0-2.288.625-2.288 1.825 0 1.06.524 1.545 1.968 2.106.972.37 1.56.613 1.56 1.124 0 .472-.396.74-1.227.74-.627 0-1.33-.23-1.956-.664l-.601.996c.678.498 1.662.855 2.57.855zm9.83 0c1.317 0 2.518-.497 2.518-1.978 0-1.264-.767-1.673-2.262-2.247-1.01-.396-1.24-.638-1.24-.97 0-.358.28-.613.92-.613s1.189.191 1.739.574l.575-1.008c-.6-.434-1.432-.74-2.276-.74-1.342 0-2.288.625-2.288 1.825 0 1.06.524 1.545 1.969 2.106.971.37 1.56.613 1.56 1.124 0 .472-.397.74-1.228.74-.626 0-1.33-.23-1.956-.664l-.6.996c.677.498 1.661.855 2.569.855zm4.934-7.71c.46 0 .844-.383.844-.843 0-.472-.383-.855-.844-.855-.473 0-.856.383-.856.855 0 .46.383.843.856.843zm.652 7.57V6.064h-1.316v6.702h1.316zm4.296.14c.703 0 1.265-.332 1.751-.778v.638h1.304V3.46l-1.304.676V6.69c-.37-.408-1.01-.766-1.687-.766-1.394 0-2.647 1.086-2.647 3.383 0 2.554 1.138 3.6 2.583 3.6zm.243-1.212c-.972 0-1.509-.74-1.509-2.426 0-1.417.511-2.132 1.457-2.132.665 0 1.279.485 1.573.881v2.821c-.345.434-.895.856-1.521.856zm7.337 1.212c1.023 0 1.726-.319 2.314-.88l-.78-.843c-.447.332-.895.536-1.457.536-.818 0-1.547-.549-1.687-1.838h4.435c.013-.14.039-.358.039-.6 0-1.813-.92-3.358-2.825-3.358-1.739 0-2.94 1.226-2.94 3.498 0 2.222 1.329 3.485 2.901 3.485zm1.534-4.11h-3.119c.115-1.073.652-1.685 1.534-1.685 1.087 0 1.521.766 1.585 1.685zM3.26 28.226c.703 0 1.265-.332 1.751-.78v.64h1.304v-9.307l-1.304.676v2.554c-.37-.409-1.01-.766-1.687-.766-1.394 0-2.646 1.085-2.646 3.383 0 2.553 1.137 3.6 2.582 3.6zm.243-1.213c-.972 0-1.509-.74-1.509-2.426 0-1.417.512-2.132 1.458-2.132.664 0 1.278.485 1.572.881v2.821c-.345.434-.895.856-1.521.856zm6.762 1.213c.729 0 1.38-.345 1.841-.805v.664h1.291V23.49c0-1.519-1.023-2.246-2.518-2.246-.946 0-1.662.204-2.301.6l.511.995c.524-.293 1.061-.421 1.751-.421.819 0 1.266.409 1.266 1.136v.498c-.37-.166-.87-.255-1.496-.255-1.52 0-2.671.676-2.671 2.17 0 1.647 1.24 2.26 2.326 2.26zm.217-1.188c-.869 0-1.29-.447-1.29-1.11 0-.613.536-.996 1.38-.996.716 0 1.176.115 1.534.294v.957c-.307.421-.92.855-1.624.855zm6.98 1.188c1.317 0 2.519-.498 2.519-1.98 0-1.263-.767-1.672-2.263-2.246-1.01-.396-1.24-.638-1.24-.97 0-.358.281-.613.92-.613.64 0 1.19.192 1.739.574l.575-1.008c-.6-.434-1.432-.74-2.275-.74-1.343 0-2.289.625-2.289 1.825 0 1.06.525 1.545 1.97 2.106.97.37 1.559.613 1.559 1.124 0 .472-.397.74-1.228.74-.626 0-1.329-.23-1.955-.664l-.601.996c.677.498 1.662.856 2.57.856zm5.523-.14v-3.92c0-1.085.498-1.71 1.38-1.71.87 0 1.381.484 1.381 1.838v3.791h1.317v-3.842c0-1.98-.831-3-2.39-3-.691 0-1.356.293-1.688.778V18.78l-1.317.69v8.616h1.317zm8.961.14c1.393 0 2.646-1.086 2.646-3.383 0-2.554-1.138-3.6-2.582-3.6-.703 0-1.266.331-1.751.778V18.78l-1.304.676v8.63h1.304v-.625c.37.408 1.01.766 1.687.766zm-.128-1.213c-.665 0-1.278-.485-1.572-.881V23.31c.345-.434.895-.856 1.521-.856.972 0 1.508.74 1.508 2.426 0 1.417-.51 2.132-1.457 2.132zm7.057 1.213c1.725 0 3.03-1.303 3.03-3.524 0-2.093-1.279-3.46-2.992-3.46-1.687 0-2.991 1.303-2.991 3.498 0 2.094 1.265 3.486 2.953 3.486zm.05-1.252c-.996 0-1.674-.804-1.674-2.272 0-1.328.614-2.208 1.61-2.208 1.062 0 1.714.88 1.714 2.246 0 1.226-.652 2.234-1.65 2.234zm6.61 1.252c.729 0 1.38-.345 1.84-.805v.664h1.292V23.49c0-1.519-1.023-2.246-2.519-2.246-.946 0-1.661.204-2.3.6l.51.995c.525-.293 1.062-.421 1.752-.421.818 0 1.266.409 1.266 1.136v.498c-.371-.166-.87-.255-1.496-.255-1.521 0-2.672.676-2.672 2.17 0 1.647 1.24 2.26 2.327 2.26zm.217-1.188c-.87 0-1.291-.447-1.291-1.11 0-.613.537-.996 1.38-.996.717 0 1.177.115 1.535.294v.957c-.307.421-.92.855-1.624.855zm6.123 1.047v-3.83c0-1.136.486-1.723 1.317-1.723.435 0 .729.09 1.01.242l.345-1.25c-.268-.18-.6-.281-1.138-.281-.664 0-1.227.331-1.534.778v-.638H50.56v6.702h1.316zm6.316.14c.703 0 1.265-.331 1.75-.778v.638h1.305V18.78l-1.304.676v2.554c-.37-.409-1.01-.766-1.688-.766-1.393 0-2.646 1.085-2.646 3.383 0 2.553 1.138 3.6 2.583 3.6zm.242-1.212c-.971 0-1.508-.74-1.508-2.426 0-1.417.511-2.132 1.457-2.132.665 0 1.279.485 1.573.881v2.821c-.346.434-.895.856-1.522.856zM3.234 44.809l.665-.575c-1.087-1.225-1.764-2.63-1.764-4.723 0-1.94.626-3.409 1.764-4.673l-.665-.574C1.93 35.502.741 37.187.741 39.574c0 2.311 1.215 4.022 2.493 5.235zm5.42-1.405l2.365-6.702H9.626l-1.15 3.638c-.205.651-.384 1.277-.46 1.647-.09-.37-.282-.996-.5-1.647l-1.2-3.638H4.933l2.404 6.702h1.316zm4.487-7.57c.46 0 .844-.383.844-.843 0-.472-.383-.855-.844-.855-.473 0-.856.383-.856.855 0 .46.383.843.856.843zm.652 7.57v-6.702h-1.316v6.702h1.316zm4.59.14c1.022 0 1.725-.318 2.313-.88l-.78-.843c-.447.332-.894.536-1.457.536-.818 0-1.546-.548-1.687-1.838h4.436c.013-.14.038-.357.038-.6 0-1.813-.92-3.357-2.825-3.357-1.739 0-2.94 1.225-2.94 3.498 0 2.22 1.33 3.485 2.902 3.485zm1.534-4.11h-3.12c.116-1.072.652-1.685 1.535-1.685 1.086 0 1.52.766 1.585 1.685zm5.471 3.97l.895-3.37c.14-.51.281-1.123.345-1.443.064.32.205.92.345 1.43l.908 3.383h1.125l1.866-6.702h-1.304l-.792 3.255c-.128.511-.256 1.137-.333 1.469-.076-.332-.217-.932-.358-1.456l-.907-3.268h-1.061l-.895 3.255c-.14.524-.294 1.137-.37 1.469-.065-.32-.205-.958-.333-1.469l-.793-3.255h-1.304l1.841 6.702h1.125zm8.974.14c.729 0 1.38-.344 1.84-.804v.664h1.292V38.81c0-1.52-1.023-2.247-2.518-2.247-.946 0-1.662.204-2.301.6l.511.995c.524-.293 1.061-.42 1.751-.42.818 0 1.266.408 1.266 1.135v.498c-.37-.166-.87-.255-1.496-.255-1.521 0-2.672.676-2.672 2.17 0 1.647 1.24 2.26 2.327 2.26zm.217-1.187c-.869 0-1.29-.446-1.29-1.11 0-.613.536-.996 1.38-.996.716 0 1.176.115 1.534.294v.957c-.307.421-.92.855-1.624.855zm7.798 1.188c1.394 0 2.647-1.085 2.647-3.383 0-2.553-1.138-3.6-2.583-3.6-.703 0-1.265.332-1.751.778v-3.242l-1.304.676v8.63h1.304v-.625c.37.408 1.01.766 1.687.766zm-.128-1.213c-.664 0-1.278-.485-1.572-.88V38.63c.345-.434.895-.856 1.521-.856.972 0 1.509.74 1.509 2.426 0 1.417-.512 2.132-1.458 2.132zm5.804 1.072v-9.306l-1.317.69v8.616h1.317zm4.59.14c1.022 0 1.725-.318 2.313-.88l-.78-.843c-.447.332-.894.536-1.457.536-.818 0-1.547-.548-1.687-1.838h4.436c.012-.14.038-.357.038-.6 0-1.813-.92-3.357-2.825-3.357-1.739 0-2.94 1.225-2.94 3.498 0 2.22 1.33 3.485 2.901 3.485zm1.533-4.11h-3.119c.115-1.072.652-1.685 1.534-1.685 1.087 0 1.522.766 1.585 1.685zm8.335 4.11c.524 0 .972-.127 1.291-.306l.154-1.161c-.243.14-.627.268-.972.268-.485 0-.69-.179-.69-.805v-3.638h1.662v-1.2h-1.662v-2.604l-1.291.69v1.914h-.959v1.2h.959v3.868c0 1.2.575 1.775 1.508 1.775zm4.551-.14v-3.919c0-1.085.499-1.71 1.38-1.71.87 0 1.382.485 1.382 1.838v3.791h1.316v-3.842c0-1.979-.83-3-2.39-3-.69 0-1.355.293-1.688.778v-3.242l-1.316.69v8.616h1.316zm7.287 0v-3.83c0-1.136.486-1.723 1.317-1.723.434 0 .728.09 1.01.243l.345-1.251c-.269-.18-.601-.281-1.138-.281-.665 0-1.227.332-1.534.778v-.638h-1.317v6.702h1.317zm6.66.14c1.726 0 3.03-1.301 3.03-3.523 0-2.093-1.279-3.46-2.992-3.46-1.687 0-2.99 1.303-2.99 3.499 0 2.093 1.265 3.485 2.952 3.485zm.051-1.25c-.997 0-1.674-.805-1.674-2.273 0-1.327.613-2.208 1.61-2.208 1.061 0 1.713.88 1.713 2.247 0 1.225-.652 2.234-1.649 2.234zm6.942 1.25c.69 0 1.355-.293 1.687-.778v.638h1.317v-6.702h-1.317v3.92c0 1.084-.498 1.71-1.38 1.71-.87 0-1.381-.485-1.381-1.838v-3.792H85.61v3.843c0 1.978.831 3 2.39 3zm7.12 2.324c2.429-.077 3.17-1.06 3.17-3.102v-6.064h-1.316v.626c-.358-.409-.997-.766-1.675-.766-1.38 0-2.646 1.085-2.646 3.383 0 2.553 1.15 3.6 2.582 3.6.703 0 1.253-.332 1.739-.779v.115c0 1.391-.41 1.902-2.301 1.991l.447.996zm.358-3.536c-.972 0-1.508-.74-1.508-2.426 0-1.417.51-2.132 1.457-2.132.665 0 1.278.486 1.572.881v2.822c-.345.434-.895.855-1.521.855zm6.072 1.072v-3.919c0-1.085.499-1.71 1.38-1.71.87 0 1.381.485 1.381 1.838v3.791h1.317v-3.842c0-1.979-.83-3-2.39-3-.69 0-1.355.293-1.688.778v-3.242l-1.317.69v8.616h1.317zM2.89 58.864c.524 0 .972-.128 1.291-.307l.154-1.161c-.243.14-.627.268-.972.268-.486 0-.69-.179-.69-.804V53.22h1.662v-1.2H2.672v-2.604l-1.291.69v1.914H.42v1.2h.96v3.868c0 1.2.575 1.775 1.508 1.775zm4.551-.14v-3.92c0-1.085.499-1.71 1.38-1.71.87 0 1.381.485 1.381 1.838v3.791h1.317v-3.842c0-1.979-.831-3-2.39-3-.69 0-1.356.293-1.688.779v-3.243l-1.317.69v8.616H7.44zm8.552.14c1.023 0 1.726-.32 2.314-.881l-.78-.843c-.447.332-.895.537-1.457.537-.818 0-1.547-.55-1.688-1.839h4.436c.013-.14.039-.357.039-.6 0-1.812-.92-3.357-2.825-3.357-1.739 0-2.94 1.225-2.94 3.498 0 2.221 1.329 3.485 2.901 3.485zm1.534-4.11h-3.119c.115-1.073.652-1.686 1.534-1.686 1.087 0 1.521.766 1.585 1.685zm8.923 3.97l.895-3.37c.14-.511.281-1.124.345-1.443.064.319.205.919.345 1.43l.908 3.382h1.125l1.866-6.702H30.63l-.792 3.256c-.128.51-.256 1.136-.333 1.468-.076-.332-.217-.932-.358-1.456l-.907-3.268h-1.061l-.895 3.256c-.14.523-.294 1.136-.37 1.468-.065-.32-.205-.958-.333-1.468l-.793-3.256h-1.304l1.841 6.702h1.125zm7.696-7.57c.46 0 .843-.384.843-.843 0-.473-.383-.856-.843-.856-.473 0-.857.383-.857.856 0 .46.384.842.857.842zm.652 7.57V52.02H33.48v6.702h1.317zm3.323 0v-3.92c0-1.085.499-1.71 1.381-1.71.87 0 1.38.485 1.38 1.838v3.791h1.317v-3.842c0-1.979-.83-3-2.39-3-.69 0-1.355.293-1.688.779v-.639h-1.316v6.702h1.316zm8.259.14c.703 0 1.265-.332 1.75-.779v.638h1.305v-9.306l-1.304.677v2.553c-.37-.409-1.01-.766-1.688-.766-1.393 0-2.646 1.085-2.646 3.383 0 2.553 1.138 3.6 2.583 3.6zm.242-1.213c-.971 0-1.508-.74-1.508-2.425 0-1.417.511-2.132 1.457-2.132.665 0 1.279.485 1.573.88v2.822c-.345.434-.895.855-1.522.855zm6.93 1.213c1.316 0 2.517-.498 2.517-1.979 0-1.264-.767-1.672-2.262-2.247-1.01-.395-1.24-.638-1.24-.97 0-.357.281-.613.92-.613.64 0 1.19.192 1.739.575l.575-1.009c-.6-.434-1.432-.74-2.275-.74-1.343 0-2.289.625-2.289 1.825 0 1.06.524 1.545 1.969 2.107.971.37 1.56.613 1.56 1.123 0 .473-.397.74-1.228.74-.626 0-1.33-.23-1.956-.663l-.6.996c.677.497 1.661.855 2.57.855zm5.522-.14v-3.92c0-1.085.498-1.71 1.38-1.71.87 0 1.38.485 1.38 1.838v3.791h1.318v-3.842c0-1.979-.831-3-2.391-3-.69 0-1.355.293-1.687.779v-3.243l-1.317.69v8.616h1.317zm6.698-7.57c.46 0 .844-.384.844-.843 0-.473-.384-.856-.844-.856-.473 0-.856.383-.856.856 0 .46.383.842.856.842zm.652 7.57V52.02h-1.317v6.702h1.317zm4.59.14c1.022 0 1.725-.32 2.313-.881l-.78-.843c-.447.332-.894.537-1.457.537-.818 0-1.547-.55-1.687-1.839h4.436c.012-.14.038-.357.038-.6 0-1.812-.92-3.357-2.825-3.357-1.739 0-2.94 1.225-2.94 3.498 0 2.221 1.329 3.485 2.901 3.485zm1.533-4.11h-3.119c.115-1.073.652-1.686 1.534-1.686 1.087 0 1.521.766 1.585 1.685zm4.347 3.97v-9.307l-1.317.69v8.616h1.317zm4.295.14c.703 0 1.266-.332 1.751-.779v.638h1.304v-9.306l-1.304.677v2.553c-.37-.409-1.01-.766-1.687-.766-1.393 0-2.646 1.085-2.646 3.383 0 2.553 1.138 3.6 2.582 3.6zm.243-1.213c-.972 0-1.509-.74-1.509-2.425 0-1.417.512-2.132 1.458-2.132.665 0 1.278.485 1.572.88v2.822c-.345.434-.895.855-1.521.855zM156.223 12.906c2.275 0 3.835-1.838 3.835-4.62 0-2.784-1.534-4.597-3.81-4.597-2.262 0-3.822 1.839-3.822 4.622s1.534 4.595 3.797 4.595zm.038-1.327c-1.431 0-2.467-1.264-2.467-3.294 0-2.03.997-3.268 2.416-3.268 1.432 0 2.48 1.264 2.48 3.294 0 2.03-1.01 3.268-2.429 3.268zm6.814 1.187v-3.92c0-1.084.498-1.71 1.38-1.71.87 0 1.381.485 1.381 1.838v3.792h1.317V8.923c0-1.978-.831-3-2.39-3-.691 0-1.356.294-1.688.78v-.64h-1.317v6.703h1.317zm11.339.14c.524 0 .971-.127 1.291-.306l.153-1.162c-.242.14-.626.268-.971.268-.486 0-.69-.178-.69-.804V7.264h1.661v-1.2h-1.661V3.46l-1.292.689v1.915h-.958v1.2h.958v3.868c0 1.2.576 1.774 1.509 1.774zm4.55-.14v-3.92c0-1.084.5-1.71 1.381-1.71.87 0 1.381.485 1.381 1.838v3.792h1.317V8.923c0-1.978-.831-3-2.39-3-.691 0-1.356.294-1.688.78V3.46l-1.317.689v8.617h1.317zm8.553.14c1.023 0 1.726-.319 2.314-.88l-.78-.843c-.447.332-.895.536-1.457.536-.818 0-1.547-.549-1.688-1.838h4.436c.013-.14.038-.358.038-.6 0-1.813-.92-3.358-2.825-3.358-1.738 0-2.94 1.226-2.94 3.498 0 2.222 1.33 3.485 2.902 3.485zm1.534-4.11h-3.12c.116-1.073.653-1.685 1.535-1.685 1.086 0 1.521.766 1.585 1.685zm8.706 4.11c.703 0 1.265-.332 1.75-.778v.638h1.305V3.46l-1.304.676V6.69c-.37-.408-1.01-.766-1.688-.766-1.393 0-2.646 1.086-2.646 3.383 0 2.554 1.138 3.6 2.583 3.6zm.242-1.212c-.971 0-1.508-.74-1.508-2.426 0-1.417.511-2.132 1.457-2.132.665 0 1.279.485 1.573.881v2.821c-.345.434-.895.856-1.522.856zm6.073 1.072v-3.83c0-1.136.485-1.723 1.316-1.723.435 0 .729.09 1.01.242l.345-1.25c-.268-.18-.6-.282-1.137-.282-.665 0-1.228.332-1.534.78v-.64h-1.317v6.703h1.317zm4.755-7.57c.46 0 .844-.383.844-.843 0-.472-.384-.855-.844-.855-.473 0-.856.383-.856.855 0 .46.383.843.856.843zm.652 7.57V6.064h-1.317v6.702h1.317zm5.177 0l2.365-6.702h-1.393l-1.15 3.638c-.205.651-.384 1.277-.46 1.647-.09-.37-.282-.996-.5-1.647l-1.201-3.638h-1.38l2.403 6.702h1.316zm6.341.14c1.023 0 1.726-.319 2.314-.88l-.78-.843c-.447.332-.895.536-1.457.536-.818 0-1.547-.549-1.688-1.838h4.436c.013-.14.038-.358.038-.6 0-1.813-.92-3.358-2.825-3.358-1.738 0-2.94 1.226-2.94 3.498 0 2.222 1.33 3.485 2.902 3.485zm1.534-4.11h-3.12c.116-1.073.653-1.685 1.535-1.685 1.086 0 1.521.766 1.585 1.685zm4.282 3.97v-3.83c0-1.136.486-1.723 1.317-1.723.435 0 .729.09 1.01.242l.345-1.25c-.268-.18-.6-.282-1.138-.282-.664 0-1.227.332-1.534.78v-.64h-1.316v6.703h1.316zm4.769-5.732l.971-3.204h-1.674l-.18 3.204h.883zm4.82 5.872c1.316 0 2.517-.497 2.517-1.978 0-1.264-.767-1.673-2.262-2.247-1.01-.396-1.24-.638-1.24-.97 0-.358.281-.613.92-.613.64 0 1.189.191 1.739.574l.575-1.008c-.6-.434-1.432-.74-2.275-.74-1.343 0-2.289.625-2.289 1.825 0 1.06.524 1.545 1.969 2.106.971.37 1.56.613 1.56 1.124 0 .472-.397.74-1.228.74-.626 0-1.33-.23-1.956-.664l-.6.996c.677.498 1.661.855 2.57.855zm-81.56 15.32c1.317 0 2.519-.498 2.519-1.98 0-1.263-.767-1.672-2.263-2.246-1.01-.396-1.24-.638-1.24-.97 0-.358.281-.613.92-.613.64 0 1.19.192 1.739.574l.575-1.008c-.6-.434-1.432-.74-2.275-.74-1.342 0-2.288.625-2.288 1.825 0 1.06.524 1.545 1.968 2.106.972.37 1.56.613 1.56 1.124 0 .472-.397.74-1.227.74-.627 0-1.33-.23-1.956-.664l-.601.996c.677.498 1.662.856 2.57.856zm4.935-7.711c.46 0 .843-.383.843-.843 0-.472-.383-.855-.843-.855-.473 0-.857.383-.857.855 0 .46.384.843.857.843zm.652 7.57v-6.702h-1.317v6.702h1.317zm4.295.14c.703 0 1.266-.331 1.751-.778v.638h1.304V18.78l-1.304.676v2.554c-.37-.409-1.01-.766-1.687-.766-1.393 0-2.646 1.085-2.646 3.383 0 2.553 1.137 3.6 2.582 3.6zm.243-1.212c-.972 0-1.509-.74-1.509-2.426 0-1.417.512-2.132 1.458-2.132.664 0 1.278.485 1.572.881v2.821c-.345.434-.895.856-1.521.856zm7.338 1.213c1.022 0 1.725-.32 2.313-.881l-.78-.843c-.447.332-.894.536-1.457.536-.818 0-1.546-.549-1.687-1.838h4.436c.013-.14.038-.357.038-.6 0-1.813-.92-3.357-2.825-3.357-1.739 0-2.94 1.225-2.94 3.497 0 2.222 1.33 3.486 2.902 3.486zm1.534-4.111h-3.12c.116-1.072.652-1.685 1.534-1.685 1.087 0 1.522.766 1.586 1.685zm8.705 4.11c.703 0 1.266-.331 1.752-.778v.638h1.303V18.78l-1.303.676v2.554c-.371-.409-1.01-.766-1.688-.766-1.393 0-2.646 1.085-2.646 3.383 0 2.553 1.138 3.6 2.582 3.6zm.243-1.212c-.971 0-1.508-.74-1.508-2.426 0-1.417.511-2.132 1.457-2.132.665 0 1.278.485 1.572.881v2.821c-.345.434-.895.856-1.52.856zm7.389 1.213c1.726 0 3.03-1.303 3.03-3.524 0-2.093-1.279-3.46-2.992-3.46-1.687 0-2.991 1.303-2.991 3.498 0 2.094 1.266 3.486 2.953 3.486zm.051-1.252c-.997 0-1.675-.804-1.675-2.272 0-1.328.614-2.208 1.611-2.208 1.061 0 1.713.88 1.713 2.246 0 1.226-.652 2.234-1.649 2.234zm7.236 1.252c1.725 0 3.03-1.303 3.03-3.524 0-2.093-1.28-3.46-2.992-3.46-1.688 0-2.991 1.303-2.991 3.498 0 2.094 1.265 3.486 2.953 3.486zm.05-1.252c-.996 0-1.674-.804-1.674-2.272 0-1.328.614-2.208 1.61-2.208 1.062 0 1.714.88 1.714 2.246 0 1.226-.652 2.234-1.65 2.234zm5.92 1.111v-3.83c0-1.136.485-1.723 1.316-1.723.435 0 .729.09 1.01.242l.345-1.25c-.268-.18-.6-.281-1.138-.281-.664 0-1.227.331-1.534.778v-.638h-1.316v6.702h1.316zm9.74 1.404l.665-.574c-1.086-1.226-1.764-2.63-1.764-4.724 0-1.94.626-3.408 1.764-4.672l-.665-.574c-1.303 1.238-2.492 2.923-2.492 5.31 0 2.311 1.214 4.022 2.492 5.234zm4.884-1.263c1.726 0 3.03-1.303 3.03-3.524 0-2.093-1.279-3.46-2.992-3.46-1.687 0-2.991 1.303-2.991 3.498 0 2.094 1.265 3.486 2.953 3.486zm.05-1.252c-.996 0-1.674-.804-1.674-2.272 0-1.328.614-2.208 1.611-2.208 1.061 0 1.713.88 1.713 2.246 0 1.226-.652 2.234-1.65 2.234zm5.92 1.111v-3.919c0-1.085.498-1.71 1.38-1.71.87 0 1.38.484 1.38 1.838v3.791h1.318v-3.842c0-1.98-.831-3-2.39-3-.691 0-1.356.293-1.688.778v-.638h-1.317v6.702h1.317zm11.428.14c.729 0 1.38-.344 1.84-.804v.664h1.292V23.49c0-1.519-1.023-2.246-2.518-2.246-.946 0-1.662.204-2.301.6l.511.995c.524-.293 1.061-.421 1.751-.421.819 0 1.266.409 1.266 1.136v.498c-.37-.166-.87-.255-1.496-.255-1.521 0-2.671.676-2.671 2.17 0 1.647 1.24 2.26 2.326 2.26zm.217-1.187c-.869 0-1.29-.447-1.29-1.11 0-.613.536-.996 1.38-.996.716 0 1.176.115 1.534.294v.957c-.307.421-.92.855-1.624.855zm-80.83 16.507c1.317 0 2.519-.498 2.519-1.979 0-1.264-.767-1.672-2.263-2.247-1.01-.396-1.24-.638-1.24-.97 0-.358.281-.613.92-.613.64 0 1.19.192 1.739.575l.575-1.009c-.6-.434-1.432-.74-2.275-.74-1.342 0-2.288.625-2.288 1.825 0 1.06.524 1.545 1.968 2.107.972.37 1.56.612 1.56 1.123 0 .472-.397.74-1.227.74-.627 0-1.33-.23-1.956-.663l-.601.995c.677.498 1.662.856 2.57.856zm6.124 0c.524 0 .971-.128 1.29-.307l.154-1.161c-.243.14-.626.268-.971.268-.486 0-.69-.179-.69-.805v-3.638h1.661v-1.2h-1.662v-2.604l-1.29.69v1.914h-.96v1.2h.96v3.868c0 1.2.574 1.775 1.508 1.775zm3.963-7.711c.46 0 .843-.383.843-.843 0-.472-.383-.855-.843-.855-.473 0-.857.383-.857.855 0 .46.384.843.857.843zm.651 7.57v-6.702h-1.316v6.702h1.316zm4.59.14c1.214 0 1.879-.587 2.403-1.25l-.844-.83c-.524.549-.894.83-1.52.83-1.05 0-1.612-.945-1.612-2.26 0-1.366.614-2.221 1.573-2.221.6 0 1.086.255 1.636.817l.78-.932c-.627-.74-1.394-1.136-2.378-1.136-1.636 0-2.94 1.29-2.94 3.51 0 2.094 1.265 3.473 2.902 3.473zm5.407-.14v-1.978l1.023-1.354 1.483 3.332h1.432l-2.02-4.455 1.7-2.247h-1.496l-1.393 1.953c-.23.32-.563.83-.742 1.098 0-.332.013-1.021.013-1.43v-4.225l-1.317.69v8.616h1.317zm8.028.14c1.023 0 1.726-.318 2.314-.88l-.78-.843c-.447.332-.895.536-1.457.536-.818 0-1.547-.548-1.687-1.838h4.435c.013-.14.039-.357.039-.6 0-1.813-.92-3.357-2.825-3.357-1.739 0-2.94 1.225-2.94 3.498 0 2.22 1.329 3.485 2.901 3.485zm1.534-4.11h-3.119c.115-1.072.652-1.685 1.534-1.685 1.087 0 1.521.766 1.585 1.685zm4.283 3.97v-3.83c0-1.136.485-1.723 1.316-1.723.435 0 .73.09 1.01.243l.345-1.251c-.268-.18-.6-.281-1.137-.281-.665 0-1.227.332-1.534.778v-.638h-1.317v6.702h1.317zm8.207-7.57c.46 0 .843-.383.843-.843 0-.472-.383-.855-.843-.855-.473 0-.857.383-.857.855 0 .46.384.843.857.843zm.652 7.57v-6.702h-1.317v6.702h1.317zm3.323 0v-3.919c0-1.085.499-1.71 1.381-1.71.87 0 1.38.485 1.38 1.838v3.791h1.317v-3.842c0-1.979-.83-3-2.39-3-.69 0-1.355.293-1.688.778v-.638h-1.316v6.702h1.316zm11.34.14c.523 0 .97-.127 1.29-.306l.154-1.161c-.243.14-.626.268-.972.268-.485 0-.69-.179-.69-.805v-3.638h1.662v-1.2h-1.662v-2.604l-1.291.69v1.914h-.959v1.2h.959v3.868c0 1.2.575 1.775 1.508 1.775zm4.55-.14v-3.919c0-1.085.499-1.71 1.38-1.71.87 0 1.382.485 1.382 1.838v3.791h1.316v-3.842c0-1.979-.83-3-2.39-3-.69 0-1.355.293-1.688.778v-3.242l-1.316.69v8.616h1.316zm8.552.14c1.023 0 1.726-.318 2.314-.88l-.78-.843c-.447.332-.894.536-1.457.536-.818 0-1.547-.548-1.687-1.838h4.436c.012-.14.038-.357.038-.6 0-1.813-.92-3.357-2.825-3.357-1.739 0-2.94 1.225-2.94 3.498 0 2.22 1.33 3.485 2.901 3.485zm1.534-4.11h-3.119c.115-1.072.652-1.685 1.534-1.685 1.087 0 1.522.766 1.585 1.685zm-72.623 19.43c.703 0 1.266-.332 1.752-.779v.638h1.304v-9.306l-1.304.677v2.553c-.371-.409-1.01-.766-1.688-.766-1.393 0-2.646 1.085-2.646 3.383 0 2.553 1.138 3.6 2.582 3.6zm.243-1.213c-.971 0-1.508-.74-1.508-2.425 0-1.417.511-2.132 1.457-2.132.665 0 1.278.485 1.573.88v2.822c-.346.434-.895.855-1.522.855zm7.39 1.213c1.725 0 3.029-1.302 3.029-3.524 0-2.093-1.279-3.46-2.992-3.46-1.687 0-2.99 1.303-2.99 3.499 0 2.093 1.265 3.485 2.952 3.485zm.05-1.251c-.997 0-1.674-.804-1.674-2.273 0-1.327.613-2.208 1.61-2.208 1.061 0 1.713.88 1.713 2.247 0 1.225-.652 2.234-1.649 2.234zm7.236 1.25c1.726 0 3.03-1.301 3.03-3.523 0-2.093-1.279-3.46-2.992-3.46-1.687 0-2.991 1.303-2.991 3.499 0 2.093 1.265 3.485 2.953 3.485zm.05-1.25c-.996 0-1.674-.804-1.674-2.273 0-1.327.614-2.208 1.611-2.208 1.061 0 1.713.88 1.713 2.247 0 1.225-.652 2.234-1.65 2.234zm5.92 1.11v-3.83c0-1.136.485-1.723 1.316-1.723.435 0 .729.09 1.01.243l.345-1.251c-.268-.179-.6-.281-1.137-.281-.665 0-1.228.332-1.534.779v-.639h-1.317v6.702h1.317zm8.207-7.57c.46 0 .843-.383.843-.842 0-.473-.383-.856-.843-.856-.473 0-.857.383-.857.856 0 .46.384.842.857.842zm-1.624 10.034c1.854-.383 2.276-1.085 2.276-2.77v-6.396h-1.317v6.422c0 1.148-.18 1.404-1.406 1.748l.447.996zm6.29-2.323c.728 0 1.38-.345 1.84-.804v.663h1.292v-4.595c0-1.52-1.023-2.247-2.519-2.247-.946 0-1.662.204-2.3.6l.51.996c.525-.294 1.062-.422 1.752-.422.818 0 1.265.409 1.265 1.136v.498c-.37-.166-.869-.255-1.495-.255-1.521 0-2.672.677-2.672 2.17 0 1.647 1.24 2.26 2.327 2.26zm.217-1.187c-.87 0-1.291-.447-1.291-1.111 0-.613.537-.996 1.38-.996.716 0 1.177.115 1.534.294v.957c-.306.422-.92.856-1.623.856zm6.123 1.046v-3.919c0-1.085.41-1.71 1.291-1.71.87 0 1.292.485 1.292 1.838v3.791h1.316v-3.919c0-1.085.41-1.71 1.291-1.71.87 0 1.291.485 1.291 1.838v3.791h1.317v-3.842c0-1.979-.741-3-2.3-3-1.05 0-1.573.383-2.059.983-.358-.638-.933-.983-1.84-.983-.691 0-1.266.293-1.599.779v-.639h-1.316v6.702h1.316zm12.681.14c1.394 0 2.647-1.084 2.647-3.382 0-2.553-1.138-3.6-2.583-3.6-.703 0-1.265.332-1.75.779v-3.243l-1.305.677v8.63h1.304v-.626c.37.408 1.01.766 1.687.766zm-.127-1.212c-.665 0-1.279-.485-1.573-.88v-2.822c.345-.434.895-.855 1.522-.855.971 0 1.508.74 1.508 2.425 0 1.417-.511 2.132-1.457 2.132zm4.73 2.464c1.303-1.238 2.492-2.924 2.492-5.31 0-2.311-1.214-4.022-2.492-5.235l-.665.575c1.086 1.225 1.764 2.63 1.764 4.723 0 1.94-.626 3.409-1.764 4.672l.665.575z"/>
    </g>
</svg>
