<svg xmlns="http://www.w3.org/2000/svg" xmlns:xlink="http://www.w3.org/1999/xlink" width="50" height="25" viewBox="0 0 50 25">
    <defs>
        <path id="gxfnumd35a" d="M0.623 1.123L8.747 1.123 8.747 11.547 0.623 11.547z"/>
        <path id="zoe5jcuuec" d="M0.694 1.123L8.818 1.123 8.818 11.547 0.694 11.547z"/>
        <path id="xb8uygb5le" d="M0 23.055L49.562 23.055 49.562 0.001 0 0.001z"/>
    </defs>
    <g fill="none" fill-rule="evenodd" transform="translate(0 .91)">
        <g transform="translate(5 11.508)">
            <mask id="05nyc46chb" fill="#fff">
                <use xlink:href="#gxfnumd35a"/>
            </mask>
            <path fill="#EF4B2B" d="M4.685 3.048c-1.413 0-2.563 1.474-2.563 3.287s1.15 3.288 2.563 3.288c1.413 0 2.563-1.475 2.563-3.288 0-1.813-1.15-3.287-2.563-3.287m0 8.5c-2.24 0-4.062-2.34-4.062-5.213 0-2.874 1.822-5.212 4.062-5.212s4.062 2.338 4.062 5.212c0 2.874-1.822 5.213-4.062 5.213" mask="url(#05nyc46chb)"/>
        </g>
        <g transform="translate(35 11.508)">
            <mask id="zpj4wd2kgd" fill="#fff">
                <use xlink:href="#zoe5jcuuec"/>
            </mask>
            <path fill="#EF4B2B" d="M4.756 3.048c-1.413 0-2.563 1.474-2.563 3.287s1.15 3.288 2.563 3.288c1.413 0 2.563-1.475 2.563-3.288 0-1.813-1.15-3.287-2.563-3.287m0 8.5c-2.24 0-4.062-2.34-4.062-5.213 0-2.874 1.822-5.212 4.062-5.212s4.062 2.338 4.062 5.212c0 2.874-1.822 5.213-4.062 5.213" mask="url(#zpj4wd2kgd)"/>
        </g>
        <mask id="b1nry29byf" fill="#fff">
            <use xlink:href="#xb8uygb5le"/>
        </mask>
        <path fill="#EF4B2B" d="M12.997 19.806L36.443 19.806 36.443 17.882 12.997 17.882z" mask="url(#b1nry29byf)"/>
        <path fill="#EF4B2B" d="M49.55 19.806h-6.481v-1.924h4.99c-.024-2.07-.187-4.29-.457-4.844-.63-1.287-1.656-2.208-2.813-2.526l-8.692-2.429-3.737-2.495c-2.66-1.777-5.517-2.925-8.494-3.413-1.793-.294-3.613-.331-5.408-.108l-1.51.186c-2.501.31-4.95 1.084-7.278 2.302L6.196 6.373c-.46.24-.938.408-1.423.5l-1.196.497C2.412 7.476 1.5 8.735 1.5 10.234v6.497c0 .141.082.259.192.273l4.788.888-.215 1.904-4.76-.883C.659 18.8 0 17.857 0 16.731v-6.497c0-2.459 1.47-4.53 3.366-4.773l1.13-.483c.387-.065.768-.196 1.134-.387l3.474-1.818c2.464-1.29 5.054-2.108 7.7-2.435l1.51-.186c1.904-.235 3.839-.197 5.742.114 3.153.517 6.18 1.733 8.997 3.614L36.7 6.315l8.404 2.315c1.55.427 2.924 1.66 3.767 3.384.691 1.41.7 5.594.689 6.843l-.01.95z" mask="url(#b1nry29byf)"/>
        <path fill="#EF4B2B" d="M21.608 19.653L23.108 19.653 23.108 1.027 21.608 1.027z" mask="url(#b1nry29byf)"/>
        <path fill="#EF4B2B" d="M37.91 8.595H12.411c-1.018 0-1.845-1.062-1.845-2.367V2.645h1.5v3.583c0 .244.155.443.345.443h25.5v1.924zM27.87 12.25h-2.504c-.414 0-.75-.43-.75-.962 0-.531.336-.962.75-.962h2.503c.414 0 .75.43.75.962 0 .531-.336.962-.75.962M19.352 12.25h-2.504c-.414 0-.75-.43-.75-.962 0-.531.336-.962.75-.962h2.504c.414 0 .75.43.75.962 0 .531-.336.962-.75.962" mask="url(#b1nry29byf)"/>
    </g>
</svg>
